%TF.GenerationSoftware,KiCad,Pcbnew,(5.1.10)-1*%
%TF.CreationDate,2021-10-06T18:40:40-05:00*%
%TF.ProjectId,BYTE_Control_Board,42595445-5f43-46f6-9e74-726f6c5f426f,v2.2*%
%TF.SameCoordinates,Original*%
%TF.FileFunction,Paste,Top*%
%TF.FilePolarity,Positive*%
%FSLAX46Y46*%
G04 Gerber Fmt 4.6, Leading zero omitted, Abs format (unit mm)*
G04 Created by KiCad (PCBNEW (5.1.10)-1) date 2021-10-06 18:40:40*
%MOMM*%
%LPD*%
G01*
G04 APERTURE LIST*
%TA.AperFunction,Profile*%
%ADD10C,0.200000*%
%TD*%
%ADD11R,0.550000X1.700000*%
%ADD12R,1.000000X0.900000*%
%ADD13R,0.400000X0.700000*%
%ADD14R,1.650000X0.300000*%
%ADD15R,1.650000X0.600000*%
%ADD16R,0.500000X0.500000*%
%ADD17R,0.650000X1.650000*%
%ADD18R,0.700000X0.300000*%
G04 APERTURE END LIST*
D10*
X121480000Y-143220004D02*
G75*
G02*
X120480000Y-142220004I0J1000000D01*
G01*
X174480000Y-123920004D02*
G75*
G02*
X175480000Y-124920004I0J-1000000D01*
G01*
X174180000Y-140570004D02*
X175480000Y-140570004D01*
X174480000Y-143220004D02*
X121480000Y-143220004D01*
X120480000Y-124920004D02*
G75*
G02*
X121480000Y-123920004I1000000J0D01*
G01*
X126380000Y-133570004D02*
G75*
G03*
X126380000Y-133570004I-900000J0D01*
G01*
X139780001Y-126220004D02*
G75*
G03*
X139780001Y-126220004I-1300001J0D01*
G01*
X174180000Y-140570004D02*
G75*
G02*
X174180000Y-134570004I0J3000000D01*
G01*
X139780001Y-140920004D02*
G75*
G03*
X139780001Y-140920004I-1300001J0D01*
G01*
X175480000Y-140570004D02*
X175480000Y-142220004D01*
X175480000Y-142220004D02*
G75*
G02*
X174480000Y-143220004I-1000000J0D01*
G01*
X120480000Y-142220004D02*
X120480000Y-124920004D01*
X175480000Y-134570004D02*
X174180000Y-134570004D01*
X121480000Y-123920004D02*
X174480000Y-123920004D01*
X175480000Y-124920004D02*
X175480000Y-134570004D01*
D11*
%TO.C,SW3*%
X140700000Y-126700000D03*
D12*
X141325000Y-128750000D03*
X142925000Y-128750000D03*
X141325000Y-124650000D03*
X142925000Y-124650000D03*
%TD*%
%TO.C,R13*%
G36*
G01*
X137825000Y-128500000D02*
X137825000Y-129050000D01*
G75*
G02*
X137625000Y-129250000I-200000J0D01*
G01*
X137225000Y-129250000D01*
G75*
G02*
X137025000Y-129050000I0J200000D01*
G01*
X137025000Y-128500000D01*
G75*
G02*
X137225000Y-128300000I200000J0D01*
G01*
X137625000Y-128300000D01*
G75*
G02*
X137825000Y-128500000I0J-200000D01*
G01*
G37*
G36*
G01*
X139475000Y-128500000D02*
X139475000Y-129050000D01*
G75*
G02*
X139275000Y-129250000I-200000J0D01*
G01*
X138875000Y-129250000D01*
G75*
G02*
X138675000Y-129050000I0J200000D01*
G01*
X138675000Y-128500000D01*
G75*
G02*
X138875000Y-128300000I200000J0D01*
G01*
X139275000Y-128300000D01*
G75*
G02*
X139475000Y-128500000I0J-200000D01*
G01*
G37*
%TD*%
%TO.C,C4*%
G36*
G01*
X150890000Y-127570000D02*
X150890000Y-127070000D01*
G75*
G02*
X151115000Y-126845000I225000J0D01*
G01*
X151565000Y-126845000D01*
G75*
G02*
X151790000Y-127070000I0J-225000D01*
G01*
X151790000Y-127570000D01*
G75*
G02*
X151565000Y-127795000I-225000J0D01*
G01*
X151115000Y-127795000D01*
G75*
G02*
X150890000Y-127570000I0J225000D01*
G01*
G37*
G36*
G01*
X149340000Y-127570000D02*
X149340000Y-127070000D01*
G75*
G02*
X149565000Y-126845000I225000J0D01*
G01*
X150015000Y-126845000D01*
G75*
G02*
X150240000Y-127070000I0J-225000D01*
G01*
X150240000Y-127570000D01*
G75*
G02*
X150015000Y-127795000I-225000J0D01*
G01*
X149565000Y-127795000D01*
G75*
G02*
X149340000Y-127570000I0J225000D01*
G01*
G37*
%TD*%
%TO.C,C3*%
G36*
G01*
X147090000Y-127070000D02*
X147090000Y-127570000D01*
G75*
G02*
X146865000Y-127795000I-225000J0D01*
G01*
X146415000Y-127795000D01*
G75*
G02*
X146190000Y-127570000I0J225000D01*
G01*
X146190000Y-127070000D01*
G75*
G02*
X146415000Y-126845000I225000J0D01*
G01*
X146865000Y-126845000D01*
G75*
G02*
X147090000Y-127070000I0J-225000D01*
G01*
G37*
G36*
G01*
X148640000Y-127070000D02*
X148640000Y-127570000D01*
G75*
G02*
X148415000Y-127795000I-225000J0D01*
G01*
X147965000Y-127795000D01*
G75*
G02*
X147740000Y-127570000I0J225000D01*
G01*
X147740000Y-127070000D01*
G75*
G02*
X147965000Y-126845000I225000J0D01*
G01*
X148415000Y-126845000D01*
G75*
G02*
X148640000Y-127070000I0J-225000D01*
G01*
G37*
%TD*%
%TO.C,R10*%
G36*
G01*
X159105000Y-131665000D02*
X158555000Y-131665000D01*
G75*
G02*
X158355000Y-131465000I0J200000D01*
G01*
X158355000Y-131065000D01*
G75*
G02*
X158555000Y-130865000I200000J0D01*
G01*
X159105000Y-130865000D01*
G75*
G02*
X159305000Y-131065000I0J-200000D01*
G01*
X159305000Y-131465000D01*
G75*
G02*
X159105000Y-131665000I-200000J0D01*
G01*
G37*
G36*
G01*
X159105000Y-133315000D02*
X158555000Y-133315000D01*
G75*
G02*
X158355000Y-133115000I0J200000D01*
G01*
X158355000Y-132715000D01*
G75*
G02*
X158555000Y-132515000I200000J0D01*
G01*
X159105000Y-132515000D01*
G75*
G02*
X159305000Y-132715000I0J-200000D01*
G01*
X159305000Y-133115000D01*
G75*
G02*
X159105000Y-133315000I-200000J0D01*
G01*
G37*
%TD*%
%TO.C,R9*%
G36*
G01*
X160075000Y-132535000D02*
X160625000Y-132535000D01*
G75*
G02*
X160825000Y-132735000I0J-200000D01*
G01*
X160825000Y-133135000D01*
G75*
G02*
X160625000Y-133335000I-200000J0D01*
G01*
X160075000Y-133335000D01*
G75*
G02*
X159875000Y-133135000I0J200000D01*
G01*
X159875000Y-132735000D01*
G75*
G02*
X160075000Y-132535000I200000J0D01*
G01*
G37*
G36*
G01*
X160075000Y-130885000D02*
X160625000Y-130885000D01*
G75*
G02*
X160825000Y-131085000I0J-200000D01*
G01*
X160825000Y-131485000D01*
G75*
G02*
X160625000Y-131685000I-200000J0D01*
G01*
X160075000Y-131685000D01*
G75*
G02*
X159875000Y-131485000I0J200000D01*
G01*
X159875000Y-131085000D01*
G75*
G02*
X160075000Y-130885000I200000J0D01*
G01*
G37*
%TD*%
%TO.C,R8*%
G36*
G01*
X163825000Y-132655000D02*
X164375000Y-132655000D01*
G75*
G02*
X164575000Y-132855000I0J-200000D01*
G01*
X164575000Y-133255000D01*
G75*
G02*
X164375000Y-133455000I-200000J0D01*
G01*
X163825000Y-133455000D01*
G75*
G02*
X163625000Y-133255000I0J200000D01*
G01*
X163625000Y-132855000D01*
G75*
G02*
X163825000Y-132655000I200000J0D01*
G01*
G37*
G36*
G01*
X163825000Y-131005000D02*
X164375000Y-131005000D01*
G75*
G02*
X164575000Y-131205000I0J-200000D01*
G01*
X164575000Y-131605000D01*
G75*
G02*
X164375000Y-131805000I-200000J0D01*
G01*
X163825000Y-131805000D01*
G75*
G02*
X163625000Y-131605000I0J200000D01*
G01*
X163625000Y-131205000D01*
G75*
G02*
X163825000Y-131005000I200000J0D01*
G01*
G37*
%TD*%
%TO.C,R7*%
G36*
G01*
X163030000Y-129695000D02*
X163030000Y-130245000D01*
G75*
G02*
X162830000Y-130445000I-200000J0D01*
G01*
X162430000Y-130445000D01*
G75*
G02*
X162230000Y-130245000I0J200000D01*
G01*
X162230000Y-129695000D01*
G75*
G02*
X162430000Y-129495000I200000J0D01*
G01*
X162830000Y-129495000D01*
G75*
G02*
X163030000Y-129695000I0J-200000D01*
G01*
G37*
G36*
G01*
X164680000Y-129695000D02*
X164680000Y-130245000D01*
G75*
G02*
X164480000Y-130445000I-200000J0D01*
G01*
X164080000Y-130445000D01*
G75*
G02*
X163880000Y-130245000I0J200000D01*
G01*
X163880000Y-129695000D01*
G75*
G02*
X164080000Y-129495000I200000J0D01*
G01*
X164480000Y-129495000D01*
G75*
G02*
X164680000Y-129695000I0J-200000D01*
G01*
G37*
%TD*%
D13*
%TO.C,Q1*%
X162230000Y-132820000D03*
X161730000Y-132820000D03*
X162230000Y-131320000D03*
X162730000Y-132820000D03*
X161730000Y-131320000D03*
X162730000Y-131320000D03*
%TD*%
D14*
%TO.C,P1*%
X167795000Y-127650000D03*
X167795000Y-128150000D03*
X167795000Y-128650000D03*
X167795000Y-129150000D03*
X167795000Y-129650000D03*
X167795000Y-130150000D03*
X167795000Y-130650000D03*
X167795000Y-131150000D03*
D15*
X167795000Y-127000000D03*
X167795000Y-131800000D03*
X167795000Y-126200000D03*
X167795000Y-132600000D03*
%TD*%
D16*
%TO.C,U2*%
X147620000Y-138370002D03*
G36*
G01*
X147370000Y-137695002D02*
X147370000Y-137445002D01*
G75*
G02*
X147495000Y-137320002I125000J0D01*
G01*
X147745000Y-137320002D01*
G75*
G02*
X147870000Y-137445002I0J-125000D01*
G01*
X147870000Y-137695002D01*
G75*
G02*
X147745000Y-137820002I-125000J0D01*
G01*
X147495000Y-137820002D01*
G75*
G02*
X147370000Y-137695002I0J125000D01*
G01*
G37*
X148420000Y-137570002D03*
G36*
G01*
X147370000Y-136895002D02*
X147370000Y-136645002D01*
G75*
G02*
X147495000Y-136520002I125000J0D01*
G01*
X147745000Y-136520002D01*
G75*
G02*
X147870000Y-136645002I0J-125000D01*
G01*
X147870000Y-136895002D01*
G75*
G02*
X147745000Y-137020002I-125000J0D01*
G01*
X147495000Y-137020002D01*
G75*
G02*
X147370000Y-136895002I0J125000D01*
G01*
G37*
X148420000Y-136770002D03*
G36*
G01*
X147370000Y-136095002D02*
X147370000Y-135845002D01*
G75*
G02*
X147495000Y-135720002I125000J0D01*
G01*
X147745000Y-135720002D01*
G75*
G02*
X147870000Y-135845002I0J-125000D01*
G01*
X147870000Y-136095002D01*
G75*
G02*
X147745000Y-136220002I-125000J0D01*
G01*
X147495000Y-136220002D01*
G75*
G02*
X147370000Y-136095002I0J125000D01*
G01*
G37*
X148420004Y-135970002D03*
G36*
G01*
X147370003Y-135295004D02*
X147370003Y-135045004D01*
G75*
G02*
X147495003Y-134920004I125000J0D01*
G01*
X147745003Y-134920004D01*
G75*
G02*
X147870003Y-135045004I0J-125000D01*
G01*
X147870003Y-135295004D01*
G75*
G02*
X147745003Y-135420004I-125000J0D01*
G01*
X147495003Y-135420004D01*
G75*
G02*
X147370003Y-135295004I0J125000D01*
G01*
G37*
X148420004Y-135170004D03*
G36*
G01*
X147370000Y-134495002D02*
X147370000Y-134245002D01*
G75*
G02*
X147495000Y-134120002I125000J0D01*
G01*
X147745000Y-134120002D01*
G75*
G02*
X147870000Y-134245002I0J-125000D01*
G01*
X147870000Y-134495002D01*
G75*
G02*
X147745000Y-134620002I-125000J0D01*
G01*
X147495000Y-134620002D01*
G75*
G02*
X147370000Y-134495002I0J125000D01*
G01*
G37*
X148419998Y-134370002D03*
G36*
G01*
X147370000Y-133695002D02*
X147370000Y-133445002D01*
G75*
G02*
X147495000Y-133320002I125000J0D01*
G01*
X147745000Y-133320002D01*
G75*
G02*
X147870000Y-133445002I0J-125000D01*
G01*
X147870000Y-133695002D01*
G75*
G02*
X147745000Y-133820002I-125000J0D01*
G01*
X147495000Y-133820002D01*
G75*
G02*
X147370000Y-133695002I0J125000D01*
G01*
G37*
X148420000Y-133569999D03*
G36*
G01*
X147370000Y-132895002D02*
X147370000Y-132645002D01*
G75*
G02*
X147495000Y-132520002I125000J0D01*
G01*
X147745000Y-132520002D01*
G75*
G02*
X147870000Y-132645002I0J-125000D01*
G01*
X147870000Y-132895002D01*
G75*
G02*
X147745000Y-133020002I-125000J0D01*
G01*
X147495000Y-133020002D01*
G75*
G02*
X147370000Y-132895002I0J125000D01*
G01*
G37*
X148420000Y-132770002D03*
G36*
G01*
X147370000Y-132095002D02*
X147370000Y-131845002D01*
G75*
G02*
X147495000Y-131720002I125000J0D01*
G01*
X147745000Y-131720002D01*
G75*
G02*
X147870000Y-131845002I0J-125000D01*
G01*
X147870000Y-132095002D01*
G75*
G02*
X147745000Y-132220002I-125000J0D01*
G01*
X147495000Y-132220002D01*
G75*
G02*
X147370000Y-132095002I0J125000D01*
G01*
G37*
X148420000Y-131970002D03*
G36*
G01*
X147370000Y-131295002D02*
X147370000Y-131045002D01*
G75*
G02*
X147495000Y-130920002I125000J0D01*
G01*
X147745000Y-130920002D01*
G75*
G02*
X147870000Y-131045002I0J-125000D01*
G01*
X147870000Y-131295002D01*
G75*
G02*
X147745000Y-131420002I-125000J0D01*
G01*
X147495000Y-131420002D01*
G75*
G02*
X147370000Y-131295002I0J125000D01*
G01*
G37*
X148420000Y-131170002D03*
G36*
G01*
X147370000Y-130495002D02*
X147370000Y-130245002D01*
G75*
G02*
X147495000Y-130120002I125000J0D01*
G01*
X147745000Y-130120002D01*
G75*
G02*
X147870000Y-130245002I0J-125000D01*
G01*
X147870000Y-130495002D01*
G75*
G02*
X147745000Y-130620002I-125000J0D01*
G01*
X147495000Y-130620002D01*
G75*
G02*
X147370000Y-130495002I0J125000D01*
G01*
G37*
X148419998Y-130370002D03*
G36*
G01*
X147370000Y-129695002D02*
X147370000Y-129445002D01*
G75*
G02*
X147495000Y-129320002I125000J0D01*
G01*
X147745000Y-129320002D01*
G75*
G02*
X147870000Y-129445002I0J-125000D01*
G01*
X147870000Y-129695002D01*
G75*
G02*
X147745000Y-129820002I-125000J0D01*
G01*
X147495000Y-129820002D01*
G75*
G02*
X147370000Y-129695002I0J125000D01*
G01*
G37*
X148419998Y-129570002D03*
G36*
G01*
X147644997Y-128520002D02*
X147894997Y-128520002D01*
G75*
G02*
X148019997Y-128645002I0J-125000D01*
G01*
X148019997Y-128895002D01*
G75*
G02*
X147894997Y-129020002I-125000J0D01*
G01*
X147644997Y-129020002D01*
G75*
G02*
X147519997Y-128895002I0J125000D01*
G01*
X147519997Y-128645002D01*
G75*
G02*
X147644997Y-128520002I125000J0D01*
G01*
G37*
G36*
G01*
X148445003Y-128520002D02*
X148695003Y-128520002D01*
G75*
G02*
X148820003Y-128645002I0J-125000D01*
G01*
X148820003Y-128895002D01*
G75*
G02*
X148695003Y-129020002I-125000J0D01*
G01*
X148445003Y-129020002D01*
G75*
G02*
X148320003Y-128895002I0J125000D01*
G01*
X148320003Y-128645002D01*
G75*
G02*
X148445003Y-128520002I125000J0D01*
G01*
G37*
G36*
G01*
X149245002Y-128520002D02*
X149495002Y-128520002D01*
G75*
G02*
X149620002Y-128645002I0J-125000D01*
G01*
X149620002Y-128895002D01*
G75*
G02*
X149495002Y-129020002I-125000J0D01*
G01*
X149245002Y-129020002D01*
G75*
G02*
X149120002Y-128895002I0J125000D01*
G01*
X149120002Y-128645002D01*
G75*
G02*
X149245002Y-128520002I125000J0D01*
G01*
G37*
X149370002Y-129570002D03*
G36*
G01*
X150045003Y-128519999D02*
X150295003Y-128519999D01*
G75*
G02*
X150420003Y-128644999I0J-125000D01*
G01*
X150420003Y-128894999D01*
G75*
G02*
X150295003Y-129019999I-125000J0D01*
G01*
X150045003Y-129019999D01*
G75*
G02*
X149920003Y-128894999I0J125000D01*
G01*
X149920003Y-128644999D01*
G75*
G02*
X150045003Y-128519999I125000J0D01*
G01*
G37*
X150170000Y-129570002D03*
G36*
G01*
X150844998Y-128519999D02*
X151094998Y-128519999D01*
G75*
G02*
X151219998Y-128644999I0J-125000D01*
G01*
X151219998Y-128894999D01*
G75*
G02*
X151094998Y-129019999I-125000J0D01*
G01*
X150844998Y-129019999D01*
G75*
G02*
X150719998Y-128894999I0J125000D01*
G01*
X150719998Y-128644999D01*
G75*
G02*
X150844998Y-128519999I125000J0D01*
G01*
G37*
X150970000Y-129570002D03*
G36*
G01*
X151645002Y-128520002D02*
X151895002Y-128520002D01*
G75*
G02*
X152020002Y-128645002I0J-125000D01*
G01*
X152020002Y-128895002D01*
G75*
G02*
X151895002Y-129020002I-125000J0D01*
G01*
X151645002Y-129020002D01*
G75*
G02*
X151520002Y-128895002I0J125000D01*
G01*
X151520002Y-128645002D01*
G75*
G02*
X151645002Y-128520002I125000J0D01*
G01*
G37*
X151770002Y-129570002D03*
G36*
G01*
X152445003Y-128520002D02*
X152695003Y-128520002D01*
G75*
G02*
X152820003Y-128645002I0J-125000D01*
G01*
X152820003Y-128895002D01*
G75*
G02*
X152695003Y-129020002I-125000J0D01*
G01*
X152445003Y-129020002D01*
G75*
G02*
X152320003Y-128895002I0J125000D01*
G01*
X152320003Y-128645002D01*
G75*
G02*
X152445003Y-128520002I125000J0D01*
G01*
G37*
X152569998Y-129570002D03*
G36*
G01*
X153245000Y-128520002D02*
X153495000Y-128520002D01*
G75*
G02*
X153620000Y-128645002I0J-125000D01*
G01*
X153620000Y-128895002D01*
G75*
G02*
X153495000Y-129020002I-125000J0D01*
G01*
X153245000Y-129020002D01*
G75*
G02*
X153120000Y-128895002I0J125000D01*
G01*
X153120000Y-128645002D01*
G75*
G02*
X153245000Y-128520002I125000J0D01*
G01*
G37*
X153370004Y-129570002D03*
G36*
G01*
X154045005Y-128520002D02*
X154295005Y-128520002D01*
G75*
G02*
X154420005Y-128645002I0J-125000D01*
G01*
X154420005Y-128895002D01*
G75*
G02*
X154295005Y-129020002I-125000J0D01*
G01*
X154045005Y-129020002D01*
G75*
G02*
X153920005Y-128895002I0J125000D01*
G01*
X153920005Y-128645002D01*
G75*
G02*
X154045005Y-128520002I125000J0D01*
G01*
G37*
X154170005Y-129570002D03*
G36*
G01*
X154845000Y-128520002D02*
X155095000Y-128520002D01*
G75*
G02*
X155220000Y-128645002I0J-125000D01*
G01*
X155220000Y-128895002D01*
G75*
G02*
X155095000Y-129020002I-125000J0D01*
G01*
X154845000Y-129020002D01*
G75*
G02*
X154720000Y-128895002I0J125000D01*
G01*
X154720000Y-128645002D01*
G75*
G02*
X154845000Y-128520002I125000J0D01*
G01*
G37*
X154970000Y-129570002D03*
G36*
G01*
X155645004Y-128519999D02*
X155895004Y-128519999D01*
G75*
G02*
X156020004Y-128644999I0J-125000D01*
G01*
X156020004Y-128894999D01*
G75*
G02*
X155895004Y-129019999I-125000J0D01*
G01*
X155645004Y-129019999D01*
G75*
G02*
X155520004Y-128894999I0J125000D01*
G01*
X155520004Y-128644999D01*
G75*
G02*
X155645004Y-128519999I125000J0D01*
G01*
G37*
G36*
G01*
X156445000Y-128520002D02*
X156695000Y-128520002D01*
G75*
G02*
X156820000Y-128645002I0J-125000D01*
G01*
X156820000Y-128895002D01*
G75*
G02*
X156695000Y-129020002I-125000J0D01*
G01*
X156445000Y-129020002D01*
G75*
G02*
X156320000Y-128895002I0J125000D01*
G01*
X156320000Y-128645002D01*
G75*
G02*
X156445000Y-128520002I125000J0D01*
G01*
G37*
G36*
G01*
X156470002Y-129695002D02*
X156470002Y-129445002D01*
G75*
G02*
X156595002Y-129320002I125000J0D01*
G01*
X156845002Y-129320002D01*
G75*
G02*
X156970002Y-129445002I0J-125000D01*
G01*
X156970002Y-129695002D01*
G75*
G02*
X156845002Y-129820002I-125000J0D01*
G01*
X156595002Y-129820002D01*
G75*
G02*
X156470002Y-129695002I0J125000D01*
G01*
G37*
X155920000Y-129570002D03*
G36*
G01*
X156470002Y-130495002D02*
X156470002Y-130245002D01*
G75*
G02*
X156595002Y-130120002I125000J0D01*
G01*
X156845002Y-130120002D01*
G75*
G02*
X156970002Y-130245002I0J-125000D01*
G01*
X156970002Y-130495002D01*
G75*
G02*
X156845002Y-130620002I-125000J0D01*
G01*
X156595002Y-130620002D01*
G75*
G02*
X156470002Y-130495002I0J125000D01*
G01*
G37*
X155920000Y-130370002D03*
G36*
G01*
X156470002Y-131295002D02*
X156470002Y-131045002D01*
G75*
G02*
X156595002Y-130920002I125000J0D01*
G01*
X156845002Y-130920002D01*
G75*
G02*
X156970002Y-131045002I0J-125000D01*
G01*
X156970002Y-131295002D01*
G75*
G02*
X156845002Y-131420002I-125000J0D01*
G01*
X156595002Y-131420002D01*
G75*
G02*
X156470002Y-131295002I0J125000D01*
G01*
G37*
X155920000Y-131170002D03*
G36*
G01*
X156470002Y-132095002D02*
X156470002Y-131845002D01*
G75*
G02*
X156595002Y-131720002I125000J0D01*
G01*
X156845002Y-131720002D01*
G75*
G02*
X156970002Y-131845002I0J-125000D01*
G01*
X156970002Y-132095002D01*
G75*
G02*
X156845002Y-132220002I-125000J0D01*
G01*
X156595002Y-132220002D01*
G75*
G02*
X156470002Y-132095002I0J125000D01*
G01*
G37*
X155920000Y-131970002D03*
G36*
G01*
X156470002Y-132895002D02*
X156470002Y-132645002D01*
G75*
G02*
X156595002Y-132520002I125000J0D01*
G01*
X156845002Y-132520002D01*
G75*
G02*
X156970002Y-132645002I0J-125000D01*
G01*
X156970002Y-132895002D01*
G75*
G02*
X156845002Y-133020002I-125000J0D01*
G01*
X156595002Y-133020002D01*
G75*
G02*
X156470002Y-132895002I0J125000D01*
G01*
G37*
X155920000Y-132770002D03*
G36*
G01*
X156470002Y-133695002D02*
X156470002Y-133445002D01*
G75*
G02*
X156595002Y-133320002I125000J0D01*
G01*
X156845002Y-133320002D01*
G75*
G02*
X156970002Y-133445002I0J-125000D01*
G01*
X156970002Y-133695002D01*
G75*
G02*
X156845002Y-133820002I-125000J0D01*
G01*
X156595002Y-133820002D01*
G75*
G02*
X156470002Y-133695002I0J125000D01*
G01*
G37*
X155920000Y-133570002D03*
G36*
G01*
X156470002Y-134495002D02*
X156470002Y-134245002D01*
G75*
G02*
X156595002Y-134120002I125000J0D01*
G01*
X156845002Y-134120002D01*
G75*
G02*
X156970002Y-134245002I0J-125000D01*
G01*
X156970002Y-134495002D01*
G75*
G02*
X156845002Y-134620002I-125000J0D01*
G01*
X156595002Y-134620002D01*
G75*
G02*
X156470002Y-134495002I0J125000D01*
G01*
G37*
X155920000Y-134370002D03*
G36*
G01*
X156470002Y-135295002D02*
X156470002Y-135045002D01*
G75*
G02*
X156595002Y-134920002I125000J0D01*
G01*
X156845002Y-134920002D01*
G75*
G02*
X156970002Y-135045002I0J-125000D01*
G01*
X156970002Y-135295002D01*
G75*
G02*
X156845002Y-135420002I-125000J0D01*
G01*
X156595002Y-135420002D01*
G75*
G02*
X156470002Y-135295002I0J125000D01*
G01*
G37*
X155920000Y-135170002D03*
G36*
G01*
X156470002Y-136095002D02*
X156470002Y-135845002D01*
G75*
G02*
X156595002Y-135720002I125000J0D01*
G01*
X156845002Y-135720002D01*
G75*
G02*
X156970002Y-135845002I0J-125000D01*
G01*
X156970002Y-136095002D01*
G75*
G02*
X156845002Y-136220002I-125000J0D01*
G01*
X156595002Y-136220002D01*
G75*
G02*
X156470002Y-136095002I0J125000D01*
G01*
G37*
X155920000Y-135970002D03*
G36*
G01*
X156470002Y-136895002D02*
X156470002Y-136645002D01*
G75*
G02*
X156595002Y-136520002I125000J0D01*
G01*
X156845002Y-136520002D01*
G75*
G02*
X156970002Y-136645002I0J-125000D01*
G01*
X156970002Y-136895002D01*
G75*
G02*
X156845002Y-137020002I-125000J0D01*
G01*
X156595002Y-137020002D01*
G75*
G02*
X156470002Y-136895002I0J125000D01*
G01*
G37*
X155920000Y-136770002D03*
G36*
G01*
X156470002Y-137695002D02*
X156470002Y-137445002D01*
G75*
G02*
X156595002Y-137320002I125000J0D01*
G01*
X156845002Y-137320002D01*
G75*
G02*
X156970002Y-137445002I0J-125000D01*
G01*
X156970002Y-137695002D01*
G75*
G02*
X156845002Y-137820002I-125000J0D01*
G01*
X156595002Y-137820002D01*
G75*
G02*
X156470002Y-137695002I0J125000D01*
G01*
G37*
X155920000Y-137570004D03*
G36*
G01*
X156470002Y-138495002D02*
X156470002Y-138245002D01*
G75*
G02*
X156595002Y-138120002I125000J0D01*
G01*
X156845002Y-138120002D01*
G75*
G02*
X156970002Y-138245002I0J-125000D01*
G01*
X156970002Y-138495002D01*
G75*
G02*
X156845002Y-138620002I-125000J0D01*
G01*
X156595002Y-138620002D01*
G75*
G02*
X156470002Y-138495002I0J125000D01*
G01*
G37*
G36*
G01*
X147370000Y-139795002D02*
X147370000Y-139545002D01*
G75*
G02*
X147495000Y-139420002I125000J0D01*
G01*
X147745000Y-139420002D01*
G75*
G02*
X147870000Y-139545002I0J-125000D01*
G01*
X147870000Y-139795002D01*
G75*
G02*
X147745000Y-139920002I-125000J0D01*
G01*
X147495000Y-139920002D01*
G75*
G02*
X147370000Y-139795002I0J125000D01*
G01*
G37*
G36*
G01*
X147370000Y-141095002D02*
X147370000Y-140845002D01*
G75*
G02*
X147495000Y-140720002I125000J0D01*
G01*
X147745000Y-140720002D01*
G75*
G02*
X147870000Y-140845002I0J-125000D01*
G01*
X147870000Y-141095002D01*
G75*
G02*
X147745000Y-141220002I-125000J0D01*
G01*
X147495000Y-141220002D01*
G75*
G02*
X147370000Y-141095002I0J125000D01*
G01*
G37*
G36*
G01*
X147370000Y-142395002D02*
X147370000Y-142145002D01*
G75*
G02*
X147495000Y-142020002I125000J0D01*
G01*
X147745000Y-142020002D01*
G75*
G02*
X147870000Y-142145002I0J-125000D01*
G01*
X147870000Y-142395002D01*
G75*
G02*
X147745000Y-142520002I-125000J0D01*
G01*
X147495000Y-142520002D01*
G75*
G02*
X147370000Y-142395002I0J125000D01*
G01*
G37*
X154045000Y-137570002D03*
X152170000Y-137570002D03*
X150295000Y-137570002D03*
G36*
G01*
X148170000Y-139145011D02*
X148170000Y-138895011D01*
G75*
G02*
X148295000Y-138770011I125000J0D01*
G01*
X148545000Y-138770011D01*
G75*
G02*
X148670000Y-138895011I0J-125000D01*
G01*
X148670000Y-139145011D01*
G75*
G02*
X148545000Y-139270011I-125000J0D01*
G01*
X148295000Y-139270011D01*
G75*
G02*
X148170000Y-139145011I0J125000D01*
G01*
G37*
%TD*%
D17*
%TO.C,U1*%
X161470000Y-136420000D03*
D18*
X160420000Y-136920000D03*
X160420000Y-136420000D03*
X160420000Y-135920000D03*
X162520000Y-135920000D03*
X162520000Y-136420000D03*
X162520000Y-136920000D03*
%TD*%
%TO.C,R5*%
G36*
G01*
X144975000Y-131710000D02*
X144425000Y-131710000D01*
G75*
G02*
X144225000Y-131510000I0J200000D01*
G01*
X144225000Y-131110000D01*
G75*
G02*
X144425000Y-130910000I200000J0D01*
G01*
X144975000Y-130910000D01*
G75*
G02*
X145175000Y-131110000I0J-200000D01*
G01*
X145175000Y-131510000D01*
G75*
G02*
X144975000Y-131710000I-200000J0D01*
G01*
G37*
G36*
G01*
X144975000Y-133360000D02*
X144425000Y-133360000D01*
G75*
G02*
X144225000Y-133160000I0J200000D01*
G01*
X144225000Y-132760000D01*
G75*
G02*
X144425000Y-132560000I200000J0D01*
G01*
X144975000Y-132560000D01*
G75*
G02*
X145175000Y-132760000I0J-200000D01*
G01*
X145175000Y-133160000D01*
G75*
G02*
X144975000Y-133360000I-200000J0D01*
G01*
G37*
%TD*%
%TO.C,R3*%
G36*
G01*
X144415000Y-135520000D02*
X144965000Y-135520000D01*
G75*
G02*
X145165000Y-135720000I0J-200000D01*
G01*
X145165000Y-136120000D01*
G75*
G02*
X144965000Y-136320000I-200000J0D01*
G01*
X144415000Y-136320000D01*
G75*
G02*
X144215000Y-136120000I0J200000D01*
G01*
X144215000Y-135720000D01*
G75*
G02*
X144415000Y-135520000I200000J0D01*
G01*
G37*
G36*
G01*
X144415000Y-133870000D02*
X144965000Y-133870000D01*
G75*
G02*
X145165000Y-134070000I0J-200000D01*
G01*
X145165000Y-134470000D01*
G75*
G02*
X144965000Y-134670000I-200000J0D01*
G01*
X144415000Y-134670000D01*
G75*
G02*
X144215000Y-134470000I0J200000D01*
G01*
X144215000Y-134070000D01*
G75*
G02*
X144415000Y-133870000I200000J0D01*
G01*
G37*
%TD*%
%TO.C,R2*%
G36*
G01*
X160845000Y-138155000D02*
X160845000Y-138705000D01*
G75*
G02*
X160645000Y-138905000I-200000J0D01*
G01*
X160245000Y-138905000D01*
G75*
G02*
X160045000Y-138705000I0J200000D01*
G01*
X160045000Y-138155000D01*
G75*
G02*
X160245000Y-137955000I200000J0D01*
G01*
X160645000Y-137955000D01*
G75*
G02*
X160845000Y-138155000I0J-200000D01*
G01*
G37*
G36*
G01*
X162495000Y-138155000D02*
X162495000Y-138705000D01*
G75*
G02*
X162295000Y-138905000I-200000J0D01*
G01*
X161895000Y-138905000D01*
G75*
G02*
X161695000Y-138705000I0J200000D01*
G01*
X161695000Y-138155000D01*
G75*
G02*
X161895000Y-137955000I200000J0D01*
G01*
X162295000Y-137955000D01*
G75*
G02*
X162495000Y-138155000I0J-200000D01*
G01*
G37*
%TD*%
%TO.C,C2*%
G36*
G01*
X164180000Y-136725000D02*
X164680000Y-136725000D01*
G75*
G02*
X164905000Y-136950000I0J-225000D01*
G01*
X164905000Y-137400000D01*
G75*
G02*
X164680000Y-137625000I-225000J0D01*
G01*
X164180000Y-137625000D01*
G75*
G02*
X163955000Y-137400000I0J225000D01*
G01*
X163955000Y-136950000D01*
G75*
G02*
X164180000Y-136725000I225000J0D01*
G01*
G37*
G36*
G01*
X164180000Y-135175000D02*
X164680000Y-135175000D01*
G75*
G02*
X164905000Y-135400000I0J-225000D01*
G01*
X164905000Y-135850000D01*
G75*
G02*
X164680000Y-136075000I-225000J0D01*
G01*
X164180000Y-136075000D01*
G75*
G02*
X163955000Y-135850000I0J225000D01*
G01*
X163955000Y-135400000D01*
G75*
G02*
X164180000Y-135175000I225000J0D01*
G01*
G37*
%TD*%
%TO.C,C1*%
G36*
G01*
X161620000Y-134690000D02*
X161620000Y-134190000D01*
G75*
G02*
X161845000Y-133965000I225000J0D01*
G01*
X162295000Y-133965000D01*
G75*
G02*
X162520000Y-134190000I0J-225000D01*
G01*
X162520000Y-134690000D01*
G75*
G02*
X162295000Y-134915000I-225000J0D01*
G01*
X161845000Y-134915000D01*
G75*
G02*
X161620000Y-134690000I0J225000D01*
G01*
G37*
G36*
G01*
X160070000Y-134690000D02*
X160070000Y-134190000D01*
G75*
G02*
X160295000Y-133965000I225000J0D01*
G01*
X160745000Y-133965000D01*
G75*
G02*
X160970000Y-134190000I0J-225000D01*
G01*
X160970000Y-134690000D01*
G75*
G02*
X160745000Y-134915000I-225000J0D01*
G01*
X160295000Y-134915000D01*
G75*
G02*
X160070000Y-134690000I0J225000D01*
G01*
G37*
%TD*%
M02*
