%TF.GenerationSoftware,KiCad,Pcbnew,(5.1.10)-1*%
%TF.CreationDate,2021-10-06T18:40:40-05:00*%
%TF.ProjectId,BYTE_Control_Board,42595445-5f43-46f6-9e74-726f6c5f426f,v2.2*%
%TF.SameCoordinates,Original*%
%TF.FileFunction,Legend,Bot*%
%TF.FilePolarity,Positive*%
%FSLAX46Y46*%
G04 Gerber Fmt 4.6, Leading zero omitted, Abs format (unit mm)*
G04 Created by KiCad (PCBNEW (5.1.10)-1) date 2021-10-06 18:40:40*
%MOMM*%
%LPD*%
G01*
G04 APERTURE LIST*
%ADD10C,0.150000*%
%TA.AperFunction,Profile*%
%ADD11C,0.200000*%
%TD*%
%ADD12C,0.120000*%
%ADD13C,0.010000*%
G04 APERTURE END LIST*
D10*
X143908571Y-142295714D02*
X143670476Y-142962380D01*
X143432380Y-142295714D01*
X143099047Y-142057619D02*
X143051428Y-142010000D01*
X142956190Y-141962380D01*
X142718095Y-141962380D01*
X142622857Y-142010000D01*
X142575238Y-142057619D01*
X142527619Y-142152857D01*
X142527619Y-142248095D01*
X142575238Y-142390952D01*
X143146666Y-142962380D01*
X142527619Y-142962380D01*
X142099047Y-142867142D02*
X142051428Y-142914761D01*
X142099047Y-142962380D01*
X142146666Y-142914761D01*
X142099047Y-142867142D01*
X142099047Y-142962380D01*
X141670476Y-142057619D02*
X141622857Y-142010000D01*
X141527619Y-141962380D01*
X141289523Y-141962380D01*
X141194285Y-142010000D01*
X141146666Y-142057619D01*
X141099047Y-142152857D01*
X141099047Y-142248095D01*
X141146666Y-142390952D01*
X141718095Y-142962380D01*
X141099047Y-142962380D01*
D11*
X121480000Y-143220004D02*
G75*
G02*
X120480000Y-142220004I0J1000000D01*
G01*
X174480000Y-123920004D02*
G75*
G02*
X175480000Y-124920004I0J-1000000D01*
G01*
X174180000Y-140570004D02*
X175480000Y-140570004D01*
X174480000Y-143220004D02*
X121480000Y-143220004D01*
X120480000Y-124920004D02*
G75*
G02*
X121480000Y-123920004I1000000J0D01*
G01*
X126380000Y-133570004D02*
G75*
G03*
X126380000Y-133570004I-900000J0D01*
G01*
X139780001Y-126220004D02*
G75*
G03*
X139780001Y-126220004I-1300001J0D01*
G01*
X174180000Y-140570004D02*
G75*
G02*
X174180000Y-134570004I0J3000000D01*
G01*
X139780001Y-140920004D02*
G75*
G03*
X139780001Y-140920004I-1300001J0D01*
G01*
X175480000Y-140570004D02*
X175480000Y-142220004D01*
X175480000Y-142220004D02*
G75*
G02*
X174480000Y-143220004I-1000000J0D01*
G01*
X120480000Y-142220004D02*
X120480000Y-124920004D01*
X175480000Y-134570004D02*
X174180000Y-134570004D01*
X121480000Y-123920004D02*
X174480000Y-123920004D01*
X175480000Y-124920004D02*
X175480000Y-134570004D01*
D10*
X150874761Y-142827142D02*
X150922380Y-142874761D01*
X151065238Y-142922380D01*
X151160476Y-142922380D01*
X151303333Y-142874761D01*
X151398571Y-142779523D01*
X151446190Y-142684285D01*
X151493809Y-142493809D01*
X151493809Y-142350952D01*
X151446190Y-142160476D01*
X151398571Y-142065238D01*
X151303333Y-141970000D01*
X151160476Y-141922380D01*
X151065238Y-141922380D01*
X150922380Y-141970000D01*
X150874761Y-142017619D01*
X150303333Y-142922380D02*
X150398571Y-142874761D01*
X150446190Y-142827142D01*
X150493809Y-142731904D01*
X150493809Y-142446190D01*
X150446190Y-142350952D01*
X150398571Y-142303333D01*
X150303333Y-142255714D01*
X150160476Y-142255714D01*
X150065238Y-142303333D01*
X150017619Y-142350952D01*
X149970000Y-142446190D01*
X149970000Y-142731904D01*
X150017619Y-142827142D01*
X150065238Y-142874761D01*
X150160476Y-142922380D01*
X150303333Y-142922380D01*
X149541428Y-142255714D02*
X149541428Y-142922380D01*
X149541428Y-142350952D02*
X149493809Y-142303333D01*
X149398571Y-142255714D01*
X149255714Y-142255714D01*
X149160476Y-142303333D01*
X149112857Y-142398571D01*
X149112857Y-142922380D01*
X148779523Y-142255714D02*
X148398571Y-142255714D01*
X148636666Y-141922380D02*
X148636666Y-142779523D01*
X148589047Y-142874761D01*
X148493809Y-142922380D01*
X148398571Y-142922380D01*
X148065238Y-142922380D02*
X148065238Y-142255714D01*
X148065238Y-142446190D02*
X148017619Y-142350952D01*
X147970000Y-142303333D01*
X147874761Y-142255714D01*
X147779523Y-142255714D01*
X147303333Y-142922380D02*
X147398571Y-142874761D01*
X147446190Y-142827142D01*
X147493809Y-142731904D01*
X147493809Y-142446190D01*
X147446190Y-142350952D01*
X147398571Y-142303333D01*
X147303333Y-142255714D01*
X147160476Y-142255714D01*
X147065238Y-142303333D01*
X147017619Y-142350952D01*
X146970000Y-142446190D01*
X146970000Y-142731904D01*
X147017619Y-142827142D01*
X147065238Y-142874761D01*
X147160476Y-142922380D01*
X147303333Y-142922380D01*
X146398571Y-142922380D02*
X146493809Y-142874761D01*
X146541428Y-142779523D01*
X146541428Y-141922380D01*
X145874761Y-142922380D02*
X145970000Y-142874761D01*
X146017619Y-142779523D01*
X146017619Y-141922380D01*
X145112857Y-142874761D02*
X145208095Y-142922380D01*
X145398571Y-142922380D01*
X145493809Y-142874761D01*
X145541428Y-142779523D01*
X145541428Y-142398571D01*
X145493809Y-142303333D01*
X145398571Y-142255714D01*
X145208095Y-142255714D01*
X145112857Y-142303333D01*
X145065238Y-142398571D01*
X145065238Y-142493809D01*
X145541428Y-142589047D01*
X144636666Y-142922380D02*
X144636666Y-142255714D01*
X144636666Y-142446190D02*
X144589047Y-142350952D01*
X144541428Y-142303333D01*
X144446190Y-142255714D01*
X144350952Y-142255714D01*
D12*
X135239523Y-139870000D02*
X135315714Y-139831904D01*
X135430000Y-139831904D01*
X135544285Y-139870000D01*
X135620476Y-139946190D01*
X135658571Y-140022380D01*
X135696666Y-140174761D01*
X135696666Y-140289047D01*
X135658571Y-140441428D01*
X135620476Y-140517619D01*
X135544285Y-140593809D01*
X135430000Y-140631904D01*
X135353809Y-140631904D01*
X135239523Y-140593809D01*
X135201428Y-140555714D01*
X135201428Y-140289047D01*
X135353809Y-140289047D01*
X134858571Y-140631904D02*
X134858571Y-139831904D01*
X134401428Y-140631904D01*
X134401428Y-139831904D01*
X134020476Y-140631904D02*
X134020476Y-139831904D01*
X133830000Y-139831904D01*
X133715714Y-139870000D01*
X133639523Y-139946190D01*
X133601428Y-140022380D01*
X133563333Y-140174761D01*
X133563333Y-140289047D01*
X133601428Y-140441428D01*
X133639523Y-140517619D01*
X133715714Y-140593809D01*
X133830000Y-140631904D01*
X134020476Y-140631904D01*
X131688095Y-140729047D02*
X132488095Y-140729047D01*
X132488095Y-140538571D01*
X132450000Y-140424285D01*
X132373809Y-140348095D01*
X132297619Y-140310000D01*
X132145238Y-140271904D01*
X132030952Y-140271904D01*
X131878571Y-140310000D01*
X131802380Y-140348095D01*
X131726190Y-140424285D01*
X131688095Y-140538571D01*
X131688095Y-140729047D01*
X131688095Y-139929047D02*
X132488095Y-139929047D01*
X132488095Y-139395714D02*
X132488095Y-139243333D01*
X132450000Y-139167142D01*
X132373809Y-139090952D01*
X132221428Y-139052857D01*
X131954761Y-139052857D01*
X131802380Y-139090952D01*
X131726190Y-139167142D01*
X131688095Y-139243333D01*
X131688095Y-139395714D01*
X131726190Y-139471904D01*
X131802380Y-139548095D01*
X131954761Y-139586190D01*
X132221428Y-139586190D01*
X132373809Y-139548095D01*
X132450000Y-139471904D01*
X132488095Y-139395714D01*
X129214285Y-140186190D02*
X129176190Y-140224285D01*
X129138095Y-140338571D01*
X129138095Y-140414761D01*
X129176190Y-140529047D01*
X129252380Y-140605238D01*
X129328571Y-140643333D01*
X129480952Y-140681428D01*
X129595238Y-140681428D01*
X129747619Y-140643333D01*
X129823809Y-140605238D01*
X129900000Y-140529047D01*
X129938095Y-140414761D01*
X129938095Y-140338571D01*
X129900000Y-140224285D01*
X129861904Y-140186190D01*
X129138095Y-139462380D02*
X129138095Y-139843333D01*
X129938095Y-139843333D01*
X129138095Y-139195714D02*
X129938095Y-139195714D01*
X129138095Y-138738571D02*
X129595238Y-139081428D01*
X129938095Y-138738571D02*
X129480952Y-139195714D01*
X128168095Y-140867619D02*
X127368095Y-140600952D01*
X128168095Y-140334285D01*
X127368095Y-140067619D02*
X128168095Y-140067619D01*
X127863333Y-140067619D02*
X127901428Y-139991428D01*
X127901428Y-139839047D01*
X127863333Y-139762857D01*
X127825238Y-139724761D01*
X127749047Y-139686666D01*
X127520476Y-139686666D01*
X127444285Y-139724761D01*
X127406190Y-139762857D01*
X127368095Y-139839047D01*
X127368095Y-139991428D01*
X127406190Y-140067619D01*
X127368095Y-139000952D02*
X127787142Y-139000952D01*
X127863333Y-139039047D01*
X127901428Y-139115238D01*
X127901428Y-139267619D01*
X127863333Y-139343809D01*
X127406190Y-139000952D02*
X127368095Y-139077142D01*
X127368095Y-139267619D01*
X127406190Y-139343809D01*
X127482380Y-139381904D01*
X127558571Y-139381904D01*
X127634761Y-139343809D01*
X127672857Y-139267619D01*
X127672857Y-139077142D01*
X127710952Y-139000952D01*
X127901428Y-138734285D02*
X127901428Y-138429523D01*
X128168095Y-138620000D02*
X127482380Y-138620000D01*
X127406190Y-138581904D01*
X127368095Y-138505714D01*
X127368095Y-138429523D01*
X127901428Y-138277142D02*
X127901428Y-137972380D01*
X128168095Y-138162857D02*
X127482380Y-138162857D01*
X127406190Y-138124761D01*
X127368095Y-138048571D01*
X127368095Y-137972380D01*
D13*
%TO.C,Ref\u002A\u002A*%
G36*
X167865000Y-143220167D02*
G01*
X165494334Y-143220167D01*
X165494334Y-142204167D01*
X165854167Y-142204167D01*
X165854167Y-142839167D01*
X166489167Y-142839167D01*
X166489167Y-142204167D01*
X166870167Y-142204167D01*
X166870167Y-142839167D01*
X167484000Y-142839167D01*
X167484000Y-142204167D01*
X166870167Y-142204167D01*
X166489167Y-142204167D01*
X165854167Y-142204167D01*
X165494334Y-142204167D01*
X164499500Y-142204167D01*
X164499500Y-141209334D01*
X164859334Y-141209334D01*
X164859334Y-141844334D01*
X165494334Y-141844334D01*
X165494334Y-141209334D01*
X165854167Y-141209334D01*
X165854167Y-141844334D01*
X166489167Y-141844334D01*
X166489167Y-141209334D01*
X166870167Y-141209334D01*
X166870167Y-141844334D01*
X167484000Y-141844334D01*
X167484000Y-141209334D01*
X166870167Y-141209334D01*
X166489167Y-141209334D01*
X165854167Y-141209334D01*
X165494334Y-141209334D01*
X164859334Y-141209334D01*
X164499500Y-141209334D01*
X164499500Y-140849500D01*
X165494334Y-140849500D01*
X165494334Y-140214500D01*
X165854167Y-140214500D01*
X165854167Y-140849500D01*
X166489167Y-140849500D01*
X166489167Y-140214500D01*
X166870167Y-140214500D01*
X166870167Y-140849500D01*
X167484000Y-140849500D01*
X167484000Y-140214500D01*
X166870167Y-140214500D01*
X166489167Y-140214500D01*
X165854167Y-140214500D01*
X165494334Y-140214500D01*
X164499500Y-140214500D01*
X164499500Y-139219667D01*
X164859334Y-139219667D01*
X164859334Y-139833500D01*
X165494334Y-139833500D01*
X165494334Y-139219667D01*
X165854167Y-139219667D01*
X165854167Y-139833500D01*
X166489167Y-139833500D01*
X166489167Y-139219667D01*
X166870167Y-139219667D01*
X166870167Y-139833500D01*
X167484000Y-139833500D01*
X167484000Y-139219667D01*
X166870167Y-139219667D01*
X166489167Y-139219667D01*
X165854167Y-139219667D01*
X165494334Y-139219667D01*
X164859334Y-139219667D01*
X164499500Y-139219667D01*
X164499500Y-138838667D01*
X165494334Y-138838667D01*
X165494334Y-138203667D01*
X165854167Y-138203667D01*
X165854167Y-138838667D01*
X166489167Y-138838667D01*
X166489167Y-138203667D01*
X166870167Y-138203667D01*
X166870167Y-138838667D01*
X167484000Y-138838667D01*
X167484000Y-138203667D01*
X166870167Y-138203667D01*
X166489167Y-138203667D01*
X165854167Y-138203667D01*
X165494334Y-138203667D01*
X165494334Y-137843834D01*
X167865000Y-137843834D01*
X167865000Y-143220167D01*
G37*
X167865000Y-143220167D02*
X165494334Y-143220167D01*
X165494334Y-142204167D01*
X165854167Y-142204167D01*
X165854167Y-142839167D01*
X166489167Y-142839167D01*
X166489167Y-142204167D01*
X166870167Y-142204167D01*
X166870167Y-142839167D01*
X167484000Y-142839167D01*
X167484000Y-142204167D01*
X166870167Y-142204167D01*
X166489167Y-142204167D01*
X165854167Y-142204167D01*
X165494334Y-142204167D01*
X164499500Y-142204167D01*
X164499500Y-141209334D01*
X164859334Y-141209334D01*
X164859334Y-141844334D01*
X165494334Y-141844334D01*
X165494334Y-141209334D01*
X165854167Y-141209334D01*
X165854167Y-141844334D01*
X166489167Y-141844334D01*
X166489167Y-141209334D01*
X166870167Y-141209334D01*
X166870167Y-141844334D01*
X167484000Y-141844334D01*
X167484000Y-141209334D01*
X166870167Y-141209334D01*
X166489167Y-141209334D01*
X165854167Y-141209334D01*
X165494334Y-141209334D01*
X164859334Y-141209334D01*
X164499500Y-141209334D01*
X164499500Y-140849500D01*
X165494334Y-140849500D01*
X165494334Y-140214500D01*
X165854167Y-140214500D01*
X165854167Y-140849500D01*
X166489167Y-140849500D01*
X166489167Y-140214500D01*
X166870167Y-140214500D01*
X166870167Y-140849500D01*
X167484000Y-140849500D01*
X167484000Y-140214500D01*
X166870167Y-140214500D01*
X166489167Y-140214500D01*
X165854167Y-140214500D01*
X165494334Y-140214500D01*
X164499500Y-140214500D01*
X164499500Y-139219667D01*
X164859334Y-139219667D01*
X164859334Y-139833500D01*
X165494334Y-139833500D01*
X165494334Y-139219667D01*
X165854167Y-139219667D01*
X165854167Y-139833500D01*
X166489167Y-139833500D01*
X166489167Y-139219667D01*
X166870167Y-139219667D01*
X166870167Y-139833500D01*
X167484000Y-139833500D01*
X167484000Y-139219667D01*
X166870167Y-139219667D01*
X166489167Y-139219667D01*
X165854167Y-139219667D01*
X165494334Y-139219667D01*
X164859334Y-139219667D01*
X164499500Y-139219667D01*
X164499500Y-138838667D01*
X165494334Y-138838667D01*
X165494334Y-138203667D01*
X165854167Y-138203667D01*
X165854167Y-138838667D01*
X166489167Y-138838667D01*
X166489167Y-138203667D01*
X166870167Y-138203667D01*
X166870167Y-138838667D01*
X167484000Y-138838667D01*
X167484000Y-138203667D01*
X166870167Y-138203667D01*
X166489167Y-138203667D01*
X165854167Y-138203667D01*
X165494334Y-138203667D01*
X165494334Y-137843834D01*
X167865000Y-137843834D01*
X167865000Y-143220167D01*
G36*
X161864250Y-137854417D02*
G01*
X161875614Y-138838667D01*
X162488667Y-138838667D01*
X162869667Y-138838667D01*
X163505799Y-138838667D01*
X163499941Y-138526459D01*
X163494084Y-138214250D01*
X163181875Y-138208393D01*
X162869667Y-138202535D01*
X162869667Y-138838667D01*
X162488667Y-138838667D01*
X162488667Y-137843834D01*
X163864500Y-137843834D01*
X163864500Y-140214500D01*
X162869667Y-140214500D01*
X162869667Y-143220167D01*
X161493834Y-143220167D01*
X161493834Y-142204167D01*
X161874834Y-142204167D01*
X161874834Y-142839167D01*
X162488667Y-142839167D01*
X162488667Y-142204167D01*
X161874834Y-142204167D01*
X161493834Y-142204167D01*
X161493834Y-141209334D01*
X161874834Y-141209334D01*
X161874834Y-141844334D01*
X162488667Y-141844334D01*
X162488667Y-141209334D01*
X161874834Y-141209334D01*
X161493834Y-141209334D01*
X161493834Y-140214500D01*
X161874834Y-140214500D01*
X161874834Y-140849500D01*
X162488667Y-140849500D01*
X162488667Y-140214500D01*
X161874834Y-140214500D01*
X161493834Y-140214500D01*
X160499000Y-140214500D01*
X160499000Y-139219667D01*
X160858834Y-139219667D01*
X160858834Y-139833500D01*
X161493834Y-139833500D01*
X161493834Y-139219667D01*
X161874834Y-139219667D01*
X161874834Y-139833500D01*
X162488667Y-139833500D01*
X162488667Y-139219667D01*
X162869667Y-139219667D01*
X162869667Y-139833500D01*
X163504667Y-139833500D01*
X163504667Y-139219667D01*
X162869667Y-139219667D01*
X162488667Y-139219667D01*
X161874834Y-139219667D01*
X161493834Y-139219667D01*
X160858834Y-139219667D01*
X160499000Y-139219667D01*
X160499000Y-138203667D01*
X160858834Y-138203667D01*
X160858834Y-138838667D01*
X161493834Y-138838667D01*
X161493834Y-138203667D01*
X160858834Y-138203667D01*
X160499000Y-138203667D01*
X160499000Y-137843247D01*
X161864250Y-137854417D01*
G37*
X161864250Y-137854417D02*
X161875614Y-138838667D01*
X162488667Y-138838667D01*
X162869667Y-138838667D01*
X163505799Y-138838667D01*
X163499941Y-138526459D01*
X163494084Y-138214250D01*
X163181875Y-138208393D01*
X162869667Y-138202535D01*
X162869667Y-138838667D01*
X162488667Y-138838667D01*
X162488667Y-137843834D01*
X163864500Y-137843834D01*
X163864500Y-140214500D01*
X162869667Y-140214500D01*
X162869667Y-143220167D01*
X161493834Y-143220167D01*
X161493834Y-142204167D01*
X161874834Y-142204167D01*
X161874834Y-142839167D01*
X162488667Y-142839167D01*
X162488667Y-142204167D01*
X161874834Y-142204167D01*
X161493834Y-142204167D01*
X161493834Y-141209334D01*
X161874834Y-141209334D01*
X161874834Y-141844334D01*
X162488667Y-141844334D01*
X162488667Y-141209334D01*
X161874834Y-141209334D01*
X161493834Y-141209334D01*
X161493834Y-140214500D01*
X161874834Y-140214500D01*
X161874834Y-140849500D01*
X162488667Y-140849500D01*
X162488667Y-140214500D01*
X161874834Y-140214500D01*
X161493834Y-140214500D01*
X160499000Y-140214500D01*
X160499000Y-139219667D01*
X160858834Y-139219667D01*
X160858834Y-139833500D01*
X161493834Y-139833500D01*
X161493834Y-139219667D01*
X161874834Y-139219667D01*
X161874834Y-139833500D01*
X162488667Y-139833500D01*
X162488667Y-139219667D01*
X162869667Y-139219667D01*
X162869667Y-139833500D01*
X163504667Y-139833500D01*
X163504667Y-139219667D01*
X162869667Y-139219667D01*
X162488667Y-139219667D01*
X161874834Y-139219667D01*
X161493834Y-139219667D01*
X160858834Y-139219667D01*
X160499000Y-139219667D01*
X160499000Y-138203667D01*
X160858834Y-138203667D01*
X160858834Y-138838667D01*
X161493834Y-138838667D01*
X161493834Y-138203667D01*
X160858834Y-138203667D01*
X160499000Y-138203667D01*
X160499000Y-137843247D01*
X161864250Y-137854417D01*
G36*
X159864000Y-139219667D02*
G01*
X158869167Y-139219667D01*
X158869167Y-143220167D01*
X157493334Y-143220167D01*
X157493334Y-142204167D01*
X157874334Y-142204167D01*
X157874334Y-142839167D01*
X158488167Y-142839167D01*
X158488167Y-142204167D01*
X157874334Y-142204167D01*
X157493334Y-142204167D01*
X157493334Y-141209334D01*
X157874334Y-141209334D01*
X157874334Y-141844334D01*
X158488167Y-141844334D01*
X158488167Y-141209334D01*
X157874334Y-141209334D01*
X157493334Y-141209334D01*
X157493334Y-140214500D01*
X157874334Y-140214500D01*
X157874334Y-140849500D01*
X158488167Y-140849500D01*
X158488167Y-140214500D01*
X157874334Y-140214500D01*
X157493334Y-140214500D01*
X157493334Y-139219667D01*
X157874334Y-139219667D01*
X157874334Y-139833500D01*
X158488167Y-139833500D01*
X158488167Y-139219667D01*
X157874334Y-139219667D01*
X157493334Y-139219667D01*
X156498500Y-139219667D01*
X156498500Y-138203667D01*
X156858334Y-138203667D01*
X156858334Y-138838667D01*
X157493334Y-138838667D01*
X157493334Y-138203667D01*
X157874334Y-138203667D01*
X157874334Y-138838667D01*
X158488167Y-138838667D01*
X158488167Y-138203667D01*
X158869167Y-138203667D01*
X158869167Y-138838667D01*
X159504167Y-138838667D01*
X159504167Y-138203667D01*
X158869167Y-138203667D01*
X158488167Y-138203667D01*
X157874334Y-138203667D01*
X157493334Y-138203667D01*
X156858334Y-138203667D01*
X156498500Y-138203667D01*
X156498500Y-137843834D01*
X159864000Y-137843834D01*
X159864000Y-139219667D01*
G37*
X159864000Y-139219667D02*
X158869167Y-139219667D01*
X158869167Y-143220167D01*
X157493334Y-143220167D01*
X157493334Y-142204167D01*
X157874334Y-142204167D01*
X157874334Y-142839167D01*
X158488167Y-142839167D01*
X158488167Y-142204167D01*
X157874334Y-142204167D01*
X157493334Y-142204167D01*
X157493334Y-141209334D01*
X157874334Y-141209334D01*
X157874334Y-141844334D01*
X158488167Y-141844334D01*
X158488167Y-141209334D01*
X157874334Y-141209334D01*
X157493334Y-141209334D01*
X157493334Y-140214500D01*
X157874334Y-140214500D01*
X157874334Y-140849500D01*
X158488167Y-140849500D01*
X158488167Y-140214500D01*
X157874334Y-140214500D01*
X157493334Y-140214500D01*
X157493334Y-139219667D01*
X157874334Y-139219667D01*
X157874334Y-139833500D01*
X158488167Y-139833500D01*
X158488167Y-139219667D01*
X157874334Y-139219667D01*
X157493334Y-139219667D01*
X156498500Y-139219667D01*
X156498500Y-138203667D01*
X156858334Y-138203667D01*
X156858334Y-138838667D01*
X157493334Y-138838667D01*
X157493334Y-138203667D01*
X157874334Y-138203667D01*
X157874334Y-138838667D01*
X158488167Y-138838667D01*
X158488167Y-138203667D01*
X158869167Y-138203667D01*
X158869167Y-138838667D01*
X159504167Y-138838667D01*
X159504167Y-138203667D01*
X158869167Y-138203667D01*
X158488167Y-138203667D01*
X157874334Y-138203667D01*
X157493334Y-138203667D01*
X156858334Y-138203667D01*
X156498500Y-138203667D01*
X156498500Y-137843834D01*
X159864000Y-137843834D01*
X159864000Y-139219667D01*
G36*
X155863500Y-143220167D02*
G01*
X152498000Y-143220167D01*
X152498000Y-142204167D01*
X152857834Y-142204167D01*
X152857834Y-142839167D01*
X153492834Y-142839167D01*
X153492834Y-142204167D01*
X153873834Y-142204167D01*
X153873834Y-142839167D01*
X154487667Y-142839167D01*
X154487667Y-142204167D01*
X154868667Y-142204167D01*
X154868667Y-142839167D01*
X155503667Y-142839167D01*
X155503667Y-142204167D01*
X154868667Y-142204167D01*
X154487667Y-142204167D01*
X153873834Y-142204167D01*
X153492834Y-142204167D01*
X152857834Y-142204167D01*
X152498000Y-142204167D01*
X152498000Y-141844334D01*
X154487667Y-141844334D01*
X154487667Y-141209334D01*
X154868667Y-141209334D01*
X154868667Y-141844334D01*
X155503667Y-141844334D01*
X155503667Y-141209334D01*
X154868667Y-141209334D01*
X154487667Y-141209334D01*
X152498000Y-141209334D01*
X152498000Y-140214500D01*
X152857834Y-140214500D01*
X152857834Y-140849500D01*
X153492834Y-140849500D01*
X153492834Y-140214500D01*
X153873834Y-140214500D01*
X153873834Y-140849500D01*
X154487667Y-140849500D01*
X154487667Y-140214500D01*
X154868667Y-140214500D01*
X154868667Y-140849500D01*
X155503667Y-140849500D01*
X155503667Y-140214500D01*
X154868667Y-140214500D01*
X154487667Y-140214500D01*
X153873834Y-140214500D01*
X153492834Y-140214500D01*
X152857834Y-140214500D01*
X152498000Y-140214500D01*
X152498000Y-139833500D01*
X154487667Y-139833500D01*
X154487667Y-139219667D01*
X154868667Y-139219667D01*
X154868667Y-139833500D01*
X155503667Y-139833500D01*
X155503667Y-139219667D01*
X154868667Y-139219667D01*
X154487667Y-139219667D01*
X152498000Y-139219667D01*
X152498000Y-138203667D01*
X152857834Y-138203667D01*
X152857834Y-138838667D01*
X153492834Y-138838667D01*
X153492834Y-138203667D01*
X153873834Y-138203667D01*
X153873834Y-138838667D01*
X154487667Y-138838667D01*
X154487667Y-138203667D01*
X154868667Y-138203667D01*
X154868667Y-138838667D01*
X155503667Y-138838667D01*
X155503667Y-138203667D01*
X154868667Y-138203667D01*
X154487667Y-138203667D01*
X153873834Y-138203667D01*
X153492834Y-138203667D01*
X152857834Y-138203667D01*
X152498000Y-138203667D01*
X152498000Y-137843834D01*
X155863500Y-137843834D01*
X155863500Y-143220167D01*
G37*
X155863500Y-143220167D02*
X152498000Y-143220167D01*
X152498000Y-142204167D01*
X152857834Y-142204167D01*
X152857834Y-142839167D01*
X153492834Y-142839167D01*
X153492834Y-142204167D01*
X153873834Y-142204167D01*
X153873834Y-142839167D01*
X154487667Y-142839167D01*
X154487667Y-142204167D01*
X154868667Y-142204167D01*
X154868667Y-142839167D01*
X155503667Y-142839167D01*
X155503667Y-142204167D01*
X154868667Y-142204167D01*
X154487667Y-142204167D01*
X153873834Y-142204167D01*
X153492834Y-142204167D01*
X152857834Y-142204167D01*
X152498000Y-142204167D01*
X152498000Y-141844334D01*
X154487667Y-141844334D01*
X154487667Y-141209334D01*
X154868667Y-141209334D01*
X154868667Y-141844334D01*
X155503667Y-141844334D01*
X155503667Y-141209334D01*
X154868667Y-141209334D01*
X154487667Y-141209334D01*
X152498000Y-141209334D01*
X152498000Y-140214500D01*
X152857834Y-140214500D01*
X152857834Y-140849500D01*
X153492834Y-140849500D01*
X153492834Y-140214500D01*
X153873834Y-140214500D01*
X153873834Y-140849500D01*
X154487667Y-140849500D01*
X154487667Y-140214500D01*
X154868667Y-140214500D01*
X154868667Y-140849500D01*
X155503667Y-140849500D01*
X155503667Y-140214500D01*
X154868667Y-140214500D01*
X154487667Y-140214500D01*
X153873834Y-140214500D01*
X153492834Y-140214500D01*
X152857834Y-140214500D01*
X152498000Y-140214500D01*
X152498000Y-139833500D01*
X154487667Y-139833500D01*
X154487667Y-139219667D01*
X154868667Y-139219667D01*
X154868667Y-139833500D01*
X155503667Y-139833500D01*
X155503667Y-139219667D01*
X154868667Y-139219667D01*
X154487667Y-139219667D01*
X152498000Y-139219667D01*
X152498000Y-138203667D01*
X152857834Y-138203667D01*
X152857834Y-138838667D01*
X153492834Y-138838667D01*
X153492834Y-138203667D01*
X153873834Y-138203667D01*
X153873834Y-138838667D01*
X154487667Y-138838667D01*
X154487667Y-138203667D01*
X154868667Y-138203667D01*
X154868667Y-138838667D01*
X155503667Y-138838667D01*
X155503667Y-138203667D01*
X154868667Y-138203667D01*
X154487667Y-138203667D01*
X153873834Y-138203667D01*
X153492834Y-138203667D01*
X152857834Y-138203667D01*
X152498000Y-138203667D01*
X152498000Y-137843834D01*
X155863500Y-137843834D01*
X155863500Y-143220167D01*
D12*
%TO.C,J4*%
X125670000Y-140880000D02*
X125670000Y-142210000D01*
X127000000Y-140880000D02*
X125670000Y-140880000D01*
X128270000Y-140880000D02*
X128270000Y-143540000D01*
X128270000Y-143540000D02*
X135950000Y-143540000D01*
X128270000Y-140880000D02*
X135950000Y-140880000D01*
X135950000Y-140880000D02*
X135950000Y-143540000D01*
%TO.C,SW1*%
X142110000Y-131200004D02*
X142110000Y-135940004D01*
X142110000Y-131200004D02*
X142510000Y-131200004D01*
X142110000Y-135940004D02*
X142510000Y-135940004D01*
X146850000Y-131200004D02*
X146450000Y-131200004D01*
X146850000Y-131200004D02*
X146850000Y-135940004D01*
X146850000Y-135940004D02*
X146450000Y-135940004D01*
X145510000Y-135940004D02*
X143450000Y-135940004D01*
X145510000Y-131200004D02*
X143450000Y-131200004D01*
%TO.C,SW2*%
X156110000Y-131200004D02*
X156110000Y-135940004D01*
X156110000Y-131200004D02*
X156510000Y-131200004D01*
X156110000Y-135940004D02*
X156510000Y-135940004D01*
X160850000Y-131200004D02*
X160450000Y-131200004D01*
X160850000Y-131200004D02*
X160850000Y-135940004D01*
X160850000Y-135940004D02*
X160450000Y-135940004D01*
X159510000Y-135940004D02*
X157450000Y-135940004D01*
X159510000Y-131200004D02*
X157450000Y-131200004D01*
%TO.C,R12*%
X172312500Y-127867258D02*
X172312500Y-127392742D01*
X171267500Y-127867258D02*
X171267500Y-127392742D01*
%TO.C,R11*%
X169797500Y-127387742D02*
X169797500Y-127862258D01*
X170842500Y-127387742D02*
X170842500Y-127862258D01*
%TO.C,R6*%
X124782742Y-131812500D02*
X125257258Y-131812500D01*
X124782742Y-130767500D02*
X125257258Y-130767500D01*
%TO.C,D3*%
X129330000Y-132290000D02*
X126645000Y-132290000D01*
X126645000Y-132290000D02*
X126645000Y-130370000D01*
X126645000Y-130370000D02*
X129330000Y-130370000D01*
%TO.C,R4*%
X124802742Y-135227500D02*
X125277258Y-135227500D01*
X124802742Y-136272500D02*
X125277258Y-136272500D01*
%TO.C,R1*%
X173327500Y-131317258D02*
X173327500Y-130842742D01*
X174372500Y-131317258D02*
X174372500Y-130842742D01*
%TO.C,D2*%
X126675000Y-134795000D02*
X129360000Y-134795000D01*
X126675000Y-136715000D02*
X126675000Y-134795000D01*
X129360000Y-136715000D02*
X126675000Y-136715000D01*
%TO.C,D1*%
X172890000Y-129505000D02*
X172890000Y-126820000D01*
X174810000Y-129505000D02*
X172890000Y-129505000D01*
X174810000Y-126820000D02*
X174810000Y-129505000D01*
%TD*%
%TO.C,J4*%
D10*
X124122380Y-141876666D02*
X124836666Y-141876666D01*
X124979523Y-141829047D01*
X125074761Y-141733809D01*
X125122380Y-141590952D01*
X125122380Y-141495714D01*
X124455714Y-142781428D02*
X125122380Y-142781428D01*
X124074761Y-142543333D02*
X124789047Y-142305238D01*
X124789047Y-142924285D01*
%TO.C,SW1*%
X145763333Y-128774765D02*
X145620476Y-128822384D01*
X145382380Y-128822384D01*
X145287142Y-128774765D01*
X145239523Y-128727146D01*
X145191904Y-128631908D01*
X145191904Y-128536670D01*
X145239523Y-128441432D01*
X145287142Y-128393813D01*
X145382380Y-128346194D01*
X145572857Y-128298575D01*
X145668095Y-128250956D01*
X145715714Y-128203337D01*
X145763333Y-128108099D01*
X145763333Y-128012861D01*
X145715714Y-127917623D01*
X145668095Y-127870004D01*
X145572857Y-127822384D01*
X145334761Y-127822384D01*
X145191904Y-127870004D01*
X144858571Y-127822384D02*
X144620476Y-128822384D01*
X144430000Y-128108099D01*
X144239523Y-128822384D01*
X144001428Y-127822384D01*
X143096666Y-128822384D02*
X143668095Y-128822384D01*
X143382380Y-128822384D02*
X143382380Y-127822384D01*
X143477619Y-127965242D01*
X143572857Y-128060480D01*
X143668095Y-128108099D01*
%TO.C,SW2*%
X159813333Y-128724765D02*
X159670476Y-128772384D01*
X159432380Y-128772384D01*
X159337142Y-128724765D01*
X159289523Y-128677146D01*
X159241904Y-128581908D01*
X159241904Y-128486670D01*
X159289523Y-128391432D01*
X159337142Y-128343813D01*
X159432380Y-128296194D01*
X159622857Y-128248575D01*
X159718095Y-128200956D01*
X159765714Y-128153337D01*
X159813333Y-128058099D01*
X159813333Y-127962861D01*
X159765714Y-127867623D01*
X159718095Y-127820004D01*
X159622857Y-127772384D01*
X159384761Y-127772384D01*
X159241904Y-127820004D01*
X158908571Y-127772384D02*
X158670476Y-128772384D01*
X158480000Y-128058099D01*
X158289523Y-128772384D01*
X158051428Y-127772384D01*
X157718095Y-127867623D02*
X157670476Y-127820004D01*
X157575238Y-127772384D01*
X157337142Y-127772384D01*
X157241904Y-127820004D01*
X157194285Y-127867623D01*
X157146666Y-127962861D01*
X157146666Y-128058099D01*
X157194285Y-128200956D01*
X157765714Y-128772384D01*
X157146666Y-128772384D01*
%TO.C,R12*%
X171352380Y-130257142D02*
X170876190Y-129923809D01*
X171352380Y-129685714D02*
X170352380Y-129685714D01*
X170352380Y-130066666D01*
X170400000Y-130161904D01*
X170447619Y-130209523D01*
X170542857Y-130257142D01*
X170685714Y-130257142D01*
X170780952Y-130209523D01*
X170828571Y-130161904D01*
X170876190Y-130066666D01*
X170876190Y-129685714D01*
X171352380Y-131209523D02*
X171352380Y-130638095D01*
X171352380Y-130923809D02*
X170352380Y-130923809D01*
X170495238Y-130828571D01*
X170590476Y-130733333D01*
X170638095Y-130638095D01*
X170447619Y-131590476D02*
X170400000Y-131638095D01*
X170352380Y-131733333D01*
X170352380Y-131971428D01*
X170400000Y-132066666D01*
X170447619Y-132114285D01*
X170542857Y-132161904D01*
X170638095Y-132161904D01*
X170780952Y-132114285D01*
X171352380Y-131542857D01*
X171352380Y-132161904D01*
%TO.C,R11*%
X170062380Y-130337142D02*
X169586190Y-130003809D01*
X170062380Y-129765714D02*
X169062380Y-129765714D01*
X169062380Y-130146666D01*
X169110000Y-130241904D01*
X169157619Y-130289523D01*
X169252857Y-130337142D01*
X169395714Y-130337142D01*
X169490952Y-130289523D01*
X169538571Y-130241904D01*
X169586190Y-130146666D01*
X169586190Y-129765714D01*
X170062380Y-131289523D02*
X170062380Y-130718095D01*
X170062380Y-131003809D02*
X169062380Y-131003809D01*
X169205238Y-130908571D01*
X169300476Y-130813333D01*
X169348095Y-130718095D01*
X170062380Y-132241904D02*
X170062380Y-131670476D01*
X170062380Y-131956190D02*
X169062380Y-131956190D01*
X169205238Y-131860952D01*
X169300476Y-131765714D01*
X169348095Y-131670476D01*
%TO.C,R6*%
X122766666Y-131762380D02*
X123100000Y-131286190D01*
X123338095Y-131762380D02*
X123338095Y-130762380D01*
X122957142Y-130762380D01*
X122861904Y-130810000D01*
X122814285Y-130857619D01*
X122766666Y-130952857D01*
X122766666Y-131095714D01*
X122814285Y-131190952D01*
X122861904Y-131238571D01*
X122957142Y-131286190D01*
X123338095Y-131286190D01*
X121909523Y-130762380D02*
X122100000Y-130762380D01*
X122195238Y-130810000D01*
X122242857Y-130857619D01*
X122338095Y-131000476D01*
X122385714Y-131190952D01*
X122385714Y-131571904D01*
X122338095Y-131667142D01*
X122290476Y-131714761D01*
X122195238Y-131762380D01*
X122004761Y-131762380D01*
X121909523Y-131714761D01*
X121861904Y-131667142D01*
X121814285Y-131571904D01*
X121814285Y-131333809D01*
X121861904Y-131238571D01*
X121909523Y-131190952D01*
X122004761Y-131143333D01*
X122195238Y-131143333D01*
X122290476Y-131190952D01*
X122338095Y-131238571D01*
X122385714Y-131333809D01*
%TO.C,D3*%
X129068095Y-133432380D02*
X129068095Y-132432380D01*
X128830000Y-132432380D01*
X128687142Y-132480000D01*
X128591904Y-132575238D01*
X128544285Y-132670476D01*
X128496666Y-132860952D01*
X128496666Y-133003809D01*
X128544285Y-133194285D01*
X128591904Y-133289523D01*
X128687142Y-133384761D01*
X128830000Y-133432380D01*
X129068095Y-133432380D01*
X128163333Y-132432380D02*
X127544285Y-132432380D01*
X127877619Y-132813333D01*
X127734761Y-132813333D01*
X127639523Y-132860952D01*
X127591904Y-132908571D01*
X127544285Y-133003809D01*
X127544285Y-133241904D01*
X127591904Y-133337142D01*
X127639523Y-133384761D01*
X127734761Y-133432380D01*
X128020476Y-133432380D01*
X128115714Y-133384761D01*
X128163333Y-133337142D01*
%TO.C,R4*%
X122646666Y-136242380D02*
X122980000Y-135766190D01*
X123218095Y-136242380D02*
X123218095Y-135242380D01*
X122837142Y-135242380D01*
X122741904Y-135290000D01*
X122694285Y-135337619D01*
X122646666Y-135432857D01*
X122646666Y-135575714D01*
X122694285Y-135670952D01*
X122741904Y-135718571D01*
X122837142Y-135766190D01*
X123218095Y-135766190D01*
X121789523Y-135575714D02*
X121789523Y-136242380D01*
X122027619Y-135194761D02*
X122265714Y-135909047D01*
X121646666Y-135909047D01*
%TO.C,R1*%
X173012380Y-131988333D02*
X172536190Y-131655000D01*
X173012380Y-131416904D02*
X172012380Y-131416904D01*
X172012380Y-131797857D01*
X172060000Y-131893095D01*
X172107619Y-131940714D01*
X172202857Y-131988333D01*
X172345714Y-131988333D01*
X172440952Y-131940714D01*
X172488571Y-131893095D01*
X172536190Y-131797857D01*
X172536190Y-131416904D01*
X173012380Y-132940714D02*
X173012380Y-132369285D01*
X173012380Y-132655000D02*
X172012380Y-132655000D01*
X172155238Y-132559761D01*
X172250476Y-132464523D01*
X172298095Y-132369285D01*
%TO.C,D2*%
X129098095Y-134652380D02*
X129098095Y-133652380D01*
X128860000Y-133652380D01*
X128717142Y-133700000D01*
X128621904Y-133795238D01*
X128574285Y-133890476D01*
X128526666Y-134080952D01*
X128526666Y-134223809D01*
X128574285Y-134414285D01*
X128621904Y-134509523D01*
X128717142Y-134604761D01*
X128860000Y-134652380D01*
X129098095Y-134652380D01*
X128145714Y-133747619D02*
X128098095Y-133700000D01*
X128002857Y-133652380D01*
X127764761Y-133652380D01*
X127669523Y-133700000D01*
X127621904Y-133747619D01*
X127574285Y-133842857D01*
X127574285Y-133938095D01*
X127621904Y-134080952D01*
X128193333Y-134652380D01*
X127574285Y-134652380D01*
%TO.C,D1*%
X172962380Y-129661904D02*
X171962380Y-129661904D01*
X171962380Y-129900000D01*
X172010000Y-130042857D01*
X172105238Y-130138095D01*
X172200476Y-130185714D01*
X172390952Y-130233333D01*
X172533809Y-130233333D01*
X172724285Y-130185714D01*
X172819523Y-130138095D01*
X172914761Y-130042857D01*
X172962380Y-129900000D01*
X172962380Y-129661904D01*
X172962380Y-131185714D02*
X172962380Y-130614285D01*
X172962380Y-130900000D02*
X171962380Y-130900000D01*
X172105238Y-130804761D01*
X172200476Y-130709523D01*
X172248095Y-130614285D01*
%TD*%
M02*
