  0
SECTION
  2
HEADER
  9
$ANGBASE
  50
0.0
  9
$ANGDIR
  70
1
  9
$MEASUREMENT
  70
0
  0
ENDSEC
  0
SECTION
  2
TABLES
  0
TABLE
  2
LTYPE
  70
4
  0
LTYPE
  5
40F
  2
CONTINUOUS
  70
0
  3
Solid line
  72
65
  73
0
  40
0.0
  0
LTYPE
  5
410
  2
DASHDOT
 70
0
  3
Dash Dot ____ _ ____ _
 72
65
 73
4
 40
2.0
 49
1.25
 49
-0.25
 49
0.25
 49
-0.25
  0
LTYPE
  5
411
  2
DASHED
 70
0
  3
Dashed __ __ __ __ __
 72
65
 73
2
 40
0.75
 49
0.5
 49
-0.25
  0
LTYPE
  5
43B
  2
DOTTED
 70
0
  3
Dotted .  .  .  .
 72
65
 73
2
 40
0.2
 49
0.0
 49
-0.2
  0
ENDTAB
  0
TABLE
  2
STYLE
  70
4
  0
STYLE
  2
KICAD
  70
0
  40
0
  41
1
  42
1
  50
0
  71
0
  3
isocp.shx
  0
STYLE
  2
KICADB
  70
0
  40
0
  41
1
  42
1
  50
0
  71
0
  3
isocp.shx
  0
STYLE
  2
KICADI
  70
0
  40
0
  41
1
  42
1
  50
15
  71
0
  3
isocp.shx
  0
STYLE
  2
KICADBI
  70
0
  40
0
  41
1
  42
1
  50
15
  71
0
  3
isocp.shx
  0
ENDTAB
  0
TABLE
  2
LAYER
  70
1
  0
LAYER
  2
BLACK
  70
0
  62
7
  6
CONTINUOUS
  0
ENDTAB
  0
ENDSEC
  0
SECTION
  2
ENTITIES
0
LINE
8
BLACK
6
CONTINUOUS
10
5.21034
20
-5.56475
11
5.21678
21
-5.56742
0
LINE
8
BLACK
6
CONTINUOUS
10
5.21678
20
-5.56742
11
5.22259
21
-5.5713
0
LINE
8
BLACK
6
CONTINUOUS
10
5.22259
20
-5.5713
11
5.22752
21
-5.57623
0
LINE
8
BLACK
6
CONTINUOUS
10
5.22752
20
-5.57623
11
5.2314
21
-5.58204
0
LINE
8
BLACK
6
CONTINUOUS
10
5.2314
20
-5.58204
11
5.23407
21
-5.58848
0
LINE
8
BLACK
6
CONTINUOUS
10
5.23407
20
-5.58848
11
5.23543
21
-5.59533
0
LINE
8
BLACK
6
CONTINUOUS
10
5.23543
20
-5.59533
11
5.23543
21
-5.60231
0
LINE
8
BLACK
6
CONTINUOUS
10
5.23543
20
-5.60231
11
5.23407
21
-5.60915
0
LINE
8
BLACK
6
CONTINUOUS
10
5.23407
20
-5.60915
11
5.2314
21
-5.6156
0
LINE
8
BLACK
6
CONTINUOUS
10
5.2314
20
-5.6156
11
5.22752
21
-5.62141
0
LINE
8
BLACK
6
CONTINUOUS
10
5.22752
20
-5.62141
11
5.22259
21
-5.62634
0
LINE
8
BLACK
6
CONTINUOUS
10
5.22259
20
-5.62634
11
5.21678
21
-5.63022
0
LINE
8
BLACK
6
CONTINUOUS
10
5.21678
20
-5.63022
11
5.21034
21
-5.63289
0
LINE
8
BLACK
6
CONTINUOUS
10
5.21034
20
-5.63289
11
5.20349
21
-5.63425
0
LINE
8
BLACK
6
CONTINUOUS
10
5.20349
20
-5.63425
11
5.19651
21
-5.63425
0
LINE
8
BLACK
6
CONTINUOUS
10
5.19651
20
-5.63425
11
5.18966
21
-5.63289
0
LINE
8
BLACK
6
CONTINUOUS
10
5.18966
20
-5.63289
11
5.18322
21
-5.63022
0
LINE
8
BLACK
6
CONTINUOUS
10
5.18322
20
-5.63022
11
5.17741
21
-5.62634
0
LINE
8
BLACK
6
CONTINUOUS
10
5.17741
20
-5.62634
11
5.17248
21
-5.62141
0
LINE
8
BLACK
6
CONTINUOUS
10
5.17248
20
-5.62141
11
5.1686
21
-5.6156
0
LINE
8
BLACK
6
CONTINUOUS
10
5.1686
20
-5.6156
11
5.16593
21
-5.60915
0
LINE
8
BLACK
6
CONTINUOUS
10
5.16593
20
-5.60915
11
5.16457
21
-5.60231
0
LINE
8
BLACK
6
CONTINUOUS
10
5.16457
20
-5.60231
11
5.16457
21
-5.59533
0
LINE
8
BLACK
6
CONTINUOUS
10
5.16457
20
-5.59533
11
5.16593
21
-5.58848
0
LINE
8
BLACK
6
CONTINUOUS
10
5.16593
20
-5.58848
11
5.1686
21
-5.58204
0
LINE
8
BLACK
6
CONTINUOUS
10
5.1686
20
-5.58204
11
5.17248
21
-5.57623
0
LINE
8
BLACK
6
CONTINUOUS
10
5.17248
20
-5.57623
11
5.17741
21
-5.5713
0
LINE
8
BLACK
6
CONTINUOUS
10
5.17741
20
-5.5713
11
5.18322
21
-5.56742
0
LINE
8
BLACK
6
CONTINUOUS
10
5.18322
20
-5.56742
11
5.18966
21
-5.56475
0
LINE
8
BLACK
6
CONTINUOUS
10
5.18966
20
-5.56475
11
5.19651
21
-5.56339
0
LINE
8
BLACK
6
CONTINUOUS
10
5.19651
20
-5.56339
11
5.20349
21
-5.56339
0
LINE
8
BLACK
6
CONTINUOUS
10
5.20349
20
-5.56339
11
5.21034
21
-5.56475
0
LINE
8
BLACK
6
CONTINUOUS
10
5.11034
20
-5.56475
11
5.11678
21
-5.56742
0
LINE
8
BLACK
6
CONTINUOUS
10
5.11678
20
-5.56742
11
5.12259
21
-5.5713
0
LINE
8
BLACK
6
CONTINUOUS
10
5.12259
20
-5.5713
11
5.12752
21
-5.57623
0
LINE
8
BLACK
6
CONTINUOUS
10
5.12752
20
-5.57623
11
5.1314
21
-5.58204
0
LINE
8
BLACK
6
CONTINUOUS
10
5.1314
20
-5.58204
11
5.13407
21
-5.58848
0
LINE
8
BLACK
6
CONTINUOUS
10
5.13407
20
-5.58848
11
5.13543
21
-5.59533
0
LINE
8
BLACK
6
CONTINUOUS
10
5.13543
20
-5.59533
11
5.13543
21
-5.60231
0
LINE
8
BLACK
6
CONTINUOUS
10
5.13543
20
-5.60231
11
5.13407
21
-5.60915
0
LINE
8
BLACK
6
CONTINUOUS
10
5.13407
20
-5.60915
11
5.1314
21
-5.6156
0
LINE
8
BLACK
6
CONTINUOUS
10
5.1314
20
-5.6156
11
5.12752
21
-5.62141
0
LINE
8
BLACK
6
CONTINUOUS
10
5.12752
20
-5.62141
11
5.12259
21
-5.62634
0
LINE
8
BLACK
6
CONTINUOUS
10
5.12259
20
-5.62634
11
5.11678
21
-5.63022
0
LINE
8
BLACK
6
CONTINUOUS
10
5.11678
20
-5.63022
11
5.11034
21
-5.63289
0
LINE
8
BLACK
6
CONTINUOUS
10
5.11034
20
-5.63289
11
5.10349
21
-5.63425
0
LINE
8
BLACK
6
CONTINUOUS
10
5.10349
20
-5.63425
11
5.09651
21
-5.63425
0
LINE
8
BLACK
6
CONTINUOUS
10
5.09651
20
-5.63425
11
5.08966
21
-5.63289
0
LINE
8
BLACK
6
CONTINUOUS
10
5.08966
20
-5.63289
11
5.08322
21
-5.63022
0
LINE
8
BLACK
6
CONTINUOUS
10
5.08322
20
-5.63022
11
5.07741
21
-5.62634
0
LINE
8
BLACK
6
CONTINUOUS
10
5.07741
20
-5.62634
11
5.07248
21
-5.62141
0
LINE
8
BLACK
6
CONTINUOUS
10
5.07248
20
-5.62141
11
5.0686
21
-5.6156
0
LINE
8
BLACK
6
CONTINUOUS
10
5.0686
20
-5.6156
11
5.06593
21
-5.60915
0
LINE
8
BLACK
6
CONTINUOUS
10
5.06593
20
-5.60915
11
5.06457
21
-5.60231
0
LINE
8
BLACK
6
CONTINUOUS
10
5.06457
20
-5.60231
11
5.06457
21
-5.59533
0
LINE
8
BLACK
6
CONTINUOUS
10
5.06457
20
-5.59533
11
5.06593
21
-5.58848
0
LINE
8
BLACK
6
CONTINUOUS
10
5.06593
20
-5.58848
11
5.0686
21
-5.58204
0
LINE
8
BLACK
6
CONTINUOUS
10
5.0686
20
-5.58204
11
5.07248
21
-5.57623
0
LINE
8
BLACK
6
CONTINUOUS
10
5.07248
20
-5.57623
11
5.07741
21
-5.5713
0
LINE
8
BLACK
6
CONTINUOUS
10
5.07741
20
-5.5713
11
5.08322
21
-5.56742
0
LINE
8
BLACK
6
CONTINUOUS
10
5.08322
20
-5.56742
11
5.08966
21
-5.56475
0
LINE
8
BLACK
6
CONTINUOUS
10
5.08966
20
-5.56475
11
5.09651
21
-5.56339
0
LINE
8
BLACK
6
CONTINUOUS
10
5.09651
20
-5.56339
11
5.10349
21
-5.56339
0
LINE
8
BLACK
6
CONTINUOUS
10
5.10349
20
-5.56339
11
5.11034
21
-5.56475
0
LINE
8
BLACK
6
CONTINUOUS
10
5.03543
20
-5.63425
11
4.96457
21
-5.63425
0
LINE
8
BLACK
6
CONTINUOUS
10
4.96457
20
-5.63425
11
4.96457
21
-5.56339
0
LINE
8
BLACK
6
CONTINUOUS
10
4.96457
20
-5.56339
11
5.03543
21
-5.56339
0
LINE
8
BLACK
6
CONTINUOUS
10
5.03543
20
-5.56339
11
5.03543
21
-5.63425
0
LINE
8
BLACK
6
CONTINUOUS
10
5.31034
20
-5.56475
11
5.31678
21
-5.56742
0
LINE
8
BLACK
6
CONTINUOUS
10
5.31678
20
-5.56742
11
5.32259
21
-5.5713
0
LINE
8
BLACK
6
CONTINUOUS
10
5.32259
20
-5.5713
11
5.32752
21
-5.57623
0
LINE
8
BLACK
6
CONTINUOUS
10
5.32752
20
-5.57623
11
5.3314
21
-5.58204
0
LINE
8
BLACK
6
CONTINUOUS
10
5.3314
20
-5.58204
11
5.33407
21
-5.58848
0
LINE
8
BLACK
6
CONTINUOUS
10
5.33407
20
-5.58848
11
5.33543
21
-5.59533
0
LINE
8
BLACK
6
CONTINUOUS
10
5.33543
20
-5.59533
11
5.33543
21
-5.60231
0
LINE
8
BLACK
6
CONTINUOUS
10
5.33543
20
-5.60231
11
5.33407
21
-5.60915
0
LINE
8
BLACK
6
CONTINUOUS
10
5.33407
20
-5.60915
11
5.3314
21
-5.6156
0
LINE
8
BLACK
6
CONTINUOUS
10
5.3314
20
-5.6156
11
5.32752
21
-5.62141
0
LINE
8
BLACK
6
CONTINUOUS
10
5.32752
20
-5.62141
11
5.32259
21
-5.62634
0
LINE
8
BLACK
6
CONTINUOUS
10
5.32259
20
-5.62634
11
5.31678
21
-5.63022
0
LINE
8
BLACK
6
CONTINUOUS
10
5.31678
20
-5.63022
11
5.31034
21
-5.63289
0
LINE
8
BLACK
6
CONTINUOUS
10
5.31034
20
-5.63289
11
5.30349
21
-5.63425
0
LINE
8
BLACK
6
CONTINUOUS
10
5.30349
20
-5.63425
11
5.29651
21
-5.63425
0
LINE
8
BLACK
6
CONTINUOUS
10
5.29651
20
-5.63425
11
5.28966
21
-5.63289
0
LINE
8
BLACK
6
CONTINUOUS
10
5.28966
20
-5.63289
11
5.28322
21
-5.63022
0
LINE
8
BLACK
6
CONTINUOUS
10
5.28322
20
-5.63022
11
5.27741
21
-5.62634
0
LINE
8
BLACK
6
CONTINUOUS
10
5.27741
20
-5.62634
11
5.27248
21
-5.62141
0
LINE
8
BLACK
6
CONTINUOUS
10
5.27248
20
-5.62141
11
5.2686
21
-5.6156
0
LINE
8
BLACK
6
CONTINUOUS
10
5.2686
20
-5.6156
11
5.26593
21
-5.60915
0
LINE
8
BLACK
6
CONTINUOUS
10
5.26593
20
-5.60915
11
5.26457
21
-5.60231
0
LINE
8
BLACK
6
CONTINUOUS
10
5.26457
20
-5.60231
11
5.26457
21
-5.59533
0
LINE
8
BLACK
6
CONTINUOUS
10
5.26457
20
-5.59533
11
5.26593
21
-5.58848
0
LINE
8
BLACK
6
CONTINUOUS
10
5.26593
20
-5.58848
11
5.2686
21
-5.58204
0
LINE
8
BLACK
6
CONTINUOUS
10
5.2686
20
-5.58204
11
5.27248
21
-5.57623
0
LINE
8
BLACK
6
CONTINUOUS
10
5.27248
20
-5.57623
11
5.27741
21
-5.5713
0
LINE
8
BLACK
6
CONTINUOUS
10
5.27741
20
-5.5713
11
5.28322
21
-5.56742
0
LINE
8
BLACK
6
CONTINUOUS
10
5.28322
20
-5.56742
11
5.28966
21
-5.56475
0
LINE
8
BLACK
6
CONTINUOUS
10
5.28966
20
-5.56475
11
5.29651
21
-5.56339
0
LINE
8
BLACK
6
CONTINUOUS
10
5.29651
20
-5.56339
11
5.30349
21
-5.56339
0
LINE
8
BLACK
6
CONTINUOUS
10
5.30349
20
-5.56339
11
5.31034
21
-5.56475
0
LINE
8
BLACK
6
CONTINUOUS
10
4.98352
20
-5.4212
11
4.99534
21
-5.42609
0
LINE
8
BLACK
6
CONTINUOUS
10
4.99534
20
-5.42609
11
5.00598
21
-5.4332
0
LINE
8
BLACK
6
CONTINUOUS
10
5.00598
20
-5.4332
11
5.01503
21
-5.44225
0
LINE
8
BLACK
6
CONTINUOUS
10
5.01503
20
-5.44225
11
5.02213
21
-5.45289
0
LINE
8
BLACK
6
CONTINUOUS
10
5.02213
20
-5.45289
11
5.02703
21
-5.46471
0
LINE
8
BLACK
6
CONTINUOUS
10
5.02703
20
-5.46471
11
5.02953
21
-5.47726
0
LINE
8
BLACK
6
CONTINUOUS
10
5.02953
20
-5.47726
11
5.02953
21
-5.49006
0
LINE
8
BLACK
6
CONTINUOUS
10
5.02953
20
-5.49006
11
5.02703
21
-5.50261
0
LINE
8
BLACK
6
CONTINUOUS
10
5.02703
20
-5.50261
11
5.02213
21
-5.51443
0
LINE
8
BLACK
6
CONTINUOUS
10
5.02213
20
-5.51443
11
5.01503
21
-5.52507
0
LINE
8
BLACK
6
CONTINUOUS
10
5.01503
20
-5.52507
11
5.00598
21
-5.53412
0
LINE
8
BLACK
6
CONTINUOUS
10
5.00598
20
-5.53412
11
4.99534
21
-5.54123
0
LINE
8
BLACK
6
CONTINUOUS
10
4.99534
20
-5.54123
11
4.98352
21
-5.54613
0
LINE
8
BLACK
6
CONTINUOUS
10
4.98352
20
-5.54613
11
4.97096
21
-5.54862
0
LINE
8
BLACK
6
CONTINUOUS
10
4.97096
20
-5.54862
11
4.95817
21
-5.54862
0
LINE
8
BLACK
6
CONTINUOUS
10
4.95817
20
-5.54862
11
4.94562
21
-5.54613
0
LINE
8
BLACK
6
CONTINUOUS
10
4.94562
20
-5.54613
11
4.9338
21
-5.54123
0
LINE
8
BLACK
6
CONTINUOUS
10
4.9338
20
-5.54123
11
4.92316
21
-5.53412
0
LINE
8
BLACK
6
CONTINUOUS
10
4.92316
20
-5.53412
11
4.91411
21
-5.52507
0
LINE
8
BLACK
6
CONTINUOUS
10
4.91411
20
-5.52507
11
4.907
21
-5.51443
0
LINE
8
BLACK
6
CONTINUOUS
10
4.907
20
-5.51443
11
4.9021
21
-5.50261
0
LINE
8
BLACK
6
CONTINUOUS
10
4.9021
20
-5.50261
11
4.89961
21
-5.49006
0
LINE
8
BLACK
6
CONTINUOUS
10
4.89961
20
-5.49006
11
4.89961
21
-5.47726
0
LINE
8
BLACK
6
CONTINUOUS
10
4.89961
20
-5.47726
11
4.9021
21
-5.46471
0
LINE
8
BLACK
6
CONTINUOUS
10
4.9021
20
-5.46471
11
4.907
21
-5.45289
0
LINE
8
BLACK
6
CONTINUOUS
10
4.907
20
-5.45289
11
4.91411
21
-5.44225
0
LINE
8
BLACK
6
CONTINUOUS
10
4.91411
20
-5.44225
11
4.92316
21
-5.4332
0
LINE
8
BLACK
6
CONTINUOUS
10
4.92316
20
-5.4332
11
4.9338
21
-5.42609
0
LINE
8
BLACK
6
CONTINUOUS
10
4.9338
20
-5.42609
11
4.94562
21
-5.4212
0
LINE
8
BLACK
6
CONTINUOUS
10
4.94562
20
-5.4212
11
4.95817
21
-5.4187
0
LINE
8
BLACK
6
CONTINUOUS
10
4.95817
20
-5.4187
11
4.97096
21
-5.4187
0
LINE
8
BLACK
6
CONTINUOUS
10
4.97096
20
-5.4187
11
4.98352
21
-5.4212
0
LINE
8
BLACK
6
CONTINUOUS
10
6.69213
20
-5.50236
11
6.62126
21
-5.50236
0
LINE
8
BLACK
6
CONTINUOUS
10
6.62126
20
-5.50236
11
6.62126
21
-5.4315
0
LINE
8
BLACK
6
CONTINUOUS
10
6.62126
20
-5.4315
11
6.69213
21
-5.4315
0
LINE
8
BLACK
6
CONTINUOUS
10
6.69213
20
-5.4315
11
6.69213
21
-5.50236
0
LINE
8
BLACK
6
CONTINUOUS
10
5.32375
20
-5.40338
11
5.32949
21
-5.40575
0
LINE
8
BLACK
6
CONTINUOUS
10
5.32949
20
-5.40575
11
5.33464
21
-5.4092
0
LINE
8
BLACK
6
CONTINUOUS
10
5.33464
20
-5.4092
11
5.33903
21
-5.41358
0
LINE
8
BLACK
6
CONTINUOUS
10
5.33903
20
-5.41358
11
5.34248
21
-5.41874
0
LINE
8
BLACK
6
CONTINUOUS
10
5.34248
20
-5.41874
11
5.34485
21
-5.42447
0
LINE
8
BLACK
6
CONTINUOUS
10
5.34485
20
-5.42447
11
5.34606
21
-5.43056
0
LINE
8
BLACK
6
CONTINUOUS
10
5.34606
20
-5.43056
11
5.34606
21
-5.43676
0
LINE
8
BLACK
6
CONTINUOUS
10
5.34606
20
-5.43676
11
5.34485
21
-5.44285
0
LINE
8
BLACK
6
CONTINUOUS
10
5.34485
20
-5.44285
11
5.34248
21
-5.44858
0
LINE
8
BLACK
6
CONTINUOUS
10
5.34248
20
-5.44858
11
5.33903
21
-5.45374
0
LINE
8
BLACK
6
CONTINUOUS
10
5.33903
20
-5.45374
11
5.33464
21
-5.45813
0
LINE
8
BLACK
6
CONTINUOUS
10
5.33464
20
-5.45813
11
5.32949
21
-5.46157
0
LINE
8
BLACK
6
CONTINUOUS
10
5.32949
20
-5.46157
11
5.32375
21
-5.46395
0
LINE
8
BLACK
6
CONTINUOUS
10
5.32375
20
-5.46395
11
5.31767
21
-5.46516
0
LINE
8
BLACK
6
CONTINUOUS
10
5.31767
20
-5.46516
11
5.31146
21
-5.46516
0
LINE
8
BLACK
6
CONTINUOUS
10
5.31146
20
-5.46516
11
5.30538
21
-5.46395
0
LINE
8
BLACK
6
CONTINUOUS
10
5.30538
20
-5.46395
11
5.29965
21
-5.46157
0
LINE
8
BLACK
6
CONTINUOUS
10
5.29965
20
-5.46157
11
5.29449
21
-5.45813
0
LINE
8
BLACK
6
CONTINUOUS
10
5.29449
20
-5.45813
11
5.2901
21
-5.45374
0
LINE
8
BLACK
6
CONTINUOUS
10
5.2901
20
-5.45374
11
5.28666
21
-5.44858
0
LINE
8
BLACK
6
CONTINUOUS
10
5.28666
20
-5.44858
11
5.28428
21
-5.44285
0
LINE
8
BLACK
6
CONTINUOUS
10
5.28428
20
-5.44285
11
5.28307
21
-5.43676
0
LINE
8
BLACK
6
CONTINUOUS
10
5.28307
20
-5.43676
11
5.28307
21
-5.43056
0
LINE
8
BLACK
6
CONTINUOUS
10
5.28307
20
-5.43056
11
5.28428
21
-5.42447
0
LINE
8
BLACK
6
CONTINUOUS
10
5.28428
20
-5.42447
11
5.28666
21
-5.41874
0
LINE
8
BLACK
6
CONTINUOUS
10
5.28666
20
-5.41874
11
5.2901
21
-5.41358
0
LINE
8
BLACK
6
CONTINUOUS
10
5.2901
20
-5.41358
11
5.29449
21
-5.4092
0
LINE
8
BLACK
6
CONTINUOUS
10
5.29449
20
-5.4092
11
5.29965
21
-5.40575
0
LINE
8
BLACK
6
CONTINUOUS
10
5.29965
20
-5.40575
11
5.30538
21
-5.40338
0
LINE
8
BLACK
6
CONTINUOUS
10
5.30538
20
-5.40338
11
5.31146
21
-5.40217
0
LINE
8
BLACK
6
CONTINUOUS
10
5.31146
20
-5.40217
11
5.31767
21
-5.40217
0
LINE
8
BLACK
6
CONTINUOUS
10
5.31767
20
-5.40217
11
5.32375
21
-5.40338
0
LINE
8
BLACK
6
CONTINUOUS
10
5.77677
20
-5.43386
11
5.71772
21
-5.43386
0
LINE
8
BLACK
6
CONTINUOUS
10
5.71772
20
-5.43386
11
5.71772
21
-5.36693
0
LINE
8
BLACK
6
CONTINUOUS
10
5.71772
20
-5.36693
11
5.77677
21
-5.36693
0
LINE
8
BLACK
6
CONTINUOUS
10
5.77677
20
-5.36693
11
5.77677
21
-5.43386
0
LINE
8
BLACK
6
CONTINUOUS
10
5.65866
20
-5.43386
11
5.59961
21
-5.43386
0
LINE
8
BLACK
6
CONTINUOUS
10
5.59961
20
-5.43386
11
5.59961
21
-5.36693
0
LINE
8
BLACK
6
CONTINUOUS
10
5.59961
20
-5.36693
11
5.65866
21
-5.36693
0
LINE
8
BLACK
6
CONTINUOUS
10
5.65866
20
-5.36693
11
5.65866
21
-5.43386
0
LINE
8
BLACK
6
CONTINUOUS
10
6.32795
20
-5.43386
11
6.2689
21
-5.43386
0
LINE
8
BLACK
6
CONTINUOUS
10
6.2689
20
-5.43386
11
6.2689
21
-5.36693
0
LINE
8
BLACK
6
CONTINUOUS
10
6.2689
20
-5.36693
11
6.32795
21
-5.36693
0
LINE
8
BLACK
6
CONTINUOUS
10
6.32795
20
-5.36693
11
6.32795
21
-5.43386
0
LINE
8
BLACK
6
CONTINUOUS
10
6.20984
20
-5.43386
11
6.15079
21
-5.43386
0
LINE
8
BLACK
6
CONTINUOUS
10
6.15079
20
-5.43386
11
6.15079
21
-5.36693
0
LINE
8
BLACK
6
CONTINUOUS
10
6.15079
20
-5.36693
11
6.20984
21
-5.36693
0
LINE
8
BLACK
6
CONTINUOUS
10
6.20984
20
-5.36693
11
6.20984
21
-5.43386
0
LINE
8
BLACK
6
CONTINUOUS
10
5.22375
20
-5.35338
11
5.22949
21
-5.35575
0
LINE
8
BLACK
6
CONTINUOUS
10
5.22949
20
-5.35575
11
5.23464
21
-5.3592
0
LINE
8
BLACK
6
CONTINUOUS
10
5.23464
20
-5.3592
11
5.23903
21
-5.36358
0
LINE
8
BLACK
6
CONTINUOUS
10
5.23903
20
-5.36358
11
5.24248
21
-5.36874
0
LINE
8
BLACK
6
CONTINUOUS
10
5.24248
20
-5.36874
11
5.24485
21
-5.37447
0
LINE
8
BLACK
6
CONTINUOUS
10
5.24485
20
-5.37447
11
5.24606
21
-5.38056
0
LINE
8
BLACK
6
CONTINUOUS
10
5.24606
20
-5.38056
11
5.24606
21
-5.38676
0
LINE
8
BLACK
6
CONTINUOUS
10
5.24606
20
-5.38676
11
5.24485
21
-5.39285
0
LINE
8
BLACK
6
CONTINUOUS
10
5.24485
20
-5.39285
11
5.24248
21
-5.39858
0
LINE
8
BLACK
6
CONTINUOUS
10
5.24248
20
-5.39858
11
5.23903
21
-5.40374
0
LINE
8
BLACK
6
CONTINUOUS
10
5.23903
20
-5.40374
11
5.23464
21
-5.40813
0
LINE
8
BLACK
6
CONTINUOUS
10
5.23464
20
-5.40813
11
5.22949
21
-5.41157
0
LINE
8
BLACK
6
CONTINUOUS
10
5.22949
20
-5.41157
11
5.22375
21
-5.41395
0
LINE
8
BLACK
6
CONTINUOUS
10
5.22375
20
-5.41395
11
5.21767
21
-5.41516
0
LINE
8
BLACK
6
CONTINUOUS
10
5.21767
20
-5.41516
11
5.21146
21
-5.41516
0
LINE
8
BLACK
6
CONTINUOUS
10
5.21146
20
-5.41516
11
5.20538
21
-5.41395
0
LINE
8
BLACK
6
CONTINUOUS
10
5.20538
20
-5.41395
11
5.19965
21
-5.41157
0
LINE
8
BLACK
6
CONTINUOUS
10
5.19965
20
-5.41157
11
5.19449
21
-5.40813
0
LINE
8
BLACK
6
CONTINUOUS
10
5.19449
20
-5.40813
11
5.1901
21
-5.40374
0
LINE
8
BLACK
6
CONTINUOUS
10
5.1901
20
-5.40374
11
5.18666
21
-5.39858
0
LINE
8
BLACK
6
CONTINUOUS
10
5.18666
20
-5.39858
11
5.18428
21
-5.39285
0
LINE
8
BLACK
6
CONTINUOUS
10
5.18428
20
-5.39285
11
5.18307
21
-5.38676
0
LINE
8
BLACK
6
CONTINUOUS
10
5.18307
20
-5.38676
11
5.18307
21
-5.38056
0
LINE
8
BLACK
6
CONTINUOUS
10
5.18307
20
-5.38056
11
5.18428
21
-5.37447
0
LINE
8
BLACK
6
CONTINUOUS
10
5.18428
20
-5.37447
11
5.18666
21
-5.36874
0
LINE
8
BLACK
6
CONTINUOUS
10
5.18666
20
-5.36874
11
5.1901
21
-5.36358
0
LINE
8
BLACK
6
CONTINUOUS
10
5.1901
20
-5.36358
11
5.19449
21
-5.3592
0
LINE
8
BLACK
6
CONTINUOUS
10
5.19449
20
-5.3592
11
5.19965
21
-5.35575
0
LINE
8
BLACK
6
CONTINUOUS
10
5.19965
20
-5.35575
11
5.20538
21
-5.35338
0
LINE
8
BLACK
6
CONTINUOUS
10
5.20538
20
-5.35338
11
5.21146
21
-5.35217
0
LINE
8
BLACK
6
CONTINUOUS
10
5.21146
20
-5.35217
11
5.21767
21
-5.35217
0
LINE
8
BLACK
6
CONTINUOUS
10
5.21767
20
-5.35217
11
5.22375
21
-5.35338
0
LINE
8
BLACK
6
CONTINUOUS
10
5.54734
20
-5.33798
11
5.55379
21
-5.34065
0
LINE
8
BLACK
6
CONTINUOUS
10
5.55379
20
-5.34065
11
5.5596
21
-5.34452
0
LINE
8
BLACK
6
CONTINUOUS
10
5.5596
20
-5.34452
11
5.56453
21
-5.34946
0
LINE
8
BLACK
6
CONTINUOUS
10
5.56453
20
-5.34946
11
5.56841
21
-5.35526
0
LINE
8
BLACK
6
CONTINUOUS
10
5.56841
20
-5.35526
11
5.57108
21
-5.36171
0
LINE
8
BLACK
6
CONTINUOUS
10
5.57108
20
-5.36171
11
5.57244
21
-5.36856
0
LINE
8
BLACK
6
CONTINUOUS
10
5.57244
20
-5.36856
11
5.57244
21
-5.37554
0
LINE
8
BLACK
6
CONTINUOUS
10
5.57244
20
-5.37554
11
5.57108
21
-5.38238
0
LINE
8
BLACK
6
CONTINUOUS
10
5.57108
20
-5.38238
11
5.56841
21
-5.38883
0
LINE
8
BLACK
6
CONTINUOUS
10
5.56841
20
-5.38883
11
5.56453
21
-5.39463
0
LINE
8
BLACK
6
CONTINUOUS
10
5.56453
20
-5.39463
11
5.5596
21
-5.39957
0
LINE
8
BLACK
6
CONTINUOUS
10
5.5596
20
-5.39957
11
5.55379
21
-5.40345
0
LINE
8
BLACK
6
CONTINUOUS
10
5.55379
20
-5.40345
11
5.54734
21
-5.40612
0
LINE
8
BLACK
6
CONTINUOUS
10
5.54734
20
-5.40612
11
5.5405
21
-5.40748
0
LINE
8
BLACK
6
CONTINUOUS
10
5.5405
20
-5.40748
11
5.53352
21
-5.40748
0
LINE
8
BLACK
6
CONTINUOUS
10
5.53352
20
-5.40748
11
5.52667
21
-5.40612
0
LINE
8
BLACK
6
CONTINUOUS
10
5.52667
20
-5.40612
11
5.52022
21
-5.40345
0
LINE
8
BLACK
6
CONTINUOUS
10
5.52022
20
-5.40345
11
5.51442
21
-5.39957
0
LINE
8
BLACK
6
CONTINUOUS
10
5.51442
20
-5.39957
11
5.50949
21
-5.39463
0
LINE
8
BLACK
6
CONTINUOUS
10
5.50949
20
-5.39463
11
5.50561
21
-5.38883
0
LINE
8
BLACK
6
CONTINUOUS
10
5.50561
20
-5.38883
11
5.50294
21
-5.38238
0
LINE
8
BLACK
6
CONTINUOUS
10
5.50294
20
-5.38238
11
5.50157
21
-5.37554
0
LINE
8
BLACK
6
CONTINUOUS
10
5.50157
20
-5.37554
11
5.50157
21
-5.36856
0
LINE
8
BLACK
6
CONTINUOUS
10
5.50157
20
-5.36856
11
5.50294
21
-5.36171
0
LINE
8
BLACK
6
CONTINUOUS
10
5.50294
20
-5.36171
11
5.50561
21
-5.35526
0
LINE
8
BLACK
6
CONTINUOUS
10
5.50561
20
-5.35526
11
5.50949
21
-5.34946
0
LINE
8
BLACK
6
CONTINUOUS
10
5.50949
20
-5.34946
11
5.51442
21
-5.34452
0
LINE
8
BLACK
6
CONTINUOUS
10
5.51442
20
-5.34452
11
5.52022
21
-5.34065
0
LINE
8
BLACK
6
CONTINUOUS
10
5.52022
20
-5.34065
11
5.52667
21
-5.33798
0
LINE
8
BLACK
6
CONTINUOUS
10
5.52667
20
-5.33798
11
5.53352
21
-5.33661
0
LINE
8
BLACK
6
CONTINUOUS
10
5.53352
20
-5.33661
11
5.5405
21
-5.33661
0
LINE
8
BLACK
6
CONTINUOUS
10
5.5405
20
-5.33661
11
5.54734
21
-5.33798
0
LINE
8
BLACK
6
CONTINUOUS
10
5.44734
20
-5.33798
11
5.45379
21
-5.34065
0
LINE
8
BLACK
6
CONTINUOUS
10
5.45379
20
-5.34065
11
5.4596
21
-5.34452
0
LINE
8
BLACK
6
CONTINUOUS
10
5.4596
20
-5.34452
11
5.46453
21
-5.34946
0
LINE
8
BLACK
6
CONTINUOUS
10
5.46453
20
-5.34946
11
5.46841
21
-5.35526
0
LINE
8
BLACK
6
CONTINUOUS
10
5.46841
20
-5.35526
11
5.47108
21
-5.36171
0
LINE
8
BLACK
6
CONTINUOUS
10
5.47108
20
-5.36171
11
5.47244
21
-5.36856
0
LINE
8
BLACK
6
CONTINUOUS
10
5.47244
20
-5.36856
11
5.47244
21
-5.37554
0
LINE
8
BLACK
6
CONTINUOUS
10
5.47244
20
-5.37554
11
5.47108
21
-5.38238
0
LINE
8
BLACK
6
CONTINUOUS
10
5.47108
20
-5.38238
11
5.46841
21
-5.38883
0
LINE
8
BLACK
6
CONTINUOUS
10
5.46841
20
-5.38883
11
5.46453
21
-5.39463
0
LINE
8
BLACK
6
CONTINUOUS
10
5.46453
20
-5.39463
11
5.4596
21
-5.39957
0
LINE
8
BLACK
6
CONTINUOUS
10
5.4596
20
-5.39957
11
5.45379
21
-5.40345
0
LINE
8
BLACK
6
CONTINUOUS
10
5.45379
20
-5.40345
11
5.44734
21
-5.40612
0
LINE
8
BLACK
6
CONTINUOUS
10
5.44734
20
-5.40612
11
5.4405
21
-5.40748
0
LINE
8
BLACK
6
CONTINUOUS
10
5.4405
20
-5.40748
11
5.43352
21
-5.40748
0
LINE
8
BLACK
6
CONTINUOUS
10
5.43352
20
-5.40748
11
5.42667
21
-5.40612
0
LINE
8
BLACK
6
CONTINUOUS
10
5.42667
20
-5.40612
11
5.42022
21
-5.40345
0
LINE
8
BLACK
6
CONTINUOUS
10
5.42022
20
-5.40345
11
5.41442
21
-5.39957
0
LINE
8
BLACK
6
CONTINUOUS
10
5.41442
20
-5.39957
11
5.40949
21
-5.39463
0
LINE
8
BLACK
6
CONTINUOUS
10
5.40949
20
-5.39463
11
5.40561
21
-5.38883
0
LINE
8
BLACK
6
CONTINUOUS
10
5.40561
20
-5.38883
11
5.40294
21
-5.38238
0
LINE
8
BLACK
6
CONTINUOUS
10
5.40294
20
-5.38238
11
5.40157
21
-5.37554
0
LINE
8
BLACK
6
CONTINUOUS
10
5.40157
20
-5.37554
11
5.40157
21
-5.36856
0
LINE
8
BLACK
6
CONTINUOUS
10
5.40157
20
-5.36856
11
5.40294
21
-5.36171
0
LINE
8
BLACK
6
CONTINUOUS
10
5.40294
20
-5.36171
11
5.40561
21
-5.35526
0
LINE
8
BLACK
6
CONTINUOUS
10
5.40561
20
-5.35526
11
5.40949
21
-5.34946
0
LINE
8
BLACK
6
CONTINUOUS
10
5.40949
20
-5.34946
11
5.41442
21
-5.34452
0
LINE
8
BLACK
6
CONTINUOUS
10
5.41442
20
-5.34452
11
5.42022
21
-5.34065
0
LINE
8
BLACK
6
CONTINUOUS
10
5.42022
20
-5.34065
11
5.42667
21
-5.33798
0
LINE
8
BLACK
6
CONTINUOUS
10
5.42667
20
-5.33798
11
5.43352
21
-5.33661
0
LINE
8
BLACK
6
CONTINUOUS
10
5.43352
20
-5.33661
11
5.4405
21
-5.33661
0
LINE
8
BLACK
6
CONTINUOUS
10
5.4405
20
-5.33661
11
5.44734
21
-5.33798
0
LINE
8
BLACK
6
CONTINUOUS
10
6.66703
20
-5.33286
11
6.67348
21
-5.33553
0
LINE
8
BLACK
6
CONTINUOUS
10
6.67348
20
-5.33553
11
6.67928
21
-5.33941
0
LINE
8
BLACK
6
CONTINUOUS
10
6.67928
20
-5.33941
11
6.68422
21
-5.34434
0
LINE
8
BLACK
6
CONTINUOUS
10
6.68422
20
-5.34434
11
6.68809
21
-5.35015
0
LINE
8
BLACK
6
CONTINUOUS
10
6.68809
20
-5.35015
11
6.69076
21
-5.35659
0
LINE
8
BLACK
6
CONTINUOUS
10
6.69076
20
-5.35659
11
6.69213
21
-5.36344
0
LINE
8
BLACK
6
CONTINUOUS
10
6.69213
20
-5.36344
11
6.69213
21
-5.37042
0
LINE
8
BLACK
6
CONTINUOUS
10
6.69213
20
-5.37042
11
6.69076
21
-5.37726
0
LINE
8
BLACK
6
CONTINUOUS
10
6.69076
20
-5.37726
11
6.68809
21
-5.38371
0
LINE
8
BLACK
6
CONTINUOUS
10
6.68809
20
-5.38371
11
6.68422
21
-5.38952
0
LINE
8
BLACK
6
CONTINUOUS
10
6.68422
20
-5.38952
11
6.67928
21
-5.39445
0
LINE
8
BLACK
6
CONTINUOUS
10
6.67928
20
-5.39445
11
6.67348
21
-5.39833
0
LINE
8
BLACK
6
CONTINUOUS
10
6.67348
20
-5.39833
11
6.66703
21
-5.401
0
LINE
8
BLACK
6
CONTINUOUS
10
6.66703
20
-5.401
11
6.66018
21
-5.40236
0
LINE
8
BLACK
6
CONTINUOUS
10
6.66018
20
-5.40236
11
6.6532
21
-5.40236
0
LINE
8
BLACK
6
CONTINUOUS
10
6.6532
20
-5.40236
11
6.64636
21
-5.401
0
LINE
8
BLACK
6
CONTINUOUS
10
6.64636
20
-5.401
11
6.63991
21
-5.39833
0
LINE
8
BLACK
6
CONTINUOUS
10
6.63991
20
-5.39833
11
6.63411
21
-5.39445
0
LINE
8
BLACK
6
CONTINUOUS
10
6.63411
20
-5.39445
11
6.62917
21
-5.38952
0
LINE
8
BLACK
6
CONTINUOUS
10
6.62917
20
-5.38952
11
6.62529
21
-5.38371
0
LINE
8
BLACK
6
CONTINUOUS
10
6.62529
20
-5.38371
11
6.62262
21
-5.37726
0
LINE
8
BLACK
6
CONTINUOUS
10
6.62262
20
-5.37726
11
6.62126
21
-5.37042
0
LINE
8
BLACK
6
CONTINUOUS
10
6.62126
20
-5.37042
11
6.62126
21
-5.36344
0
LINE
8
BLACK
6
CONTINUOUS
10
6.62126
20
-5.36344
11
6.62262
21
-5.35659
0
LINE
8
BLACK
6
CONTINUOUS
10
6.62262
20
-5.35659
11
6.62529
21
-5.35015
0
LINE
8
BLACK
6
CONTINUOUS
10
6.62529
20
-5.35015
11
6.62917
21
-5.34434
0
LINE
8
BLACK
6
CONTINUOUS
10
6.62917
20
-5.34434
11
6.63411
21
-5.33941
0
LINE
8
BLACK
6
CONTINUOUS
10
6.63411
20
-5.33941
11
6.63991
21
-5.33553
0
LINE
8
BLACK
6
CONTINUOUS
10
6.63991
20
-5.33553
11
6.64636
21
-5.33286
0
LINE
8
BLACK
6
CONTINUOUS
10
6.64636
20
-5.33286
11
6.6532
21
-5.3315
0
LINE
8
BLACK
6
CONTINUOUS
10
6.6532
20
-5.3315
11
6.66018
21
-5.3315
0
LINE
8
BLACK
6
CONTINUOUS
10
6.66018
20
-5.3315
11
6.66703
21
-5.33286
0
LINE
8
BLACK
6
CONTINUOUS
10
5.1031
20
-5.31536
11
5.10508
21
-5.31596
0
LINE
8
BLACK
6
CONTINUOUS
10
5.10508
20
-5.31596
11
5.10691
21
-5.31694
0
LINE
8
BLACK
6
CONTINUOUS
10
5.10691
20
-5.31694
11
5.10852
21
-5.31826
0
LINE
8
BLACK
6
CONTINUOUS
10
5.10852
20
-5.31826
11
5.10983
21
-5.31986
0
LINE
8
BLACK
6
CONTINUOUS
10
5.10983
20
-5.31986
11
5.11081
21
-5.32169
0
LINE
8
BLACK
6
CONTINUOUS
10
5.11081
20
-5.32169
11
5.11141
21
-5.32367
0
LINE
8
BLACK
6
CONTINUOUS
10
5.11141
20
-5.32367
11
5.11161
21
-5.32574
0
LINE
8
BLACK
6
CONTINUOUS
10
5.11161
20
-5.32574
11
5.11161
21
-5.36363
0
LINE
8
BLACK
6
CONTINUOUS
10
5.11161
20
-5.36363
11
5.11141
21
-5.3657
0
LINE
8
BLACK
6
CONTINUOUS
10
5.11141
20
-5.3657
11
5.11081
21
-5.36768
0
LINE
8
BLACK
6
CONTINUOUS
10
5.11081
20
-5.36768
11
5.10983
21
-5.36951
0
LINE
8
BLACK
6
CONTINUOUS
10
5.10983
20
-5.36951
11
5.10852
21
-5.37111
0
LINE
8
BLACK
6
CONTINUOUS
10
5.10852
20
-5.37111
11
5.10691
21
-5.37243
0
LINE
8
BLACK
6
CONTINUOUS
10
5.10691
20
-5.37243
11
5.10508
21
-5.37341
0
LINE
8
BLACK
6
CONTINUOUS
10
5.10508
20
-5.37341
11
5.1031
21
-5.37401
0
LINE
8
BLACK
6
CONTINUOUS
10
5.1031
20
-5.37401
11
5.10103
21
-5.37421
0
LINE
8
BLACK
6
CONTINUOUS
10
5.10103
20
-5.37421
11
5.07987
21
-5.37421
0
LINE
8
BLACK
6
CONTINUOUS
10
5.07987
20
-5.37421
11
5.07781
21
-5.37401
0
LINE
8
BLACK
6
CONTINUOUS
10
5.07781
20
-5.37401
11
5.07582
21
-5.37341
0
LINE
8
BLACK
6
CONTINUOUS
10
5.07582
20
-5.37341
11
5.07399
21
-5.37243
0
LINE
8
BLACK
6
CONTINUOUS
10
5.07399
20
-5.37243
11
5.07239
21
-5.37111
0
LINE
8
BLACK
6
CONTINUOUS
10
5.07239
20
-5.37111
11
5.07107
21
-5.36951
0
LINE
8
BLACK
6
CONTINUOUS
10
5.07107
20
-5.36951
11
5.0701
21
-5.36768
0
LINE
8
BLACK
6
CONTINUOUS
10
5.0701
20
-5.36768
11
5.06949
21
-5.3657
0
LINE
8
BLACK
6
CONTINUOUS
10
5.06949
20
-5.3657
11
5.06929
21
-5.36363
0
LINE
8
BLACK
6
CONTINUOUS
10
5.06929
20
-5.36363
11
5.06929
21
-5.32574
0
LINE
8
BLACK
6
CONTINUOUS
10
5.06929
20
-5.32574
11
5.06949
21
-5.32367
0
LINE
8
BLACK
6
CONTINUOUS
10
5.06949
20
-5.32367
11
5.0701
21
-5.32169
0
LINE
8
BLACK
6
CONTINUOUS
10
5.0701
20
-5.32169
11
5.07107
21
-5.31986
0
LINE
8
BLACK
6
CONTINUOUS
10
5.07107
20
-5.31986
11
5.07239
21
-5.31826
0
LINE
8
BLACK
6
CONTINUOUS
10
5.07239
20
-5.31826
11
5.07399
21
-5.31694
0
LINE
8
BLACK
6
CONTINUOUS
10
5.07399
20
-5.31694
11
5.07582
21
-5.31596
0
LINE
8
BLACK
6
CONTINUOUS
10
5.07582
20
-5.31596
11
5.07781
21
-5.31536
0
LINE
8
BLACK
6
CONTINUOUS
10
5.07781
20
-5.31536
11
5.07987
21
-5.31516
0
LINE
8
BLACK
6
CONTINUOUS
10
5.07987
20
-5.31516
11
5.10103
21
-5.31516
0
LINE
8
BLACK
6
CONTINUOUS
10
5.10103
20
-5.31516
11
5.1031
21
-5.31536
0
LINE
8
BLACK
6
CONTINUOUS
10
5.02928
20
-5.31536
11
5.03126
21
-5.31596
0
LINE
8
BLACK
6
CONTINUOUS
10
5.03126
20
-5.31596
11
5.03309
21
-5.31694
0
LINE
8
BLACK
6
CONTINUOUS
10
5.03309
20
-5.31694
11
5.0347
21
-5.31826
0
LINE
8
BLACK
6
CONTINUOUS
10
5.0347
20
-5.31826
11
5.03601
21
-5.31986
0
LINE
8
BLACK
6
CONTINUOUS
10
5.03601
20
-5.31986
11
5.03699
21
-5.32169
0
LINE
8
BLACK
6
CONTINUOUS
10
5.03699
20
-5.32169
11
5.03759
21
-5.32367
0
LINE
8
BLACK
6
CONTINUOUS
10
5.03759
20
-5.32367
11
5.0378
21
-5.32574
0
LINE
8
BLACK
6
CONTINUOUS
10
5.0378
20
-5.32574
11
5.0378
21
-5.36363
0
LINE
8
BLACK
6
CONTINUOUS
10
5.0378
20
-5.36363
11
5.03759
21
-5.3657
0
LINE
8
BLACK
6
CONTINUOUS
10
5.03759
20
-5.3657
11
5.03699
21
-5.36768
0
LINE
8
BLACK
6
CONTINUOUS
10
5.03699
20
-5.36768
11
5.03601
21
-5.36951
0
LINE
8
BLACK
6
CONTINUOUS
10
5.03601
20
-5.36951
11
5.0347
21
-5.37111
0
LINE
8
BLACK
6
CONTINUOUS
10
5.0347
20
-5.37111
11
5.03309
21
-5.37243
0
LINE
8
BLACK
6
CONTINUOUS
10
5.03309
20
-5.37243
11
5.03126
21
-5.37341
0
LINE
8
BLACK
6
CONTINUOUS
10
5.03126
20
-5.37341
11
5.02928
21
-5.37401
0
LINE
8
BLACK
6
CONTINUOUS
10
5.02928
20
-5.37401
11
5.02721
21
-5.37421
0
LINE
8
BLACK
6
CONTINUOUS
10
5.02721
20
-5.37421
11
5.00605
21
-5.37421
0
LINE
8
BLACK
6
CONTINUOUS
10
5.00605
20
-5.37421
11
5.00399
21
-5.37401
0
LINE
8
BLACK
6
CONTINUOUS
10
5.00399
20
-5.37401
11
5.002
21
-5.37341
0
LINE
8
BLACK
6
CONTINUOUS
10
5.002
20
-5.37341
11
5.00017
21
-5.37243
0
LINE
8
BLACK
6
CONTINUOUS
10
5.00017
20
-5.37243
11
4.99857
21
-5.37111
0
LINE
8
BLACK
6
CONTINUOUS
10
4.99857
20
-5.37111
11
4.99726
21
-5.36951
0
LINE
8
BLACK
6
CONTINUOUS
10
4.99726
20
-5.36951
11
4.99628
21
-5.36768
0
LINE
8
BLACK
6
CONTINUOUS
10
4.99628
20
-5.36768
11
4.99568
21
-5.3657
0
LINE
8
BLACK
6
CONTINUOUS
10
4.99568
20
-5.3657
11
4.99547
21
-5.36363
0
LINE
8
BLACK
6
CONTINUOUS
10
4.99547
20
-5.36363
11
4.99547
21
-5.32574
0
LINE
8
BLACK
6
CONTINUOUS
10
4.99547
20
-5.32574
11
4.99568
21
-5.32367
0
LINE
8
BLACK
6
CONTINUOUS
10
4.99568
20
-5.32367
11
4.99628
21
-5.32169
0
LINE
8
BLACK
6
CONTINUOUS
10
4.99628
20
-5.32169
11
4.99726
21
-5.31986
0
LINE
8
BLACK
6
CONTINUOUS
10
4.99726
20
-5.31986
11
4.99857
21
-5.31826
0
LINE
8
BLACK
6
CONTINUOUS
10
4.99857
20
-5.31826
11
5.00017
21
-5.31694
0
LINE
8
BLACK
6
CONTINUOUS
10
5.00017
20
-5.31694
11
5.002
21
-5.31596
0
LINE
8
BLACK
6
CONTINUOUS
10
5.002
20
-5.31596
11
5.00399
21
-5.31536
0
LINE
8
BLACK
6
CONTINUOUS
10
5.00399
20
-5.31536
11
5.00605
21
-5.31516
0
LINE
8
BLACK
6
CONTINUOUS
10
5.00605
20
-5.31516
11
5.02721
21
-5.31516
0
LINE
8
BLACK
6
CONTINUOUS
10
5.02721
20
-5.31516
11
5.02928
21
-5.31536
0
LINE
8
BLACK
6
CONTINUOUS
10
5.32375
20
-5.30338
11
5.32949
21
-5.30575
0
LINE
8
BLACK
6
CONTINUOUS
10
5.32949
20
-5.30575
11
5.33464
21
-5.3092
0
LINE
8
BLACK
6
CONTINUOUS
10
5.33464
20
-5.3092
11
5.33903
21
-5.31358
0
LINE
8
BLACK
6
CONTINUOUS
10
5.33903
20
-5.31358
11
5.34248
21
-5.31874
0
LINE
8
BLACK
6
CONTINUOUS
10
5.34248
20
-5.31874
11
5.34485
21
-5.32447
0
LINE
8
BLACK
6
CONTINUOUS
10
5.34485
20
-5.32447
11
5.34606
21
-5.33056
0
LINE
8
BLACK
6
CONTINUOUS
10
5.34606
20
-5.33056
11
5.34606
21
-5.33676
0
LINE
8
BLACK
6
CONTINUOUS
10
5.34606
20
-5.33676
11
5.34485
21
-5.34285
0
LINE
8
BLACK
6
CONTINUOUS
10
5.34485
20
-5.34285
11
5.34248
21
-5.34858
0
LINE
8
BLACK
6
CONTINUOUS
10
5.34248
20
-5.34858
11
5.33903
21
-5.35374
0
LINE
8
BLACK
6
CONTINUOUS
10
5.33903
20
-5.35374
11
5.33464
21
-5.35813
0
LINE
8
BLACK
6
CONTINUOUS
10
5.33464
20
-5.35813
11
5.32949
21
-5.36157
0
LINE
8
BLACK
6
CONTINUOUS
10
5.32949
20
-5.36157
11
5.32375
21
-5.36395
0
LINE
8
BLACK
6
CONTINUOUS
10
5.32375
20
-5.36395
11
5.31767
21
-5.36516
0
LINE
8
BLACK
6
CONTINUOUS
10
5.31767
20
-5.36516
11
5.31146
21
-5.36516
0
LINE
8
BLACK
6
CONTINUOUS
10
5.31146
20
-5.36516
11
5.30538
21
-5.36395
0
LINE
8
BLACK
6
CONTINUOUS
10
5.30538
20
-5.36395
11
5.29965
21
-5.36157
0
LINE
8
BLACK
6
CONTINUOUS
10
5.29965
20
-5.36157
11
5.29449
21
-5.35813
0
LINE
8
BLACK
6
CONTINUOUS
10
5.29449
20
-5.35813
11
5.2901
21
-5.35374
0
LINE
8
BLACK
6
CONTINUOUS
10
5.2901
20
-5.35374
11
5.28666
21
-5.34858
0
LINE
8
BLACK
6
CONTINUOUS
10
5.28666
20
-5.34858
11
5.28428
21
-5.34285
0
LINE
8
BLACK
6
CONTINUOUS
10
5.28428
20
-5.34285
11
5.28307
21
-5.33676
0
LINE
8
BLACK
6
CONTINUOUS
10
5.28307
20
-5.33676
11
5.28307
21
-5.33056
0
LINE
8
BLACK
6
CONTINUOUS
10
5.28307
20
-5.33056
11
5.28428
21
-5.32447
0
LINE
8
BLACK
6
CONTINUOUS
10
5.28428
20
-5.32447
11
5.28666
21
-5.31874
0
LINE
8
BLACK
6
CONTINUOUS
10
5.28666
20
-5.31874
11
5.2901
21
-5.31358
0
LINE
8
BLACK
6
CONTINUOUS
10
5.2901
20
-5.31358
11
5.29449
21
-5.3092
0
LINE
8
BLACK
6
CONTINUOUS
10
5.29449
20
-5.3092
11
5.29965
21
-5.30575
0
LINE
8
BLACK
6
CONTINUOUS
10
5.29965
20
-5.30575
11
5.30538
21
-5.30338
0
LINE
8
BLACK
6
CONTINUOUS
10
5.30538
20
-5.30338
11
5.31146
21
-5.30217
0
LINE
8
BLACK
6
CONTINUOUS
10
5.31146
20
-5.30217
11
5.31767
21
-5.30217
0
LINE
8
BLACK
6
CONTINUOUS
10
5.31767
20
-5.30217
11
5.32375
21
-5.30338
0
LINE
8
BLACK
6
CONTINUOUS
10
4.90094
20
-5.32399
11
4.9026
21
-5.32449
0
LINE
8
BLACK
6
CONTINUOUS
10
4.9026
20
-5.32449
11
4.90413
21
-5.32531
0
LINE
8
BLACK
6
CONTINUOUS
10
4.90413
20
-5.32531
11
4.90548
21
-5.32641
0
LINE
8
BLACK
6
CONTINUOUS
10
4.90548
20
-5.32641
11
4.90658
21
-5.32776
0
LINE
8
BLACK
6
CONTINUOUS
10
4.90658
20
-5.32776
11
4.9074
21
-5.32929
0
LINE
8
BLACK
6
CONTINUOUS
10
4.9074
20
-5.32929
11
4.9079
21
-5.33095
0
LINE
8
BLACK
6
CONTINUOUS
10
4.9079
20
-5.33095
11
4.90807
21
-5.33268
0
LINE
8
BLACK
6
CONTINUOUS
10
4.90807
20
-5.33268
11
4.90807
21
-5.3563
0
LINE
8
BLACK
6
CONTINUOUS
10
4.90807
20
-5.3563
11
4.9079
21
-5.35803
0
LINE
8
BLACK
6
CONTINUOUS
10
4.9079
20
-5.35803
11
4.9074
21
-5.35969
0
LINE
8
BLACK
6
CONTINUOUS
10
4.9074
20
-5.35969
11
4.90658
21
-5.36122
0
LINE
8
BLACK
6
CONTINUOUS
10
4.90658
20
-5.36122
11
4.90548
21
-5.36256
0
LINE
8
BLACK
6
CONTINUOUS
10
4.90548
20
-5.36256
11
4.90413
21
-5.36366
0
LINE
8
BLACK
6
CONTINUOUS
10
4.90413
20
-5.36366
11
4.9026
21
-5.36448
0
LINE
8
BLACK
6
CONTINUOUS
10
4.9026
20
-5.36448
11
4.90094
21
-5.36499
0
LINE
8
BLACK
6
CONTINUOUS
10
4.90094
20
-5.36499
11
4.89921
21
-5.36516
0
LINE
8
BLACK
6
CONTINUOUS
10
4.89921
20
-5.36516
11
4.8815
21
-5.36516
0
LINE
8
BLACK
6
CONTINUOUS
10
4.8815
20
-5.36516
11
4.87977
21
-5.36499
0
LINE
8
BLACK
6
CONTINUOUS
10
4.87977
20
-5.36499
11
4.87811
21
-5.36448
0
LINE
8
BLACK
6
CONTINUOUS
10
4.87811
20
-5.36448
11
4.87657
21
-5.36366
0
LINE
8
BLACK
6
CONTINUOUS
10
4.87657
20
-5.36366
11
4.87523
21
-5.36256
0
LINE
8
BLACK
6
CONTINUOUS
10
4.87523
20
-5.36256
11
4.87413
21
-5.36122
0
LINE
8
BLACK
6
CONTINUOUS
10
4.87413
20
-5.36122
11
4.87331
21
-5.35969
0
LINE
8
BLACK
6
CONTINUOUS
10
4.87331
20
-5.35969
11
4.87281
21
-5.35803
0
LINE
8
BLACK
6
CONTINUOUS
10
4.87281
20
-5.35803
11
4.87264
21
-5.3563
0
LINE
8
BLACK
6
CONTINUOUS
10
4.87264
20
-5.3563
11
4.87264
21
-5.33268
0
LINE
8
BLACK
6
CONTINUOUS
10
4.87264
20
-5.33268
11
4.87281
21
-5.33095
0
LINE
8
BLACK
6
CONTINUOUS
10
4.87281
20
-5.33095
11
4.87331
21
-5.32929
0
LINE
8
BLACK
6
CONTINUOUS
10
4.87331
20
-5.32929
11
4.87413
21
-5.32776
0
LINE
8
BLACK
6
CONTINUOUS
10
4.87413
20
-5.32776
11
4.87523
21
-5.32641
0
LINE
8
BLACK
6
CONTINUOUS
10
4.87523
20
-5.32641
11
4.87657
21
-5.32531
0
LINE
8
BLACK
6
CONTINUOUS
10
4.87657
20
-5.32531
11
4.87811
21
-5.32449
0
LINE
8
BLACK
6
CONTINUOUS
10
4.87811
20
-5.32449
11
4.87977
21
-5.32399
0
LINE
8
BLACK
6
CONTINUOUS
10
4.87977
20
-5.32399
11
4.8815
21
-5.32382
0
LINE
8
BLACK
6
CONTINUOUS
10
4.8815
20
-5.32382
11
4.89921
21
-5.32382
0
LINE
8
BLACK
6
CONTINUOUS
10
4.89921
20
-5.32382
11
4.90094
21
-5.32399
0
LINE
8
BLACK
6
CONTINUOUS
10
4.9659
20
-5.32399
11
4.96756
21
-5.32449
0
LINE
8
BLACK
6
CONTINUOUS
10
4.96756
20
-5.32449
11
4.96909
21
-5.32531
0
LINE
8
BLACK
6
CONTINUOUS
10
4.96909
20
-5.32531
11
4.97044
21
-5.32641
0
LINE
8
BLACK
6
CONTINUOUS
10
4.97044
20
-5.32641
11
4.97154
21
-5.32776
0
LINE
8
BLACK
6
CONTINUOUS
10
4.97154
20
-5.32776
11
4.97236
21
-5.32929
0
LINE
8
BLACK
6
CONTINUOUS
10
4.97236
20
-5.32929
11
4.97286
21
-5.33095
0
LINE
8
BLACK
6
CONTINUOUS
10
4.97286
20
-5.33095
11
4.97303
21
-5.33268
0
LINE
8
BLACK
6
CONTINUOUS
10
4.97303
20
-5.33268
11
4.97303
21
-5.3563
0
LINE
8
BLACK
6
CONTINUOUS
10
4.97303
20
-5.3563
11
4.97286
21
-5.35803
0
LINE
8
BLACK
6
CONTINUOUS
10
4.97286
20
-5.35803
11
4.97236
21
-5.35969
0
LINE
8
BLACK
6
CONTINUOUS
10
4.97236
20
-5.35969
11
4.97154
21
-5.36122
0
LINE
8
BLACK
6
CONTINUOUS
10
4.97154
20
-5.36122
11
4.97044
21
-5.36256
0
LINE
8
BLACK
6
CONTINUOUS
10
4.97044
20
-5.36256
11
4.96909
21
-5.36366
0
LINE
8
BLACK
6
CONTINUOUS
10
4.96909
20
-5.36366
11
4.96756
21
-5.36448
0
LINE
8
BLACK
6
CONTINUOUS
10
4.96756
20
-5.36448
11
4.9659
21
-5.36499
0
LINE
8
BLACK
6
CONTINUOUS
10
4.9659
20
-5.36499
11
4.96417
21
-5.36516
0
LINE
8
BLACK
6
CONTINUOUS
10
4.96417
20
-5.36516
11
4.94646
21
-5.36516
0
LINE
8
BLACK
6
CONTINUOUS
10
4.94646
20
-5.36516
11
4.94473
21
-5.36499
0
LINE
8
BLACK
6
CONTINUOUS
10
4.94473
20
-5.36499
11
4.94307
21
-5.36448
0
LINE
8
BLACK
6
CONTINUOUS
10
4.94307
20
-5.36448
11
4.94154
21
-5.36366
0
LINE
8
BLACK
6
CONTINUOUS
10
4.94154
20
-5.36366
11
4.94019
21
-5.36256
0
LINE
8
BLACK
6
CONTINUOUS
10
4.94019
20
-5.36256
11
4.93909
21
-5.36122
0
LINE
8
BLACK
6
CONTINUOUS
10
4.93909
20
-5.36122
11
4.93827
21
-5.35969
0
LINE
8
BLACK
6
CONTINUOUS
10
4.93827
20
-5.35969
11
4.93777
21
-5.35803
0
LINE
8
BLACK
6
CONTINUOUS
10
4.93777
20
-5.35803
11
4.9376
21
-5.3563
0
LINE
8
BLACK
6
CONTINUOUS
10
4.9376
20
-5.3563
11
4.9376
21
-5.33268
0
LINE
8
BLACK
6
CONTINUOUS
10
4.9376
20
-5.33268
11
4.93777
21
-5.33095
0
LINE
8
BLACK
6
CONTINUOUS
10
4.93777
20
-5.33095
11
4.93827
21
-5.32929
0
LINE
8
BLACK
6
CONTINUOUS
10
4.93827
20
-5.32929
11
4.93909
21
-5.32776
0
LINE
8
BLACK
6
CONTINUOUS
10
4.93909
20
-5.32776
11
4.94019
21
-5.32641
0
LINE
8
BLACK
6
CONTINUOUS
10
4.94019
20
-5.32641
11
4.94154
21
-5.32531
0
LINE
8
BLACK
6
CONTINUOUS
10
4.94154
20
-5.32531
11
4.94307
21
-5.32449
0
LINE
8
BLACK
6
CONTINUOUS
10
4.94307
20
-5.32449
11
4.94473
21
-5.32399
0
LINE
8
BLACK
6
CONTINUOUS
10
4.94473
20
-5.32399
11
4.94646
21
-5.32382
0
LINE
8
BLACK
6
CONTINUOUS
10
4.94646
20
-5.32382
11
4.96417
21
-5.32382
0
LINE
8
BLACK
6
CONTINUOUS
10
4.96417
20
-5.32382
11
4.9659
21
-5.32399
0
LINE
8
BLACK
6
CONTINUOUS
10
5.22375
20
-5.25338
11
5.22949
21
-5.25575
0
LINE
8
BLACK
6
CONTINUOUS
10
5.22949
20
-5.25575
11
5.23464
21
-5.2592
0
LINE
8
BLACK
6
CONTINUOUS
10
5.23464
20
-5.2592
11
5.23903
21
-5.26358
0
LINE
8
BLACK
6
CONTINUOUS
10
5.23903
20
-5.26358
11
5.24248
21
-5.26874
0
LINE
8
BLACK
6
CONTINUOUS
10
5.24248
20
-5.26874
11
5.24485
21
-5.27447
0
LINE
8
BLACK
6
CONTINUOUS
10
5.24485
20
-5.27447
11
5.24606
21
-5.28056
0
LINE
8
BLACK
6
CONTINUOUS
10
5.24606
20
-5.28056
11
5.24606
21
-5.28676
0
LINE
8
BLACK
6
CONTINUOUS
10
5.24606
20
-5.28676
11
5.24485
21
-5.29285
0
LINE
8
BLACK
6
CONTINUOUS
10
5.24485
20
-5.29285
11
5.24248
21
-5.29858
0
LINE
8
BLACK
6
CONTINUOUS
10
5.24248
20
-5.29858
11
5.23903
21
-5.30374
0
LINE
8
BLACK
6
CONTINUOUS
10
5.23903
20
-5.30374
11
5.23464
21
-5.30813
0
LINE
8
BLACK
6
CONTINUOUS
10
5.23464
20
-5.30813
11
5.22949
21
-5.31157
0
LINE
8
BLACK
6
CONTINUOUS
10
5.22949
20
-5.31157
11
5.22375
21
-5.31395
0
LINE
8
BLACK
6
CONTINUOUS
10
5.22375
20
-5.31395
11
5.21767
21
-5.31516
0
LINE
8
BLACK
6
CONTINUOUS
10
5.21767
20
-5.31516
11
5.21146
21
-5.31516
0
LINE
8
BLACK
6
CONTINUOUS
10
5.21146
20
-5.31516
11
5.20538
21
-5.31395
0
LINE
8
BLACK
6
CONTINUOUS
10
5.20538
20
-5.31395
11
5.19965
21
-5.31157
0
LINE
8
BLACK
6
CONTINUOUS
10
5.19965
20
-5.31157
11
5.19449
21
-5.30813
0
LINE
8
BLACK
6
CONTINUOUS
10
5.19449
20
-5.30813
11
5.1901
21
-5.30374
0
LINE
8
BLACK
6
CONTINUOUS
10
5.1901
20
-5.30374
11
5.18666
21
-5.29858
0
LINE
8
BLACK
6
CONTINUOUS
10
5.18666
20
-5.29858
11
5.18428
21
-5.29285
0
LINE
8
BLACK
6
CONTINUOUS
10
5.18428
20
-5.29285
11
5.18307
21
-5.28676
0
LINE
8
BLACK
6
CONTINUOUS
10
5.18307
20
-5.28676
11
5.18307
21
-5.28056
0
LINE
8
BLACK
6
CONTINUOUS
10
5.18307
20
-5.28056
11
5.18428
21
-5.27447
0
LINE
8
BLACK
6
CONTINUOUS
10
5.18428
20
-5.27447
11
5.18666
21
-5.26874
0
LINE
8
BLACK
6
CONTINUOUS
10
5.18666
20
-5.26874
11
5.1901
21
-5.26358
0
LINE
8
BLACK
6
CONTINUOUS
10
5.1901
20
-5.26358
11
5.19449
21
-5.2592
0
LINE
8
BLACK
6
CONTINUOUS
10
5.19449
20
-5.2592
11
5.19965
21
-5.25575
0
LINE
8
BLACK
6
CONTINUOUS
10
5.19965
20
-5.25575
11
5.20538
21
-5.25338
0
LINE
8
BLACK
6
CONTINUOUS
10
5.20538
20
-5.25338
11
5.21146
21
-5.25217
0
LINE
8
BLACK
6
CONTINUOUS
10
5.21146
20
-5.25217
11
5.21767
21
-5.25217
0
LINE
8
BLACK
6
CONTINUOUS
10
5.21767
20
-5.25217
11
5.22375
21
-5.25338
0
LINE
8
BLACK
6
CONTINUOUS
10
5.54734
20
-5.23798
11
5.55379
21
-5.24065
0
LINE
8
BLACK
6
CONTINUOUS
10
5.55379
20
-5.24065
11
5.5596
21
-5.24452
0
LINE
8
BLACK
6
CONTINUOUS
10
5.5596
20
-5.24452
11
5.56453
21
-5.24946
0
LINE
8
BLACK
6
CONTINUOUS
10
5.56453
20
-5.24946
11
5.56841
21
-5.25526
0
LINE
8
BLACK
6
CONTINUOUS
10
5.56841
20
-5.25526
11
5.57108
21
-5.26171
0
LINE
8
BLACK
6
CONTINUOUS
10
5.57108
20
-5.26171
11
5.57244
21
-5.26856
0
LINE
8
BLACK
6
CONTINUOUS
10
5.57244
20
-5.26856
11
5.57244
21
-5.27554
0
LINE
8
BLACK
6
CONTINUOUS
10
5.57244
20
-5.27554
11
5.57108
21
-5.28238
0
LINE
8
BLACK
6
CONTINUOUS
10
5.57108
20
-5.28238
11
5.56841
21
-5.28883
0
LINE
8
BLACK
6
CONTINUOUS
10
5.56841
20
-5.28883
11
5.56453
21
-5.29463
0
LINE
8
BLACK
6
CONTINUOUS
10
5.56453
20
-5.29463
11
5.5596
21
-5.29957
0
LINE
8
BLACK
6
CONTINUOUS
10
5.5596
20
-5.29957
11
5.55379
21
-5.30345
0
LINE
8
BLACK
6
CONTINUOUS
10
5.55379
20
-5.30345
11
5.54734
21
-5.30612
0
LINE
8
BLACK
6
CONTINUOUS
10
5.54734
20
-5.30612
11
5.5405
21
-5.30748
0
LINE
8
BLACK
6
CONTINUOUS
10
5.5405
20
-5.30748
11
5.53352
21
-5.30748
0
LINE
8
BLACK
6
CONTINUOUS
10
5.53352
20
-5.30748
11
5.52667
21
-5.30612
0
LINE
8
BLACK
6
CONTINUOUS
10
5.52667
20
-5.30612
11
5.52022
21
-5.30345
0
LINE
8
BLACK
6
CONTINUOUS
10
5.52022
20
-5.30345
11
5.51442
21
-5.29957
0
LINE
8
BLACK
6
CONTINUOUS
10
5.51442
20
-5.29957
11
5.50949
21
-5.29463
0
LINE
8
BLACK
6
CONTINUOUS
10
5.50949
20
-5.29463
11
5.50561
21
-5.28883
0
LINE
8
BLACK
6
CONTINUOUS
10
5.50561
20
-5.28883
11
5.50294
21
-5.28238
0
LINE
8
BLACK
6
CONTINUOUS
10
5.50294
20
-5.28238
11
5.50157
21
-5.27554
0
LINE
8
BLACK
6
CONTINUOUS
10
5.50157
20
-5.27554
11
5.50157
21
-5.26856
0
LINE
8
BLACK
6
CONTINUOUS
10
5.50157
20
-5.26856
11
5.50294
21
-5.26171
0
LINE
8
BLACK
6
CONTINUOUS
10
5.50294
20
-5.26171
11
5.50561
21
-5.25526
0
LINE
8
BLACK
6
CONTINUOUS
10
5.50561
20
-5.25526
11
5.50949
21
-5.24946
0
LINE
8
BLACK
6
CONTINUOUS
10
5.50949
20
-5.24946
11
5.51442
21
-5.24452
0
LINE
8
BLACK
6
CONTINUOUS
10
5.51442
20
-5.24452
11
5.52022
21
-5.24065
0
LINE
8
BLACK
6
CONTINUOUS
10
5.52022
20
-5.24065
11
5.52667
21
-5.23798
0
LINE
8
BLACK
6
CONTINUOUS
10
5.52667
20
-5.23798
11
5.53352
21
-5.23661
0
LINE
8
BLACK
6
CONTINUOUS
10
5.53352
20
-5.23661
11
5.5405
21
-5.23661
0
LINE
8
BLACK
6
CONTINUOUS
10
5.5405
20
-5.23661
11
5.54734
21
-5.23798
0
LINE
8
BLACK
6
CONTINUOUS
10
5.44734
20
-5.23798
11
5.45379
21
-5.24065
0
LINE
8
BLACK
6
CONTINUOUS
10
5.45379
20
-5.24065
11
5.4596
21
-5.24452
0
LINE
8
BLACK
6
CONTINUOUS
10
5.4596
20
-5.24452
11
5.46453
21
-5.24946
0
LINE
8
BLACK
6
CONTINUOUS
10
5.46453
20
-5.24946
11
5.46841
21
-5.25526
0
LINE
8
BLACK
6
CONTINUOUS
10
5.46841
20
-5.25526
11
5.47108
21
-5.26171
0
LINE
8
BLACK
6
CONTINUOUS
10
5.47108
20
-5.26171
11
5.47244
21
-5.26856
0
LINE
8
BLACK
6
CONTINUOUS
10
5.47244
20
-5.26856
11
5.47244
21
-5.27554
0
LINE
8
BLACK
6
CONTINUOUS
10
5.47244
20
-5.27554
11
5.47108
21
-5.28238
0
LINE
8
BLACK
6
CONTINUOUS
10
5.47108
20
-5.28238
11
5.46841
21
-5.28883
0
LINE
8
BLACK
6
CONTINUOUS
10
5.46841
20
-5.28883
11
5.46453
21
-5.29463
0
LINE
8
BLACK
6
CONTINUOUS
10
5.46453
20
-5.29463
11
5.4596
21
-5.29957
0
LINE
8
BLACK
6
CONTINUOUS
10
5.4596
20
-5.29957
11
5.45379
21
-5.30345
0
LINE
8
BLACK
6
CONTINUOUS
10
5.45379
20
-5.30345
11
5.44734
21
-5.30612
0
LINE
8
BLACK
6
CONTINUOUS
10
5.44734
20
-5.30612
11
5.4405
21
-5.30748
0
LINE
8
BLACK
6
CONTINUOUS
10
5.4405
20
-5.30748
11
5.43352
21
-5.30748
0
LINE
8
BLACK
6
CONTINUOUS
10
5.43352
20
-5.30748
11
5.42667
21
-5.30612
0
LINE
8
BLACK
6
CONTINUOUS
10
5.42667
20
-5.30612
11
5.42022
21
-5.30345
0
LINE
8
BLACK
6
CONTINUOUS
10
5.42022
20
-5.30345
11
5.41442
21
-5.29957
0
LINE
8
BLACK
6
CONTINUOUS
10
5.41442
20
-5.29957
11
5.40949
21
-5.29463
0
LINE
8
BLACK
6
CONTINUOUS
10
5.40949
20
-5.29463
11
5.40561
21
-5.28883
0
LINE
8
BLACK
6
CONTINUOUS
10
5.40561
20
-5.28883
11
5.40294
21
-5.28238
0
LINE
8
BLACK
6
CONTINUOUS
10
5.40294
20
-5.28238
11
5.40157
21
-5.27554
0
LINE
8
BLACK
6
CONTINUOUS
10
5.40157
20
-5.27554
11
5.40157
21
-5.26856
0
LINE
8
BLACK
6
CONTINUOUS
10
5.40157
20
-5.26856
11
5.40294
21
-5.26171
0
LINE
8
BLACK
6
CONTINUOUS
10
5.40294
20
-5.26171
11
5.40561
21
-5.25526
0
LINE
8
BLACK
6
CONTINUOUS
10
5.40561
20
-5.25526
11
5.40949
21
-5.24946
0
LINE
8
BLACK
6
CONTINUOUS
10
5.40949
20
-5.24946
11
5.41442
21
-5.24452
0
LINE
8
BLACK
6
CONTINUOUS
10
5.41442
20
-5.24452
11
5.42022
21
-5.24065
0
LINE
8
BLACK
6
CONTINUOUS
10
5.42022
20
-5.24065
11
5.42667
21
-5.23798
0
LINE
8
BLACK
6
CONTINUOUS
10
5.42667
20
-5.23798
11
5.43352
21
-5.23661
0
LINE
8
BLACK
6
CONTINUOUS
10
5.43352
20
-5.23661
11
5.4405
21
-5.23661
0
LINE
8
BLACK
6
CONTINUOUS
10
5.4405
20
-5.23661
11
5.44734
21
-5.23798
0
LINE
8
BLACK
6
CONTINUOUS
10
6.66448
20
-5.24323
11
6.66856
21
-5.24446
0
LINE
8
BLACK
6
CONTINUOUS
10
6.66856
20
-5.24446
11
6.67232
21
-5.24648
0
LINE
8
BLACK
6
CONTINUOUS
10
6.67232
20
-5.24648
11
6.67562
21
-5.24918
0
LINE
8
BLACK
6
CONTINUOUS
10
6.67562
20
-5.24918
11
6.67833
21
-5.25248
0
LINE
8
BLACK
6
CONTINUOUS
10
6.67833
20
-5.25248
11
6.68034
21
-5.25624
0
LINE
8
BLACK
6
CONTINUOUS
10
6.68034
20
-5.25624
11
6.68158
21
-5.26032
0
LINE
8
BLACK
6
CONTINUOUS
10
6.68158
20
-5.26032
11
6.68199
21
-5.26457
0
LINE
8
BLACK
6
CONTINUOUS
10
6.68199
20
-5.26457
11
6.68158
21
-5.26881
0
LINE
8
BLACK
6
CONTINUOUS
10
6.68158
20
-5.26881
11
6.68034
21
-5.27289
0
LINE
8
BLACK
6
CONTINUOUS
10
6.68034
20
-5.27289
11
6.67833
21
-5.27666
0
LINE
8
BLACK
6
CONTINUOUS
10
6.67833
20
-5.27666
11
6.67562
21
-5.27995
0
LINE
8
BLACK
6
CONTINUOUS
10
6.67562
20
-5.27995
11
6.67232
21
-5.28266
0
LINE
8
BLACK
6
CONTINUOUS
10
6.67232
20
-5.28266
11
6.66856
21
-5.28467
0
LINE
8
BLACK
6
CONTINUOUS
10
6.66856
20
-5.28467
11
6.66448
21
-5.28591
0
LINE
8
BLACK
6
CONTINUOUS
10
6.66448
20
-5.28591
11
6.6613
21
-5.28622
0
LINE
8
BLACK
6
CONTINUOUS
10
6.6613
20
-5.28622
11
6.61587
21
-5.28622
0
LINE
8
BLACK
6
CONTINUOUS
10
6.61587
20
-5.28622
11
6.61268
21
-5.28591
0
LINE
8
BLACK
6
CONTINUOUS
10
6.61268
20
-5.28591
11
6.6086
21
-5.28467
0
LINE
8
BLACK
6
CONTINUOUS
10
6.6086
20
-5.28467
11
6.60484
21
-5.28266
0
LINE
8
BLACK
6
CONTINUOUS
10
6.60484
20
-5.28266
11
6.60154
21
-5.27995
0
LINE
8
BLACK
6
CONTINUOUS
10
6.60154
20
-5.27995
11
6.59884
21
-5.27666
0
LINE
8
BLACK
6
CONTINUOUS
10
6.59884
20
-5.27666
11
6.59683
21
-5.27289
0
LINE
8
BLACK
6
CONTINUOUS
10
6.59683
20
-5.27289
11
6.59559
21
-5.26881
0
LINE
8
BLACK
6
CONTINUOUS
10
6.59559
20
-5.26881
11
6.59517
21
-5.26457
0
LINE
8
BLACK
6
CONTINUOUS
10
6.59517
20
-5.26457
11
6.59559
21
-5.26032
0
LINE
8
BLACK
6
CONTINUOUS
10
6.59559
20
-5.26032
11
6.59683
21
-5.25624
0
LINE
8
BLACK
6
CONTINUOUS
10
6.59683
20
-5.25624
11
6.59884
21
-5.25248
0
LINE
8
BLACK
6
CONTINUOUS
10
6.59884
20
-5.25248
11
6.60154
21
-5.24918
0
LINE
8
BLACK
6
CONTINUOUS
10
6.60154
20
-5.24918
11
6.60484
21
-5.24648
0
LINE
8
BLACK
6
CONTINUOUS
10
6.60484
20
-5.24648
11
6.6086
21
-5.24446
0
LINE
8
BLACK
6
CONTINUOUS
10
6.6086
20
-5.24446
11
6.61268
21
-5.24323
0
LINE
8
BLACK
6
CONTINUOUS
10
6.61268
20
-5.24323
11
6.61587
21
-5.24291
0
LINE
8
BLACK
6
CONTINUOUS
10
6.61587
20
-5.24291
11
6.6613
21
-5.24291
0
LINE
8
BLACK
6
CONTINUOUS
10
6.6613
20
-5.24291
11
6.66448
21
-5.24323
0
LINE
8
BLACK
6
CONTINUOUS
10
6.82196
20
-5.24323
11
6.82604
21
-5.24446
0
LINE
8
BLACK
6
CONTINUOUS
10
6.82604
20
-5.24446
11
6.8298
21
-5.24648
0
LINE
8
BLACK
6
CONTINUOUS
10
6.8298
20
-5.24648
11
6.8331
21
-5.24918
0
LINE
8
BLACK
6
CONTINUOUS
10
6.8331
20
-5.24918
11
6.83581
21
-5.25248
0
LINE
8
BLACK
6
CONTINUOUS
10
6.83581
20
-5.25248
11
6.83782
21
-5.25624
0
LINE
8
BLACK
6
CONTINUOUS
10
6.83782
20
-5.25624
11
6.83906
21
-5.26032
0
LINE
8
BLACK
6
CONTINUOUS
10
6.83906
20
-5.26032
11
6.83947
21
-5.26457
0
LINE
8
BLACK
6
CONTINUOUS
10
6.83947
20
-5.26457
11
6.83906
21
-5.26881
0
LINE
8
BLACK
6
CONTINUOUS
10
6.83906
20
-5.26881
11
6.83782
21
-5.27289
0
LINE
8
BLACK
6
CONTINUOUS
10
6.83782
20
-5.27289
11
6.83581
21
-5.27666
0
LINE
8
BLACK
6
CONTINUOUS
10
6.83581
20
-5.27666
11
6.8331
21
-5.27995
0
LINE
8
BLACK
6
CONTINUOUS
10
6.8331
20
-5.27995
11
6.8298
21
-5.28266
0
LINE
8
BLACK
6
CONTINUOUS
10
6.8298
20
-5.28266
11
6.82604
21
-5.28467
0
LINE
8
BLACK
6
CONTINUOUS
10
6.82604
20
-5.28467
11
6.82196
21
-5.28591
0
LINE
8
BLACK
6
CONTINUOUS
10
6.82196
20
-5.28591
11
6.81878
21
-5.28622
0
LINE
8
BLACK
6
CONTINUOUS
10
6.81878
20
-5.28622
11
6.78516
21
-5.28622
0
LINE
8
BLACK
6
CONTINUOUS
10
6.78516
20
-5.28622
11
6.78198
21
-5.28591
0
LINE
8
BLACK
6
CONTINUOUS
10
6.78198
20
-5.28591
11
6.77789
21
-5.28467
0
LINE
8
BLACK
6
CONTINUOUS
10
6.77789
20
-5.28467
11
6.77413
21
-5.28266
0
LINE
8
BLACK
6
CONTINUOUS
10
6.77413
20
-5.28266
11
6.77084
21
-5.27995
0
LINE
8
BLACK
6
CONTINUOUS
10
6.77084
20
-5.27995
11
6.76813
21
-5.27666
0
LINE
8
BLACK
6
CONTINUOUS
10
6.76813
20
-5.27666
11
6.76612
21
-5.27289
0
LINE
8
BLACK
6
CONTINUOUS
10
6.76612
20
-5.27289
11
6.76488
21
-5.26881
0
LINE
8
BLACK
6
CONTINUOUS
10
6.76488
20
-5.26881
11
6.76446
21
-5.26457
0
LINE
8
BLACK
6
CONTINUOUS
10
6.76446
20
-5.26457
11
6.76488
21
-5.26032
0
LINE
8
BLACK
6
CONTINUOUS
10
6.76488
20
-5.26032
11
6.76612
21
-5.25624
0
LINE
8
BLACK
6
CONTINUOUS
10
6.76612
20
-5.25624
11
6.76813
21
-5.25248
0
LINE
8
BLACK
6
CONTINUOUS
10
6.76813
20
-5.25248
11
6.77084
21
-5.24918
0
LINE
8
BLACK
6
CONTINUOUS
10
6.77084
20
-5.24918
11
6.77413
21
-5.24648
0
LINE
8
BLACK
6
CONTINUOUS
10
6.77413
20
-5.24648
11
6.77789
21
-5.24446
0
LINE
8
BLACK
6
CONTINUOUS
10
6.77789
20
-5.24446
11
6.78198
21
-5.24323
0
LINE
8
BLACK
6
CONTINUOUS
10
6.78198
20
-5.24323
11
6.78516
21
-5.24291
0
LINE
8
BLACK
6
CONTINUOUS
10
6.78516
20
-5.24291
11
6.81878
21
-5.24291
0
LINE
8
BLACK
6
CONTINUOUS
10
6.81878
20
-5.24291
11
6.82196
21
-5.24323
0
LINE
8
BLACK
6
CONTINUOUS
10
5.32375
20
-5.20338
11
5.32949
21
-5.20575
0
LINE
8
BLACK
6
CONTINUOUS
10
5.32949
20
-5.20575
11
5.33464
21
-5.2092
0
LINE
8
BLACK
6
CONTINUOUS
10
5.33464
20
-5.2092
11
5.33903
21
-5.21358
0
LINE
8
BLACK
6
CONTINUOUS
10
5.33903
20
-5.21358
11
5.34248
21
-5.21874
0
LINE
8
BLACK
6
CONTINUOUS
10
5.34248
20
-5.21874
11
5.34485
21
-5.22447
0
LINE
8
BLACK
6
CONTINUOUS
10
5.34485
20
-5.22447
11
5.34606
21
-5.23056
0
LINE
8
BLACK
6
CONTINUOUS
10
5.34606
20
-5.23056
11
5.34606
21
-5.23676
0
LINE
8
BLACK
6
CONTINUOUS
10
5.34606
20
-5.23676
11
5.34485
21
-5.24285
0
LINE
8
BLACK
6
CONTINUOUS
10
5.34485
20
-5.24285
11
5.34248
21
-5.24858
0
LINE
8
BLACK
6
CONTINUOUS
10
5.34248
20
-5.24858
11
5.33903
21
-5.25374
0
LINE
8
BLACK
6
CONTINUOUS
10
5.33903
20
-5.25374
11
5.33464
21
-5.25813
0
LINE
8
BLACK
6
CONTINUOUS
10
5.33464
20
-5.25813
11
5.32949
21
-5.26157
0
LINE
8
BLACK
6
CONTINUOUS
10
5.32949
20
-5.26157
11
5.32375
21
-5.26395
0
LINE
8
BLACK
6
CONTINUOUS
10
5.32375
20
-5.26395
11
5.31767
21
-5.26516
0
LINE
8
BLACK
6
CONTINUOUS
10
5.31767
20
-5.26516
11
5.31146
21
-5.26516
0
LINE
8
BLACK
6
CONTINUOUS
10
5.31146
20
-5.26516
11
5.30538
21
-5.26395
0
LINE
8
BLACK
6
CONTINUOUS
10
5.30538
20
-5.26395
11
5.29965
21
-5.26157
0
LINE
8
BLACK
6
CONTINUOUS
10
5.29965
20
-5.26157
11
5.29449
21
-5.25813
0
LINE
8
BLACK
6
CONTINUOUS
10
5.29449
20
-5.25813
11
5.2901
21
-5.25374
0
LINE
8
BLACK
6
CONTINUOUS
10
5.2901
20
-5.25374
11
5.28666
21
-5.24858
0
LINE
8
BLACK
6
CONTINUOUS
10
5.28666
20
-5.24858
11
5.28428
21
-5.24285
0
LINE
8
BLACK
6
CONTINUOUS
10
5.28428
20
-5.24285
11
5.28307
21
-5.23676
0
LINE
8
BLACK
6
CONTINUOUS
10
5.28307
20
-5.23676
11
5.28307
21
-5.23056
0
LINE
8
BLACK
6
CONTINUOUS
10
5.28307
20
-5.23056
11
5.28428
21
-5.22447
0
LINE
8
BLACK
6
CONTINUOUS
10
5.28428
20
-5.22447
11
5.28666
21
-5.21874
0
LINE
8
BLACK
6
CONTINUOUS
10
5.28666
20
-5.21874
11
5.2901
21
-5.21358
0
LINE
8
BLACK
6
CONTINUOUS
10
5.2901
20
-5.21358
11
5.29449
21
-5.2092
0
LINE
8
BLACK
6
CONTINUOUS
10
5.29449
20
-5.2092
11
5.29965
21
-5.20575
0
LINE
8
BLACK
6
CONTINUOUS
10
5.29965
20
-5.20575
11
5.30538
21
-5.20338
0
LINE
8
BLACK
6
CONTINUOUS
10
5.30538
20
-5.20338
11
5.31146
21
-5.20217
0
LINE
8
BLACK
6
CONTINUOUS
10
5.31146
20
-5.20217
11
5.31767
21
-5.20217
0
LINE
8
BLACK
6
CONTINUOUS
10
5.31767
20
-5.20217
11
5.32375
21
-5.20338
0
LINE
8
BLACK
6
CONTINUOUS
10
6.66257
20
-5.19407
11
6.66526
21
-5.19518
0
LINE
8
BLACK
6
CONTINUOUS
10
6.66526
20
-5.19518
11
6.66768
21
-5.1968
0
LINE
8
BLACK
6
CONTINUOUS
10
6.66768
20
-5.1968
11
6.66974
21
-5.19886
0
LINE
8
BLACK
6
CONTINUOUS
10
6.66974
20
-5.19886
11
6.67135
21
-5.20127
0
LINE
8
BLACK
6
CONTINUOUS
10
6.67135
20
-5.20127
11
6.67246
21
-5.20396
0
LINE
8
BLACK
6
CONTINUOUS
10
6.67246
20
-5.20396
11
6.67303
21
-5.20681
0
LINE
8
BLACK
6
CONTINUOUS
10
6.67303
20
-5.20681
11
6.67303
21
-5.20972
0
LINE
8
BLACK
6
CONTINUOUS
10
6.67303
20
-5.20972
11
6.67246
21
-5.21257
0
LINE
8
BLACK
6
CONTINUOUS
10
6.67246
20
-5.21257
11
6.67135
21
-5.21526
0
LINE
8
BLACK
6
CONTINUOUS
10
6.67135
20
-5.21526
11
6.66974
21
-5.21768
0
LINE
8
BLACK
6
CONTINUOUS
10
6.66974
20
-5.21768
11
6.66768
21
-5.21974
0
LINE
8
BLACK
6
CONTINUOUS
10
6.66768
20
-5.21974
11
6.66526
21
-5.22135
0
LINE
8
BLACK
6
CONTINUOUS
10
6.66526
20
-5.22135
11
6.66257
21
-5.22246
0
LINE
8
BLACK
6
CONTINUOUS
10
6.66257
20
-5.22246
11
6.65972
21
-5.22303
0
LINE
8
BLACK
6
CONTINUOUS
10
6.65972
20
-5.22303
11
6.65681
21
-5.22303
0
LINE
8
BLACK
6
CONTINUOUS
10
6.65681
20
-5.22303
11
6.65396
21
-5.22246
0
LINE
8
BLACK
6
CONTINUOUS
10
6.65396
20
-5.22246
11
6.65127
21
-5.22135
0
LINE
8
BLACK
6
CONTINUOUS
10
6.65127
20
-5.22135
11
6.64886
21
-5.21974
0
LINE
8
BLACK
6
CONTINUOUS
10
6.64886
20
-5.21974
11
6.6468
21
-5.21768
0
LINE
8
BLACK
6
CONTINUOUS
10
6.6468
20
-5.21768
11
6.64518
21
-5.21526
0
LINE
8
BLACK
6
CONTINUOUS
10
6.64518
20
-5.21526
11
6.64407
21
-5.21257
0
LINE
8
BLACK
6
CONTINUOUS
10
6.64407
20
-5.21257
11
6.6435
21
-5.20972
0
LINE
8
BLACK
6
CONTINUOUS
10
6.6435
20
-5.20972
11
6.6435
21
-5.20681
0
LINE
8
BLACK
6
CONTINUOUS
10
6.6435
20
-5.20681
11
6.64407
21
-5.20396
0
LINE
8
BLACK
6
CONTINUOUS
10
6.64407
20
-5.20396
11
6.64518
21
-5.20127
0
LINE
8
BLACK
6
CONTINUOUS
10
6.64518
20
-5.20127
11
6.6468
21
-5.19886
0
LINE
8
BLACK
6
CONTINUOUS
10
6.6468
20
-5.19886
11
6.64886
21
-5.1968
0
LINE
8
BLACK
6
CONTINUOUS
10
6.64886
20
-5.1968
11
6.65127
21
-5.19518
0
LINE
8
BLACK
6
CONTINUOUS
10
6.65127
20
-5.19518
11
6.65396
21
-5.19407
0
LINE
8
BLACK
6
CONTINUOUS
10
6.65396
20
-5.19407
11
6.65681
21
-5.1935
0
LINE
8
BLACK
6
CONTINUOUS
10
6.65681
20
-5.1935
11
6.65972
21
-5.1935
0
LINE
8
BLACK
6
CONTINUOUS
10
6.65972
20
-5.1935
11
6.66257
21
-5.19407
0
LINE
8
BLACK
6
CONTINUOUS
10
5.22375
20
-5.15338
11
5.22949
21
-5.15575
0
LINE
8
BLACK
6
CONTINUOUS
10
5.22949
20
-5.15575
11
5.23464
21
-5.1592
0
LINE
8
BLACK
6
CONTINUOUS
10
5.23464
20
-5.1592
11
5.23903
21
-5.16358
0
LINE
8
BLACK
6
CONTINUOUS
10
5.23903
20
-5.16358
11
5.24248
21
-5.16874
0
LINE
8
BLACK
6
CONTINUOUS
10
5.24248
20
-5.16874
11
5.24485
21
-5.17447
0
LINE
8
BLACK
6
CONTINUOUS
10
5.24485
20
-5.17447
11
5.24606
21
-5.18056
0
LINE
8
BLACK
6
CONTINUOUS
10
5.24606
20
-5.18056
11
5.24606
21
-5.18676
0
LINE
8
BLACK
6
CONTINUOUS
10
5.24606
20
-5.18676
11
5.24485
21
-5.19285
0
LINE
8
BLACK
6
CONTINUOUS
10
5.24485
20
-5.19285
11
5.24248
21
-5.19858
0
LINE
8
BLACK
6
CONTINUOUS
10
5.24248
20
-5.19858
11
5.23903
21
-5.20374
0
LINE
8
BLACK
6
CONTINUOUS
10
5.23903
20
-5.20374
11
5.23464
21
-5.20813
0
LINE
8
BLACK
6
CONTINUOUS
10
5.23464
20
-5.20813
11
5.22949
21
-5.21157
0
LINE
8
BLACK
6
CONTINUOUS
10
5.22949
20
-5.21157
11
5.22375
21
-5.21395
0
LINE
8
BLACK
6
CONTINUOUS
10
5.22375
20
-5.21395
11
5.21767
21
-5.21516
0
LINE
8
BLACK
6
CONTINUOUS
10
5.21767
20
-5.21516
11
5.21146
21
-5.21516
0
LINE
8
BLACK
6
CONTINUOUS
10
5.21146
20
-5.21516
11
5.20538
21
-5.21395
0
LINE
8
BLACK
6
CONTINUOUS
10
5.20538
20
-5.21395
11
5.19965
21
-5.21157
0
LINE
8
BLACK
6
CONTINUOUS
10
5.19965
20
-5.21157
11
5.19449
21
-5.20813
0
LINE
8
BLACK
6
CONTINUOUS
10
5.19449
20
-5.20813
11
5.1901
21
-5.20374
0
LINE
8
BLACK
6
CONTINUOUS
10
5.1901
20
-5.20374
11
5.18666
21
-5.19858
0
LINE
8
BLACK
6
CONTINUOUS
10
5.18666
20
-5.19858
11
5.18428
21
-5.19285
0
LINE
8
BLACK
6
CONTINUOUS
10
5.18428
20
-5.19285
11
5.18307
21
-5.18676
0
LINE
8
BLACK
6
CONTINUOUS
10
5.18307
20
-5.18676
11
5.18307
21
-5.18056
0
LINE
8
BLACK
6
CONTINUOUS
10
5.18307
20
-5.18056
11
5.18428
21
-5.17447
0
LINE
8
BLACK
6
CONTINUOUS
10
5.18428
20
-5.17447
11
5.18666
21
-5.16874
0
LINE
8
BLACK
6
CONTINUOUS
10
5.18666
20
-5.16874
11
5.1901
21
-5.16358
0
LINE
8
BLACK
6
CONTINUOUS
10
5.1901
20
-5.16358
11
5.19449
21
-5.1592
0
LINE
8
BLACK
6
CONTINUOUS
10
5.19449
20
-5.1592
11
5.19965
21
-5.15575
0
LINE
8
BLACK
6
CONTINUOUS
10
5.19965
20
-5.15575
11
5.20538
21
-5.15338
0
LINE
8
BLACK
6
CONTINUOUS
10
5.20538
20
-5.15338
11
5.21146
21
-5.15217
0
LINE
8
BLACK
6
CONTINUOUS
10
5.21146
20
-5.15217
11
5.21767
21
-5.15217
0
LINE
8
BLACK
6
CONTINUOUS
10
5.21767
20
-5.15217
11
5.22375
21
-5.15338
0
LINE
8
BLACK
6
CONTINUOUS
10
6.85803
20
-5.17556
11
6.85969
21
-5.17607
0
LINE
8
BLACK
6
CONTINUOUS
10
6.85969
20
-5.17607
11
6.86122
21
-5.17689
0
LINE
8
BLACK
6
CONTINUOUS
10
6.86122
20
-5.17689
11
6.86256
21
-5.17799
0
LINE
8
BLACK
6
CONTINUOUS
10
6.86256
20
-5.17799
11
6.86366
21
-5.17933
0
LINE
8
BLACK
6
CONTINUOUS
10
6.86366
20
-5.17933
11
6.86448
21
-5.18086
0
LINE
8
BLACK
6
CONTINUOUS
10
6.86448
20
-5.18086
11
6.86499
21
-5.18252
0
LINE
8
BLACK
6
CONTINUOUS
10
6.86499
20
-5.18252
11
6.86516
21
-5.18425
0
LINE
8
BLACK
6
CONTINUOUS
10
6.86516
20
-5.18425
11
6.86516
21
-5.20197
0
LINE
8
BLACK
6
CONTINUOUS
10
6.86516
20
-5.20197
11
6.86499
21
-5.2037
0
LINE
8
BLACK
6
CONTINUOUS
10
6.86499
20
-5.2037
11
6.86448
21
-5.20536
0
LINE
8
BLACK
6
CONTINUOUS
10
6.86448
20
-5.20536
11
6.86366
21
-5.20689
0
LINE
8
BLACK
6
CONTINUOUS
10
6.86366
20
-5.20689
11
6.86256
21
-5.20823
0
LINE
8
BLACK
6
CONTINUOUS
10
6.86256
20
-5.20823
11
6.86122
21
-5.20933
0
LINE
8
BLACK
6
CONTINUOUS
10
6.86122
20
-5.20933
11
6.85969
21
-5.21015
0
LINE
8
BLACK
6
CONTINUOUS
10
6.85969
20
-5.21015
11
6.85803
21
-5.21066
0
LINE
8
BLACK
6
CONTINUOUS
10
6.85803
20
-5.21066
11
6.8563
21
-5.21083
0
LINE
8
BLACK
6
CONTINUOUS
10
6.8563
20
-5.21083
11
6.83268
21
-5.21083
0
LINE
8
BLACK
6
CONTINUOUS
10
6.83268
20
-5.21083
11
6.83095
21
-5.21066
0
LINE
8
BLACK
6
CONTINUOUS
10
6.83095
20
-5.21066
11
6.82929
21
-5.21015
0
LINE
8
BLACK
6
CONTINUOUS
10
6.82929
20
-5.21015
11
6.82776
21
-5.20933
0
LINE
8
BLACK
6
CONTINUOUS
10
6.82776
20
-5.20933
11
6.82641
21
-5.20823
0
LINE
8
BLACK
6
CONTINUOUS
10
6.82641
20
-5.20823
11
6.82531
21
-5.20689
0
LINE
8
BLACK
6
CONTINUOUS
10
6.82531
20
-5.20689
11
6.82449
21
-5.20536
0
LINE
8
BLACK
6
CONTINUOUS
10
6.82449
20
-5.20536
11
6.82399
21
-5.2037
0
LINE
8
BLACK
6
CONTINUOUS
10
6.82399
20
-5.2037
11
6.82382
21
-5.20197
0
LINE
8
BLACK
6
CONTINUOUS
10
6.82382
20
-5.20197
11
6.82382
21
-5.18425
0
LINE
8
BLACK
6
CONTINUOUS
10
6.82382
20
-5.18425
11
6.82399
21
-5.18252
0
LINE
8
BLACK
6
CONTINUOUS
10
6.82399
20
-5.18252
11
6.82449
21
-5.18086
0
LINE
8
BLACK
6
CONTINUOUS
10
6.82449
20
-5.18086
11
6.82531
21
-5.17933
0
LINE
8
BLACK
6
CONTINUOUS
10
6.82531
20
-5.17933
11
6.82641
21
-5.17799
0
LINE
8
BLACK
6
CONTINUOUS
10
6.82641
20
-5.17799
11
6.82776
21
-5.17689
0
LINE
8
BLACK
6
CONTINUOUS
10
6.82776
20
-5.17689
11
6.82929
21
-5.17607
0
LINE
8
BLACK
6
CONTINUOUS
10
6.82929
20
-5.17607
11
6.83095
21
-5.17556
0
LINE
8
BLACK
6
CONTINUOUS
10
6.83095
20
-5.17556
11
6.83268
21
-5.17539
0
LINE
8
BLACK
6
CONTINUOUS
10
6.83268
20
-5.17539
11
6.8563
21
-5.17539
0
LINE
8
BLACK
6
CONTINUOUS
10
6.8563
20
-5.17539
11
6.85803
21
-5.17556
0
LINE
8
BLACK
6
CONTINUOUS
10
5.54734
20
-5.13798
11
5.55379
21
-5.14065
0
LINE
8
BLACK
6
CONTINUOUS
10
5.55379
20
-5.14065
11
5.5596
21
-5.14452
0
LINE
8
BLACK
6
CONTINUOUS
10
5.5596
20
-5.14452
11
5.56453
21
-5.14946
0
LINE
8
BLACK
6
CONTINUOUS
10
5.56453
20
-5.14946
11
5.56841
21
-5.15526
0
LINE
8
BLACK
6
CONTINUOUS
10
5.56841
20
-5.15526
11
5.57108
21
-5.16171
0
LINE
8
BLACK
6
CONTINUOUS
10
5.57108
20
-5.16171
11
5.57244
21
-5.16856
0
LINE
8
BLACK
6
CONTINUOUS
10
5.57244
20
-5.16856
11
5.57244
21
-5.17554
0
LINE
8
BLACK
6
CONTINUOUS
10
5.57244
20
-5.17554
11
5.57108
21
-5.18238
0
LINE
8
BLACK
6
CONTINUOUS
10
5.57108
20
-5.18238
11
5.56841
21
-5.18883
0
LINE
8
BLACK
6
CONTINUOUS
10
5.56841
20
-5.18883
11
5.56453
21
-5.19463
0
LINE
8
BLACK
6
CONTINUOUS
10
5.56453
20
-5.19463
11
5.5596
21
-5.19957
0
LINE
8
BLACK
6
CONTINUOUS
10
5.5596
20
-5.19957
11
5.55379
21
-5.20345
0
LINE
8
BLACK
6
CONTINUOUS
10
5.55379
20
-5.20345
11
5.54734
21
-5.20612
0
LINE
8
BLACK
6
CONTINUOUS
10
5.54734
20
-5.20612
11
5.5405
21
-5.20748
0
LINE
8
BLACK
6
CONTINUOUS
10
5.5405
20
-5.20748
11
5.53352
21
-5.20748
0
LINE
8
BLACK
6
CONTINUOUS
10
5.53352
20
-5.20748
11
5.52667
21
-5.20612
0
LINE
8
BLACK
6
CONTINUOUS
10
5.52667
20
-5.20612
11
5.52022
21
-5.20345
0
LINE
8
BLACK
6
CONTINUOUS
10
5.52022
20
-5.20345
11
5.51442
21
-5.19957
0
LINE
8
BLACK
6
CONTINUOUS
10
5.51442
20
-5.19957
11
5.50949
21
-5.19463
0
LINE
8
BLACK
6
CONTINUOUS
10
5.50949
20
-5.19463
11
5.50561
21
-5.18883
0
LINE
8
BLACK
6
CONTINUOUS
10
5.50561
20
-5.18883
11
5.50294
21
-5.18238
0
LINE
8
BLACK
6
CONTINUOUS
10
5.50294
20
-5.18238
11
5.50157
21
-5.17554
0
LINE
8
BLACK
6
CONTINUOUS
10
5.50157
20
-5.17554
11
5.50157
21
-5.16856
0
LINE
8
BLACK
6
CONTINUOUS
10
5.50157
20
-5.16856
11
5.50294
21
-5.16171
0
LINE
8
BLACK
6
CONTINUOUS
10
5.50294
20
-5.16171
11
5.50561
21
-5.15526
0
LINE
8
BLACK
6
CONTINUOUS
10
5.50561
20
-5.15526
11
5.50949
21
-5.14946
0
LINE
8
BLACK
6
CONTINUOUS
10
5.50949
20
-5.14946
11
5.51442
21
-5.14452
0
LINE
8
BLACK
6
CONTINUOUS
10
5.51442
20
-5.14452
11
5.52022
21
-5.14065
0
LINE
8
BLACK
6
CONTINUOUS
10
5.52022
20
-5.14065
11
5.52667
21
-5.13798
0
LINE
8
BLACK
6
CONTINUOUS
10
5.52667
20
-5.13798
11
5.53352
21
-5.13661
0
LINE
8
BLACK
6
CONTINUOUS
10
5.53352
20
-5.13661
11
5.5405
21
-5.13661
0
LINE
8
BLACK
6
CONTINUOUS
10
5.5405
20
-5.13661
11
5.54734
21
-5.13798
0
LINE
8
BLACK
6
CONTINUOUS
10
5.47244
20
-5.20748
11
5.40157
21
-5.20748
0
LINE
8
BLACK
6
CONTINUOUS
10
5.40157
20
-5.20748
11
5.40157
21
-5.13661
0
LINE
8
BLACK
6
CONTINUOUS
10
5.40157
20
-5.13661
11
5.47244
21
-5.13661
0
LINE
8
BLACK
6
CONTINUOUS
10
5.47244
20
-5.13661
11
5.47244
21
-5.20748
0
LINE
8
BLACK
6
CONTINUOUS
10
5.10192
20
-5.14115
11
5.1039
21
-5.14175
0
LINE
8
BLACK
6
CONTINUOUS
10
5.1039
20
-5.14175
11
5.10573
21
-5.14273
0
LINE
8
BLACK
6
CONTINUOUS
10
5.10573
20
-5.14273
11
5.10733
21
-5.14404
0
LINE
8
BLACK
6
CONTINUOUS
10
5.10733
20
-5.14404
11
5.10865
21
-5.14565
0
LINE
8
BLACK
6
CONTINUOUS
10
5.10865
20
-5.14565
11
5.10963
21
-5.14748
0
LINE
8
BLACK
6
CONTINUOUS
10
5.10963
20
-5.14748
11
5.11023
21
-5.14946
0
LINE
8
BLACK
6
CONTINUOUS
10
5.11023
20
-5.14946
11
5.11043
21
-5.15153
0
LINE
8
BLACK
6
CONTINUOUS
10
5.11043
20
-5.15153
11
5.11043
21
-5.18942
0
LINE
8
BLACK
6
CONTINUOUS
10
5.11043
20
-5.18942
11
5.11023
21
-5.19148
0
LINE
8
BLACK
6
CONTINUOUS
10
5.11023
20
-5.19148
11
5.10963
21
-5.19347
0
LINE
8
BLACK
6
CONTINUOUS
10
5.10963
20
-5.19347
11
5.10865
21
-5.1953
0
LINE
8
BLACK
6
CONTINUOUS
10
5.10865
20
-5.1953
11
5.10733
21
-5.1969
0
LINE
8
BLACK
6
CONTINUOUS
10
5.10733
20
-5.1969
11
5.10573
21
-5.19822
0
LINE
8
BLACK
6
CONTINUOUS
10
5.10573
20
-5.19822
11
5.1039
21
-5.19919
0
LINE
8
BLACK
6
CONTINUOUS
10
5.1039
20
-5.19919
11
5.10192
21
-5.1998
0
LINE
8
BLACK
6
CONTINUOUS
10
5.10192
20
-5.1998
11
5.09985
21
-5.2
0
LINE
8
BLACK
6
CONTINUOUS
10
5.09985
20
-5.2
11
5.07869
21
-5.2
0
LINE
8
BLACK
6
CONTINUOUS
10
5.07869
20
-5.2
11
5.07663
21
-5.1998
0
LINE
8
BLACK
6
CONTINUOUS
10
5.07663
20
-5.1998
11
5.07464
21
-5.19919
0
LINE
8
BLACK
6
CONTINUOUS
10
5.07464
20
-5.19919
11
5.07281
21
-5.19822
0
LINE
8
BLACK
6
CONTINUOUS
10
5.07281
20
-5.19822
11
5.07121
21
-5.1969
0
LINE
8
BLACK
6
CONTINUOUS
10
5.07121
20
-5.1969
11
5.06989
21
-5.1953
0
LINE
8
BLACK
6
CONTINUOUS
10
5.06989
20
-5.1953
11
5.06892
21
-5.19347
0
LINE
8
BLACK
6
CONTINUOUS
10
5.06892
20
-5.19347
11
5.06831
21
-5.19148
0
LINE
8
BLACK
6
CONTINUOUS
10
5.06831
20
-5.19148
11
5.06811
21
-5.18942
0
LINE
8
BLACK
6
CONTINUOUS
10
5.06811
20
-5.18942
11
5.06811
21
-5.15153
0
LINE
8
BLACK
6
CONTINUOUS
10
5.06811
20
-5.15153
11
5.06831
21
-5.14946
0
LINE
8
BLACK
6
CONTINUOUS
10
5.06831
20
-5.14946
11
5.06892
21
-5.14748
0
LINE
8
BLACK
6
CONTINUOUS
10
5.06892
20
-5.14748
11
5.06989
21
-5.14565
0
LINE
8
BLACK
6
CONTINUOUS
10
5.06989
20
-5.14565
11
5.07121
21
-5.14404
0
LINE
8
BLACK
6
CONTINUOUS
10
5.07121
20
-5.14404
11
5.07281
21
-5.14273
0
LINE
8
BLACK
6
CONTINUOUS
10
5.07281
20
-5.14273
11
5.07464
21
-5.14175
0
LINE
8
BLACK
6
CONTINUOUS
10
5.07464
20
-5.14175
11
5.07663
21
-5.14115
0
LINE
8
BLACK
6
CONTINUOUS
10
5.07663
20
-5.14115
11
5.07869
21
-5.14094
0
LINE
8
BLACK
6
CONTINUOUS
10
5.07869
20
-5.14094
11
5.09985
21
-5.14094
0
LINE
8
BLACK
6
CONTINUOUS
10
5.09985
20
-5.14094
11
5.10192
21
-5.14115
0
LINE
8
BLACK
6
CONTINUOUS
10
5.0281
20
-5.14115
11
5.03008
21
-5.14175
0
LINE
8
BLACK
6
CONTINUOUS
10
5.03008
20
-5.14175
11
5.03191
21
-5.14273
0
LINE
8
BLACK
6
CONTINUOUS
10
5.03191
20
-5.14273
11
5.03352
21
-5.14404
0
LINE
8
BLACK
6
CONTINUOUS
10
5.03352
20
-5.14404
11
5.03483
21
-5.14565
0
LINE
8
BLACK
6
CONTINUOUS
10
5.03483
20
-5.14565
11
5.03581
21
-5.14748
0
LINE
8
BLACK
6
CONTINUOUS
10
5.03581
20
-5.14748
11
5.03641
21
-5.14946
0
LINE
8
BLACK
6
CONTINUOUS
10
5.03641
20
-5.14946
11
5.03661
21
-5.15153
0
LINE
8
BLACK
6
CONTINUOUS
10
5.03661
20
-5.15153
11
5.03661
21
-5.18942
0
LINE
8
BLACK
6
CONTINUOUS
10
5.03661
20
-5.18942
11
5.03641
21
-5.19148
0
LINE
8
BLACK
6
CONTINUOUS
10
5.03641
20
-5.19148
11
5.03581
21
-5.19347
0
LINE
8
BLACK
6
CONTINUOUS
10
5.03581
20
-5.19347
11
5.03483
21
-5.1953
0
LINE
8
BLACK
6
CONTINUOUS
10
5.03483
20
-5.1953
11
5.03352
21
-5.1969
0
LINE
8
BLACK
6
CONTINUOUS
10
5.03352
20
-5.1969
11
5.03191
21
-5.19822
0
LINE
8
BLACK
6
CONTINUOUS
10
5.03191
20
-5.19822
11
5.03008
21
-5.19919
0
LINE
8
BLACK
6
CONTINUOUS
10
5.03008
20
-5.19919
11
5.0281
21
-5.1998
0
LINE
8
BLACK
6
CONTINUOUS
10
5.0281
20
-5.1998
11
5.02603
21
-5.2
0
LINE
8
BLACK
6
CONTINUOUS
10
5.02603
20
-5.2
11
5.00487
21
-5.2
0
LINE
8
BLACK
6
CONTINUOUS
10
5.00487
20
-5.2
11
5.00281
21
-5.1998
0
LINE
8
BLACK
6
CONTINUOUS
10
5.00281
20
-5.1998
11
5.00082
21
-5.19919
0
LINE
8
BLACK
6
CONTINUOUS
10
5.00082
20
-5.19919
11
4.99899
21
-5.19822
0
LINE
8
BLACK
6
CONTINUOUS
10
4.99899
20
-5.19822
11
4.99739
21
-5.1969
0
LINE
8
BLACK
6
CONTINUOUS
10
4.99739
20
-5.1969
11
4.99607
21
-5.1953
0
LINE
8
BLACK
6
CONTINUOUS
10
4.99607
20
-5.1953
11
4.9951
21
-5.19347
0
LINE
8
BLACK
6
CONTINUOUS
10
4.9951
20
-5.19347
11
4.99449
21
-5.19148
0
LINE
8
BLACK
6
CONTINUOUS
10
4.99449
20
-5.19148
11
4.99429
21
-5.18942
0
LINE
8
BLACK
6
CONTINUOUS
10
4.99429
20
-5.18942
11
4.99429
21
-5.15153
0
LINE
8
BLACK
6
CONTINUOUS
10
4.99429
20
-5.15153
11
4.99449
21
-5.14946
0
LINE
8
BLACK
6
CONTINUOUS
10
4.99449
20
-5.14946
11
4.9951
21
-5.14748
0
LINE
8
BLACK
6
CONTINUOUS
10
4.9951
20
-5.14748
11
4.99607
21
-5.14565
0
LINE
8
BLACK
6
CONTINUOUS
10
4.99607
20
-5.14565
11
4.99739
21
-5.14404
0
LINE
8
BLACK
6
CONTINUOUS
10
4.99739
20
-5.14404
11
4.99899
21
-5.14273
0
LINE
8
BLACK
6
CONTINUOUS
10
4.99899
20
-5.14273
11
5.00082
21
-5.14175
0
LINE
8
BLACK
6
CONTINUOUS
10
5.00082
20
-5.14175
11
5.00281
21
-5.14115
0
LINE
8
BLACK
6
CONTINUOUS
10
5.00281
20
-5.14115
11
5.00487
21
-5.14094
0
LINE
8
BLACK
6
CONTINUOUS
10
5.00487
20
-5.14094
11
5.02603
21
-5.14094
0
LINE
8
BLACK
6
CONTINUOUS
10
5.02603
20
-5.14094
11
5.0281
21
-5.14115
0
LINE
8
BLACK
6
CONTINUOUS
10
4.90015
20
-5.1484
11
4.90182
21
-5.1489
0
LINE
8
BLACK
6
CONTINUOUS
10
4.90182
20
-5.1489
11
4.90335
21
-5.14972
0
LINE
8
BLACK
6
CONTINUOUS
10
4.90335
20
-5.14972
11
4.90469
21
-5.15082
0
LINE
8
BLACK
6
CONTINUOUS
10
4.90469
20
-5.15082
11
4.90579
21
-5.15217
0
LINE
8
BLACK
6
CONTINUOUS
10
4.90579
20
-5.15217
11
4.90661
21
-5.1537
0
LINE
8
BLACK
6
CONTINUOUS
10
4.90661
20
-5.1537
11
4.90711
21
-5.15536
0
LINE
8
BLACK
6
CONTINUOUS
10
4.90711
20
-5.15536
11
4.90728
21
-5.15709
0
LINE
8
BLACK
6
CONTINUOUS
10
4.90728
20
-5.15709
11
4.90728
21
-5.18071
0
LINE
8
BLACK
6
CONTINUOUS
10
4.90728
20
-5.18071
11
4.90711
21
-5.18244
0
LINE
8
BLACK
6
CONTINUOUS
10
4.90711
20
-5.18244
11
4.90661
21
-5.1841
0
LINE
8
BLACK
6
CONTINUOUS
10
4.90661
20
-5.1841
11
4.90579
21
-5.18563
0
LINE
8
BLACK
6
CONTINUOUS
10
4.90579
20
-5.18563
11
4.90469
21
-5.18697
0
LINE
8
BLACK
6
CONTINUOUS
10
4.90469
20
-5.18697
11
4.90335
21
-5.18807
0
LINE
8
BLACK
6
CONTINUOUS
10
4.90335
20
-5.18807
11
4.90182
21
-5.18889
0
LINE
8
BLACK
6
CONTINUOUS
10
4.90182
20
-5.18889
11
4.90015
21
-5.1894
0
LINE
8
BLACK
6
CONTINUOUS
10
4.90015
20
-5.1894
11
4.89843
21
-5.18957
0
LINE
8
BLACK
6
CONTINUOUS
10
4.89843
20
-5.18957
11
4.88071
21
-5.18957
0
LINE
8
BLACK
6
CONTINUOUS
10
4.88071
20
-5.18957
11
4.87898
21
-5.1894
0
LINE
8
BLACK
6
CONTINUOUS
10
4.87898
20
-5.1894
11
4.87732
21
-5.18889
0
LINE
8
BLACK
6
CONTINUOUS
10
4.87732
20
-5.18889
11
4.87579
21
-5.18807
0
LINE
8
BLACK
6
CONTINUOUS
10
4.87579
20
-5.18807
11
4.87444
21
-5.18697
0
LINE
8
BLACK
6
CONTINUOUS
10
4.87444
20
-5.18697
11
4.87334
21
-5.18563
0
LINE
8
BLACK
6
CONTINUOUS
10
4.87334
20
-5.18563
11
4.87252
21
-5.1841
0
LINE
8
BLACK
6
CONTINUOUS
10
4.87252
20
-5.1841
11
4.87202
21
-5.18244
0
LINE
8
BLACK
6
CONTINUOUS
10
4.87202
20
-5.18244
11
4.87185
21
-5.18071
0
LINE
8
BLACK
6
CONTINUOUS
10
4.87185
20
-5.18071
11
4.87185
21
-5.15709
0
LINE
8
BLACK
6
CONTINUOUS
10
4.87185
20
-5.15709
11
4.87202
21
-5.15536
0
LINE
8
BLACK
6
CONTINUOUS
10
4.87202
20
-5.15536
11
4.87252
21
-5.1537
0
LINE
8
BLACK
6
CONTINUOUS
10
4.87252
20
-5.1537
11
4.87334
21
-5.15217
0
LINE
8
BLACK
6
CONTINUOUS
10
4.87334
20
-5.15217
11
4.87444
21
-5.15082
0
LINE
8
BLACK
6
CONTINUOUS
10
4.87444
20
-5.15082
11
4.87579
21
-5.14972
0
LINE
8
BLACK
6
CONTINUOUS
10
4.87579
20
-5.14972
11
4.87732
21
-5.1489
0
LINE
8
BLACK
6
CONTINUOUS
10
4.87732
20
-5.1489
11
4.87898
21
-5.1484
0
LINE
8
BLACK
6
CONTINUOUS
10
4.87898
20
-5.1484
11
4.88071
21
-5.14823
0
LINE
8
BLACK
6
CONTINUOUS
10
4.88071
20
-5.14823
11
4.89843
21
-5.14823
0
LINE
8
BLACK
6
CONTINUOUS
10
4.89843
20
-5.14823
11
4.90015
21
-5.1484
0
LINE
8
BLACK
6
CONTINUOUS
10
4.96511
20
-5.1484
11
4.96678
21
-5.1489
0
LINE
8
BLACK
6
CONTINUOUS
10
4.96678
20
-5.1489
11
4.96831
21
-5.14972
0
LINE
8
BLACK
6
CONTINUOUS
10
4.96831
20
-5.14972
11
4.96965
21
-5.15082
0
LINE
8
BLACK
6
CONTINUOUS
10
4.96965
20
-5.15082
11
4.97075
21
-5.15217
0
LINE
8
BLACK
6
CONTINUOUS
10
4.97075
20
-5.15217
11
4.97157
21
-5.1537
0
LINE
8
BLACK
6
CONTINUOUS
10
4.97157
20
-5.1537
11
4.97207
21
-5.15536
0
LINE
8
BLACK
6
CONTINUOUS
10
4.97207
20
-5.15536
11
4.97224
21
-5.15709
0
LINE
8
BLACK
6
CONTINUOUS
10
4.97224
20
-5.15709
11
4.97224
21
-5.18071
0
LINE
8
BLACK
6
CONTINUOUS
10
4.97224
20
-5.18071
11
4.97207
21
-5.18244
0
LINE
8
BLACK
6
CONTINUOUS
10
4.97207
20
-5.18244
11
4.97157
21
-5.1841
0
LINE
8
BLACK
6
CONTINUOUS
10
4.97157
20
-5.1841
11
4.97075
21
-5.18563
0
LINE
8
BLACK
6
CONTINUOUS
10
4.97075
20
-5.18563
11
4.96965
21
-5.18697
0
LINE
8
BLACK
6
CONTINUOUS
10
4.96965
20
-5.18697
11
4.96831
21
-5.18807
0
LINE
8
BLACK
6
CONTINUOUS
10
4.96831
20
-5.18807
11
4.96678
21
-5.18889
0
LINE
8
BLACK
6
CONTINUOUS
10
4.96678
20
-5.18889
11
4.96511
21
-5.1894
0
LINE
8
BLACK
6
CONTINUOUS
10
4.96511
20
-5.1894
11
4.96339
21
-5.18957
0
LINE
8
BLACK
6
CONTINUOUS
10
4.96339
20
-5.18957
11
4.94567
21
-5.18957
0
LINE
8
BLACK
6
CONTINUOUS
10
4.94567
20
-5.18957
11
4.94394
21
-5.1894
0
LINE
8
BLACK
6
CONTINUOUS
10
4.94394
20
-5.1894
11
4.94228
21
-5.18889
0
LINE
8
BLACK
6
CONTINUOUS
10
4.94228
20
-5.18889
11
4.94075
21
-5.18807
0
LINE
8
BLACK
6
CONTINUOUS
10
4.94075
20
-5.18807
11
4.93941
21
-5.18697
0
LINE
8
BLACK
6
CONTINUOUS
10
4.93941
20
-5.18697
11
4.9383
21
-5.18563
0
LINE
8
BLACK
6
CONTINUOUS
10
4.9383
20
-5.18563
11
4.93749
21
-5.1841
0
LINE
8
BLACK
6
CONTINUOUS
10
4.93749
20
-5.1841
11
4.93698
21
-5.18244
0
LINE
8
BLACK
6
CONTINUOUS
10
4.93698
20
-5.18244
11
4.93681
21
-5.18071
0
LINE
8
BLACK
6
CONTINUOUS
10
4.93681
20
-5.18071
11
4.93681
21
-5.15709
0
LINE
8
BLACK
6
CONTINUOUS
10
4.93681
20
-5.15709
11
4.93698
21
-5.15536
0
LINE
8
BLACK
6
CONTINUOUS
10
4.93698
20
-5.15536
11
4.93749
21
-5.1537
0
LINE
8
BLACK
6
CONTINUOUS
10
4.93749
20
-5.1537
11
4.9383
21
-5.15217
0
LINE
8
BLACK
6
CONTINUOUS
10
4.9383
20
-5.15217
11
4.93941
21
-5.15082
0
LINE
8
BLACK
6
CONTINUOUS
10
4.93941
20
-5.15082
11
4.94075
21
-5.14972
0
LINE
8
BLACK
6
CONTINUOUS
10
4.94075
20
-5.14972
11
4.94228
21
-5.1489
0
LINE
8
BLACK
6
CONTINUOUS
10
4.94228
20
-5.1489
11
4.94394
21
-5.1484
0
LINE
8
BLACK
6
CONTINUOUS
10
4.94394
20
-5.1484
11
4.94567
21
-5.14823
0
LINE
8
BLACK
6
CONTINUOUS
10
4.94567
20
-5.14823
11
4.96339
21
-5.14823
0
LINE
8
BLACK
6
CONTINUOUS
10
4.96339
20
-5.14823
11
4.96511
21
-5.1484
0
LINE
8
BLACK
6
CONTINUOUS
10
5.32375
20
-5.10338
11
5.32949
21
-5.10575
0
LINE
8
BLACK
6
CONTINUOUS
10
5.32949
20
-5.10575
11
5.33464
21
-5.1092
0
LINE
8
BLACK
6
CONTINUOUS
10
5.33464
20
-5.1092
11
5.33903
21
-5.11358
0
LINE
8
BLACK
6
CONTINUOUS
10
5.33903
20
-5.11358
11
5.34248
21
-5.11874
0
LINE
8
BLACK
6
CONTINUOUS
10
5.34248
20
-5.11874
11
5.34485
21
-5.12447
0
LINE
8
BLACK
6
CONTINUOUS
10
5.34485
20
-5.12447
11
5.34606
21
-5.13056
0
LINE
8
BLACK
6
CONTINUOUS
10
5.34606
20
-5.13056
11
5.34606
21
-5.13676
0
LINE
8
BLACK
6
CONTINUOUS
10
5.34606
20
-5.13676
11
5.34485
21
-5.14285
0
LINE
8
BLACK
6
CONTINUOUS
10
5.34485
20
-5.14285
11
5.34248
21
-5.14858
0
LINE
8
BLACK
6
CONTINUOUS
10
5.34248
20
-5.14858
11
5.33903
21
-5.15374
0
LINE
8
BLACK
6
CONTINUOUS
10
5.33903
20
-5.15374
11
5.33464
21
-5.15813
0
LINE
8
BLACK
6
CONTINUOUS
10
5.33464
20
-5.15813
11
5.32949
21
-5.16157
0
LINE
8
BLACK
6
CONTINUOUS
10
5.32949
20
-5.16157
11
5.32375
21
-5.16395
0
LINE
8
BLACK
6
CONTINUOUS
10
5.32375
20
-5.16395
11
5.31767
21
-5.16516
0
LINE
8
BLACK
6
CONTINUOUS
10
5.31767
20
-5.16516
11
5.31146
21
-5.16516
0
LINE
8
BLACK
6
CONTINUOUS
10
5.31146
20
-5.16516
11
5.30538
21
-5.16395
0
LINE
8
BLACK
6
CONTINUOUS
10
5.30538
20
-5.16395
11
5.29965
21
-5.16157
0
LINE
8
BLACK
6
CONTINUOUS
10
5.29965
20
-5.16157
11
5.29449
21
-5.15813
0
LINE
8
BLACK
6
CONTINUOUS
10
5.29449
20
-5.15813
11
5.2901
21
-5.15374
0
LINE
8
BLACK
6
CONTINUOUS
10
5.2901
20
-5.15374
11
5.28666
21
-5.14858
0
LINE
8
BLACK
6
CONTINUOUS
10
5.28666
20
-5.14858
11
5.28428
21
-5.14285
0
LINE
8
BLACK
6
CONTINUOUS
10
5.28428
20
-5.14285
11
5.28307
21
-5.13676
0
LINE
8
BLACK
6
CONTINUOUS
10
5.28307
20
-5.13676
11
5.28307
21
-5.13056
0
LINE
8
BLACK
6
CONTINUOUS
10
5.28307
20
-5.13056
11
5.28428
21
-5.12447
0
LINE
8
BLACK
6
CONTINUOUS
10
5.28428
20
-5.12447
11
5.28666
21
-5.11874
0
LINE
8
BLACK
6
CONTINUOUS
10
5.28666
20
-5.11874
11
5.2901
21
-5.11358
0
LINE
8
BLACK
6
CONTINUOUS
10
5.2901
20
-5.11358
11
5.29449
21
-5.1092
0
LINE
8
BLACK
6
CONTINUOUS
10
5.29449
20
-5.1092
11
5.29965
21
-5.10575
0
LINE
8
BLACK
6
CONTINUOUS
10
5.29965
20
-5.10575
11
5.30538
21
-5.10338
0
LINE
8
BLACK
6
CONTINUOUS
10
5.30538
20
-5.10338
11
5.31146
21
-5.10217
0
LINE
8
BLACK
6
CONTINUOUS
10
5.31146
20
-5.10217
11
5.31767
21
-5.10217
0
LINE
8
BLACK
6
CONTINUOUS
10
5.31767
20
-5.10217
11
5.32375
21
-5.10338
0
LINE
8
BLACK
6
CONTINUOUS
10
5.65866
20
-5.15039
11
5.59961
21
-5.15039
0
LINE
8
BLACK
6
CONTINUOUS
10
5.59961
20
-5.15039
11
5.59961
21
-5.08346
0
LINE
8
BLACK
6
CONTINUOUS
10
5.59961
20
-5.08346
11
5.65866
21
-5.08346
0
LINE
8
BLACK
6
CONTINUOUS
10
5.65866
20
-5.08346
11
5.65866
21
-5.15039
0
LINE
8
BLACK
6
CONTINUOUS
10
5.77677
20
-5.15039
11
5.71772
21
-5.15039
0
LINE
8
BLACK
6
CONTINUOUS
10
5.71772
20
-5.15039
11
5.71772
21
-5.08346
0
LINE
8
BLACK
6
CONTINUOUS
10
5.71772
20
-5.08346
11
5.77677
21
-5.08346
0
LINE
8
BLACK
6
CONTINUOUS
10
5.77677
20
-5.08346
11
5.77677
21
-5.15039
0
LINE
8
BLACK
6
CONTINUOUS
10
6.20984
20
-5.15039
11
6.15079
21
-5.15039
0
LINE
8
BLACK
6
CONTINUOUS
10
6.15079
20
-5.15039
11
6.15079
21
-5.08346
0
LINE
8
BLACK
6
CONTINUOUS
10
6.15079
20
-5.08346
11
6.20984
21
-5.08346
0
LINE
8
BLACK
6
CONTINUOUS
10
6.20984
20
-5.08346
11
6.20984
21
-5.15039
0
LINE
8
BLACK
6
CONTINUOUS
10
6.32795
20
-5.15039
11
6.2689
21
-5.15039
0
LINE
8
BLACK
6
CONTINUOUS
10
6.2689
20
-5.15039
11
6.2689
21
-5.08346
0
LINE
8
BLACK
6
CONTINUOUS
10
6.2689
20
-5.08346
11
6.32795
21
-5.08346
0
LINE
8
BLACK
6
CONTINUOUS
10
6.32795
20
-5.08346
11
6.32795
21
-5.15039
0
LINE
8
BLACK
6
CONTINUOUS
10
6.85803
20
-5.1106
11
6.85969
21
-5.11111
0
LINE
8
BLACK
6
CONTINUOUS
10
6.85969
20
-5.11111
11
6.86122
21
-5.11193
0
LINE
8
BLACK
6
CONTINUOUS
10
6.86122
20
-5.11193
11
6.86256
21
-5.11303
0
LINE
8
BLACK
6
CONTINUOUS
10
6.86256
20
-5.11303
11
6.86366
21
-5.11437
0
LINE
8
BLACK
6
CONTINUOUS
10
6.86366
20
-5.11437
11
6.86448
21
-5.1159
0
LINE
8
BLACK
6
CONTINUOUS
10
6.86448
20
-5.1159
11
6.86499
21
-5.11756
0
LINE
8
BLACK
6
CONTINUOUS
10
6.86499
20
-5.11756
11
6.86516
21
-5.11929
0
LINE
8
BLACK
6
CONTINUOUS
10
6.86516
20
-5.11929
11
6.86516
21
-5.13701
0
LINE
8
BLACK
6
CONTINUOUS
10
6.86516
20
-5.13701
11
6.86499
21
-5.13874
0
LINE
8
BLACK
6
CONTINUOUS
10
6.86499
20
-5.13874
11
6.86448
21
-5.1404
0
LINE
8
BLACK
6
CONTINUOUS
10
6.86448
20
-5.1404
11
6.86366
21
-5.14193
0
LINE
8
BLACK
6
CONTINUOUS
10
6.86366
20
-5.14193
11
6.86256
21
-5.14327
0
LINE
8
BLACK
6
CONTINUOUS
10
6.86256
20
-5.14327
11
6.86122
21
-5.14437
0
LINE
8
BLACK
6
CONTINUOUS
10
6.86122
20
-5.14437
11
6.85969
21
-5.14519
0
LINE
8
BLACK
6
CONTINUOUS
10
6.85969
20
-5.14519
11
6.85803
21
-5.1457
0
LINE
8
BLACK
6
CONTINUOUS
10
6.85803
20
-5.1457
11
6.8563
21
-5.14587
0
LINE
8
BLACK
6
CONTINUOUS
10
6.8563
20
-5.14587
11
6.83268
21
-5.14587
0
LINE
8
BLACK
6
CONTINUOUS
10
6.83268
20
-5.14587
11
6.83095
21
-5.1457
0
LINE
8
BLACK
6
CONTINUOUS
10
6.83095
20
-5.1457
11
6.82929
21
-5.14519
0
LINE
8
BLACK
6
CONTINUOUS
10
6.82929
20
-5.14519
11
6.82776
21
-5.14437
0
LINE
8
BLACK
6
CONTINUOUS
10
6.82776
20
-5.14437
11
6.82641
21
-5.14327
0
LINE
8
BLACK
6
CONTINUOUS
10
6.82641
20
-5.14327
11
6.82531
21
-5.14193
0
LINE
8
BLACK
6
CONTINUOUS
10
6.82531
20
-5.14193
11
6.82449
21
-5.1404
0
LINE
8
BLACK
6
CONTINUOUS
10
6.82449
20
-5.1404
11
6.82399
21
-5.13874
0
LINE
8
BLACK
6
CONTINUOUS
10
6.82399
20
-5.13874
11
6.82382
21
-5.13701
0
LINE
8
BLACK
6
CONTINUOUS
10
6.82382
20
-5.13701
11
6.82382
21
-5.11929
0
LINE
8
BLACK
6
CONTINUOUS
10
6.82382
20
-5.11929
11
6.82399
21
-5.11756
0
LINE
8
BLACK
6
CONTINUOUS
10
6.82399
20
-5.11756
11
6.82449
21
-5.1159
0
LINE
8
BLACK
6
CONTINUOUS
10
6.82449
20
-5.1159
11
6.82531
21
-5.11437
0
LINE
8
BLACK
6
CONTINUOUS
10
6.82531
20
-5.11437
11
6.82641
21
-5.11303
0
LINE
8
BLACK
6
CONTINUOUS
10
6.82641
20
-5.11303
11
6.82776
21
-5.11193
0
LINE
8
BLACK
6
CONTINUOUS
10
6.82776
20
-5.11193
11
6.82929
21
-5.11111
0
LINE
8
BLACK
6
CONTINUOUS
10
6.82929
20
-5.11111
11
6.83095
21
-5.1106
0
LINE
8
BLACK
6
CONTINUOUS
10
6.83095
20
-5.1106
11
6.83268
21
-5.11043
0
LINE
8
BLACK
6
CONTINUOUS
10
6.83268
20
-5.11043
11
6.8563
21
-5.11043
0
LINE
8
BLACK
6
CONTINUOUS
10
6.8563
20
-5.11043
11
6.85803
21
-5.1106
0
LINE
8
BLACK
6
CONTINUOUS
10
5.24606
20
-5.11516
11
5.18307
21
-5.11516
0
LINE
8
BLACK
6
CONTINUOUS
10
5.18307
20
-5.11516
11
5.18307
21
-5.05217
0
LINE
8
BLACK
6
CONTINUOUS
10
5.18307
20
-5.05217
11
5.24606
21
-5.05217
0
LINE
8
BLACK
6
CONTINUOUS
10
5.24606
20
-5.05217
11
5.24606
21
-5.11516
0
LINE
8
BLACK
6
CONTINUOUS
10
4.98352
20
-4.9712
11
4.99534
21
-4.97609
0
LINE
8
BLACK
6
CONTINUOUS
10
4.99534
20
-4.97609
11
5.00598
21
-4.9832
0
LINE
8
BLACK
6
CONTINUOUS
10
5.00598
20
-4.9832
11
5.01503
21
-4.99225
0
LINE
8
BLACK
6
CONTINUOUS
10
5.01503
20
-4.99225
11
5.02213
21
-5.00289
0
LINE
8
BLACK
6
CONTINUOUS
10
5.02213
20
-5.00289
11
5.02703
21
-5.01471
0
LINE
8
BLACK
6
CONTINUOUS
10
5.02703
20
-5.01471
11
5.02953
21
-5.02726
0
LINE
8
BLACK
6
CONTINUOUS
10
5.02953
20
-5.02726
11
5.02953
21
-5.04006
0
LINE
8
BLACK
6
CONTINUOUS
10
5.02953
20
-5.04006
11
5.02703
21
-5.05261
0
LINE
8
BLACK
6
CONTINUOUS
10
5.02703
20
-5.05261
11
5.02213
21
-5.06443
0
LINE
8
BLACK
6
CONTINUOUS
10
5.02213
20
-5.06443
11
5.01503
21
-5.07507
0
LINE
8
BLACK
6
CONTINUOUS
10
5.01503
20
-5.07507
11
5.00598
21
-5.08412
0
LINE
8
BLACK
6
CONTINUOUS
10
5.00598
20
-5.08412
11
4.99534
21
-5.09123
0
LINE
8
BLACK
6
CONTINUOUS
10
4.99534
20
-5.09123
11
4.98352
21
-5.09613
0
LINE
8
BLACK
6
CONTINUOUS
10
4.98352
20
-5.09613
11
4.97096
21
-5.09862
0
LINE
8
BLACK
6
CONTINUOUS
10
4.97096
20
-5.09862
11
4.95817
21
-5.09862
0
LINE
8
BLACK
6
CONTINUOUS
10
4.95817
20
-5.09862
11
4.94562
21
-5.09613
0
LINE
8
BLACK
6
CONTINUOUS
10
4.94562
20
-5.09613
11
4.9338
21
-5.09123
0
LINE
8
BLACK
6
CONTINUOUS
10
4.9338
20
-5.09123
11
4.92316
21
-5.08412
0
LINE
8
BLACK
6
CONTINUOUS
10
4.92316
20
-5.08412
11
4.91411
21
-5.07507
0
LINE
8
BLACK
6
CONTINUOUS
10
4.91411
20
-5.07507
11
4.907
21
-5.06443
0
LINE
8
BLACK
6
CONTINUOUS
10
4.907
20
-5.06443
11
4.9021
21
-5.05261
0
LINE
8
BLACK
6
CONTINUOUS
10
4.9021
20
-5.05261
11
4.89961
21
-5.04006
0
LINE
8
BLACK
6
CONTINUOUS
10
4.89961
20
-5.04006
11
4.89961
21
-5.02726
0
LINE
8
BLACK
6
CONTINUOUS
10
4.89961
20
-5.02726
11
4.9021
21
-5.01471
0
LINE
8
BLACK
6
CONTINUOUS
10
4.9021
20
-5.01471
11
4.907
21
-5.00289
0
LINE
8
BLACK
6
CONTINUOUS
10
4.907
20
-5.00289
11
4.91411
21
-4.99225
0
LINE
8
BLACK
6
CONTINUOUS
10
4.91411
20
-4.99225
11
4.92316
21
-4.9832
0
LINE
8
BLACK
6
CONTINUOUS
10
4.92316
20
-4.9832
11
4.9338
21
-4.97609
0
LINE
8
BLACK
6
CONTINUOUS
10
4.9338
20
-4.97609
11
4.94562
21
-4.9712
0
LINE
8
BLACK
6
CONTINUOUS
10
4.94562
20
-4.9712
11
4.95817
21
-4.9687
0
LINE
8
BLACK
6
CONTINUOUS
10
4.95817
20
-4.9687
11
4.97096
21
-4.9687
0
LINE
8
BLACK
6
CONTINUOUS
10
4.97096
20
-4.9687
11
4.98352
21
-4.9712
0
LINE
8
BLACK
6
CONTINUOUS
10
6.8655
20
-5.04823
11
6.86748
21
-5.04884
0
LINE
8
BLACK
6
CONTINUOUS
10
6.86748
20
-5.04884
11
6.86931
21
-5.04981
0
LINE
8
BLACK
6
CONTINUOUS
10
6.86931
20
-5.04981
11
6.87092
21
-5.05113
0
LINE
8
BLACK
6
CONTINUOUS
10
6.87092
20
-5.05113
11
6.87223
21
-5.05273
0
LINE
8
BLACK
6
CONTINUOUS
10
6.87223
20
-5.05273
11
6.87321
21
-5.05456
0
LINE
8
BLACK
6
CONTINUOUS
10
6.87321
20
-5.05456
11
6.87381
21
-5.05655
0
LINE
8
BLACK
6
CONTINUOUS
10
6.87381
20
-5.05655
11
6.87402
21
-5.05861
0
LINE
8
BLACK
6
CONTINUOUS
10
6.87402
20
-5.05861
11
6.87402
21
-5.07977
0
LINE
8
BLACK
6
CONTINUOUS
10
6.87402
20
-5.07977
11
6.87381
21
-5.08184
0
LINE
8
BLACK
6
CONTINUOUS
10
6.87381
20
-5.08184
11
6.87321
21
-5.08382
0
LINE
8
BLACK
6
CONTINUOUS
10
6.87321
20
-5.08382
11
6.87223
21
-5.08565
0
LINE
8
BLACK
6
CONTINUOUS
10
6.87223
20
-5.08565
11
6.87092
21
-5.08726
0
LINE
8
BLACK
6
CONTINUOUS
10
6.87092
20
-5.08726
11
6.86931
21
-5.08857
0
LINE
8
BLACK
6
CONTINUOUS
10
6.86931
20
-5.08857
11
6.86748
21
-5.08955
0
LINE
8
BLACK
6
CONTINUOUS
10
6.86748
20
-5.08955
11
6.8655
21
-5.09015
0
LINE
8
BLACK
6
CONTINUOUS
10
6.8655
20
-5.09015
11
6.86344
21
-5.09035
0
LINE
8
BLACK
6
CONTINUOUS
10
6.86344
20
-5.09035
11
6.82554
21
-5.09035
0
LINE
8
BLACK
6
CONTINUOUS
10
6.82554
20
-5.09035
11
6.82348
21
-5.09015
0
LINE
8
BLACK
6
CONTINUOUS
10
6.82348
20
-5.09015
11
6.82149
21
-5.08955
0
LINE
8
BLACK
6
CONTINUOUS
10
6.82149
20
-5.08955
11
6.81966
21
-5.08857
0
LINE
8
BLACK
6
CONTINUOUS
10
6.81966
20
-5.08857
11
6.81806
21
-5.08726
0
LINE
8
BLACK
6
CONTINUOUS
10
6.81806
20
-5.08726
11
6.81674
21
-5.08565
0
LINE
8
BLACK
6
CONTINUOUS
10
6.81674
20
-5.08565
11
6.81577
21
-5.08382
0
LINE
8
BLACK
6
CONTINUOUS
10
6.81577
20
-5.08382
11
6.81516
21
-5.08184
0
LINE
8
BLACK
6
CONTINUOUS
10
6.81516
20
-5.08184
11
6.81496
21
-5.07977
0
LINE
8
BLACK
6
CONTINUOUS
10
6.81496
20
-5.07977
11
6.81496
21
-5.05861
0
LINE
8
BLACK
6
CONTINUOUS
10
6.81496
20
-5.05861
11
6.81516
21
-5.05655
0
LINE
8
BLACK
6
CONTINUOUS
10
6.81516
20
-5.05655
11
6.81577
21
-5.05456
0
LINE
8
BLACK
6
CONTINUOUS
10
6.81577
20
-5.05456
11
6.81674
21
-5.05273
0
LINE
8
BLACK
6
CONTINUOUS
10
6.81674
20
-5.05273
11
6.81806
21
-5.05113
0
LINE
8
BLACK
6
CONTINUOUS
10
6.81806
20
-5.05113
11
6.81966
21
-5.04981
0
LINE
8
BLACK
6
CONTINUOUS
10
6.81966
20
-5.04981
11
6.82149
21
-5.04884
0
LINE
8
BLACK
6
CONTINUOUS
10
6.82149
20
-5.04884
11
6.82348
21
-5.04823
0
LINE
8
BLACK
6
CONTINUOUS
10
6.82348
20
-5.04823
11
6.82554
21
-5.04803
0
LINE
8
BLACK
6
CONTINUOUS
10
6.82554
20
-5.04803
11
6.86344
21
-5.04803
0
LINE
8
BLACK
6
CONTINUOUS
10
6.86344
20
-5.04803
11
6.8655
21
-5.04823
0
LINE
8
BLACK
6
CONTINUOUS
10
6.77692
20
-5.03974
11
6.77859
21
-5.04024
0
LINE
8
BLACK
6
CONTINUOUS
10
6.77859
20
-5.04024
11
6.78012
21
-5.04106
0
LINE
8
BLACK
6
CONTINUOUS
10
6.78012
20
-5.04106
11
6.78146
21
-5.04216
0
LINE
8
BLACK
6
CONTINUOUS
10
6.78146
20
-5.04216
11
6.78256
21
-5.0435
0
LINE
8
BLACK
6
CONTINUOUS
10
6.78256
20
-5.0435
11
6.78338
21
-5.04504
0
LINE
8
BLACK
6
CONTINUOUS
10
6.78338
20
-5.04504
11
6.78388
21
-5.0467
0
LINE
8
BLACK
6
CONTINUOUS
10
6.78388
20
-5.0467
11
6.78406
21
-5.04843
0
LINE
8
BLACK
6
CONTINUOUS
10
6.78406
20
-5.04843
11
6.78406
21
-5.06614
0
LINE
8
BLACK
6
CONTINUOUS
10
6.78406
20
-5.06614
11
6.78388
21
-5.06787
0
LINE
8
BLACK
6
CONTINUOUS
10
6.78388
20
-5.06787
11
6.78338
21
-5.06953
0
LINE
8
BLACK
6
CONTINUOUS
10
6.78338
20
-5.06953
11
6.78256
21
-5.07106
0
LINE
8
BLACK
6
CONTINUOUS
10
6.78256
20
-5.07106
11
6.78146
21
-5.07241
0
LINE
8
BLACK
6
CONTINUOUS
10
6.78146
20
-5.07241
11
6.78012
21
-5.07351
0
LINE
8
BLACK
6
CONTINUOUS
10
6.78012
20
-5.07351
11
6.77859
21
-5.07433
0
LINE
8
BLACK
6
CONTINUOUS
10
6.77859
20
-5.07433
11
6.77692
21
-5.07483
0
LINE
8
BLACK
6
CONTINUOUS
10
6.77692
20
-5.07483
11
6.7752
21
-5.075
0
LINE
8
BLACK
6
CONTINUOUS
10
6.7752
20
-5.075
11
6.75157
21
-5.075
0
LINE
8
BLACK
6
CONTINUOUS
10
6.75157
20
-5.075
11
6.74985
21
-5.07483
0
LINE
8
BLACK
6
CONTINUOUS
10
6.74985
20
-5.07483
11
6.74818
21
-5.07433
0
LINE
8
BLACK
6
CONTINUOUS
10
6.74818
20
-5.07433
11
6.74665
21
-5.07351
0
LINE
8
BLACK
6
CONTINUOUS
10
6.74665
20
-5.07351
11
6.74531
21
-5.07241
0
LINE
8
BLACK
6
CONTINUOUS
10
6.74531
20
-5.07241
11
6.74421
21
-5.07106
0
LINE
8
BLACK
6
CONTINUOUS
10
6.74421
20
-5.07106
11
6.74339
21
-5.06953
0
LINE
8
BLACK
6
CONTINUOUS
10
6.74339
20
-5.06953
11
6.74289
21
-5.06787
0
LINE
8
BLACK
6
CONTINUOUS
10
6.74289
20
-5.06787
11
6.74272
21
-5.06614
0
LINE
8
BLACK
6
CONTINUOUS
10
6.74272
20
-5.06614
11
6.74272
21
-5.04843
0
LINE
8
BLACK
6
CONTINUOUS
10
6.74272
20
-5.04843
11
6.74289
21
-5.0467
0
LINE
8
BLACK
6
CONTINUOUS
10
6.74289
20
-5.0467
11
6.74339
21
-5.04504
0
LINE
8
BLACK
6
CONTINUOUS
10
6.74339
20
-5.04504
11
6.74421
21
-5.0435
0
LINE
8
BLACK
6
CONTINUOUS
10
6.74421
20
-5.0435
11
6.74531
21
-5.04216
0
LINE
8
BLACK
6
CONTINUOUS
10
6.74531
20
-5.04216
11
6.74665
21
-5.04106
0
LINE
8
BLACK
6
CONTINUOUS
10
6.74665
20
-5.04106
11
6.74818
21
-5.04024
0
LINE
8
BLACK
6
CONTINUOUS
10
6.74818
20
-5.04024
11
6.74985
21
-5.03974
0
LINE
8
BLACK
6
CONTINUOUS
10
6.74985
20
-5.03974
11
6.75157
21
-5.03957
0
LINE
8
BLACK
6
CONTINUOUS
10
6.75157
20
-5.03957
11
6.7752
21
-5.03957
0
LINE
8
BLACK
6
CONTINUOUS
10
6.7752
20
-5.03957
11
6.77692
21
-5.03974
0
LINE
8
BLACK
6
CONTINUOUS
10
6.71905
20
-5.03954
11
6.72071
21
-5.04004
0
LINE
8
BLACK
6
CONTINUOUS
10
6.72071
20
-5.04004
11
6.72224
21
-5.04086
0
LINE
8
BLACK
6
CONTINUOUS
10
6.72224
20
-5.04086
11
6.72359
21
-5.04196
0
LINE
8
BLACK
6
CONTINUOUS
10
6.72359
20
-5.04196
11
6.72469
21
-5.04331
0
LINE
8
BLACK
6
CONTINUOUS
10
6.72469
20
-5.04331
11
6.72551
21
-5.04484
0
LINE
8
BLACK
6
CONTINUOUS
10
6.72551
20
-5.04484
11
6.72601
21
-5.0465
0
LINE
8
BLACK
6
CONTINUOUS
10
6.72601
20
-5.0465
11
6.72618
21
-5.04823
0
LINE
8
BLACK
6
CONTINUOUS
10
6.72618
20
-5.04823
11
6.72618
21
-5.06594
0
LINE
8
BLACK
6
CONTINUOUS
10
6.72618
20
-5.06594
11
6.72601
21
-5.06767
0
LINE
8
BLACK
6
CONTINUOUS
10
6.72601
20
-5.06767
11
6.72551
21
-5.06933
0
LINE
8
BLACK
6
CONTINUOUS
10
6.72551
20
-5.06933
11
6.72469
21
-5.07087
0
LINE
8
BLACK
6
CONTINUOUS
10
6.72469
20
-5.07087
11
6.72359
21
-5.07221
0
LINE
8
BLACK
6
CONTINUOUS
10
6.72359
20
-5.07221
11
6.72224
21
-5.07331
0
LINE
8
BLACK
6
CONTINUOUS
10
6.72224
20
-5.07331
11
6.72071
21
-5.07413
0
LINE
8
BLACK
6
CONTINUOUS
10
6.72071
20
-5.07413
11
6.71905
21
-5.07463
0
LINE
8
BLACK
6
CONTINUOUS
10
6.71905
20
-5.07463
11
6.71732
21
-5.0748
0
LINE
8
BLACK
6
CONTINUOUS
10
6.71732
20
-5.0748
11
6.6937
21
-5.0748
0
LINE
8
BLACK
6
CONTINUOUS
10
6.6937
20
-5.0748
11
6.69197
21
-5.07463
0
LINE
8
BLACK
6
CONTINUOUS
10
6.69197
20
-5.07463
11
6.69031
21
-5.07413
0
LINE
8
BLACK
6
CONTINUOUS
10
6.69031
20
-5.07413
11
6.68878
21
-5.07331
0
LINE
8
BLACK
6
CONTINUOUS
10
6.68878
20
-5.07331
11
6.68744
21
-5.07221
0
LINE
8
BLACK
6
CONTINUOUS
10
6.68744
20
-5.07221
11
6.68634
21
-5.07087
0
LINE
8
BLACK
6
CONTINUOUS
10
6.68634
20
-5.07087
11
6.68552
21
-5.06933
0
LINE
8
BLACK
6
CONTINUOUS
10
6.68552
20
-5.06933
11
6.68501
21
-5.06767
0
LINE
8
BLACK
6
CONTINUOUS
10
6.68501
20
-5.06767
11
6.68484
21
-5.06594
0
LINE
8
BLACK
6
CONTINUOUS
10
6.68484
20
-5.06594
11
6.68484
21
-5.04823
0
LINE
8
BLACK
6
CONTINUOUS
10
6.68484
20
-5.04823
11
6.68501
21
-5.0465
0
LINE
8
BLACK
6
CONTINUOUS
10
6.68501
20
-5.0465
11
6.68552
21
-5.04484
0
LINE
8
BLACK
6
CONTINUOUS
10
6.68552
20
-5.04484
11
6.68634
21
-5.04331
0
LINE
8
BLACK
6
CONTINUOUS
10
6.68634
20
-5.04331
11
6.68744
21
-5.04196
0
LINE
8
BLACK
6
CONTINUOUS
10
6.68744
20
-5.04196
11
6.68878
21
-5.04086
0
LINE
8
BLACK
6
CONTINUOUS
10
6.68878
20
-5.04086
11
6.69031
21
-5.04004
0
LINE
8
BLACK
6
CONTINUOUS
10
6.69031
20
-5.04004
11
6.69197
21
-5.03954
0
LINE
8
BLACK
6
CONTINUOUS
10
6.69197
20
-5.03954
11
6.6937
21
-5.03937
0
LINE
8
BLACK
6
CONTINUOUS
10
6.6937
20
-5.03937
11
6.71732
21
-5.03937
0
LINE
8
BLACK
6
CONTINUOUS
10
6.71732
20
-5.03937
11
6.71905
21
-5.03954
0
LINE
8
BLACK
6
CONTINUOUS
10
6.8655
20
-4.97442
11
6.86748
21
-4.97502
0
LINE
8
BLACK
6
CONTINUOUS
10
6.86748
20
-4.97502
11
6.86931
21
-4.976
0
LINE
8
BLACK
6
CONTINUOUS
10
6.86931
20
-4.976
11
6.87092
21
-4.97731
0
LINE
8
BLACK
6
CONTINUOUS
10
6.87092
20
-4.97731
11
6.87223
21
-4.97891
0
LINE
8
BLACK
6
CONTINUOUS
10
6.87223
20
-4.97891
11
6.87321
21
-4.98074
0
LINE
8
BLACK
6
CONTINUOUS
10
6.87321
20
-4.98074
11
6.87381
21
-4.98273
0
LINE
8
BLACK
6
CONTINUOUS
10
6.87381
20
-4.98273
11
6.87402
21
-4.98479
0
LINE
8
BLACK
6
CONTINUOUS
10
6.87402
20
-4.98479
11
6.87402
21
-5.00595
0
LINE
8
BLACK
6
CONTINUOUS
10
6.87402
20
-5.00595
11
6.87381
21
-5.00802
0
LINE
8
BLACK
6
CONTINUOUS
10
6.87381
20
-5.00802
11
6.87321
21
-5.01
0
LINE
8
BLACK
6
CONTINUOUS
10
6.87321
20
-5.01
11
6.87223
21
-5.01183
0
LINE
8
BLACK
6
CONTINUOUS
10
6.87223
20
-5.01183
11
6.87092
21
-5.01344
0
LINE
8
BLACK
6
CONTINUOUS
10
6.87092
20
-5.01344
11
6.86931
21
-5.01475
0
LINE
8
BLACK
6
CONTINUOUS
10
6.86931
20
-5.01475
11
6.86748
21
-5.01573
0
LINE
8
BLACK
6
CONTINUOUS
10
6.86748
20
-5.01573
11
6.8655
21
-5.01633
0
LINE
8
BLACK
6
CONTINUOUS
10
6.8655
20
-5.01633
11
6.86344
21
-5.01654
0
LINE
8
BLACK
6
CONTINUOUS
10
6.86344
20
-5.01654
11
6.82554
21
-5.01654
0
LINE
8
BLACK
6
CONTINUOUS
10
6.82554
20
-5.01654
11
6.82348
21
-5.01633
0
LINE
8
BLACK
6
CONTINUOUS
10
6.82348
20
-5.01633
11
6.82149
21
-5.01573
0
LINE
8
BLACK
6
CONTINUOUS
10
6.82149
20
-5.01573
11
6.81966
21
-5.01475
0
LINE
8
BLACK
6
CONTINUOUS
10
6.81966
20
-5.01475
11
6.81806
21
-5.01344
0
LINE
8
BLACK
6
CONTINUOUS
10
6.81806
20
-5.01344
11
6.81674
21
-5.01183
0
LINE
8
BLACK
6
CONTINUOUS
10
6.81674
20
-5.01183
11
6.81577
21
-5.01
0
LINE
8
BLACK
6
CONTINUOUS
10
6.81577
20
-5.01
11
6.81516
21
-5.00802
0
LINE
8
BLACK
6
CONTINUOUS
10
6.81516
20
-5.00802
11
6.81496
21
-5.00595
0
LINE
8
BLACK
6
CONTINUOUS
10
6.81496
20
-5.00595
11
6.81496
21
-4.98479
0
LINE
8
BLACK
6
CONTINUOUS
10
6.81496
20
-4.98479
11
6.81516
21
-4.98273
0
LINE
8
BLACK
6
CONTINUOUS
10
6.81516
20
-4.98273
11
6.81577
21
-4.98074
0
LINE
8
BLACK
6
CONTINUOUS
10
6.81577
20
-4.98074
11
6.81674
21
-4.97891
0
LINE
8
BLACK
6
CONTINUOUS
10
6.81674
20
-4.97891
11
6.81806
21
-4.97731
0
LINE
8
BLACK
6
CONTINUOUS
10
6.81806
20
-4.97731
11
6.81966
21
-4.976
0
LINE
8
BLACK
6
CONTINUOUS
10
6.81966
20
-4.976
11
6.82149
21
-4.97502
0
LINE
8
BLACK
6
CONTINUOUS
10
6.82149
20
-4.97502
11
6.82348
21
-4.97442
0
LINE
8
BLACK
6
CONTINUOUS
10
6.82348
20
-4.97442
11
6.82554
21
-4.97421
0
LINE
8
BLACK
6
CONTINUOUS
10
6.82554
20
-4.97421
11
6.86344
21
-4.97421
0
LINE
8
BLACK
6
CONTINUOUS
10
6.86344
20
-4.97421
11
6.8655
21
-4.97442
0
LINE
8
BLACK
6
CONTINUOUS
10
6.77692
20
-4.97478
11
6.77859
21
-4.97528
0
LINE
8
BLACK
6
CONTINUOUS
10
6.77859
20
-4.97528
11
6.78012
21
-4.9761
0
LINE
8
BLACK
6
CONTINUOUS
10
6.78012
20
-4.9761
11
6.78146
21
-4.9772
0
LINE
8
BLACK
6
CONTINUOUS
10
6.78146
20
-4.9772
11
6.78256
21
-4.97854
0
LINE
8
BLACK
6
CONTINUOUS
10
6.78256
20
-4.97854
11
6.78338
21
-4.98007
0
LINE
8
BLACK
6
CONTINUOUS
10
6.78338
20
-4.98007
11
6.78388
21
-4.98174
0
LINE
8
BLACK
6
CONTINUOUS
10
6.78388
20
-4.98174
11
6.78406
21
-4.98346
0
LINE
8
BLACK
6
CONTINUOUS
10
6.78406
20
-4.98346
11
6.78406
21
-5.00118
0
LINE
8
BLACK
6
CONTINUOUS
10
6.78406
20
-5.00118
11
6.78388
21
-5.00291
0
LINE
8
BLACK
6
CONTINUOUS
10
6.78388
20
-5.00291
11
6.78338
21
-5.00457
0
LINE
8
BLACK
6
CONTINUOUS
10
6.78338
20
-5.00457
11
6.78256
21
-5.0061
0
LINE
8
BLACK
6
CONTINUOUS
10
6.78256
20
-5.0061
11
6.78146
21
-5.00744
0
LINE
8
BLACK
6
CONTINUOUS
10
6.78146
20
-5.00744
11
6.78012
21
-5.00855
0
LINE
8
BLACK
6
CONTINUOUS
10
6.78012
20
-5.00855
11
6.77859
21
-5.00937
0
LINE
8
BLACK
6
CONTINUOUS
10
6.77859
20
-5.00937
11
6.77692
21
-5.00987
0
LINE
8
BLACK
6
CONTINUOUS
10
6.77692
20
-5.00987
11
6.7752
21
-5.01004
0
LINE
8
BLACK
6
CONTINUOUS
10
6.7752
20
-5.01004
11
6.75157
21
-5.01004
0
LINE
8
BLACK
6
CONTINUOUS
10
6.75157
20
-5.01004
11
6.74985
21
-5.00987
0
LINE
8
BLACK
6
CONTINUOUS
10
6.74985
20
-5.00987
11
6.74818
21
-5.00937
0
LINE
8
BLACK
6
CONTINUOUS
10
6.74818
20
-5.00937
11
6.74665
21
-5.00855
0
LINE
8
BLACK
6
CONTINUOUS
10
6.74665
20
-5.00855
11
6.74531
21
-5.00744
0
LINE
8
BLACK
6
CONTINUOUS
10
6.74531
20
-5.00744
11
6.74421
21
-5.0061
0
LINE
8
BLACK
6
CONTINUOUS
10
6.74421
20
-5.0061
11
6.74339
21
-5.00457
0
LINE
8
BLACK
6
CONTINUOUS
10
6.74339
20
-5.00457
11
6.74289
21
-5.00291
0
LINE
8
BLACK
6
CONTINUOUS
10
6.74289
20
-5.00291
11
6.74272
21
-5.00118
0
LINE
8
BLACK
6
CONTINUOUS
10
6.74272
20
-5.00118
11
6.74272
21
-4.98346
0
LINE
8
BLACK
6
CONTINUOUS
10
6.74272
20
-4.98346
11
6.74289
21
-4.98174
0
LINE
8
BLACK
6
CONTINUOUS
10
6.74289
20
-4.98174
11
6.74339
21
-4.98007
0
LINE
8
BLACK
6
CONTINUOUS
10
6.74339
20
-4.98007
11
6.74421
21
-4.97854
0
LINE
8
BLACK
6
CONTINUOUS
10
6.74421
20
-4.97854
11
6.74531
21
-4.9772
0
LINE
8
BLACK
6
CONTINUOUS
10
6.74531
20
-4.9772
11
6.74665
21
-4.9761
0
LINE
8
BLACK
6
CONTINUOUS
10
6.74665
20
-4.9761
11
6.74818
21
-4.97528
0
LINE
8
BLACK
6
CONTINUOUS
10
6.74818
20
-4.97528
11
6.74985
21
-4.97478
0
LINE
8
BLACK
6
CONTINUOUS
10
6.74985
20
-4.97478
11
6.75157
21
-4.97461
0
LINE
8
BLACK
6
CONTINUOUS
10
6.75157
20
-4.97461
11
6.7752
21
-4.97461
0
LINE
8
BLACK
6
CONTINUOUS
10
6.7752
20
-4.97461
11
6.77692
21
-4.97478
0
LINE
8
BLACK
6
CONTINUOUS
10
6.71905
20
-4.97458
11
6.72071
21
-4.97508
0
LINE
8
BLACK
6
CONTINUOUS
10
6.72071
20
-4.97508
11
6.72224
21
-4.9759
0
LINE
8
BLACK
6
CONTINUOUS
10
6.72224
20
-4.9759
11
6.72359
21
-4.977
0
LINE
8
BLACK
6
CONTINUOUS
10
6.72359
20
-4.977
11
6.72469
21
-4.97835
0
LINE
8
BLACK
6
CONTINUOUS
10
6.72469
20
-4.97835
11
6.72551
21
-4.97988
0
LINE
8
BLACK
6
CONTINUOUS
10
6.72551
20
-4.97988
11
6.72601
21
-4.98154
0
LINE
8
BLACK
6
CONTINUOUS
10
6.72601
20
-4.98154
11
6.72618
21
-4.98327
0
LINE
8
BLACK
6
CONTINUOUS
10
6.72618
20
-4.98327
11
6.72618
21
-5.00098
0
LINE
8
BLACK
6
CONTINUOUS
10
6.72618
20
-5.00098
11
6.72601
21
-5.00271
0
LINE
8
BLACK
6
CONTINUOUS
10
6.72601
20
-5.00271
11
6.72551
21
-5.00437
0
LINE
8
BLACK
6
CONTINUOUS
10
6.72551
20
-5.00437
11
6.72469
21
-5.00591
0
LINE
8
BLACK
6
CONTINUOUS
10
6.72469
20
-5.00591
11
6.72359
21
-5.00725
0
LINE
8
BLACK
6
CONTINUOUS
10
6.72359
20
-5.00725
11
6.72224
21
-5.00835
0
LINE
8
BLACK
6
CONTINUOUS
10
6.72224
20
-5.00835
11
6.72071
21
-5.00917
0
LINE
8
BLACK
6
CONTINUOUS
10
6.72071
20
-5.00917
11
6.71905
21
-5.00967
0
LINE
8
BLACK
6
CONTINUOUS
10
6.71905
20
-5.00967
11
6.71732
21
-5.00984
0
LINE
8
BLACK
6
CONTINUOUS
10
6.71732
20
-5.00984
11
6.6937
21
-5.00984
0
LINE
8
BLACK
6
CONTINUOUS
10
6.6937
20
-5.00984
11
6.69197
21
-5.00967
0
LINE
8
BLACK
6
CONTINUOUS
10
6.69197
20
-5.00967
11
6.69031
21
-5.00917
0
LINE
8
BLACK
6
CONTINUOUS
10
6.69031
20
-5.00917
11
6.68878
21
-5.00835
0
LINE
8
BLACK
6
CONTINUOUS
10
6.68878
20
-5.00835
11
6.68744
21
-5.00725
0
LINE
8
BLACK
6
CONTINUOUS
10
6.68744
20
-5.00725
11
6.68634
21
-5.00591
0
LINE
8
BLACK
6
CONTINUOUS
10
6.68634
20
-5.00591
11
6.68552
21
-5.00437
0
LINE
8
BLACK
6
CONTINUOUS
10
6.68552
20
-5.00437
11
6.68501
21
-5.00271
0
LINE
8
BLACK
6
CONTINUOUS
10
6.68501
20
-5.00271
11
6.68484
21
-5.00098
0
LINE
8
BLACK
6
CONTINUOUS
10
6.68484
20
-5.00098
11
6.68484
21
-4.98327
0
LINE
8
BLACK
6
CONTINUOUS
10
6.68484
20
-4.98327
11
6.68501
21
-4.98154
0
LINE
8
BLACK
6
CONTINUOUS
10
6.68501
20
-4.98154
11
6.68552
21
-4.97988
0
LINE
8
BLACK
6
CONTINUOUS
10
6.68552
20
-4.97988
11
6.68634
21
-4.97835
0
LINE
8
BLACK
6
CONTINUOUS
10
6.68634
20
-4.97835
11
6.68744
21
-4.977
0
LINE
8
BLACK
6
CONTINUOUS
10
6.68744
20
-4.977
11
6.68878
21
-4.9759
0
LINE
8
BLACK
6
CONTINUOUS
10
6.68878
20
-4.9759
11
6.69031
21
-4.97508
0
LINE
8
BLACK
6
CONTINUOUS
10
6.69031
20
-4.97508
11
6.69197
21
-4.97458
0
LINE
8
BLACK
6
CONTINUOUS
10
6.69197
20
-4.97458
11
6.6937
21
-4.97441
0
LINE
8
BLACK
6
CONTINUOUS
10
6.6937
20
-4.97441
11
6.71732
21
-4.97441
0
LINE
8
BLACK
6
CONTINUOUS
10
6.71732
20
-4.97441
11
6.71905
21
-4.97458
0
LINE
8
BLACK
6
CONTINUOUS
10
6.66257
20
-4.96651
11
6.66526
21
-4.96763
0
LINE
8
BLACK
6
CONTINUOUS
10
6.66526
20
-4.96763
11
6.66768
21
-4.96924
0
LINE
8
BLACK
6
CONTINUOUS
10
6.66768
20
-4.96924
11
6.66974
21
-4.9713
0
LINE
8
BLACK
6
CONTINUOUS
10
6.66974
20
-4.9713
11
6.67135
21
-4.97372
0
LINE
8
BLACK
6
CONTINUOUS
10
6.67135
20
-4.97372
11
6.67246
21
-4.9764
0
LINE
8
BLACK
6
CONTINUOUS
10
6.67246
20
-4.9764
11
6.67303
21
-4.97925
0
LINE
8
BLACK
6
CONTINUOUS
10
6.67303
20
-4.97925
11
6.67303
21
-4.98216
0
LINE
8
BLACK
6
CONTINUOUS
10
6.67303
20
-4.98216
11
6.67246
21
-4.98502
0
LINE
8
BLACK
6
CONTINUOUS
10
6.67246
20
-4.98502
11
6.67135
21
-4.9877
0
LINE
8
BLACK
6
CONTINUOUS
10
6.67135
20
-4.9877
11
6.66974
21
-4.99012
0
LINE
8
BLACK
6
CONTINUOUS
10
6.66974
20
-4.99012
11
6.66768
21
-4.99218
0
LINE
8
BLACK
6
CONTINUOUS
10
6.66768
20
-4.99218
11
6.66526
21
-4.99379
0
LINE
8
BLACK
6
CONTINUOUS
10
6.66526
20
-4.99379
11
6.66257
21
-4.99491
0
LINE
8
BLACK
6
CONTINUOUS
10
6.66257
20
-4.99491
11
6.65972
21
-4.99547
0
LINE
8
BLACK
6
CONTINUOUS
10
6.65972
20
-4.99547
11
6.65681
21
-4.99547
0
LINE
8
BLACK
6
CONTINUOUS
10
6.65681
20
-4.99547
11
6.65396
21
-4.99491
0
LINE
8
BLACK
6
CONTINUOUS
10
6.65396
20
-4.99491
11
6.65127
21
-4.99379
0
LINE
8
BLACK
6
CONTINUOUS
10
6.65127
20
-4.99379
11
6.64886
21
-4.99218
0
LINE
8
BLACK
6
CONTINUOUS
10
6.64886
20
-4.99218
11
6.6468
21
-4.99012
0
LINE
8
BLACK
6
CONTINUOUS
10
6.6468
20
-4.99012
11
6.64518
21
-4.9877
0
LINE
8
BLACK
6
CONTINUOUS
10
6.64518
20
-4.9877
11
6.64407
21
-4.98502
0
LINE
8
BLACK
6
CONTINUOUS
10
6.64407
20
-4.98502
11
6.6435
21
-4.98216
0
LINE
8
BLACK
6
CONTINUOUS
10
6.6435
20
-4.98216
11
6.6435
21
-4.97925
0
LINE
8
BLACK
6
CONTINUOUS
10
6.6435
20
-4.97925
11
6.64407
21
-4.9764
0
LINE
8
BLACK
6
CONTINUOUS
10
6.64407
20
-4.9764
11
6.64518
21
-4.97372
0
LINE
8
BLACK
6
CONTINUOUS
10
6.64518
20
-4.97372
11
6.6468
21
-4.9713
0
LINE
8
BLACK
6
CONTINUOUS
10
6.6468
20
-4.9713
11
6.64886
21
-4.96924
0
LINE
8
BLACK
6
CONTINUOUS
10
6.64886
20
-4.96924
11
6.65127
21
-4.96763
0
LINE
8
BLACK
6
CONTINUOUS
10
6.65127
20
-4.96763
11
6.65396
21
-4.96651
0
LINE
8
BLACK
6
CONTINUOUS
10
6.65396
20
-4.96651
11
6.65681
21
-4.96594
0
LINE
8
BLACK
6
CONTINUOUS
10
6.65681
20
-4.96594
11
6.65972
21
-4.96594
0
LINE
8
BLACK
6
CONTINUOUS
10
6.65972
20
-4.96594
11
6.66257
21
-4.96651
0
LINE
8
BLACK
6
CONTINUOUS
10
6.66448
20
-4.90307
11
6.66856
21
-4.90431
0
LINE
8
BLACK
6
CONTINUOUS
10
6.66856
20
-4.90431
11
6.67232
21
-4.90632
0
LINE
8
BLACK
6
CONTINUOUS
10
6.67232
20
-4.90632
11
6.67562
21
-4.90902
0
LINE
8
BLACK
6
CONTINUOUS
10
6.67562
20
-4.90902
11
6.67833
21
-4.91232
0
LINE
8
BLACK
6
CONTINUOUS
10
6.67833
20
-4.91232
11
6.68034
21
-4.91608
0
LINE
8
BLACK
6
CONTINUOUS
10
6.68034
20
-4.91608
11
6.68158
21
-4.92016
0
LINE
8
BLACK
6
CONTINUOUS
10
6.68158
20
-4.92016
11
6.68199
21
-4.92441
0
LINE
8
BLACK
6
CONTINUOUS
10
6.68199
20
-4.92441
11
6.68158
21
-4.92865
0
LINE
8
BLACK
6
CONTINUOUS
10
6.68158
20
-4.92865
11
6.68034
21
-4.93274
0
LINE
8
BLACK
6
CONTINUOUS
10
6.68034
20
-4.93274
11
6.67833
21
-4.9365
0
LINE
8
BLACK
6
CONTINUOUS
10
6.67833
20
-4.9365
11
6.67562
21
-4.93979
0
LINE
8
BLACK
6
CONTINUOUS
10
6.67562
20
-4.93979
11
6.67232
21
-4.9425
0
LINE
8
BLACK
6
CONTINUOUS
10
6.67232
20
-4.9425
11
6.66856
21
-4.94451
0
LINE
8
BLACK
6
CONTINUOUS
10
6.66856
20
-4.94451
11
6.66448
21
-4.94575
0
LINE
8
BLACK
6
CONTINUOUS
10
6.66448
20
-4.94575
11
6.6613
21
-4.94606
0
LINE
8
BLACK
6
CONTINUOUS
10
6.6613
20
-4.94606
11
6.61587
21
-4.94606
0
LINE
8
BLACK
6
CONTINUOUS
10
6.61587
20
-4.94606
11
6.61268
21
-4.94575
0
LINE
8
BLACK
6
CONTINUOUS
10
6.61268
20
-4.94575
11
6.6086
21
-4.94451
0
LINE
8
BLACK
6
CONTINUOUS
10
6.6086
20
-4.94451
11
6.60484
21
-4.9425
0
LINE
8
BLACK
6
CONTINUOUS
10
6.60484
20
-4.9425
11
6.60154
21
-4.93979
0
LINE
8
BLACK
6
CONTINUOUS
10
6.60154
20
-4.93979
11
6.59884
21
-4.9365
0
LINE
8
BLACK
6
CONTINUOUS
10
6.59884
20
-4.9365
11
6.59683
21
-4.93274
0
LINE
8
BLACK
6
CONTINUOUS
10
6.59683
20
-4.93274
11
6.59559
21
-4.92865
0
LINE
8
BLACK
6
CONTINUOUS
10
6.59559
20
-4.92865
11
6.59517
21
-4.92441
0
LINE
8
BLACK
6
CONTINUOUS
10
6.59517
20
-4.92441
11
6.59559
21
-4.92016
0
LINE
8
BLACK
6
CONTINUOUS
10
6.59559
20
-4.92016
11
6.59683
21
-4.91608
0
LINE
8
BLACK
6
CONTINUOUS
10
6.59683
20
-4.91608
11
6.59884
21
-4.91232
0
LINE
8
BLACK
6
CONTINUOUS
10
6.59884
20
-4.91232
11
6.60154
21
-4.90902
0
LINE
8
BLACK
6
CONTINUOUS
10
6.60154
20
-4.90902
11
6.60484
21
-4.90632
0
LINE
8
BLACK
6
CONTINUOUS
10
6.60484
20
-4.90632
11
6.6086
21
-4.90431
0
LINE
8
BLACK
6
CONTINUOUS
10
6.6086
20
-4.90431
11
6.61268
21
-4.90307
0
LINE
8
BLACK
6
CONTINUOUS
10
6.61268
20
-4.90307
11
6.61587
21
-4.90276
0
LINE
8
BLACK
6
CONTINUOUS
10
6.61587
20
-4.90276
11
6.6613
21
-4.90276
0
LINE
8
BLACK
6
CONTINUOUS
10
6.6613
20
-4.90276
11
6.66448
21
-4.90307
0
LINE
8
BLACK
6
CONTINUOUS
10
6.82196
20
-4.90307
11
6.82604
21
-4.90431
0
LINE
8
BLACK
6
CONTINUOUS
10
6.82604
20
-4.90431
11
6.8298
21
-4.90632
0
LINE
8
BLACK
6
CONTINUOUS
10
6.8298
20
-4.90632
11
6.8331
21
-4.90902
0
LINE
8
BLACK
6
CONTINUOUS
10
6.8331
20
-4.90902
11
6.83581
21
-4.91232
0
LINE
8
BLACK
6
CONTINUOUS
10
6.83581
20
-4.91232
11
6.83782
21
-4.91608
0
LINE
8
BLACK
6
CONTINUOUS
10
6.83782
20
-4.91608
11
6.83906
21
-4.92016
0
LINE
8
BLACK
6
CONTINUOUS
10
6.83906
20
-4.92016
11
6.83947
21
-4.92441
0
LINE
8
BLACK
6
CONTINUOUS
10
6.83947
20
-4.92441
11
6.83906
21
-4.92865
0
LINE
8
BLACK
6
CONTINUOUS
10
6.83906
20
-4.92865
11
6.83782
21
-4.93274
0
LINE
8
BLACK
6
CONTINUOUS
10
6.83782
20
-4.93274
11
6.83581
21
-4.9365
0
LINE
8
BLACK
6
CONTINUOUS
10
6.83581
20
-4.9365
11
6.8331
21
-4.93979
0
LINE
8
BLACK
6
CONTINUOUS
10
6.8331
20
-4.93979
11
6.8298
21
-4.9425
0
LINE
8
BLACK
6
CONTINUOUS
10
6.8298
20
-4.9425
11
6.82604
21
-4.94451
0
LINE
8
BLACK
6
CONTINUOUS
10
6.82604
20
-4.94451
11
6.82196
21
-4.94575
0
LINE
8
BLACK
6
CONTINUOUS
10
6.82196
20
-4.94575
11
6.81878
21
-4.94606
0
LINE
8
BLACK
6
CONTINUOUS
10
6.81878
20
-4.94606
11
6.78516
21
-4.94606
0
LINE
8
BLACK
6
CONTINUOUS
10
6.78516
20
-4.94606
11
6.78198
21
-4.94575
0
LINE
8
BLACK
6
CONTINUOUS
10
6.78198
20
-4.94575
11
6.77789
21
-4.94451
0
LINE
8
BLACK
6
CONTINUOUS
10
6.77789
20
-4.94451
11
6.77413
21
-4.9425
0
LINE
8
BLACK
6
CONTINUOUS
10
6.77413
20
-4.9425
11
6.77084
21
-4.93979
0
LINE
8
BLACK
6
CONTINUOUS
10
6.77084
20
-4.93979
11
6.76813
21
-4.9365
0
LINE
8
BLACK
6
CONTINUOUS
10
6.76813
20
-4.9365
11
6.76612
21
-4.93274
0
LINE
8
BLACK
6
CONTINUOUS
10
6.76612
20
-4.93274
11
6.76488
21
-4.92865
0
LINE
8
BLACK
6
CONTINUOUS
10
6.76488
20
-4.92865
11
6.76446
21
-4.92441
0
LINE
8
BLACK
6
CONTINUOUS
10
6.76446
20
-4.92441
11
6.76488
21
-4.92016
0
LINE
8
BLACK
6
CONTINUOUS
10
6.76488
20
-4.92016
11
6.76612
21
-4.91608
0
LINE
8
BLACK
6
CONTINUOUS
10
6.76612
20
-4.91608
11
6.76813
21
-4.91232
0
LINE
8
BLACK
6
CONTINUOUS
10
6.76813
20
-4.91232
11
6.77084
21
-4.90902
0
LINE
8
BLACK
6
CONTINUOUS
10
6.77084
20
-4.90902
11
6.77413
21
-4.90632
0
LINE
8
BLACK
6
CONTINUOUS
10
6.77413
20
-4.90632
11
6.77789
21
-4.90431
0
LINE
8
BLACK
6
CONTINUOUS
10
6.77789
20
-4.90431
11
6.78198
21
-4.90307
0
LINE
8
BLACK
6
CONTINUOUS
10
6.78198
20
-4.90307
11
6.78516
21
-4.90276
0
LINE
8
BLACK
6
CONTINUOUS
10
6.78516
20
-4.90276
11
6.81878
21
-4.90276
0
LINE
8
BLACK
6
CONTINUOUS
10
6.81878
20
-4.90276
11
6.82196
21
-4.90307
0
LINE
8
BLACK
6
CONTINUOUS
10
6.87738
20
-4.87558
11
6.87773
21
-4.87565
0
LINE
8
BLACK
6
CONTINUOUS
10
6.87773
20
-4.87565
11
6.87808
21
-4.87572
0
LINE
8
BLACK
6
CONTINUOUS
10
6.87808
20
-4.87572
11
6.88543
21
-4.87794
0
LINE
8
BLACK
6
CONTINUOUS
10
6.88543
20
-4.87794
11
6.88543
21
-4.87794
0
LINE
8
BLACK
6
CONTINUOUS
10
6.88543
20
-4.87794
11
6.88548
21
-4.87796
0
LINE
8
BLACK
6
CONTINUOUS
10
6.88548
20
-4.87796
11
6.88581
21
-4.8781
0
LINE
8
BLACK
6
CONTINUOUS
10
6.88581
20
-4.8781
11
6.88614
21
-4.87823
0
LINE
8
BLACK
6
CONTINUOUS
10
6.88614
20
-4.87823
11
6.89293
21
-4.88184
0
LINE
8
BLACK
6
CONTINUOUS
10
6.89293
20
-4.88184
11
6.89293
21
-4.88184
0
LINE
8
BLACK
6
CONTINUOUS
10
6.89293
20
-4.88184
11
6.89293
21
-4.88184
0
LINE
8
BLACK
6
CONTINUOUS
10
6.89293
20
-4.88184
11
6.89298
21
-4.88187
0
LINE
8
BLACK
6
CONTINUOUS
10
6.89298
20
-4.88187
11
6.89327
21
-4.88207
0
LINE
8
BLACK
6
CONTINUOUS
10
6.89327
20
-4.88207
11
6.89357
21
-4.88227
0
LINE
8
BLACK
6
CONTINUOUS
10
6.89357
20
-4.88227
11
6.89952
21
-4.88712
0
LINE
8
BLACK
6
CONTINUOUS
10
6.89952
20
-4.88712
11
6.89952
21
-4.88712
0
LINE
8
BLACK
6
CONTINUOUS
10
6.89952
20
-4.88712
11
6.89952
21
-4.88712
0
LINE
8
BLACK
6
CONTINUOUS
10
6.89952
20
-4.88712
11
6.89956
21
-4.88716
0
LINE
8
BLACK
6
CONTINUOUS
10
6.89956
20
-4.88716
11
6.89981
21
-4.88741
0
LINE
8
BLACK
6
CONTINUOUS
10
6.89981
20
-4.88741
11
6.90007
21
-4.88766
0
LINE
8
BLACK
6
CONTINUOUS
10
6.90007
20
-4.88766
11
6.90496
21
-4.89359
0
LINE
8
BLACK
6
CONTINUOUS
10
6.90496
20
-4.89359
11
6.905
21
-4.89363
0
LINE
8
BLACK
6
CONTINUOUS
10
6.905
20
-4.89363
11
6.90519
21
-4.89393
0
LINE
8
BLACK
6
CONTINUOUS
10
6.90519
20
-4.89393
11
6.90539
21
-4.89422
0
LINE
8
BLACK
6
CONTINUOUS
10
6.90539
20
-4.89422
11
6.90905
21
-4.90098
0
LINE
8
BLACK
6
CONTINUOUS
10
6.90905
20
-4.90098
11
6.90907
21
-4.90103
0
LINE
8
BLACK
6
CONTINUOUS
10
6.90907
20
-4.90103
11
6.90921
21
-4.90136
0
LINE
8
BLACK
6
CONTINUOUS
10
6.90921
20
-4.90136
11
6.90935
21
-4.90169
0
LINE
8
BLACK
6
CONTINUOUS
10
6.90935
20
-4.90169
11
6.91162
21
-4.90903
0
LINE
8
BLACK
6
CONTINUOUS
10
6.91162
20
-4.90903
11
6.91163
21
-4.90908
0
LINE
8
BLACK
6
CONTINUOUS
10
6.91163
20
-4.90908
11
6.9117
21
-4.90943
0
LINE
8
BLACK
6
CONTINUOUS
10
6.9117
20
-4.90943
11
6.91177
21
-4.90978
0
LINE
8
BLACK
6
CONTINUOUS
10
6.91177
20
-4.90978
11
6.91258
21
-4.91742
0
LINE
8
BLACK
6
CONTINUOUS
10
6.91258
20
-4.91742
11
6.91258
21
-4.91748
0
LINE
8
BLACK
6
CONTINUOUS
10
6.91258
20
-4.91748
11
6.91258
21
-4.91765
0
LINE
8
BLACK
6
CONTINUOUS
10
6.91258
20
-4.91765
11
6.9126
21
-4.91782
0
LINE
8
BLACK
6
CONTINUOUS
10
6.9126
20
-4.91782
11
6.9126
21
-4.91791
0
LINE
8
BLACK
6
CONTINUOUS
10
6.9126
20
-4.91791
11
6.9126
21
-4.91792
0
LINE
8
BLACK
6
CONTINUOUS
10
6.9126
20
-4.91792
11
6.9126
21
-5.29784
0
LINE
8
BLACK
6
CONTINUOUS
10
6.9126
20
-5.29784
11
6.91262
21
-5.29803
0
LINE
8
BLACK
6
CONTINUOUS
10
6.91262
20
-5.29803
11
6.9126
21
-5.29822
0
LINE
8
BLACK
6
CONTINUOUS
10
6.9126
20
-5.29822
11
6.91254
21
-5.2988
0
LINE
8
BLACK
6
CONTINUOUS
10
6.91254
20
-5.2988
11
6.91232
21
-5.29955
0
LINE
8
BLACK
6
CONTINUOUS
10
6.91232
20
-5.29955
11
6.91195
21
-5.30023
0
LINE
8
BLACK
6
CONTINUOUS
10
6.91195
20
-5.30023
11
6.91146
21
-5.30083
0
LINE
8
BLACK
6
CONTINUOUS
10
6.91146
20
-5.30083
11
6.91086
21
-5.30132
0
LINE
8
BLACK
6
CONTINUOUS
10
6.91086
20
-5.30132
11
6.91018
21
-5.30169
0
LINE
8
BLACK
6
CONTINUOUS
10
6.91018
20
-5.30169
11
6.90943
21
-5.30191
0
LINE
8
BLACK
6
CONTINUOUS
10
6.90943
20
-5.30191
11
6.90886
21
-5.30197
0
LINE
8
BLACK
6
CONTINUOUS
10
6.90886
20
-5.30197
11
6.90885
21
-5.30197
0
LINE
8
BLACK
6
CONTINUOUS
10
6.90885
20
-5.30197
11
6.90866
21
-5.30199
0
LINE
8
BLACK
6
CONTINUOUS
10
6.90866
20
-5.30199
11
6.90847
21
-5.30197
0
LINE
8
BLACK
6
CONTINUOUS
10
6.90847
20
-5.30197
11
6.8575
21
-5.30197
0
LINE
8
BLACK
6
CONTINUOUS
10
6.8575
20
-5.30197
11
6.85606
21
-5.30198
0
LINE
8
BLACK
6
CONTINUOUS
10
6.85606
20
-5.30198
11
6.83375
21
-5.30448
0
LINE
8
BLACK
6
CONTINUOUS
10
6.83375
20
-5.30448
11
6.81251
21
-5.31122
0
LINE
8
BLACK
6
CONTINUOUS
10
6.81251
20
-5.31122
11
6.79299
21
-5.32195
0
LINE
8
BLACK
6
CONTINUOUS
10
6.79299
20
-5.32195
11
6.77592
21
-5.33627
0
LINE
8
BLACK
6
CONTINUOUS
10
6.77592
20
-5.33627
11
6.76196
21
-5.35364
0
LINE
8
BLACK
6
CONTINUOUS
10
6.76196
20
-5.35364
11
6.75164
21
-5.37338
0
LINE
8
BLACK
6
CONTINUOUS
10
6.75164
20
-5.37338
11
6.74535
21
-5.39475
0
LINE
8
BLACK
6
CONTINUOUS
10
6.74535
20
-5.39475
11
6.74333
21
-5.41694
0
LINE
8
BLACK
6
CONTINUOUS
10
6.74333
20
-5.41694
11
6.74566
21
-5.4391
0
LINE
8
BLACK
6
CONTINUOUS
10
6.74566
20
-5.4391
11
6.75225
21
-5.46038
0
LINE
8
BLACK
6
CONTINUOUS
10
6.75225
20
-5.46038
11
6.76284
21
-5.47998
0
LINE
8
BLACK
6
CONTINUOUS
10
6.76284
20
-5.47998
11
6.77704
21
-5.49714
0
LINE
8
BLACK
6
CONTINUOUS
10
6.77704
20
-5.49714
11
6.79431
21
-5.51122
0
LINE
8
BLACK
6
CONTINUOUS
10
6.79431
20
-5.51122
11
6.81398
21
-5.52168
0
LINE
8
BLACK
6
CONTINUOUS
10
6.81398
20
-5.52168
11
6.83531
21
-5.52812
0
LINE
8
BLACK
6
CONTINUOUS
10
6.83531
20
-5.52812
11
6.85767
21
-5.53032
0
LINE
8
BLACK
6
CONTINUOUS
10
6.85767
20
-5.53032
11
6.90847
21
-5.53032
0
LINE
8
BLACK
6
CONTINUOUS
10
6.90847
20
-5.53032
11
6.90866
21
-5.5303
0
LINE
8
BLACK
6
CONTINUOUS
10
6.90866
20
-5.5303
11
6.90885
21
-5.53032
0
LINE
8
BLACK
6
CONTINUOUS
10
6.90885
20
-5.53032
11
6.90943
21
-5.53037
0
LINE
8
BLACK
6
CONTINUOUS
10
6.90943
20
-5.53037
11
6.91018
21
-5.5306
0
LINE
8
BLACK
6
CONTINUOUS
10
6.91018
20
-5.5306
11
6.91086
21
-5.53096
0
LINE
8
BLACK
6
CONTINUOUS
10
6.91086
20
-5.53096
11
6.91146
21
-5.53145
0
LINE
8
BLACK
6
CONTINUOUS
10
6.91146
20
-5.53145
11
6.91195
21
-5.53205
0
LINE
8
BLACK
6
CONTINUOUS
10
6.91195
20
-5.53205
11
6.91232
21
-5.53274
0
LINE
8
BLACK
6
CONTINUOUS
10
6.91232
20
-5.53274
11
6.91254
21
-5.53348
0
LINE
8
BLACK
6
CONTINUOUS
10
6.91254
20
-5.53348
11
6.91262
21
-5.53425
0
LINE
8
BLACK
6
CONTINUOUS
10
6.91262
20
-5.53425
11
6.9126
21
-5.53445
0
LINE
8
BLACK
6
CONTINUOUS
10
6.9126
20
-5.53445
11
6.9126
21
-5.59941
0
LINE
8
BLACK
6
CONTINUOUS
10
6.9126
20
-5.59941
11
6.91258
21
-5.5996
0
LINE
8
BLACK
6
CONTINUOUS
10
6.91258
20
-5.5996
11
6.91258
21
-5.5996
0
LINE
8
BLACK
6
CONTINUOUS
10
6.91258
20
-5.5996
11
6.91183
21
-5.60724
0
LINE
8
BLACK
6
CONTINUOUS
10
6.91183
20
-5.60724
11
6.91182
21
-5.6073
0
LINE
8
BLACK
6
CONTINUOUS
10
6.91182
20
-5.6073
11
6.91175
21
-5.60765
0
LINE
8
BLACK
6
CONTINUOUS
10
6.91175
20
-5.60765
11
6.91168
21
-5.608
0
LINE
8
BLACK
6
CONTINUOUS
10
6.91168
20
-5.608
11
6.90946
21
-5.61535
0
LINE
8
BLACK
6
CONTINUOUS
10
6.90946
20
-5.61535
11
6.90944
21
-5.61541
0
LINE
8
BLACK
6
CONTINUOUS
10
6.90944
20
-5.61541
11
6.9093
21
-5.61573
0
LINE
8
BLACK
6
CONTINUOUS
10
6.9093
20
-5.61573
11
6.90917
21
-5.61606
0
LINE
8
BLACK
6
CONTINUOUS
10
6.90917
20
-5.61606
11
6.90556
21
-5.62285
0
LINE
8
BLACK
6
CONTINUOUS
10
6.90556
20
-5.62285
11
6.90556
21
-5.62285
0
LINE
8
BLACK
6
CONTINUOUS
10
6.90556
20
-5.62285
11
6.90556
21
-5.62285
0
LINE
8
BLACK
6
CONTINUOUS
10
6.90556
20
-5.62285
11
6.90553
21
-5.6229
0
LINE
8
BLACK
6
CONTINUOUS
10
6.90553
20
-5.6229
11
6.90533
21
-5.62319
0
LINE
8
BLACK
6
CONTINUOUS
10
6.90533
20
-5.62319
11
6.90513
21
-5.62349
0
LINE
8
BLACK
6
CONTINUOUS
10
6.90513
20
-5.62349
11
6.90028
21
-5.62944
0
LINE
8
BLACK
6
CONTINUOUS
10
6.90028
20
-5.62944
11
6.90028
21
-5.62944
0
LINE
8
BLACK
6
CONTINUOUS
10
6.90028
20
-5.62944
11
6.90028
21
-5.62944
0
LINE
8
BLACK
6
CONTINUOUS
10
6.90028
20
-5.62944
11
6.90024
21
-5.62948
0
LINE
8
BLACK
6
CONTINUOUS
10
6.90024
20
-5.62948
11
6.89999
21
-5.62973
0
LINE
8
BLACK
6
CONTINUOUS
10
6.89999
20
-5.62973
11
6.89974
21
-5.62999
0
LINE
8
BLACK
6
CONTINUOUS
10
6.89974
20
-5.62999
11
6.89382
21
-5.63489
0
LINE
8
BLACK
6
CONTINUOUS
10
6.89382
20
-5.63489
11
6.89377
21
-5.63492
0
LINE
8
BLACK
6
CONTINUOUS
10
6.89377
20
-5.63492
11
6.89348
21
-5.63512
0
LINE
8
BLACK
6
CONTINUOUS
10
6.89348
20
-5.63512
11
6.89318
21
-5.63532
0
LINE
8
BLACK
6
CONTINUOUS
10
6.89318
20
-5.63532
11
6.88642
21
-5.63897
0
LINE
8
BLACK
6
CONTINUOUS
10
6.88642
20
-5.63897
11
6.88642
21
-5.63897
0
LINE
8
BLACK
6
CONTINUOUS
10
6.88642
20
-5.63897
11
6.88642
21
-5.63897
0
LINE
8
BLACK
6
CONTINUOUS
10
6.88642
20
-5.63897
11
6.88637
21
-5.639
0
LINE
8
BLACK
6
CONTINUOUS
10
6.88637
20
-5.639
11
6.88604
21
-5.63913
0
LINE
8
BLACK
6
CONTINUOUS
10
6.88604
20
-5.63913
11
6.88571
21
-5.63927
0
LINE
8
BLACK
6
CONTINUOUS
10
6.88571
20
-5.63927
11
6.87837
21
-5.64154
0
LINE
8
BLACK
6
CONTINUOUS
10
6.87837
20
-5.64154
11
6.87832
21
-5.64156
0
LINE
8
BLACK
6
CONTINUOUS
10
6.87832
20
-5.64156
11
6.87797
21
-5.64162
0
LINE
8
BLACK
6
CONTINUOUS
10
6.87797
20
-5.64162
11
6.87762
21
-5.64169
0
LINE
8
BLACK
6
CONTINUOUS
10
6.87762
20
-5.64169
11
6.86998
21
-5.6425
0
LINE
8
BLACK
6
CONTINUOUS
10
6.86998
20
-5.6425
11
6.86992
21
-5.6425
0
LINE
8
BLACK
6
CONTINUOUS
10
6.86992
20
-5.6425
11
6.86975
21
-5.6425
0
LINE
8
BLACK
6
CONTINUOUS
10
6.86975
20
-5.6425
11
6.86958
21
-5.64252
0
LINE
8
BLACK
6
CONTINUOUS
10
6.86958
20
-5.64252
11
6.86949
21
-5.64252
0
LINE
8
BLACK
6
CONTINUOUS
10
6.86949
20
-5.64252
11
6.86948
21
-5.64252
0
LINE
8
BLACK
6
CONTINUOUS
10
6.86948
20
-5.64252
11
4.78248
21
-5.64252
0
LINE
8
BLACK
6
CONTINUOUS
10
4.78248
20
-5.64252
11
4.78229
21
-5.6425
0
LINE
8
BLACK
6
CONTINUOUS
10
4.78229
20
-5.6425
11
4.78229
21
-5.6425
0
LINE
8
BLACK
6
CONTINUOUS
10
4.78229
20
-5.6425
11
4.77465
21
-5.64175
0
LINE
8
BLACK
6
CONTINUOUS
10
4.77465
20
-5.64175
11
4.77465
21
-5.64175
0
LINE
8
BLACK
6
CONTINUOUS
10
4.77465
20
-5.64175
11
4.77459
21
-5.64175
0
LINE
8
BLACK
6
CONTINUOUS
10
4.77459
20
-5.64175
11
4.77424
21
-5.64167
0
LINE
8
BLACK
6
CONTINUOUS
10
4.77424
20
-5.64167
11
4.77389
21
-5.6416
0
LINE
8
BLACK
6
CONTINUOUS
10
4.77389
20
-5.6416
11
4.76654
21
-5.63938
0
LINE
8
BLACK
6
CONTINUOUS
10
4.76654
20
-5.63938
11
4.76648
21
-5.63936
0
LINE
8
BLACK
6
CONTINUOUS
10
4.76648
20
-5.63936
11
4.76616
21
-5.63922
0
LINE
8
BLACK
6
CONTINUOUS
10
4.76616
20
-5.63922
11
4.76583
21
-5.63909
0
LINE
8
BLACK
6
CONTINUOUS
10
4.76583
20
-5.63909
11
4.75904
21
-5.63548
0
LINE
8
BLACK
6
CONTINUOUS
10
4.75904
20
-5.63548
11
4.75904
21
-5.63548
0
LINE
8
BLACK
6
CONTINUOUS
10
4.75904
20
-5.63548
11
4.75904
21
-5.63548
0
LINE
8
BLACK
6
CONTINUOUS
10
4.75904
20
-5.63548
11
4.75899
21
-5.63545
0
LINE
8
BLACK
6
CONTINUOUS
10
4.75899
20
-5.63545
11
4.7587
21
-5.63525
0
LINE
8
BLACK
6
CONTINUOUS
10
4.7587
20
-5.63525
11
4.7584
21
-5.63506
0
LINE
8
BLACK
6
CONTINUOUS
10
4.7584
20
-5.63506
11
4.75245
21
-5.6302
0
LINE
8
BLACK
6
CONTINUOUS
10
4.75245
20
-5.6302
11
4.75245
21
-5.6302
0
LINE
8
BLACK
6
CONTINUOUS
10
4.75245
20
-5.6302
11
4.75245
21
-5.6302
0
LINE
8
BLACK
6
CONTINUOUS
10
4.75245
20
-5.6302
11
4.75241
21
-5.63016
0
LINE
8
BLACK
6
CONTINUOUS
10
4.75241
20
-5.63016
11
4.75216
21
-5.62991
0
LINE
8
BLACK
6
CONTINUOUS
10
4.75216
20
-5.62991
11
4.7519
21
-5.62966
0
LINE
8
BLACK
6
CONTINUOUS
10
4.7519
20
-5.62966
11
4.747
21
-5.62374
0
LINE
8
BLACK
6
CONTINUOUS
10
4.747
20
-5.62374
11
4.74697
21
-5.6237
0
LINE
8
BLACK
6
CONTINUOUS
10
4.74697
20
-5.6237
11
4.74677
21
-5.6234
0
LINE
8
BLACK
6
CONTINUOUS
10
4.74677
20
-5.6234
11
4.74657
21
-5.6231
0
LINE
8
BLACK
6
CONTINUOUS
10
4.74657
20
-5.6231
11
4.74292
21
-5.61634
0
LINE
8
BLACK
6
CONTINUOUS
10
4.74292
20
-5.61634
11
4.74292
21
-5.61634
0
LINE
8
BLACK
6
CONTINUOUS
10
4.74292
20
-5.61634
11
4.74292
21
-5.61634
0
LINE
8
BLACK
6
CONTINUOUS
10
4.74292
20
-5.61634
11
4.74289
21
-5.61629
0
LINE
8
BLACK
6
CONTINUOUS
10
4.74289
20
-5.61629
11
4.74276
21
-5.61596
0
LINE
8
BLACK
6
CONTINUOUS
10
4.74276
20
-5.61596
11
4.74262
21
-5.61563
0
LINE
8
BLACK
6
CONTINUOUS
10
4.74262
20
-5.61563
11
4.74035
21
-5.60829
0
LINE
8
BLACK
6
CONTINUOUS
10
4.74035
20
-5.60829
11
4.74033
21
-5.60824
0
LINE
8
BLACK
6
CONTINUOUS
10
4.74033
20
-5.60824
11
4.74027
21
-5.60789
0
LINE
8
BLACK
6
CONTINUOUS
10
4.74027
20
-5.60789
11
4.7402
21
-5.60754
0
LINE
8
BLACK
6
CONTINUOUS
10
4.7402
20
-5.60754
11
4.73939
21
-5.5999
0
LINE
8
BLACK
6
CONTINUOUS
10
4.73939
20
-5.5999
11
4.73939
21
-5.59984
0
LINE
8
BLACK
6
CONTINUOUS
10
4.73939
20
-5.59984
11
4.73939
21
-5.59967
0
LINE
8
BLACK
6
CONTINUOUS
10
4.73939
20
-5.59967
11
4.73937
21
-5.5995
0
LINE
8
BLACK
6
CONTINUOUS
10
4.73937
20
-5.5995
11
4.73937
21
-5.59941
0
LINE
8
BLACK
6
CONTINUOUS
10
4.73937
20
-5.59941
11
4.73937
21
-5.59941
0
LINE
8
BLACK
6
CONTINUOUS
10
4.73937
20
-5.59941
11
4.73937
21
-4.91792
0
LINE
8
BLACK
6
CONTINUOUS
10
4.73937
20
-4.91792
11
4.73939
21
-4.91773
0
LINE
8
BLACK
6
CONTINUOUS
10
4.73939
20
-4.91773
11
4.73939
21
-4.91773
0
LINE
8
BLACK
6
CONTINUOUS
10
4.73939
20
-4.91773
11
4.74014
21
-4.91008
0
LINE
8
BLACK
6
CONTINUOUS
10
4.74014
20
-4.91008
11
4.74014
21
-4.91002
0
LINE
8
BLACK
6
CONTINUOUS
10
4.74014
20
-4.91002
11
4.74022
21
-4.90968
0
LINE
8
BLACK
6
CONTINUOUS
10
4.74022
20
-4.90968
11
4.74029
21
-4.90933
0
LINE
8
BLACK
6
CONTINUOUS
10
4.74029
20
-4.90933
11
4.74251
21
-4.90197
0
LINE
8
BLACK
6
CONTINUOUS
10
4.74251
20
-4.90197
11
4.74252
21
-4.90192
0
LINE
8
BLACK
6
CONTINUOUS
10
4.74252
20
-4.90192
11
4.74267
21
-4.90159
0
LINE
8
BLACK
6
CONTINUOUS
10
4.74267
20
-4.90159
11
4.7428
21
-4.90126
0
LINE
8
BLACK
6
CONTINUOUS
10
4.7428
20
-4.90126
11
4.74641
21
-4.89447
0
LINE
8
BLACK
6
CONTINUOUS
10
4.74641
20
-4.89447
11
4.74641
21
-4.89447
0
LINE
8
BLACK
6
CONTINUOUS
10
4.74641
20
-4.89447
11
4.74641
21
-4.89447
0
LINE
8
BLACK
6
CONTINUOUS
10
4.74641
20
-4.89447
11
4.74643
21
-4.89443
0
LINE
8
BLACK
6
CONTINUOUS
10
4.74643
20
-4.89443
11
4.74664
21
-4.89413
0
LINE
8
BLACK
6
CONTINUOUS
10
4.74664
20
-4.89413
11
4.74683
21
-4.89384
0
LINE
8
BLACK
6
CONTINUOUS
10
4.74683
20
-4.89384
11
4.75169
21
-4.88788
0
LINE
8
BLACK
6
CONTINUOUS
10
4.75169
20
-4.88788
11
4.75169
21
-4.88788
0
LINE
8
BLACK
6
CONTINUOUS
10
4.75169
20
-4.88788
11
4.75169
21
-4.88788
0
LINE
8
BLACK
6
CONTINUOUS
10
4.75169
20
-4.88788
11
4.75173
21
-4.88784
0
LINE
8
BLACK
6
CONTINUOUS
10
4.75173
20
-4.88784
11
4.75198
21
-4.88759
0
LINE
8
BLACK
6
CONTINUOUS
10
4.75198
20
-4.88759
11
4.75223
21
-4.88734
0
LINE
8
BLACK
6
CONTINUOUS
10
4.75223
20
-4.88734
11
4.75815
21
-4.88244
0
LINE
8
BLACK
6
CONTINUOUS
10
4.75815
20
-4.88244
11
4.75819
21
-4.8824
0
LINE
8
BLACK
6
CONTINUOUS
10
4.75819
20
-4.8824
11
4.75849
21
-4.88221
0
LINE
8
BLACK
6
CONTINUOUS
10
4.75849
20
-4.88221
11
4.75879
21
-4.88201
0
LINE
8
BLACK
6
CONTINUOUS
10
4.75879
20
-4.88201
11
4.76555
21
-4.87835
0
LINE
8
BLACK
6
CONTINUOUS
10
4.76555
20
-4.87835
11
4.7656
21
-4.87833
0
LINE
8
BLACK
6
CONTINUOUS
10
4.7656
20
-4.87833
11
4.76593
21
-4.87819
0
LINE
8
BLACK
6
CONTINUOUS
10
4.76593
20
-4.87819
11
4.76626
21
-4.87806
0
LINE
8
BLACK
6
CONTINUOUS
10
4.76626
20
-4.87806
11
4.7736
21
-4.87578
0
LINE
8
BLACK
6
CONTINUOUS
10
4.7736
20
-4.87578
11
4.77365
21
-4.87577
0
LINE
8
BLACK
6
CONTINUOUS
10
4.77365
20
-4.87577
11
4.774
21
-4.8757
0
LINE
8
BLACK
6
CONTINUOUS
10
4.774
20
-4.8757
11
4.77435
21
-4.87563
0
LINE
8
BLACK
6
CONTINUOUS
10
4.77435
20
-4.87563
11
4.78199
21
-4.87483
0
LINE
8
BLACK
6
CONTINUOUS
10
4.78199
20
-4.87483
11
4.78205
21
-4.87482
0
LINE
8
BLACK
6
CONTINUOUS
10
4.78205
20
-4.87482
11
4.78222
21
-4.87482
0
LINE
8
BLACK
6
CONTINUOUS
10
4.78222
20
-4.87482
11
4.78239
21
-4.8748
0
LINE
8
BLACK
6
CONTINUOUS
10
4.78239
20
-4.8748
11
4.78248
21
-4.8748
0
LINE
8
BLACK
6
CONTINUOUS
10
4.78248
20
-4.8748
11
4.78248
21
-4.8748
0
LINE
8
BLACK
6
CONTINUOUS
10
4.78248
20
-4.8748
11
6.86948
21
-4.8748
0
LINE
8
BLACK
6
CONTINUOUS
10
6.86948
20
-4.8748
11
6.86967
21
-4.87482
0
LINE
8
BLACK
6
CONTINUOUS
10
6.86967
20
-4.87482
11
6.86968
21
-4.87482
0
LINE
8
BLACK
6
CONTINUOUS
10
6.86968
20
-4.87482
11
6.87732
21
-4.87557
0
LINE
8
BLACK
6
CONTINUOUS
10
6.87732
20
-4.87557
11
6.87732
21
-4.87557
0
LINE
8
BLACK
6
CONTINUOUS
10
6.87732
20
-4.87557
11
6.87738
21
-4.87558
0
LINE
8
BLACK
6
CONTINUOUS
10
6.8341
20
-5.53592
11
6.83375
21
-5.53584
0
LINE
8
BLACK
6
CONTINUOUS
10
6.83375
20
-5.53584
11
6.8334
21
-5.53577
0
LINE
8
BLACK
6
CONTINUOUS
10
6.8334
20
-5.53577
11
6.81133
21
-5.52911
0
LINE
8
BLACK
6
CONTINUOUS
10
6.81133
20
-5.52911
11
6.81128
21
-5.52909
0
LINE
8
BLACK
6
CONTINUOUS
10
6.81128
20
-5.52909
11
6.81095
21
-5.52895
0
LINE
8
BLACK
6
CONTINUOUS
10
6.81095
20
-5.52895
11
6.81062
21
-5.52882
0
LINE
8
BLACK
6
CONTINUOUS
10
6.81062
20
-5.52882
11
6.79027
21
-5.51799
0
LINE
8
BLACK
6
CONTINUOUS
10
6.79027
20
-5.51799
11
6.79027
21
-5.51799
0
LINE
8
BLACK
6
CONTINUOUS
10
6.79027
20
-5.51799
11
6.79027
21
-5.51799
0
LINE
8
BLACK
6
CONTINUOUS
10
6.79027
20
-5.51799
11
6.79022
21
-5.51797
0
LINE
8
BLACK
6
CONTINUOUS
10
6.79022
20
-5.51797
11
6.78993
21
-5.51777
0
LINE
8
BLACK
6
CONTINUOUS
10
6.78993
20
-5.51777
11
6.78963
21
-5.51757
0
LINE
8
BLACK
6
CONTINUOUS
10
6.78963
20
-5.51757
11
6.77177
21
-5.503
0
LINE
8
BLACK
6
CONTINUOUS
10
6.77177
20
-5.503
11
6.77177
21
-5.503
0
LINE
8
BLACK
6
CONTINUOUS
10
6.77177
20
-5.503
11
6.77177
21
-5.503
0
LINE
8
BLACK
6
CONTINUOUS
10
6.77177
20
-5.503
11
6.77173
21
-5.50297
0
LINE
8
BLACK
6
CONTINUOUS
10
6.77173
20
-5.50297
11
6.77148
21
-5.50271
0
LINE
8
BLACK
6
CONTINUOUS
10
6.77148
20
-5.50271
11
6.77122
21
-5.50246
0
LINE
8
BLACK
6
CONTINUOUS
10
6.77122
20
-5.50246
11
6.75653
21
-5.4847
0
LINE
8
BLACK
6
CONTINUOUS
10
6.75653
20
-5.4847
11
6.75653
21
-5.4847
0
LINE
8
BLACK
6
CONTINUOUS
10
6.75653
20
-5.4847
11
6.75653
21
-5.4847
0
LINE
8
BLACK
6
CONTINUOUS
10
6.75653
20
-5.4847
11
6.75649
21
-5.48466
0
LINE
8
BLACK
6
CONTINUOUS
10
6.75649
20
-5.48466
11
6.7563
21
-5.48436
0
LINE
8
BLACK
6
CONTINUOUS
10
6.7563
20
-5.48436
11
6.7561
21
-5.48406
0
LINE
8
BLACK
6
CONTINUOUS
10
6.7561
20
-5.48406
11
6.74514
21
-5.46378
0
LINE
8
BLACK
6
CONTINUOUS
10
6.74514
20
-5.46378
11
6.74514
21
-5.46378
0
LINE
8
BLACK
6
CONTINUOUS
10
6.74514
20
-5.46378
11
6.74514
21
-5.46378
0
LINE
8
BLACK
6
CONTINUOUS
10
6.74514
20
-5.46378
11
6.74511
21
-5.46374
0
LINE
8
BLACK
6
CONTINUOUS
10
6.74511
20
-5.46374
11
6.74498
21
-5.4634
0
LINE
8
BLACK
6
CONTINUOUS
10
6.74498
20
-5.4634
11
6.74484
21
-5.46308
0
LINE
8
BLACK
6
CONTINUOUS
10
6.74484
20
-5.46308
11
6.73802
21
-5.44106
0
LINE
8
BLACK
6
CONTINUOUS
10
6.73802
20
-5.44106
11
6.73801
21
-5.441
0
LINE
8
BLACK
6
CONTINUOUS
10
6.73801
20
-5.441
11
6.73794
21
-5.44065
0
LINE
8
BLACK
6
CONTINUOUS
10
6.73794
20
-5.44065
11
6.73787
21
-5.4403
0
LINE
8
BLACK
6
CONTINUOUS
10
6.73787
20
-5.4403
11
6.73546
21
-5.41738
0
LINE
8
BLACK
6
CONTINUOUS
10
6.73546
20
-5.41738
11
6.73546
21
-5.41738
0
LINE
8
BLACK
6
CONTINUOUS
10
6.73546
20
-5.41738
11
6.73546
21
-5.41738
0
LINE
8
BLACK
6
CONTINUOUS
10
6.73546
20
-5.41738
11
6.73545
21
-5.41732
0
LINE
8
BLACK
6
CONTINUOUS
10
6.73545
20
-5.41732
11
6.73545
21
-5.41697
0
LINE
8
BLACK
6
CONTINUOUS
10
6.73545
20
-5.41697
11
6.73545
21
-5.41661
0
LINE
8
BLACK
6
CONTINUOUS
10
6.73545
20
-5.41661
11
6.73754
21
-5.39365
0
LINE
8
BLACK
6
CONTINUOUS
10
6.73754
20
-5.39365
11
6.73754
21
-5.39365
0
LINE
8
BLACK
6
CONTINUOUS
10
6.73754
20
-5.39365
11
6.73754
21
-5.39365
0
LINE
8
BLACK
6
CONTINUOUS
10
6.73754
20
-5.39365
11
6.73755
21
-5.3936
0
LINE
8
BLACK
6
CONTINUOUS
10
6.73755
20
-5.3936
11
6.73762
21
-5.39325
0
LINE
8
BLACK
6
CONTINUOUS
10
6.73762
20
-5.39325
11
6.73769
21
-5.3929
0
LINE
8
BLACK
6
CONTINUOUS
10
6.73769
20
-5.3929
11
6.74419
21
-5.37079
0
LINE
8
BLACK
6
CONTINUOUS
10
6.74419
20
-5.37079
11
6.74419
21
-5.37079
0
LINE
8
BLACK
6
CONTINUOUS
10
6.74419
20
-5.37079
11
6.74419
21
-5.37078
0
LINE
8
BLACK
6
CONTINUOUS
10
6.74419
20
-5.37078
11
6.74421
21
-5.37073
0
LINE
8
BLACK
6
CONTINUOUS
10
6.74421
20
-5.37073
11
6.74435
21
-5.3704
0
LINE
8
BLACK
6
CONTINUOUS
10
6.74435
20
-5.3704
11
6.74448
21
-5.37007
0
LINE
8
BLACK
6
CONTINUOUS
10
6.74448
20
-5.37007
11
6.75516
21
-5.34965
0
LINE
8
BLACK
6
CONTINUOUS
10
6.75516
20
-5.34965
11
6.75519
21
-5.3496
0
LINE
8
BLACK
6
CONTINUOUS
10
6.75519
20
-5.3496
11
6.75539
21
-5.3493
0
LINE
8
BLACK
6
CONTINUOUS
10
6.75539
20
-5.3493
11
6.75558
21
-5.349
0
LINE
8
BLACK
6
CONTINUOUS
10
6.75558
20
-5.349
11
6.77003
21
-5.33104
0
LINE
8
BLACK
6
CONTINUOUS
10
6.77003
20
-5.33104
11
6.77003
21
-5.33104
0
LINE
8
BLACK
6
CONTINUOUS
10
6.77003
20
-5.33104
11
6.77003
21
-5.33104
0
LINE
8
BLACK
6
CONTINUOUS
10
6.77003
20
-5.33104
11
6.77006
21
-5.33099
0
LINE
8
BLACK
6
CONTINUOUS
10
6.77006
20
-5.33099
11
6.77031
21
-5.33074
0
LINE
8
BLACK
6
CONTINUOUS
10
6.77031
20
-5.33074
11
6.77056
21
-5.33049
0
LINE
8
BLACK
6
CONTINUOUS
10
6.77056
20
-5.33049
11
6.78822
21
-5.31567
0
LINE
8
BLACK
6
CONTINUOUS
10
6.78822
20
-5.31567
11
6.78822
21
-5.31567
0
LINE
8
BLACK
6
CONTINUOUS
10
6.78822
20
-5.31567
11
6.78822
21
-5.31567
0
LINE
8
BLACK
6
CONTINUOUS
10
6.78822
20
-5.31567
11
6.78826
21
-5.31564
0
LINE
8
BLACK
6
CONTINUOUS
10
6.78826
20
-5.31564
11
6.78856
21
-5.31544
0
LINE
8
BLACK
6
CONTINUOUS
10
6.78856
20
-5.31544
11
6.78886
21
-5.31524
0
LINE
8
BLACK
6
CONTINUOUS
10
6.78886
20
-5.31524
11
6.80906
21
-5.30413
0
LINE
8
BLACK
6
CONTINUOUS
10
6.80906
20
-5.30413
11
6.80906
21
-5.30413
0
LINE
8
BLACK
6
CONTINUOUS
10
6.80906
20
-5.30413
11
6.80906
21
-5.30413
0
LINE
8
BLACK
6
CONTINUOUS
10
6.80906
20
-5.30413
11
6.8091
21
-5.30411
0
LINE
8
BLACK
6
CONTINUOUS
10
6.8091
20
-5.30411
11
6.80943
21
-5.30397
0
LINE
8
BLACK
6
CONTINUOUS
10
6.80943
20
-5.30397
11
6.80976
21
-5.30383
0
LINE
8
BLACK
6
CONTINUOUS
10
6.80976
20
-5.30383
11
6.83173
21
-5.29686
0
LINE
8
BLACK
6
CONTINUOUS
10
6.83173
20
-5.29686
11
6.83173
21
-5.29686
0
LINE
8
BLACK
6
CONTINUOUS
10
6.83173
20
-5.29686
11
6.83173
21
-5.29686
0
LINE
8
BLACK
6
CONTINUOUS
10
6.83173
20
-5.29686
11
6.83179
21
-5.29684
0
LINE
8
BLACK
6
CONTINUOUS
10
6.83179
20
-5.29684
11
6.83213
21
-5.29677
0
LINE
8
BLACK
6
CONTINUOUS
10
6.83213
20
-5.29677
11
6.83248
21
-5.2967
0
LINE
8
BLACK
6
CONTINUOUS
10
6.83248
20
-5.2967
11
6.85539
21
-5.29413
0
LINE
8
BLACK
6
CONTINUOUS
10
6.85539
20
-5.29413
11
6.85545
21
-5.29412
0
LINE
8
BLACK
6
CONTINUOUS
10
6.85545
20
-5.29412
11
6.85563
21
-5.29412
0
LINE
8
BLACK
6
CONTINUOUS
10
6.85563
20
-5.29412
11
6.8558
21
-5.29411
0
LINE
8
BLACK
6
CONTINUOUS
10
6.8558
20
-5.29411
11
6.85727
21
-5.2941
0
LINE
8
BLACK
6
CONTINUOUS
10
6.85727
20
-5.2941
11
6.85729
21
-5.29409
0
LINE
8
BLACK
6
CONTINUOUS
10
6.85729
20
-5.29409
11
6.90472
21
-5.29409
0
LINE
8
BLACK
6
CONTINUOUS
10
6.90472
20
-5.29409
11
6.90472
21
-4.91811
0
LINE
8
BLACK
6
CONTINUOUS
10
6.90472
20
-4.91811
11
6.90472
21
-4.91805
0
LINE
8
BLACK
6
CONTINUOUS
10
6.90472
20
-4.91805
11
6.90398
21
-4.91099
0
LINE
8
BLACK
6
CONTINUOUS
10
6.90398
20
-4.91099
11
6.90194
21
-4.90439
0
LINE
8
BLACK
6
CONTINUOUS
10
6.90194
20
-4.90439
11
6.89865
21
-4.89831
0
LINE
8
BLACK
6
CONTINUOUS
10
6.89865
20
-4.89831
11
6.89425
21
-4.89298
0
LINE
8
BLACK
6
CONTINUOUS
10
6.89425
20
-4.89298
11
6.88889
21
-4.88861
0
LINE
8
BLACK
6
CONTINUOUS
10
6.88889
20
-4.88861
11
6.88279
21
-4.88537
0
LINE
8
BLACK
6
CONTINUOUS
10
6.88279
20
-4.88537
11
6.87617
21
-4.88337
0
LINE
8
BLACK
6
CONTINUOUS
10
6.87617
20
-4.88337
11
6.8691
21
-4.88268
0
LINE
8
BLACK
6
CONTINUOUS
10
6.8691
20
-4.88268
11
4.78268
21
-4.88268
0
LINE
8
BLACK
6
CONTINUOUS
10
4.78268
20
-4.88268
11
4.78262
21
-4.88268
0
LINE
8
BLACK
6
CONTINUOUS
10
4.78262
20
-4.88268
11
4.77556
21
-4.88342
0
LINE
8
BLACK
6
CONTINUOUS
10
4.77556
20
-4.88342
11
4.76895
21
-4.88546
0
LINE
8
BLACK
6
CONTINUOUS
10
4.76895
20
-4.88546
11
4.76287
21
-4.88875
0
LINE
8
BLACK
6
CONTINUOUS
10
4.76287
20
-4.88875
11
4.75755
21
-4.89316
0
LINE
8
BLACK
6
CONTINUOUS
10
4.75755
20
-4.89316
11
4.75318
21
-4.89851
0
LINE
8
BLACK
6
CONTINUOUS
10
4.75318
20
-4.89851
11
4.74994
21
-4.90462
0
LINE
8
BLACK
6
CONTINUOUS
10
4.74994
20
-4.90462
11
4.74794
21
-4.91123
0
LINE
8
BLACK
6
CONTINUOUS
10
4.74794
20
-4.91123
11
4.74724
21
-4.9183
0
LINE
8
BLACK
6
CONTINUOUS
10
4.74724
20
-4.9183
11
4.74724
21
-5.59921
0
LINE
8
BLACK
6
CONTINUOUS
10
4.74724
20
-5.59921
11
4.74724
21
-5.59927
0
LINE
8
BLACK
6
CONTINUOUS
10
4.74724
20
-5.59927
11
4.74799
21
-5.60633
0
LINE
8
BLACK
6
CONTINUOUS
10
4.74799
20
-5.60633
11
4.75003
21
-5.61294
0
LINE
8
BLACK
6
CONTINUOUS
10
4.75003
20
-5.61294
11
4.75332
21
-5.61902
0
LINE
8
BLACK
6
CONTINUOUS
10
4.75332
20
-5.61902
11
4.75772
21
-5.62434
0
LINE
8
BLACK
6
CONTINUOUS
10
4.75772
20
-5.62434
11
4.76308
21
-5.62871
0
LINE
8
BLACK
6
CONTINUOUS
10
4.76308
20
-5.62871
11
4.76918
21
-5.63195
0
LINE
8
BLACK
6
CONTINUOUS
10
4.76918
20
-5.63195
11
4.7758
21
-5.63395
0
LINE
8
BLACK
6
CONTINUOUS
10
4.7758
20
-5.63395
11
4.78287
21
-5.63465
0
LINE
8
BLACK
6
CONTINUOUS
10
4.78287
20
-5.63465
11
6.86929
21
-5.63465
0
LINE
8
BLACK
6
CONTINUOUS
10
6.86929
20
-5.63465
11
6.86935
21
-5.63465
0
LINE
8
BLACK
6
CONTINUOUS
10
6.86935
20
-5.63465
11
6.87641
21
-5.6339
0
LINE
8
BLACK
6
CONTINUOUS
10
6.87641
20
-5.6339
11
6.88301
21
-5.63186
0
LINE
8
BLACK
6
CONTINUOUS
10
6.88301
20
-5.63186
11
6.88909
21
-5.62857
0
LINE
8
BLACK
6
CONTINUOUS
10
6.88909
20
-5.62857
11
6.89442
21
-5.62417
0
LINE
8
BLACK
6
CONTINUOUS
10
6.89442
20
-5.62417
11
6.89879
21
-5.61881
0
LINE
8
BLACK
6
CONTINUOUS
10
6.89879
20
-5.61881
11
6.90203
21
-5.61271
0
LINE
8
BLACK
6
CONTINUOUS
10
6.90203
20
-5.61271
11
6.90403
21
-5.60609
0
LINE
8
BLACK
6
CONTINUOUS
10
6.90403
20
-5.60609
11
6.90472
21
-5.59902
0
LINE
8
BLACK
6
CONTINUOUS
10
6.90472
20
-5.59902
11
6.90472
21
-5.53819
0
LINE
8
BLACK
6
CONTINUOUS
10
6.90472
20
-5.53819
11
6.85729
21
-5.53819
0
LINE
8
BLACK
6
CONTINUOUS
10
6.85729
20
-5.53819
11
6.8571
21
-5.53817
0
LINE
8
BLACK
6
CONTINUOUS
10
6.8571
20
-5.53817
11
6.8571
21
-5.53817
0
LINE
8
BLACK
6
CONTINUOUS
10
6.8571
20
-5.53817
11
6.83416
21
-5.53592
0
LINE
8
BLACK
6
CONTINUOUS
10
6.83416
20
-5.53592
11
6.83415
21
-5.53592
0
LINE
8
BLACK
6
CONTINUOUS
10
6.83415
20
-5.53592
11
6.8341
21
-5.53592
0
LINE
8
BLACK
6
CONTINUOUS
10
5.39847
20
-5.5318
11
5.40266
21
-5.52168
0
LINE
8
BLACK
6
CONTINUOUS
10
5.40266
20
-5.52168
11
5.40875
21
-5.51257
0
LINE
8
BLACK
6
CONTINUOUS
10
5.40875
20
-5.51257
11
5.4165
21
-5.50482
0
LINE
8
BLACK
6
CONTINUOUS
10
5.4165
20
-5.50482
11
5.42561
21
-5.49873
0
LINE
8
BLACK
6
CONTINUOUS
10
5.42561
20
-5.49873
11
5.43574
21
-5.49453
0
LINE
8
BLACK
6
CONTINUOUS
10
5.43574
20
-5.49453
11
5.44649
21
-5.4924
0
LINE
8
BLACK
6
CONTINUOUS
10
5.44649
20
-5.4924
11
5.45745
21
-5.4924
0
LINE
8
BLACK
6
CONTINUOUS
10
5.45745
20
-5.4924
11
5.4682
21
-5.49453
0
LINE
8
BLACK
6
CONTINUOUS
10
5.4682
20
-5.49453
11
5.47832
21
-5.49873
0
LINE
8
BLACK
6
CONTINUOUS
10
5.47832
20
-5.49873
11
5.48743
21
-5.50482
0
LINE
8
BLACK
6
CONTINUOUS
10
5.48743
20
-5.50482
11
5.49518
21
-5.51257
0
LINE
8
BLACK
6
CONTINUOUS
10
5.49518
20
-5.51257
11
5.50127
21
-5.52168
0
LINE
8
BLACK
6
CONTINUOUS
10
5.50127
20
-5.52168
11
5.50547
21
-5.5318
0
LINE
8
BLACK
6
CONTINUOUS
10
5.50547
20
-5.5318
11
5.5076
21
-5.54255
0
LINE
8
BLACK
6
CONTINUOUS
10
5.5076
20
-5.54255
11
5.5076
21
-5.55351
0
LINE
8
BLACK
6
CONTINUOUS
10
5.5076
20
-5.55351
11
5.50547
21
-5.56426
0
LINE
8
BLACK
6
CONTINUOUS
10
5.50547
20
-5.56426
11
5.50127
21
-5.57439
0
LINE
8
BLACK
6
CONTINUOUS
10
5.50127
20
-5.57439
11
5.49518
21
-5.5835
0
LINE
8
BLACK
6
CONTINUOUS
10
5.49518
20
-5.5835
11
5.48743
21
-5.59125
0
LINE
8
BLACK
6
CONTINUOUS
10
5.48743
20
-5.59125
11
5.47832
21
-5.59734
0
LINE
8
BLACK
6
CONTINUOUS
10
5.47832
20
-5.59734
11
5.4682
21
-5.60153
0
LINE
8
BLACK
6
CONTINUOUS
10
5.4682
20
-5.60153
11
5.45745
21
-5.60367
0
LINE
8
BLACK
6
CONTINUOUS
10
5.45745
20
-5.60367
11
5.44649
21
-5.60367
0
LINE
8
BLACK
6
CONTINUOUS
10
5.44649
20
-5.60367
11
5.43574
21
-5.60153
0
LINE
8
BLACK
6
CONTINUOUS
10
5.43574
20
-5.60153
11
5.42561
21
-5.59734
0
LINE
8
BLACK
6
CONTINUOUS
10
5.42561
20
-5.59734
11
5.4165
21
-5.59125
0
LINE
8
BLACK
6
CONTINUOUS
10
5.4165
20
-5.59125
11
5.40875
21
-5.5835
0
LINE
8
BLACK
6
CONTINUOUS
10
5.40875
20
-5.5835
11
5.40266
21
-5.57439
0
LINE
8
BLACK
6
CONTINUOUS
10
5.40266
20
-5.57439
11
5.39847
21
-5.56426
0
LINE
8
BLACK
6
CONTINUOUS
10
5.39847
20
-5.56426
11
5.39633
21
-5.55351
0
LINE
8
BLACK
6
CONTINUOUS
10
5.39633
20
-5.55351
11
5.39633
21
-5.54255
0
LINE
8
BLACK
6
CONTINUOUS
10
5.39633
20
-5.54255
11
5.39847
21
-5.5318
0
LINE
8
BLACK
6
CONTINUOUS
10
5.40676
20
-5.56175
11
5.4103
21
-5.5703
0
LINE
8
BLACK
6
CONTINUOUS
10
5.4103
20
-5.5703
11
5.41545
21
-5.578
0
LINE
8
BLACK
6
CONTINUOUS
10
5.41545
20
-5.578
11
5.422
21
-5.58455
0
LINE
8
BLACK
6
CONTINUOUS
10
5.422
20
-5.58455
11
5.4297
21
-5.5897
0
LINE
8
BLACK
6
CONTINUOUS
10
5.4297
20
-5.5897
11
5.43825
21
-5.59324
0
LINE
8
BLACK
6
CONTINUOUS
10
5.43825
20
-5.59324
11
5.44734
21
-5.59505
0
LINE
8
BLACK
6
CONTINUOUS
10
5.44734
20
-5.59505
11
5.4566
21
-5.59505
0
LINE
8
BLACK
6
CONTINUOUS
10
5.4566
20
-5.59505
11
5.46568
21
-5.59324
0
LINE
8
BLACK
6
CONTINUOUS
10
5.46568
20
-5.59324
11
5.47424
21
-5.5897
0
LINE
8
BLACK
6
CONTINUOUS
10
5.47424
20
-5.5897
11
5.48194
21
-5.58455
0
LINE
8
BLACK
6
CONTINUOUS
10
5.48194
20
-5.58455
11
5.48849
21
-5.578
0
LINE
8
BLACK
6
CONTINUOUS
10
5.48849
20
-5.578
11
5.49363
21
-5.5703
0
LINE
8
BLACK
6
CONTINUOUS
10
5.49363
20
-5.5703
11
5.49718
21
-5.56175
0
LINE
8
BLACK
6
CONTINUOUS
10
5.49718
20
-5.56175
11
5.49899
21
-5.55266
0
LINE
8
BLACK
6
CONTINUOUS
10
5.49899
20
-5.55266
11
5.49899
21
-5.5434
0
LINE
8
BLACK
6
CONTINUOUS
10
5.49899
20
-5.5434
11
5.49718
21
-5.53432
0
LINE
8
BLACK
6
CONTINUOUS
10
5.49718
20
-5.53432
11
5.49363
21
-5.52576
0
LINE
8
BLACK
6
CONTINUOUS
10
5.49363
20
-5.52576
11
5.48849
21
-5.51806
0
LINE
8
BLACK
6
CONTINUOUS
10
5.48849
20
-5.51806
11
5.48194
21
-5.51151
0
LINE
8
BLACK
6
CONTINUOUS
10
5.48194
20
-5.51151
11
5.47424
21
-5.50637
0
LINE
8
BLACK
6
CONTINUOUS
10
5.47424
20
-5.50637
11
5.46568
21
-5.50282
0
LINE
8
BLACK
6
CONTINUOUS
10
5.46568
20
-5.50282
11
5.4566
21
-5.50101
0
LINE
8
BLACK
6
CONTINUOUS
10
5.4566
20
-5.50101
11
5.44734
21
-5.50101
0
LINE
8
BLACK
6
CONTINUOUS
10
5.44734
20
-5.50101
11
5.43825
21
-5.50282
0
LINE
8
BLACK
6
CONTINUOUS
10
5.43825
20
-5.50282
11
5.4297
21
-5.50637
0
LINE
8
BLACK
6
CONTINUOUS
10
5.4297
20
-5.50637
11
5.422
21
-5.51151
0
LINE
8
BLACK
6
CONTINUOUS
10
5.422
20
-5.51151
11
5.41545
21
-5.51806
0
LINE
8
BLACK
6
CONTINUOUS
10
5.41545
20
-5.51806
11
5.4103
21
-5.52576
0
LINE
8
BLACK
6
CONTINUOUS
10
5.4103
20
-5.52576
11
5.40676
21
-5.53432
0
LINE
8
BLACK
6
CONTINUOUS
10
5.40676
20
-5.53432
11
5.40495
21
-5.5434
0
LINE
8
BLACK
6
CONTINUOUS
10
5.40495
20
-5.5434
11
5.40495
21
-5.55266
0
LINE
8
BLACK
6
CONTINUOUS
10
5.40495
20
-5.55266
11
5.40676
21
-5.56175
0
LINE
8
BLACK
6
CONTINUOUS
10
4.90173
20
-5.247
11
4.90474
21
-5.23973
0
LINE
8
BLACK
6
CONTINUOUS
10
4.90474
20
-5.23973
11
4.90912
21
-5.23319
0
LINE
8
BLACK
6
CONTINUOUS
10
4.90912
20
-5.23319
11
4.91468
21
-5.22762
0
LINE
8
BLACK
6
CONTINUOUS
10
4.91468
20
-5.22762
11
4.92123
21
-5.22325
0
LINE
8
BLACK
6
CONTINUOUS
10
4.92123
20
-5.22325
11
4.9285
21
-5.22023
0
LINE
8
BLACK
6
CONTINUOUS
10
4.9285
20
-5.22023
11
4.93622
21
-5.2187
0
LINE
8
BLACK
6
CONTINUOUS
10
4.93622
20
-5.2187
11
4.94409
21
-5.2187
0
LINE
8
BLACK
6
CONTINUOUS
10
4.94409
20
-5.2187
11
4.95181
21
-5.22023
0
LINE
8
BLACK
6
CONTINUOUS
10
4.95181
20
-5.22023
11
4.95909
21
-5.22325
0
LINE
8
BLACK
6
CONTINUOUS
10
4.95909
20
-5.22325
11
4.96563
21
-5.22762
0
LINE
8
BLACK
6
CONTINUOUS
10
4.96563
20
-5.22762
11
4.9712
21
-5.23319
0
LINE
8
BLACK
6
CONTINUOUS
10
4.9712
20
-5.23319
11
4.97557
21
-5.23973
0
LINE
8
BLACK
6
CONTINUOUS
10
4.97557
20
-5.23973
11
4.97859
21
-5.247
0
LINE
8
BLACK
6
CONTINUOUS
10
4.97859
20
-5.247
11
4.98012
21
-5.25473
0
LINE
8
BLACK
6
CONTINUOUS
10
4.98012
20
-5.25473
11
4.98012
21
-5.2626
0
LINE
8
BLACK
6
CONTINUOUS
10
4.98012
20
-5.2626
11
4.97859
21
-5.27032
0
LINE
8
BLACK
6
CONTINUOUS
10
4.97859
20
-5.27032
11
4.97557
21
-5.27759
0
LINE
8
BLACK
6
CONTINUOUS
10
4.97557
20
-5.27759
11
4.9712
21
-5.28414
0
LINE
8
BLACK
6
CONTINUOUS
10
4.9712
20
-5.28414
11
4.96563
21
-5.2897
0
LINE
8
BLACK
6
CONTINUOUS
10
4.96563
20
-5.2897
11
4.95909
21
-5.29408
0
LINE
8
BLACK
6
CONTINUOUS
10
4.95909
20
-5.29408
11
4.95181
21
-5.29709
0
LINE
8
BLACK
6
CONTINUOUS
10
4.95181
20
-5.29709
11
4.94409
21
-5.29863
0
LINE
8
BLACK
6
CONTINUOUS
10
4.94409
20
-5.29863
11
4.93622
21
-5.29863
0
LINE
8
BLACK
6
CONTINUOUS
10
4.93622
20
-5.29863
11
4.9285
21
-5.29709
0
LINE
8
BLACK
6
CONTINUOUS
10
4.9285
20
-5.29709
11
4.92123
21
-5.29408
0
LINE
8
BLACK
6
CONTINUOUS
10
4.92123
20
-5.29408
11
4.91468
21
-5.2897
0
LINE
8
BLACK
6
CONTINUOUS
10
4.91468
20
-5.2897
11
4.90912
21
-5.28414
0
LINE
8
BLACK
6
CONTINUOUS
10
4.90912
20
-5.28414
11
4.90474
21
-5.27759
0
LINE
8
BLACK
6
CONTINUOUS
10
4.90474
20
-5.27759
11
4.90173
21
-5.27032
0
LINE
8
BLACK
6
CONTINUOUS
10
4.90173
20
-5.27032
11
4.90019
21
-5.2626
0
LINE
8
BLACK
6
CONTINUOUS
10
4.90019
20
-5.2626
11
4.90019
21
-5.25473
0
LINE
8
BLACK
6
CONTINUOUS
10
4.90019
20
-5.25473
11
4.90173
21
-5.247
0
LINE
8
BLACK
6
CONTINUOUS
10
4.91002
20
-5.2678
11
4.91238
21
-5.27351
0
LINE
8
BLACK
6
CONTINUOUS
10
4.91238
20
-5.27351
11
4.91581
21
-5.27864
0
LINE
8
BLACK
6
CONTINUOUS
10
4.91581
20
-5.27864
11
4.92018
21
-5.28301
0
LINE
8
BLACK
6
CONTINUOUS
10
4.92018
20
-5.28301
11
4.92531
21
-5.28644
0
LINE
8
BLACK
6
CONTINUOUS
10
4.92531
20
-5.28644
11
4.93101
21
-5.2888
0
LINE
8
BLACK
6
CONTINUOUS
10
4.93101
20
-5.2888
11
4.93707
21
-5.29001
0
LINE
8
BLACK
6
CONTINUOUS
10
4.93707
20
-5.29001
11
4.94324
21
-5.29001
0
LINE
8
BLACK
6
CONTINUOUS
10
4.94324
20
-5.29001
11
4.9493
21
-5.2888
0
LINE
8
BLACK
6
CONTINUOUS
10
4.9493
20
-5.2888
11
4.955
21
-5.28644
0
LINE
8
BLACK
6
CONTINUOUS
10
4.955
20
-5.28644
11
4.96014
21
-5.28301
0
LINE
8
BLACK
6
CONTINUOUS
10
4.96014
20
-5.28301
11
4.9645
21
-5.27864
0
LINE
8
BLACK
6
CONTINUOUS
10
4.9645
20
-5.27864
11
4.96793
21
-5.27351
0
LINE
8
BLACK
6
CONTINUOUS
10
4.96793
20
-5.27351
11
4.9703
21
-5.2678
0
LINE
8
BLACK
6
CONTINUOUS
10
4.9703
20
-5.2678
11
4.9715
21
-5.26175
0
LINE
8
BLACK
6
CONTINUOUS
10
4.9715
20
-5.26175
11
4.9715
21
-5.25557
0
LINE
8
BLACK
6
CONTINUOUS
10
4.9715
20
-5.25557
11
4.9703
21
-5.24952
0
LINE
8
BLACK
6
CONTINUOUS
10
4.9703
20
-5.24952
11
4.96793
21
-5.24381
0
LINE
8
BLACK
6
CONTINUOUS
10
4.96793
20
-5.24381
11
4.9645
21
-5.23868
0
LINE
8
BLACK
6
CONTINUOUS
10
4.9645
20
-5.23868
11
4.96014
21
-5.23431
0
LINE
8
BLACK
6
CONTINUOUS
10
4.96014
20
-5.23431
11
4.955
21
-5.23088
0
LINE
8
BLACK
6
CONTINUOUS
10
4.955
20
-5.23088
11
4.9493
21
-5.22852
0
LINE
8
BLACK
6
CONTINUOUS
10
4.9493
20
-5.22852
11
4.94324
21
-5.22732
0
LINE
8
BLACK
6
CONTINUOUS
10
4.94324
20
-5.22732
11
4.93707
21
-5.22732
0
LINE
8
BLACK
6
CONTINUOUS
10
4.93707
20
-5.22732
11
4.93101
21
-5.22852
0
LINE
8
BLACK
6
CONTINUOUS
10
4.93101
20
-5.22852
11
4.92531
21
-5.23088
0
LINE
8
BLACK
6
CONTINUOUS
10
4.92531
20
-5.23088
11
4.92018
21
-5.23431
0
LINE
8
BLACK
6
CONTINUOUS
10
4.92018
20
-5.23431
11
4.91581
21
-5.23868
0
LINE
8
BLACK
6
CONTINUOUS
10
4.91581
20
-5.23868
11
4.91238
21
-5.24381
0
LINE
8
BLACK
6
CONTINUOUS
10
4.91238
20
-5.24381
11
4.91002
21
-5.24952
0
LINE
8
BLACK
6
CONTINUOUS
10
4.91002
20
-5.24952
11
4.90881
21
-5.25557
0
LINE
8
BLACK
6
CONTINUOUS
10
4.90881
20
-5.25557
11
4.90881
21
-5.26175
0
LINE
8
BLACK
6
CONTINUOUS
10
4.90881
20
-5.26175
11
4.91002
21
-5.2678
0
LINE
8
BLACK
6
CONTINUOUS
10
5.39847
20
-4.95306
11
5.40266
21
-4.94294
0
LINE
8
BLACK
6
CONTINUOUS
10
5.40266
20
-4.94294
11
5.40875
21
-4.93383
0
LINE
8
BLACK
6
CONTINUOUS
10
5.40875
20
-4.93383
11
5.4165
21
-4.92608
0
LINE
8
BLACK
6
CONTINUOUS
10
5.4165
20
-4.92608
11
5.42561
21
-4.91999
0
LINE
8
BLACK
6
CONTINUOUS
10
5.42561
20
-4.91999
11
5.43574
21
-4.91579
0
LINE
8
BLACK
6
CONTINUOUS
10
5.43574
20
-4.91579
11
5.44649
21
-4.91366
0
LINE
8
BLACK
6
CONTINUOUS
10
5.44649
20
-4.91366
11
5.45745
21
-4.91366
0
LINE
8
BLACK
6
CONTINUOUS
10
5.45745
20
-4.91366
11
5.4682
21
-4.91579
0
LINE
8
BLACK
6
CONTINUOUS
10
5.4682
20
-4.91579
11
5.47832
21
-4.91999
0
LINE
8
BLACK
6
CONTINUOUS
10
5.47832
20
-4.91999
11
5.48743
21
-4.92608
0
LINE
8
BLACK
6
CONTINUOUS
10
5.48743
20
-4.92608
11
5.49518
21
-4.93383
0
LINE
8
BLACK
6
CONTINUOUS
10
5.49518
20
-4.93383
11
5.50127
21
-4.94294
0
LINE
8
BLACK
6
CONTINUOUS
10
5.50127
20
-4.94294
11
5.50547
21
-4.95306
0
LINE
8
BLACK
6
CONTINUOUS
10
5.50547
20
-4.95306
11
5.5076
21
-4.96381
0
LINE
8
BLACK
6
CONTINUOUS
10
5.5076
20
-4.96381
11
5.5076
21
-4.97477
0
LINE
8
BLACK
6
CONTINUOUS
10
5.5076
20
-4.97477
11
5.50547
21
-4.98552
0
LINE
8
BLACK
6
CONTINUOUS
10
5.50547
20
-4.98552
11
5.50127
21
-4.99565
0
LINE
8
BLACK
6
CONTINUOUS
10
5.50127
20
-4.99565
11
5.49518
21
-5.00476
0
LINE
8
BLACK
6
CONTINUOUS
10
5.49518
20
-5.00476
11
5.48743
21
-5.01251
0
LINE
8
BLACK
6
CONTINUOUS
10
5.48743
20
-5.01251
11
5.47832
21
-5.0186
0
LINE
8
BLACK
6
CONTINUOUS
10
5.47832
20
-5.0186
11
5.4682
21
-5.02279
0
LINE
8
BLACK
6
CONTINUOUS
10
5.4682
20
-5.02279
11
5.45745
21
-5.02493
0
LINE
8
BLACK
6
CONTINUOUS
10
5.45745
20
-5.02493
11
5.44649
21
-5.02493
0
LINE
8
BLACK
6
CONTINUOUS
10
5.44649
20
-5.02493
11
5.43574
21
-5.02279
0
LINE
8
BLACK
6
CONTINUOUS
10
5.43574
20
-5.02279
11
5.42561
21
-5.0186
0
LINE
8
BLACK
6
CONTINUOUS
10
5.42561
20
-5.0186
11
5.4165
21
-5.01251
0
LINE
8
BLACK
6
CONTINUOUS
10
5.4165
20
-5.01251
11
5.40875
21
-5.00476
0
LINE
8
BLACK
6
CONTINUOUS
10
5.40875
20
-5.00476
11
5.40266
21
-4.99565
0
LINE
8
BLACK
6
CONTINUOUS
10
5.40266
20
-4.99565
11
5.39847
21
-4.98552
0
LINE
8
BLACK
6
CONTINUOUS
10
5.39847
20
-4.98552
11
5.39633
21
-4.97477
0
LINE
8
BLACK
6
CONTINUOUS
10
5.39633
20
-4.97477
11
5.39633
21
-4.96381
0
LINE
8
BLACK
6
CONTINUOUS
10
5.39633
20
-4.96381
11
5.39847
21
-4.95306
0
LINE
8
BLACK
6
CONTINUOUS
10
5.40676
20
-4.98301
11
5.4103
21
-4.99156
0
LINE
8
BLACK
6
CONTINUOUS
10
5.4103
20
-4.99156
11
5.41545
21
-4.99926
0
LINE
8
BLACK
6
CONTINUOUS
10
5.41545
20
-4.99926
11
5.422
21
-5.00581
0
LINE
8
BLACK
6
CONTINUOUS
10
5.422
20
-5.00581
11
5.4297
21
-5.01096
0
LINE
8
BLACK
6
CONTINUOUS
10
5.4297
20
-5.01096
11
5.43825
21
-5.0145
0
LINE
8
BLACK
6
CONTINUOUS
10
5.43825
20
-5.0145
11
5.44734
21
-5.01631
0
LINE
8
BLACK
6
CONTINUOUS
10
5.44734
20
-5.01631
11
5.4566
21
-5.01631
0
LINE
8
BLACK
6
CONTINUOUS
10
5.4566
20
-5.01631
11
5.46568
21
-5.0145
0
LINE
8
BLACK
6
CONTINUOUS
10
5.46568
20
-5.0145
11
5.47424
21
-5.01096
0
LINE
8
BLACK
6
CONTINUOUS
10
5.47424
20
-5.01096
11
5.48194
21
-5.00581
0
LINE
8
BLACK
6
CONTINUOUS
10
5.48194
20
-5.00581
11
5.48849
21
-4.99926
0
LINE
8
BLACK
6
CONTINUOUS
10
5.48849
20
-4.99926
11
5.49363
21
-4.99156
0
LINE
8
BLACK
6
CONTINUOUS
10
5.49363
20
-4.99156
11
5.49718
21
-4.98301
0
LINE
8
BLACK
6
CONTINUOUS
10
5.49718
20
-4.98301
11
5.49899
21
-4.97392
0
LINE
8
BLACK
6
CONTINUOUS
10
5.49899
20
-4.97392
11
5.49899
21
-4.96466
0
LINE
8
BLACK
6
CONTINUOUS
10
5.49899
20
-4.96466
11
5.49718
21
-4.95558
0
LINE
8
BLACK
6
CONTINUOUS
10
5.49718
20
-4.95558
11
5.49363
21
-4.94702
0
LINE
8
BLACK
6
CONTINUOUS
10
5.49363
20
-4.94702
11
5.48849
21
-4.93932
0
LINE
8
BLACK
6
CONTINUOUS
10
5.48849
20
-4.93932
11
5.48194
21
-4.93277
0
LINE
8
BLACK
6
CONTINUOUS
10
5.48194
20
-4.93277
11
5.47424
21
-4.92763
0
LINE
8
BLACK
6
CONTINUOUS
10
5.47424
20
-4.92763
11
5.46568
21
-4.92408
0
LINE
8
BLACK
6
CONTINUOUS
10
5.46568
20
-4.92408
11
5.4566
21
-4.92227
0
LINE
8
BLACK
6
CONTINUOUS
10
5.4566
20
-4.92227
11
5.44734
21
-4.92227
0
LINE
8
BLACK
6
CONTINUOUS
10
5.44734
20
-4.92227
11
5.43825
21
-4.92408
0
LINE
8
BLACK
6
CONTINUOUS
10
5.43825
20
-4.92408
11
5.4297
21
-4.92763
0
LINE
8
BLACK
6
CONTINUOUS
10
5.4297
20
-4.92763
11
5.422
21
-4.93277
0
LINE
8
BLACK
6
CONTINUOUS
10
5.422
20
-4.93277
11
5.41545
21
-4.93932
0
LINE
8
BLACK
6
CONTINUOUS
10
5.41545
20
-4.93932
11
5.4103
21
-4.94702
0
LINE
8
BLACK
6
CONTINUOUS
10
5.4103
20
-4.94702
11
5.40676
21
-4.95558
0
LINE
8
BLACK
6
CONTINUOUS
10
5.40676
20
-4.95558
11
5.40495
21
-4.96466
0
LINE
8
BLACK
6
CONTINUOUS
10
5.40495
20
-4.96466
11
5.40495
21
-4.97392
0
LINE
8
BLACK
6
CONTINUOUS
10
5.40495
20
-4.97392
11
5.40676
21
-4.98301
  0
ENDSEC
  0
EOF
