M48
; DRILL file {KiCad (5.1.10)-1} date 10/06/21 18:40:41
; FORMAT={-:-/ absolute / inch / decimal}
; #@! TF.CreationDate,2021-10-06T18:40:41-05:00
; #@! TF.GenerationSoftware,Kicad,Pcbnew,(5.1.10)-1
; #@! TF.FileFunction,Plated,1,2,PTH
FMAT,2
INCH
T1C0.0118
T2C0.0157
T3C0.0236
T4C0.0256
T5C0.0299
T6C0.0394
%
G90
G05
T1
X6.4394Y-5.3709
T2
X4.8472Y-5.4083
X4.8472Y-5.5358
X5.0622Y-5.0339
X5.1516Y-5.1409
X5.2961Y-5.0697
X5.51Y-5.61
X5.5748Y-5.5256
X5.6161Y-5.5886
X5.6171Y-5.5256
X5.6276Y-5.0224
X5.628Y-5.3339
X5.6583Y-5.526
X5.6783Y-5.1319
X5.732Y-5.0236
X5.7402Y-5.2016
X5.7461Y-5.0614
X5.7618Y-5.4596
X5.769Y-5.5476
X5.8719Y-4.9874
X6.0252Y-5.0209
X6.0976Y-4.9945
X6.137Y-4.9945
X6.1776Y-4.9961
X6.2043Y-5.2323
X6.2177Y-4.9925
X6.2398Y-5.3988
X6.2417Y-5.4587
X6.2524Y-5.2937
X6.2787Y-5.0295
X6.28Y-4.99
X6.3445Y-5.1291
X6.4339Y-4.9886
X6.4382Y-5.2961
X6.4492Y-5.4508
X6.4929Y-4.9067
X6.5362Y-4.9362
X6.5378Y-5.1882
X6.5406Y-5.1378
T4
X6.6583Y-4.9807
X6.6583Y-5.2083
T5
X5.2146Y-5.0837
X5.2146Y-5.1837
X5.2146Y-5.2837
X5.2146Y-5.3837
X5.3146Y-5.1337
X5.3146Y-5.2337
X5.3146Y-5.3337
X5.3146Y-5.4337
T6
X5.0Y-5.5988
X5.1Y-5.5988
X5.2Y-5.5988
X5.3Y-5.5988
X5.437Y-5.172
X5.437Y-5.272
X5.437Y-5.372
X5.537Y-5.172
X5.537Y-5.272
X5.537Y-5.372
X6.6567Y-5.3669
X6.6567Y-5.4669
T3
G00X6.6169Y-4.9244
M15
G01X6.6602Y-4.9244
M16
G05
G00X6.6169Y-5.2646
M15
G01X6.6602Y-5.2646
M16
G05
G00X6.7862Y-4.9244
M15
G01X6.8177Y-4.9244
M16
G05
G00X6.7862Y-5.2646
M15
G01X6.8177Y-5.2646
M16
G05
T0
M30
