%TF.GenerationSoftware,KiCad,Pcbnew,(5.1.10)-1*%
%TF.CreationDate,2021-10-06T18:46:40-05:00*%
%TF.ProjectId,BYTE_Bite_Base,42595445-5f42-4697-9465-5f426173652e,rev?*%
%TF.SameCoordinates,Original*%
%TF.FileFunction,Profile,NP*%
%FSLAX46Y46*%
G04 Gerber Fmt 4.6, Leading zero omitted, Abs format (unit mm)*
G04 Created by KiCad (PCBNEW (5.1.10)-1) date 2021-10-06 18:46:40*
%MOMM*%
%LPD*%
G01*
G04 APERTURE LIST*
%TA.AperFunction,Profile*%
%ADD10C,0.100000*%
%TD*%
G04 APERTURE END LIST*
D10*
%TO.C,J1*%
X150620000Y-80180000D02*
X150620000Y-87180000D01*
X150620000Y-87180000D02*
X162820000Y-87180000D01*
X162820000Y-87180000D02*
X162820000Y-80180000D01*
X162820000Y-80180000D02*
X162810210Y-79982320D01*
X162810210Y-79982320D02*
X162781220Y-79788000D01*
X162781220Y-79788000D02*
X162733550Y-79598330D01*
X162733550Y-79598330D02*
X162667760Y-79414630D01*
X162667760Y-79414630D02*
X162584390Y-79238220D01*
X162584390Y-79238220D02*
X162483980Y-79070400D01*
X162483980Y-79070400D02*
X162367070Y-78912480D01*
X162367070Y-78912480D02*
X162234210Y-78765790D01*
X162234210Y-78765790D02*
X162087520Y-78632930D01*
X162087520Y-78632930D02*
X161929600Y-78516020D01*
X161929600Y-78516020D02*
X161761780Y-78415610D01*
X161761780Y-78415610D02*
X161585370Y-78332240D01*
X161585370Y-78332240D02*
X161401670Y-78266450D01*
X161401670Y-78266450D02*
X161212000Y-78218780D01*
X161212000Y-78218780D02*
X161017680Y-78189790D01*
X161017680Y-78189790D02*
X160820000Y-78180000D01*
X160820000Y-78180000D02*
X152620000Y-78180000D01*
X152620000Y-78180000D02*
X152422320Y-78189790D01*
X152422320Y-78189790D02*
X152228000Y-78218780D01*
X152228000Y-78218780D02*
X152038330Y-78266450D01*
X152038330Y-78266450D02*
X151854630Y-78332240D01*
X151854630Y-78332240D02*
X151678220Y-78415610D01*
X151678220Y-78415610D02*
X151510400Y-78516020D01*
X151510400Y-78516020D02*
X151352480Y-78632930D01*
X151352480Y-78632930D02*
X151205790Y-78765790D01*
X151205790Y-78765790D02*
X151072930Y-78912480D01*
X151072930Y-78912480D02*
X150956020Y-79070400D01*
X150956020Y-79070400D02*
X150855610Y-79238220D01*
X150855610Y-79238220D02*
X150772240Y-79414630D01*
X150772240Y-79414630D02*
X150706450Y-79598330D01*
X150706450Y-79598330D02*
X150658780Y-79788000D01*
X150658780Y-79788000D02*
X150629790Y-79982320D01*
X150629790Y-79982320D02*
X150620000Y-80180000D01*
X150620000Y-80180000D02*
X150620000Y-80180000D01*
%TD*%
M02*
