%TF.GenerationSoftware,KiCad,Pcbnew,(5.1.10)-1*%
%TF.CreationDate,2021-10-06T18:23:09-05:00*%
%TF.ProjectId,Flex_02,466c6578-5f30-4322-9e6b-696361645f70,rev?*%
%TF.SameCoordinates,Original*%
%TF.FileFunction,Soldermask,Bot*%
%TF.FilePolarity,Negative*%
%FSLAX46Y46*%
G04 Gerber Fmt 4.6, Leading zero omitted, Abs format (unit mm)*
G04 Created by KiCad (PCBNEW (5.1.10)-1) date 2021-10-06 18:23:09*
%MOMM*%
%LPD*%
G01*
G04 APERTURE LIST*
%ADD10C,13.000000*%
%ADD11C,2.200000*%
%ADD12C,1.000000*%
%ADD13C,0.600000*%
%ADD14R,2.200000X0.800000*%
%ADD15C,0.100000*%
G04 APERTURE END LIST*
D10*
%TO.C,REF\u002A\u002A*%
X142568100Y-106142180D03*
D11*
X152568100Y-111892180D03*
X152568100Y-100392180D03*
D12*
X158368100Y-110892180D03*
X158368100Y-101392180D03*
D13*
X165518100Y-108767180D03*
X165518100Y-108017180D03*
X165518100Y-107267180D03*
X165518100Y-106517180D03*
X165518100Y-105767180D03*
X165518100Y-105017180D03*
X165518100Y-104267180D03*
X165518100Y-103517180D03*
X166918100Y-108767180D03*
X166918100Y-108017180D03*
X166918100Y-107267180D03*
X166918100Y-106517180D03*
X166918100Y-105767180D03*
X166918100Y-105017180D03*
X166918100Y-104267180D03*
X166918100Y-103517180D03*
D12*
X156368100Y-110892180D03*
X156368100Y-101392180D03*
D14*
X152668100Y-109442180D03*
X152668100Y-107792180D03*
X152668100Y-106142180D03*
X152668100Y-104492180D03*
X152668100Y-102842180D03*
D15*
G36*
X167268100Y-107742180D02*
G01*
X167268100Y-108292180D01*
X165168100Y-108292180D01*
X165168100Y-107742180D01*
X167268100Y-107742180D01*
G37*
G36*
X167268100Y-106992180D02*
G01*
X167268100Y-107542180D01*
X165168100Y-107542180D01*
X165168100Y-106992180D01*
X167268100Y-106992180D01*
G37*
G36*
X167268100Y-106242180D02*
G01*
X167268100Y-106792180D01*
X165168100Y-106792180D01*
X165168100Y-106242180D01*
X167268100Y-106242180D01*
G37*
G36*
X167268100Y-105492180D02*
G01*
X167268100Y-106042180D01*
X165168100Y-106042180D01*
X165168100Y-105492180D01*
X167268100Y-105492180D01*
G37*
G36*
X167268100Y-104742180D02*
G01*
X167268100Y-105292180D01*
X165168100Y-105292180D01*
X165168100Y-104742180D01*
X167268100Y-104742180D01*
G37*
G36*
X167268100Y-103992180D02*
G01*
X167268100Y-104542180D01*
X165168100Y-104542180D01*
X165168100Y-103992180D01*
X167268100Y-103992180D01*
G37*
G36*
X167268100Y-103242180D02*
G01*
X167268100Y-103792180D01*
X165168100Y-103792180D01*
X165168100Y-103242180D01*
X167268100Y-103242180D01*
G37*
G36*
X167268100Y-108492180D02*
G01*
X167268100Y-109042180D01*
X165168100Y-109042180D01*
X165168100Y-108492180D01*
X167268100Y-108492180D01*
G37*
%TD*%
M02*
