%TF.GenerationSoftware,KiCad,Pcbnew,(5.1.10)-1*%
%TF.CreationDate,2021-10-06T18:23:09-05:00*%
%TF.ProjectId,Flex_02,466c6578-5f30-4322-9e6b-696361645f70,rev?*%
%TF.SameCoordinates,Original*%
%TF.FileFunction,Other,ECO1*%
%FSLAX46Y46*%
G04 Gerber Fmt 4.6, Leading zero omitted, Abs format (unit mm)*
G04 Created by KiCad (PCBNEW (5.1.10)-1) date 2021-10-06 18:23:09*
%MOMM*%
%LPD*%
G01*
G04 APERTURE LIST*
%ADD10C,0.150000*%
G04 APERTURE END LIST*
D10*
X165199052Y-110746941D02*
X165341909Y-110794560D01*
X165580004Y-110794560D01*
X165675242Y-110746941D01*
X165722861Y-110699322D01*
X165770480Y-110604084D01*
X165770480Y-110508846D01*
X165722861Y-110413608D01*
X165675242Y-110365989D01*
X165580004Y-110318370D01*
X165389528Y-110270751D01*
X165294290Y-110223132D01*
X165246671Y-110175513D01*
X165199052Y-110080275D01*
X165199052Y-109985037D01*
X165246671Y-109889799D01*
X165294290Y-109842180D01*
X165389528Y-109794560D01*
X165627623Y-109794560D01*
X165770480Y-109842180D01*
X166056195Y-110127894D02*
X166437147Y-110127894D01*
X166199052Y-109794560D02*
X166199052Y-110651703D01*
X166246671Y-110746941D01*
X166341909Y-110794560D01*
X166437147Y-110794560D01*
X166770480Y-110794560D02*
X166770480Y-110127894D01*
X166770480Y-109794560D02*
X166722861Y-109842180D01*
X166770480Y-109889799D01*
X166818100Y-109842180D01*
X166770480Y-109794560D01*
X166770480Y-109889799D01*
X167103814Y-110127894D02*
X167484766Y-110127894D01*
X167246671Y-110794560D02*
X167246671Y-109937418D01*
X167294290Y-109842180D01*
X167389528Y-109794560D01*
X167484766Y-109794560D01*
X167675242Y-110127894D02*
X168056195Y-110127894D01*
X167818100Y-110794560D02*
X167818100Y-109937418D01*
X167865719Y-109842180D01*
X167960957Y-109794560D01*
X168056195Y-109794560D01*
X168770480Y-110746941D02*
X168675242Y-110794560D01*
X168484766Y-110794560D01*
X168389528Y-110746941D01*
X168341909Y-110651703D01*
X168341909Y-110270751D01*
X168389528Y-110175513D01*
X168484766Y-110127894D01*
X168675242Y-110127894D01*
X168770480Y-110175513D01*
X168818100Y-110270751D01*
X168818100Y-110365989D01*
X168341909Y-110461227D01*
X169246671Y-110127894D02*
X169246671Y-110794560D01*
X169246671Y-110223132D02*
X169294290Y-110175513D01*
X169389528Y-110127894D01*
X169532385Y-110127894D01*
X169627623Y-110175513D01*
X169675242Y-110270751D01*
X169675242Y-110794560D01*
X170532385Y-110746941D02*
X170437147Y-110794560D01*
X170246671Y-110794560D01*
X170151433Y-110746941D01*
X170103814Y-110651703D01*
X170103814Y-110270751D01*
X170151433Y-110175513D01*
X170246671Y-110127894D01*
X170437147Y-110127894D01*
X170532385Y-110175513D01*
X170580004Y-110270751D01*
X170580004Y-110365989D01*
X170103814Y-110461227D01*
X171008576Y-110794560D02*
X171008576Y-110127894D01*
X171008576Y-110318370D02*
X171056195Y-110223132D01*
X171103814Y-110175513D01*
X171199052Y-110127894D01*
X171294290Y-110127894D01*
X172294290Y-110127894D02*
X172818100Y-110127894D01*
X172294290Y-110794560D01*
X172818100Y-110794560D01*
X173341909Y-110794560D02*
X173246671Y-110746941D01*
X173199052Y-110699322D01*
X173151433Y-110604084D01*
X173151433Y-110318370D01*
X173199052Y-110223132D01*
X173246671Y-110175513D01*
X173341909Y-110127894D01*
X173484766Y-110127894D01*
X173580004Y-110175513D01*
X173627623Y-110223132D01*
X173675242Y-110318370D01*
X173675242Y-110604084D01*
X173627623Y-110699322D01*
X173580004Y-110746941D01*
X173484766Y-110794560D01*
X173341909Y-110794560D01*
X174103814Y-110127894D02*
X174103814Y-110794560D01*
X174103814Y-110223132D02*
X174151433Y-110175513D01*
X174246671Y-110127894D01*
X174389528Y-110127894D01*
X174484766Y-110175513D01*
X174532385Y-110270751D01*
X174532385Y-110794560D01*
X175389528Y-110746941D02*
X175294290Y-110794560D01*
X175103814Y-110794560D01*
X175008576Y-110746941D01*
X174960957Y-110651703D01*
X174960957Y-110270751D01*
X175008576Y-110175513D01*
X175103814Y-110127894D01*
X175294290Y-110127894D01*
X175389528Y-110175513D01*
X175437147Y-110270751D01*
X175437147Y-110365989D01*
X174960957Y-110461227D01*
X167518100Y-109392180D02*
X167508100Y-102892180D01*
X164968100Y-109392180D02*
X167518100Y-109392180D01*
X164968100Y-102892180D02*
X164968100Y-109392180D01*
X167508100Y-102892180D02*
X164968100Y-102892180D01*
M02*
