%TF.GenerationSoftware,KiCad,Pcbnew,(5.1.10)-1*%
%TF.CreationDate,2021-10-06T18:23:09-05:00*%
%TF.ProjectId,Flex_02,466c6578-5f30-4322-9e6b-696361645f70,rev?*%
%TF.SameCoordinates,Original*%
%TF.FileFunction,Copper,L2,Bot*%
%TF.FilePolarity,Positive*%
%FSLAX46Y46*%
G04 Gerber Fmt 4.6, Leading zero omitted, Abs format (unit mm)*
G04 Created by KiCad (PCBNEW (5.1.10)-1) date 2021-10-06 18:23:09*
%MOMM*%
%LPD*%
G01*
G04 APERTURE LIST*
%TA.AperFunction,ComponentPad*%
%ADD10C,13.000000*%
%TD*%
%TA.AperFunction,ComponentPad*%
%ADD11C,2.200000*%
%TD*%
%TA.AperFunction,ComponentPad*%
%ADD12C,1.000000*%
%TD*%
%TA.AperFunction,ComponentPad*%
%ADD13C,0.600000*%
%TD*%
%TA.AperFunction,ComponentPad*%
%ADD14R,2.200000X0.800000*%
%TD*%
%TA.AperFunction,SMDPad,CuDef*%
%ADD15C,0.100000*%
%TD*%
%TA.AperFunction,ViaPad*%
%ADD16C,0.800000*%
%TD*%
%TA.AperFunction,Conductor*%
%ADD17C,0.250000*%
%TD*%
G04 APERTURE END LIST*
D10*
%TO.P,REF\u002A\u002A,#*%
%TO.N,N/C*%
X142568100Y-106142180D03*
D11*
X152568100Y-111892180D03*
X152568100Y-100392180D03*
D12*
X158368100Y-110892180D03*
X158368100Y-101392180D03*
D13*
X165518100Y-108767180D03*
X165518100Y-108017180D03*
X165518100Y-107267180D03*
X165518100Y-106517180D03*
X165518100Y-105767180D03*
X165518100Y-105017180D03*
X165518100Y-104267180D03*
X165518100Y-103517180D03*
X166918100Y-108767180D03*
X166918100Y-108017180D03*
X166918100Y-107267180D03*
X166918100Y-106517180D03*
X166918100Y-105767180D03*
X166918100Y-105017180D03*
X166918100Y-104267180D03*
X166918100Y-103517180D03*
D12*
X156368100Y-110892180D03*
X156368100Y-101392180D03*
D14*
X152668100Y-109442180D03*
X152668100Y-107792180D03*
X152668100Y-106142180D03*
X152668100Y-104492180D03*
X152668100Y-102842180D03*
%TA.AperFunction,SMDPad,CuDef*%
D15*
G36*
X167268100Y-107742180D02*
G01*
X167268100Y-108292180D01*
X165168100Y-108292180D01*
X165168100Y-107742180D01*
X167268100Y-107742180D01*
G37*
%TD.AperFunction*%
%TA.AperFunction,SMDPad,CuDef*%
G36*
X167268100Y-106992180D02*
G01*
X167268100Y-107542180D01*
X165168100Y-107542180D01*
X165168100Y-106992180D01*
X167268100Y-106992180D01*
G37*
%TD.AperFunction*%
%TA.AperFunction,SMDPad,CuDef*%
G36*
X167268100Y-106242180D02*
G01*
X167268100Y-106792180D01*
X165168100Y-106792180D01*
X165168100Y-106242180D01*
X167268100Y-106242180D01*
G37*
%TD.AperFunction*%
%TA.AperFunction,SMDPad,CuDef*%
G36*
X167268100Y-105492180D02*
G01*
X167268100Y-106042180D01*
X165168100Y-106042180D01*
X165168100Y-105492180D01*
X167268100Y-105492180D01*
G37*
%TD.AperFunction*%
%TA.AperFunction,SMDPad,CuDef*%
G36*
X167268100Y-104742180D02*
G01*
X167268100Y-105292180D01*
X165168100Y-105292180D01*
X165168100Y-104742180D01*
X167268100Y-104742180D01*
G37*
%TD.AperFunction*%
%TA.AperFunction,SMDPad,CuDef*%
G36*
X167268100Y-103992180D02*
G01*
X167268100Y-104542180D01*
X165168100Y-104542180D01*
X165168100Y-103992180D01*
X167268100Y-103992180D01*
G37*
%TD.AperFunction*%
%TA.AperFunction,SMDPad,CuDef*%
G36*
X167268100Y-103242180D02*
G01*
X167268100Y-103792180D01*
X165168100Y-103792180D01*
X165168100Y-103242180D01*
X167268100Y-103242180D01*
G37*
%TD.AperFunction*%
%TA.AperFunction,SMDPad,CuDef*%
G36*
X167268100Y-108492180D02*
G01*
X167268100Y-109042180D01*
X165168100Y-109042180D01*
X165168100Y-108492180D01*
X167268100Y-108492180D01*
G37*
%TD.AperFunction*%
%TA.AperFunction,SMDPad,CuDef*%
G36*
X153768100Y-109042180D02*
G01*
X153768100Y-109292180D01*
X153783100Y-109327180D01*
X153818100Y-109342180D01*
X153868100Y-109342180D01*
X153964100Y-109361180D01*
X154045100Y-109415180D01*
X154099100Y-109496180D01*
X154118100Y-109592180D01*
X154118100Y-109792180D01*
X154133100Y-109827180D01*
X154168100Y-109842180D01*
X154218100Y-109842180D01*
X154253100Y-109827180D01*
X154268100Y-109792180D01*
X154268100Y-109092180D01*
X154287100Y-108996180D01*
X154341100Y-108915180D01*
X154422100Y-108861180D01*
X154518100Y-108842180D01*
X154568100Y-108842180D01*
X154664100Y-108861180D01*
X154745100Y-108915180D01*
X154799100Y-108996180D01*
X154818100Y-109092180D01*
X154818100Y-109792180D01*
X154833100Y-109827180D01*
X154868100Y-109842180D01*
X154918100Y-109842180D01*
X154953100Y-109827180D01*
X154968100Y-109792180D01*
X154968100Y-109092180D01*
X154987100Y-108996180D01*
X155041100Y-108915180D01*
X155122100Y-108861180D01*
X155218100Y-108842180D01*
X155268100Y-108842180D01*
X155364100Y-108861180D01*
X155445100Y-108915180D01*
X155499100Y-108996180D01*
X155518100Y-109092180D01*
X155518100Y-109792180D01*
X155533100Y-109827180D01*
X155568100Y-109842180D01*
X155618100Y-109842180D01*
X155653100Y-109827180D01*
X155668100Y-109792180D01*
X155668100Y-109592180D01*
X155687100Y-109496180D01*
X155741100Y-109415180D01*
X155822100Y-109361180D01*
X155918100Y-109342180D01*
X155968100Y-109342180D01*
X156027100Y-109361180D01*
X156063100Y-109411180D01*
X156063100Y-109473180D01*
X156027100Y-109523180D01*
X155968100Y-109542180D01*
X155918100Y-109542180D01*
X155883100Y-109557180D01*
X155868100Y-109592180D01*
X155868100Y-109792180D01*
X155849100Y-109888180D01*
X155795100Y-109969180D01*
X155714100Y-110023180D01*
X155618100Y-110042180D01*
X155568100Y-110042180D01*
X155472100Y-110023180D01*
X155391100Y-109969180D01*
X155337100Y-109888180D01*
X155318100Y-109792180D01*
X155318100Y-109092180D01*
X155303100Y-109057180D01*
X155268100Y-109042180D01*
X155218100Y-109042180D01*
X155183100Y-109057180D01*
X155168100Y-109092180D01*
X155168100Y-109792180D01*
X155149100Y-109888180D01*
X155095100Y-109969180D01*
X155014100Y-110023180D01*
X154918100Y-110042180D01*
X154868100Y-110042180D01*
X154772100Y-110023180D01*
X154691100Y-109969180D01*
X154637100Y-109888180D01*
X154618100Y-109792180D01*
X154618100Y-109092180D01*
X154603100Y-109057180D01*
X154568100Y-109042180D01*
X154518100Y-109042180D01*
X154483100Y-109057180D01*
X154468100Y-109092180D01*
X154468100Y-109792180D01*
X154449100Y-109888180D01*
X154395100Y-109969180D01*
X154314100Y-110023180D01*
X154218100Y-110042180D01*
X154168100Y-110042180D01*
X154072100Y-110023180D01*
X153991100Y-109969180D01*
X153937100Y-109888180D01*
X153918100Y-109792180D01*
X153918100Y-109592180D01*
X153903100Y-109557180D01*
X153868100Y-109542180D01*
X153818100Y-109542180D01*
X153783100Y-109557180D01*
X153768100Y-109592180D01*
X153768100Y-109842180D01*
X151568100Y-109842180D01*
X151568100Y-109042180D01*
X153768100Y-109042180D01*
G37*
%TD.AperFunction*%
%TA.AperFunction,SMDPad,CuDef*%
G36*
X153768100Y-107442180D02*
G01*
X153768100Y-107692180D01*
X153783100Y-107727180D01*
X153818100Y-107742180D01*
X153868100Y-107742180D01*
X153964100Y-107761180D01*
X154045100Y-107815180D01*
X154099100Y-107896180D01*
X154118100Y-107992180D01*
X154118100Y-108192180D01*
X154133100Y-108227180D01*
X154168100Y-108242180D01*
X154218100Y-108242180D01*
X154253100Y-108227180D01*
X154268100Y-108192180D01*
X154268100Y-107492180D01*
X154287100Y-107396180D01*
X154341100Y-107315180D01*
X154422100Y-107261180D01*
X154518100Y-107242180D01*
X154568100Y-107242180D01*
X154664100Y-107261180D01*
X154745100Y-107315180D01*
X154799100Y-107396180D01*
X154818100Y-107492180D01*
X154818100Y-108192180D01*
X154833100Y-108227180D01*
X154868100Y-108242180D01*
X154918100Y-108242180D01*
X154953100Y-108227180D01*
X154968100Y-108192180D01*
X154968100Y-107492180D01*
X154987100Y-107396180D01*
X155041100Y-107315180D01*
X155122100Y-107261180D01*
X155218100Y-107242180D01*
X155268100Y-107242180D01*
X155364100Y-107261180D01*
X155445100Y-107315180D01*
X155499100Y-107396180D01*
X155518100Y-107492180D01*
X155518100Y-108192180D01*
X155533100Y-108227180D01*
X155568100Y-108242180D01*
X155618100Y-108242180D01*
X155653100Y-108227180D01*
X155668100Y-108192180D01*
X155668100Y-107992180D01*
X155687100Y-107896180D01*
X155741100Y-107815180D01*
X155822100Y-107761180D01*
X155918100Y-107742180D01*
X155968100Y-107742180D01*
X156027100Y-107761180D01*
X156063100Y-107811180D01*
X156063100Y-107873180D01*
X156027100Y-107923180D01*
X155968100Y-107942180D01*
X155918100Y-107942180D01*
X155883100Y-107957180D01*
X155868100Y-107992180D01*
X155868100Y-108192180D01*
X155849100Y-108288180D01*
X155795100Y-108369180D01*
X155714100Y-108423180D01*
X155618100Y-108442180D01*
X155568100Y-108442180D01*
X155472100Y-108423180D01*
X155391100Y-108369180D01*
X155337100Y-108288180D01*
X155318100Y-108192180D01*
X155318100Y-107492180D01*
X155303100Y-107457180D01*
X155268100Y-107442180D01*
X155218100Y-107442180D01*
X155183100Y-107457180D01*
X155168100Y-107492180D01*
X155168100Y-108192180D01*
X155149100Y-108288180D01*
X155095100Y-108369180D01*
X155014100Y-108423180D01*
X154918100Y-108442180D01*
X154868100Y-108442180D01*
X154772100Y-108423180D01*
X154691100Y-108369180D01*
X154637100Y-108288180D01*
X154618100Y-108192180D01*
X154618100Y-107492180D01*
X154603100Y-107457180D01*
X154568100Y-107442180D01*
X154518100Y-107442180D01*
X154483100Y-107457180D01*
X154468100Y-107492180D01*
X154468100Y-108192180D01*
X154449100Y-108288180D01*
X154395100Y-108369180D01*
X154314100Y-108423180D01*
X154218100Y-108442180D01*
X154168100Y-108442180D01*
X154072100Y-108423180D01*
X153991100Y-108369180D01*
X153937100Y-108288180D01*
X153918100Y-108192180D01*
X153918100Y-107992180D01*
X153903100Y-107957180D01*
X153868100Y-107942180D01*
X153818100Y-107942180D01*
X153783100Y-107957180D01*
X153768100Y-107992180D01*
X153768100Y-108242180D01*
X151568100Y-108242180D01*
X151568100Y-107442180D01*
X153768100Y-107442180D01*
G37*
%TD.AperFunction*%
%TA.AperFunction,SMDPad,CuDef*%
G36*
X151564995Y-106136824D02*
G01*
X151565694Y-106133311D01*
X151566734Y-106129884D01*
X151568100Y-106126584D01*
X151568100Y-105742180D01*
X153768100Y-105742180D01*
X153768100Y-105992180D01*
X153782100Y-106027180D01*
X153818100Y-106042180D01*
X153868100Y-106042180D01*
X153963100Y-106061180D01*
X154045100Y-106115180D01*
X154099100Y-106196180D01*
X154118100Y-106292180D01*
X154118100Y-106492180D01*
X154132100Y-106527180D01*
X154168100Y-106542180D01*
X154218100Y-106542180D01*
X154253100Y-106527180D01*
X154268100Y-106492180D01*
X154268100Y-105792180D01*
X154287100Y-105696180D01*
X154341100Y-105615180D01*
X154422100Y-105561180D01*
X154518100Y-105542180D01*
X154568100Y-105542180D01*
X154663100Y-105561180D01*
X154745100Y-105615180D01*
X154799100Y-105696180D01*
X154818100Y-105792180D01*
X154818100Y-106492180D01*
X154832100Y-106527180D01*
X154868100Y-106542180D01*
X154918100Y-106542180D01*
X154953100Y-106527180D01*
X154968100Y-106492180D01*
X154968100Y-105792180D01*
X154987100Y-105696180D01*
X155041100Y-105615180D01*
X155122100Y-105561180D01*
X155218100Y-105542180D01*
X155268100Y-105542180D01*
X155363100Y-105561180D01*
X155445100Y-105615180D01*
X155499100Y-105696180D01*
X155518100Y-105792180D01*
X155518100Y-106492180D01*
X155532100Y-106527180D01*
X155568100Y-106542180D01*
X155618100Y-106542180D01*
X155653100Y-106527180D01*
X155668100Y-106492180D01*
X155668100Y-106292180D01*
X155687100Y-106196180D01*
X155741100Y-106115180D01*
X155822100Y-106061180D01*
X155918100Y-106042180D01*
X155968100Y-106042180D01*
X156027100Y-106061180D01*
X156063100Y-106111180D01*
X156063100Y-106173180D01*
X156027100Y-106223180D01*
X155968100Y-106242180D01*
X155918100Y-106242180D01*
X155882100Y-106257180D01*
X155868100Y-106292180D01*
X155868100Y-106492180D01*
X155849100Y-106588180D01*
X155795100Y-106669180D01*
X155713100Y-106723180D01*
X155618100Y-106742180D01*
X155568100Y-106742180D01*
X155472100Y-106723180D01*
X155391100Y-106669180D01*
X155337100Y-106588180D01*
X155318100Y-106492180D01*
X155318100Y-105792180D01*
X155303100Y-105757180D01*
X155268100Y-105742180D01*
X155218100Y-105742180D01*
X155182100Y-105757180D01*
X155168100Y-105792180D01*
X155168100Y-106492180D01*
X155149100Y-106588180D01*
X155095100Y-106669180D01*
X155013100Y-106723180D01*
X154918100Y-106742180D01*
X154868100Y-106742180D01*
X154772100Y-106723180D01*
X154691100Y-106669180D01*
X154637100Y-106588180D01*
X154618100Y-106492180D01*
X154618100Y-105792180D01*
X154603100Y-105757180D01*
X154568100Y-105742180D01*
X154518100Y-105742180D01*
X154482100Y-105757180D01*
X154468100Y-105792180D01*
X154468100Y-106492180D01*
X154449100Y-106588180D01*
X154395100Y-106669180D01*
X154313100Y-106723180D01*
X154218100Y-106742180D01*
X154168100Y-106742180D01*
X154072100Y-106723180D01*
X153991100Y-106669180D01*
X153937100Y-106588180D01*
X153918100Y-106492180D01*
X153918100Y-106292180D01*
X153903100Y-106257180D01*
X153868100Y-106242180D01*
X153818100Y-106242180D01*
X153782100Y-106257180D01*
X153768100Y-106292180D01*
X153768100Y-106542180D01*
X151568100Y-106542180D01*
X151568100Y-106157776D01*
X151566734Y-106154476D01*
X151565694Y-106151049D01*
X151564995Y-106147536D01*
X151564644Y-106143971D01*
X151564644Y-106140389D01*
X151564995Y-106136824D01*
G37*
%TD.AperFunction*%
%TA.AperFunction,SMDPad,CuDef*%
G36*
X153768100Y-104042180D02*
G01*
X153768100Y-104292180D01*
X153783100Y-104327180D01*
X153818100Y-104342180D01*
X153868100Y-104342180D01*
X153964100Y-104361180D01*
X154045100Y-104415180D01*
X154099100Y-104496180D01*
X154118100Y-104592180D01*
X154118100Y-104792180D01*
X154133100Y-104827180D01*
X154168100Y-104842180D01*
X154218100Y-104842180D01*
X154253100Y-104827180D01*
X154268100Y-104792180D01*
X154268100Y-104092180D01*
X154287100Y-103996180D01*
X154341100Y-103915180D01*
X154422100Y-103861180D01*
X154518100Y-103842180D01*
X154568100Y-103842180D01*
X154664100Y-103861180D01*
X154745100Y-103915180D01*
X154799100Y-103996180D01*
X154818100Y-104092180D01*
X154818100Y-104792180D01*
X154833100Y-104827180D01*
X154868100Y-104842180D01*
X154918100Y-104842180D01*
X154953100Y-104827180D01*
X154968100Y-104792180D01*
X154968100Y-104092180D01*
X154987100Y-103996180D01*
X155041100Y-103915180D01*
X155122100Y-103861180D01*
X155218100Y-103842180D01*
X155268100Y-103842180D01*
X155364100Y-103861180D01*
X155445100Y-103915180D01*
X155499100Y-103996180D01*
X155518100Y-104092180D01*
X155518100Y-104792180D01*
X155533100Y-104827180D01*
X155568100Y-104842180D01*
X155618100Y-104842180D01*
X155653100Y-104827180D01*
X155668100Y-104792180D01*
X155668100Y-104592180D01*
X155687100Y-104496180D01*
X155741100Y-104415180D01*
X155822100Y-104361180D01*
X155918100Y-104342180D01*
X155968100Y-104342180D01*
X156027100Y-104361180D01*
X156063100Y-104411180D01*
X156063100Y-104473180D01*
X156027100Y-104523180D01*
X155968100Y-104542180D01*
X155918100Y-104542180D01*
X155883100Y-104557180D01*
X155868100Y-104592180D01*
X155868100Y-104792180D01*
X155849100Y-104888180D01*
X155795100Y-104969180D01*
X155714100Y-105023180D01*
X155618100Y-105042180D01*
X155568100Y-105042180D01*
X155472100Y-105023180D01*
X155391100Y-104969180D01*
X155337100Y-104888180D01*
X155318100Y-104792180D01*
X155318100Y-104092180D01*
X155303100Y-104057180D01*
X155268100Y-104042180D01*
X155218100Y-104042180D01*
X155183100Y-104057180D01*
X155168100Y-104092180D01*
X155168100Y-104792180D01*
X155149100Y-104888180D01*
X155095100Y-104969180D01*
X155014100Y-105023180D01*
X154918100Y-105042180D01*
X154868100Y-105042180D01*
X154772100Y-105023180D01*
X154691100Y-104969180D01*
X154637100Y-104888180D01*
X154618100Y-104792180D01*
X154618100Y-104092180D01*
X154603100Y-104057180D01*
X154568100Y-104042180D01*
X154518100Y-104042180D01*
X154483100Y-104057180D01*
X154468100Y-104092180D01*
X154468100Y-104792180D01*
X154449100Y-104888180D01*
X154395100Y-104969180D01*
X154314100Y-105023180D01*
X154218100Y-105042180D01*
X154168100Y-105042180D01*
X154072100Y-105023180D01*
X153991100Y-104969180D01*
X153937100Y-104888180D01*
X153918100Y-104792180D01*
X153918100Y-104592180D01*
X153903100Y-104557180D01*
X153868100Y-104542180D01*
X153818100Y-104542180D01*
X153783100Y-104557180D01*
X153768100Y-104592180D01*
X153768100Y-104842180D01*
X151568100Y-104842180D01*
X151568100Y-104042180D01*
X153768100Y-104042180D01*
G37*
%TD.AperFunction*%
%TA.AperFunction,SMDPad,CuDef*%
G36*
X153768100Y-102442180D02*
G01*
X153768100Y-102692180D01*
X153783100Y-102727180D01*
X153818100Y-102742180D01*
X153868100Y-102742180D01*
X153964100Y-102761180D01*
X154045100Y-102815180D01*
X154099100Y-102896180D01*
X154118100Y-102992180D01*
X154118100Y-103192180D01*
X154133100Y-103227180D01*
X154168100Y-103242180D01*
X154218100Y-103242180D01*
X154253100Y-103227180D01*
X154268100Y-103192180D01*
X154268100Y-102492180D01*
X154287100Y-102396180D01*
X154341100Y-102315180D01*
X154422100Y-102261180D01*
X154518100Y-102242180D01*
X154568100Y-102242180D01*
X154664100Y-102261180D01*
X154745100Y-102315180D01*
X154799100Y-102396180D01*
X154818100Y-102492180D01*
X154818100Y-103192180D01*
X154833100Y-103227180D01*
X154868100Y-103242180D01*
X154918100Y-103242180D01*
X154953100Y-103227180D01*
X154968100Y-103192180D01*
X154968100Y-102492180D01*
X154987100Y-102396180D01*
X155041100Y-102315180D01*
X155122100Y-102261180D01*
X155218100Y-102242180D01*
X155268100Y-102242180D01*
X155364100Y-102261180D01*
X155445100Y-102315180D01*
X155499100Y-102396180D01*
X155518100Y-102492180D01*
X155518100Y-103192180D01*
X155533100Y-103227180D01*
X155568100Y-103242180D01*
X155618100Y-103242180D01*
X155653100Y-103227180D01*
X155668100Y-103192180D01*
X155668100Y-102992180D01*
X155687100Y-102896180D01*
X155741100Y-102815180D01*
X155822100Y-102761180D01*
X155918100Y-102742180D01*
X155968100Y-102742180D01*
X156027100Y-102761180D01*
X156063100Y-102811180D01*
X156063100Y-102873180D01*
X156027100Y-102923180D01*
X155968100Y-102942180D01*
X155918100Y-102942180D01*
X155883100Y-102957180D01*
X155868100Y-102992180D01*
X155868100Y-103192180D01*
X155849100Y-103288180D01*
X155795100Y-103369180D01*
X155714100Y-103423180D01*
X155618100Y-103442180D01*
X155568100Y-103442180D01*
X155472100Y-103423180D01*
X155391100Y-103369180D01*
X155337100Y-103288180D01*
X155318100Y-103192180D01*
X155318100Y-102492180D01*
X155303100Y-102457180D01*
X155268100Y-102442180D01*
X155218100Y-102442180D01*
X155183100Y-102457180D01*
X155168100Y-102492180D01*
X155168100Y-103192180D01*
X155149100Y-103288180D01*
X155095100Y-103369180D01*
X155014100Y-103423180D01*
X154918100Y-103442180D01*
X154868100Y-103442180D01*
X154772100Y-103423180D01*
X154691100Y-103369180D01*
X154637100Y-103288180D01*
X154618100Y-103192180D01*
X154618100Y-102492180D01*
X154603100Y-102457180D01*
X154568100Y-102442180D01*
X154518100Y-102442180D01*
X154483100Y-102457180D01*
X154468100Y-102492180D01*
X154468100Y-103192180D01*
X154449100Y-103288180D01*
X154395100Y-103369180D01*
X154314100Y-103423180D01*
X154218100Y-103442180D01*
X154168100Y-103442180D01*
X154072100Y-103423180D01*
X153991100Y-103369180D01*
X153937100Y-103288180D01*
X153918100Y-103192180D01*
X153918100Y-102992180D01*
X153903100Y-102957180D01*
X153868100Y-102942180D01*
X153818100Y-102942180D01*
X153783100Y-102957180D01*
X153768100Y-102992180D01*
X153768100Y-103242180D01*
X151568100Y-103242180D01*
X151568100Y-102442180D01*
X153768100Y-102442180D01*
G37*
%TD.AperFunction*%
%TD*%
D16*
%TO.N,*%
X151948100Y-102822180D03*
X153338100Y-102812180D03*
X151968100Y-104482180D03*
X153358100Y-104472180D03*
X153328100Y-106122180D03*
X151938100Y-106132180D03*
X153348100Y-107752180D03*
X151958100Y-107762180D03*
X151938100Y-109432180D03*
X153328100Y-109422180D03*
%TD*%
D17*
%TO.N,*%
X165518100Y-103517180D02*
X163863100Y-103517180D01*
X163863100Y-103517180D02*
X163088100Y-102742180D01*
X163088100Y-102742180D02*
X163088100Y-101982180D01*
X162498100Y-101392180D02*
X158368100Y-101392180D01*
X163088100Y-101982180D02*
X162498100Y-101392180D01*
X166218100Y-104267180D02*
X163333100Y-104267180D01*
X161908100Y-102842180D02*
X155968100Y-102842180D01*
X163333100Y-104267180D02*
X161908100Y-102842180D01*
X166218100Y-105017180D02*
X162993100Y-105017180D01*
X162418100Y-104442180D02*
X155968100Y-104442180D01*
X162993100Y-105017180D02*
X162418100Y-104442180D01*
X165518100Y-106517180D02*
X163773100Y-106517180D01*
X162448100Y-107842180D02*
X155968100Y-107842180D01*
X163773100Y-106517180D02*
X162448100Y-107842180D01*
X155968100Y-109442180D02*
X161768100Y-109442180D01*
X163943100Y-107267180D02*
X166218100Y-107267180D01*
X161768100Y-109442180D02*
X163943100Y-107267180D01*
X166218100Y-108017180D02*
X164543100Y-108017180D01*
X164543100Y-108017180D02*
X162908100Y-109652180D01*
X162908100Y-109652180D02*
X162908100Y-110372180D01*
X162388100Y-110892180D02*
X162908100Y-110372180D01*
X158368100Y-110892180D02*
X162388100Y-110892180D01*
X156888100Y-106122180D02*
X155978100Y-106132180D01*
X156908100Y-106142180D02*
X156888100Y-106122180D01*
X162588100Y-106142180D02*
X156908100Y-106142180D01*
X162963100Y-105767180D02*
X162588100Y-106142180D01*
X165518100Y-105767180D02*
X162963100Y-105767180D01*
%TD*%
M02*
