%TF.GenerationSoftware,KiCad,Pcbnew,(5.1.10)-1*%
%TF.CreationDate,2021-10-06T18:23:09-05:00*%
%TF.ProjectId,Flex_02,466c6578-5f30-4322-9e6b-696361645f70,rev?*%
%TF.SameCoordinates,Original*%
%TF.FileFunction,Profile,NP*%
%FSLAX46Y46*%
G04 Gerber Fmt 4.6, Leading zero omitted, Abs format (unit mm)*
G04 Created by KiCad (PCBNEW (5.1.10)-1) date 2021-10-06 18:23:09*
%MOMM*%
%LPD*%
G01*
G04 APERTURE LIST*
%TA.AperFunction,Profile*%
%ADD10C,0.050000*%
%TD*%
G04 APERTURE END LIST*
D10*
X149706767Y-108442725D02*
G75*
G02*
X149707000Y-103842000I-7138767J2300725D01*
G01*
X151268000Y-99648000D02*
X151268000Y-103597000D01*
X151268000Y-112637000D02*
X151268000Y-108688000D01*
X149706553Y-108442646D02*
G75*
G02*
X151268000Y-108688000I761447J-245354D01*
G01*
X151267466Y-103597200D02*
G75*
G02*
X149707000Y-103842000I-799466J200D01*
G01*
X155318000Y-100042000D02*
X164518000Y-100042000D01*
X155318000Y-112242000D02*
X164518000Y-112242000D01*
X153651000Y-99148000D02*
X151768000Y-99148000D01*
X153651000Y-113137000D02*
X151768000Y-113137000D01*
X153650669Y-99147382D02*
G75*
G02*
X154068000Y-99371000I331J-500618D01*
G01*
X154067668Y-112913383D02*
G75*
G02*
X153651000Y-113137000I-416668J276383D01*
G01*
X167518000Y-102892000D02*
X167518000Y-109392000D01*
X151768000Y-113137000D02*
G75*
G02*
X151268000Y-112637000I0J500000D01*
G01*
X151268000Y-99648000D02*
G75*
G02*
X151768000Y-99148000I500000J0D01*
G01*
X155317878Y-100041914D02*
G75*
G02*
X154068000Y-99371000I122J1499914D01*
G01*
X154067996Y-112912851D02*
G75*
G02*
X155318000Y-112242000I1250004J-829149D01*
G01*
X164518000Y-100042000D02*
X164518000Y-101392000D01*
X166018000Y-102892000D02*
X167518000Y-102892000D01*
X167518000Y-109392000D02*
X166018000Y-109392000D01*
X164518000Y-110892000D02*
X164518000Y-112242000D01*
X166018000Y-102892000D02*
G75*
G02*
X164518000Y-101392000I0J1500000D01*
G01*
X164518000Y-110892000D02*
G75*
G02*
X166018000Y-109392000I1500000J0D01*
G01*
M02*
