M48
; DRILL file {KiCad (5.1.10)-1} date 10/06/21 18:23:11
; FORMAT={-:-/ absolute / inch / decimal}
; #@! TF.CreationDate,2021-10-06T18:23:11-05:00
; #@! TF.GenerationSoftware,Kicad,Pcbnew,(5.1.10)-1
; #@! TF.FileFunction,Plated,1,2,PTH
FMAT,2
INCH
T1C0.0118
T2C0.0157
T3C0.0315
T4C0.1063
%
G90
G05
T1
X6.0106Y-4.0489
X6.0106Y-4.1139
X6.0106Y-4.1788
X6.0106Y-4.2438
X6.0106Y-4.3087
X6.5165Y-4.0755
X6.5165Y-4.105
X6.5165Y-4.1345
X6.5165Y-4.1641
X6.5165Y-4.1936
X6.5165Y-4.2231
X6.5165Y-4.2526
X6.5165Y-4.2822
X6.5716Y-4.0755
X6.5716Y-4.105
X6.5716Y-4.1345
X6.5716Y-4.1641
X6.5716Y-4.1936
X6.5716Y-4.2231
X6.5716Y-4.2526
X6.5716Y-4.2822
T2
X5.9818Y-4.1784
X5.9818Y-4.3084
X5.9822Y-4.0481
X5.9826Y-4.2426
X5.983Y-4.1135
X6.0365Y-4.178
X6.0365Y-4.308
X6.0369Y-4.0477
X6.0373Y-4.2422
X6.0377Y-4.1131
X6.1562Y-3.9918
X6.1562Y-4.3658
X6.235Y-3.9918
X6.235Y-4.3658
T3
X6.0066Y-3.9524
X6.0066Y-4.4052
T4
X5.6129Y-4.1788
T0
M30
