%TF.GenerationSoftware,KiCad,Pcbnew,(5.1.10)-1*%
%TF.CreationDate,2021-10-07T11:19:02-05:00*%
%TF.ProjectId,BYTE_PANELkicad_pcb,42595445-5f50-4414-9e45-4c6b69636164,v2.2*%
%TF.SameCoordinates,Original*%
%TF.FileFunction,Paste,Bot*%
%TF.FilePolarity,Positive*%
%FSLAX46Y46*%
G04 Gerber Fmt 4.6, Leading zero omitted, Abs format (unit mm)*
G04 Created by KiCad (PCBNEW (5.1.10)-1) date 2021-10-07 11:19:02*
%MOMM*%
%LPD*%
G01*
G04 APERTURE LIST*
%TA.AperFunction,Profile*%
%ADD10C,0.200000*%
%TD*%
%ADD11C,0.100000*%
%ADD12R,1.400000X1.600000*%
%ADD13R,0.304800X0.203200*%
%ADD14R,4.400000X1.000000*%
%ADD15R,0.800000X0.500000*%
%ADD16R,0.800000X0.400000*%
%ADD17R,1.100000X0.250000*%
%ADD18R,0.200000X0.800000*%
%ADD19C,1.143000*%
%ADD20O,2.032000X1.016000*%
G04 APERTURE END LIST*
D10*
X168690379Y-96462228D02*
X169130379Y-96462228D01*
X148898100Y-64072180D02*
X148888100Y-65112180D01*
X151918100Y-64072180D02*
X151938100Y-65112180D01*
X145638100Y-94510004D02*
X145638100Y-96762180D01*
X142458100Y-96762180D02*
X142458100Y-94510004D01*
X145638100Y-96762180D02*
X147788100Y-96762180D01*
X162068100Y-94510004D02*
X145638100Y-94510004D01*
X147788100Y-96762180D02*
X147788100Y-103892180D01*
X140778100Y-103872180D02*
X140798100Y-96762180D01*
X157156100Y-55162180D02*
X160298100Y-55182180D01*
X160298100Y-51992180D02*
X157158100Y-51992180D01*
X160298100Y-61762180D02*
X160298100Y-55182180D01*
X157156100Y-43242180D02*
X157158100Y-51992180D01*
X162658100Y-61762180D02*
X162578100Y-65012180D01*
X165708100Y-65012180D02*
X165648100Y-61762180D01*
X167298100Y-61762180D02*
X165648100Y-61762180D01*
X168087294Y-65021970D02*
X165708100Y-65012180D01*
X154687294Y-65121970D02*
X151938100Y-65112180D01*
X157156100Y-64070180D02*
X151918100Y-64072180D01*
X162658100Y-61762180D02*
X160298100Y-61762180D01*
X160298100Y-51992180D02*
X160298100Y-44762180D01*
X160298100Y-44762180D02*
X167298100Y-44762180D01*
X167298100Y-44762180D02*
X167298100Y-61762180D01*
X147798100Y-106722180D02*
X147798100Y-113762180D01*
X140798100Y-96762180D02*
X142458100Y-96762180D01*
X140798100Y-113762180D02*
X140798100Y-107012180D01*
X147798100Y-113762180D02*
X140798100Y-113762180D01*
X138338100Y-65222180D02*
X138338100Y-64072180D01*
X135318100Y-64070180D02*
X135318100Y-65212180D01*
X135318100Y-65212180D02*
X132588100Y-65212180D01*
X148898100Y-64072180D02*
X138338100Y-64072180D01*
X124748100Y-64070180D02*
X124738100Y-65322180D01*
X121508100Y-65312180D02*
X121528100Y-64070180D01*
X135318100Y-64070180D02*
X124748100Y-64070180D01*
X127587294Y-65321970D02*
X124738100Y-65322180D01*
X162558100Y-74012180D02*
X162588100Y-75210004D01*
X165188100Y-75202180D02*
X165178100Y-74002180D01*
X165178100Y-74002180D02*
X169888100Y-74012180D01*
X165190000Y-75200004D02*
X170720000Y-75210004D01*
X151848100Y-74112180D02*
X151828100Y-75210004D01*
X149018100Y-75210004D02*
X149008100Y-74112180D01*
X151828100Y-75210004D02*
X162588100Y-75210004D01*
X151848100Y-74112180D02*
X156488100Y-74112180D01*
X138088100Y-74212180D02*
X138078100Y-75210004D01*
X135658100Y-74212180D02*
X135678100Y-75210004D01*
X138078100Y-75210004D02*
X149018100Y-75210004D01*
X130588100Y-74212180D02*
X135658100Y-74212180D01*
X122048100Y-75210004D02*
X122038100Y-74312180D01*
X124798100Y-75210004D02*
X124778100Y-74312180D01*
X124798100Y-75210004D02*
X135678100Y-75210004D01*
X124778100Y-74312180D02*
X129388100Y-74312180D01*
X169888100Y-74012180D02*
X169878310Y-66814500D01*
X157688100Y-74012180D02*
X157688100Y-67012180D01*
X157688100Y-74012180D02*
X162558100Y-74012180D01*
X157688100Y-67012180D02*
G75*
G02*
X159688100Y-65012180I2000000J0D01*
G01*
X168087294Y-65021969D02*
G75*
G02*
X169878309Y-66814499I806J-1790211D01*
G01*
X162578100Y-65012180D02*
X159688100Y-65012180D01*
X144288100Y-74112180D02*
X149008100Y-74112180D01*
X154687294Y-65121969D02*
G75*
G02*
X156478309Y-66914499I806J-1790211D01*
G01*
X156488100Y-74112180D02*
X156478310Y-66914500D01*
X148888100Y-65112180D02*
X146288100Y-65112180D01*
X144288100Y-67112180D02*
G75*
G02*
X146288100Y-65112180I2000000J0D01*
G01*
X144288100Y-74112180D02*
X144288100Y-67112180D01*
X138088100Y-74212180D02*
X142788100Y-74212180D01*
X140987294Y-65221969D02*
G75*
G02*
X142778309Y-67014499I806J-1790211D01*
G01*
X142788100Y-74212180D02*
X142778310Y-67014500D01*
X140985780Y-65221970D02*
X138338100Y-65222180D01*
X130588100Y-67212180D02*
G75*
G02*
X132588100Y-65212180I2000000J0D01*
G01*
X130588100Y-74212180D02*
X130588100Y-67212180D01*
X162068100Y-94510004D02*
X162068100Y-96462228D01*
X164768100Y-94510004D02*
X164768100Y-96462228D01*
X142458100Y-94510004D02*
X127868100Y-94510004D01*
X162068100Y-96462228D02*
X152439691Y-96462228D01*
X125768100Y-94510004D02*
X125768100Y-96442180D01*
X127868100Y-96442180D02*
X127868100Y-94510004D01*
X170720000Y-94510004D02*
X164768100Y-94510004D01*
X135996509Y-96442180D02*
X127868100Y-96442180D01*
X121508100Y-65312180D02*
X119188100Y-65312180D01*
X117188100Y-74312180D02*
X122038100Y-74312180D01*
X129388100Y-74312180D02*
X129378310Y-67114500D01*
X117188100Y-67312180D02*
G75*
G02*
X119188100Y-65312180I2000000J0D01*
G01*
X127587294Y-65321969D02*
G75*
G02*
X129378309Y-67114499I806J-1790211D01*
G01*
X117188100Y-74312180D02*
X117188100Y-67312180D01*
X149664215Y-100587209D02*
X149547799Y-100875525D01*
X149788569Y-100301830D02*
X149664215Y-100587209D01*
X151018880Y-98140002D02*
X150841610Y-98397203D01*
X148785800Y-103890832D02*
X147788100Y-103892180D01*
X147798100Y-106722180D02*
X148751404Y-106721733D01*
X149338778Y-101460413D02*
X149243528Y-101756746D01*
X150669631Y-98658399D02*
X150505589Y-98923432D01*
X148830779Y-103580469D02*
X148785800Y-103890832D01*
X151791463Y-97153663D02*
X151587734Y-97393613D01*
X148785800Y-107033576D02*
X148830779Y-107343939D01*
X149547799Y-100875525D02*
X149439320Y-101166646D01*
X150505589Y-98923432D02*
X150349485Y-99192195D01*
X149076841Y-102356449D02*
X149002758Y-102659582D01*
X149243528Y-101756746D02*
X149156216Y-102055460D01*
X151391942Y-97638088D02*
X151201443Y-97886928D01*
X168690379Y-96462228D02*
X164768100Y-96462228D01*
X169426712Y-96476886D02*
X169278545Y-96465906D01*
X151587734Y-97393613D02*
X151391942Y-97638088D01*
X152439691Y-96462228D02*
X152217441Y-96687838D01*
X149664215Y-110337199D02*
X149788569Y-110622578D01*
X149918215Y-110904914D02*
X150053152Y-111184049D01*
X149076841Y-108567959D02*
X149156216Y-108868948D01*
X149243528Y-109167662D02*
X149338778Y-109463995D01*
X149156216Y-108868948D02*
X149243528Y-109167662D01*
X149002758Y-108264826D02*
X149076841Y-108567959D01*
X150198673Y-111459851D02*
X150349485Y-111732213D01*
X149788569Y-110622578D02*
X149918215Y-110904914D01*
X170000857Y-114332508D02*
X170141086Y-114286523D01*
X148936612Y-102964707D02*
X148881050Y-103271716D01*
X169717753Y-114404025D02*
X169860628Y-114371719D01*
X170670252Y-114036598D02*
X170794606Y-113958149D01*
X149439320Y-109757762D02*
X149547799Y-110048883D01*
X149547799Y-110048883D02*
X149664215Y-110337199D01*
X170410961Y-114174552D02*
X170540606Y-114108776D01*
X169572233Y-114429319D02*
X169717753Y-114404025D01*
X149338778Y-109463995D02*
X149439320Y-109757762D01*
X170913668Y-113873536D02*
X171030085Y-113782810D01*
X169278545Y-114458502D02*
X169426712Y-114447522D01*
X148881050Y-107652692D02*
X148936612Y-107959701D01*
X150053152Y-111184049D02*
X150198673Y-111459851D01*
X172038146Y-112193460D02*
X172069896Y-112050188D01*
X148936612Y-107959701D02*
X149002758Y-108264826D01*
X149918215Y-100019494D02*
X149788569Y-100301830D01*
X170141086Y-96637885D02*
X170000857Y-96591900D01*
X152000483Y-96918369D02*
X151791463Y-97153663D01*
X148881050Y-103271716D02*
X148830779Y-103580469D01*
X150198673Y-99464557D02*
X150053152Y-99740359D01*
X169278545Y-96465906D02*
X169130379Y-96462228D01*
X152217441Y-96687838D02*
X152000483Y-96918369D01*
X172038146Y-98730948D02*
X171998459Y-98589713D01*
X150841610Y-98397203D02*
X150669631Y-98658399D01*
X171900563Y-98314150D02*
X171842355Y-98180351D01*
X151201443Y-97886928D02*
X151018880Y-98140002D01*
X150053152Y-99740359D02*
X149918215Y-100019494D01*
X148751404Y-106721733D02*
X148785800Y-107033576D01*
X149002758Y-102659582D02*
X148936612Y-102964707D01*
X149439320Y-101166646D02*
X149338778Y-101460413D01*
X150349485Y-99192195D02*
X150198673Y-99464557D01*
X170276023Y-96690563D02*
X170141086Y-96637885D01*
X148830779Y-107343939D02*
X148881050Y-107652692D01*
X149156216Y-102055460D02*
X149076841Y-102356449D01*
X172125459Y-99313454D02*
X172114875Y-99165711D01*
X170141086Y-114286523D02*
X170276023Y-114233845D01*
X152000483Y-114006039D02*
X152217441Y-114236570D01*
X151587734Y-113530795D02*
X151791463Y-113770745D01*
X151018880Y-112784406D02*
X151201443Y-113037480D01*
X171625397Y-113126591D02*
X171704772Y-113002476D01*
X171998459Y-112334695D02*
X172038146Y-112193460D01*
X171842355Y-112744057D02*
X171900563Y-112610258D01*
X150841610Y-112527205D02*
X151018880Y-112784406D01*
X150349485Y-111732213D02*
X150505589Y-112000976D01*
X169426712Y-114447522D02*
X169572233Y-114429319D01*
X170540606Y-114108776D02*
X170670252Y-114036598D01*
X150505589Y-112000976D02*
X150669631Y-112266009D01*
X172125459Y-111610954D02*
X172128104Y-111462206D01*
X161707278Y-105453754D02*
G75*
G03*
X161707278Y-105453754I-1500000J0D01*
G01*
X152217441Y-114236570D02*
X152439691Y-114462180D01*
X172096354Y-111905197D02*
X172114875Y-111758697D01*
X171030085Y-113782810D02*
X171143856Y-113686105D01*
X172069896Y-112050188D02*
X172096354Y-111905197D01*
X171540730Y-113247003D02*
X171625397Y-113126591D01*
X150669631Y-112266009D02*
X150841610Y-112527205D01*
X172114875Y-111758697D02*
X172125459Y-111610954D01*
X171776209Y-112874867D02*
X171842355Y-112744057D01*
X170276023Y-114233845D02*
X170410961Y-114174552D01*
X170670252Y-96887810D02*
X170540606Y-96815632D01*
X169572233Y-96495089D02*
X169426712Y-96476886D01*
X172128104Y-99462202D02*
X172125459Y-99313454D01*
X170410961Y-96749856D02*
X170276023Y-96690563D01*
X171450772Y-97560935D02*
X171352876Y-97448699D01*
X171704772Y-97921932D02*
X171625397Y-97797817D01*
X170913668Y-97050872D02*
X170794606Y-96966259D01*
X170000857Y-96591900D02*
X169860628Y-96552689D01*
X172114875Y-99165711D02*
X172096354Y-99019211D01*
X171625397Y-97797817D02*
X171540730Y-97677405D01*
X169717753Y-96520383D02*
X169572233Y-96495089D01*
X169130379Y-114462180D02*
X169278545Y-114458502D01*
X151391942Y-113286320D02*
X151587734Y-113530795D01*
X169860628Y-114371719D02*
X170000857Y-114332508D01*
X151791463Y-113770745D02*
X152000483Y-114006039D01*
X171900563Y-112610258D02*
X171953480Y-112473706D01*
X171450772Y-113363473D02*
X171540730Y-113247003D01*
X171143856Y-113686105D02*
X171249689Y-113583525D01*
X171953480Y-112473706D02*
X171998459Y-112334695D01*
X151201443Y-113037480D02*
X151391942Y-113286320D01*
X171352876Y-113475709D02*
X171450772Y-113363473D01*
X152439691Y-114462180D02*
X169130379Y-114462180D01*
X170794606Y-113958149D02*
X170913668Y-113873536D01*
X171704772Y-113002476D02*
X171776209Y-112874867D01*
X171249689Y-113583525D02*
X171352876Y-113475709D01*
X171842355Y-98180351D02*
X171776209Y-98049541D01*
X171143856Y-97238303D02*
X171030085Y-97141598D01*
X169860628Y-96552689D02*
X169717753Y-96520383D01*
X171776209Y-98049541D02*
X171704772Y-97921932D01*
X170794606Y-96966259D02*
X170670252Y-96887810D01*
X172069896Y-98874220D02*
X172038146Y-98730948D01*
X172128104Y-111462206D02*
X172128104Y-99462202D01*
X171352876Y-97448699D02*
X171249689Y-97340883D01*
X171249689Y-97340883D02*
X171143856Y-97238303D01*
X171030085Y-97141598D02*
X170913668Y-97050872D01*
X172096354Y-99019211D02*
X172069896Y-98874220D01*
X170540606Y-96815632D02*
X170410961Y-96749856D01*
X171998459Y-98589713D02*
X171953480Y-98450702D01*
X171540730Y-97677405D02*
X171450772Y-97560935D01*
X171953480Y-98450702D02*
X171900563Y-98314150D01*
X117720000Y-94510004D02*
G75*
G02*
X116720000Y-93510004I0J1000000D01*
G01*
X170720000Y-75210004D02*
G75*
G02*
X171720000Y-76210004I0J-1000000D01*
G01*
X170420000Y-91860004D02*
X171720000Y-91860004D01*
X125768100Y-94510004D02*
X117720000Y-94510004D01*
X116720000Y-76210004D02*
G75*
G02*
X117720000Y-75210004I1000000J0D01*
G01*
X122620000Y-84860004D02*
G75*
G03*
X122620000Y-84860004I-900000J0D01*
G01*
X136020001Y-77510004D02*
G75*
G03*
X136020001Y-77510004I-1300001J0D01*
G01*
X170420000Y-91860004D02*
G75*
G02*
X170420000Y-85860004I0J3000000D01*
G01*
X136020001Y-92210004D02*
G75*
G03*
X136020001Y-92210004I-1300001J0D01*
G01*
X171720000Y-91860004D02*
X171720000Y-93510004D01*
X171720000Y-93510004D02*
G75*
G02*
X170720000Y-94510004I-1000000J0D01*
G01*
X116720000Y-93510004D02*
X116720000Y-76210004D01*
X171720000Y-85860004D02*
X170420000Y-85860004D01*
X117720000Y-75210004D02*
X122048100Y-75210004D01*
X171720000Y-76210004D02*
X171720000Y-85860004D01*
X116748096Y-99442154D02*
X116748096Y-111442158D01*
X116806304Y-112030140D02*
X116838054Y-112173412D01*
X118081594Y-113938101D02*
X118205948Y-114016550D01*
X119015572Y-114351671D02*
X119158447Y-114383977D01*
X117099991Y-112854819D02*
X117171428Y-112982428D01*
X117732344Y-113666057D02*
X117846115Y-113762762D01*
X117033845Y-112724009D02*
X117099991Y-112854819D01*
X117962532Y-113853488D02*
X118081594Y-113938101D01*
X116761325Y-111738649D02*
X116779846Y-111885149D01*
X117250803Y-113106543D02*
X117335470Y-113226955D01*
X119158447Y-114383977D02*
X119303967Y-114409271D01*
X118205948Y-114016550D02*
X118335594Y-114088728D01*
X117171428Y-112982428D02*
X117250803Y-113106543D01*
X118875343Y-114312460D02*
X119015572Y-114351671D01*
X117425428Y-113343425D02*
X117523324Y-113455661D01*
X118465239Y-114154504D02*
X118600177Y-114213797D01*
X116748096Y-111442158D02*
X116750741Y-111590906D01*
X119303967Y-114409271D02*
X119449488Y-114427474D01*
X116922720Y-112453658D02*
X116975637Y-112590210D01*
X117335470Y-113226955D02*
X117425428Y-113343425D01*
X116877741Y-112314647D02*
X116922720Y-112453658D01*
X118335594Y-114088728D02*
X118465239Y-114154504D01*
X116779846Y-111885149D02*
X116806304Y-112030140D01*
X117846115Y-113762762D02*
X117962532Y-113853488D01*
X117626511Y-113563477D02*
X117732344Y-113666057D01*
X117523324Y-113455661D02*
X117626511Y-113563477D01*
X116750741Y-111590906D02*
X116761325Y-111738649D01*
X116975637Y-112590210D02*
X117033845Y-112724009D01*
X118735114Y-114266475D02*
X118875343Y-114312460D01*
X116838054Y-112173412D02*
X116877741Y-112314647D01*
X118600177Y-114213797D02*
X118735114Y-114266475D01*
X119597655Y-114438454D02*
X119745821Y-114442132D01*
X139555150Y-107632644D02*
X139605421Y-107323891D01*
X136218759Y-114216522D02*
X136435717Y-113985991D01*
X136435717Y-113985991D02*
X136644737Y-113750697D01*
X137234757Y-113017432D02*
X137417320Y-112764358D01*
X137594590Y-112507157D02*
X137766569Y-112245961D01*
X138086715Y-111712165D02*
X138237527Y-111439803D01*
X138237527Y-111439803D02*
X138383048Y-111164001D01*
X138517985Y-110884866D02*
X138647631Y-110602530D01*
X139279984Y-108848900D02*
X139359359Y-108547911D01*
X138996880Y-109737714D02*
X139097422Y-109443947D01*
X139433442Y-108244778D02*
X139499588Y-107939653D01*
X139605421Y-103560421D02*
X139555150Y-103251668D01*
X140778100Y-103872180D02*
X139650400Y-103870784D01*
X138383048Y-111164001D02*
X138517985Y-110884866D01*
X139097422Y-109443947D02*
X139192672Y-109147614D01*
X139650400Y-107013528D02*
X140798100Y-107012180D01*
X139359359Y-108547911D02*
X139433442Y-108244778D01*
X135996509Y-114442132D02*
X136218759Y-114216522D01*
X136644737Y-113750697D02*
X136848466Y-113510747D01*
X136848466Y-113510747D02*
X137044258Y-113266272D01*
X137417320Y-112764358D02*
X137594590Y-112507157D01*
X138647631Y-110602530D02*
X138771985Y-110317151D01*
X138771985Y-110317151D02*
X138888401Y-110028835D01*
X119449488Y-114427474D02*
X119597655Y-114438454D01*
X119745821Y-114442132D02*
X135996509Y-114442132D01*
X137044258Y-113266272D02*
X137234757Y-113017432D01*
X137930611Y-111980928D02*
X138086715Y-111712165D01*
X139192672Y-109147614D02*
X139279984Y-108848900D01*
X139650400Y-103870784D02*
X139605421Y-103560421D01*
X138888401Y-110028835D02*
X138996880Y-109737714D01*
X139605421Y-107323891D02*
X139650400Y-107013528D01*
X137766569Y-112245961D02*
X137930611Y-111980928D01*
X139499588Y-107939653D02*
X139555150Y-107632644D01*
X139279984Y-102035412D02*
X139192672Y-101736698D01*
X138647631Y-100281782D02*
X138517985Y-99999446D01*
X138237527Y-99444509D02*
X138086715Y-99172147D01*
X139555150Y-103251668D02*
X139499588Y-102944659D01*
X139499588Y-102944659D02*
X139433442Y-102639534D01*
X139433442Y-102639534D02*
X139359359Y-102336401D01*
X138996880Y-101146598D02*
X138888401Y-100855477D01*
X138771985Y-100567161D02*
X138647631Y-100281782D01*
X139192672Y-101736698D02*
X139097422Y-101440365D01*
X139359359Y-102336401D02*
X139279984Y-102035412D01*
X139097422Y-101440365D02*
X138996880Y-101146598D01*
X138888401Y-100855477D02*
X138771985Y-100567161D01*
X138383048Y-99720311D02*
X138237527Y-99444509D01*
X138517985Y-99999446D02*
X138383048Y-99720311D01*
X116838054Y-98710900D02*
X116806304Y-98854172D01*
X119597655Y-96445858D02*
X119449488Y-96456838D01*
X117962532Y-97030824D02*
X117846115Y-97121550D01*
X119303967Y-96475041D02*
X119158447Y-96500335D01*
X118465239Y-96729808D02*
X118335594Y-96795584D01*
X118205948Y-96867762D02*
X118081594Y-96946211D01*
X119158447Y-96500335D02*
X119015572Y-96532641D01*
X118875343Y-96571852D02*
X118735114Y-96617837D01*
X116806304Y-98854172D02*
X116779846Y-98999163D01*
X138086715Y-99172147D02*
X137930611Y-98903384D01*
X136218759Y-96667790D02*
X135996509Y-96442180D01*
X137930611Y-98903384D02*
X137766569Y-98638351D01*
X137766569Y-98638351D02*
X137594590Y-98377155D01*
X118600177Y-96670515D02*
X118465239Y-96729808D01*
X137594590Y-98377155D02*
X137417320Y-98119954D01*
X137417320Y-98119954D02*
X137234757Y-97866880D01*
X116750741Y-99293406D02*
X116748096Y-99442154D01*
X136848466Y-97373565D02*
X136644737Y-97133615D01*
X117335470Y-97657357D02*
X117250803Y-97777769D01*
X117250803Y-97777769D02*
X117171428Y-97901884D01*
X117099991Y-98029493D02*
X117033845Y-98160303D01*
X116761325Y-99145663D02*
X116750741Y-99293406D01*
X136435717Y-96898321D02*
X136218759Y-96667790D01*
X118735114Y-96617837D02*
X118600177Y-96670515D01*
X118335594Y-96795584D02*
X118205948Y-96867762D01*
X117846115Y-97121550D02*
X117732344Y-97218255D01*
X116779846Y-98999163D02*
X116761325Y-99145663D01*
X129728922Y-105450606D02*
G75*
G03*
X129728922Y-105450606I-1500000J0D01*
G01*
X119449488Y-96456838D02*
X119303967Y-96475041D01*
X117033845Y-98160303D02*
X116975637Y-98294102D01*
X116877741Y-98569665D02*
X116838054Y-98710900D01*
X117732344Y-97218255D02*
X117626511Y-97320835D01*
X117523324Y-97428651D02*
X117425428Y-97540887D01*
X117425428Y-97540887D02*
X117335470Y-97657357D01*
X116975637Y-98294102D02*
X116922720Y-98430654D01*
X116922720Y-98430654D02*
X116877741Y-98569665D01*
X137234757Y-97866880D02*
X137044258Y-97618040D01*
X117171428Y-97901884D02*
X117099991Y-98029493D01*
X137044258Y-97618040D02*
X136848466Y-97373565D01*
X136644737Y-97133615D02*
X136435717Y-96898321D01*
X117626511Y-97320835D02*
X117523324Y-97428651D01*
X118081594Y-96946211D02*
X117962532Y-97030824D01*
X125768100Y-96442180D02*
X119745821Y-96442180D01*
X119015572Y-96532641D02*
X118875343Y-96571852D01*
X119745821Y-96442180D02*
X119597655Y-96445858D01*
X116516100Y-43242180D02*
X157156100Y-43242180D01*
X116516100Y-64070180D02*
X116516100Y-43242180D01*
X121528100Y-64070180D02*
X116516100Y-64070180D01*
X157156100Y-55162180D02*
X157156100Y-64070180D01*
D11*
%TO.C,U3*%
G36*
X119047540Y-106073400D02*
G01*
X119047540Y-105870200D01*
X118730040Y-105870200D01*
X118628440Y-105971800D01*
X118628440Y-106073400D01*
X119047540Y-106073400D01*
G37*
X119047540Y-106073400D02*
X119047540Y-105870200D01*
X118730040Y-105870200D01*
X118628440Y-105971800D01*
X118628440Y-106073400D01*
X119047540Y-106073400D01*
G36*
X117848660Y-106073400D02*
G01*
X117848660Y-105870200D01*
X118166160Y-105870200D01*
X118267760Y-105971800D01*
X118267760Y-106073400D01*
X117848660Y-106073400D01*
G37*
X117848660Y-106073400D02*
X117848660Y-105870200D01*
X118166160Y-105870200D01*
X118267760Y-105971800D01*
X118267760Y-106073400D01*
X117848660Y-106073400D01*
G36*
X117848660Y-105369820D02*
G01*
X117848660Y-105573020D01*
X118166160Y-105573020D01*
X118267760Y-105471420D01*
X118166160Y-105369820D01*
X117848660Y-105369820D01*
G37*
X117848660Y-105369820D02*
X117848660Y-105573020D01*
X118166160Y-105573020D01*
X118267760Y-105471420D01*
X118166160Y-105369820D01*
X117848660Y-105369820D01*
G36*
X117848660Y-104869440D02*
G01*
X117848660Y-105072640D01*
X118166160Y-105072640D01*
X118267760Y-104971040D01*
X118267760Y-104869440D01*
X117848660Y-104869440D01*
G37*
X117848660Y-104869440D02*
X117848660Y-105072640D01*
X118166160Y-105072640D01*
X118267760Y-104971040D01*
X118267760Y-104869440D01*
X117848660Y-104869440D01*
G36*
X119047540Y-104869440D02*
G01*
X119047540Y-105072640D01*
X118730040Y-105072640D01*
X118628440Y-104971040D01*
X118628440Y-104869440D01*
X119047540Y-104869440D01*
G37*
X119047540Y-104869440D02*
X119047540Y-105072640D01*
X118730040Y-105072640D01*
X118628440Y-104971040D01*
X118628440Y-104869440D01*
X119047540Y-104869440D01*
G36*
X119047540Y-105369820D02*
G01*
X119047540Y-105573020D01*
X118730040Y-105573020D01*
X118628440Y-105471420D01*
X118730040Y-105369820D01*
X119047540Y-105369820D01*
G37*
X119047540Y-105369820D02*
X119047540Y-105573020D01*
X118730040Y-105573020D01*
X118628440Y-105471420D01*
X118730040Y-105369820D01*
X119047540Y-105369820D01*
%TD*%
D12*
%TO.C,SW1*%
X142220000Y-81260004D03*
X142220000Y-88460004D03*
X139220000Y-81260004D03*
X139220000Y-88460004D03*
%TD*%
%TO.C,SW2*%
X156220000Y-81260004D03*
X156220000Y-88460004D03*
X153220000Y-81260004D03*
X153220000Y-88460004D03*
%TD*%
%TO.C,R12*%
G36*
G01*
X168305000Y-78495000D02*
X167755000Y-78495000D01*
G75*
G02*
X167555000Y-78295000I0J200000D01*
G01*
X167555000Y-77895000D01*
G75*
G02*
X167755000Y-77695000I200000J0D01*
G01*
X168305000Y-77695000D01*
G75*
G02*
X168505000Y-77895000I0J-200000D01*
G01*
X168505000Y-78295000D01*
G75*
G02*
X168305000Y-78495000I-200000J0D01*
G01*
G37*
G36*
G01*
X168305000Y-80145000D02*
X167755000Y-80145000D01*
G75*
G02*
X167555000Y-79945000I0J200000D01*
G01*
X167555000Y-79545000D01*
G75*
G02*
X167755000Y-79345000I200000J0D01*
G01*
X168305000Y-79345000D01*
G75*
G02*
X168505000Y-79545000I0J-200000D01*
G01*
X168505000Y-79945000D01*
G75*
G02*
X168305000Y-80145000I-200000J0D01*
G01*
G37*
%TD*%
%TO.C,R11*%
G36*
G01*
X166285000Y-79340000D02*
X166835000Y-79340000D01*
G75*
G02*
X167035000Y-79540000I0J-200000D01*
G01*
X167035000Y-79940000D01*
G75*
G02*
X166835000Y-80140000I-200000J0D01*
G01*
X166285000Y-80140000D01*
G75*
G02*
X166085000Y-79940000I0J200000D01*
G01*
X166085000Y-79540000D01*
G75*
G02*
X166285000Y-79340000I200000J0D01*
G01*
G37*
G36*
G01*
X166285000Y-77690000D02*
X166835000Y-77690000D01*
G75*
G02*
X167035000Y-77890000I0J-200000D01*
G01*
X167035000Y-78290000D01*
G75*
G02*
X166835000Y-78490000I-200000J0D01*
G01*
X166285000Y-78490000D01*
G75*
G02*
X166085000Y-78290000I0J200000D01*
G01*
X166085000Y-77890000D01*
G75*
G02*
X166285000Y-77690000I200000J0D01*
G01*
G37*
%TD*%
%TO.C,R6*%
G36*
G01*
X121685000Y-82855000D02*
X121685000Y-82305000D01*
G75*
G02*
X121885000Y-82105000I200000J0D01*
G01*
X122285000Y-82105000D01*
G75*
G02*
X122485000Y-82305000I0J-200000D01*
G01*
X122485000Y-82855000D01*
G75*
G02*
X122285000Y-83055000I-200000J0D01*
G01*
X121885000Y-83055000D01*
G75*
G02*
X121685000Y-82855000I0J200000D01*
G01*
G37*
G36*
G01*
X120035000Y-82855000D02*
X120035000Y-82305000D01*
G75*
G02*
X120235000Y-82105000I200000J0D01*
G01*
X120635000Y-82105000D01*
G75*
G02*
X120835000Y-82305000I0J-200000D01*
G01*
X120835000Y-82855000D01*
G75*
G02*
X120635000Y-83055000I-200000J0D01*
G01*
X120235000Y-83055000D01*
G75*
G02*
X120035000Y-82855000I0J200000D01*
G01*
G37*
%TD*%
%TO.C,D3*%
G36*
G01*
X125020000Y-83076250D02*
X125020000Y-82163750D01*
G75*
G02*
X125263750Y-81920000I243750J0D01*
G01*
X125751250Y-81920000D01*
G75*
G02*
X125995000Y-82163750I0J-243750D01*
G01*
X125995000Y-83076250D01*
G75*
G02*
X125751250Y-83320000I-243750J0D01*
G01*
X125263750Y-83320000D01*
G75*
G02*
X125020000Y-83076250I0J243750D01*
G01*
G37*
G36*
G01*
X123145000Y-83076250D02*
X123145000Y-82163750D01*
G75*
G02*
X123388750Y-81920000I243750J0D01*
G01*
X123876250Y-81920000D01*
G75*
G02*
X124120000Y-82163750I0J-243750D01*
G01*
X124120000Y-83076250D01*
G75*
G02*
X123876250Y-83320000I-243750J0D01*
G01*
X123388750Y-83320000D01*
G75*
G02*
X123145000Y-83076250I0J243750D01*
G01*
G37*
%TD*%
%TO.C,R4*%
G36*
G01*
X121705000Y-87315000D02*
X121705000Y-86765000D01*
G75*
G02*
X121905000Y-86565000I200000J0D01*
G01*
X122305000Y-86565000D01*
G75*
G02*
X122505000Y-86765000I0J-200000D01*
G01*
X122505000Y-87315000D01*
G75*
G02*
X122305000Y-87515000I-200000J0D01*
G01*
X121905000Y-87515000D01*
G75*
G02*
X121705000Y-87315000I0J200000D01*
G01*
G37*
G36*
G01*
X120055000Y-87315000D02*
X120055000Y-86765000D01*
G75*
G02*
X120255000Y-86565000I200000J0D01*
G01*
X120655000Y-86565000D01*
G75*
G02*
X120855000Y-86765000I0J-200000D01*
G01*
X120855000Y-87315000D01*
G75*
G02*
X120655000Y-87515000I-200000J0D01*
G01*
X120255000Y-87515000D01*
G75*
G02*
X120055000Y-87315000I0J200000D01*
G01*
G37*
%TD*%
%TO.C,R1*%
G36*
G01*
X170365000Y-81945000D02*
X169815000Y-81945000D01*
G75*
G02*
X169615000Y-81745000I0J200000D01*
G01*
X169615000Y-81345000D01*
G75*
G02*
X169815000Y-81145000I200000J0D01*
G01*
X170365000Y-81145000D01*
G75*
G02*
X170565000Y-81345000I0J-200000D01*
G01*
X170565000Y-81745000D01*
G75*
G02*
X170365000Y-81945000I-200000J0D01*
G01*
G37*
G36*
G01*
X170365000Y-83595000D02*
X169815000Y-83595000D01*
G75*
G02*
X169615000Y-83395000I0J200000D01*
G01*
X169615000Y-82995000D01*
G75*
G02*
X169815000Y-82795000I200000J0D01*
G01*
X170365000Y-82795000D01*
G75*
G02*
X170565000Y-82995000I0J-200000D01*
G01*
X170565000Y-83395000D01*
G75*
G02*
X170365000Y-83595000I-200000J0D01*
G01*
G37*
%TD*%
%TO.C,D2*%
G36*
G01*
X125050000Y-87501250D02*
X125050000Y-86588750D01*
G75*
G02*
X125293750Y-86345000I243750J0D01*
G01*
X125781250Y-86345000D01*
G75*
G02*
X126025000Y-86588750I0J-243750D01*
G01*
X126025000Y-87501250D01*
G75*
G02*
X125781250Y-87745000I-243750J0D01*
G01*
X125293750Y-87745000D01*
G75*
G02*
X125050000Y-87501250I0J243750D01*
G01*
G37*
G36*
G01*
X123175000Y-87501250D02*
X123175000Y-86588750D01*
G75*
G02*
X123418750Y-86345000I243750J0D01*
G01*
X123906250Y-86345000D01*
G75*
G02*
X124150000Y-86588750I0J-243750D01*
G01*
X124150000Y-87501250D01*
G75*
G02*
X123906250Y-87745000I-243750J0D01*
G01*
X123418750Y-87745000D01*
G75*
G02*
X123175000Y-87501250I0J243750D01*
G01*
G37*
%TD*%
%TO.C,D1*%
G36*
G01*
X170546250Y-78660000D02*
X169633750Y-78660000D01*
G75*
G02*
X169390000Y-78416250I0J243750D01*
G01*
X169390000Y-77928750D01*
G75*
G02*
X169633750Y-77685000I243750J0D01*
G01*
X170546250Y-77685000D01*
G75*
G02*
X170790000Y-77928750I0J-243750D01*
G01*
X170790000Y-78416250D01*
G75*
G02*
X170546250Y-78660000I-243750J0D01*
G01*
G37*
G36*
G01*
X170546250Y-80535000D02*
X169633750Y-80535000D01*
G75*
G02*
X169390000Y-80291250I0J243750D01*
G01*
X169390000Y-79803750D01*
G75*
G02*
X169633750Y-79560000I243750J0D01*
G01*
X170546250Y-79560000D01*
G75*
G02*
X170790000Y-79803750I0J-243750D01*
G01*
X170790000Y-80291250D01*
G75*
G02*
X170546250Y-80535000I-243750J0D01*
G01*
G37*
%TD*%
D13*
%TO.C,U3*%
X118895140Y-104971040D03*
X118895140Y-105471420D03*
X118895140Y-105971800D03*
X118001060Y-105971800D03*
X118001060Y-105471420D03*
X118001060Y-104971040D03*
D11*
G36*
X118609745Y-105202180D02*
G01*
X118448100Y-105363825D01*
X118286455Y-105202180D01*
X118448100Y-105040535D01*
X118609745Y-105202180D01*
G37*
G36*
X118609745Y-105740660D02*
G01*
X118448100Y-105902305D01*
X118286455Y-105740660D01*
X118448100Y-105579015D01*
X118609745Y-105740660D01*
G37*
%TD*%
D14*
%TO.C,M1*%
X129078100Y-100222180D03*
X129078100Y-98422180D03*
%TD*%
%TO.C,D3*%
G36*
G01*
X133388100Y-111635930D02*
X133388100Y-112148430D01*
G75*
G02*
X133169350Y-112367180I-218750J0D01*
G01*
X132731850Y-112367180D01*
G75*
G02*
X132513100Y-112148430I0J218750D01*
G01*
X132513100Y-111635930D01*
G75*
G02*
X132731850Y-111417180I218750J0D01*
G01*
X133169350Y-111417180D01*
G75*
G02*
X133388100Y-111635930I0J-218750D01*
G01*
G37*
G36*
G01*
X134963100Y-111635930D02*
X134963100Y-112148430D01*
G75*
G02*
X134744350Y-112367180I-218750J0D01*
G01*
X134306850Y-112367180D01*
G75*
G02*
X134088100Y-112148430I0J218750D01*
G01*
X134088100Y-111635930D01*
G75*
G02*
X134306850Y-111417180I218750J0D01*
G01*
X134744350Y-111417180D01*
G75*
G02*
X134963100Y-111635930I0J-218750D01*
G01*
G37*
%TD*%
%TO.C,D2*%
G36*
G01*
X133395600Y-107355930D02*
X133395600Y-107868430D01*
G75*
G02*
X133176850Y-108087180I-218750J0D01*
G01*
X132739350Y-108087180D01*
G75*
G02*
X132520600Y-107868430I0J218750D01*
G01*
X132520600Y-107355930D01*
G75*
G02*
X132739350Y-107137180I218750J0D01*
G01*
X133176850Y-107137180D01*
G75*
G02*
X133395600Y-107355930I0J-218750D01*
G01*
G37*
G36*
G01*
X134970600Y-107355930D02*
X134970600Y-107868430D01*
G75*
G02*
X134751850Y-108087180I-218750J0D01*
G01*
X134314350Y-108087180D01*
G75*
G02*
X134095600Y-107868430I0J218750D01*
G01*
X134095600Y-107355930D01*
G75*
G02*
X134314350Y-107137180I218750J0D01*
G01*
X134751850Y-107137180D01*
G75*
G02*
X134970600Y-107355930I0J-218750D01*
G01*
G37*
%TD*%
%TO.C,D1*%
G36*
G01*
X134088100Y-109988430D02*
X134088100Y-109475930D01*
G75*
G02*
X134306850Y-109257180I218750J0D01*
G01*
X134744350Y-109257180D01*
G75*
G02*
X134963100Y-109475930I0J-218750D01*
G01*
X134963100Y-109988430D01*
G75*
G02*
X134744350Y-110207180I-218750J0D01*
G01*
X134306850Y-110207180D01*
G75*
G02*
X134088100Y-109988430I0J218750D01*
G01*
G37*
G36*
G01*
X132513100Y-109988430D02*
X132513100Y-109475930D01*
G75*
G02*
X132731850Y-109257180I218750J0D01*
G01*
X133169350Y-109257180D01*
G75*
G02*
X133388100Y-109475930I0J-218750D01*
G01*
X133388100Y-109988430D01*
G75*
G02*
X133169350Y-110207180I-218750J0D01*
G01*
X132731850Y-110207180D01*
G75*
G02*
X132513100Y-109988430I0J218750D01*
G01*
G37*
%TD*%
D15*
%TO.C,RN1*%
X123958100Y-104302180D03*
D16*
X123958100Y-105102180D03*
D15*
X123958100Y-106702180D03*
D16*
X123958100Y-105902180D03*
D15*
X122158100Y-104302180D03*
D16*
X122158100Y-105902180D03*
X122158100Y-105102180D03*
D15*
X122158100Y-106702180D03*
%TD*%
D17*
%TO.C,U2*%
X123418100Y-112842180D03*
X123418100Y-112342180D03*
X123418100Y-111842180D03*
X123418100Y-111342180D03*
X123418100Y-110842180D03*
X119118100Y-110842180D03*
X119118100Y-111342180D03*
X119118100Y-111842180D03*
X119118100Y-112342180D03*
X119118100Y-112842180D03*
%TD*%
%TO.C,U1*%
G36*
G01*
X122973100Y-99937180D02*
X122973100Y-99787180D01*
G75*
G02*
X123048100Y-99712180I75000J0D01*
G01*
X124348100Y-99712180D01*
G75*
G02*
X124423100Y-99787180I0J-75000D01*
G01*
X124423100Y-99937180D01*
G75*
G02*
X124348100Y-100012180I-75000J0D01*
G01*
X123048100Y-100012180D01*
G75*
G02*
X122973100Y-99937180I0J75000D01*
G01*
G37*
G36*
G01*
X122973100Y-99437180D02*
X122973100Y-99287180D01*
G75*
G02*
X123048100Y-99212180I75000J0D01*
G01*
X124348100Y-99212180D01*
G75*
G02*
X124423100Y-99287180I0J-75000D01*
G01*
X124423100Y-99437180D01*
G75*
G02*
X124348100Y-99512180I-75000J0D01*
G01*
X123048100Y-99512180D01*
G75*
G02*
X122973100Y-99437180I0J75000D01*
G01*
G37*
G36*
G01*
X122973100Y-98937180D02*
X122973100Y-98787180D01*
G75*
G02*
X123048100Y-98712180I75000J0D01*
G01*
X124348100Y-98712180D01*
G75*
G02*
X124423100Y-98787180I0J-75000D01*
G01*
X124423100Y-98937180D01*
G75*
G02*
X124348100Y-99012180I-75000J0D01*
G01*
X123048100Y-99012180D01*
G75*
G02*
X122973100Y-98937180I0J75000D01*
G01*
G37*
G36*
G01*
X122973100Y-98437180D02*
X122973100Y-98287180D01*
G75*
G02*
X123048100Y-98212180I75000J0D01*
G01*
X124348100Y-98212180D01*
G75*
G02*
X124423100Y-98287180I0J-75000D01*
G01*
X124423100Y-98437180D01*
G75*
G02*
X124348100Y-98512180I-75000J0D01*
G01*
X123048100Y-98512180D01*
G75*
G02*
X122973100Y-98437180I0J75000D01*
G01*
G37*
G36*
G01*
X122973100Y-97937180D02*
X122973100Y-97787180D01*
G75*
G02*
X123048100Y-97712180I75000J0D01*
G01*
X124348100Y-97712180D01*
G75*
G02*
X124423100Y-97787180I0J-75000D01*
G01*
X124423100Y-97937180D01*
G75*
G02*
X124348100Y-98012180I-75000J0D01*
G01*
X123048100Y-98012180D01*
G75*
G02*
X122973100Y-97937180I0J75000D01*
G01*
G37*
G36*
G01*
X118573100Y-97937180D02*
X118573100Y-97787180D01*
G75*
G02*
X118648100Y-97712180I75000J0D01*
G01*
X119948100Y-97712180D01*
G75*
G02*
X120023100Y-97787180I0J-75000D01*
G01*
X120023100Y-97937180D01*
G75*
G02*
X119948100Y-98012180I-75000J0D01*
G01*
X118648100Y-98012180D01*
G75*
G02*
X118573100Y-97937180I0J75000D01*
G01*
G37*
G36*
G01*
X118573100Y-98437180D02*
X118573100Y-98287180D01*
G75*
G02*
X118648100Y-98212180I75000J0D01*
G01*
X119948100Y-98212180D01*
G75*
G02*
X120023100Y-98287180I0J-75000D01*
G01*
X120023100Y-98437180D01*
G75*
G02*
X119948100Y-98512180I-75000J0D01*
G01*
X118648100Y-98512180D01*
G75*
G02*
X118573100Y-98437180I0J75000D01*
G01*
G37*
G36*
G01*
X118573100Y-98937180D02*
X118573100Y-98787180D01*
G75*
G02*
X118648100Y-98712180I75000J0D01*
G01*
X119948100Y-98712180D01*
G75*
G02*
X120023100Y-98787180I0J-75000D01*
G01*
X120023100Y-98937180D01*
G75*
G02*
X119948100Y-99012180I-75000J0D01*
G01*
X118648100Y-99012180D01*
G75*
G02*
X118573100Y-98937180I0J75000D01*
G01*
G37*
G36*
G01*
X118573100Y-99437180D02*
X118573100Y-99287180D01*
G75*
G02*
X118648100Y-99212180I75000J0D01*
G01*
X119948100Y-99212180D01*
G75*
G02*
X120023100Y-99287180I0J-75000D01*
G01*
X120023100Y-99437180D01*
G75*
G02*
X119948100Y-99512180I-75000J0D01*
G01*
X118648100Y-99512180D01*
G75*
G02*
X118573100Y-99437180I0J75000D01*
G01*
G37*
G36*
G01*
X118573100Y-99937180D02*
X118573100Y-99787180D01*
G75*
G02*
X118648100Y-99712180I75000J0D01*
G01*
X119948100Y-99712180D01*
G75*
G02*
X120023100Y-99787180I0J-75000D01*
G01*
X120023100Y-99937180D01*
G75*
G02*
X119948100Y-100012180I-75000J0D01*
G01*
X118648100Y-100012180D01*
G75*
G02*
X118573100Y-99937180I0J75000D01*
G01*
G37*
%TD*%
%TO.C,C1*%
G36*
G01*
X127458100Y-111702180D02*
X127458100Y-111202180D01*
G75*
G02*
X127683100Y-110977180I225000J0D01*
G01*
X128133100Y-110977180D01*
G75*
G02*
X128358100Y-111202180I0J-225000D01*
G01*
X128358100Y-111702180D01*
G75*
G02*
X128133100Y-111927180I-225000J0D01*
G01*
X127683100Y-111927180D01*
G75*
G02*
X127458100Y-111702180I0J225000D01*
G01*
G37*
G36*
G01*
X125908100Y-111702180D02*
X125908100Y-111202180D01*
G75*
G02*
X126133100Y-110977180I225000J0D01*
G01*
X126583100Y-110977180D01*
G75*
G02*
X126808100Y-111202180I0J-225000D01*
G01*
X126808100Y-111702180D01*
G75*
G02*
X126583100Y-111927180I-225000J0D01*
G01*
X126133100Y-111927180D01*
G75*
G02*
X125908100Y-111702180I0J225000D01*
G01*
G37*
%TD*%
%TO.C,C7*%
G36*
G01*
X121849521Y-109007205D02*
X122203075Y-109360759D01*
G75*
G02*
X122203075Y-109678957I-159099J-159099D01*
G01*
X121884877Y-109997155D01*
G75*
G02*
X121566679Y-109997155I-159099J159099D01*
G01*
X121213125Y-109643601D01*
G75*
G02*
X121213125Y-109325403I159099J159099D01*
G01*
X121531323Y-109007205D01*
G75*
G02*
X121849521Y-109007205I159099J-159099D01*
G01*
G37*
G36*
G01*
X122945537Y-107911189D02*
X123299091Y-108264743D01*
G75*
G02*
X123299091Y-108582941I-159099J-159099D01*
G01*
X122980893Y-108901139D01*
G75*
G02*
X122662695Y-108901139I-159099J159099D01*
G01*
X122309141Y-108547585D01*
G75*
G02*
X122309141Y-108229387I159099J159099D01*
G01*
X122627339Y-107911189D01*
G75*
G02*
X122945537Y-107911189I159099J-159099D01*
G01*
G37*
%TD*%
%TO.C,C6*%
G36*
G01*
X131898100Y-105177180D02*
X131398100Y-105177180D01*
G75*
G02*
X131173100Y-104952180I0J225000D01*
G01*
X131173100Y-104502180D01*
G75*
G02*
X131398100Y-104277180I225000J0D01*
G01*
X131898100Y-104277180D01*
G75*
G02*
X132123100Y-104502180I0J-225000D01*
G01*
X132123100Y-104952180D01*
G75*
G02*
X131898100Y-105177180I-225000J0D01*
G01*
G37*
G36*
G01*
X131898100Y-106727180D02*
X131398100Y-106727180D01*
G75*
G02*
X131173100Y-106502180I0J225000D01*
G01*
X131173100Y-106052180D01*
G75*
G02*
X131398100Y-105827180I225000J0D01*
G01*
X131898100Y-105827180D01*
G75*
G02*
X132123100Y-106052180I0J-225000D01*
G01*
X132123100Y-106502180D01*
G75*
G02*
X131898100Y-106727180I-225000J0D01*
G01*
G37*
%TD*%
%TO.C,C3*%
G36*
G01*
X125321513Y-102605213D02*
X125675067Y-102958767D01*
G75*
G02*
X125675067Y-103276965I-159099J-159099D01*
G01*
X125356869Y-103595163D01*
G75*
G02*
X125038671Y-103595163I-159099J159099D01*
G01*
X124685117Y-103241609D01*
G75*
G02*
X124685117Y-102923411I159099J159099D01*
G01*
X125003315Y-102605213D01*
G75*
G02*
X125321513Y-102605213I159099J-159099D01*
G01*
G37*
G36*
G01*
X126417529Y-101509197D02*
X126771083Y-101862751D01*
G75*
G02*
X126771083Y-102180949I-159099J-159099D01*
G01*
X126452885Y-102499147D01*
G75*
G02*
X126134687Y-102499147I-159099J159099D01*
G01*
X125781133Y-102145593D01*
G75*
G02*
X125781133Y-101827395I159099J159099D01*
G01*
X126099331Y-101509197D01*
G75*
G02*
X126417529Y-101509197I159099J-159099D01*
G01*
G37*
%TD*%
D11*
%TO.C,U6*%
G36*
X124509521Y-109216494D02*
G01*
X123943836Y-108650809D01*
X124085257Y-108509388D01*
X124650942Y-109075073D01*
X124509521Y-109216494D01*
G37*
G36*
X124226679Y-109499337D02*
G01*
X123660994Y-108933652D01*
X123802415Y-108792231D01*
X124368100Y-109357916D01*
X124226679Y-109499337D01*
G37*
G36*
X123943836Y-109782180D02*
G01*
X123378151Y-109216495D01*
X123519572Y-109075074D01*
X124085257Y-109640759D01*
X123943836Y-109782180D01*
G37*
G36*
X123660993Y-110065022D02*
G01*
X123095308Y-109499337D01*
X123236729Y-109357916D01*
X123802414Y-109923601D01*
X123660993Y-110065022D01*
G37*
G36*
X124650943Y-111054972D02*
G01*
X124085258Y-110489287D01*
X124226679Y-110347866D01*
X124792364Y-110913551D01*
X124650943Y-111054972D01*
G37*
G36*
X124933785Y-110772129D02*
G01*
X124368100Y-110206444D01*
X124509521Y-110065023D01*
X125075206Y-110630708D01*
X124933785Y-110772129D01*
G37*
G36*
X125216628Y-110489286D02*
G01*
X124650943Y-109923601D01*
X124792364Y-109782180D01*
X125358049Y-110347865D01*
X125216628Y-110489286D01*
G37*
G36*
X125499471Y-110206444D02*
G01*
X124933786Y-109640759D01*
X125075207Y-109499338D01*
X125640892Y-110065023D01*
X125499471Y-110206444D01*
G37*
%TD*%
D18*
%TO.C,U5*%
X132698100Y-106172180D03*
X133098100Y-106172180D03*
X133498100Y-106172180D03*
X133898100Y-106172180D03*
X133898100Y-104772180D03*
X133498100Y-104772180D03*
X133098100Y-104772180D03*
X132698100Y-104772180D03*
%TD*%
D11*
%TO.C,U4*%
G36*
X124933786Y-101533601D02*
G01*
X125499471Y-100967916D01*
X125640892Y-101109337D01*
X125075207Y-101675022D01*
X124933786Y-101533601D01*
G37*
G36*
X124650943Y-101250759D02*
G01*
X125216628Y-100685074D01*
X125358049Y-100826495D01*
X124792364Y-101392180D01*
X124650943Y-101250759D01*
G37*
G36*
X124368100Y-100967916D02*
G01*
X124933785Y-100402231D01*
X125075206Y-100543652D01*
X124509521Y-101109337D01*
X124368100Y-100967916D01*
G37*
G36*
X124085258Y-100685073D02*
G01*
X124650943Y-100119388D01*
X124792364Y-100260809D01*
X124226679Y-100826494D01*
X124085258Y-100685073D01*
G37*
G36*
X123095308Y-101675023D02*
G01*
X123660993Y-101109338D01*
X123802414Y-101250759D01*
X123236729Y-101816444D01*
X123095308Y-101675023D01*
G37*
G36*
X123378151Y-101957865D02*
G01*
X123943836Y-101392180D01*
X124085257Y-101533601D01*
X123519572Y-102099286D01*
X123378151Y-101957865D01*
G37*
G36*
X123660994Y-102240708D02*
G01*
X124226679Y-101675023D01*
X124368100Y-101816444D01*
X123802415Y-102382129D01*
X123660994Y-102240708D01*
G37*
G36*
X123943836Y-102523551D02*
G01*
X124509521Y-101957866D01*
X124650942Y-102099287D01*
X124085257Y-102664972D01*
X123943836Y-102523551D01*
G37*
%TD*%
%TO.C,C5*%
G36*
G01*
X125548100Y-98376920D02*
X126048100Y-98376920D01*
G75*
G02*
X126273100Y-98601920I0J-225000D01*
G01*
X126273100Y-99051920D01*
G75*
G02*
X126048100Y-99276920I-225000J0D01*
G01*
X125548100Y-99276920D01*
G75*
G02*
X125323100Y-99051920I0J225000D01*
G01*
X125323100Y-98601920D01*
G75*
G02*
X125548100Y-98376920I225000J0D01*
G01*
G37*
G36*
G01*
X125548100Y-96826920D02*
X126048100Y-96826920D01*
G75*
G02*
X126273100Y-97051920I0J-225000D01*
G01*
X126273100Y-97501920D01*
G75*
G02*
X126048100Y-97726920I-225000J0D01*
G01*
X125548100Y-97726920D01*
G75*
G02*
X125323100Y-97501920I0J225000D01*
G01*
X125323100Y-97051920D01*
G75*
G02*
X125548100Y-96826920I225000J0D01*
G01*
G37*
%TD*%
%TO.C,C4*%
G36*
G01*
X119068100Y-101987180D02*
X119568100Y-101987180D01*
G75*
G02*
X119793100Y-102212180I0J-225000D01*
G01*
X119793100Y-102662180D01*
G75*
G02*
X119568100Y-102887180I-225000J0D01*
G01*
X119068100Y-102887180D01*
G75*
G02*
X118843100Y-102662180I0J225000D01*
G01*
X118843100Y-102212180D01*
G75*
G02*
X119068100Y-101987180I225000J0D01*
G01*
G37*
G36*
G01*
X119068100Y-100437180D02*
X119568100Y-100437180D01*
G75*
G02*
X119793100Y-100662180I0J-225000D01*
G01*
X119793100Y-101112180D01*
G75*
G02*
X119568100Y-101337180I-225000J0D01*
G01*
X119068100Y-101337180D01*
G75*
G02*
X118843100Y-101112180I0J225000D01*
G01*
X118843100Y-100662180D01*
G75*
G02*
X119068100Y-100437180I225000J0D01*
G01*
G37*
%TD*%
D19*
%TO.C,U1*%
X152254467Y-52378497D03*
X152254467Y-54918497D03*
X154794467Y-52378497D03*
X154794467Y-54918497D03*
D20*
X137790280Y-52367300D03*
X137790280Y-54917300D03*
%TD*%
M02*
