%TF.GenerationSoftware,KiCad,Pcbnew,(5.1.10)-1*%
%TF.CreationDate,2021-10-07T11:19:02-05:00*%
%TF.ProjectId,BYTE_PANELkicad_pcb,42595445-5f50-4414-9e45-4c6b69636164,v2.2*%
%TF.SameCoordinates,Original*%
%TF.FileFunction,Soldermask,Bot*%
%TF.FilePolarity,Negative*%
%FSLAX46Y46*%
G04 Gerber Fmt 4.6, Leading zero omitted, Abs format (unit mm)*
G04 Created by KiCad (PCBNEW (5.1.10)-1) date 2021-10-07 11:19:02*
%MOMM*%
%LPD*%
G01*
G04 APERTURE LIST*
%TA.AperFunction,Profile*%
%ADD10C,0.200000*%
%TD*%
%ADD11C,2.000000*%
%ADD12C,0.100000*%
%ADD13C,6.000000*%
%ADD14C,0.010000*%
%ADD15C,1.000000*%
%ADD16O,1.700000X1.700000*%
%ADD17R,1.700000X1.700000*%
%ADD18R,1.400000X1.600000*%
%ADD19C,0.650000*%
%ADD20O,1.800000X1.000000*%
%ADD21O,2.100000X1.000000*%
%ADD22C,1.500000*%
%ADD23R,1.500000X1.500000*%
%ADD24C,3.200000*%
%ADD25R,0.304800X0.203200*%
%ADD26R,4.400000X1.000000*%
%ADD27R,0.800000X0.500000*%
%ADD28R,0.800000X0.400000*%
%ADD29R,1.100000X0.250000*%
%ADD30R,0.200000X0.800000*%
%ADD31C,1.143000*%
%ADD32O,2.032000X1.016000*%
%ADD33O,1.998980X2.748280*%
%ADD34C,0.800000*%
%ADD35C,0.600000*%
%ADD36C,0.750000*%
G04 APERTURE END LIST*
D10*
X168690379Y-96462228D02*
X169130379Y-96462228D01*
X148898100Y-64072180D02*
X148888100Y-65112180D01*
X151918100Y-64072180D02*
X151938100Y-65112180D01*
X145638100Y-94510004D02*
X145638100Y-96762180D01*
X142458100Y-96762180D02*
X142458100Y-94510004D01*
X145638100Y-96762180D02*
X147788100Y-96762180D01*
X162068100Y-94510004D02*
X145638100Y-94510004D01*
X147788100Y-96762180D02*
X147788100Y-103892180D01*
X140778100Y-103872180D02*
X140798100Y-96762180D01*
X157156100Y-55162180D02*
X160298100Y-55182180D01*
X160298100Y-51992180D02*
X157158100Y-51992180D01*
X160298100Y-61762180D02*
X160298100Y-55182180D01*
X157156100Y-43242180D02*
X157158100Y-51992180D01*
X162658100Y-61762180D02*
X162578100Y-65012180D01*
X165708100Y-65012180D02*
X165648100Y-61762180D01*
X167298100Y-61762180D02*
X165648100Y-61762180D01*
X168087294Y-65021970D02*
X165708100Y-65012180D01*
X154687294Y-65121970D02*
X151938100Y-65112180D01*
X157156100Y-64070180D02*
X151918100Y-64072180D01*
X162658100Y-61762180D02*
X160298100Y-61762180D01*
X160298100Y-51992180D02*
X160298100Y-44762180D01*
X160298100Y-44762180D02*
X167298100Y-44762180D01*
X167298100Y-44762180D02*
X167298100Y-61762180D01*
X147798100Y-106722180D02*
X147798100Y-113762180D01*
X140798100Y-96762180D02*
X142458100Y-96762180D01*
X140798100Y-113762180D02*
X140798100Y-107012180D01*
X147798100Y-113762180D02*
X140798100Y-113762180D01*
X138338100Y-65222180D02*
X138338100Y-64072180D01*
X135318100Y-64070180D02*
X135318100Y-65212180D01*
X135318100Y-65212180D02*
X132588100Y-65212180D01*
X148898100Y-64072180D02*
X138338100Y-64072180D01*
X124748100Y-64070180D02*
X124738100Y-65322180D01*
X121508100Y-65312180D02*
X121528100Y-64070180D01*
X135318100Y-64070180D02*
X124748100Y-64070180D01*
X127587294Y-65321970D02*
X124738100Y-65322180D01*
X162558100Y-74012180D02*
X162588100Y-75210004D01*
X165188100Y-75202180D02*
X165178100Y-74002180D01*
X165178100Y-74002180D02*
X169888100Y-74012180D01*
X165190000Y-75200004D02*
X170720000Y-75210004D01*
X151848100Y-74112180D02*
X151828100Y-75210004D01*
X149018100Y-75210004D02*
X149008100Y-74112180D01*
X151828100Y-75210004D02*
X162588100Y-75210004D01*
X151848100Y-74112180D02*
X156488100Y-74112180D01*
X138088100Y-74212180D02*
X138078100Y-75210004D01*
X135658100Y-74212180D02*
X135678100Y-75210004D01*
X138078100Y-75210004D02*
X149018100Y-75210004D01*
X130588100Y-74212180D02*
X135658100Y-74212180D01*
X122048100Y-75210004D02*
X122038100Y-74312180D01*
X124798100Y-75210004D02*
X124778100Y-74312180D01*
X124798100Y-75210004D02*
X135678100Y-75210004D01*
X124778100Y-74312180D02*
X129388100Y-74312180D01*
X169888100Y-74012180D02*
X169878310Y-66814500D01*
X157688100Y-74012180D02*
X157688100Y-67012180D01*
X157688100Y-74012180D02*
X162558100Y-74012180D01*
X157688100Y-67012180D02*
G75*
G02*
X159688100Y-65012180I2000000J0D01*
G01*
X168087294Y-65021969D02*
G75*
G02*
X169878309Y-66814499I806J-1790211D01*
G01*
X162578100Y-65012180D02*
X159688100Y-65012180D01*
X144288100Y-74112180D02*
X149008100Y-74112180D01*
X154687294Y-65121969D02*
G75*
G02*
X156478309Y-66914499I806J-1790211D01*
G01*
X156488100Y-74112180D02*
X156478310Y-66914500D01*
X148888100Y-65112180D02*
X146288100Y-65112180D01*
X144288100Y-67112180D02*
G75*
G02*
X146288100Y-65112180I2000000J0D01*
G01*
X144288100Y-74112180D02*
X144288100Y-67112180D01*
X138088100Y-74212180D02*
X142788100Y-74212180D01*
X140987294Y-65221969D02*
G75*
G02*
X142778309Y-67014499I806J-1790211D01*
G01*
X142788100Y-74212180D02*
X142778310Y-67014500D01*
X140985780Y-65221970D02*
X138338100Y-65222180D01*
X130588100Y-67212180D02*
G75*
G02*
X132588100Y-65212180I2000000J0D01*
G01*
X130588100Y-74212180D02*
X130588100Y-67212180D01*
X162068100Y-94510004D02*
X162068100Y-96462228D01*
X164768100Y-94510004D02*
X164768100Y-96462228D01*
X142458100Y-94510004D02*
X127868100Y-94510004D01*
X162068100Y-96462228D02*
X152439691Y-96462228D01*
X125768100Y-94510004D02*
X125768100Y-96442180D01*
X127868100Y-96442180D02*
X127868100Y-94510004D01*
X170720000Y-94510004D02*
X164768100Y-94510004D01*
X135996509Y-96442180D02*
X127868100Y-96442180D01*
X121508100Y-65312180D02*
X119188100Y-65312180D01*
X117188100Y-74312180D02*
X122038100Y-74312180D01*
X129388100Y-74312180D02*
X129378310Y-67114500D01*
X117188100Y-67312180D02*
G75*
G02*
X119188100Y-65312180I2000000J0D01*
G01*
X127587294Y-65321969D02*
G75*
G02*
X129378309Y-67114499I806J-1790211D01*
G01*
X117188100Y-74312180D02*
X117188100Y-67312180D01*
X149664215Y-100587209D02*
X149547799Y-100875525D01*
X149788569Y-100301830D02*
X149664215Y-100587209D01*
X151018880Y-98140002D02*
X150841610Y-98397203D01*
X148785800Y-103890832D02*
X147788100Y-103892180D01*
X147798100Y-106722180D02*
X148751404Y-106721733D01*
X149338778Y-101460413D02*
X149243528Y-101756746D01*
X150669631Y-98658399D02*
X150505589Y-98923432D01*
X148830779Y-103580469D02*
X148785800Y-103890832D01*
X151791463Y-97153663D02*
X151587734Y-97393613D01*
X148785800Y-107033576D02*
X148830779Y-107343939D01*
X149547799Y-100875525D02*
X149439320Y-101166646D01*
X150505589Y-98923432D02*
X150349485Y-99192195D01*
X149076841Y-102356449D02*
X149002758Y-102659582D01*
X149243528Y-101756746D02*
X149156216Y-102055460D01*
X151391942Y-97638088D02*
X151201443Y-97886928D01*
X168690379Y-96462228D02*
X164768100Y-96462228D01*
X169426712Y-96476886D02*
X169278545Y-96465906D01*
X151587734Y-97393613D02*
X151391942Y-97638088D01*
X152439691Y-96462228D02*
X152217441Y-96687838D01*
X149664215Y-110337199D02*
X149788569Y-110622578D01*
X149918215Y-110904914D02*
X150053152Y-111184049D01*
X149076841Y-108567959D02*
X149156216Y-108868948D01*
X149243528Y-109167662D02*
X149338778Y-109463995D01*
X149156216Y-108868948D02*
X149243528Y-109167662D01*
X149002758Y-108264826D02*
X149076841Y-108567959D01*
X150198673Y-111459851D02*
X150349485Y-111732213D01*
X149788569Y-110622578D02*
X149918215Y-110904914D01*
X170000857Y-114332508D02*
X170141086Y-114286523D01*
X148936612Y-102964707D02*
X148881050Y-103271716D01*
X169717753Y-114404025D02*
X169860628Y-114371719D01*
X170670252Y-114036598D02*
X170794606Y-113958149D01*
X149439320Y-109757762D02*
X149547799Y-110048883D01*
X149547799Y-110048883D02*
X149664215Y-110337199D01*
X170410961Y-114174552D02*
X170540606Y-114108776D01*
X169572233Y-114429319D02*
X169717753Y-114404025D01*
X149338778Y-109463995D02*
X149439320Y-109757762D01*
X170913668Y-113873536D02*
X171030085Y-113782810D01*
X169278545Y-114458502D02*
X169426712Y-114447522D01*
X148881050Y-107652692D02*
X148936612Y-107959701D01*
X150053152Y-111184049D02*
X150198673Y-111459851D01*
X172038146Y-112193460D02*
X172069896Y-112050188D01*
X148936612Y-107959701D02*
X149002758Y-108264826D01*
X149918215Y-100019494D02*
X149788569Y-100301830D01*
X170141086Y-96637885D02*
X170000857Y-96591900D01*
X152000483Y-96918369D02*
X151791463Y-97153663D01*
X148881050Y-103271716D02*
X148830779Y-103580469D01*
X150198673Y-99464557D02*
X150053152Y-99740359D01*
X169278545Y-96465906D02*
X169130379Y-96462228D01*
X152217441Y-96687838D02*
X152000483Y-96918369D01*
X172038146Y-98730948D02*
X171998459Y-98589713D01*
X150841610Y-98397203D02*
X150669631Y-98658399D01*
X171900563Y-98314150D02*
X171842355Y-98180351D01*
X151201443Y-97886928D02*
X151018880Y-98140002D01*
X150053152Y-99740359D02*
X149918215Y-100019494D01*
X148751404Y-106721733D02*
X148785800Y-107033576D01*
X149002758Y-102659582D02*
X148936612Y-102964707D01*
X149439320Y-101166646D02*
X149338778Y-101460413D01*
X150349485Y-99192195D02*
X150198673Y-99464557D01*
X170276023Y-96690563D02*
X170141086Y-96637885D01*
X148830779Y-107343939D02*
X148881050Y-107652692D01*
X149156216Y-102055460D02*
X149076841Y-102356449D01*
X172125459Y-99313454D02*
X172114875Y-99165711D01*
X170141086Y-114286523D02*
X170276023Y-114233845D01*
X152000483Y-114006039D02*
X152217441Y-114236570D01*
X151587734Y-113530795D02*
X151791463Y-113770745D01*
X151018880Y-112784406D02*
X151201443Y-113037480D01*
X171625397Y-113126591D02*
X171704772Y-113002476D01*
X171998459Y-112334695D02*
X172038146Y-112193460D01*
X171842355Y-112744057D02*
X171900563Y-112610258D01*
X150841610Y-112527205D02*
X151018880Y-112784406D01*
X150349485Y-111732213D02*
X150505589Y-112000976D01*
X169426712Y-114447522D02*
X169572233Y-114429319D01*
X170540606Y-114108776D02*
X170670252Y-114036598D01*
X150505589Y-112000976D02*
X150669631Y-112266009D01*
X172125459Y-111610954D02*
X172128104Y-111462206D01*
X161707278Y-105453754D02*
G75*
G03*
X161707278Y-105453754I-1500000J0D01*
G01*
X152217441Y-114236570D02*
X152439691Y-114462180D01*
X172096354Y-111905197D02*
X172114875Y-111758697D01*
X171030085Y-113782810D02*
X171143856Y-113686105D01*
X172069896Y-112050188D02*
X172096354Y-111905197D01*
X171540730Y-113247003D02*
X171625397Y-113126591D01*
X150669631Y-112266009D02*
X150841610Y-112527205D01*
X172114875Y-111758697D02*
X172125459Y-111610954D01*
X171776209Y-112874867D02*
X171842355Y-112744057D01*
X170276023Y-114233845D02*
X170410961Y-114174552D01*
X170670252Y-96887810D02*
X170540606Y-96815632D01*
X169572233Y-96495089D02*
X169426712Y-96476886D01*
X172128104Y-99462202D02*
X172125459Y-99313454D01*
X170410961Y-96749856D02*
X170276023Y-96690563D01*
X171450772Y-97560935D02*
X171352876Y-97448699D01*
X171704772Y-97921932D02*
X171625397Y-97797817D01*
X170913668Y-97050872D02*
X170794606Y-96966259D01*
X170000857Y-96591900D02*
X169860628Y-96552689D01*
X172114875Y-99165711D02*
X172096354Y-99019211D01*
X171625397Y-97797817D02*
X171540730Y-97677405D01*
X169717753Y-96520383D02*
X169572233Y-96495089D01*
X169130379Y-114462180D02*
X169278545Y-114458502D01*
X151391942Y-113286320D02*
X151587734Y-113530795D01*
X169860628Y-114371719D02*
X170000857Y-114332508D01*
X151791463Y-113770745D02*
X152000483Y-114006039D01*
X171900563Y-112610258D02*
X171953480Y-112473706D01*
X171450772Y-113363473D02*
X171540730Y-113247003D01*
X171143856Y-113686105D02*
X171249689Y-113583525D01*
X171953480Y-112473706D02*
X171998459Y-112334695D01*
X151201443Y-113037480D02*
X151391942Y-113286320D01*
X171352876Y-113475709D02*
X171450772Y-113363473D01*
X152439691Y-114462180D02*
X169130379Y-114462180D01*
X170794606Y-113958149D02*
X170913668Y-113873536D01*
X171704772Y-113002476D02*
X171776209Y-112874867D01*
X171249689Y-113583525D02*
X171352876Y-113475709D01*
X171842355Y-98180351D02*
X171776209Y-98049541D01*
X171143856Y-97238303D02*
X171030085Y-97141598D01*
X169860628Y-96552689D02*
X169717753Y-96520383D01*
X171776209Y-98049541D02*
X171704772Y-97921932D01*
X170794606Y-96966259D02*
X170670252Y-96887810D01*
X172069896Y-98874220D02*
X172038146Y-98730948D01*
X172128104Y-111462206D02*
X172128104Y-99462202D01*
X171352876Y-97448699D02*
X171249689Y-97340883D01*
X171249689Y-97340883D02*
X171143856Y-97238303D01*
X171030085Y-97141598D02*
X170913668Y-97050872D01*
X172096354Y-99019211D02*
X172069896Y-98874220D01*
X170540606Y-96815632D02*
X170410961Y-96749856D01*
X171998459Y-98589713D02*
X171953480Y-98450702D01*
X171540730Y-97677405D02*
X171450772Y-97560935D01*
X171953480Y-98450702D02*
X171900563Y-98314150D01*
X117720000Y-94510004D02*
G75*
G02*
X116720000Y-93510004I0J1000000D01*
G01*
X170720000Y-75210004D02*
G75*
G02*
X171720000Y-76210004I0J-1000000D01*
G01*
X170420000Y-91860004D02*
X171720000Y-91860004D01*
X125768100Y-94510004D02*
X117720000Y-94510004D01*
X116720000Y-76210004D02*
G75*
G02*
X117720000Y-75210004I1000000J0D01*
G01*
X122620000Y-84860004D02*
G75*
G03*
X122620000Y-84860004I-900000J0D01*
G01*
X136020001Y-77510004D02*
G75*
G03*
X136020001Y-77510004I-1300001J0D01*
G01*
X170420000Y-91860004D02*
G75*
G02*
X170420000Y-85860004I0J3000000D01*
G01*
X136020001Y-92210004D02*
G75*
G03*
X136020001Y-92210004I-1300001J0D01*
G01*
X171720000Y-91860004D02*
X171720000Y-93510004D01*
X171720000Y-93510004D02*
G75*
G02*
X170720000Y-94510004I-1000000J0D01*
G01*
X116720000Y-93510004D02*
X116720000Y-76210004D01*
X171720000Y-85860004D02*
X170420000Y-85860004D01*
X117720000Y-75210004D02*
X122048100Y-75210004D01*
X171720000Y-76210004D02*
X171720000Y-85860004D01*
D11*
X129911896Y-105450606D02*
G75*
G03*
X129911896Y-105450606I-1682974J0D01*
G01*
D10*
X116748096Y-99442154D02*
X116748096Y-111442158D01*
X116806304Y-112030140D02*
X116838054Y-112173412D01*
X118081594Y-113938101D02*
X118205948Y-114016550D01*
X119015572Y-114351671D02*
X119158447Y-114383977D01*
X117099991Y-112854819D02*
X117171428Y-112982428D01*
X117732344Y-113666057D02*
X117846115Y-113762762D01*
X117033845Y-112724009D02*
X117099991Y-112854819D01*
X117962532Y-113853488D02*
X118081594Y-113938101D01*
X116761325Y-111738649D02*
X116779846Y-111885149D01*
X117250803Y-113106543D02*
X117335470Y-113226955D01*
X119158447Y-114383977D02*
X119303967Y-114409271D01*
X118205948Y-114016550D02*
X118335594Y-114088728D01*
X117171428Y-112982428D02*
X117250803Y-113106543D01*
X118875343Y-114312460D02*
X119015572Y-114351671D01*
X117425428Y-113343425D02*
X117523324Y-113455661D01*
X118465239Y-114154504D02*
X118600177Y-114213797D01*
X116748096Y-111442158D02*
X116750741Y-111590906D01*
X119303967Y-114409271D02*
X119449488Y-114427474D01*
X116922720Y-112453658D02*
X116975637Y-112590210D01*
X117335470Y-113226955D02*
X117425428Y-113343425D01*
X116877741Y-112314647D02*
X116922720Y-112453658D01*
X118335594Y-114088728D02*
X118465239Y-114154504D01*
X116779846Y-111885149D02*
X116806304Y-112030140D01*
X117846115Y-113762762D02*
X117962532Y-113853488D01*
X117626511Y-113563477D02*
X117732344Y-113666057D01*
X117523324Y-113455661D02*
X117626511Y-113563477D01*
X116750741Y-111590906D02*
X116761325Y-111738649D01*
X116975637Y-112590210D02*
X117033845Y-112724009D01*
X118735114Y-114266475D02*
X118875343Y-114312460D01*
X116838054Y-112173412D02*
X116877741Y-112314647D01*
X118600177Y-114213797D02*
X118735114Y-114266475D01*
X119597655Y-114438454D02*
X119745821Y-114442132D01*
X139555150Y-107632644D02*
X139605421Y-107323891D01*
X136218759Y-114216522D02*
X136435717Y-113985991D01*
X136435717Y-113985991D02*
X136644737Y-113750697D01*
X137234757Y-113017432D02*
X137417320Y-112764358D01*
X137594590Y-112507157D02*
X137766569Y-112245961D01*
X138086715Y-111712165D02*
X138237527Y-111439803D01*
X138237527Y-111439803D02*
X138383048Y-111164001D01*
X138517985Y-110884866D02*
X138647631Y-110602530D01*
X139279984Y-108848900D02*
X139359359Y-108547911D01*
X138996880Y-109737714D02*
X139097422Y-109443947D01*
X139433442Y-108244778D02*
X139499588Y-107939653D01*
X139605421Y-103560421D02*
X139555150Y-103251668D01*
X140778100Y-103872180D02*
X139650400Y-103870784D01*
X138383048Y-111164001D02*
X138517985Y-110884866D01*
X139097422Y-109443947D02*
X139192672Y-109147614D01*
X139650400Y-107013528D02*
X140798100Y-107012180D01*
X139359359Y-108547911D02*
X139433442Y-108244778D01*
X135996509Y-114442132D02*
X136218759Y-114216522D01*
X136644737Y-113750697D02*
X136848466Y-113510747D01*
X136848466Y-113510747D02*
X137044258Y-113266272D01*
X137417320Y-112764358D02*
X137594590Y-112507157D01*
X138647631Y-110602530D02*
X138771985Y-110317151D01*
X138771985Y-110317151D02*
X138888401Y-110028835D01*
X119449488Y-114427474D02*
X119597655Y-114438454D01*
X119745821Y-114442132D02*
X135996509Y-114442132D01*
X137044258Y-113266272D02*
X137234757Y-113017432D01*
X137930611Y-111980928D02*
X138086715Y-111712165D01*
X139192672Y-109147614D02*
X139279984Y-108848900D01*
X139650400Y-103870784D02*
X139605421Y-103560421D01*
X138888401Y-110028835D02*
X138996880Y-109737714D01*
X139605421Y-107323891D02*
X139650400Y-107013528D01*
X137766569Y-112245961D02*
X137930611Y-111980928D01*
X139499588Y-107939653D02*
X139555150Y-107632644D01*
X139279984Y-102035412D02*
X139192672Y-101736698D01*
X138647631Y-100281782D02*
X138517985Y-99999446D01*
X138237527Y-99444509D02*
X138086715Y-99172147D01*
X139555150Y-103251668D02*
X139499588Y-102944659D01*
X139499588Y-102944659D02*
X139433442Y-102639534D01*
X139433442Y-102639534D02*
X139359359Y-102336401D01*
X138996880Y-101146598D02*
X138888401Y-100855477D01*
X138771985Y-100567161D02*
X138647631Y-100281782D01*
X139192672Y-101736698D02*
X139097422Y-101440365D01*
X139359359Y-102336401D02*
X139279984Y-102035412D01*
X139097422Y-101440365D02*
X138996880Y-101146598D01*
X138888401Y-100855477D02*
X138771985Y-100567161D01*
X138383048Y-99720311D02*
X138237527Y-99444509D01*
X138517985Y-99999446D02*
X138383048Y-99720311D01*
X116838054Y-98710900D02*
X116806304Y-98854172D01*
X119597655Y-96445858D02*
X119449488Y-96456838D01*
X117962532Y-97030824D02*
X117846115Y-97121550D01*
X119303967Y-96475041D02*
X119158447Y-96500335D01*
X118465239Y-96729808D02*
X118335594Y-96795584D01*
X118205948Y-96867762D02*
X118081594Y-96946211D01*
X119158447Y-96500335D02*
X119015572Y-96532641D01*
X118875343Y-96571852D02*
X118735114Y-96617837D01*
X116806304Y-98854172D02*
X116779846Y-98999163D01*
X138086715Y-99172147D02*
X137930611Y-98903384D01*
X136218759Y-96667790D02*
X135996509Y-96442180D01*
X137930611Y-98903384D02*
X137766569Y-98638351D01*
X137766569Y-98638351D02*
X137594590Y-98377155D01*
X118600177Y-96670515D02*
X118465239Y-96729808D01*
X137594590Y-98377155D02*
X137417320Y-98119954D01*
X137417320Y-98119954D02*
X137234757Y-97866880D01*
X116750741Y-99293406D02*
X116748096Y-99442154D01*
X136848466Y-97373565D02*
X136644737Y-97133615D01*
X117335470Y-97657357D02*
X117250803Y-97777769D01*
X117250803Y-97777769D02*
X117171428Y-97901884D01*
X117099991Y-98029493D02*
X117033845Y-98160303D01*
X116761325Y-99145663D02*
X116750741Y-99293406D01*
X136435717Y-96898321D02*
X136218759Y-96667790D01*
X118735114Y-96617837D02*
X118600177Y-96670515D01*
X118335594Y-96795584D02*
X118205948Y-96867762D01*
X117846115Y-97121550D02*
X117732344Y-97218255D01*
X116779846Y-98999163D02*
X116761325Y-99145663D01*
X129728922Y-105450606D02*
G75*
G03*
X129728922Y-105450606I-1500000J0D01*
G01*
X119449488Y-96456838D02*
X119303967Y-96475041D01*
X117033845Y-98160303D02*
X116975637Y-98294102D01*
X116877741Y-98569665D02*
X116838054Y-98710900D01*
X117732344Y-97218255D02*
X117626511Y-97320835D01*
X117523324Y-97428651D02*
X117425428Y-97540887D01*
X117425428Y-97540887D02*
X117335470Y-97657357D01*
X116975637Y-98294102D02*
X116922720Y-98430654D01*
X116922720Y-98430654D02*
X116877741Y-98569665D01*
X137234757Y-97866880D02*
X137044258Y-97618040D01*
X117171428Y-97901884D02*
X117099991Y-98029493D01*
X137044258Y-97618040D02*
X136848466Y-97373565D01*
X136644737Y-97133615D02*
X136435717Y-96898321D01*
X117626511Y-97320835D02*
X117523324Y-97428651D01*
X118081594Y-96946211D02*
X117962532Y-97030824D01*
X125768100Y-96442180D02*
X119745821Y-96442180D01*
X119015572Y-96532641D02*
X118875343Y-96571852D01*
X119745821Y-96442180D02*
X119597655Y-96445858D01*
X116516100Y-43242180D02*
X157156100Y-43242180D01*
X116516100Y-64070180D02*
X116516100Y-43242180D01*
X121528100Y-64070180D02*
X116516100Y-64070180D01*
X157156100Y-55162180D02*
X157156100Y-64070180D01*
D12*
%TO.C,J1*%
G36*
X170238100Y-105882180D02*
G01*
X170238100Y-105842180D01*
X170238100Y-105882180D01*
X170338100Y-105942180D01*
X169938100Y-106102180D01*
X169528100Y-106302180D01*
X169228100Y-106382180D01*
X169018100Y-106412180D01*
X168448100Y-106442180D01*
X168448100Y-105147180D01*
X170148100Y-105137180D01*
X170138100Y-105782180D01*
X170238100Y-105882180D01*
G37*
X170238100Y-105882180D02*
X170238100Y-105842180D01*
X170238100Y-105882180D01*
X170338100Y-105942180D01*
X169938100Y-106102180D01*
X169528100Y-106302180D01*
X169228100Y-106382180D01*
X169018100Y-106412180D01*
X168448100Y-106442180D01*
X168448100Y-105147180D01*
X170148100Y-105137180D01*
X170138100Y-105782180D01*
X170238100Y-105882180D01*
G36*
X170238100Y-105342180D02*
G01*
X170338100Y-105342180D01*
X170338100Y-105242180D01*
X170238100Y-105162180D01*
X170148100Y-105102180D01*
X169878100Y-104942180D01*
X169528100Y-104742180D01*
X169228100Y-104662180D01*
X169018100Y-104632180D01*
X168448100Y-104602180D01*
X168448100Y-105942180D01*
X170338100Y-105942180D01*
X170338100Y-105262180D01*
X170238100Y-105342180D01*
G37*
X170238100Y-105342180D02*
X170338100Y-105342180D01*
X170338100Y-105242180D01*
X170238100Y-105162180D01*
X170148100Y-105102180D01*
X169878100Y-104942180D01*
X169528100Y-104742180D01*
X169228100Y-104662180D01*
X169018100Y-104632180D01*
X168448100Y-104602180D01*
X168448100Y-105942180D01*
X170338100Y-105942180D01*
X170338100Y-105262180D01*
X170238100Y-105342180D01*
D13*
X164398112Y-105412180D02*
G75*
G03*
X164398112Y-105412180I-4090012J0D01*
G01*
D14*
G36*
X168878303Y-103872491D02*
G01*
X168983775Y-103879620D01*
X169097408Y-103884572D01*
X169183688Y-103886180D01*
X169346249Y-103893360D01*
X169513155Y-103913260D01*
X169667692Y-103943423D01*
X169767495Y-103972012D01*
X169828065Y-103997949D01*
X169914463Y-104041709D01*
X170017002Y-104098069D01*
X170126000Y-104161806D01*
X170175020Y-104191778D01*
X170316960Y-104278447D01*
X170431630Y-104344652D01*
X170526547Y-104394053D01*
X170609230Y-104430309D01*
X170687196Y-104457077D01*
X170758943Y-104475940D01*
X170830768Y-104488791D01*
X170933703Y-104502169D01*
X171056552Y-104515068D01*
X171188120Y-104526483D01*
X171317209Y-104535407D01*
X171432625Y-104540836D01*
X171494484Y-104542012D01*
X171616193Y-104542347D01*
X171616193Y-102421174D01*
X171261651Y-102435387D01*
X171133284Y-102441460D01*
X171010449Y-102448942D01*
X170903417Y-102457089D01*
X170822462Y-102465154D01*
X170791475Y-102469505D01*
X170646121Y-102509979D01*
X170566725Y-102545429D01*
X170566725Y-103128718D01*
X170677294Y-103133500D01*
X170782704Y-103179930D01*
X170840895Y-103226068D01*
X170917285Y-103322571D01*
X170954107Y-103429449D01*
X170950418Y-103541769D01*
X170918283Y-103631023D01*
X170847284Y-103730623D01*
X170755825Y-103793538D01*
X170646205Y-103818777D01*
X170520726Y-103805349D01*
X170516347Y-103804236D01*
X170408749Y-103757904D01*
X170329086Y-103686611D01*
X170278100Y-103597840D01*
X170256530Y-103499075D01*
X170265118Y-103397798D01*
X170304602Y-103301491D01*
X170375725Y-103217638D01*
X170453183Y-103165923D01*
X170566725Y-103128718D01*
X170566725Y-102545429D01*
X170477118Y-102585439D01*
X170284416Y-102695908D01*
X170227414Y-102732328D01*
X170063427Y-102834403D01*
X169920309Y-102912175D01*
X169788203Y-102970462D01*
X169657255Y-103014086D01*
X169643442Y-103017937D01*
X169544161Y-103039624D01*
X169414252Y-103059944D01*
X169265420Y-103077648D01*
X169109371Y-103091488D01*
X168957810Y-103100217D01*
X168848651Y-103102678D01*
X168716359Y-103103014D01*
X168716359Y-103858802D01*
X168878303Y-103872491D01*
G37*
X168878303Y-103872491D02*
X168983775Y-103879620D01*
X169097408Y-103884572D01*
X169183688Y-103886180D01*
X169346249Y-103893360D01*
X169513155Y-103913260D01*
X169667692Y-103943423D01*
X169767495Y-103972012D01*
X169828065Y-103997949D01*
X169914463Y-104041709D01*
X170017002Y-104098069D01*
X170126000Y-104161806D01*
X170175020Y-104191778D01*
X170316960Y-104278447D01*
X170431630Y-104344652D01*
X170526547Y-104394053D01*
X170609230Y-104430309D01*
X170687196Y-104457077D01*
X170758943Y-104475940D01*
X170830768Y-104488791D01*
X170933703Y-104502169D01*
X171056552Y-104515068D01*
X171188120Y-104526483D01*
X171317209Y-104535407D01*
X171432625Y-104540836D01*
X171494484Y-104542012D01*
X171616193Y-104542347D01*
X171616193Y-102421174D01*
X171261651Y-102435387D01*
X171133284Y-102441460D01*
X171010449Y-102448942D01*
X170903417Y-102457089D01*
X170822462Y-102465154D01*
X170791475Y-102469505D01*
X170646121Y-102509979D01*
X170566725Y-102545429D01*
X170566725Y-103128718D01*
X170677294Y-103133500D01*
X170782704Y-103179930D01*
X170840895Y-103226068D01*
X170917285Y-103322571D01*
X170954107Y-103429449D01*
X170950418Y-103541769D01*
X170918283Y-103631023D01*
X170847284Y-103730623D01*
X170755825Y-103793538D01*
X170646205Y-103818777D01*
X170520726Y-103805349D01*
X170516347Y-103804236D01*
X170408749Y-103757904D01*
X170329086Y-103686611D01*
X170278100Y-103597840D01*
X170256530Y-103499075D01*
X170265118Y-103397798D01*
X170304602Y-103301491D01*
X170375725Y-103217638D01*
X170453183Y-103165923D01*
X170566725Y-103128718D01*
X170566725Y-102545429D01*
X170477118Y-102585439D01*
X170284416Y-102695908D01*
X170227414Y-102732328D01*
X170063427Y-102834403D01*
X169920309Y-102912175D01*
X169788203Y-102970462D01*
X169657255Y-103014086D01*
X169643442Y-103017937D01*
X169544161Y-103039624D01*
X169414252Y-103059944D01*
X169265420Y-103077648D01*
X169109371Y-103091488D01*
X168957810Y-103100217D01*
X168848651Y-103102678D01*
X168716359Y-103103014D01*
X168716359Y-103858802D01*
X168878303Y-103872491D01*
G36*
X171447897Y-109107529D02*
G01*
X171342425Y-109100400D01*
X171228792Y-109095448D01*
X171142512Y-109093840D01*
X170979951Y-109086660D01*
X170813045Y-109066760D01*
X170658508Y-109036597D01*
X170558705Y-109008008D01*
X170498135Y-108982071D01*
X170411737Y-108938311D01*
X170309198Y-108881951D01*
X170200200Y-108818214D01*
X170151180Y-108788242D01*
X170009240Y-108701573D01*
X169894570Y-108635368D01*
X169799653Y-108585967D01*
X169716970Y-108549711D01*
X169639004Y-108522943D01*
X169567257Y-108504080D01*
X169495432Y-108491229D01*
X169392497Y-108477851D01*
X169269648Y-108464952D01*
X169138080Y-108453537D01*
X169008991Y-108444613D01*
X168893575Y-108439184D01*
X168831716Y-108438008D01*
X168710007Y-108437673D01*
X168710007Y-110558846D01*
X169064549Y-110544633D01*
X169192916Y-110538560D01*
X169315751Y-110531078D01*
X169422783Y-110522931D01*
X169503738Y-110514866D01*
X169534725Y-110510515D01*
X169680079Y-110470041D01*
X169759475Y-110434591D01*
X169759475Y-109851302D01*
X169648906Y-109846520D01*
X169543496Y-109800090D01*
X169485305Y-109753952D01*
X169408915Y-109657449D01*
X169372093Y-109550571D01*
X169375782Y-109438251D01*
X169407917Y-109348997D01*
X169478916Y-109249397D01*
X169570375Y-109186482D01*
X169679995Y-109161243D01*
X169805474Y-109174671D01*
X169809853Y-109175784D01*
X169917451Y-109222116D01*
X169997114Y-109293409D01*
X170048100Y-109382180D01*
X170069670Y-109480945D01*
X170061082Y-109582222D01*
X170021598Y-109678529D01*
X169950475Y-109762382D01*
X169873017Y-109814097D01*
X169759475Y-109851302D01*
X169759475Y-110434591D01*
X169849082Y-110394581D01*
X170041784Y-110284112D01*
X170098786Y-110247692D01*
X170262773Y-110145617D01*
X170405891Y-110067845D01*
X170537997Y-110009558D01*
X170668945Y-109965934D01*
X170682758Y-109962083D01*
X170782039Y-109940396D01*
X170911948Y-109920076D01*
X171060780Y-109902372D01*
X171216829Y-109888532D01*
X171368390Y-109879803D01*
X171477549Y-109877342D01*
X171609841Y-109877006D01*
X171609841Y-109121218D01*
X171447897Y-109107529D01*
G37*
X171447897Y-109107529D02*
X171342425Y-109100400D01*
X171228792Y-109095448D01*
X171142512Y-109093840D01*
X170979951Y-109086660D01*
X170813045Y-109066760D01*
X170658508Y-109036597D01*
X170558705Y-109008008D01*
X170498135Y-108982071D01*
X170411737Y-108938311D01*
X170309198Y-108881951D01*
X170200200Y-108818214D01*
X170151180Y-108788242D01*
X170009240Y-108701573D01*
X169894570Y-108635368D01*
X169799653Y-108585967D01*
X169716970Y-108549711D01*
X169639004Y-108522943D01*
X169567257Y-108504080D01*
X169495432Y-108491229D01*
X169392497Y-108477851D01*
X169269648Y-108464952D01*
X169138080Y-108453537D01*
X169008991Y-108444613D01*
X168893575Y-108439184D01*
X168831716Y-108438008D01*
X168710007Y-108437673D01*
X168710007Y-110558846D01*
X169064549Y-110544633D01*
X169192916Y-110538560D01*
X169315751Y-110531078D01*
X169422783Y-110522931D01*
X169503738Y-110514866D01*
X169534725Y-110510515D01*
X169680079Y-110470041D01*
X169759475Y-110434591D01*
X169759475Y-109851302D01*
X169648906Y-109846520D01*
X169543496Y-109800090D01*
X169485305Y-109753952D01*
X169408915Y-109657449D01*
X169372093Y-109550571D01*
X169375782Y-109438251D01*
X169407917Y-109348997D01*
X169478916Y-109249397D01*
X169570375Y-109186482D01*
X169679995Y-109161243D01*
X169805474Y-109174671D01*
X169809853Y-109175784D01*
X169917451Y-109222116D01*
X169997114Y-109293409D01*
X170048100Y-109382180D01*
X170069670Y-109480945D01*
X170061082Y-109582222D01*
X170021598Y-109678529D01*
X169950475Y-109762382D01*
X169873017Y-109814097D01*
X169759475Y-109851302D01*
X169759475Y-110434591D01*
X169849082Y-110394581D01*
X170041784Y-110284112D01*
X170098786Y-110247692D01*
X170262773Y-110145617D01*
X170405891Y-110067845D01*
X170537997Y-110009558D01*
X170668945Y-109965934D01*
X170682758Y-109962083D01*
X170782039Y-109940396D01*
X170911948Y-109920076D01*
X171060780Y-109902372D01*
X171216829Y-109888532D01*
X171368390Y-109879803D01*
X171477549Y-109877342D01*
X171609841Y-109877006D01*
X171609841Y-109121218D01*
X171447897Y-109107529D01*
G36*
X168907317Y-107898060D02*
G01*
X169012789Y-107905189D01*
X169126422Y-107910141D01*
X169212702Y-107911749D01*
X169375263Y-107918929D01*
X169542169Y-107938829D01*
X169696706Y-107968992D01*
X169796509Y-107997581D01*
X169857079Y-108023518D01*
X169943477Y-108067278D01*
X170046016Y-108123638D01*
X170155014Y-108187375D01*
X170204034Y-108217347D01*
X170345974Y-108304016D01*
X170460644Y-108370221D01*
X170555561Y-108419622D01*
X170638244Y-108455878D01*
X170716210Y-108482646D01*
X170787957Y-108501509D01*
X170859782Y-108514360D01*
X170962717Y-108527738D01*
X171085566Y-108540637D01*
X171217134Y-108552052D01*
X171346223Y-108560976D01*
X171461639Y-108566405D01*
X171523498Y-108567581D01*
X171645207Y-108567916D01*
X171645207Y-106446743D01*
X171290665Y-106460956D01*
X171162298Y-106467029D01*
X171039463Y-106474511D01*
X170932431Y-106482658D01*
X170851476Y-106490723D01*
X170820489Y-106495074D01*
X170675135Y-106535548D01*
X170595739Y-106570998D01*
X170595739Y-107154287D01*
X170706308Y-107159069D01*
X170811718Y-107205499D01*
X170869909Y-107251637D01*
X170946299Y-107348140D01*
X170983121Y-107455018D01*
X170979432Y-107567338D01*
X170947297Y-107656592D01*
X170876298Y-107756192D01*
X170784839Y-107819107D01*
X170675219Y-107844346D01*
X170549740Y-107830918D01*
X170545361Y-107829805D01*
X170437763Y-107783473D01*
X170358100Y-107712180D01*
X170307114Y-107623409D01*
X170285544Y-107524644D01*
X170294132Y-107423367D01*
X170333616Y-107327060D01*
X170404739Y-107243207D01*
X170482197Y-107191492D01*
X170595739Y-107154287D01*
X170595739Y-106570998D01*
X170506132Y-106611008D01*
X170313430Y-106721477D01*
X170256428Y-106757897D01*
X170092441Y-106859972D01*
X169949323Y-106937744D01*
X169817217Y-106996031D01*
X169686269Y-107039655D01*
X169672456Y-107043506D01*
X169573175Y-107065193D01*
X169443266Y-107085513D01*
X169294434Y-107103217D01*
X169138385Y-107117057D01*
X168986824Y-107125786D01*
X168877665Y-107128247D01*
X168745373Y-107128583D01*
X168745373Y-107884371D01*
X168907317Y-107898060D01*
G37*
X168907317Y-107898060D02*
X169012789Y-107905189D01*
X169126422Y-107910141D01*
X169212702Y-107911749D01*
X169375263Y-107918929D01*
X169542169Y-107938829D01*
X169696706Y-107968992D01*
X169796509Y-107997581D01*
X169857079Y-108023518D01*
X169943477Y-108067278D01*
X170046016Y-108123638D01*
X170155014Y-108187375D01*
X170204034Y-108217347D01*
X170345974Y-108304016D01*
X170460644Y-108370221D01*
X170555561Y-108419622D01*
X170638244Y-108455878D01*
X170716210Y-108482646D01*
X170787957Y-108501509D01*
X170859782Y-108514360D01*
X170962717Y-108527738D01*
X171085566Y-108540637D01*
X171217134Y-108552052D01*
X171346223Y-108560976D01*
X171461639Y-108566405D01*
X171523498Y-108567581D01*
X171645207Y-108567916D01*
X171645207Y-106446743D01*
X171290665Y-106460956D01*
X171162298Y-106467029D01*
X171039463Y-106474511D01*
X170932431Y-106482658D01*
X170851476Y-106490723D01*
X170820489Y-106495074D01*
X170675135Y-106535548D01*
X170595739Y-106570998D01*
X170595739Y-107154287D01*
X170706308Y-107159069D01*
X170811718Y-107205499D01*
X170869909Y-107251637D01*
X170946299Y-107348140D01*
X170983121Y-107455018D01*
X170979432Y-107567338D01*
X170947297Y-107656592D01*
X170876298Y-107756192D01*
X170784839Y-107819107D01*
X170675219Y-107844346D01*
X170549740Y-107830918D01*
X170545361Y-107829805D01*
X170437763Y-107783473D01*
X170358100Y-107712180D01*
X170307114Y-107623409D01*
X170285544Y-107524644D01*
X170294132Y-107423367D01*
X170333616Y-107327060D01*
X170404739Y-107243207D01*
X170482197Y-107191492D01*
X170595739Y-107154287D01*
X170595739Y-106570998D01*
X170506132Y-106611008D01*
X170313430Y-106721477D01*
X170256428Y-106757897D01*
X170092441Y-106859972D01*
X169949323Y-106937744D01*
X169817217Y-106996031D01*
X169686269Y-107039655D01*
X169672456Y-107043506D01*
X169573175Y-107065193D01*
X169443266Y-107085513D01*
X169294434Y-107103217D01*
X169138385Y-107117057D01*
X168986824Y-107125786D01*
X168877665Y-107128247D01*
X168745373Y-107128583D01*
X168745373Y-107884371D01*
X168907317Y-107898060D01*
G36*
X171415217Y-101067337D02*
G01*
X171309745Y-101060208D01*
X171196112Y-101055256D01*
X171109832Y-101053648D01*
X170947271Y-101046468D01*
X170780365Y-101026568D01*
X170625828Y-100996405D01*
X170526025Y-100967816D01*
X170465455Y-100941879D01*
X170379057Y-100898119D01*
X170276518Y-100841759D01*
X170167520Y-100778022D01*
X170118500Y-100748050D01*
X169976560Y-100661381D01*
X169861890Y-100595176D01*
X169766973Y-100545775D01*
X169684290Y-100509519D01*
X169606324Y-100482751D01*
X169534577Y-100463888D01*
X169462752Y-100451037D01*
X169359817Y-100437659D01*
X169236968Y-100424760D01*
X169105400Y-100413345D01*
X168976311Y-100404421D01*
X168860895Y-100398992D01*
X168799036Y-100397816D01*
X168677327Y-100397481D01*
X168677327Y-102518654D01*
X169031869Y-102504441D01*
X169160236Y-102498368D01*
X169283071Y-102490886D01*
X169390103Y-102482739D01*
X169471058Y-102474674D01*
X169502045Y-102470323D01*
X169647399Y-102429849D01*
X169726795Y-102394399D01*
X169726795Y-101811110D01*
X169616226Y-101806328D01*
X169510816Y-101759898D01*
X169452625Y-101713760D01*
X169376235Y-101617257D01*
X169339413Y-101510379D01*
X169343102Y-101398059D01*
X169375237Y-101308805D01*
X169446236Y-101209205D01*
X169537695Y-101146290D01*
X169647315Y-101121051D01*
X169772794Y-101134479D01*
X169777173Y-101135592D01*
X169884771Y-101181924D01*
X169964434Y-101253217D01*
X170015420Y-101341988D01*
X170036990Y-101440753D01*
X170028402Y-101542030D01*
X169988918Y-101638337D01*
X169917795Y-101722190D01*
X169840337Y-101773905D01*
X169726795Y-101811110D01*
X169726795Y-102394399D01*
X169816402Y-102354389D01*
X170009104Y-102243920D01*
X170066106Y-102207500D01*
X170230093Y-102105425D01*
X170373211Y-102027653D01*
X170505317Y-101969366D01*
X170636265Y-101925742D01*
X170650078Y-101921891D01*
X170749359Y-101900204D01*
X170879268Y-101879884D01*
X171028100Y-101862180D01*
X171184149Y-101848340D01*
X171335710Y-101839611D01*
X171444869Y-101837150D01*
X171577161Y-101836814D01*
X171577161Y-101081026D01*
X171415217Y-101067337D01*
G37*
X171415217Y-101067337D02*
X171309745Y-101060208D01*
X171196112Y-101055256D01*
X171109832Y-101053648D01*
X170947271Y-101046468D01*
X170780365Y-101026568D01*
X170625828Y-100996405D01*
X170526025Y-100967816D01*
X170465455Y-100941879D01*
X170379057Y-100898119D01*
X170276518Y-100841759D01*
X170167520Y-100778022D01*
X170118500Y-100748050D01*
X169976560Y-100661381D01*
X169861890Y-100595176D01*
X169766973Y-100545775D01*
X169684290Y-100509519D01*
X169606324Y-100482751D01*
X169534577Y-100463888D01*
X169462752Y-100451037D01*
X169359817Y-100437659D01*
X169236968Y-100424760D01*
X169105400Y-100413345D01*
X168976311Y-100404421D01*
X168860895Y-100398992D01*
X168799036Y-100397816D01*
X168677327Y-100397481D01*
X168677327Y-102518654D01*
X169031869Y-102504441D01*
X169160236Y-102498368D01*
X169283071Y-102490886D01*
X169390103Y-102482739D01*
X169471058Y-102474674D01*
X169502045Y-102470323D01*
X169647399Y-102429849D01*
X169726795Y-102394399D01*
X169726795Y-101811110D01*
X169616226Y-101806328D01*
X169510816Y-101759898D01*
X169452625Y-101713760D01*
X169376235Y-101617257D01*
X169339413Y-101510379D01*
X169343102Y-101398059D01*
X169375237Y-101308805D01*
X169446236Y-101209205D01*
X169537695Y-101146290D01*
X169647315Y-101121051D01*
X169772794Y-101134479D01*
X169777173Y-101135592D01*
X169884771Y-101181924D01*
X169964434Y-101253217D01*
X170015420Y-101341988D01*
X170036990Y-101440753D01*
X170028402Y-101542030D01*
X169988918Y-101638337D01*
X169917795Y-101722190D01*
X169840337Y-101773905D01*
X169726795Y-101811110D01*
X169726795Y-102394399D01*
X169816402Y-102354389D01*
X170009104Y-102243920D01*
X170066106Y-102207500D01*
X170230093Y-102105425D01*
X170373211Y-102027653D01*
X170505317Y-101969366D01*
X170636265Y-101925742D01*
X170650078Y-101921891D01*
X170749359Y-101900204D01*
X170879268Y-101879884D01*
X171028100Y-101862180D01*
X171184149Y-101848340D01*
X171335710Y-101839611D01*
X171444869Y-101837150D01*
X171577161Y-101836814D01*
X171577161Y-101081026D01*
X171415217Y-101067337D01*
D12*
G36*
X169418100Y-99912180D02*
G01*
X169598100Y-99922180D01*
X169698100Y-99952180D01*
X169838100Y-99992180D01*
X169928100Y-100052180D01*
X170198100Y-100212180D01*
X170548100Y-100412180D01*
X170848100Y-100492180D01*
X171058100Y-100522180D01*
X171628100Y-100552180D01*
X171628100Y-98862180D01*
X168668100Y-98862180D01*
X168668100Y-99892180D01*
X169418100Y-99912180D01*
G37*
X169418100Y-99912180D02*
X169598100Y-99922180D01*
X169698100Y-99952180D01*
X169838100Y-99992180D01*
X169928100Y-100052180D01*
X170198100Y-100212180D01*
X170548100Y-100412180D01*
X170848100Y-100492180D01*
X171058100Y-100522180D01*
X171628100Y-100552180D01*
X171628100Y-98862180D01*
X168668100Y-98862180D01*
X168668100Y-99892180D01*
X169418100Y-99912180D01*
G36*
X169378100Y-111072180D02*
G01*
X169558100Y-111062180D01*
X169658100Y-111032180D01*
X169798100Y-110992180D01*
X169888100Y-110932180D01*
X170158100Y-110772180D01*
X170508100Y-110572180D01*
X170808100Y-110492180D01*
X171018100Y-110462180D01*
X171588100Y-110432180D01*
X171588100Y-112122180D01*
X168628100Y-112122180D01*
X168628100Y-111092180D01*
X169378100Y-111072180D01*
G37*
X169378100Y-111072180D02*
X169558100Y-111062180D01*
X169658100Y-111032180D01*
X169798100Y-110992180D01*
X169888100Y-110932180D01*
X170158100Y-110772180D01*
X170508100Y-110572180D01*
X170808100Y-110492180D01*
X171018100Y-110462180D01*
X171588100Y-110432180D01*
X171588100Y-112122180D01*
X168628100Y-112122180D01*
X168628100Y-111092180D01*
X169378100Y-111072180D01*
%TO.C,U3*%
G36*
X119047540Y-106073400D02*
G01*
X119047540Y-105870200D01*
X118730040Y-105870200D01*
X118628440Y-105971800D01*
X118628440Y-106073400D01*
X119047540Y-106073400D01*
G37*
X119047540Y-106073400D02*
X119047540Y-105870200D01*
X118730040Y-105870200D01*
X118628440Y-105971800D01*
X118628440Y-106073400D01*
X119047540Y-106073400D01*
G36*
X117848660Y-106073400D02*
G01*
X117848660Y-105870200D01*
X118166160Y-105870200D01*
X118267760Y-105971800D01*
X118267760Y-106073400D01*
X117848660Y-106073400D01*
G37*
X117848660Y-106073400D02*
X117848660Y-105870200D01*
X118166160Y-105870200D01*
X118267760Y-105971800D01*
X118267760Y-106073400D01*
X117848660Y-106073400D01*
G36*
X117848660Y-105369820D02*
G01*
X117848660Y-105573020D01*
X118166160Y-105573020D01*
X118267760Y-105471420D01*
X118166160Y-105369820D01*
X117848660Y-105369820D01*
G37*
X117848660Y-105369820D02*
X117848660Y-105573020D01*
X118166160Y-105573020D01*
X118267760Y-105471420D01*
X118166160Y-105369820D01*
X117848660Y-105369820D01*
G36*
X117848660Y-104869440D02*
G01*
X117848660Y-105072640D01*
X118166160Y-105072640D01*
X118267760Y-104971040D01*
X118267760Y-104869440D01*
X117848660Y-104869440D01*
G37*
X117848660Y-104869440D02*
X117848660Y-105072640D01*
X118166160Y-105072640D01*
X118267760Y-104971040D01*
X118267760Y-104869440D01*
X117848660Y-104869440D01*
G36*
X119047540Y-104869440D02*
G01*
X119047540Y-105072640D01*
X118730040Y-105072640D01*
X118628440Y-104971040D01*
X118628440Y-104869440D01*
X119047540Y-104869440D01*
G37*
X119047540Y-104869440D02*
X119047540Y-105072640D01*
X118730040Y-105072640D01*
X118628440Y-104971040D01*
X118628440Y-104869440D01*
X119047540Y-104869440D01*
G36*
X119047540Y-105369820D02*
G01*
X119047540Y-105573020D01*
X118730040Y-105573020D01*
X118628440Y-105471420D01*
X118730040Y-105369820D01*
X119047540Y-105369820D01*
G37*
X119047540Y-105369820D02*
X119047540Y-105573020D01*
X118730040Y-105573020D01*
X118628440Y-105471420D01*
X118730040Y-105369820D01*
X119047540Y-105369820D01*
%TD*%
D15*
%TO.C,J1*%
X145298100Y-67212180D03*
X155358100Y-67242180D03*
%TD*%
%TO.C,J1*%
X128258100Y-67382180D03*
X118198100Y-67352180D03*
%TD*%
%TO.C,J1*%
X170658100Y-99492180D03*
X169658100Y-101542180D03*
X170658100Y-103482180D03*
X170658100Y-107532180D03*
X169658100Y-109502180D03*
X170658100Y-111452180D03*
%TD*%
D16*
%TO.C,J4*%
X130860000Y-93500000D03*
X128320000Y-93500000D03*
X125780000Y-93500000D03*
D17*
X123240000Y-93500000D03*
%TD*%
D18*
%TO.C,SW1*%
X142220000Y-81260004D03*
X142220000Y-88460004D03*
X139220000Y-81260004D03*
X139220000Y-88460004D03*
%TD*%
%TO.C,SW2*%
X156220000Y-81260004D03*
X156220000Y-88460004D03*
X153220000Y-81260004D03*
X153220000Y-88460004D03*
%TD*%
D16*
%TO.C,J3*%
X136880000Y-87740000D03*
X134340000Y-87740000D03*
X136880000Y-85200000D03*
X134340000Y-85200000D03*
X136880000Y-82660000D03*
D17*
X134340000Y-82660000D03*
%TD*%
%TO.C,R12*%
G36*
G01*
X168305000Y-78495000D02*
X167755000Y-78495000D01*
G75*
G02*
X167555000Y-78295000I0J200000D01*
G01*
X167555000Y-77895000D01*
G75*
G02*
X167755000Y-77695000I200000J0D01*
G01*
X168305000Y-77695000D01*
G75*
G02*
X168505000Y-77895000I0J-200000D01*
G01*
X168505000Y-78295000D01*
G75*
G02*
X168305000Y-78495000I-200000J0D01*
G01*
G37*
G36*
G01*
X168305000Y-80145000D02*
X167755000Y-80145000D01*
G75*
G02*
X167555000Y-79945000I0J200000D01*
G01*
X167555000Y-79545000D01*
G75*
G02*
X167755000Y-79345000I200000J0D01*
G01*
X168305000Y-79345000D01*
G75*
G02*
X168505000Y-79545000I0J-200000D01*
G01*
X168505000Y-79945000D01*
G75*
G02*
X168305000Y-80145000I-200000J0D01*
G01*
G37*
%TD*%
%TO.C,R11*%
G36*
G01*
X166285000Y-79340000D02*
X166835000Y-79340000D01*
G75*
G02*
X167035000Y-79540000I0J-200000D01*
G01*
X167035000Y-79940000D01*
G75*
G02*
X166835000Y-80140000I-200000J0D01*
G01*
X166285000Y-80140000D01*
G75*
G02*
X166085000Y-79940000I0J200000D01*
G01*
X166085000Y-79540000D01*
G75*
G02*
X166285000Y-79340000I200000J0D01*
G01*
G37*
G36*
G01*
X166285000Y-77690000D02*
X166835000Y-77690000D01*
G75*
G02*
X167035000Y-77890000I0J-200000D01*
G01*
X167035000Y-78290000D01*
G75*
G02*
X166835000Y-78490000I-200000J0D01*
G01*
X166285000Y-78490000D01*
G75*
G02*
X166085000Y-78290000I0J200000D01*
G01*
X166085000Y-77890000D01*
G75*
G02*
X166285000Y-77690000I200000J0D01*
G01*
G37*
%TD*%
D16*
%TO.C,J2*%
X165320000Y-87610000D03*
D17*
X165320000Y-90150000D03*
%TD*%
%TO.C,R6*%
G36*
G01*
X121685000Y-82855000D02*
X121685000Y-82305000D01*
G75*
G02*
X121885000Y-82105000I200000J0D01*
G01*
X122285000Y-82105000D01*
G75*
G02*
X122485000Y-82305000I0J-200000D01*
G01*
X122485000Y-82855000D01*
G75*
G02*
X122285000Y-83055000I-200000J0D01*
G01*
X121885000Y-83055000D01*
G75*
G02*
X121685000Y-82855000I0J200000D01*
G01*
G37*
G36*
G01*
X120035000Y-82855000D02*
X120035000Y-82305000D01*
G75*
G02*
X120235000Y-82105000I200000J0D01*
G01*
X120635000Y-82105000D01*
G75*
G02*
X120835000Y-82305000I0J-200000D01*
G01*
X120835000Y-82855000D01*
G75*
G02*
X120635000Y-83055000I-200000J0D01*
G01*
X120235000Y-83055000D01*
G75*
G02*
X120035000Y-82855000I0J200000D01*
G01*
G37*
%TD*%
%TO.C,D3*%
G36*
G01*
X125020000Y-83076250D02*
X125020000Y-82163750D01*
G75*
G02*
X125263750Y-81920000I243750J0D01*
G01*
X125751250Y-81920000D01*
G75*
G02*
X125995000Y-82163750I0J-243750D01*
G01*
X125995000Y-83076250D01*
G75*
G02*
X125751250Y-83320000I-243750J0D01*
G01*
X125263750Y-83320000D01*
G75*
G02*
X125020000Y-83076250I0J243750D01*
G01*
G37*
G36*
G01*
X123145000Y-83076250D02*
X123145000Y-82163750D01*
G75*
G02*
X123388750Y-81920000I243750J0D01*
G01*
X123876250Y-81920000D01*
G75*
G02*
X124120000Y-82163750I0J-243750D01*
G01*
X124120000Y-83076250D01*
G75*
G02*
X123876250Y-83320000I-243750J0D01*
G01*
X123388750Y-83320000D01*
G75*
G02*
X123145000Y-83076250I0J243750D01*
G01*
G37*
%TD*%
D19*
%TO.C,P1*%
X165360000Y-77800000D03*
X165360000Y-83580000D03*
D20*
X169010000Y-76370000D03*
X169010000Y-85010000D03*
D21*
X164860000Y-76370000D03*
X164860000Y-85010000D03*
%TD*%
%TO.C,R4*%
G36*
G01*
X121705000Y-87315000D02*
X121705000Y-86765000D01*
G75*
G02*
X121905000Y-86565000I200000J0D01*
G01*
X122305000Y-86565000D01*
G75*
G02*
X122505000Y-86765000I0J-200000D01*
G01*
X122505000Y-87315000D01*
G75*
G02*
X122305000Y-87515000I-200000J0D01*
G01*
X121905000Y-87515000D01*
G75*
G02*
X121705000Y-87315000I0J200000D01*
G01*
G37*
G36*
G01*
X120055000Y-87315000D02*
X120055000Y-86765000D01*
G75*
G02*
X120255000Y-86565000I200000J0D01*
G01*
X120655000Y-86565000D01*
G75*
G02*
X120855000Y-86765000I0J-200000D01*
G01*
X120855000Y-87315000D01*
G75*
G02*
X120655000Y-87515000I-200000J0D01*
G01*
X120255000Y-87515000D01*
G75*
G02*
X120055000Y-87315000I0J200000D01*
G01*
G37*
%TD*%
%TO.C,R1*%
G36*
G01*
X170365000Y-81945000D02*
X169815000Y-81945000D01*
G75*
G02*
X169615000Y-81745000I0J200000D01*
G01*
X169615000Y-81345000D01*
G75*
G02*
X169815000Y-81145000I200000J0D01*
G01*
X170365000Y-81145000D01*
G75*
G02*
X170565000Y-81345000I0J-200000D01*
G01*
X170565000Y-81745000D01*
G75*
G02*
X170365000Y-81945000I-200000J0D01*
G01*
G37*
G36*
G01*
X170365000Y-83595000D02*
X169815000Y-83595000D01*
G75*
G02*
X169615000Y-83395000I0J200000D01*
G01*
X169615000Y-82995000D01*
G75*
G02*
X169815000Y-82795000I200000J0D01*
G01*
X170365000Y-82795000D01*
G75*
G02*
X170565000Y-82995000I0J-200000D01*
G01*
X170565000Y-83395000D01*
G75*
G02*
X170365000Y-83595000I-200000J0D01*
G01*
G37*
%TD*%
%TO.C,D2*%
G36*
G01*
X125050000Y-87501250D02*
X125050000Y-86588750D01*
G75*
G02*
X125293750Y-86345000I243750J0D01*
G01*
X125781250Y-86345000D01*
G75*
G02*
X126025000Y-86588750I0J-243750D01*
G01*
X126025000Y-87501250D01*
G75*
G02*
X125781250Y-87745000I-243750J0D01*
G01*
X125293750Y-87745000D01*
G75*
G02*
X125050000Y-87501250I0J243750D01*
G01*
G37*
G36*
G01*
X123175000Y-87501250D02*
X123175000Y-86588750D01*
G75*
G02*
X123418750Y-86345000I243750J0D01*
G01*
X123906250Y-86345000D01*
G75*
G02*
X124150000Y-86588750I0J-243750D01*
G01*
X124150000Y-87501250D01*
G75*
G02*
X123906250Y-87745000I-243750J0D01*
G01*
X123418750Y-87745000D01*
G75*
G02*
X123175000Y-87501250I0J243750D01*
G01*
G37*
%TD*%
%TO.C,D1*%
G36*
G01*
X170546250Y-78660000D02*
X169633750Y-78660000D01*
G75*
G02*
X169390000Y-78416250I0J243750D01*
G01*
X169390000Y-77928750D01*
G75*
G02*
X169633750Y-77685000I243750J0D01*
G01*
X170546250Y-77685000D01*
G75*
G02*
X170790000Y-77928750I0J-243750D01*
G01*
X170790000Y-78416250D01*
G75*
G02*
X170546250Y-78660000I-243750J0D01*
G01*
G37*
G36*
G01*
X170546250Y-80535000D02*
X169633750Y-80535000D01*
G75*
G02*
X169390000Y-80291250I0J243750D01*
G01*
X169390000Y-79803750D01*
G75*
G02*
X169633750Y-79560000I243750J0D01*
G01*
X170546250Y-79560000D01*
G75*
G02*
X170790000Y-79803750I0J-243750D01*
G01*
X170790000Y-80291250D01*
G75*
G02*
X170546250Y-80535000I-243750J0D01*
G01*
G37*
%TD*%
D22*
%TO.C,J1*%
X131230000Y-89305004D03*
X128690000Y-88035004D03*
X131230000Y-86765004D03*
X128690000Y-85495004D03*
X131230000Y-84225004D03*
X128690000Y-82955004D03*
X131230000Y-81685004D03*
D23*
X128690000Y-80415004D03*
D24*
X122340000Y-79145004D03*
X122340000Y-90575004D03*
%TD*%
D25*
%TO.C,U3*%
X118895140Y-104971040D03*
X118895140Y-105471420D03*
X118895140Y-105971800D03*
X118001060Y-105971800D03*
X118001060Y-105471420D03*
X118001060Y-104971040D03*
D12*
G36*
X118609745Y-105202180D02*
G01*
X118448100Y-105363825D01*
X118286455Y-105202180D01*
X118448100Y-105040535D01*
X118609745Y-105202180D01*
G37*
G36*
X118609745Y-105740660D02*
G01*
X118448100Y-105902305D01*
X118286455Y-105740660D01*
X118448100Y-105579015D01*
X118609745Y-105740660D01*
G37*
%TD*%
D26*
%TO.C,M1*%
X129078100Y-100222180D03*
X129078100Y-98422180D03*
%TD*%
%TO.C,D3*%
G36*
G01*
X133388100Y-111635930D02*
X133388100Y-112148430D01*
G75*
G02*
X133169350Y-112367180I-218750J0D01*
G01*
X132731850Y-112367180D01*
G75*
G02*
X132513100Y-112148430I0J218750D01*
G01*
X132513100Y-111635930D01*
G75*
G02*
X132731850Y-111417180I218750J0D01*
G01*
X133169350Y-111417180D01*
G75*
G02*
X133388100Y-111635930I0J-218750D01*
G01*
G37*
G36*
G01*
X134963100Y-111635930D02*
X134963100Y-112148430D01*
G75*
G02*
X134744350Y-112367180I-218750J0D01*
G01*
X134306850Y-112367180D01*
G75*
G02*
X134088100Y-112148430I0J218750D01*
G01*
X134088100Y-111635930D01*
G75*
G02*
X134306850Y-111417180I218750J0D01*
G01*
X134744350Y-111417180D01*
G75*
G02*
X134963100Y-111635930I0J-218750D01*
G01*
G37*
%TD*%
%TO.C,D2*%
G36*
G01*
X133395600Y-107355930D02*
X133395600Y-107868430D01*
G75*
G02*
X133176850Y-108087180I-218750J0D01*
G01*
X132739350Y-108087180D01*
G75*
G02*
X132520600Y-107868430I0J218750D01*
G01*
X132520600Y-107355930D01*
G75*
G02*
X132739350Y-107137180I218750J0D01*
G01*
X133176850Y-107137180D01*
G75*
G02*
X133395600Y-107355930I0J-218750D01*
G01*
G37*
G36*
G01*
X134970600Y-107355930D02*
X134970600Y-107868430D01*
G75*
G02*
X134751850Y-108087180I-218750J0D01*
G01*
X134314350Y-108087180D01*
G75*
G02*
X134095600Y-107868430I0J218750D01*
G01*
X134095600Y-107355930D01*
G75*
G02*
X134314350Y-107137180I218750J0D01*
G01*
X134751850Y-107137180D01*
G75*
G02*
X134970600Y-107355930I0J-218750D01*
G01*
G37*
%TD*%
%TO.C,D1*%
G36*
G01*
X134088100Y-109988430D02*
X134088100Y-109475930D01*
G75*
G02*
X134306850Y-109257180I218750J0D01*
G01*
X134744350Y-109257180D01*
G75*
G02*
X134963100Y-109475930I0J-218750D01*
G01*
X134963100Y-109988430D01*
G75*
G02*
X134744350Y-110207180I-218750J0D01*
G01*
X134306850Y-110207180D01*
G75*
G02*
X134088100Y-109988430I0J218750D01*
G01*
G37*
G36*
G01*
X132513100Y-109988430D02*
X132513100Y-109475930D01*
G75*
G02*
X132731850Y-109257180I218750J0D01*
G01*
X133169350Y-109257180D01*
G75*
G02*
X133388100Y-109475930I0J-218750D01*
G01*
X133388100Y-109988430D01*
G75*
G02*
X133169350Y-110207180I-218750J0D01*
G01*
X132731850Y-110207180D01*
G75*
G02*
X132513100Y-109988430I0J218750D01*
G01*
G37*
%TD*%
D27*
%TO.C,RN1*%
X123958100Y-104302180D03*
D28*
X123958100Y-105102180D03*
D27*
X123958100Y-106702180D03*
D28*
X123958100Y-105902180D03*
D27*
X122158100Y-104302180D03*
D28*
X122158100Y-105902180D03*
X122158100Y-105102180D03*
D27*
X122158100Y-106702180D03*
%TD*%
D29*
%TO.C,U2*%
X123418100Y-112842180D03*
X123418100Y-112342180D03*
X123418100Y-111842180D03*
X123418100Y-111342180D03*
X123418100Y-110842180D03*
X119118100Y-110842180D03*
X119118100Y-111342180D03*
X119118100Y-111842180D03*
X119118100Y-112342180D03*
X119118100Y-112842180D03*
%TD*%
%TO.C,U1*%
G36*
G01*
X122973100Y-99937180D02*
X122973100Y-99787180D01*
G75*
G02*
X123048100Y-99712180I75000J0D01*
G01*
X124348100Y-99712180D01*
G75*
G02*
X124423100Y-99787180I0J-75000D01*
G01*
X124423100Y-99937180D01*
G75*
G02*
X124348100Y-100012180I-75000J0D01*
G01*
X123048100Y-100012180D01*
G75*
G02*
X122973100Y-99937180I0J75000D01*
G01*
G37*
G36*
G01*
X122973100Y-99437180D02*
X122973100Y-99287180D01*
G75*
G02*
X123048100Y-99212180I75000J0D01*
G01*
X124348100Y-99212180D01*
G75*
G02*
X124423100Y-99287180I0J-75000D01*
G01*
X124423100Y-99437180D01*
G75*
G02*
X124348100Y-99512180I-75000J0D01*
G01*
X123048100Y-99512180D01*
G75*
G02*
X122973100Y-99437180I0J75000D01*
G01*
G37*
G36*
G01*
X122973100Y-98937180D02*
X122973100Y-98787180D01*
G75*
G02*
X123048100Y-98712180I75000J0D01*
G01*
X124348100Y-98712180D01*
G75*
G02*
X124423100Y-98787180I0J-75000D01*
G01*
X124423100Y-98937180D01*
G75*
G02*
X124348100Y-99012180I-75000J0D01*
G01*
X123048100Y-99012180D01*
G75*
G02*
X122973100Y-98937180I0J75000D01*
G01*
G37*
G36*
G01*
X122973100Y-98437180D02*
X122973100Y-98287180D01*
G75*
G02*
X123048100Y-98212180I75000J0D01*
G01*
X124348100Y-98212180D01*
G75*
G02*
X124423100Y-98287180I0J-75000D01*
G01*
X124423100Y-98437180D01*
G75*
G02*
X124348100Y-98512180I-75000J0D01*
G01*
X123048100Y-98512180D01*
G75*
G02*
X122973100Y-98437180I0J75000D01*
G01*
G37*
G36*
G01*
X122973100Y-97937180D02*
X122973100Y-97787180D01*
G75*
G02*
X123048100Y-97712180I75000J0D01*
G01*
X124348100Y-97712180D01*
G75*
G02*
X124423100Y-97787180I0J-75000D01*
G01*
X124423100Y-97937180D01*
G75*
G02*
X124348100Y-98012180I-75000J0D01*
G01*
X123048100Y-98012180D01*
G75*
G02*
X122973100Y-97937180I0J75000D01*
G01*
G37*
G36*
G01*
X118573100Y-97937180D02*
X118573100Y-97787180D01*
G75*
G02*
X118648100Y-97712180I75000J0D01*
G01*
X119948100Y-97712180D01*
G75*
G02*
X120023100Y-97787180I0J-75000D01*
G01*
X120023100Y-97937180D01*
G75*
G02*
X119948100Y-98012180I-75000J0D01*
G01*
X118648100Y-98012180D01*
G75*
G02*
X118573100Y-97937180I0J75000D01*
G01*
G37*
G36*
G01*
X118573100Y-98437180D02*
X118573100Y-98287180D01*
G75*
G02*
X118648100Y-98212180I75000J0D01*
G01*
X119948100Y-98212180D01*
G75*
G02*
X120023100Y-98287180I0J-75000D01*
G01*
X120023100Y-98437180D01*
G75*
G02*
X119948100Y-98512180I-75000J0D01*
G01*
X118648100Y-98512180D01*
G75*
G02*
X118573100Y-98437180I0J75000D01*
G01*
G37*
G36*
G01*
X118573100Y-98937180D02*
X118573100Y-98787180D01*
G75*
G02*
X118648100Y-98712180I75000J0D01*
G01*
X119948100Y-98712180D01*
G75*
G02*
X120023100Y-98787180I0J-75000D01*
G01*
X120023100Y-98937180D01*
G75*
G02*
X119948100Y-99012180I-75000J0D01*
G01*
X118648100Y-99012180D01*
G75*
G02*
X118573100Y-98937180I0J75000D01*
G01*
G37*
G36*
G01*
X118573100Y-99437180D02*
X118573100Y-99287180D01*
G75*
G02*
X118648100Y-99212180I75000J0D01*
G01*
X119948100Y-99212180D01*
G75*
G02*
X120023100Y-99287180I0J-75000D01*
G01*
X120023100Y-99437180D01*
G75*
G02*
X119948100Y-99512180I-75000J0D01*
G01*
X118648100Y-99512180D01*
G75*
G02*
X118573100Y-99437180I0J75000D01*
G01*
G37*
G36*
G01*
X118573100Y-99937180D02*
X118573100Y-99787180D01*
G75*
G02*
X118648100Y-99712180I75000J0D01*
G01*
X119948100Y-99712180D01*
G75*
G02*
X120023100Y-99787180I0J-75000D01*
G01*
X120023100Y-99937180D01*
G75*
G02*
X119948100Y-100012180I-75000J0D01*
G01*
X118648100Y-100012180D01*
G75*
G02*
X118573100Y-99937180I0J75000D01*
G01*
G37*
%TD*%
%TO.C,C1*%
G36*
G01*
X127458100Y-111702180D02*
X127458100Y-111202180D01*
G75*
G02*
X127683100Y-110977180I225000J0D01*
G01*
X128133100Y-110977180D01*
G75*
G02*
X128358100Y-111202180I0J-225000D01*
G01*
X128358100Y-111702180D01*
G75*
G02*
X128133100Y-111927180I-225000J0D01*
G01*
X127683100Y-111927180D01*
G75*
G02*
X127458100Y-111702180I0J225000D01*
G01*
G37*
G36*
G01*
X125908100Y-111702180D02*
X125908100Y-111202180D01*
G75*
G02*
X126133100Y-110977180I225000J0D01*
G01*
X126583100Y-110977180D01*
G75*
G02*
X126808100Y-111202180I0J-225000D01*
G01*
X126808100Y-111702180D01*
G75*
G02*
X126583100Y-111927180I-225000J0D01*
G01*
X126133100Y-111927180D01*
G75*
G02*
X125908100Y-111702180I0J225000D01*
G01*
G37*
%TD*%
%TO.C,C7*%
G36*
G01*
X121849521Y-109007205D02*
X122203075Y-109360759D01*
G75*
G02*
X122203075Y-109678957I-159099J-159099D01*
G01*
X121884877Y-109997155D01*
G75*
G02*
X121566679Y-109997155I-159099J159099D01*
G01*
X121213125Y-109643601D01*
G75*
G02*
X121213125Y-109325403I159099J159099D01*
G01*
X121531323Y-109007205D01*
G75*
G02*
X121849521Y-109007205I159099J-159099D01*
G01*
G37*
G36*
G01*
X122945537Y-107911189D02*
X123299091Y-108264743D01*
G75*
G02*
X123299091Y-108582941I-159099J-159099D01*
G01*
X122980893Y-108901139D01*
G75*
G02*
X122662695Y-108901139I-159099J159099D01*
G01*
X122309141Y-108547585D01*
G75*
G02*
X122309141Y-108229387I159099J159099D01*
G01*
X122627339Y-107911189D01*
G75*
G02*
X122945537Y-107911189I159099J-159099D01*
G01*
G37*
%TD*%
%TO.C,C6*%
G36*
G01*
X131898100Y-105177180D02*
X131398100Y-105177180D01*
G75*
G02*
X131173100Y-104952180I0J225000D01*
G01*
X131173100Y-104502180D01*
G75*
G02*
X131398100Y-104277180I225000J0D01*
G01*
X131898100Y-104277180D01*
G75*
G02*
X132123100Y-104502180I0J-225000D01*
G01*
X132123100Y-104952180D01*
G75*
G02*
X131898100Y-105177180I-225000J0D01*
G01*
G37*
G36*
G01*
X131898100Y-106727180D02*
X131398100Y-106727180D01*
G75*
G02*
X131173100Y-106502180I0J225000D01*
G01*
X131173100Y-106052180D01*
G75*
G02*
X131398100Y-105827180I225000J0D01*
G01*
X131898100Y-105827180D01*
G75*
G02*
X132123100Y-106052180I0J-225000D01*
G01*
X132123100Y-106502180D01*
G75*
G02*
X131898100Y-106727180I-225000J0D01*
G01*
G37*
%TD*%
%TO.C,C3*%
G36*
G01*
X125321513Y-102605213D02*
X125675067Y-102958767D01*
G75*
G02*
X125675067Y-103276965I-159099J-159099D01*
G01*
X125356869Y-103595163D01*
G75*
G02*
X125038671Y-103595163I-159099J159099D01*
G01*
X124685117Y-103241609D01*
G75*
G02*
X124685117Y-102923411I159099J159099D01*
G01*
X125003315Y-102605213D01*
G75*
G02*
X125321513Y-102605213I159099J-159099D01*
G01*
G37*
G36*
G01*
X126417529Y-101509197D02*
X126771083Y-101862751D01*
G75*
G02*
X126771083Y-102180949I-159099J-159099D01*
G01*
X126452885Y-102499147D01*
G75*
G02*
X126134687Y-102499147I-159099J159099D01*
G01*
X125781133Y-102145593D01*
G75*
G02*
X125781133Y-101827395I159099J159099D01*
G01*
X126099331Y-101509197D01*
G75*
G02*
X126417529Y-101509197I159099J-159099D01*
G01*
G37*
%TD*%
D12*
%TO.C,U6*%
G36*
X124509521Y-109216494D02*
G01*
X123943836Y-108650809D01*
X124085257Y-108509388D01*
X124650942Y-109075073D01*
X124509521Y-109216494D01*
G37*
G36*
X124226679Y-109499337D02*
G01*
X123660994Y-108933652D01*
X123802415Y-108792231D01*
X124368100Y-109357916D01*
X124226679Y-109499337D01*
G37*
G36*
X123943836Y-109782180D02*
G01*
X123378151Y-109216495D01*
X123519572Y-109075074D01*
X124085257Y-109640759D01*
X123943836Y-109782180D01*
G37*
G36*
X123660993Y-110065022D02*
G01*
X123095308Y-109499337D01*
X123236729Y-109357916D01*
X123802414Y-109923601D01*
X123660993Y-110065022D01*
G37*
G36*
X124650943Y-111054972D02*
G01*
X124085258Y-110489287D01*
X124226679Y-110347866D01*
X124792364Y-110913551D01*
X124650943Y-111054972D01*
G37*
G36*
X124933785Y-110772129D02*
G01*
X124368100Y-110206444D01*
X124509521Y-110065023D01*
X125075206Y-110630708D01*
X124933785Y-110772129D01*
G37*
G36*
X125216628Y-110489286D02*
G01*
X124650943Y-109923601D01*
X124792364Y-109782180D01*
X125358049Y-110347865D01*
X125216628Y-110489286D01*
G37*
G36*
X125499471Y-110206444D02*
G01*
X124933786Y-109640759D01*
X125075207Y-109499338D01*
X125640892Y-110065023D01*
X125499471Y-110206444D01*
G37*
%TD*%
D30*
%TO.C,U5*%
X132698100Y-106172180D03*
X133098100Y-106172180D03*
X133498100Y-106172180D03*
X133898100Y-106172180D03*
X133898100Y-104772180D03*
X133498100Y-104772180D03*
X133098100Y-104772180D03*
X132698100Y-104772180D03*
%TD*%
D12*
%TO.C,U4*%
G36*
X124933786Y-101533601D02*
G01*
X125499471Y-100967916D01*
X125640892Y-101109337D01*
X125075207Y-101675022D01*
X124933786Y-101533601D01*
G37*
G36*
G01*
X124643872Y-101243688D02*
X125209557Y-100678003D01*
G75*
G02*
X125223699Y-100678003I7071J-7071D01*
G01*
X125365120Y-100819424D01*
G75*
G02*
X125365120Y-100833566I-7071J-7071D01*
G01*
X124799435Y-101399251D01*
G75*
G02*
X124785293Y-101399251I-7071J7071D01*
G01*
X124643872Y-101257830D01*
G75*
G02*
X124643872Y-101243688I7071J7071D01*
G01*
G37*
G36*
X124368100Y-100967916D02*
G01*
X124933785Y-100402231D01*
X125075206Y-100543652D01*
X124509521Y-101109337D01*
X124368100Y-100967916D01*
G37*
G36*
X124085258Y-100685073D02*
G01*
X124650943Y-100119388D01*
X124792364Y-100260809D01*
X124226679Y-100826494D01*
X124085258Y-100685073D01*
G37*
G36*
X123095308Y-101675023D02*
G01*
X123660993Y-101109338D01*
X123802414Y-101250759D01*
X123236729Y-101816444D01*
X123095308Y-101675023D01*
G37*
G36*
X123378151Y-101957865D02*
G01*
X123943836Y-101392180D01*
X124085257Y-101533601D01*
X123519572Y-102099286D01*
X123378151Y-101957865D01*
G37*
G36*
X123660994Y-102240708D02*
G01*
X124226679Y-101675023D01*
X124368100Y-101816444D01*
X123802415Y-102382129D01*
X123660994Y-102240708D01*
G37*
G36*
X123943836Y-102523551D02*
G01*
X124509521Y-101957866D01*
X124650942Y-102099287D01*
X124085257Y-102664972D01*
X123943836Y-102523551D01*
G37*
%TD*%
%TO.C,C5*%
G36*
G01*
X125548100Y-98376920D02*
X126048100Y-98376920D01*
G75*
G02*
X126273100Y-98601920I0J-225000D01*
G01*
X126273100Y-99051920D01*
G75*
G02*
X126048100Y-99276920I-225000J0D01*
G01*
X125548100Y-99276920D01*
G75*
G02*
X125323100Y-99051920I0J225000D01*
G01*
X125323100Y-98601920D01*
G75*
G02*
X125548100Y-98376920I225000J0D01*
G01*
G37*
G36*
G01*
X125548100Y-96826920D02*
X126048100Y-96826920D01*
G75*
G02*
X126273100Y-97051920I0J-225000D01*
G01*
X126273100Y-97501920D01*
G75*
G02*
X126048100Y-97726920I-225000J0D01*
G01*
X125548100Y-97726920D01*
G75*
G02*
X125323100Y-97501920I0J225000D01*
G01*
X125323100Y-97051920D01*
G75*
G02*
X125548100Y-96826920I225000J0D01*
G01*
G37*
%TD*%
%TO.C,C4*%
G36*
G01*
X119068100Y-101987180D02*
X119568100Y-101987180D01*
G75*
G02*
X119793100Y-102212180I0J-225000D01*
G01*
X119793100Y-102662180D01*
G75*
G02*
X119568100Y-102887180I-225000J0D01*
G01*
X119068100Y-102887180D01*
G75*
G02*
X118843100Y-102662180I0J225000D01*
G01*
X118843100Y-102212180D01*
G75*
G02*
X119068100Y-101987180I225000J0D01*
G01*
G37*
G36*
G01*
X119068100Y-100437180D02*
X119568100Y-100437180D01*
G75*
G02*
X119793100Y-100662180I0J-225000D01*
G01*
X119793100Y-101112180D01*
G75*
G02*
X119568100Y-101337180I-225000J0D01*
G01*
X119068100Y-101337180D01*
G75*
G02*
X118843100Y-101112180I0J225000D01*
G01*
X118843100Y-100662180D01*
G75*
G02*
X119068100Y-100437180I225000J0D01*
G01*
G37*
%TD*%
D31*
%TO.C,U1*%
X152254467Y-52378497D03*
X152254467Y-54918497D03*
X154794467Y-52378497D03*
X154794467Y-54918497D03*
D32*
X137790280Y-52367300D03*
X137790280Y-54917300D03*
D33*
X154108100Y-61784180D03*
X151568100Y-61784180D03*
X149028100Y-61784180D03*
X146488100Y-61784180D03*
X143948100Y-61784180D03*
X141408100Y-61784180D03*
X138868100Y-61784180D03*
X138868100Y-45619620D03*
X141408100Y-45619620D03*
X143948100Y-45619620D03*
X146488100Y-45619620D03*
X149028100Y-45619620D03*
X151568100Y-45619620D03*
X154108100Y-45619620D03*
%TD*%
D22*
%TO.C,J1*%
X133788100Y-49338180D03*
X131248100Y-50608180D03*
X133788100Y-51878180D03*
X131248100Y-53148180D03*
X133788100Y-54418180D03*
X131248100Y-55688180D03*
X133788100Y-56958180D03*
D23*
X131248100Y-58228180D03*
D24*
X124898100Y-59498180D03*
X124898100Y-48068180D03*
%TD*%
D34*
X122118100Y-64042180D03*
X123118100Y-64042180D03*
X124118100Y-64042180D03*
X123168100Y-65092180D03*
X124168100Y-65092180D03*
X122168100Y-65092180D03*
X164118100Y-63842180D03*
X165118100Y-63842180D03*
X165168100Y-64892180D03*
X163168100Y-64892180D03*
X164168100Y-64892180D03*
X163118100Y-63842180D03*
X136818100Y-64092180D03*
X136868100Y-65142180D03*
X135868100Y-65142180D03*
X137818100Y-64092180D03*
X135838100Y-64092180D03*
X137828100Y-65142180D03*
X151418100Y-63942180D03*
X150468100Y-64992180D03*
X150418100Y-63942180D03*
X151468100Y-64992180D03*
X149468100Y-64992180D03*
X149418100Y-63942180D03*
X151068100Y-75192180D03*
X149818100Y-75192180D03*
X151068100Y-74092180D03*
X149818100Y-74092180D03*
X163068100Y-75192180D03*
X163068100Y-73992180D03*
X164668100Y-75192180D03*
X127268100Y-96282180D03*
X127268100Y-94722180D03*
X126368100Y-96302180D03*
X126358100Y-94752180D03*
X140818100Y-104392180D03*
X139768100Y-104442180D03*
X140818100Y-105392180D03*
X139768100Y-105442180D03*
X140818100Y-106392180D03*
X139768100Y-106442180D03*
X147518100Y-104412180D03*
X147658100Y-105302180D03*
X148978100Y-104422180D03*
X147598100Y-106182180D03*
X148688100Y-105312180D03*
X149088100Y-106222180D03*
X164018100Y-94492180D03*
X164018100Y-96492180D03*
X162818100Y-96442180D03*
X164668100Y-73992180D03*
X136268100Y-75192180D03*
X136268100Y-74092180D03*
X137518100Y-74092180D03*
X137518100Y-75192180D03*
X122768100Y-75292180D03*
X124018100Y-74192180D03*
X124018100Y-75292180D03*
X122768100Y-74192180D03*
X145068100Y-94542180D03*
X144018100Y-96742180D03*
X143068100Y-94542180D03*
X145008100Y-96742180D03*
X144068100Y-94542180D03*
X143058100Y-96742180D03*
X162818100Y-94492180D03*
X160268100Y-52542180D03*
X160268100Y-54542180D03*
X160268100Y-53542180D03*
X157168100Y-53592180D03*
X157168100Y-52592180D03*
X157168100Y-54592180D03*
X159770000Y-85810000D03*
X157390000Y-81570000D03*
X153830000Y-84190000D03*
X155720000Y-79040000D03*
X149280000Y-78820000D03*
X139180000Y-78860000D03*
X130760000Y-80060000D03*
X127090000Y-81870000D03*
X119360000Y-91900000D03*
X119360000Y-88660000D03*
X141832329Y-78890000D03*
X136194000Y-93784000D03*
X155752000Y-78036000D03*
X142590000Y-89965000D03*
X142772588Y-92199990D03*
X138890000Y-93240000D03*
X160050000Y-89740000D03*
X117918100Y-111342180D03*
X138738100Y-105132180D03*
X135398100Y-113262180D03*
X134548100Y-97537180D03*
D35*
X121782488Y-98315210D03*
D34*
X120638100Y-97282180D03*
X117888100Y-109772180D03*
D22*
X143948100Y-55688180D03*
X141408100Y-55688180D03*
X137344100Y-57212180D03*
X146488100Y-55688180D03*
X152076100Y-48322180D03*
D34*
X154698100Y-88442180D03*
D35*
X122818100Y-100402180D03*
X124748100Y-112012180D03*
D36*
X121427000Y-108392500D03*
D35*
X117888100Y-104412180D03*
X135468100Y-107042180D03*
X125408100Y-113002180D03*
X136158100Y-104152180D03*
X117195614Y-102412182D03*
X120588100Y-101992180D03*
X136878100Y-105032180D03*
X121158100Y-110722180D03*
X121718100Y-112362180D03*
X121378100Y-100132180D03*
X117348096Y-100722184D03*
X121168100Y-104902180D03*
X121478100Y-103902180D03*
X121438100Y-106692180D03*
X121168100Y-105832180D03*
D36*
X117958100Y-108282180D03*
D34*
X162260000Y-76670000D03*
X162300000Y-83070000D03*
X155050000Y-85750000D03*
X159660000Y-78000000D03*
X145385195Y-77970010D03*
X139190000Y-86770000D03*
D35*
X159800000Y-87710000D03*
D34*
X161160000Y-75920000D03*
X162370000Y-81790000D03*
X154888100Y-90002180D03*
X151119989Y-78150920D03*
X124820000Y-79150000D03*
X137840000Y-91640000D03*
X142190000Y-79850000D03*
X140470002Y-81640000D03*
X142040000Y-83410000D03*
X139960000Y-91650000D03*
X138915000Y-91640000D03*
X153150000Y-78190000D03*
X154170000Y-78100000D03*
X152120000Y-78150000D03*
M02*
