%TF.GenerationSoftware,KiCad,Pcbnew,(5.1.10)-1*%
%TF.CreationDate,2021-10-06T18:30:59-05:00*%
%TF.ProjectId,BYTE_Magnetic,42595445-5f4d-4616-976e-657469632e6b,rev?*%
%TF.SameCoordinates,Original*%
%TF.FileFunction,Profile,NP*%
%FSLAX46Y46*%
G04 Gerber Fmt 4.6, Leading zero omitted, Abs format (unit mm)*
G04 Created by KiCad (PCBNEW (5.1.10)-1) date 2021-10-06 18:30:59*
%MOMM*%
%LPD*%
G01*
G04 APERTURE LIST*
%TA.AperFunction,Profile*%
%ADD10C,0.200000*%
%TD*%
G04 APERTURE END LIST*
D10*
X175979974Y-123150004D02*
X187979978Y-123150004D01*
X188567960Y-123091796D02*
X188711232Y-123060046D01*
X190475921Y-121816506D02*
X190554370Y-121692152D01*
X190889491Y-120882528D02*
X190921797Y-120739653D01*
X189392639Y-122798109D02*
X189520248Y-122726672D01*
X190203877Y-122165756D02*
X190300582Y-122051985D01*
X189261829Y-122864255D02*
X189392639Y-122798109D01*
X190391308Y-121935568D02*
X190475921Y-121816506D01*
X188276469Y-123136775D02*
X188422969Y-123118254D01*
X189644363Y-122647297D02*
X189764775Y-122562630D01*
X190921797Y-120739653D02*
X190947091Y-120594133D01*
X190554370Y-121692152D02*
X190626548Y-121562506D01*
X189520248Y-122726672D02*
X189644363Y-122647297D01*
X190850280Y-121022757D02*
X190889491Y-120882528D01*
X189881245Y-122472672D02*
X189993481Y-122374776D01*
X190692324Y-121432861D02*
X190751617Y-121297923D01*
X187979978Y-123150004D02*
X188128726Y-123147359D01*
X190947091Y-120594133D02*
X190965294Y-120448612D01*
X188991478Y-122975380D02*
X189128030Y-122922463D01*
X189764775Y-122562630D02*
X189881245Y-122472672D01*
X188852467Y-123020359D02*
X188991478Y-122975380D01*
X190626548Y-121562506D02*
X190692324Y-121432861D01*
X188422969Y-123118254D02*
X188567960Y-123091796D01*
X190300582Y-122051985D02*
X190391308Y-121935568D01*
X190101297Y-122271589D02*
X190203877Y-122165756D01*
X189993481Y-122374776D02*
X190101297Y-122271589D01*
X188128726Y-123147359D02*
X188276469Y-123136775D01*
X189128030Y-122922463D02*
X189261829Y-122864255D01*
X190804295Y-121162986D02*
X190850280Y-121022757D01*
X188711232Y-123060046D02*
X188852467Y-123020359D01*
X190751617Y-121297923D02*
X190804295Y-121162986D01*
X182296417Y-100155096D02*
X181979976Y-100152450D01*
X190976274Y-120300445D02*
X190979952Y-120152279D01*
X184170464Y-100342950D02*
X183861711Y-100292679D01*
X182926315Y-100186846D02*
X182611909Y-100165679D01*
X190754342Y-103679341D02*
X190523811Y-103462383D01*
X190523811Y-103462383D02*
X190288517Y-103253363D01*
X189555252Y-102663343D02*
X189302178Y-102480780D01*
X189044977Y-102303510D02*
X188783781Y-102131531D01*
X181663535Y-100155096D02*
X181348043Y-100165679D01*
X188249985Y-101811385D02*
X187977623Y-101660573D01*
X187977623Y-101660573D02*
X187701821Y-101515052D01*
X187422686Y-101380115D02*
X187140350Y-101250469D01*
X185386720Y-100618116D02*
X185085731Y-100538741D01*
X186275534Y-100901220D02*
X185981767Y-100800678D01*
X184782598Y-100464658D02*
X184477473Y-100398512D01*
X180098241Y-100292679D02*
X179789488Y-100342950D01*
X180720447Y-100213304D02*
X180408604Y-100247700D01*
X187701821Y-101515052D02*
X187422686Y-101380115D01*
X185981767Y-100800678D02*
X185685434Y-100705428D01*
X183551348Y-100247700D02*
X183239505Y-100213304D01*
X185085731Y-100538741D02*
X184782598Y-100464658D01*
X181348043Y-100165679D02*
X181033637Y-100186846D01*
X181979976Y-100152450D02*
X181663535Y-100155096D01*
X190979952Y-103901591D02*
X190754342Y-103679341D01*
X190288517Y-103253363D02*
X190048567Y-103049634D01*
X190048567Y-103049634D02*
X189804092Y-102853842D01*
X189302178Y-102480780D02*
X189044977Y-102303510D01*
X187140350Y-101250469D02*
X186854971Y-101126115D01*
X186854971Y-101126115D02*
X186566655Y-101009699D01*
X190965294Y-120448612D02*
X190976274Y-120300445D01*
X190979952Y-120152279D02*
X190979952Y-103901591D01*
X182611909Y-100165679D02*
X182296417Y-100155096D01*
X189804092Y-102853842D02*
X189555252Y-102663343D01*
X188518748Y-101967489D02*
X188249985Y-101811385D01*
X185685434Y-100705428D02*
X185386720Y-100618116D01*
X183239505Y-100213304D02*
X182926315Y-100186846D01*
X180408604Y-100247700D02*
X180098241Y-100292679D01*
X186566655Y-101009699D02*
X186275534Y-100901220D01*
X183861711Y-100292679D02*
X183551348Y-100247700D01*
X181033637Y-100186846D02*
X180720447Y-100213304D01*
X188783781Y-102131531D02*
X188518748Y-101967489D01*
X184477473Y-100398512D02*
X184170464Y-100342950D01*
X178573232Y-100618116D02*
X178274518Y-100705428D01*
X176819602Y-101250469D02*
X176537266Y-101380115D01*
X175982329Y-101660573D02*
X175709967Y-101811385D01*
X179789488Y-100342950D02*
X179482479Y-100398512D01*
X179482479Y-100398512D02*
X179177354Y-100464658D01*
X179177354Y-100464658D02*
X178874221Y-100538741D01*
X177684418Y-100901220D02*
X177393297Y-101009699D01*
X177104981Y-101126115D02*
X176819602Y-101250469D01*
X178274518Y-100705428D02*
X177978185Y-100800678D01*
X178874221Y-100538741D02*
X178573232Y-100618116D01*
X177978185Y-100800678D02*
X177684418Y-100901220D01*
X177393297Y-101009699D02*
X177104981Y-101126115D01*
X176258131Y-101515052D02*
X175982329Y-101660573D01*
X176537266Y-101380115D02*
X176258131Y-101515052D01*
X175248720Y-123060046D02*
X175391992Y-123091796D01*
X172983678Y-120300445D02*
X172994658Y-120448612D01*
X173568644Y-121935568D02*
X173659370Y-122051985D01*
X173012861Y-120594133D02*
X173038155Y-120739653D01*
X173267628Y-121432861D02*
X173333404Y-121562506D01*
X173405582Y-121692152D02*
X173484031Y-121816506D01*
X173038155Y-120739653D02*
X173070461Y-120882528D01*
X173109672Y-121022757D02*
X173155657Y-121162986D01*
X175391992Y-123091796D02*
X175536983Y-123118254D01*
X175709967Y-101811385D02*
X175441204Y-101967489D01*
X173205610Y-103679341D02*
X172980000Y-103901591D01*
X175441204Y-101967489D02*
X175176171Y-102131531D01*
X175176171Y-102131531D02*
X174914975Y-102303510D01*
X173208335Y-121297923D02*
X173267628Y-121432861D01*
X174914975Y-102303510D02*
X174657774Y-102480780D01*
X174657774Y-102480780D02*
X174404700Y-102663343D01*
X175831226Y-123147359D02*
X175979974Y-123150004D01*
X173911385Y-103049634D02*
X173671435Y-103253363D01*
X174195177Y-122562630D02*
X174315589Y-122647297D01*
X174315589Y-122647297D02*
X174439704Y-122726672D01*
X174567313Y-122798109D02*
X174698123Y-122864255D01*
X175683483Y-123136775D02*
X175831226Y-123147359D01*
X173436141Y-103462383D02*
X173205610Y-103679341D01*
X173155657Y-121162986D02*
X173208335Y-121297923D01*
X173333404Y-121562506D02*
X173405582Y-121692152D01*
X173659370Y-122051985D02*
X173756075Y-122165756D01*
X175536983Y-123118254D02*
X175683483Y-123136775D01*
X183488426Y-111669178D02*
G75*
G03*
X183488426Y-111669178I-1500000J0D01*
G01*
X172994658Y-120448612D02*
X173012861Y-120594133D01*
X174698123Y-122864255D02*
X174831922Y-122922463D01*
X175107485Y-123020359D02*
X175248720Y-123060046D01*
X173756075Y-122165756D02*
X173858655Y-122271589D01*
X173966471Y-122374776D02*
X174078707Y-122472672D01*
X174078707Y-122472672D02*
X174195177Y-122562630D01*
X174831922Y-122922463D02*
X174968474Y-122975380D01*
X174968474Y-122975380D02*
X175107485Y-123020359D01*
X174404700Y-102663343D02*
X174155860Y-102853842D01*
X174439704Y-122726672D02*
X174567313Y-122798109D01*
X174155860Y-102853842D02*
X173911385Y-103049634D01*
X173671435Y-103253363D02*
X173436141Y-103462383D01*
X173858655Y-122271589D02*
X173966471Y-122374776D01*
X173484031Y-121816506D02*
X173568644Y-121935568D01*
X172980000Y-103901591D02*
X172980000Y-120152279D01*
X173070461Y-120882528D02*
X173109672Y-121022757D01*
X172980000Y-120152279D02*
X172983678Y-120300445D01*
M02*
