%TF.GenerationSoftware,KiCad,Pcbnew,(5.1.10)-1*%
%TF.CreationDate,2021-10-06T18:30:59-05:00*%
%TF.ProjectId,BYTE_Magnetic,42595445-5f4d-4616-976e-657469632e6b,rev?*%
%TF.SameCoordinates,Original*%
%TF.FileFunction,Copper,L2,Bot*%
%TF.FilePolarity,Positive*%
%FSLAX46Y46*%
G04 Gerber Fmt 4.6, Leading zero omitted, Abs format (unit mm)*
G04 Created by KiCad (PCBNEW (5.1.10)-1) date 2021-10-06 18:30:59*
%MOMM*%
%LPD*%
G01*
G04 APERTURE LIST*
%TA.AperFunction,EtchedComponent*%
%ADD10C,0.100000*%
%TD*%
%TA.AperFunction,SMDPad,CuDef*%
%ADD11R,0.203200X0.304800*%
%TD*%
%TA.AperFunction,SMDPad,CuDef*%
%ADD12C,0.100000*%
%TD*%
%TA.AperFunction,SMDPad,CuDef*%
%ADD13R,1.000000X4.400000*%
%TD*%
%TA.AperFunction,SMDPad,CuDef*%
%ADD14R,0.500000X0.800000*%
%TD*%
%TA.AperFunction,SMDPad,CuDef*%
%ADD15R,0.400000X0.800000*%
%TD*%
%TA.AperFunction,SMDPad,CuDef*%
%ADD16R,0.250000X1.100000*%
%TD*%
%TA.AperFunction,SMDPad,CuDef*%
%ADD17R,0.800000X0.200000*%
%TD*%
%TA.AperFunction,ViaPad*%
%ADD18C,0.800000*%
%TD*%
%TA.AperFunction,ViaPad*%
%ADD19C,0.750000*%
%TD*%
%TA.AperFunction,Conductor*%
%ADD20C,0.150000*%
%TD*%
%TA.AperFunction,Conductor*%
%ADD21C,0.130000*%
%TD*%
%TA.AperFunction,Conductor*%
%ADD22C,0.250000*%
%TD*%
%TA.AperFunction,Conductor*%
%ADD23C,0.300000*%
%TD*%
%TA.AperFunction,Conductor*%
%ADD24C,0.200000*%
%TD*%
%TA.AperFunction,Conductor*%
%ADD25C,0.100000*%
%TD*%
G04 APERTURE END LIST*
D10*
%TO.C,U3*%
G36*
X181407260Y-122049440D02*
G01*
X181610460Y-122049440D01*
X181610460Y-121731940D01*
X181508860Y-121630340D01*
X181407260Y-121630340D01*
X181407260Y-122049440D01*
G37*
X181407260Y-122049440D02*
X181610460Y-122049440D01*
X181610460Y-121731940D01*
X181508860Y-121630340D01*
X181407260Y-121630340D01*
X181407260Y-122049440D01*
G36*
X182611220Y-122049440D02*
G01*
X182408020Y-122049440D01*
X182408020Y-121731940D01*
X182509620Y-121630340D01*
X182611220Y-121630340D01*
X182611220Y-122049440D01*
G37*
X182611220Y-122049440D02*
X182408020Y-122049440D01*
X182408020Y-121731940D01*
X182509620Y-121630340D01*
X182611220Y-121630340D01*
X182611220Y-122049440D01*
G36*
X181407260Y-120850560D02*
G01*
X181610460Y-120850560D01*
X181610460Y-121168060D01*
X181508860Y-121269660D01*
X181407260Y-121269660D01*
X181407260Y-120850560D01*
G37*
X181407260Y-120850560D02*
X181610460Y-120850560D01*
X181610460Y-121168060D01*
X181508860Y-121269660D01*
X181407260Y-121269660D01*
X181407260Y-120850560D01*
G36*
X182611220Y-120850560D02*
G01*
X182408020Y-120850560D01*
X182408020Y-121168060D01*
X182509620Y-121269660D01*
X182611220Y-121269660D01*
X182611220Y-120850560D01*
G37*
X182611220Y-120850560D02*
X182408020Y-120850560D01*
X182408020Y-121168060D01*
X182509620Y-121269660D01*
X182611220Y-121269660D01*
X182611220Y-120850560D01*
G36*
X181907640Y-122049440D02*
G01*
X182110840Y-122049440D01*
X182110840Y-121731940D01*
X182009240Y-121630340D01*
X181907640Y-121731940D01*
X181907640Y-122049440D01*
G37*
X181907640Y-122049440D02*
X182110840Y-122049440D01*
X182110840Y-121731940D01*
X182009240Y-121630340D01*
X181907640Y-121731940D01*
X181907640Y-122049440D01*
G36*
X181907640Y-120850560D02*
G01*
X182110840Y-120850560D01*
X182110840Y-121168060D01*
X182009240Y-121269660D01*
X181907640Y-121168060D01*
X181907640Y-120850560D01*
G37*
X181907640Y-120850560D02*
X182110840Y-120850560D01*
X182110840Y-121168060D01*
X182009240Y-121269660D01*
X181907640Y-121168060D01*
X181907640Y-120850560D01*
%TD*%
D11*
%TO.P,U3,1*%
%TO.N,/FSR_CTRL*%
X181508860Y-121002960D03*
%TO.P,U3,2*%
%TO.N,/ALERT*%
X182009240Y-121002960D03*
%TO.P,U3,3*%
%TO.N,GND*%
X182509620Y-121002960D03*
%TO.P,U3,5*%
%TO.N,/SCL*%
X182509620Y-121897040D03*
%TO.P,U3,6*%
%TO.N,/SDA*%
X182009240Y-121897040D03*
%TO.P,U3,7*%
%TO.N,+3V3*%
X181508860Y-121897040D03*
%TA.AperFunction,SMDPad,CuDef*%
D12*
%TO.P,U3,8*%
%TO.N,/magneticSignal*%
G36*
X181740000Y-121288355D02*
G01*
X181901645Y-121450000D01*
X181740000Y-121611645D01*
X181578355Y-121450000D01*
X181740000Y-121288355D01*
G37*
%TD.AperFunction*%
%TA.AperFunction,SMDPad,CuDef*%
%TO.P,U3,4*%
%TO.N,/INT_OUT*%
G36*
X182278480Y-121288355D02*
G01*
X182440125Y-121450000D01*
X182278480Y-121611645D01*
X182116835Y-121450000D01*
X182278480Y-121288355D01*
G37*
%TD.AperFunction*%
%TD*%
D13*
%TO.P,M1,2*%
%TO.N,Net-(M1-Pad2)*%
X176760000Y-110820000D03*
%TO.P,M1,1*%
%TO.N,Net-(M1-Pad1)*%
X174960000Y-110820000D03*
%TD*%
%TO.P,D3,2*%
%TO.N,Net-(D3-Pad2)*%
%TA.AperFunction,SMDPad,CuDef*%
G36*
G01*
X188173750Y-106510000D02*
X188686250Y-106510000D01*
G75*
G02*
X188905000Y-106728750I0J-218750D01*
G01*
X188905000Y-107166250D01*
G75*
G02*
X188686250Y-107385000I-218750J0D01*
G01*
X188173750Y-107385000D01*
G75*
G02*
X187955000Y-107166250I0J218750D01*
G01*
X187955000Y-106728750D01*
G75*
G02*
X188173750Y-106510000I218750J0D01*
G01*
G37*
%TD.AperFunction*%
%TO.P,D3,1*%
%TO.N,/magneticSignal*%
%TA.AperFunction,SMDPad,CuDef*%
G36*
G01*
X188173750Y-104935000D02*
X188686250Y-104935000D01*
G75*
G02*
X188905000Y-105153750I0J-218750D01*
G01*
X188905000Y-105591250D01*
G75*
G02*
X188686250Y-105810000I-218750J0D01*
G01*
X188173750Y-105810000D01*
G75*
G02*
X187955000Y-105591250I0J218750D01*
G01*
X187955000Y-105153750D01*
G75*
G02*
X188173750Y-104935000I218750J0D01*
G01*
G37*
%TD.AperFunction*%
%TD*%
%TO.P,D2,2*%
%TO.N,Net-(D2-Pad2)*%
%TA.AperFunction,SMDPad,CuDef*%
G36*
G01*
X183893750Y-106502500D02*
X184406250Y-106502500D01*
G75*
G02*
X184625000Y-106721250I0J-218750D01*
G01*
X184625000Y-107158750D01*
G75*
G02*
X184406250Y-107377500I-218750J0D01*
G01*
X183893750Y-107377500D01*
G75*
G02*
X183675000Y-107158750I0J218750D01*
G01*
X183675000Y-106721250D01*
G75*
G02*
X183893750Y-106502500I218750J0D01*
G01*
G37*
%TD.AperFunction*%
%TO.P,D2,1*%
%TO.N,/magneticSignal*%
%TA.AperFunction,SMDPad,CuDef*%
G36*
G01*
X183893750Y-104927500D02*
X184406250Y-104927500D01*
G75*
G02*
X184625000Y-105146250I0J-218750D01*
G01*
X184625000Y-105583750D01*
G75*
G02*
X184406250Y-105802500I-218750J0D01*
G01*
X183893750Y-105802500D01*
G75*
G02*
X183675000Y-105583750I0J218750D01*
G01*
X183675000Y-105146250D01*
G75*
G02*
X183893750Y-104927500I218750J0D01*
G01*
G37*
%TD.AperFunction*%
%TD*%
%TO.P,D1,2*%
%TO.N,Net-(D1-Pad2)*%
%TA.AperFunction,SMDPad,CuDef*%
G36*
G01*
X186526250Y-105810000D02*
X186013750Y-105810000D01*
G75*
G02*
X185795000Y-105591250I0J218750D01*
G01*
X185795000Y-105153750D01*
G75*
G02*
X186013750Y-104935000I218750J0D01*
G01*
X186526250Y-104935000D01*
G75*
G02*
X186745000Y-105153750I0J-218750D01*
G01*
X186745000Y-105591250D01*
G75*
G02*
X186526250Y-105810000I-218750J0D01*
G01*
G37*
%TD.AperFunction*%
%TO.P,D1,1*%
%TO.N,/magneticSignal*%
%TA.AperFunction,SMDPad,CuDef*%
G36*
G01*
X186526250Y-107385000D02*
X186013750Y-107385000D01*
G75*
G02*
X185795000Y-107166250I0J218750D01*
G01*
X185795000Y-106728750D01*
G75*
G02*
X186013750Y-106510000I218750J0D01*
G01*
X186526250Y-106510000D01*
G75*
G02*
X186745000Y-106728750I0J-218750D01*
G01*
X186745000Y-107166250D01*
G75*
G02*
X186526250Y-107385000I-218750J0D01*
G01*
G37*
%TD.AperFunction*%
%TD*%
D14*
%TO.P,RN1,5*%
%TO.N,/FSR_CTRL*%
X180840000Y-115940000D03*
D15*
%TO.P,RN1,6*%
X181640000Y-115940000D03*
D14*
%TO.P,RN1,8*%
X183240000Y-115940000D03*
D15*
%TO.P,RN1,7*%
X182440000Y-115940000D03*
D14*
%TO.P,RN1,4*%
%TO.N,/A1*%
X180840000Y-117740000D03*
D15*
%TO.P,RN1,2*%
%TO.N,/A3*%
X182440000Y-117740000D03*
%TO.P,RN1,3*%
%TO.N,/A0*%
X181640000Y-117740000D03*
D14*
%TO.P,RN1,1*%
%TO.N,/A2*%
X183240000Y-117740000D03*
%TD*%
D16*
%TO.P,U2,10*%
%TO.N,/SCL*%
X189380000Y-116480000D03*
%TO.P,U2,9*%
%TO.N,/SDA*%
X188880000Y-116480000D03*
%TO.P,U2,8*%
%TO.N,+3V3*%
X188380000Y-116480000D03*
%TO.P,U2,7*%
%TO.N,/A3*%
X187880000Y-116480000D03*
%TO.P,U2,6*%
%TO.N,/A2*%
X187380000Y-116480000D03*
%TO.P,U2,5*%
%TO.N,/A1*%
X187380000Y-120780000D03*
%TO.P,U2,4*%
%TO.N,/A0*%
X187880000Y-120780000D03*
%TO.P,U2,3*%
%TO.N,GND*%
X188380000Y-120780000D03*
%TO.P,U2,2*%
%TO.N,/ALERT*%
X188880000Y-120780000D03*
%TO.P,U2,1*%
%TO.N,GND*%
X189380000Y-120780000D03*
%TD*%
%TO.P,U1,10*%
%TO.N,+3V3*%
%TA.AperFunction,SMDPad,CuDef*%
G36*
G01*
X176475000Y-116925000D02*
X176325000Y-116925000D01*
G75*
G02*
X176250000Y-116850000I0J75000D01*
G01*
X176250000Y-115550000D01*
G75*
G02*
X176325000Y-115475000I75000J0D01*
G01*
X176475000Y-115475000D01*
G75*
G02*
X176550000Y-115550000I0J-75000D01*
G01*
X176550000Y-116850000D01*
G75*
G02*
X176475000Y-116925000I-75000J0D01*
G01*
G37*
%TD.AperFunction*%
%TO.P,U1,9*%
%TO.N,Net-(M1-Pad2)*%
%TA.AperFunction,SMDPad,CuDef*%
G36*
G01*
X175975000Y-116925000D02*
X175825000Y-116925000D01*
G75*
G02*
X175750000Y-116850000I0J75000D01*
G01*
X175750000Y-115550000D01*
G75*
G02*
X175825000Y-115475000I75000J0D01*
G01*
X175975000Y-115475000D01*
G75*
G02*
X176050000Y-115550000I0J-75000D01*
G01*
X176050000Y-116850000D01*
G75*
G02*
X175975000Y-116925000I-75000J0D01*
G01*
G37*
%TD.AperFunction*%
%TO.P,U1,8*%
%TO.N,GND*%
%TA.AperFunction,SMDPad,CuDef*%
G36*
G01*
X175475000Y-116925000D02*
X175325000Y-116925000D01*
G75*
G02*
X175250000Y-116850000I0J75000D01*
G01*
X175250000Y-115550000D01*
G75*
G02*
X175325000Y-115475000I75000J0D01*
G01*
X175475000Y-115475000D01*
G75*
G02*
X175550000Y-115550000I0J-75000D01*
G01*
X175550000Y-116850000D01*
G75*
G02*
X175475000Y-116925000I-75000J0D01*
G01*
G37*
%TD.AperFunction*%
%TO.P,U1,7*%
%TO.N,Net-(M1-Pad1)*%
%TA.AperFunction,SMDPad,CuDef*%
G36*
G01*
X174975000Y-116925000D02*
X174825000Y-116925000D01*
G75*
G02*
X174750000Y-116850000I0J75000D01*
G01*
X174750000Y-115550000D01*
G75*
G02*
X174825000Y-115475000I75000J0D01*
G01*
X174975000Y-115475000D01*
G75*
G02*
X175050000Y-115550000I0J-75000D01*
G01*
X175050000Y-116850000D01*
G75*
G02*
X174975000Y-116925000I-75000J0D01*
G01*
G37*
%TD.AperFunction*%
%TO.P,U1,6*%
%TO.N,+3V3*%
%TA.AperFunction,SMDPad,CuDef*%
G36*
G01*
X174475000Y-116925000D02*
X174325000Y-116925000D01*
G75*
G02*
X174250000Y-116850000I0J75000D01*
G01*
X174250000Y-115550000D01*
G75*
G02*
X174325000Y-115475000I75000J0D01*
G01*
X174475000Y-115475000D01*
G75*
G02*
X174550000Y-115550000I0J-75000D01*
G01*
X174550000Y-116850000D01*
G75*
G02*
X174475000Y-116925000I-75000J0D01*
G01*
G37*
%TD.AperFunction*%
%TO.P,U1,5*%
%TO.N,/EN*%
%TA.AperFunction,SMDPad,CuDef*%
G36*
G01*
X174475000Y-121325000D02*
X174325000Y-121325000D01*
G75*
G02*
X174250000Y-121250000I0J75000D01*
G01*
X174250000Y-119950000D01*
G75*
G02*
X174325000Y-119875000I75000J0D01*
G01*
X174475000Y-119875000D01*
G75*
G02*
X174550000Y-119950000I0J-75000D01*
G01*
X174550000Y-121250000D01*
G75*
G02*
X174475000Y-121325000I-75000J0D01*
G01*
G37*
%TD.AperFunction*%
%TO.P,U1,4*%
%TO.N,GND*%
%TA.AperFunction,SMDPad,CuDef*%
G36*
G01*
X174975000Y-121325000D02*
X174825000Y-121325000D01*
G75*
G02*
X174750000Y-121250000I0J75000D01*
G01*
X174750000Y-119950000D01*
G75*
G02*
X174825000Y-119875000I75000J0D01*
G01*
X174975000Y-119875000D01*
G75*
G02*
X175050000Y-119950000I0J-75000D01*
G01*
X175050000Y-121250000D01*
G75*
G02*
X174975000Y-121325000I-75000J0D01*
G01*
G37*
%TD.AperFunction*%
%TO.P,U1,3*%
%TO.N,/SDA*%
%TA.AperFunction,SMDPad,CuDef*%
G36*
G01*
X175475000Y-121325000D02*
X175325000Y-121325000D01*
G75*
G02*
X175250000Y-121250000I0J75000D01*
G01*
X175250000Y-119950000D01*
G75*
G02*
X175325000Y-119875000I75000J0D01*
G01*
X175475000Y-119875000D01*
G75*
G02*
X175550000Y-119950000I0J-75000D01*
G01*
X175550000Y-121250000D01*
G75*
G02*
X175475000Y-121325000I-75000J0D01*
G01*
G37*
%TD.AperFunction*%
%TO.P,U1,2*%
%TO.N,/SCL*%
%TA.AperFunction,SMDPad,CuDef*%
G36*
G01*
X175975000Y-121325000D02*
X175825000Y-121325000D01*
G75*
G02*
X175750000Y-121250000I0J75000D01*
G01*
X175750000Y-119950000D01*
G75*
G02*
X175825000Y-119875000I75000J0D01*
G01*
X175975000Y-119875000D01*
G75*
G02*
X176050000Y-119950000I0J-75000D01*
G01*
X176050000Y-121250000D01*
G75*
G02*
X175975000Y-121325000I-75000J0D01*
G01*
G37*
%TD.AperFunction*%
%TO.P,U1,1*%
%TO.N,Net-(C4-Pad1)*%
%TA.AperFunction,SMDPad,CuDef*%
G36*
G01*
X176475000Y-121325000D02*
X176325000Y-121325000D01*
G75*
G02*
X176250000Y-121250000I0J75000D01*
G01*
X176250000Y-119950000D01*
G75*
G02*
X176325000Y-119875000I75000J0D01*
G01*
X176475000Y-119875000D01*
G75*
G02*
X176550000Y-119950000I0J-75000D01*
G01*
X176550000Y-121250000D01*
G75*
G02*
X176475000Y-121325000I-75000J0D01*
G01*
G37*
%TD.AperFunction*%
%TD*%
%TO.P,C1,2*%
%TO.N,GND*%
%TA.AperFunction,SMDPad,CuDef*%
G36*
G01*
X188240000Y-112440000D02*
X187740000Y-112440000D01*
G75*
G02*
X187515000Y-112215000I0J225000D01*
G01*
X187515000Y-111765000D01*
G75*
G02*
X187740000Y-111540000I225000J0D01*
G01*
X188240000Y-111540000D01*
G75*
G02*
X188465000Y-111765000I0J-225000D01*
G01*
X188465000Y-112215000D01*
G75*
G02*
X188240000Y-112440000I-225000J0D01*
G01*
G37*
%TD.AperFunction*%
%TO.P,C1,1*%
%TO.N,+3V3*%
%TA.AperFunction,SMDPad,CuDef*%
G36*
G01*
X188240000Y-113990000D02*
X187740000Y-113990000D01*
G75*
G02*
X187515000Y-113765000I0J225000D01*
G01*
X187515000Y-113315000D01*
G75*
G02*
X187740000Y-113090000I225000J0D01*
G01*
X188240000Y-113090000D01*
G75*
G02*
X188465000Y-113315000I0J-225000D01*
G01*
X188465000Y-113765000D01*
G75*
G02*
X188240000Y-113990000I-225000J0D01*
G01*
G37*
%TD.AperFunction*%
%TD*%
%TO.P,C7,2*%
%TO.N,GND*%
%TA.AperFunction,SMDPad,CuDef*%
G36*
G01*
X185545025Y-118048579D02*
X185898579Y-117695025D01*
G75*
G02*
X186216777Y-117695025I159099J-159099D01*
G01*
X186534975Y-118013223D01*
G75*
G02*
X186534975Y-118331421I-159099J-159099D01*
G01*
X186181421Y-118684975D01*
G75*
G02*
X185863223Y-118684975I-159099J159099D01*
G01*
X185545025Y-118366777D01*
G75*
G02*
X185545025Y-118048579I159099J159099D01*
G01*
G37*
%TD.AperFunction*%
%TO.P,C7,1*%
%TO.N,+3V3*%
%TA.AperFunction,SMDPad,CuDef*%
G36*
G01*
X184449009Y-116952563D02*
X184802563Y-116599009D01*
G75*
G02*
X185120761Y-116599009I159099J-159099D01*
G01*
X185438959Y-116917207D01*
G75*
G02*
X185438959Y-117235405I-159099J-159099D01*
G01*
X185085405Y-117588959D01*
G75*
G02*
X184767207Y-117588959I-159099J159099D01*
G01*
X184449009Y-117270761D01*
G75*
G02*
X184449009Y-116952563I159099J159099D01*
G01*
G37*
%TD.AperFunction*%
%TD*%
%TO.P,C6,2*%
%TO.N,GND*%
%TA.AperFunction,SMDPad,CuDef*%
G36*
G01*
X181715000Y-108000000D02*
X181715000Y-108500000D01*
G75*
G02*
X181490000Y-108725000I-225000J0D01*
G01*
X181040000Y-108725000D01*
G75*
G02*
X180815000Y-108500000I0J225000D01*
G01*
X180815000Y-108000000D01*
G75*
G02*
X181040000Y-107775000I225000J0D01*
G01*
X181490000Y-107775000D01*
G75*
G02*
X181715000Y-108000000I0J-225000D01*
G01*
G37*
%TD.AperFunction*%
%TO.P,C6,1*%
%TO.N,+3V3*%
%TA.AperFunction,SMDPad,CuDef*%
G36*
G01*
X183265000Y-108000000D02*
X183265000Y-108500000D01*
G75*
G02*
X183040000Y-108725000I-225000J0D01*
G01*
X182590000Y-108725000D01*
G75*
G02*
X182365000Y-108500000I0J225000D01*
G01*
X182365000Y-108000000D01*
G75*
G02*
X182590000Y-107775000I225000J0D01*
G01*
X183040000Y-107775000D01*
G75*
G02*
X183265000Y-108000000I0J-225000D01*
G01*
G37*
%TD.AperFunction*%
%TD*%
%TO.P,C3,2*%
%TO.N,GND*%
%TA.AperFunction,SMDPad,CuDef*%
G36*
G01*
X179143033Y-114576587D02*
X179496587Y-114223033D01*
G75*
G02*
X179814785Y-114223033I159099J-159099D01*
G01*
X180132983Y-114541231D01*
G75*
G02*
X180132983Y-114859429I-159099J-159099D01*
G01*
X179779429Y-115212983D01*
G75*
G02*
X179461231Y-115212983I-159099J159099D01*
G01*
X179143033Y-114894785D01*
G75*
G02*
X179143033Y-114576587I159099J159099D01*
G01*
G37*
%TD.AperFunction*%
%TO.P,C3,1*%
%TO.N,+3V3*%
%TA.AperFunction,SMDPad,CuDef*%
G36*
G01*
X178047017Y-113480571D02*
X178400571Y-113127017D01*
G75*
G02*
X178718769Y-113127017I159099J-159099D01*
G01*
X179036967Y-113445215D01*
G75*
G02*
X179036967Y-113763413I-159099J-159099D01*
G01*
X178683413Y-114116967D01*
G75*
G02*
X178365215Y-114116967I-159099J159099D01*
G01*
X178047017Y-113798769D01*
G75*
G02*
X178047017Y-113480571I159099J159099D01*
G01*
G37*
%TD.AperFunction*%
%TD*%
%TA.AperFunction,SMDPad,CuDef*%
D12*
%TO.P,U6,8*%
%TO.N,+3V3*%
G36*
X185754314Y-115388579D02*
G01*
X185188629Y-115954264D01*
X185047208Y-115812843D01*
X185612893Y-115247158D01*
X185754314Y-115388579D01*
G37*
%TD.AperFunction*%
%TA.AperFunction,SMDPad,CuDef*%
%TO.P,U6,7*%
%TO.N,N/C*%
G36*
X186037157Y-115671421D02*
G01*
X185471472Y-116237106D01*
X185330051Y-116095685D01*
X185895736Y-115530000D01*
X186037157Y-115671421D01*
G37*
%TD.AperFunction*%
%TA.AperFunction,SMDPad,CuDef*%
%TO.P,U6,6*%
%TO.N,Net-(D3-Pad2)*%
G36*
X186320000Y-115954264D02*
G01*
X185754315Y-116519949D01*
X185612894Y-116378528D01*
X186178579Y-115812843D01*
X186320000Y-115954264D01*
G37*
%TD.AperFunction*%
%TA.AperFunction,SMDPad,CuDef*%
%TO.P,U6,5*%
%TO.N,GND*%
G36*
X186602842Y-116237107D02*
G01*
X186037157Y-116802792D01*
X185895736Y-116661371D01*
X186461421Y-116095686D01*
X186602842Y-116237107D01*
G37*
%TD.AperFunction*%
%TA.AperFunction,SMDPad,CuDef*%
%TO.P,U6,4*%
%TO.N,/SDA*%
G36*
X187592792Y-115247157D02*
G01*
X187027107Y-115812842D01*
X186885686Y-115671421D01*
X187451371Y-115105736D01*
X187592792Y-115247157D01*
G37*
%TD.AperFunction*%
%TA.AperFunction,SMDPad,CuDef*%
%TO.P,U6,3*%
%TO.N,Net-(U6-Pad3)*%
G36*
X187309949Y-114964315D02*
G01*
X186744264Y-115530000D01*
X186602843Y-115388579D01*
X187168528Y-114822894D01*
X187309949Y-114964315D01*
G37*
%TD.AperFunction*%
%TA.AperFunction,SMDPad,CuDef*%
%TO.P,U6,2*%
%TO.N,/SCL*%
G36*
X187027106Y-114681472D02*
G01*
X186461421Y-115247157D01*
X186320000Y-115105736D01*
X186885685Y-114540051D01*
X187027106Y-114681472D01*
G37*
%TD.AperFunction*%
%TA.AperFunction,SMDPad,CuDef*%
%TO.P,U6,1*%
%TO.N,GND*%
G36*
X186744264Y-114398629D02*
G01*
X186178579Y-114964314D01*
X186037158Y-114822893D01*
X186602843Y-114257208D01*
X186744264Y-114398629D01*
G37*
%TD.AperFunction*%
%TD*%
D17*
%TO.P,U5,8*%
%TO.N,+3V3*%
X182710000Y-107200000D03*
%TO.P,U5,7*%
%TO.N,N/C*%
X182710000Y-106800000D03*
%TO.P,U5,6*%
%TO.N,Net-(D2-Pad2)*%
X182710000Y-106400000D03*
%TO.P,U5,5*%
%TO.N,GND*%
X182710000Y-106000000D03*
%TO.P,U5,4*%
%TO.N,/SDA*%
X181310000Y-106000000D03*
%TO.P,U5,3*%
%TO.N,Net-(U5-Pad3)*%
X181310000Y-106400000D03*
%TO.P,U5,2*%
%TO.N,/SCL*%
X181310000Y-106800000D03*
%TO.P,U5,1*%
%TO.N,GND*%
X181310000Y-107200000D03*
%TD*%
%TA.AperFunction,SMDPad,CuDef*%
D12*
%TO.P,U4,8*%
%TO.N,+3V3*%
G36*
X178071421Y-114964314D02*
G01*
X177505736Y-114398629D01*
X177647157Y-114257208D01*
X178212842Y-114822893D01*
X178071421Y-114964314D01*
G37*
%TD.AperFunction*%
%TA.AperFunction,SMDPad,CuDef*%
%TO.P,U4,7*%
%TO.N,N/C*%
G36*
X177788579Y-115247157D02*
G01*
X177222894Y-114681472D01*
X177364315Y-114540051D01*
X177930000Y-115105736D01*
X177788579Y-115247157D01*
G37*
%TD.AperFunction*%
%TA.AperFunction,SMDPad,CuDef*%
%TO.P,U4,6*%
%TO.N,Net-(D1-Pad2)*%
G36*
X177505736Y-115530000D02*
G01*
X176940051Y-114964315D01*
X177081472Y-114822894D01*
X177647157Y-115388579D01*
X177505736Y-115530000D01*
G37*
%TD.AperFunction*%
%TA.AperFunction,SMDPad,CuDef*%
%TO.P,U4,5*%
%TO.N,GND*%
G36*
X177222893Y-115812842D02*
G01*
X176657208Y-115247157D01*
X176798629Y-115105736D01*
X177364314Y-115671421D01*
X177222893Y-115812842D01*
G37*
%TD.AperFunction*%
%TA.AperFunction,SMDPad,CuDef*%
%TO.P,U4,4*%
%TO.N,/SDA*%
G36*
X178212843Y-116802792D02*
G01*
X177647158Y-116237107D01*
X177788579Y-116095686D01*
X178354264Y-116661371D01*
X178212843Y-116802792D01*
G37*
%TD.AperFunction*%
%TA.AperFunction,SMDPad,CuDef*%
%TO.P,U4,3*%
%TO.N,Net-(U4-Pad3)*%
G36*
X178495685Y-116519949D02*
G01*
X177930000Y-115954264D01*
X178071421Y-115812843D01*
X178637106Y-116378528D01*
X178495685Y-116519949D01*
G37*
%TD.AperFunction*%
%TA.AperFunction,SMDPad,CuDef*%
%TO.P,U4,2*%
%TO.N,/SCL*%
G36*
X178778528Y-116237106D02*
G01*
X178212843Y-115671421D01*
X178354264Y-115530000D01*
X178919949Y-116095685D01*
X178778528Y-116237106D01*
G37*
%TD.AperFunction*%
%TA.AperFunction,SMDPad,CuDef*%
%TO.P,U4,1*%
%TO.N,GND*%
G36*
X179061371Y-115954264D02*
G01*
X178495686Y-115388579D01*
X178637107Y-115247158D01*
X179202792Y-115812843D01*
X179061371Y-115954264D01*
G37*
%TD.AperFunction*%
%TD*%
%TO.P,C5,2*%
%TO.N,GND*%
%TA.AperFunction,SMDPad,CuDef*%
G36*
G01*
X174914740Y-114350000D02*
X174914740Y-113850000D01*
G75*
G02*
X175139740Y-113625000I225000J0D01*
G01*
X175589740Y-113625000D01*
G75*
G02*
X175814740Y-113850000I0J-225000D01*
G01*
X175814740Y-114350000D01*
G75*
G02*
X175589740Y-114575000I-225000J0D01*
G01*
X175139740Y-114575000D01*
G75*
G02*
X174914740Y-114350000I0J225000D01*
G01*
G37*
%TD.AperFunction*%
%TO.P,C5,1*%
%TO.N,+3V3*%
%TA.AperFunction,SMDPad,CuDef*%
G36*
G01*
X173364740Y-114350000D02*
X173364740Y-113850000D01*
G75*
G02*
X173589740Y-113625000I225000J0D01*
G01*
X174039740Y-113625000D01*
G75*
G02*
X174264740Y-113850000I0J-225000D01*
G01*
X174264740Y-114350000D01*
G75*
G02*
X174039740Y-114575000I-225000J0D01*
G01*
X173589740Y-114575000D01*
G75*
G02*
X173364740Y-114350000I0J225000D01*
G01*
G37*
%TD.AperFunction*%
%TD*%
%TO.P,C4,2*%
%TO.N,GND*%
%TA.AperFunction,SMDPad,CuDef*%
G36*
G01*
X178525000Y-120830000D02*
X178525000Y-120330000D01*
G75*
G02*
X178750000Y-120105000I225000J0D01*
G01*
X179200000Y-120105000D01*
G75*
G02*
X179425000Y-120330000I0J-225000D01*
G01*
X179425000Y-120830000D01*
G75*
G02*
X179200000Y-121055000I-225000J0D01*
G01*
X178750000Y-121055000D01*
G75*
G02*
X178525000Y-120830000I0J225000D01*
G01*
G37*
%TD.AperFunction*%
%TO.P,C4,1*%
%TO.N,Net-(C4-Pad1)*%
%TA.AperFunction,SMDPad,CuDef*%
G36*
G01*
X176975000Y-120830000D02*
X176975000Y-120330000D01*
G75*
G02*
X177200000Y-120105000I225000J0D01*
G01*
X177650000Y-120105000D01*
G75*
G02*
X177875000Y-120330000I0J-225000D01*
G01*
X177875000Y-120830000D01*
G75*
G02*
X177650000Y-121055000I-225000J0D01*
G01*
X177200000Y-121055000D01*
G75*
G02*
X176975000Y-120830000I0J225000D01*
G01*
G37*
%TD.AperFunction*%
%TD*%
D18*
%TO.N,GND*%
X187880000Y-121980000D03*
X181670000Y-101160000D03*
X189800000Y-104500000D03*
X174075000Y-105350000D03*
D19*
X174853030Y-118115612D03*
D18*
X173820000Y-119260000D03*
X186310000Y-122010000D03*
%TO.N,+3V3*%
X176940000Y-117080000D03*
D19*
X188550000Y-115150000D03*
X184930320Y-118471100D03*
X180950000Y-122010000D03*
X183580000Y-104430000D03*
%TO.N,/SCL*%
X189540000Y-114490000D03*
X180690000Y-103740000D03*
X178950002Y-122702486D03*
D18*
X178530000Y-119310000D03*
D19*
%TO.N,/SDA*%
X181570000Y-103020000D03*
D18*
X187260000Y-118740000D03*
X188900000Y-118180000D03*
X176670000Y-118520000D03*
X177260004Y-122550004D03*
D19*
%TO.N,/A0*%
X181440000Y-118730000D03*
%TO.N,/A1*%
X180440000Y-118420000D03*
%TO.N,/A2*%
X183230000Y-118460000D03*
%TO.N,/A3*%
X182370000Y-118730000D03*
%TO.N,/INT_OUT*%
X184949998Y-121940000D03*
%TD*%
D20*
%TO.N,GND*%
X178849239Y-115600711D02*
X178578539Y-115330011D01*
X178578539Y-115330011D02*
X178306443Y-115330011D01*
X178306443Y-115330011D02*
X177796454Y-115840000D01*
X177796454Y-115840000D02*
X177391472Y-115840000D01*
X177391472Y-115840000D02*
X177010761Y-115459289D01*
X186040000Y-118190000D02*
X185283899Y-118946101D01*
X185283899Y-118946101D02*
X184316101Y-118946101D01*
X184316101Y-118946101D02*
X183880000Y-118510000D01*
X182160000Y-106000000D02*
X182010000Y-106150000D01*
X182010000Y-106150000D02*
X182010000Y-107050000D01*
X182710000Y-106000000D02*
X182160000Y-106000000D01*
X182010000Y-107050000D02*
X181860000Y-107200000D01*
X181860000Y-107200000D02*
X181310000Y-107200000D01*
X182509620Y-121002960D02*
X183612960Y-121002960D01*
X183612960Y-121002960D02*
X183640000Y-121030000D01*
X186542960Y-121002960D02*
X186620000Y-121080000D01*
X182509620Y-121002960D02*
X186542960Y-121002960D01*
X186249289Y-116449239D02*
X186249289Y-116380711D01*
X186249289Y-116380711D02*
X186600000Y-116030000D01*
D21*
X186600000Y-115619097D02*
X186050000Y-115069097D01*
X186600000Y-116030000D02*
X186600000Y-115619097D01*
X186050000Y-114951472D02*
X186390711Y-114610761D01*
X186050000Y-115069097D02*
X186050000Y-114951472D01*
X186040000Y-118190000D02*
X186040000Y-118810000D01*
D20*
X183880000Y-117930000D02*
X183880000Y-117770000D01*
X183880000Y-118510000D02*
X183880000Y-117930000D01*
D22*
X185740000Y-119110000D02*
X184250000Y-119110000D01*
X184250000Y-119110000D02*
X183880000Y-118740000D01*
X186040000Y-118810000D02*
X185740000Y-119110000D01*
X183880000Y-118740000D02*
X183880000Y-117930000D01*
D20*
X186390711Y-114610761D02*
X186390711Y-114179289D01*
X186390711Y-114179289D02*
X186570000Y-114000000D01*
X186390711Y-114610761D02*
X186390711Y-114519289D01*
D23*
X186390711Y-114519289D02*
X186570000Y-114340000D01*
X186570000Y-114340000D02*
X186570000Y-113470000D01*
X178975000Y-120580000D02*
X178886000Y-120580000D01*
X178886000Y-120580000D02*
X177800000Y-121666000D01*
X177800000Y-121666000D02*
X177546000Y-121666000D01*
D20*
X178975000Y-120580000D02*
X178975000Y-119715000D01*
X178975000Y-119715000D02*
X179260000Y-119430000D01*
X179260000Y-119430000D02*
X179260000Y-118300000D01*
D24*
X175364740Y-116164740D02*
X175400000Y-116200000D01*
X175364740Y-114100000D02*
X175364740Y-116164740D01*
X175400000Y-117568642D02*
X174853030Y-118115612D01*
X175400000Y-116200000D02*
X175400000Y-117568642D01*
X178990660Y-115600711D02*
X179200000Y-115810051D01*
X178849239Y-115600711D02*
X178990660Y-115600711D01*
X179200000Y-115810051D02*
X179200000Y-117110000D01*
X179200000Y-117110000D02*
X179160000Y-117150000D01*
X179160000Y-117150000D02*
X179160000Y-118090000D01*
X186040000Y-116658528D02*
X186249289Y-116449239D01*
X186040000Y-118190000D02*
X186040000Y-116658528D01*
%TO.N,+3V3*%
X174400000Y-116200000D02*
X173900000Y-116200000D01*
X173900000Y-116200000D02*
X173814740Y-116114740D01*
D20*
X184180010Y-118456444D02*
X184180010Y-117805732D01*
X177468008Y-113621992D02*
X178541992Y-113621992D01*
X183776443Y-117519990D02*
X183665001Y-117631432D01*
X182849999Y-117164999D02*
X182815000Y-117199998D01*
X183630001Y-117164999D02*
X182849999Y-117164999D01*
X184130010Y-117666443D02*
X183983557Y-117519990D01*
X184930320Y-118471100D02*
X184194666Y-118471100D01*
X176400000Y-114690000D02*
X177468008Y-113621992D01*
X182780001Y-117164999D02*
X182099999Y-117164999D01*
X183665001Y-117199999D02*
X183630001Y-117164999D01*
X183665001Y-117631432D02*
X183665001Y-117199999D01*
X182815000Y-117199998D02*
X182780001Y-117164999D01*
X184180010Y-117805732D02*
X184130010Y-117755732D01*
X183983557Y-117519990D02*
X183776443Y-117519990D01*
X184130010Y-117755732D02*
X184130010Y-117666443D01*
X184194666Y-118471100D02*
X184180010Y-118456444D01*
X176400000Y-116200000D02*
X176400000Y-114690000D01*
X181508860Y-121897040D02*
X181397040Y-121897040D01*
D22*
X173814740Y-114100000D02*
X173814740Y-116114740D01*
D20*
X182710000Y-108145000D02*
X182815000Y-108250000D01*
X178541992Y-113928058D02*
X177859289Y-114610761D01*
X184869372Y-116132100D02*
X184869372Y-118455771D01*
X188120000Y-114720000D02*
X188550000Y-115150000D01*
X173900000Y-116200000D02*
X173900000Y-113994100D01*
X178541992Y-113621992D02*
X178541992Y-113928058D01*
X180950000Y-122010000D02*
X181284080Y-122010000D01*
X183570000Y-106120000D02*
X183390000Y-105940000D01*
X181284080Y-122010000D02*
X181397040Y-121897040D01*
X182710000Y-107200000D02*
X182710000Y-108145000D01*
X181397040Y-121897040D02*
X181177982Y-121897040D01*
X181177982Y-121897040D02*
X181050012Y-122025010D01*
X182815000Y-108250000D02*
X184560000Y-108250000D01*
X188120000Y-113790000D02*
X188120000Y-114720000D01*
X183390000Y-105940000D02*
X183390000Y-104620000D01*
X184560000Y-108250000D02*
X184940000Y-107870000D01*
X173900000Y-113994100D02*
X173814740Y-113908840D01*
X184940000Y-106560000D02*
X184500000Y-106120000D01*
X184940000Y-107870000D02*
X184940000Y-106560000D01*
X184500000Y-106120000D02*
X183570000Y-106120000D01*
X183390000Y-104620000D02*
X183580000Y-104430000D01*
X182710000Y-107200000D02*
X182710000Y-108275000D01*
X185400761Y-115600711D02*
X184869372Y-116132100D01*
X176940000Y-116630000D02*
X176510000Y-116200000D01*
X176510000Y-116200000D02*
X176400000Y-116200000D01*
X176940000Y-117080000D02*
X176940000Y-116630000D01*
D24*
X188380000Y-115320000D02*
X188550000Y-115150000D01*
X188380000Y-116480000D02*
X188380000Y-115320000D01*
X176280000Y-117080000D02*
X176940000Y-117080000D01*
X175800000Y-118420000D02*
X175800000Y-117560000D01*
X175504386Y-118715614D02*
X175800000Y-118420000D01*
X174565028Y-118715614D02*
X175504386Y-118715614D01*
X174250000Y-118400586D02*
X174565028Y-118715614D01*
X175800000Y-117560000D02*
X176280000Y-117080000D01*
X174250000Y-116350000D02*
X174250000Y-118400586D01*
X174400000Y-116200000D02*
X174250000Y-116350000D01*
D20*
%TO.N,/SCL*%
X187230000Y-112820000D02*
X188690000Y-112820000D01*
X189540000Y-113220000D02*
X189140000Y-112820000D01*
X189140000Y-112820000D02*
X188690000Y-112820000D01*
X189540000Y-114490000D02*
X189540000Y-113220000D01*
X187100000Y-112950000D02*
X187230000Y-112820000D01*
X187100000Y-114460000D02*
X187100000Y-112950000D01*
X186673553Y-114886447D02*
X187100000Y-114460000D01*
X186673553Y-114893604D02*
X186673553Y-114886447D01*
X178850000Y-116167157D02*
X178566396Y-115883553D01*
X178850000Y-116840000D02*
X178850000Y-116167157D01*
X178580000Y-117110000D02*
X178850000Y-116840000D01*
X178530000Y-119310000D02*
X177970000Y-118750000D01*
X177970000Y-118750000D02*
X177970000Y-117380000D01*
X178240000Y-117110000D02*
X178580000Y-117110000D01*
X177970000Y-117380000D02*
X178240000Y-117110000D01*
X180550000Y-106800000D02*
X180380000Y-106630000D01*
X181310000Y-106800000D02*
X180550000Y-106800000D01*
X179097539Y-122850023D02*
X178950002Y-122702486D01*
X182509620Y-121897040D02*
X182509620Y-122560380D01*
X182509620Y-122560380D02*
X182219977Y-122850023D01*
X182219977Y-122850023D02*
X179097539Y-122850023D01*
X180380000Y-104050000D02*
X180690000Y-103740000D01*
X180380000Y-105780000D02*
X180380000Y-104050000D01*
X180380000Y-106630000D02*
X180380000Y-105780000D01*
X189380000Y-114650000D02*
X189540000Y-114490000D01*
X189380000Y-116480000D02*
X189380000Y-114650000D01*
X175900000Y-120600000D02*
X175900000Y-119760000D01*
X175900000Y-119760000D02*
X176080000Y-119580000D01*
X176080000Y-119580000D02*
X178260000Y-119580000D01*
X178260000Y-119580000D02*
X178530000Y-119310000D01*
D24*
%TO.N,/SDA*%
X187239239Y-115459289D02*
X186890000Y-115808528D01*
X186890000Y-118370000D02*
X187260000Y-118740000D01*
X186890000Y-115808528D02*
X186890000Y-118370000D01*
D20*
X188880000Y-118160000D02*
X188900000Y-118180000D01*
X188880000Y-116480000D02*
X188880000Y-118160000D01*
X178000711Y-116629289D02*
X178000711Y-116449239D01*
X177610000Y-117020000D02*
X178000711Y-116629289D01*
X182009240Y-122350760D02*
X182009240Y-121897040D01*
X181790000Y-122570000D02*
X182009240Y-122350760D01*
X179630000Y-122040000D02*
X180160000Y-122570000D01*
X178630000Y-122040000D02*
X179630000Y-122040000D01*
X180160000Y-122570000D02*
X181790000Y-122570000D01*
X178119996Y-122550004D02*
X178630000Y-122040000D01*
X177260004Y-122550004D02*
X178119996Y-122550004D01*
X181310000Y-106000000D02*
X181310000Y-104070000D01*
X181570000Y-103810000D02*
X181310000Y-104070000D01*
X181570000Y-103020000D02*
X181570000Y-103810000D01*
X175400000Y-120600000D02*
X175400000Y-119350000D01*
X175400000Y-119350000D02*
X175570000Y-119180000D01*
X176010000Y-119180000D02*
X176670000Y-118520000D01*
X175570000Y-119180000D02*
X176010000Y-119180000D01*
X177360000Y-118520000D02*
X177610000Y-118270000D01*
X176670000Y-118520000D02*
X177360000Y-118520000D01*
X177610000Y-118270000D02*
X177610000Y-117020000D01*
D24*
%TO.N,Net-(M1-Pad2)*%
X176050000Y-116050000D02*
X176050000Y-114460000D01*
X175900000Y-116200000D02*
X176050000Y-116050000D01*
X176760000Y-113750000D02*
X176760000Y-110820000D01*
X176050000Y-114460000D02*
X176760000Y-113750000D01*
D20*
%TO.N,Net-(M1-Pad1)*%
X174591980Y-111920020D02*
X174970000Y-111542000D01*
X174591980Y-111318020D02*
X174970000Y-110940000D01*
X174591980Y-112838020D02*
X174591980Y-111318020D01*
X174591980Y-112838020D02*
X174591980Y-111920020D01*
D24*
X174900000Y-116200000D02*
X174900000Y-115340000D01*
X174900000Y-115340000D02*
X174560000Y-115000000D01*
X174560000Y-115000000D02*
X174560000Y-113570000D01*
X174960000Y-113170000D02*
X174960000Y-110820000D01*
X174560000Y-113570000D02*
X174960000Y-113170000D01*
D20*
%TO.N,Net-(C4-Pad1)*%
X177405000Y-120600000D02*
X177425000Y-120580000D01*
X176400000Y-120600000D02*
X177405000Y-120600000D01*
%TO.N,/A0*%
X181440000Y-117940000D02*
X181640000Y-117740000D01*
X181440000Y-118730000D02*
X181440000Y-117940000D01*
X181440000Y-118730000D02*
X181440000Y-119620000D01*
X181750033Y-119930033D02*
X182589967Y-119930033D01*
X181440000Y-119620000D02*
X181750033Y-119930033D01*
X181550000Y-118470000D02*
X181550000Y-117830000D01*
X181550000Y-117830000D02*
X181640000Y-117740000D01*
X182589967Y-119930033D02*
X181960033Y-119930033D01*
X187880000Y-120289998D02*
X187880000Y-120780000D01*
X187520035Y-119930033D02*
X187880000Y-120289998D01*
X182589967Y-119930033D02*
X187520035Y-119930033D01*
%TO.N,/A1*%
X180760000Y-117820000D02*
X180840000Y-117740000D01*
X180760000Y-118470000D02*
X180760000Y-117820000D01*
X182089956Y-120180044D02*
X180800044Y-120180044D01*
X182089956Y-120180044D02*
X181070044Y-120180044D01*
X180440000Y-119820000D02*
X180440000Y-118420000D01*
X180800044Y-120180044D02*
X180440000Y-119820000D01*
X180440000Y-118140000D02*
X180840000Y-117740000D01*
X180440000Y-118420000D02*
X180440000Y-118140000D01*
X186780044Y-120180044D02*
X187380000Y-120780000D01*
X182089956Y-120180044D02*
X186780044Y-120180044D01*
%TO.N,/A2*%
X183240000Y-117953200D02*
X183240000Y-117740000D01*
X183110000Y-119140000D02*
X183110000Y-117870000D01*
X183110000Y-117870000D02*
X183240000Y-117740000D01*
X183380011Y-119410011D02*
X183110000Y-119140000D01*
X187639989Y-119410011D02*
X183380011Y-119410011D01*
X187990000Y-119060000D02*
X187639989Y-119410011D01*
X187990000Y-118380000D02*
X187990000Y-119060000D01*
X187380000Y-117770000D02*
X187990000Y-118380000D01*
X187380000Y-116480000D02*
X187380000Y-117770000D01*
X183240000Y-118450000D02*
X183230000Y-118460000D01*
X183240000Y-117740000D02*
X183240000Y-118450000D01*
%TO.N,/A3*%
X182310000Y-117870000D02*
X182440000Y-117740000D01*
X182310000Y-118470000D02*
X182310000Y-117870000D01*
X182310000Y-119260000D02*
X182310000Y-118470000D01*
X182730022Y-119680022D02*
X182310000Y-119260000D01*
X182370000Y-119320000D02*
X182730022Y-119680022D01*
X182370000Y-118730000D02*
X182370000Y-119320000D01*
X182370000Y-117810000D02*
X182440000Y-117740000D01*
X182370000Y-118730000D02*
X182370000Y-117810000D01*
X187880000Y-117690000D02*
X187880000Y-116480000D01*
X188250000Y-118060000D02*
X187880000Y-117690000D01*
X188250000Y-119330000D02*
X188250000Y-118060000D01*
X187899978Y-119680022D02*
X188250000Y-119330000D01*
X182730022Y-119680022D02*
X187899978Y-119680022D01*
%TO.N,Net-(D1-Pad2)*%
X177797833Y-115422167D02*
X177810000Y-115422167D01*
D21*
X178129773Y-115139324D02*
X178130676Y-115139324D01*
X177797833Y-115422167D02*
X177846930Y-115422167D01*
X177529324Y-115412167D02*
X177293604Y-115176447D01*
X177856930Y-115412167D02*
X177529324Y-115412167D01*
X177934548Y-115334548D02*
X177856930Y-115412167D01*
X177846930Y-115422167D02*
X177934548Y-115334548D01*
X177934548Y-115334548D02*
X178129773Y-115139324D01*
D20*
X178410000Y-114873238D02*
X179506619Y-113776619D01*
X178406762Y-114873238D02*
X178410000Y-114873238D01*
X178300000Y-114990000D02*
X178406762Y-114873238D01*
X178220000Y-115080000D02*
X178300000Y-114990000D01*
X178130676Y-115139324D02*
X178220000Y-115080000D01*
D21*
X186270000Y-105372500D02*
X186270000Y-102830000D01*
X185840000Y-102400000D02*
X185160000Y-102400000D01*
X186270000Y-102830000D02*
X185840000Y-102400000D01*
X179490000Y-102400000D02*
X185160000Y-102400000D01*
X178930000Y-102960000D02*
X179490000Y-102400000D01*
X179506619Y-113346619D02*
X178930000Y-112770000D01*
X178930000Y-112770000D02*
X178930000Y-111860000D01*
X178930000Y-111860000D02*
X178930000Y-102960000D01*
X179506619Y-113776619D02*
X179506619Y-113346619D01*
D20*
%TO.N,/magneticSignal*%
X186270000Y-106947500D02*
X187272500Y-106947500D01*
X187272500Y-106947500D02*
X187520000Y-106700000D01*
X187520000Y-105735000D02*
X187882500Y-105372500D01*
X187520000Y-106700000D02*
X187520000Y-105735000D01*
X187882500Y-105372500D02*
X188430000Y-105372500D01*
X186270000Y-106947500D02*
X185437500Y-106947500D01*
X185437500Y-106947500D02*
X185200000Y-106710000D01*
X185200000Y-106710000D02*
X185200000Y-106330000D01*
X184235000Y-105365000D02*
X184150000Y-105365000D01*
X185200000Y-106330000D02*
X184235000Y-105365000D01*
X180180000Y-121450000D02*
X179650000Y-120920000D01*
X179650000Y-120920000D02*
X179650000Y-116040000D01*
X179650000Y-116040000D02*
X180650000Y-115040000D01*
X180650000Y-115040000D02*
X184730000Y-115040000D01*
X184730000Y-115040000D02*
X185200000Y-114570000D01*
X185200000Y-114570000D02*
X185200000Y-107542500D01*
X185795000Y-106947500D02*
X186270000Y-106947500D01*
X181740000Y-121450000D02*
X180180000Y-121450000D01*
X185200000Y-107542500D02*
X185795000Y-106947500D01*
%TO.N,Net-(D2-Pad2)*%
X183610000Y-106400000D02*
X184150000Y-106940000D01*
X182710000Y-106400000D02*
X183610000Y-106400000D01*
D21*
%TO.N,Net-(D3-Pad2)*%
X185966447Y-116166396D02*
X185973604Y-116166396D01*
X185973604Y-116166396D02*
X186270000Y-115870000D01*
X186270000Y-115670903D02*
X185559109Y-114960012D01*
X186270000Y-115870000D02*
X186270000Y-115670903D01*
D20*
X185559109Y-114720891D02*
X185559109Y-108780891D01*
X185559109Y-114960012D02*
X185559109Y-114720891D01*
X185559109Y-114720891D02*
X185559109Y-114630891D01*
X185559109Y-108780891D02*
X186030000Y-108310000D01*
X188140000Y-108310000D02*
X188430000Y-108020000D01*
X186030000Y-108310000D02*
X188140000Y-108310000D01*
X188430000Y-108020000D02*
X188430000Y-106947500D01*
%TO.N,/INT_OUT*%
X182278480Y-121450000D02*
X183490000Y-121450000D01*
X183980000Y-121940000D02*
X184949998Y-121940000D01*
X183490000Y-121450000D02*
X183980000Y-121940000D01*
%TO.N,/ALERT*%
X182009240Y-120800760D02*
X182009240Y-121002960D01*
X182240724Y-120569276D02*
X182009240Y-120800760D01*
X186119276Y-120569276D02*
X185969276Y-120569276D01*
X185969276Y-120569276D02*
X182240724Y-120569276D01*
X188880000Y-122360000D02*
X188880000Y-120780000D01*
X188640000Y-122600000D02*
X188880000Y-122360000D01*
X187130000Y-122600000D02*
X188640000Y-122600000D01*
X186940000Y-122410000D02*
X187130000Y-122600000D01*
X186940000Y-120960000D02*
X186940000Y-122410000D01*
X186549276Y-120569276D02*
X186940000Y-120960000D01*
X185969276Y-120569276D02*
X186549276Y-120569276D01*
%TO.N,/FSR_CTRL*%
X180840000Y-115940000D02*
X183240000Y-115940000D01*
X180260000Y-115940000D02*
X180840000Y-115940000D01*
X179950000Y-116250000D02*
X180260000Y-115940000D01*
X179950000Y-119510000D02*
X179950000Y-116250000D01*
X180170000Y-119730000D02*
X179950000Y-119510000D01*
X180170000Y-120770000D02*
X180170000Y-119730000D01*
X180402960Y-121002960D02*
X180170000Y-120770000D01*
X181508860Y-121002960D02*
X180402960Y-121002960D01*
%TD*%
%TO.N,GND*%
X173397889Y-114813169D02*
X173414740Y-114818281D01*
X173414741Y-116134387D01*
X173420529Y-116193154D01*
X173443401Y-116268554D01*
X173480544Y-116338043D01*
X173530530Y-116398951D01*
X173591438Y-116448937D01*
X173651024Y-116480787D01*
X173690653Y-116513309D01*
X173755800Y-116548131D01*
X173826487Y-116569574D01*
X173875000Y-116574352D01*
X173875001Y-118382160D01*
X173873186Y-118400586D01*
X173878190Y-118451388D01*
X173880427Y-118474099D01*
X173889777Y-118504921D01*
X173901870Y-118544786D01*
X173936691Y-118609932D01*
X173941170Y-118615390D01*
X173983553Y-118667034D01*
X173997861Y-118678776D01*
X174286837Y-118967753D01*
X174298580Y-118982062D01*
X174355681Y-119028923D01*
X174420828Y-119063745D01*
X174491515Y-119085188D01*
X174546609Y-119090614D01*
X174546612Y-119090614D01*
X174565028Y-119092428D01*
X174583444Y-119090614D01*
X175164356Y-119090614D01*
X175151316Y-119101315D01*
X175107579Y-119154610D01*
X175087920Y-119191389D01*
X175075079Y-119215413D01*
X175055065Y-119281389D01*
X175048307Y-119350000D01*
X175050001Y-119367198D01*
X175050001Y-119518749D01*
X174975000Y-119593750D01*
X174975000Y-119936497D01*
X174973670Y-119950000D01*
X174973670Y-121250000D01*
X174975000Y-121263503D01*
X174975000Y-121606250D01*
X175068750Y-121700000D01*
X175127306Y-121693799D01*
X175197769Y-121671631D01*
X175262554Y-121636142D01*
X175306294Y-121599487D01*
X175325000Y-121601330D01*
X175475000Y-121601330D01*
X175543541Y-121594579D01*
X175609448Y-121574587D01*
X175650000Y-121552911D01*
X175690552Y-121574587D01*
X175756459Y-121594579D01*
X175825000Y-121601330D01*
X175975000Y-121601330D01*
X176043541Y-121594579D01*
X176109448Y-121574587D01*
X176150000Y-121552911D01*
X176190552Y-121574587D01*
X176256459Y-121594579D01*
X176325000Y-121601330D01*
X176475000Y-121601330D01*
X176543541Y-121594579D01*
X176609448Y-121574587D01*
X176670188Y-121542120D01*
X176723428Y-121498428D01*
X176767120Y-121445188D01*
X176799587Y-121384448D01*
X176819579Y-121318541D01*
X176826330Y-121250000D01*
X176826330Y-121161128D01*
X176845506Y-121184494D01*
X176921476Y-121246841D01*
X177008149Y-121293169D01*
X177102195Y-121321697D01*
X177200000Y-121331330D01*
X177650000Y-121331330D01*
X177747805Y-121321697D01*
X177841851Y-121293169D01*
X177928524Y-121246841D01*
X178004494Y-121184494D01*
X178066841Y-121108524D01*
X178113169Y-121021851D01*
X178141697Y-120927805D01*
X178149659Y-120846969D01*
X178148186Y-121055000D01*
X178155426Y-121128513D01*
X178176869Y-121199200D01*
X178211691Y-121264347D01*
X178258552Y-121321448D01*
X178315653Y-121368309D01*
X178380800Y-121403131D01*
X178451487Y-121424574D01*
X178525000Y-121431814D01*
X178756250Y-121430000D01*
X178850000Y-121336250D01*
X178850000Y-120705000D01*
X178830000Y-120705000D01*
X178830000Y-120455000D01*
X178850000Y-120455000D01*
X178850000Y-120435000D01*
X179100000Y-120435000D01*
X179100000Y-120455000D01*
X179120000Y-120455000D01*
X179120000Y-120705000D01*
X179100000Y-120705000D01*
X179100000Y-121336250D01*
X179193750Y-121430000D01*
X179425000Y-121431814D01*
X179498513Y-121424574D01*
X179569200Y-121403131D01*
X179614137Y-121379111D01*
X179920355Y-121685330D01*
X179931315Y-121698685D01*
X179984610Y-121742422D01*
X180045413Y-121774922D01*
X180091374Y-121788864D01*
X180111387Y-121794935D01*
X180179999Y-121801693D01*
X180197188Y-121800000D01*
X180333430Y-121800000D01*
X180324979Y-121820402D01*
X180300000Y-121945981D01*
X180300000Y-122074019D01*
X180324979Y-122199598D01*
X180333430Y-122220000D01*
X180304975Y-122220000D01*
X179889653Y-121804680D01*
X179878685Y-121791315D01*
X179825390Y-121747578D01*
X179764587Y-121715078D01*
X179698612Y-121695065D01*
X179647189Y-121690000D01*
X179647188Y-121690000D01*
X179630000Y-121688307D01*
X179612812Y-121690000D01*
X178647196Y-121690000D01*
X178630000Y-121688306D01*
X178561388Y-121695065D01*
X178495413Y-121715078D01*
X178434610Y-121747578D01*
X178381315Y-121791315D01*
X178370355Y-121804670D01*
X177975023Y-122200004D01*
X177837957Y-122200004D01*
X177784311Y-122119717D01*
X177690291Y-122025697D01*
X177579736Y-121951827D01*
X177456894Y-121900944D01*
X177326486Y-121875004D01*
X177193522Y-121875004D01*
X177063114Y-121900944D01*
X176940272Y-121951827D01*
X176829717Y-122025697D01*
X176735697Y-122119717D01*
X176661827Y-122230272D01*
X176610944Y-122353114D01*
X176585004Y-122483522D01*
X176585004Y-122616486D01*
X176610944Y-122746894D01*
X176622588Y-122775004D01*
X175983294Y-122775004D01*
X175847966Y-122772598D01*
X175720424Y-122763461D01*
X175594203Y-122747504D01*
X175466241Y-122724153D01*
X175340083Y-122696196D01*
X175215967Y-122661319D01*
X175094051Y-122621871D01*
X174974534Y-122575556D01*
X174857667Y-122524714D01*
X174743586Y-122467028D01*
X174632474Y-122404825D01*
X174524547Y-122335803D01*
X174417748Y-122260707D01*
X174316775Y-122182718D01*
X174219498Y-122097870D01*
X174123028Y-122005542D01*
X174033868Y-121913555D01*
X173950255Y-121815186D01*
X173869532Y-121711605D01*
X173795677Y-121607681D01*
X173728229Y-121500765D01*
X173664565Y-121386412D01*
X173606763Y-121272486D01*
X173554807Y-121154246D01*
X173508755Y-121036280D01*
X173468588Y-120913793D01*
X173434150Y-120790637D01*
X173406001Y-120666152D01*
X173383851Y-120538716D01*
X173367933Y-120411463D01*
X173358333Y-120281920D01*
X173355000Y-120147644D01*
X173355000Y-119950000D01*
X173973670Y-119950000D01*
X173973670Y-121250000D01*
X173980421Y-121318541D01*
X174000413Y-121384448D01*
X174032880Y-121445188D01*
X174076572Y-121498428D01*
X174129812Y-121542120D01*
X174190552Y-121574587D01*
X174256459Y-121594579D01*
X174325000Y-121601330D01*
X174475000Y-121601330D01*
X174493706Y-121599487D01*
X174537446Y-121636142D01*
X174602231Y-121671631D01*
X174672694Y-121693799D01*
X174731250Y-121700000D01*
X174825000Y-121606250D01*
X174825000Y-121263503D01*
X174826330Y-121250000D01*
X174826330Y-119950000D01*
X174825000Y-119936497D01*
X174825000Y-119593750D01*
X174731250Y-119500000D01*
X174672694Y-119506201D01*
X174602231Y-119528369D01*
X174537446Y-119563858D01*
X174493706Y-119600513D01*
X174475000Y-119598670D01*
X174325000Y-119598670D01*
X174256459Y-119605421D01*
X174190552Y-119625413D01*
X174129812Y-119657880D01*
X174076572Y-119701572D01*
X174032880Y-119754812D01*
X174000413Y-119815552D01*
X173980421Y-119881459D01*
X173973670Y-119950000D01*
X173355000Y-119950000D01*
X173355000Y-114790244D01*
X173397889Y-114813169D01*
%TA.AperFunction,Conductor*%
D25*
G36*
X173397889Y-114813169D02*
G01*
X173414740Y-114818281D01*
X173414741Y-116134387D01*
X173420529Y-116193154D01*
X173443401Y-116268554D01*
X173480544Y-116338043D01*
X173530530Y-116398951D01*
X173591438Y-116448937D01*
X173651024Y-116480787D01*
X173690653Y-116513309D01*
X173755800Y-116548131D01*
X173826487Y-116569574D01*
X173875000Y-116574352D01*
X173875001Y-118382160D01*
X173873186Y-118400586D01*
X173878190Y-118451388D01*
X173880427Y-118474099D01*
X173889777Y-118504921D01*
X173901870Y-118544786D01*
X173936691Y-118609932D01*
X173941170Y-118615390D01*
X173983553Y-118667034D01*
X173997861Y-118678776D01*
X174286837Y-118967753D01*
X174298580Y-118982062D01*
X174355681Y-119028923D01*
X174420828Y-119063745D01*
X174491515Y-119085188D01*
X174546609Y-119090614D01*
X174546612Y-119090614D01*
X174565028Y-119092428D01*
X174583444Y-119090614D01*
X175164356Y-119090614D01*
X175151316Y-119101315D01*
X175107579Y-119154610D01*
X175087920Y-119191389D01*
X175075079Y-119215413D01*
X175055065Y-119281389D01*
X175048307Y-119350000D01*
X175050001Y-119367198D01*
X175050001Y-119518749D01*
X174975000Y-119593750D01*
X174975000Y-119936497D01*
X174973670Y-119950000D01*
X174973670Y-121250000D01*
X174975000Y-121263503D01*
X174975000Y-121606250D01*
X175068750Y-121700000D01*
X175127306Y-121693799D01*
X175197769Y-121671631D01*
X175262554Y-121636142D01*
X175306294Y-121599487D01*
X175325000Y-121601330D01*
X175475000Y-121601330D01*
X175543541Y-121594579D01*
X175609448Y-121574587D01*
X175650000Y-121552911D01*
X175690552Y-121574587D01*
X175756459Y-121594579D01*
X175825000Y-121601330D01*
X175975000Y-121601330D01*
X176043541Y-121594579D01*
X176109448Y-121574587D01*
X176150000Y-121552911D01*
X176190552Y-121574587D01*
X176256459Y-121594579D01*
X176325000Y-121601330D01*
X176475000Y-121601330D01*
X176543541Y-121594579D01*
X176609448Y-121574587D01*
X176670188Y-121542120D01*
X176723428Y-121498428D01*
X176767120Y-121445188D01*
X176799587Y-121384448D01*
X176819579Y-121318541D01*
X176826330Y-121250000D01*
X176826330Y-121161128D01*
X176845506Y-121184494D01*
X176921476Y-121246841D01*
X177008149Y-121293169D01*
X177102195Y-121321697D01*
X177200000Y-121331330D01*
X177650000Y-121331330D01*
X177747805Y-121321697D01*
X177841851Y-121293169D01*
X177928524Y-121246841D01*
X178004494Y-121184494D01*
X178066841Y-121108524D01*
X178113169Y-121021851D01*
X178141697Y-120927805D01*
X178149659Y-120846969D01*
X178148186Y-121055000D01*
X178155426Y-121128513D01*
X178176869Y-121199200D01*
X178211691Y-121264347D01*
X178258552Y-121321448D01*
X178315653Y-121368309D01*
X178380800Y-121403131D01*
X178451487Y-121424574D01*
X178525000Y-121431814D01*
X178756250Y-121430000D01*
X178850000Y-121336250D01*
X178850000Y-120705000D01*
X178830000Y-120705000D01*
X178830000Y-120455000D01*
X178850000Y-120455000D01*
X178850000Y-120435000D01*
X179100000Y-120435000D01*
X179100000Y-120455000D01*
X179120000Y-120455000D01*
X179120000Y-120705000D01*
X179100000Y-120705000D01*
X179100000Y-121336250D01*
X179193750Y-121430000D01*
X179425000Y-121431814D01*
X179498513Y-121424574D01*
X179569200Y-121403131D01*
X179614137Y-121379111D01*
X179920355Y-121685330D01*
X179931315Y-121698685D01*
X179984610Y-121742422D01*
X180045413Y-121774922D01*
X180091374Y-121788864D01*
X180111387Y-121794935D01*
X180179999Y-121801693D01*
X180197188Y-121800000D01*
X180333430Y-121800000D01*
X180324979Y-121820402D01*
X180300000Y-121945981D01*
X180300000Y-122074019D01*
X180324979Y-122199598D01*
X180333430Y-122220000D01*
X180304975Y-122220000D01*
X179889653Y-121804680D01*
X179878685Y-121791315D01*
X179825390Y-121747578D01*
X179764587Y-121715078D01*
X179698612Y-121695065D01*
X179647189Y-121690000D01*
X179647188Y-121690000D01*
X179630000Y-121688307D01*
X179612812Y-121690000D01*
X178647196Y-121690000D01*
X178630000Y-121688306D01*
X178561388Y-121695065D01*
X178495413Y-121715078D01*
X178434610Y-121747578D01*
X178381315Y-121791315D01*
X178370355Y-121804670D01*
X177975023Y-122200004D01*
X177837957Y-122200004D01*
X177784311Y-122119717D01*
X177690291Y-122025697D01*
X177579736Y-121951827D01*
X177456894Y-121900944D01*
X177326486Y-121875004D01*
X177193522Y-121875004D01*
X177063114Y-121900944D01*
X176940272Y-121951827D01*
X176829717Y-122025697D01*
X176735697Y-122119717D01*
X176661827Y-122230272D01*
X176610944Y-122353114D01*
X176585004Y-122483522D01*
X176585004Y-122616486D01*
X176610944Y-122746894D01*
X176622588Y-122775004D01*
X175983294Y-122775004D01*
X175847966Y-122772598D01*
X175720424Y-122763461D01*
X175594203Y-122747504D01*
X175466241Y-122724153D01*
X175340083Y-122696196D01*
X175215967Y-122661319D01*
X175094051Y-122621871D01*
X174974534Y-122575556D01*
X174857667Y-122524714D01*
X174743586Y-122467028D01*
X174632474Y-122404825D01*
X174524547Y-122335803D01*
X174417748Y-122260707D01*
X174316775Y-122182718D01*
X174219498Y-122097870D01*
X174123028Y-122005542D01*
X174033868Y-121913555D01*
X173950255Y-121815186D01*
X173869532Y-121711605D01*
X173795677Y-121607681D01*
X173728229Y-121500765D01*
X173664565Y-121386412D01*
X173606763Y-121272486D01*
X173554807Y-121154246D01*
X173508755Y-121036280D01*
X173468588Y-120913793D01*
X173434150Y-120790637D01*
X173406001Y-120666152D01*
X173383851Y-120538716D01*
X173367933Y-120411463D01*
X173358333Y-120281920D01*
X173355000Y-120147644D01*
X173355000Y-119950000D01*
X173973670Y-119950000D01*
X173973670Y-121250000D01*
X173980421Y-121318541D01*
X174000413Y-121384448D01*
X174032880Y-121445188D01*
X174076572Y-121498428D01*
X174129812Y-121542120D01*
X174190552Y-121574587D01*
X174256459Y-121594579D01*
X174325000Y-121601330D01*
X174475000Y-121601330D01*
X174493706Y-121599487D01*
X174537446Y-121636142D01*
X174602231Y-121671631D01*
X174672694Y-121693799D01*
X174731250Y-121700000D01*
X174825000Y-121606250D01*
X174825000Y-121263503D01*
X174826330Y-121250000D01*
X174826330Y-119950000D01*
X174825000Y-119936497D01*
X174825000Y-119593750D01*
X174731250Y-119500000D01*
X174672694Y-119506201D01*
X174602231Y-119528369D01*
X174537446Y-119563858D01*
X174493706Y-119600513D01*
X174475000Y-119598670D01*
X174325000Y-119598670D01*
X174256459Y-119605421D01*
X174190552Y-119625413D01*
X174129812Y-119657880D01*
X174076572Y-119701572D01*
X174032880Y-119754812D01*
X174000413Y-119815552D01*
X173980421Y-119881459D01*
X173973670Y-119950000D01*
X173355000Y-119950000D01*
X173355000Y-114790244D01*
X173397889Y-114813169D01*
G37*
%TD.AperFunction*%
D20*
X186590000Y-121104975D02*
X186590001Y-122392802D01*
X186588307Y-122410000D01*
X186595065Y-122478611D01*
X186607825Y-122520673D01*
X186615079Y-122544587D01*
X186647579Y-122605390D01*
X186691316Y-122658685D01*
X186704675Y-122669648D01*
X186810030Y-122775004D01*
X182786257Y-122775004D01*
X182802042Y-122755770D01*
X182834542Y-122694967D01*
X182849335Y-122646200D01*
X182854555Y-122628993D01*
X182861313Y-122560381D01*
X182859620Y-122543192D01*
X182859620Y-122256607D01*
X182859684Y-122256530D01*
X182879382Y-122233054D01*
X182879931Y-122232056D01*
X182880657Y-122231178D01*
X182895226Y-122204233D01*
X182909939Y-122177471D01*
X182910282Y-122176388D01*
X182910826Y-122175383D01*
X182919884Y-122146122D01*
X182929118Y-122117011D01*
X182929245Y-122115879D01*
X182929582Y-122114790D01*
X182932781Y-122084355D01*
X182936188Y-122053978D01*
X182936203Y-122051791D01*
X182936212Y-122051709D01*
X182936205Y-122051627D01*
X182936220Y-122049440D01*
X182936220Y-121800000D01*
X183345027Y-121800000D01*
X183720355Y-122175330D01*
X183731315Y-122188685D01*
X183784610Y-122232422D01*
X183845413Y-122264922D01*
X183911388Y-122284935D01*
X183949461Y-122288685D01*
X183980000Y-122291693D01*
X183997189Y-122290000D01*
X184402113Y-122290000D01*
X184445110Y-122354351D01*
X184535647Y-122444888D01*
X184642108Y-122516022D01*
X184760400Y-122565021D01*
X184885979Y-122590000D01*
X185014017Y-122590000D01*
X185139596Y-122565021D01*
X185257888Y-122516022D01*
X185364349Y-122444888D01*
X185454886Y-122354351D01*
X185526020Y-122247890D01*
X185575019Y-122129598D01*
X185599998Y-122004019D01*
X185599998Y-121875981D01*
X185575019Y-121750402D01*
X185526020Y-121632110D01*
X185454886Y-121525649D01*
X185364349Y-121435112D01*
X185257888Y-121363978D01*
X185139596Y-121314979D01*
X185014017Y-121290000D01*
X184885979Y-121290000D01*
X184760400Y-121314979D01*
X184642108Y-121363978D01*
X184535647Y-121435112D01*
X184445110Y-121525649D01*
X184402113Y-121590000D01*
X184124975Y-121590000D01*
X183749653Y-121214680D01*
X183738685Y-121201315D01*
X183685390Y-121157578D01*
X183624587Y-121125078D01*
X183558612Y-121105065D01*
X183507189Y-121100000D01*
X183507188Y-121100000D01*
X183490000Y-121098307D01*
X183472812Y-121100000D01*
X182936220Y-121100000D01*
X182936220Y-120919276D01*
X186404302Y-120919276D01*
X186590000Y-121104975D01*
%TA.AperFunction,Conductor*%
D25*
G36*
X186590000Y-121104975D02*
G01*
X186590001Y-122392802D01*
X186588307Y-122410000D01*
X186595065Y-122478611D01*
X186607825Y-122520673D01*
X186615079Y-122544587D01*
X186647579Y-122605390D01*
X186691316Y-122658685D01*
X186704675Y-122669648D01*
X186810030Y-122775004D01*
X182786257Y-122775004D01*
X182802042Y-122755770D01*
X182834542Y-122694967D01*
X182849335Y-122646200D01*
X182854555Y-122628993D01*
X182861313Y-122560381D01*
X182859620Y-122543192D01*
X182859620Y-122256607D01*
X182859684Y-122256530D01*
X182879382Y-122233054D01*
X182879931Y-122232056D01*
X182880657Y-122231178D01*
X182895226Y-122204233D01*
X182909939Y-122177471D01*
X182910282Y-122176388D01*
X182910826Y-122175383D01*
X182919884Y-122146122D01*
X182929118Y-122117011D01*
X182929245Y-122115879D01*
X182929582Y-122114790D01*
X182932781Y-122084355D01*
X182936188Y-122053978D01*
X182936203Y-122051791D01*
X182936212Y-122051709D01*
X182936205Y-122051627D01*
X182936220Y-122049440D01*
X182936220Y-121800000D01*
X183345027Y-121800000D01*
X183720355Y-122175330D01*
X183731315Y-122188685D01*
X183784610Y-122232422D01*
X183845413Y-122264922D01*
X183911388Y-122284935D01*
X183949461Y-122288685D01*
X183980000Y-122291693D01*
X183997189Y-122290000D01*
X184402113Y-122290000D01*
X184445110Y-122354351D01*
X184535647Y-122444888D01*
X184642108Y-122516022D01*
X184760400Y-122565021D01*
X184885979Y-122590000D01*
X185014017Y-122590000D01*
X185139596Y-122565021D01*
X185257888Y-122516022D01*
X185364349Y-122444888D01*
X185454886Y-122354351D01*
X185526020Y-122247890D01*
X185575019Y-122129598D01*
X185599998Y-122004019D01*
X185599998Y-121875981D01*
X185575019Y-121750402D01*
X185526020Y-121632110D01*
X185454886Y-121525649D01*
X185364349Y-121435112D01*
X185257888Y-121363978D01*
X185139596Y-121314979D01*
X185014017Y-121290000D01*
X184885979Y-121290000D01*
X184760400Y-121314979D01*
X184642108Y-121363978D01*
X184535647Y-121435112D01*
X184445110Y-121525649D01*
X184402113Y-121590000D01*
X184124975Y-121590000D01*
X183749653Y-121214680D01*
X183738685Y-121201315D01*
X183685390Y-121157578D01*
X183624587Y-121125078D01*
X183558612Y-121105065D01*
X183507189Y-121100000D01*
X183507188Y-121100000D01*
X183490000Y-121098307D01*
X183472812Y-121100000D01*
X182936220Y-121100000D01*
X182936220Y-120919276D01*
X186404302Y-120919276D01*
X186590000Y-121104975D01*
G37*
%TD.AperFunction*%
D20*
X182288555Y-100530042D02*
X182593027Y-100540256D01*
X182897949Y-100560785D01*
X183203152Y-100586568D01*
X183503872Y-100619737D01*
X183804660Y-100663328D01*
X184106966Y-100712549D01*
X184404320Y-100766364D01*
X184698351Y-100830105D01*
X184993401Y-100902212D01*
X185286294Y-100979452D01*
X185575427Y-101063964D01*
X185863705Y-101156625D01*
X186149323Y-101254378D01*
X186430976Y-101359329D01*
X186709843Y-101471930D01*
X186987207Y-101592792D01*
X187262821Y-101719352D01*
X187532661Y-101849796D01*
X187799258Y-101990459D01*
X188064993Y-102137602D01*
X188325859Y-102289119D01*
X188581970Y-102447640D01*
X188835459Y-102614545D01*
X189086075Y-102787277D01*
X189331536Y-102964348D01*
X189572877Y-103149107D01*
X189809964Y-103338982D01*
X190042621Y-103536519D01*
X190270756Y-103739181D01*
X190494222Y-103949490D01*
X190604953Y-104058571D01*
X190604952Y-120147644D01*
X190601619Y-120281922D01*
X190592019Y-120411463D01*
X190576101Y-120538714D01*
X190553951Y-120666150D01*
X190525803Y-120790634D01*
X190491366Y-120913789D01*
X190451199Y-121036277D01*
X190405147Y-121154240D01*
X190353197Y-121272469D01*
X190295385Y-121386415D01*
X190231723Y-121500765D01*
X190164269Y-121607690D01*
X190090439Y-121711580D01*
X190009685Y-121815200D01*
X189926084Y-121913555D01*
X189836924Y-122005542D01*
X189740454Y-122097870D01*
X189643171Y-122182724D01*
X189542203Y-122260708D01*
X189435405Y-122335803D01*
X189327478Y-122404825D01*
X189216364Y-122467029D01*
X189212723Y-122468870D01*
X189224935Y-122428612D01*
X189230000Y-122377189D01*
X189230000Y-122377187D01*
X189231693Y-122360001D01*
X189230000Y-122342815D01*
X189230000Y-121704328D01*
X189236250Y-121705000D01*
X189330000Y-121611250D01*
X189330000Y-120905000D01*
X189430000Y-120905000D01*
X189430000Y-121611250D01*
X189523750Y-121705000D01*
X189583204Y-121698609D01*
X189653614Y-121676270D01*
X189718312Y-121640623D01*
X189774813Y-121593039D01*
X189820945Y-121535347D01*
X189854936Y-121469764D01*
X189875478Y-121398809D01*
X189881784Y-121325210D01*
X189880000Y-120998750D01*
X189786250Y-120905000D01*
X189430000Y-120905000D01*
X189330000Y-120905000D01*
X189281330Y-120905000D01*
X189281330Y-120655000D01*
X189330000Y-120655000D01*
X189330000Y-119948750D01*
X189430000Y-119948750D01*
X189430000Y-120655000D01*
X189786250Y-120655000D01*
X189880000Y-120561250D01*
X189881784Y-120234790D01*
X189875478Y-120161191D01*
X189854936Y-120090236D01*
X189820945Y-120024653D01*
X189774813Y-119966961D01*
X189718312Y-119919377D01*
X189653614Y-119883730D01*
X189583204Y-119861391D01*
X189523750Y-119855000D01*
X189430000Y-119948750D01*
X189330000Y-119948750D01*
X189236250Y-119855000D01*
X189176796Y-119861391D01*
X189106386Y-119883730D01*
X189041688Y-119919377D01*
X189000969Y-119953670D01*
X188759031Y-119953670D01*
X188718312Y-119919377D01*
X188653614Y-119883730D01*
X188583204Y-119861391D01*
X188523750Y-119855000D01*
X188430000Y-119948750D01*
X188430000Y-120655000D01*
X188478670Y-120655000D01*
X188478670Y-120905000D01*
X188430000Y-120905000D01*
X188430000Y-121611250D01*
X188523750Y-121705000D01*
X188530000Y-121704328D01*
X188530000Y-122215026D01*
X188495026Y-122250000D01*
X187290000Y-122250000D01*
X187290000Y-121606330D01*
X187505000Y-121606330D01*
X187558909Y-121601020D01*
X187610747Y-121585296D01*
X187630000Y-121575005D01*
X187649253Y-121585296D01*
X187701091Y-121601020D01*
X187755000Y-121606330D01*
X188000969Y-121606330D01*
X188041688Y-121640623D01*
X188106386Y-121676270D01*
X188176796Y-121698609D01*
X188236250Y-121705000D01*
X188330000Y-121611250D01*
X188330000Y-120905000D01*
X188281330Y-120905000D01*
X188281330Y-120655000D01*
X188330000Y-120655000D01*
X188330000Y-119948750D01*
X188236250Y-119855000D01*
X188218013Y-119856960D01*
X188485329Y-119589645D01*
X188498684Y-119578685D01*
X188542422Y-119525390D01*
X188567420Y-119478622D01*
X188574922Y-119464588D01*
X188594935Y-119398612D01*
X188601693Y-119330000D01*
X188600000Y-119312811D01*
X188600000Y-118786350D01*
X188703110Y-118829060D01*
X188833518Y-118855000D01*
X188966482Y-118855000D01*
X189096890Y-118829060D01*
X189219732Y-118778177D01*
X189330287Y-118704307D01*
X189424307Y-118610287D01*
X189498177Y-118499732D01*
X189549060Y-118376890D01*
X189575000Y-118246482D01*
X189575000Y-118113518D01*
X189549060Y-117983110D01*
X189498177Y-117860268D01*
X189424307Y-117749713D01*
X189330287Y-117655693D01*
X189230000Y-117588684D01*
X189230000Y-117303868D01*
X189255000Y-117306330D01*
X189505000Y-117306330D01*
X189558909Y-117301020D01*
X189610747Y-117285296D01*
X189658521Y-117259760D01*
X189700395Y-117225395D01*
X189734760Y-117183521D01*
X189760296Y-117135747D01*
X189776020Y-117083909D01*
X189781330Y-117030000D01*
X189781330Y-115930000D01*
X189776020Y-115876091D01*
X189760296Y-115824253D01*
X189734760Y-115776479D01*
X189730000Y-115770679D01*
X189730000Y-115114854D01*
X189847890Y-115066022D01*
X189954351Y-114994888D01*
X190044888Y-114904351D01*
X190116022Y-114797890D01*
X190165021Y-114679598D01*
X190190000Y-114554019D01*
X190190000Y-114425981D01*
X190165021Y-114300402D01*
X190116022Y-114182110D01*
X190044888Y-114075649D01*
X189954351Y-113985112D01*
X189890000Y-113942115D01*
X189890000Y-113237185D01*
X189891693Y-113219999D01*
X189889765Y-113200426D01*
X189884935Y-113151388D01*
X189864922Y-113085413D01*
X189832422Y-113024610D01*
X189788685Y-112971315D01*
X189775330Y-112960355D01*
X189399653Y-112584680D01*
X189388685Y-112571315D01*
X189335390Y-112527578D01*
X189274587Y-112495078D01*
X189208612Y-112475065D01*
X189157189Y-112470000D01*
X189157188Y-112470000D01*
X189140000Y-112468307D01*
X189122812Y-112470000D01*
X188838859Y-112470000D01*
X188841814Y-112440000D01*
X188840000Y-112208750D01*
X188746250Y-112115000D01*
X188115000Y-112115000D01*
X188115000Y-112135000D01*
X187865000Y-112135000D01*
X187865000Y-112115000D01*
X187233750Y-112115000D01*
X187140000Y-112208750D01*
X187138186Y-112440000D01*
X187142212Y-112480882D01*
X187095413Y-112495078D01*
X187034610Y-112527578D01*
X186981315Y-112571315D01*
X186970346Y-112584681D01*
X186864676Y-112690351D01*
X186851316Y-112701315D01*
X186807579Y-112754610D01*
X186790426Y-112786701D01*
X186775079Y-112815413D01*
X186755065Y-112881389D01*
X186748307Y-112950000D01*
X186750001Y-112967198D01*
X186750000Y-113911206D01*
X186741471Y-113906820D01*
X186670450Y-113886508D01*
X186596831Y-113880441D01*
X186523443Y-113888854D01*
X186453107Y-113911422D01*
X186388524Y-113947278D01*
X186332178Y-113995045D01*
X186209515Y-114120206D01*
X186209515Y-114252788D01*
X186461422Y-114504695D01*
X186475564Y-114490553D01*
X186509979Y-114524968D01*
X186304918Y-114730029D01*
X186270503Y-114695614D01*
X186284645Y-114681472D01*
X186032738Y-114429565D01*
X185909109Y-114429565D01*
X185909109Y-111540000D01*
X187138186Y-111540000D01*
X187140000Y-111771250D01*
X187233750Y-111865000D01*
X187865000Y-111865000D01*
X187865000Y-111258750D01*
X188115000Y-111258750D01*
X188115000Y-111865000D01*
X188746250Y-111865000D01*
X188840000Y-111771250D01*
X188841814Y-111540000D01*
X188834574Y-111466487D01*
X188813131Y-111395800D01*
X188778309Y-111330653D01*
X188731448Y-111273552D01*
X188674347Y-111226691D01*
X188609200Y-111191869D01*
X188538513Y-111170426D01*
X188465000Y-111163186D01*
X188208750Y-111165000D01*
X188115000Y-111258750D01*
X187865000Y-111258750D01*
X187771250Y-111165000D01*
X187515000Y-111163186D01*
X187441487Y-111170426D01*
X187370800Y-111191869D01*
X187305653Y-111226691D01*
X187248552Y-111273552D01*
X187201691Y-111330653D01*
X187166869Y-111395800D01*
X187145426Y-111466487D01*
X187138186Y-111540000D01*
X185909109Y-111540000D01*
X185909109Y-108925864D01*
X186174975Y-108660000D01*
X188122812Y-108660000D01*
X188140000Y-108661693D01*
X188157188Y-108660000D01*
X188157189Y-108660000D01*
X188208612Y-108654935D01*
X188274587Y-108634922D01*
X188335390Y-108602422D01*
X188388685Y-108558685D01*
X188399653Y-108545320D01*
X188665329Y-108279645D01*
X188678684Y-108268685D01*
X188722422Y-108215390D01*
X188754922Y-108154587D01*
X188774935Y-108088612D01*
X188780000Y-108037189D01*
X188780000Y-108037188D01*
X188781693Y-108020000D01*
X188780000Y-108002811D01*
X188780000Y-107652096D01*
X188782835Y-107651817D01*
X188875709Y-107623644D01*
X188961302Y-107577894D01*
X189036324Y-107516324D01*
X189097894Y-107441302D01*
X189143644Y-107355709D01*
X189171817Y-107262835D01*
X189181330Y-107166250D01*
X189181330Y-106728750D01*
X189171817Y-106632165D01*
X189143644Y-106539291D01*
X189097894Y-106453698D01*
X189036324Y-106378676D01*
X188961302Y-106317106D01*
X188875709Y-106271356D01*
X188782835Y-106243183D01*
X188686250Y-106233670D01*
X188173750Y-106233670D01*
X188077165Y-106243183D01*
X187984291Y-106271356D01*
X187898698Y-106317106D01*
X187870000Y-106340658D01*
X187870000Y-105979342D01*
X187898698Y-106002894D01*
X187984291Y-106048644D01*
X188077165Y-106076817D01*
X188173750Y-106086330D01*
X188686250Y-106086330D01*
X188782835Y-106076817D01*
X188875709Y-106048644D01*
X188961302Y-106002894D01*
X189036324Y-105941324D01*
X189097894Y-105866302D01*
X189143644Y-105780709D01*
X189171817Y-105687835D01*
X189181330Y-105591250D01*
X189181330Y-105153750D01*
X189171817Y-105057165D01*
X189143644Y-104964291D01*
X189097894Y-104878698D01*
X189036324Y-104803676D01*
X188961302Y-104742106D01*
X188875709Y-104696356D01*
X188782835Y-104668183D01*
X188686250Y-104658670D01*
X188173750Y-104658670D01*
X188077165Y-104668183D01*
X187984291Y-104696356D01*
X187898698Y-104742106D01*
X187823676Y-104803676D01*
X187762106Y-104878698D01*
X187716356Y-104964291D01*
X187688183Y-105057165D01*
X187685822Y-105081135D01*
X187633815Y-105123815D01*
X187622855Y-105137170D01*
X187284675Y-105475352D01*
X187271316Y-105486315D01*
X187227579Y-105539610D01*
X187204178Y-105583390D01*
X187195079Y-105600413D01*
X187175065Y-105666389D01*
X187168307Y-105735000D01*
X187170001Y-105752198D01*
X187170000Y-106555026D01*
X187127527Y-106597500D01*
X187001301Y-106597500D01*
X186983644Y-106539291D01*
X186937894Y-106453698D01*
X186876324Y-106378676D01*
X186801302Y-106317106D01*
X186715709Y-106271356D01*
X186622835Y-106243183D01*
X186526250Y-106233670D01*
X186013750Y-106233670D01*
X185917165Y-106243183D01*
X185824291Y-106271356D01*
X185738698Y-106317106D01*
X185663676Y-106378676D01*
X185602106Y-106453698D01*
X185556356Y-106539291D01*
X185550000Y-106560244D01*
X185550000Y-106347188D01*
X185551693Y-106329999D01*
X185544935Y-106261387D01*
X185528833Y-106208307D01*
X185524922Y-106195413D01*
X185492422Y-106134610D01*
X185448685Y-106081315D01*
X185435325Y-106070351D01*
X184901330Y-105536357D01*
X184901330Y-105146250D01*
X184891817Y-105049665D01*
X184863644Y-104956791D01*
X184817894Y-104871198D01*
X184756324Y-104796176D01*
X184681302Y-104734606D01*
X184595709Y-104688856D01*
X184502835Y-104660683D01*
X184406250Y-104651170D01*
X184191943Y-104651170D01*
X184205021Y-104619598D01*
X184230000Y-104494019D01*
X184230000Y-104365981D01*
X184205021Y-104240402D01*
X184156022Y-104122110D01*
X184084888Y-104015649D01*
X183994351Y-103925112D01*
X183887890Y-103853978D01*
X183769598Y-103804979D01*
X183644019Y-103780000D01*
X183515981Y-103780000D01*
X183390402Y-103804979D01*
X183272110Y-103853978D01*
X183165649Y-103925112D01*
X183075112Y-104015649D01*
X183003978Y-104122110D01*
X182954979Y-104240402D01*
X182930000Y-104365981D01*
X182930000Y-104494019D01*
X182954979Y-104619598D01*
X183003978Y-104737890D01*
X183040001Y-104791803D01*
X183040000Y-105523879D01*
X182928750Y-105525000D01*
X182835000Y-105618750D01*
X182835000Y-105975000D01*
X182855000Y-105975000D01*
X182855000Y-106023670D01*
X182565000Y-106023670D01*
X182565000Y-105975000D01*
X182585000Y-105975000D01*
X182585000Y-105618750D01*
X182491250Y-105525000D01*
X182316012Y-105523234D01*
X182242393Y-105529300D01*
X182171372Y-105549613D01*
X182105679Y-105583390D01*
X182047837Y-105629335D01*
X182000071Y-105685681D01*
X181964214Y-105750263D01*
X181955800Y-105776487D01*
X181939760Y-105746479D01*
X181905395Y-105704605D01*
X181863521Y-105670240D01*
X181815747Y-105644704D01*
X181763909Y-105628980D01*
X181710000Y-105623670D01*
X181660000Y-105623670D01*
X181660000Y-104214974D01*
X181805330Y-104069645D01*
X181818685Y-104058685D01*
X181862422Y-104005390D01*
X181894922Y-103944587D01*
X181914935Y-103878612D01*
X181917299Y-103854610D01*
X181921694Y-103810000D01*
X181920000Y-103792804D01*
X181920000Y-103567885D01*
X181984351Y-103524888D01*
X182074888Y-103434351D01*
X182146022Y-103327890D01*
X182195021Y-103209598D01*
X182220000Y-103084019D01*
X182220000Y-102955981D01*
X182195021Y-102830402D01*
X182157575Y-102740000D01*
X185699169Y-102740000D01*
X185930001Y-102970833D01*
X185930000Y-104666919D01*
X185917165Y-104668183D01*
X185824291Y-104696356D01*
X185738698Y-104742106D01*
X185663676Y-104803676D01*
X185602106Y-104878698D01*
X185556356Y-104964291D01*
X185528183Y-105057165D01*
X185518670Y-105153750D01*
X185518670Y-105591250D01*
X185528183Y-105687835D01*
X185556356Y-105780709D01*
X185602106Y-105866302D01*
X185663676Y-105941324D01*
X185738698Y-106002894D01*
X185824291Y-106048644D01*
X185917165Y-106076817D01*
X186013750Y-106086330D01*
X186526250Y-106086330D01*
X186622835Y-106076817D01*
X186715709Y-106048644D01*
X186801302Y-106002894D01*
X186876324Y-105941324D01*
X186937894Y-105866302D01*
X186983644Y-105780709D01*
X187011817Y-105687835D01*
X187021330Y-105591250D01*
X187021330Y-105153750D01*
X187011817Y-105057165D01*
X186983644Y-104964291D01*
X186937894Y-104878698D01*
X186876324Y-104803676D01*
X186801302Y-104742106D01*
X186715709Y-104696356D01*
X186622835Y-104668183D01*
X186610000Y-104666919D01*
X186610000Y-102846693D01*
X186611644Y-102830000D01*
X186610000Y-102813307D01*
X186610000Y-102813299D01*
X186605080Y-102763348D01*
X186585639Y-102699258D01*
X186554067Y-102640192D01*
X186511579Y-102588421D01*
X186498607Y-102577775D01*
X186092229Y-102171398D01*
X186081579Y-102158421D01*
X186029808Y-102115933D01*
X185970742Y-102084361D01*
X185906652Y-102064920D01*
X185856701Y-102060000D01*
X185856693Y-102060000D01*
X185840000Y-102058356D01*
X185823307Y-102060000D01*
X179506693Y-102060000D01*
X179490000Y-102058356D01*
X179473307Y-102060000D01*
X179473299Y-102060000D01*
X179423348Y-102064920D01*
X179359258Y-102084361D01*
X179300192Y-102115933D01*
X179248421Y-102158421D01*
X179237775Y-102171393D01*
X178701394Y-102707775D01*
X178688422Y-102718421D01*
X178677776Y-102731393D01*
X178677775Y-102731394D01*
X178645933Y-102770193D01*
X178614361Y-102829259D01*
X178594920Y-102893349D01*
X178588356Y-102960000D01*
X178590001Y-102976703D01*
X178590000Y-111876700D01*
X178590001Y-111876710D01*
X178590000Y-112753306D01*
X178588356Y-112770000D01*
X178590000Y-112786693D01*
X178590000Y-112786700D01*
X178590107Y-112787784D01*
X178559670Y-112784786D01*
X178461865Y-112794419D01*
X178367819Y-112822947D01*
X178281146Y-112869275D01*
X178205176Y-112931622D01*
X177864806Y-113271992D01*
X177485193Y-113271992D01*
X177468007Y-113270299D01*
X177450821Y-113271992D01*
X177450819Y-113271992D01*
X177399396Y-113277057D01*
X177333421Y-113297070D01*
X177272618Y-113329570D01*
X177219323Y-113373307D01*
X177208363Y-113386662D01*
X177135000Y-113460025D01*
X177135000Y-113296330D01*
X177260000Y-113296330D01*
X177313909Y-113291020D01*
X177365747Y-113275296D01*
X177413521Y-113249760D01*
X177455395Y-113215395D01*
X177489760Y-113173521D01*
X177515296Y-113125747D01*
X177531020Y-113073909D01*
X177536330Y-113020000D01*
X177536330Y-108620000D01*
X177531020Y-108566091D01*
X177515296Y-108514253D01*
X177489760Y-108466479D01*
X177455395Y-108424605D01*
X177413521Y-108390240D01*
X177365747Y-108364704D01*
X177313909Y-108348980D01*
X177260000Y-108343670D01*
X176260000Y-108343670D01*
X176206091Y-108348980D01*
X176154253Y-108364704D01*
X176106479Y-108390240D01*
X176064605Y-108424605D01*
X176030240Y-108466479D01*
X176004704Y-108514253D01*
X175988980Y-108566091D01*
X175983670Y-108620000D01*
X175983670Y-113020000D01*
X175988980Y-113073909D01*
X176004704Y-113125747D01*
X176030240Y-113173521D01*
X176064605Y-113215395D01*
X176106479Y-113249760D01*
X176154253Y-113275296D01*
X176206091Y-113291020D01*
X176260000Y-113296330D01*
X176385000Y-113296330D01*
X176385000Y-113594670D01*
X176190391Y-113789279D01*
X176191554Y-113625000D01*
X176184314Y-113551487D01*
X176162871Y-113480800D01*
X176128049Y-113415653D01*
X176081188Y-113358552D01*
X176024087Y-113311691D01*
X175958940Y-113276869D01*
X175888253Y-113255426D01*
X175814740Y-113248186D01*
X175613513Y-113249764D01*
X175613521Y-113249760D01*
X175655395Y-113215395D01*
X175689760Y-113173521D01*
X175715296Y-113125747D01*
X175731020Y-113073909D01*
X175736330Y-113020000D01*
X175736330Y-108620000D01*
X175731020Y-108566091D01*
X175715296Y-108514253D01*
X175689760Y-108466479D01*
X175655395Y-108424605D01*
X175613521Y-108390240D01*
X175565747Y-108364704D01*
X175513909Y-108348980D01*
X175460000Y-108343670D01*
X174460000Y-108343670D01*
X174406091Y-108348980D01*
X174354253Y-108364704D01*
X174306479Y-108390240D01*
X174264605Y-108424605D01*
X174230240Y-108466479D01*
X174204704Y-108514253D01*
X174188980Y-108566091D01*
X174183670Y-108620000D01*
X174183670Y-113020000D01*
X174188980Y-113073909D01*
X174204704Y-113125747D01*
X174230240Y-113173521D01*
X174264605Y-113215395D01*
X174306479Y-113249760D01*
X174334782Y-113264889D01*
X174307861Y-113291810D01*
X174293553Y-113303552D01*
X174281811Y-113317860D01*
X174246691Y-113360654D01*
X174232699Y-113386831D01*
X174232453Y-113387292D01*
X174231591Y-113386831D01*
X174137545Y-113358303D01*
X174039740Y-113348670D01*
X173589740Y-113348670D01*
X173491935Y-113358303D01*
X173397889Y-113386831D01*
X173355000Y-113409756D01*
X173355000Y-104058571D01*
X173465730Y-103949490D01*
X173689211Y-103739166D01*
X173917353Y-103536500D01*
X174150003Y-103338969D01*
X174387072Y-103149108D01*
X174628417Y-102964348D01*
X174873869Y-102787282D01*
X175124491Y-102614545D01*
X175377996Y-102447631D01*
X175634106Y-102289111D01*
X175894997Y-102137579D01*
X176160654Y-101990481D01*
X176427301Y-101849790D01*
X176697147Y-101719344D01*
X176972761Y-101592785D01*
X177250091Y-101471938D01*
X177528990Y-101359324D01*
X177810627Y-101254379D01*
X178096260Y-101156621D01*
X178384543Y-101063958D01*
X178673643Y-100979457D01*
X178966566Y-100902208D01*
X179261608Y-100830103D01*
X179555631Y-100766364D01*
X179852985Y-100712549D01*
X180155308Y-100663325D01*
X180456082Y-100619737D01*
X180756802Y-100586568D01*
X181062011Y-100560784D01*
X181366927Y-100540256D01*
X181671397Y-100530042D01*
X181979976Y-100527462D01*
X182288555Y-100530042D01*
%TA.AperFunction,Conductor*%
D25*
G36*
X182288555Y-100530042D02*
G01*
X182593027Y-100540256D01*
X182897949Y-100560785D01*
X183203152Y-100586568D01*
X183503872Y-100619737D01*
X183804660Y-100663328D01*
X184106966Y-100712549D01*
X184404320Y-100766364D01*
X184698351Y-100830105D01*
X184993401Y-100902212D01*
X185286294Y-100979452D01*
X185575427Y-101063964D01*
X185863705Y-101156625D01*
X186149323Y-101254378D01*
X186430976Y-101359329D01*
X186709843Y-101471930D01*
X186987207Y-101592792D01*
X187262821Y-101719352D01*
X187532661Y-101849796D01*
X187799258Y-101990459D01*
X188064993Y-102137602D01*
X188325859Y-102289119D01*
X188581970Y-102447640D01*
X188835459Y-102614545D01*
X189086075Y-102787277D01*
X189331536Y-102964348D01*
X189572877Y-103149107D01*
X189809964Y-103338982D01*
X190042621Y-103536519D01*
X190270756Y-103739181D01*
X190494222Y-103949490D01*
X190604953Y-104058571D01*
X190604952Y-120147644D01*
X190601619Y-120281922D01*
X190592019Y-120411463D01*
X190576101Y-120538714D01*
X190553951Y-120666150D01*
X190525803Y-120790634D01*
X190491366Y-120913789D01*
X190451199Y-121036277D01*
X190405147Y-121154240D01*
X190353197Y-121272469D01*
X190295385Y-121386415D01*
X190231723Y-121500765D01*
X190164269Y-121607690D01*
X190090439Y-121711580D01*
X190009685Y-121815200D01*
X189926084Y-121913555D01*
X189836924Y-122005542D01*
X189740454Y-122097870D01*
X189643171Y-122182724D01*
X189542203Y-122260708D01*
X189435405Y-122335803D01*
X189327478Y-122404825D01*
X189216364Y-122467029D01*
X189212723Y-122468870D01*
X189224935Y-122428612D01*
X189230000Y-122377189D01*
X189230000Y-122377187D01*
X189231693Y-122360001D01*
X189230000Y-122342815D01*
X189230000Y-121704328D01*
X189236250Y-121705000D01*
X189330000Y-121611250D01*
X189330000Y-120905000D01*
X189430000Y-120905000D01*
X189430000Y-121611250D01*
X189523750Y-121705000D01*
X189583204Y-121698609D01*
X189653614Y-121676270D01*
X189718312Y-121640623D01*
X189774813Y-121593039D01*
X189820945Y-121535347D01*
X189854936Y-121469764D01*
X189875478Y-121398809D01*
X189881784Y-121325210D01*
X189880000Y-120998750D01*
X189786250Y-120905000D01*
X189430000Y-120905000D01*
X189330000Y-120905000D01*
X189281330Y-120905000D01*
X189281330Y-120655000D01*
X189330000Y-120655000D01*
X189330000Y-119948750D01*
X189430000Y-119948750D01*
X189430000Y-120655000D01*
X189786250Y-120655000D01*
X189880000Y-120561250D01*
X189881784Y-120234790D01*
X189875478Y-120161191D01*
X189854936Y-120090236D01*
X189820945Y-120024653D01*
X189774813Y-119966961D01*
X189718312Y-119919377D01*
X189653614Y-119883730D01*
X189583204Y-119861391D01*
X189523750Y-119855000D01*
X189430000Y-119948750D01*
X189330000Y-119948750D01*
X189236250Y-119855000D01*
X189176796Y-119861391D01*
X189106386Y-119883730D01*
X189041688Y-119919377D01*
X189000969Y-119953670D01*
X188759031Y-119953670D01*
X188718312Y-119919377D01*
X188653614Y-119883730D01*
X188583204Y-119861391D01*
X188523750Y-119855000D01*
X188430000Y-119948750D01*
X188430000Y-120655000D01*
X188478670Y-120655000D01*
X188478670Y-120905000D01*
X188430000Y-120905000D01*
X188430000Y-121611250D01*
X188523750Y-121705000D01*
X188530000Y-121704328D01*
X188530000Y-122215026D01*
X188495026Y-122250000D01*
X187290000Y-122250000D01*
X187290000Y-121606330D01*
X187505000Y-121606330D01*
X187558909Y-121601020D01*
X187610747Y-121585296D01*
X187630000Y-121575005D01*
X187649253Y-121585296D01*
X187701091Y-121601020D01*
X187755000Y-121606330D01*
X188000969Y-121606330D01*
X188041688Y-121640623D01*
X188106386Y-121676270D01*
X188176796Y-121698609D01*
X188236250Y-121705000D01*
X188330000Y-121611250D01*
X188330000Y-120905000D01*
X188281330Y-120905000D01*
X188281330Y-120655000D01*
X188330000Y-120655000D01*
X188330000Y-119948750D01*
X188236250Y-119855000D01*
X188218013Y-119856960D01*
X188485329Y-119589645D01*
X188498684Y-119578685D01*
X188542422Y-119525390D01*
X188567420Y-119478622D01*
X188574922Y-119464588D01*
X188594935Y-119398612D01*
X188601693Y-119330000D01*
X188600000Y-119312811D01*
X188600000Y-118786350D01*
X188703110Y-118829060D01*
X188833518Y-118855000D01*
X188966482Y-118855000D01*
X189096890Y-118829060D01*
X189219732Y-118778177D01*
X189330287Y-118704307D01*
X189424307Y-118610287D01*
X189498177Y-118499732D01*
X189549060Y-118376890D01*
X189575000Y-118246482D01*
X189575000Y-118113518D01*
X189549060Y-117983110D01*
X189498177Y-117860268D01*
X189424307Y-117749713D01*
X189330287Y-117655693D01*
X189230000Y-117588684D01*
X189230000Y-117303868D01*
X189255000Y-117306330D01*
X189505000Y-117306330D01*
X189558909Y-117301020D01*
X189610747Y-117285296D01*
X189658521Y-117259760D01*
X189700395Y-117225395D01*
X189734760Y-117183521D01*
X189760296Y-117135747D01*
X189776020Y-117083909D01*
X189781330Y-117030000D01*
X189781330Y-115930000D01*
X189776020Y-115876091D01*
X189760296Y-115824253D01*
X189734760Y-115776479D01*
X189730000Y-115770679D01*
X189730000Y-115114854D01*
X189847890Y-115066022D01*
X189954351Y-114994888D01*
X190044888Y-114904351D01*
X190116022Y-114797890D01*
X190165021Y-114679598D01*
X190190000Y-114554019D01*
X190190000Y-114425981D01*
X190165021Y-114300402D01*
X190116022Y-114182110D01*
X190044888Y-114075649D01*
X189954351Y-113985112D01*
X189890000Y-113942115D01*
X189890000Y-113237185D01*
X189891693Y-113219999D01*
X189889765Y-113200426D01*
X189884935Y-113151388D01*
X189864922Y-113085413D01*
X189832422Y-113024610D01*
X189788685Y-112971315D01*
X189775330Y-112960355D01*
X189399653Y-112584680D01*
X189388685Y-112571315D01*
X189335390Y-112527578D01*
X189274587Y-112495078D01*
X189208612Y-112475065D01*
X189157189Y-112470000D01*
X189157188Y-112470000D01*
X189140000Y-112468307D01*
X189122812Y-112470000D01*
X188838859Y-112470000D01*
X188841814Y-112440000D01*
X188840000Y-112208750D01*
X188746250Y-112115000D01*
X188115000Y-112115000D01*
X188115000Y-112135000D01*
X187865000Y-112135000D01*
X187865000Y-112115000D01*
X187233750Y-112115000D01*
X187140000Y-112208750D01*
X187138186Y-112440000D01*
X187142212Y-112480882D01*
X187095413Y-112495078D01*
X187034610Y-112527578D01*
X186981315Y-112571315D01*
X186970346Y-112584681D01*
X186864676Y-112690351D01*
X186851316Y-112701315D01*
X186807579Y-112754610D01*
X186790426Y-112786701D01*
X186775079Y-112815413D01*
X186755065Y-112881389D01*
X186748307Y-112950000D01*
X186750001Y-112967198D01*
X186750000Y-113911206D01*
X186741471Y-113906820D01*
X186670450Y-113886508D01*
X186596831Y-113880441D01*
X186523443Y-113888854D01*
X186453107Y-113911422D01*
X186388524Y-113947278D01*
X186332178Y-113995045D01*
X186209515Y-114120206D01*
X186209515Y-114252788D01*
X186461422Y-114504695D01*
X186475564Y-114490553D01*
X186509979Y-114524968D01*
X186304918Y-114730029D01*
X186270503Y-114695614D01*
X186284645Y-114681472D01*
X186032738Y-114429565D01*
X185909109Y-114429565D01*
X185909109Y-111540000D01*
X187138186Y-111540000D01*
X187140000Y-111771250D01*
X187233750Y-111865000D01*
X187865000Y-111865000D01*
X187865000Y-111258750D01*
X188115000Y-111258750D01*
X188115000Y-111865000D01*
X188746250Y-111865000D01*
X188840000Y-111771250D01*
X188841814Y-111540000D01*
X188834574Y-111466487D01*
X188813131Y-111395800D01*
X188778309Y-111330653D01*
X188731448Y-111273552D01*
X188674347Y-111226691D01*
X188609200Y-111191869D01*
X188538513Y-111170426D01*
X188465000Y-111163186D01*
X188208750Y-111165000D01*
X188115000Y-111258750D01*
X187865000Y-111258750D01*
X187771250Y-111165000D01*
X187515000Y-111163186D01*
X187441487Y-111170426D01*
X187370800Y-111191869D01*
X187305653Y-111226691D01*
X187248552Y-111273552D01*
X187201691Y-111330653D01*
X187166869Y-111395800D01*
X187145426Y-111466487D01*
X187138186Y-111540000D01*
X185909109Y-111540000D01*
X185909109Y-108925864D01*
X186174975Y-108660000D01*
X188122812Y-108660000D01*
X188140000Y-108661693D01*
X188157188Y-108660000D01*
X188157189Y-108660000D01*
X188208612Y-108654935D01*
X188274587Y-108634922D01*
X188335390Y-108602422D01*
X188388685Y-108558685D01*
X188399653Y-108545320D01*
X188665329Y-108279645D01*
X188678684Y-108268685D01*
X188722422Y-108215390D01*
X188754922Y-108154587D01*
X188774935Y-108088612D01*
X188780000Y-108037189D01*
X188780000Y-108037188D01*
X188781693Y-108020000D01*
X188780000Y-108002811D01*
X188780000Y-107652096D01*
X188782835Y-107651817D01*
X188875709Y-107623644D01*
X188961302Y-107577894D01*
X189036324Y-107516324D01*
X189097894Y-107441302D01*
X189143644Y-107355709D01*
X189171817Y-107262835D01*
X189181330Y-107166250D01*
X189181330Y-106728750D01*
X189171817Y-106632165D01*
X189143644Y-106539291D01*
X189097894Y-106453698D01*
X189036324Y-106378676D01*
X188961302Y-106317106D01*
X188875709Y-106271356D01*
X188782835Y-106243183D01*
X188686250Y-106233670D01*
X188173750Y-106233670D01*
X188077165Y-106243183D01*
X187984291Y-106271356D01*
X187898698Y-106317106D01*
X187870000Y-106340658D01*
X187870000Y-105979342D01*
X187898698Y-106002894D01*
X187984291Y-106048644D01*
X188077165Y-106076817D01*
X188173750Y-106086330D01*
X188686250Y-106086330D01*
X188782835Y-106076817D01*
X188875709Y-106048644D01*
X188961302Y-106002894D01*
X189036324Y-105941324D01*
X189097894Y-105866302D01*
X189143644Y-105780709D01*
X189171817Y-105687835D01*
X189181330Y-105591250D01*
X189181330Y-105153750D01*
X189171817Y-105057165D01*
X189143644Y-104964291D01*
X189097894Y-104878698D01*
X189036324Y-104803676D01*
X188961302Y-104742106D01*
X188875709Y-104696356D01*
X188782835Y-104668183D01*
X188686250Y-104658670D01*
X188173750Y-104658670D01*
X188077165Y-104668183D01*
X187984291Y-104696356D01*
X187898698Y-104742106D01*
X187823676Y-104803676D01*
X187762106Y-104878698D01*
X187716356Y-104964291D01*
X187688183Y-105057165D01*
X187685822Y-105081135D01*
X187633815Y-105123815D01*
X187622855Y-105137170D01*
X187284675Y-105475352D01*
X187271316Y-105486315D01*
X187227579Y-105539610D01*
X187204178Y-105583390D01*
X187195079Y-105600413D01*
X187175065Y-105666389D01*
X187168307Y-105735000D01*
X187170001Y-105752198D01*
X187170000Y-106555026D01*
X187127527Y-106597500D01*
X187001301Y-106597500D01*
X186983644Y-106539291D01*
X186937894Y-106453698D01*
X186876324Y-106378676D01*
X186801302Y-106317106D01*
X186715709Y-106271356D01*
X186622835Y-106243183D01*
X186526250Y-106233670D01*
X186013750Y-106233670D01*
X185917165Y-106243183D01*
X185824291Y-106271356D01*
X185738698Y-106317106D01*
X185663676Y-106378676D01*
X185602106Y-106453698D01*
X185556356Y-106539291D01*
X185550000Y-106560244D01*
X185550000Y-106347188D01*
X185551693Y-106329999D01*
X185544935Y-106261387D01*
X185528833Y-106208307D01*
X185524922Y-106195413D01*
X185492422Y-106134610D01*
X185448685Y-106081315D01*
X185435325Y-106070351D01*
X184901330Y-105536357D01*
X184901330Y-105146250D01*
X184891817Y-105049665D01*
X184863644Y-104956791D01*
X184817894Y-104871198D01*
X184756324Y-104796176D01*
X184681302Y-104734606D01*
X184595709Y-104688856D01*
X184502835Y-104660683D01*
X184406250Y-104651170D01*
X184191943Y-104651170D01*
X184205021Y-104619598D01*
X184230000Y-104494019D01*
X184230000Y-104365981D01*
X184205021Y-104240402D01*
X184156022Y-104122110D01*
X184084888Y-104015649D01*
X183994351Y-103925112D01*
X183887890Y-103853978D01*
X183769598Y-103804979D01*
X183644019Y-103780000D01*
X183515981Y-103780000D01*
X183390402Y-103804979D01*
X183272110Y-103853978D01*
X183165649Y-103925112D01*
X183075112Y-104015649D01*
X183003978Y-104122110D01*
X182954979Y-104240402D01*
X182930000Y-104365981D01*
X182930000Y-104494019D01*
X182954979Y-104619598D01*
X183003978Y-104737890D01*
X183040001Y-104791803D01*
X183040000Y-105523879D01*
X182928750Y-105525000D01*
X182835000Y-105618750D01*
X182835000Y-105975000D01*
X182855000Y-105975000D01*
X182855000Y-106023670D01*
X182565000Y-106023670D01*
X182565000Y-105975000D01*
X182585000Y-105975000D01*
X182585000Y-105618750D01*
X182491250Y-105525000D01*
X182316012Y-105523234D01*
X182242393Y-105529300D01*
X182171372Y-105549613D01*
X182105679Y-105583390D01*
X182047837Y-105629335D01*
X182000071Y-105685681D01*
X181964214Y-105750263D01*
X181955800Y-105776487D01*
X181939760Y-105746479D01*
X181905395Y-105704605D01*
X181863521Y-105670240D01*
X181815747Y-105644704D01*
X181763909Y-105628980D01*
X181710000Y-105623670D01*
X181660000Y-105623670D01*
X181660000Y-104214974D01*
X181805330Y-104069645D01*
X181818685Y-104058685D01*
X181862422Y-104005390D01*
X181894922Y-103944587D01*
X181914935Y-103878612D01*
X181917299Y-103854610D01*
X181921694Y-103810000D01*
X181920000Y-103792804D01*
X181920000Y-103567885D01*
X181984351Y-103524888D01*
X182074888Y-103434351D01*
X182146022Y-103327890D01*
X182195021Y-103209598D01*
X182220000Y-103084019D01*
X182220000Y-102955981D01*
X182195021Y-102830402D01*
X182157575Y-102740000D01*
X185699169Y-102740000D01*
X185930001Y-102970833D01*
X185930000Y-104666919D01*
X185917165Y-104668183D01*
X185824291Y-104696356D01*
X185738698Y-104742106D01*
X185663676Y-104803676D01*
X185602106Y-104878698D01*
X185556356Y-104964291D01*
X185528183Y-105057165D01*
X185518670Y-105153750D01*
X185518670Y-105591250D01*
X185528183Y-105687835D01*
X185556356Y-105780709D01*
X185602106Y-105866302D01*
X185663676Y-105941324D01*
X185738698Y-106002894D01*
X185824291Y-106048644D01*
X185917165Y-106076817D01*
X186013750Y-106086330D01*
X186526250Y-106086330D01*
X186622835Y-106076817D01*
X186715709Y-106048644D01*
X186801302Y-106002894D01*
X186876324Y-105941324D01*
X186937894Y-105866302D01*
X186983644Y-105780709D01*
X187011817Y-105687835D01*
X187021330Y-105591250D01*
X187021330Y-105153750D01*
X187011817Y-105057165D01*
X186983644Y-104964291D01*
X186937894Y-104878698D01*
X186876324Y-104803676D01*
X186801302Y-104742106D01*
X186715709Y-104696356D01*
X186622835Y-104668183D01*
X186610000Y-104666919D01*
X186610000Y-102846693D01*
X186611644Y-102830000D01*
X186610000Y-102813307D01*
X186610000Y-102813299D01*
X186605080Y-102763348D01*
X186585639Y-102699258D01*
X186554067Y-102640192D01*
X186511579Y-102588421D01*
X186498607Y-102577775D01*
X186092229Y-102171398D01*
X186081579Y-102158421D01*
X186029808Y-102115933D01*
X185970742Y-102084361D01*
X185906652Y-102064920D01*
X185856701Y-102060000D01*
X185856693Y-102060000D01*
X185840000Y-102058356D01*
X185823307Y-102060000D01*
X179506693Y-102060000D01*
X179490000Y-102058356D01*
X179473307Y-102060000D01*
X179473299Y-102060000D01*
X179423348Y-102064920D01*
X179359258Y-102084361D01*
X179300192Y-102115933D01*
X179248421Y-102158421D01*
X179237775Y-102171393D01*
X178701394Y-102707775D01*
X178688422Y-102718421D01*
X178677776Y-102731393D01*
X178677775Y-102731394D01*
X178645933Y-102770193D01*
X178614361Y-102829259D01*
X178594920Y-102893349D01*
X178588356Y-102960000D01*
X178590001Y-102976703D01*
X178590000Y-111876700D01*
X178590001Y-111876710D01*
X178590000Y-112753306D01*
X178588356Y-112770000D01*
X178590000Y-112786693D01*
X178590000Y-112786700D01*
X178590107Y-112787784D01*
X178559670Y-112784786D01*
X178461865Y-112794419D01*
X178367819Y-112822947D01*
X178281146Y-112869275D01*
X178205176Y-112931622D01*
X177864806Y-113271992D01*
X177485193Y-113271992D01*
X177468007Y-113270299D01*
X177450821Y-113271992D01*
X177450819Y-113271992D01*
X177399396Y-113277057D01*
X177333421Y-113297070D01*
X177272618Y-113329570D01*
X177219323Y-113373307D01*
X177208363Y-113386662D01*
X177135000Y-113460025D01*
X177135000Y-113296330D01*
X177260000Y-113296330D01*
X177313909Y-113291020D01*
X177365747Y-113275296D01*
X177413521Y-113249760D01*
X177455395Y-113215395D01*
X177489760Y-113173521D01*
X177515296Y-113125747D01*
X177531020Y-113073909D01*
X177536330Y-113020000D01*
X177536330Y-108620000D01*
X177531020Y-108566091D01*
X177515296Y-108514253D01*
X177489760Y-108466479D01*
X177455395Y-108424605D01*
X177413521Y-108390240D01*
X177365747Y-108364704D01*
X177313909Y-108348980D01*
X177260000Y-108343670D01*
X176260000Y-108343670D01*
X176206091Y-108348980D01*
X176154253Y-108364704D01*
X176106479Y-108390240D01*
X176064605Y-108424605D01*
X176030240Y-108466479D01*
X176004704Y-108514253D01*
X175988980Y-108566091D01*
X175983670Y-108620000D01*
X175983670Y-113020000D01*
X175988980Y-113073909D01*
X176004704Y-113125747D01*
X176030240Y-113173521D01*
X176064605Y-113215395D01*
X176106479Y-113249760D01*
X176154253Y-113275296D01*
X176206091Y-113291020D01*
X176260000Y-113296330D01*
X176385000Y-113296330D01*
X176385000Y-113594670D01*
X176190391Y-113789279D01*
X176191554Y-113625000D01*
X176184314Y-113551487D01*
X176162871Y-113480800D01*
X176128049Y-113415653D01*
X176081188Y-113358552D01*
X176024087Y-113311691D01*
X175958940Y-113276869D01*
X175888253Y-113255426D01*
X175814740Y-113248186D01*
X175613513Y-113249764D01*
X175613521Y-113249760D01*
X175655395Y-113215395D01*
X175689760Y-113173521D01*
X175715296Y-113125747D01*
X175731020Y-113073909D01*
X175736330Y-113020000D01*
X175736330Y-108620000D01*
X175731020Y-108566091D01*
X175715296Y-108514253D01*
X175689760Y-108466479D01*
X175655395Y-108424605D01*
X175613521Y-108390240D01*
X175565747Y-108364704D01*
X175513909Y-108348980D01*
X175460000Y-108343670D01*
X174460000Y-108343670D01*
X174406091Y-108348980D01*
X174354253Y-108364704D01*
X174306479Y-108390240D01*
X174264605Y-108424605D01*
X174230240Y-108466479D01*
X174204704Y-108514253D01*
X174188980Y-108566091D01*
X174183670Y-108620000D01*
X174183670Y-113020000D01*
X174188980Y-113073909D01*
X174204704Y-113125747D01*
X174230240Y-113173521D01*
X174264605Y-113215395D01*
X174306479Y-113249760D01*
X174334782Y-113264889D01*
X174307861Y-113291810D01*
X174293553Y-113303552D01*
X174281811Y-113317860D01*
X174246691Y-113360654D01*
X174232699Y-113386831D01*
X174232453Y-113387292D01*
X174231591Y-113386831D01*
X174137545Y-113358303D01*
X174039740Y-113348670D01*
X173589740Y-113348670D01*
X173491935Y-113358303D01*
X173397889Y-113386831D01*
X173355000Y-113409756D01*
X173355000Y-104058571D01*
X173465730Y-103949490D01*
X173689211Y-103739166D01*
X173917353Y-103536500D01*
X174150003Y-103338969D01*
X174387072Y-103149108D01*
X174628417Y-102964348D01*
X174873869Y-102787282D01*
X175124491Y-102614545D01*
X175377996Y-102447631D01*
X175634106Y-102289111D01*
X175894997Y-102137579D01*
X176160654Y-101990481D01*
X176427301Y-101849790D01*
X176697147Y-101719344D01*
X176972761Y-101592785D01*
X177250091Y-101471938D01*
X177528990Y-101359324D01*
X177810627Y-101254379D01*
X178096260Y-101156621D01*
X178384543Y-101063958D01*
X178673643Y-100979457D01*
X178966566Y-100902208D01*
X179261608Y-100830103D01*
X179555631Y-100766364D01*
X179852985Y-100712549D01*
X180155308Y-100663325D01*
X180456082Y-100619737D01*
X180756802Y-100586568D01*
X181062011Y-100560784D01*
X181366927Y-100540256D01*
X181671397Y-100530042D01*
X181979976Y-100527462D01*
X182288555Y-100530042D01*
G37*
%TD.AperFunction*%
D20*
X179300000Y-119729167D02*
X179193750Y-119730000D01*
X179100002Y-119823748D01*
X179100002Y-119730000D01*
X179061181Y-119730000D01*
X179128177Y-119629732D01*
X179179060Y-119506890D01*
X179205000Y-119376482D01*
X179205000Y-119243518D01*
X179179060Y-119113110D01*
X179128177Y-118990268D01*
X179054307Y-118879713D01*
X178960287Y-118785693D01*
X178849732Y-118711823D01*
X178726890Y-118660940D01*
X178596482Y-118635000D01*
X178463518Y-118635000D01*
X178368812Y-118653838D01*
X178320000Y-118605027D01*
X178320000Y-117524974D01*
X178384974Y-117460000D01*
X178562812Y-117460000D01*
X178580000Y-117461693D01*
X178597188Y-117460000D01*
X178597189Y-117460000D01*
X178648612Y-117454935D01*
X178714587Y-117434922D01*
X178775390Y-117402422D01*
X178828685Y-117358685D01*
X178839653Y-117345320D01*
X179085334Y-117099641D01*
X179098684Y-117088685D01*
X179114856Y-117068980D01*
X179142422Y-117035390D01*
X179174922Y-116974587D01*
X179194935Y-116908612D01*
X179199268Y-116864622D01*
X179200000Y-116857189D01*
X179200000Y-116857188D01*
X179201693Y-116840000D01*
X179200000Y-116822811D01*
X179200000Y-116304651D01*
X179265692Y-116270874D01*
X179300001Y-116243342D01*
X179300000Y-119729167D01*
%TA.AperFunction,Conductor*%
D25*
G36*
X179300000Y-119729167D02*
G01*
X179193750Y-119730000D01*
X179100002Y-119823748D01*
X179100002Y-119730000D01*
X179061181Y-119730000D01*
X179128177Y-119629732D01*
X179179060Y-119506890D01*
X179205000Y-119376482D01*
X179205000Y-119243518D01*
X179179060Y-119113110D01*
X179128177Y-118990268D01*
X179054307Y-118879713D01*
X178960287Y-118785693D01*
X178849732Y-118711823D01*
X178726890Y-118660940D01*
X178596482Y-118635000D01*
X178463518Y-118635000D01*
X178368812Y-118653838D01*
X178320000Y-118605027D01*
X178320000Y-117524974D01*
X178384974Y-117460000D01*
X178562812Y-117460000D01*
X178580000Y-117461693D01*
X178597188Y-117460000D01*
X178597189Y-117460000D01*
X178648612Y-117454935D01*
X178714587Y-117434922D01*
X178775390Y-117402422D01*
X178828685Y-117358685D01*
X178839653Y-117345320D01*
X179085334Y-117099641D01*
X179098684Y-117088685D01*
X179114856Y-117068980D01*
X179142422Y-117035390D01*
X179174922Y-116974587D01*
X179194935Y-116908612D01*
X179199268Y-116864622D01*
X179200000Y-116857189D01*
X179200000Y-116857188D01*
X179201693Y-116840000D01*
X179200000Y-116822811D01*
X179200000Y-116304651D01*
X179265692Y-116270874D01*
X179300001Y-116243342D01*
X179300000Y-119729167D01*
G37*
%TD.AperFunction*%
D20*
X185593639Y-118945720D02*
X185706150Y-119060011D01*
X185207094Y-119060011D01*
X185238210Y-119047122D01*
X185344671Y-118975988D01*
X185435208Y-118885451D01*
X185474525Y-118826607D01*
X185527349Y-118879431D01*
X185593639Y-118813141D01*
X185593639Y-118945720D01*
%TA.AperFunction,Conductor*%
D25*
G36*
X185593639Y-118945720D02*
G01*
X185706150Y-119060011D01*
X185207094Y-119060011D01*
X185238210Y-119047122D01*
X185344671Y-118975988D01*
X185435208Y-118885451D01*
X185474525Y-118826607D01*
X185527349Y-118879431D01*
X185593639Y-118813141D01*
X185593639Y-118945720D01*
G37*
%TD.AperFunction*%
D20*
X183887588Y-118651833D02*
X183931325Y-118705128D01*
X183939373Y-118711733D01*
X183945981Y-118719785D01*
X183999276Y-118763522D01*
X184060079Y-118796022D01*
X184126054Y-118816035D01*
X184177477Y-118821100D01*
X184177478Y-118821100D01*
X184194666Y-118822793D01*
X184211855Y-118821100D01*
X184382435Y-118821100D01*
X184425432Y-118885451D01*
X184515969Y-118975988D01*
X184622430Y-119047122D01*
X184653546Y-119060011D01*
X183524985Y-119060011D01*
X183511802Y-119046828D01*
X183537890Y-119036022D01*
X183644351Y-118964888D01*
X183734888Y-118874351D01*
X183806022Y-118767890D01*
X183855021Y-118649598D01*
X183863529Y-118606823D01*
X183887588Y-118651833D01*
%TA.AperFunction,Conductor*%
D25*
G36*
X183887588Y-118651833D02*
G01*
X183931325Y-118705128D01*
X183939373Y-118711733D01*
X183945981Y-118719785D01*
X183999276Y-118763522D01*
X184060079Y-118796022D01*
X184126054Y-118816035D01*
X184177477Y-118821100D01*
X184177478Y-118821100D01*
X184194666Y-118822793D01*
X184211855Y-118821100D01*
X184382435Y-118821100D01*
X184425432Y-118885451D01*
X184515969Y-118975988D01*
X184622430Y-119047122D01*
X184653546Y-119060011D01*
X183524985Y-119060011D01*
X183511802Y-119046828D01*
X183537890Y-119036022D01*
X183644351Y-118964888D01*
X183734888Y-118874351D01*
X183806022Y-118767890D01*
X183855021Y-118649598D01*
X183863529Y-118606823D01*
X183887588Y-118651833D01*
G37*
%TD.AperFunction*%
D20*
X186230919Y-118175858D02*
X186216777Y-118190000D01*
X186230919Y-118204142D01*
X186054142Y-118380919D01*
X186040000Y-118366777D01*
X186025858Y-118380919D01*
X185849081Y-118204142D01*
X185863223Y-118190000D01*
X185849081Y-118175858D01*
X186025858Y-117999081D01*
X186040000Y-118013223D01*
X186054142Y-117999081D01*
X186230919Y-118175858D01*
%TA.AperFunction,Conductor*%
D25*
G36*
X186230919Y-118175858D02*
G01*
X186216777Y-118190000D01*
X186230919Y-118204142D01*
X186054142Y-118380919D01*
X186040000Y-118366777D01*
X186025858Y-118380919D01*
X185849081Y-118204142D01*
X185863223Y-118190000D01*
X185849081Y-118175858D01*
X186025858Y-117999081D01*
X186040000Y-118013223D01*
X186054142Y-117999081D01*
X186230919Y-118175858D01*
G37*
%TD.AperFunction*%
D20*
X175489740Y-113975000D02*
X175509740Y-113975000D01*
X175509740Y-114225000D01*
X175489740Y-114225000D01*
X175489740Y-114856250D01*
X175583490Y-114950000D01*
X175675001Y-114950718D01*
X175675001Y-115121206D01*
X175627306Y-115106201D01*
X175568750Y-115100000D01*
X175475000Y-115193750D01*
X175475000Y-115536497D01*
X175473670Y-115550000D01*
X175473670Y-116850000D01*
X175475000Y-116863503D01*
X175475000Y-117206250D01*
X175549210Y-117280460D01*
X175547861Y-117281810D01*
X175533553Y-117293552D01*
X175510610Y-117321508D01*
X175486691Y-117350654D01*
X175460138Y-117400331D01*
X175451870Y-117415800D01*
X175430855Y-117485078D01*
X175430427Y-117486488D01*
X175423186Y-117560000D01*
X175425001Y-117578426D01*
X175425000Y-118264670D01*
X175349056Y-118340614D01*
X174720358Y-118340614D01*
X174625000Y-118245257D01*
X174625000Y-117166274D01*
X174650000Y-117152911D01*
X174690552Y-117174587D01*
X174756459Y-117194579D01*
X174825000Y-117201330D01*
X174975000Y-117201330D01*
X174993706Y-117199487D01*
X175037446Y-117236142D01*
X175102231Y-117271631D01*
X175172694Y-117293799D01*
X175231250Y-117300000D01*
X175325000Y-117206250D01*
X175325000Y-116863503D01*
X175326330Y-116850000D01*
X175326330Y-115550000D01*
X175325000Y-115536497D01*
X175325000Y-115193750D01*
X175231250Y-115100000D01*
X175191599Y-115104199D01*
X175179713Y-115089716D01*
X175166448Y-115073552D01*
X175152139Y-115061809D01*
X175041152Y-114950822D01*
X175145990Y-114950000D01*
X175239740Y-114856250D01*
X175239740Y-114225000D01*
X175219740Y-114225000D01*
X175219740Y-113975000D01*
X175239740Y-113975000D01*
X175239740Y-113955000D01*
X175489740Y-113955000D01*
X175489740Y-113975000D01*
%TA.AperFunction,Conductor*%
D25*
G36*
X175489740Y-113975000D02*
G01*
X175509740Y-113975000D01*
X175509740Y-114225000D01*
X175489740Y-114225000D01*
X175489740Y-114856250D01*
X175583490Y-114950000D01*
X175675001Y-114950718D01*
X175675001Y-115121206D01*
X175627306Y-115106201D01*
X175568750Y-115100000D01*
X175475000Y-115193750D01*
X175475000Y-115536497D01*
X175473670Y-115550000D01*
X175473670Y-116850000D01*
X175475000Y-116863503D01*
X175475000Y-117206250D01*
X175549210Y-117280460D01*
X175547861Y-117281810D01*
X175533553Y-117293552D01*
X175510610Y-117321508D01*
X175486691Y-117350654D01*
X175460138Y-117400331D01*
X175451870Y-117415800D01*
X175430855Y-117485078D01*
X175430427Y-117486488D01*
X175423186Y-117560000D01*
X175425001Y-117578426D01*
X175425000Y-118264670D01*
X175349056Y-118340614D01*
X174720358Y-118340614D01*
X174625000Y-118245257D01*
X174625000Y-117166274D01*
X174650000Y-117152911D01*
X174690552Y-117174587D01*
X174756459Y-117194579D01*
X174825000Y-117201330D01*
X174975000Y-117201330D01*
X174993706Y-117199487D01*
X175037446Y-117236142D01*
X175102231Y-117271631D01*
X175172694Y-117293799D01*
X175231250Y-117300000D01*
X175325000Y-117206250D01*
X175325000Y-116863503D01*
X175326330Y-116850000D01*
X175326330Y-115550000D01*
X175325000Y-115536497D01*
X175325000Y-115193750D01*
X175231250Y-115100000D01*
X175191599Y-115104199D01*
X175179713Y-115089716D01*
X175166448Y-115073552D01*
X175152139Y-115061809D01*
X175041152Y-114950822D01*
X175145990Y-114950000D01*
X175239740Y-114856250D01*
X175239740Y-114225000D01*
X175219740Y-114225000D01*
X175219740Y-113975000D01*
X175239740Y-113975000D01*
X175239740Y-113955000D01*
X175489740Y-113955000D01*
X175489740Y-113975000D01*
G37*
%TD.AperFunction*%
D20*
X183830010Y-118210022D02*
X183806022Y-118152110D01*
X183766330Y-118092706D01*
X183766330Y-117966442D01*
X183799587Y-117956354D01*
X183830011Y-117940092D01*
X183830010Y-118210022D01*
%TA.AperFunction,Conductor*%
D25*
G36*
X183830010Y-118210022D02*
G01*
X183806022Y-118152110D01*
X183766330Y-118092706D01*
X183766330Y-117966442D01*
X183799587Y-117956354D01*
X183830011Y-117940092D01*
X183830010Y-118210022D01*
G37*
%TD.AperFunction*%
D20*
X186369497Y-116364386D02*
X186355355Y-116378528D01*
X186408388Y-116431561D01*
X186231611Y-116608338D01*
X186178578Y-116555305D01*
X186164436Y-116569447D01*
X186130022Y-116535033D01*
X186335083Y-116329972D01*
X186369497Y-116364386D01*
%TA.AperFunction,Conductor*%
D25*
G36*
X186369497Y-116364386D02*
G01*
X186355355Y-116378528D01*
X186408388Y-116431561D01*
X186231611Y-116608338D01*
X186178578Y-116555305D01*
X186164436Y-116569447D01*
X186130022Y-116535033D01*
X186335083Y-116329972D01*
X186369497Y-116364386D01*
G37*
%TD.AperFunction*%
D20*
X180944979Y-102830402D02*
X180920000Y-102955981D01*
X180920000Y-103084019D01*
X180930339Y-103135997D01*
X180879598Y-103114979D01*
X180754019Y-103090000D01*
X180625981Y-103090000D01*
X180500402Y-103114979D01*
X180382110Y-103163978D01*
X180275649Y-103235112D01*
X180185112Y-103325649D01*
X180113978Y-103432110D01*
X180064979Y-103550402D01*
X180040000Y-103675981D01*
X180040000Y-103804019D01*
X180060238Y-103905762D01*
X180055079Y-103915413D01*
X180035065Y-103981389D01*
X180028307Y-104050000D01*
X180030001Y-104067198D01*
X180030000Y-105797188D01*
X180030001Y-105797198D01*
X180030000Y-106612811D01*
X180028307Y-106630000D01*
X180030000Y-106647188D01*
X180035065Y-106698611D01*
X180055078Y-106764586D01*
X180087578Y-106825389D01*
X180131315Y-106878684D01*
X180144676Y-106889649D01*
X180290350Y-107035324D01*
X180301315Y-107048685D01*
X180354610Y-107092422D01*
X180415413Y-107124922D01*
X180481388Y-107144935D01*
X180532811Y-107150000D01*
X180532813Y-107150000D01*
X180549999Y-107151693D01*
X180567185Y-107150000D01*
X180603750Y-107150000D01*
X180628750Y-107175000D01*
X180896497Y-107175000D01*
X180910000Y-107176330D01*
X181455000Y-107176330D01*
X181455000Y-107225000D01*
X181435000Y-107225000D01*
X181435000Y-107448750D01*
X181390000Y-107493750D01*
X181390000Y-108125000D01*
X181410000Y-108125000D01*
X181410000Y-108375000D01*
X181390000Y-108375000D01*
X181390000Y-109006250D01*
X181483750Y-109100000D01*
X181715000Y-109101814D01*
X181788513Y-109094574D01*
X181859200Y-109073131D01*
X181924347Y-109038309D01*
X181981448Y-108991448D01*
X182028309Y-108934347D01*
X182063131Y-108869200D01*
X182084574Y-108798513D01*
X182091814Y-108725000D01*
X182090341Y-108516969D01*
X182098303Y-108597805D01*
X182126831Y-108691851D01*
X182173159Y-108778524D01*
X182235506Y-108854494D01*
X182311476Y-108916841D01*
X182398149Y-108963169D01*
X182492195Y-108991697D01*
X182590000Y-109001330D01*
X183040000Y-109001330D01*
X183137805Y-108991697D01*
X183231851Y-108963169D01*
X183318524Y-108916841D01*
X183394494Y-108854494D01*
X183456841Y-108778524D01*
X183503169Y-108691851D01*
X183531031Y-108600000D01*
X184542812Y-108600000D01*
X184560000Y-108601693D01*
X184577188Y-108600000D01*
X184577189Y-108600000D01*
X184628612Y-108594935D01*
X184694587Y-108574922D01*
X184755390Y-108542422D01*
X184808685Y-108498685D01*
X184819653Y-108485320D01*
X184850001Y-108454972D01*
X184850000Y-114425025D01*
X184585027Y-114690000D01*
X180667878Y-114690000D01*
X180661655Y-114626818D01*
X180640212Y-114556129D01*
X180605392Y-114490984D01*
X180558530Y-114433883D01*
X180393728Y-114271647D01*
X180261146Y-114271647D01*
X179814785Y-114718008D01*
X179828927Y-114732150D01*
X179652150Y-114908927D01*
X179638008Y-114894785D01*
X179191647Y-115341146D01*
X179191647Y-115435080D01*
X178955305Y-115671422D01*
X178969447Y-115685564D01*
X178935033Y-115719979D01*
X178729972Y-115514918D01*
X178764386Y-115480503D01*
X178778528Y-115494645D01*
X179030435Y-115242738D01*
X179030435Y-115148804D01*
X179461231Y-114718008D01*
X179447089Y-114703866D01*
X179623866Y-114527089D01*
X179638008Y-114541231D01*
X180084369Y-114094870D01*
X180084369Y-113962288D01*
X179922133Y-113797486D01*
X179865032Y-113750624D01*
X179855235Y-113745388D01*
X179851553Y-113708008D01*
X179846619Y-113691743D01*
X179846619Y-113363309D01*
X179848263Y-113346618D01*
X179846619Y-113329927D01*
X179846619Y-113329918D01*
X179841699Y-113279967D01*
X179822258Y-113215877D01*
X179790686Y-113156811D01*
X179758844Y-113118011D01*
X179758839Y-113118006D01*
X179748198Y-113105040D01*
X179735231Y-113094398D01*
X179270000Y-112629169D01*
X179270000Y-111483436D01*
X180102551Y-111483436D01*
X180102551Y-111854920D01*
X180175024Y-112219267D01*
X180317185Y-112562475D01*
X180523571Y-112871353D01*
X180786251Y-113134033D01*
X181095129Y-113340419D01*
X181438337Y-113482580D01*
X181802684Y-113555053D01*
X182174168Y-113555053D01*
X182538515Y-113482580D01*
X182881723Y-113340419D01*
X183190601Y-113134033D01*
X183453281Y-112871353D01*
X183659667Y-112562475D01*
X183801828Y-112219267D01*
X183874301Y-111854920D01*
X183874301Y-111483436D01*
X183801828Y-111119089D01*
X183659667Y-110775881D01*
X183453281Y-110467003D01*
X183190601Y-110204323D01*
X182881723Y-109997937D01*
X182538515Y-109855776D01*
X182174168Y-109783303D01*
X181802684Y-109783303D01*
X181438337Y-109855776D01*
X181095129Y-109997937D01*
X180786251Y-110204323D01*
X180523571Y-110467003D01*
X180317185Y-110775881D01*
X180175024Y-111119089D01*
X180102551Y-111483436D01*
X179270000Y-111483436D01*
X179270000Y-108725000D01*
X180438186Y-108725000D01*
X180445426Y-108798513D01*
X180466869Y-108869200D01*
X180501691Y-108934347D01*
X180548552Y-108991448D01*
X180605653Y-109038309D01*
X180670800Y-109073131D01*
X180741487Y-109094574D01*
X180815000Y-109101814D01*
X181046250Y-109100000D01*
X181140000Y-109006250D01*
X181140000Y-108375000D01*
X180533750Y-108375000D01*
X180440000Y-108468750D01*
X180438186Y-108725000D01*
X179270000Y-108725000D01*
X179270000Y-107775000D01*
X180438186Y-107775000D01*
X180440000Y-108031250D01*
X180533750Y-108125000D01*
X181140000Y-108125000D01*
X181140000Y-107626250D01*
X181185000Y-107581250D01*
X181185000Y-107225000D01*
X180628750Y-107225000D01*
X180535000Y-107318750D01*
X180541646Y-107379400D01*
X180564214Y-107449737D01*
X180581745Y-107481312D01*
X180548552Y-107508552D01*
X180501691Y-107565653D01*
X180466869Y-107630800D01*
X180445426Y-107701487D01*
X180438186Y-107775000D01*
X179270000Y-107775000D01*
X179270000Y-103100831D01*
X179630832Y-102740000D01*
X180982425Y-102740000D01*
X180944979Y-102830402D01*
%TA.AperFunction,Conductor*%
D25*
G36*
X180944979Y-102830402D02*
G01*
X180920000Y-102955981D01*
X180920000Y-103084019D01*
X180930339Y-103135997D01*
X180879598Y-103114979D01*
X180754019Y-103090000D01*
X180625981Y-103090000D01*
X180500402Y-103114979D01*
X180382110Y-103163978D01*
X180275649Y-103235112D01*
X180185112Y-103325649D01*
X180113978Y-103432110D01*
X180064979Y-103550402D01*
X180040000Y-103675981D01*
X180040000Y-103804019D01*
X180060238Y-103905762D01*
X180055079Y-103915413D01*
X180035065Y-103981389D01*
X180028307Y-104050000D01*
X180030001Y-104067198D01*
X180030000Y-105797188D01*
X180030001Y-105797198D01*
X180030000Y-106612811D01*
X180028307Y-106630000D01*
X180030000Y-106647188D01*
X180035065Y-106698611D01*
X180055078Y-106764586D01*
X180087578Y-106825389D01*
X180131315Y-106878684D01*
X180144676Y-106889649D01*
X180290350Y-107035324D01*
X180301315Y-107048685D01*
X180354610Y-107092422D01*
X180415413Y-107124922D01*
X180481388Y-107144935D01*
X180532811Y-107150000D01*
X180532813Y-107150000D01*
X180549999Y-107151693D01*
X180567185Y-107150000D01*
X180603750Y-107150000D01*
X180628750Y-107175000D01*
X180896497Y-107175000D01*
X180910000Y-107176330D01*
X181455000Y-107176330D01*
X181455000Y-107225000D01*
X181435000Y-107225000D01*
X181435000Y-107448750D01*
X181390000Y-107493750D01*
X181390000Y-108125000D01*
X181410000Y-108125000D01*
X181410000Y-108375000D01*
X181390000Y-108375000D01*
X181390000Y-109006250D01*
X181483750Y-109100000D01*
X181715000Y-109101814D01*
X181788513Y-109094574D01*
X181859200Y-109073131D01*
X181924347Y-109038309D01*
X181981448Y-108991448D01*
X182028309Y-108934347D01*
X182063131Y-108869200D01*
X182084574Y-108798513D01*
X182091814Y-108725000D01*
X182090341Y-108516969D01*
X182098303Y-108597805D01*
X182126831Y-108691851D01*
X182173159Y-108778524D01*
X182235506Y-108854494D01*
X182311476Y-108916841D01*
X182398149Y-108963169D01*
X182492195Y-108991697D01*
X182590000Y-109001330D01*
X183040000Y-109001330D01*
X183137805Y-108991697D01*
X183231851Y-108963169D01*
X183318524Y-108916841D01*
X183394494Y-108854494D01*
X183456841Y-108778524D01*
X183503169Y-108691851D01*
X183531031Y-108600000D01*
X184542812Y-108600000D01*
X184560000Y-108601693D01*
X184577188Y-108600000D01*
X184577189Y-108600000D01*
X184628612Y-108594935D01*
X184694587Y-108574922D01*
X184755390Y-108542422D01*
X184808685Y-108498685D01*
X184819653Y-108485320D01*
X184850001Y-108454972D01*
X184850000Y-114425025D01*
X184585027Y-114690000D01*
X180667878Y-114690000D01*
X180661655Y-114626818D01*
X180640212Y-114556129D01*
X180605392Y-114490984D01*
X180558530Y-114433883D01*
X180393728Y-114271647D01*
X180261146Y-114271647D01*
X179814785Y-114718008D01*
X179828927Y-114732150D01*
X179652150Y-114908927D01*
X179638008Y-114894785D01*
X179191647Y-115341146D01*
X179191647Y-115435080D01*
X178955305Y-115671422D01*
X178969447Y-115685564D01*
X178935033Y-115719979D01*
X178729972Y-115514918D01*
X178764386Y-115480503D01*
X178778528Y-115494645D01*
X179030435Y-115242738D01*
X179030435Y-115148804D01*
X179461231Y-114718008D01*
X179447089Y-114703866D01*
X179623866Y-114527089D01*
X179638008Y-114541231D01*
X180084369Y-114094870D01*
X180084369Y-113962288D01*
X179922133Y-113797486D01*
X179865032Y-113750624D01*
X179855235Y-113745388D01*
X179851553Y-113708008D01*
X179846619Y-113691743D01*
X179846619Y-113363309D01*
X179848263Y-113346618D01*
X179846619Y-113329927D01*
X179846619Y-113329918D01*
X179841699Y-113279967D01*
X179822258Y-113215877D01*
X179790686Y-113156811D01*
X179758844Y-113118011D01*
X179758839Y-113118006D01*
X179748198Y-113105040D01*
X179735231Y-113094398D01*
X179270000Y-112629169D01*
X179270000Y-111483436D01*
X180102551Y-111483436D01*
X180102551Y-111854920D01*
X180175024Y-112219267D01*
X180317185Y-112562475D01*
X180523571Y-112871353D01*
X180786251Y-113134033D01*
X181095129Y-113340419D01*
X181438337Y-113482580D01*
X181802684Y-113555053D01*
X182174168Y-113555053D01*
X182538515Y-113482580D01*
X182881723Y-113340419D01*
X183190601Y-113134033D01*
X183453281Y-112871353D01*
X183659667Y-112562475D01*
X183801828Y-112219267D01*
X183874301Y-111854920D01*
X183874301Y-111483436D01*
X183801828Y-111119089D01*
X183659667Y-110775881D01*
X183453281Y-110467003D01*
X183190601Y-110204323D01*
X182881723Y-109997937D01*
X182538515Y-109855776D01*
X182174168Y-109783303D01*
X181802684Y-109783303D01*
X181438337Y-109855776D01*
X181095129Y-109997937D01*
X180786251Y-110204323D01*
X180523571Y-110467003D01*
X180317185Y-110775881D01*
X180175024Y-111119089D01*
X180102551Y-111483436D01*
X179270000Y-111483436D01*
X179270000Y-108725000D01*
X180438186Y-108725000D01*
X180445426Y-108798513D01*
X180466869Y-108869200D01*
X180501691Y-108934347D01*
X180548552Y-108991448D01*
X180605653Y-109038309D01*
X180670800Y-109073131D01*
X180741487Y-109094574D01*
X180815000Y-109101814D01*
X181046250Y-109100000D01*
X181140000Y-109006250D01*
X181140000Y-108375000D01*
X180533750Y-108375000D01*
X180440000Y-108468750D01*
X180438186Y-108725000D01*
X179270000Y-108725000D01*
X179270000Y-107775000D01*
X180438186Y-107775000D01*
X180440000Y-108031250D01*
X180533750Y-108125000D01*
X181140000Y-108125000D01*
X181140000Y-107626250D01*
X181185000Y-107581250D01*
X181185000Y-107225000D01*
X180628750Y-107225000D01*
X180535000Y-107318750D01*
X180541646Y-107379400D01*
X180564214Y-107449737D01*
X180581745Y-107481312D01*
X180548552Y-107508552D01*
X180501691Y-107565653D01*
X180466869Y-107630800D01*
X180445426Y-107701487D01*
X180438186Y-107775000D01*
X179270000Y-107775000D01*
X179270000Y-103100831D01*
X179630832Y-102740000D01*
X180982425Y-102740000D01*
X180944979Y-102830402D01*
G37*
%TD.AperFunction*%
D20*
X177130029Y-115545083D02*
X177095614Y-115579497D01*
X177081472Y-115565355D01*
X177028439Y-115618388D01*
X176851662Y-115441611D01*
X176904695Y-115388578D01*
X176890553Y-115374436D01*
X176924968Y-115340022D01*
X177130029Y-115545083D01*
%TA.AperFunction,Conductor*%
D25*
G36*
X177130029Y-115545083D02*
G01*
X177095614Y-115579497D01*
X177081472Y-115565355D01*
X177028439Y-115618388D01*
X176851662Y-115441611D01*
X176904695Y-115388578D01*
X176890553Y-115374436D01*
X176924968Y-115340022D01*
X177130029Y-115545083D01*
G37*
%TD.AperFunction*%
%TD*%
M02*
