%TF.GenerationSoftware,KiCad,Pcbnew,(5.1.10)-1*%
%TF.CreationDate,2021-10-06T18:30:59-05:00*%
%TF.ProjectId,BYTE_Magnetic,42595445-5f4d-4616-976e-657469632e6b,rev?*%
%TF.SameCoordinates,Original*%
%TF.FileFunction,Soldermask,Top*%
%TF.FilePolarity,Negative*%
%FSLAX46Y46*%
G04 Gerber Fmt 4.6, Leading zero omitted, Abs format (unit mm)*
G04 Created by KiCad (PCBNEW (5.1.10)-1) date 2021-10-06 18:30:59*
%MOMM*%
%LPD*%
G01*
G04 APERTURE LIST*
%ADD10C,0.800000*%
%ADD11C,2.700000*%
%ADD12C,0.100000*%
%ADD13R,1.200000X2.700000*%
G04 APERTURE END LIST*
D10*
X188138426Y-121669178D02*
G75*
G03*
X188138426Y-121669178I-400000J0D01*
G01*
X176638426Y-121669178D02*
G75*
G03*
X176638426Y-121669178I-400000J0D01*
G01*
D11*
%TO.C,REF\u002A\u002A*%
X182011320Y-111671100D03*
D12*
G36*
X181999320Y-105323100D02*
G01*
X181949320Y-105466100D01*
X181864320Y-105593100D01*
X181751320Y-105694100D01*
X181615320Y-105763100D01*
X181467320Y-105796100D01*
X181066320Y-105847100D01*
X180669320Y-105926100D01*
X180279320Y-106031100D01*
X179897320Y-106163100D01*
X179787320Y-106224100D01*
X179700320Y-106313100D01*
X179641320Y-106424100D01*
X179615320Y-106546100D01*
X179625320Y-106671100D01*
X179670320Y-106788100D01*
X179746320Y-106888100D01*
X179847320Y-106962100D01*
X179965320Y-107004100D01*
X180090320Y-107012100D01*
X180212320Y-106984100D01*
X180599320Y-106854100D01*
X180996320Y-106755100D01*
X181399320Y-106688100D01*
X181807320Y-106655100D01*
X182215320Y-106655100D01*
X182623320Y-106688100D01*
X183026320Y-106755100D01*
X183423320Y-106854100D01*
X183810320Y-106984100D01*
X183893320Y-107035100D01*
X183955320Y-107110100D01*
X183986320Y-107202100D01*
X183985320Y-107299100D01*
X183950320Y-107390100D01*
X183886320Y-107464100D01*
X183801320Y-107511100D01*
X183705320Y-107526100D01*
X183609320Y-107508100D01*
X183222320Y-107379100D01*
X182824320Y-107286100D01*
X182419320Y-107230100D01*
X182011320Y-107211100D01*
X181603320Y-107230100D01*
X181198320Y-107286100D01*
X180800320Y-107379100D01*
X180413320Y-107508100D01*
X180303320Y-107569100D01*
X180216320Y-107658100D01*
X180157320Y-107769100D01*
X180131320Y-107891100D01*
X180141320Y-108016100D01*
X180186320Y-108133100D01*
X180262320Y-108232100D01*
X180363320Y-108307100D01*
X180481320Y-108349100D01*
X180606320Y-108357100D01*
X180728320Y-108329100D01*
X181085320Y-108213100D01*
X181451320Y-108135100D01*
X181824320Y-108096100D01*
X182198320Y-108096100D01*
X182571320Y-108135100D01*
X182937320Y-108213100D01*
X183294320Y-108329100D01*
X183377320Y-108379100D01*
X183438320Y-108455100D01*
X183470320Y-108547100D01*
X183468320Y-108644100D01*
X183434320Y-108735100D01*
X183370320Y-108809100D01*
X183285320Y-108856100D01*
X183189320Y-108871100D01*
X183093320Y-108852100D01*
X182792320Y-108755100D01*
X182483320Y-108689100D01*
X182169320Y-108656100D01*
X181853320Y-108656100D01*
X181539320Y-108689100D01*
X181230320Y-108755100D01*
X180929320Y-108852100D01*
X180820320Y-108913100D01*
X180732320Y-109003100D01*
X180673320Y-109113100D01*
X180648320Y-109236100D01*
X180658320Y-109361100D01*
X180703320Y-109478100D01*
X180779320Y-109577100D01*
X180880320Y-109651100D01*
X180997320Y-109694100D01*
X181122320Y-109702100D01*
X181244320Y-109674100D01*
X181373320Y-109641100D01*
X181506320Y-109639100D01*
X181635320Y-109669100D01*
X181754320Y-109727100D01*
X181856320Y-109812100D01*
X181935320Y-109918100D01*
X181988320Y-110040100D01*
X182010320Y-110171100D01*
X181767320Y-110191100D01*
X181531320Y-110250100D01*
X181307320Y-110346100D01*
X181102320Y-110478100D01*
X180921320Y-110641100D01*
X180768320Y-110831100D01*
X180649320Y-111043100D01*
X180565320Y-111272100D01*
X180520320Y-111512100D01*
X180368320Y-111532100D01*
X180224320Y-111584100D01*
X180094320Y-111666100D01*
X179984320Y-111772100D01*
X179899320Y-111900100D01*
X179843320Y-112043100D01*
X179818320Y-112194100D01*
X179825320Y-112347100D01*
X179865320Y-112495100D01*
X179883320Y-112590100D01*
X179868320Y-112687100D01*
X179821320Y-112772100D01*
X179747320Y-112835100D01*
X179657320Y-112870100D01*
X179559320Y-112872100D01*
X179467320Y-112840100D01*
X179392320Y-112779100D01*
X179342320Y-112696100D01*
X179249320Y-112411100D01*
X179187320Y-112118100D01*
X179156320Y-111821100D01*
X179156320Y-111521100D01*
X179187320Y-111224100D01*
X179249320Y-110931100D01*
X179342320Y-110646100D01*
X179369320Y-110524100D01*
X179362320Y-110399100D01*
X179319320Y-110281100D01*
X179245320Y-110180100D01*
X179145320Y-110104100D01*
X179028320Y-110060100D01*
X178904320Y-110049100D01*
X178781320Y-110075100D01*
X178670320Y-110134100D01*
X178581320Y-110222100D01*
X178520320Y-110331100D01*
X178412320Y-110656100D01*
X178334320Y-110990100D01*
X178287320Y-111329100D01*
X178272320Y-111671100D01*
X178287320Y-112013100D01*
X178334320Y-112352100D01*
X178412320Y-112686100D01*
X178520320Y-113011100D01*
X178539320Y-113107100D01*
X178523320Y-113203100D01*
X178476320Y-113288100D01*
X178403320Y-113352100D01*
X178312320Y-113387100D01*
X178215320Y-113388100D01*
X178123320Y-113357100D01*
X178047320Y-113295100D01*
X177997320Y-113212100D01*
X177873320Y-112838100D01*
X177783320Y-112455100D01*
X177729320Y-112064100D01*
X177711320Y-111671100D01*
X177729320Y-111278100D01*
X177783320Y-110887100D01*
X177873320Y-110504100D01*
X177997320Y-110130100D01*
X178025320Y-110008100D01*
X178017320Y-109883100D01*
X177974320Y-109765100D01*
X177900320Y-109664100D01*
X177801320Y-109588100D01*
X177684320Y-109543100D01*
X177559320Y-109533100D01*
X177436320Y-109559100D01*
X177326320Y-109618100D01*
X177236320Y-109705100D01*
X177175320Y-109815100D01*
X177040320Y-110214100D01*
X176938320Y-110624100D01*
X176870320Y-111040100D01*
X176835320Y-111460100D01*
X176835320Y-111882100D01*
X176870320Y-112302100D01*
X176938320Y-112718100D01*
X177040320Y-113128100D01*
X177175320Y-113527100D01*
X177194320Y-113623100D01*
X177179320Y-113719100D01*
X177131320Y-113804100D01*
X177058320Y-113868100D01*
X176967320Y-113903100D01*
X176870320Y-113904100D01*
X176778320Y-113873100D01*
X176702320Y-113812100D01*
X176652320Y-113728100D01*
X176524320Y-113356100D01*
X176421320Y-112976100D01*
X176345320Y-112591100D01*
X176295320Y-112200100D01*
X176263320Y-112040100D01*
X176196320Y-111890100D01*
X176100320Y-111758100D01*
X175977320Y-111649100D01*
X175833320Y-111570100D01*
X175676320Y-111523100D01*
X175513320Y-111511100D01*
X175544320Y-111016100D01*
X175613320Y-110525100D01*
X175719320Y-110041100D01*
X175861320Y-109566100D01*
X176039320Y-109104100D01*
X176253320Y-108656100D01*
X176499320Y-108226100D01*
X176778320Y-107816100D01*
X177087320Y-107428100D01*
X177106320Y-107383100D01*
X177094320Y-107335100D01*
X177057320Y-107302100D01*
X177008320Y-107298100D01*
X176965320Y-107324100D01*
X176652320Y-107717100D01*
X176369320Y-108132100D01*
X176119320Y-108567100D01*
X175901320Y-109020100D01*
X175719320Y-109488100D01*
X175572320Y-109968100D01*
X175462320Y-110459100D01*
X175390320Y-110956100D01*
X175354320Y-111457100D01*
X175357320Y-111959100D01*
X175398320Y-112460100D01*
X175476320Y-112956100D01*
X175592320Y-113445100D01*
X175743320Y-113924100D01*
X175931320Y-114390100D01*
X176153320Y-114840100D01*
X176409320Y-115273100D01*
X176696320Y-115685100D01*
X177014320Y-116074100D01*
X177360320Y-116438100D01*
X177732320Y-116775100D01*
X178129320Y-117083100D01*
X178548320Y-117360100D01*
X178987320Y-117605100D01*
X179443320Y-117816100D01*
X179913320Y-117992100D01*
X180396320Y-118132100D01*
X180887320Y-118235100D01*
X180950320Y-118258100D01*
X181002320Y-118299100D01*
X181038320Y-118356100D01*
X181061320Y-118461100D01*
X181045320Y-118567100D01*
X180994320Y-118661100D01*
X180912320Y-118730100D01*
X180811320Y-118767100D01*
X180704320Y-118766100D01*
X180604320Y-118727100D01*
X180524320Y-118655100D01*
X180475320Y-118560100D01*
X180444320Y-118500100D01*
X180394320Y-118453100D01*
X180332320Y-118425100D01*
X179827320Y-118280100D01*
X179335320Y-118096100D01*
X178858320Y-117876100D01*
X178399320Y-117620100D01*
X177961320Y-117331100D01*
X177545320Y-117009100D01*
X177155320Y-116657100D01*
X176793320Y-116277100D01*
X176461320Y-115870100D01*
X176160320Y-115440100D01*
X175892320Y-114988100D01*
X175659320Y-114517100D01*
X175463320Y-114030100D01*
X175304320Y-113529100D01*
X175183320Y-113018100D01*
X175100320Y-112499100D01*
X175058320Y-111975100D01*
X175055320Y-111450100D01*
X175091320Y-110926100D01*
X175167320Y-110406100D01*
X175282320Y-109894100D01*
X175435320Y-109391100D01*
X175626320Y-108902100D01*
X175853320Y-108428100D01*
X176115320Y-107973100D01*
X176411320Y-107539100D01*
X176738320Y-107128100D01*
X176847320Y-107030100D01*
X176976320Y-106960100D01*
X177117320Y-106924100D01*
X177264320Y-106924100D01*
X177389320Y-106926100D01*
X177512320Y-106901100D01*
X177628320Y-106852100D01*
X177730320Y-106780100D01*
X178093320Y-106485100D01*
X178475320Y-106217100D01*
X178876320Y-105977100D01*
X179293320Y-105766100D01*
X179724320Y-105586100D01*
X180167320Y-105438100D01*
X180620320Y-105322100D01*
X181080320Y-105238100D01*
X181544320Y-105188100D01*
X182011320Y-105171100D01*
X181999320Y-105323100D01*
G37*
G36*
X182671320Y-105205100D02*
G01*
X183168320Y-105275100D01*
X183657320Y-105383100D01*
X184137320Y-105528100D01*
X184604320Y-105711100D01*
X185056320Y-105928100D01*
X185489320Y-106180100D01*
X185902320Y-106464100D01*
X186292320Y-106780100D01*
X186394320Y-106852100D01*
X186510320Y-106901100D01*
X186633320Y-106926100D01*
X186758320Y-106924100D01*
X186905320Y-106924100D01*
X187046320Y-106960100D01*
X187175320Y-107030100D01*
X187284320Y-107128100D01*
X187604320Y-107528100D01*
X187893320Y-107951100D01*
X188151320Y-108394100D01*
X188376320Y-108854100D01*
X188566320Y-109330100D01*
X188720320Y-109819100D01*
X188838320Y-110317100D01*
X188919320Y-110823100D01*
X188963320Y-111334100D01*
X188969320Y-111846100D01*
X188937320Y-112358100D01*
X188868320Y-112865100D01*
X188761320Y-113367100D01*
X188618320Y-113859100D01*
X188439320Y-114339100D01*
X188226320Y-114804100D01*
X187978320Y-115253100D01*
X187699320Y-115683100D01*
X187388320Y-116090100D01*
X187048320Y-116474100D01*
X186681320Y-116831100D01*
X186289320Y-117161100D01*
X185874320Y-117461100D01*
X185437320Y-117729100D01*
X184982320Y-117965100D01*
X184511320Y-118166100D01*
X184027320Y-118333100D01*
X183531320Y-118463100D01*
X183471320Y-118487100D01*
X183422320Y-118528100D01*
X183389320Y-118583100D01*
X183331320Y-118674100D01*
X183245320Y-118739100D01*
X183142320Y-118769100D01*
X183034320Y-118761100D01*
X182937320Y-118715100D01*
X182861320Y-118638100D01*
X182819320Y-118539100D01*
X182814320Y-118431100D01*
X182843320Y-118351100D01*
X182903320Y-118290100D01*
X182983320Y-118260100D01*
X183482320Y-118167100D01*
X183973320Y-118036100D01*
X184452320Y-117868100D01*
X184917320Y-117664100D01*
X185365320Y-117425100D01*
X185794320Y-117152100D01*
X186200320Y-116848100D01*
X186583320Y-116514100D01*
X186938320Y-116152100D01*
X187266320Y-115763100D01*
X187562320Y-115351100D01*
X187826320Y-114917100D01*
X188057320Y-114465100D01*
X188252320Y-113996100D01*
X188411320Y-113514100D01*
X188533320Y-113021100D01*
X188617320Y-112520100D01*
X188662320Y-112014100D01*
X188669320Y-111506100D01*
X188637320Y-110999100D01*
X188567320Y-110496100D01*
X188458320Y-110000100D01*
X188312320Y-109514100D01*
X188129320Y-109040100D01*
X187911320Y-108582100D01*
X187659320Y-108141100D01*
X187373320Y-107721100D01*
X187057320Y-107324100D01*
X187014320Y-107298100D01*
X186965320Y-107302100D01*
X186928320Y-107335100D01*
X186916320Y-107383100D01*
X186935320Y-107428100D01*
X187224320Y-107789100D01*
X187487320Y-108169100D01*
X187722320Y-108567100D01*
X187928320Y-108981100D01*
X188104320Y-109408100D01*
X188250320Y-109847100D01*
X188364320Y-110295100D01*
X188445320Y-110750100D01*
X188495320Y-111209100D01*
X188511320Y-111671100D01*
X188359320Y-111659100D01*
X188216320Y-111609100D01*
X188089320Y-111524100D01*
X187988320Y-111411100D01*
X187919320Y-111275100D01*
X187886320Y-111127100D01*
X187835320Y-110726100D01*
X187756320Y-110329100D01*
X187651320Y-109939100D01*
X187519320Y-109557100D01*
X187458320Y-109447100D01*
X187369320Y-109360100D01*
X187258320Y-109301100D01*
X187136320Y-109275100D01*
X187011320Y-109285100D01*
X186894320Y-109330100D01*
X186794320Y-109406100D01*
X186720320Y-109507100D01*
X186678320Y-109625100D01*
X186670320Y-109750100D01*
X186698320Y-109872100D01*
X186828320Y-110259100D01*
X186927320Y-110656100D01*
X186994320Y-111059100D01*
X187027320Y-111467100D01*
X187027320Y-111875100D01*
X186994320Y-112283100D01*
X186927320Y-112686100D01*
X186828320Y-113083100D01*
X186698320Y-113470100D01*
X186647320Y-113553100D01*
X186572320Y-113615100D01*
X186480320Y-113646100D01*
X186383320Y-113645100D01*
X186292320Y-113610100D01*
X186218320Y-113546100D01*
X186171320Y-113461100D01*
X186156320Y-113365100D01*
X186174320Y-113269100D01*
X186303320Y-112882100D01*
X186396320Y-112484100D01*
X186452320Y-112079100D01*
X186471320Y-111671100D01*
X186452320Y-111263100D01*
X186396320Y-110858100D01*
X186303320Y-110460100D01*
X186174320Y-110073100D01*
X186113320Y-109963100D01*
X186024320Y-109876100D01*
X185913320Y-109817100D01*
X185791320Y-109791100D01*
X185666320Y-109801100D01*
X185549320Y-109846100D01*
X185450320Y-109922100D01*
X185375320Y-110023100D01*
X185333320Y-110141100D01*
X185325320Y-110266100D01*
X185353320Y-110388100D01*
X185469320Y-110745100D01*
X185547320Y-111111100D01*
X185586320Y-111484100D01*
X185586320Y-111858100D01*
X185547320Y-112231100D01*
X185469320Y-112597100D01*
X185353320Y-112954100D01*
X185303320Y-113037100D01*
X185227320Y-113098100D01*
X185135320Y-113130100D01*
X185038320Y-113128100D01*
X184947320Y-113094100D01*
X184873320Y-113030100D01*
X184826320Y-112945100D01*
X184811320Y-112849100D01*
X184830320Y-112753100D01*
X184927320Y-112452100D01*
X184993320Y-112143100D01*
X185026320Y-111829100D01*
X185026320Y-111513100D01*
X184993320Y-111199100D01*
X184927320Y-110890100D01*
X184830320Y-110589100D01*
X184769320Y-110480100D01*
X184679320Y-110392100D01*
X184569320Y-110333100D01*
X184446320Y-110308100D01*
X184321320Y-110318100D01*
X184204320Y-110363100D01*
X184105320Y-110439100D01*
X184031320Y-110540100D01*
X183988320Y-110657100D01*
X183980320Y-110782100D01*
X184008320Y-110904100D01*
X184041320Y-111033100D01*
X184043320Y-111166100D01*
X184013320Y-111295100D01*
X183955320Y-111414100D01*
X183870320Y-111516100D01*
X183764320Y-111595100D01*
X183642320Y-111648100D01*
X183511320Y-111670100D01*
X183491320Y-111427100D01*
X183432320Y-111191100D01*
X183336320Y-110967100D01*
X183204320Y-110762100D01*
X183041320Y-110581100D01*
X182851320Y-110428100D01*
X182639320Y-110309100D01*
X182410320Y-110225100D01*
X182170320Y-110180100D01*
X182150320Y-110028100D01*
X182098320Y-109884100D01*
X182016320Y-109754100D01*
X181910320Y-109644100D01*
X181782320Y-109559100D01*
X181639320Y-109503100D01*
X181488320Y-109478100D01*
X181335320Y-109485100D01*
X181187320Y-109525100D01*
X181092320Y-109543100D01*
X180995320Y-109528100D01*
X180910320Y-109481100D01*
X180847320Y-109407100D01*
X180812320Y-109317100D01*
X180810320Y-109219100D01*
X180842320Y-109127100D01*
X180903320Y-109052100D01*
X180986320Y-109002100D01*
X181271320Y-108909100D01*
X181564320Y-108847100D01*
X181861320Y-108816100D01*
X182161320Y-108816100D01*
X182458320Y-108847100D01*
X182751320Y-108909100D01*
X183036320Y-109002100D01*
X183158320Y-109029100D01*
X183283320Y-109022100D01*
X183401320Y-108979100D01*
X183502320Y-108905100D01*
X183578320Y-108805100D01*
X183622320Y-108688100D01*
X183633320Y-108564100D01*
X183607320Y-108441100D01*
X183548320Y-108330100D01*
X183460320Y-108241100D01*
X183351320Y-108180100D01*
X183026320Y-108072100D01*
X182692320Y-107994100D01*
X182353320Y-107947100D01*
X182011320Y-107932100D01*
X181669320Y-107947100D01*
X181330320Y-107994100D01*
X180996320Y-108072100D01*
X180671320Y-108180100D01*
X180575320Y-108199100D01*
X180479320Y-108183100D01*
X180394320Y-108136100D01*
X180330320Y-108063100D01*
X180295320Y-107972100D01*
X180294320Y-107875100D01*
X180325320Y-107783100D01*
X180387320Y-107707100D01*
X180470320Y-107657100D01*
X180844320Y-107533100D01*
X181227320Y-107443100D01*
X181618320Y-107389100D01*
X182011320Y-107371100D01*
X182404320Y-107389100D01*
X182795320Y-107443100D01*
X183178320Y-107533100D01*
X183552320Y-107657100D01*
X183674320Y-107685100D01*
X183799320Y-107677100D01*
X183917320Y-107634100D01*
X184018320Y-107560100D01*
X184094320Y-107461100D01*
X184139320Y-107344100D01*
X184149320Y-107219100D01*
X184123320Y-107096100D01*
X184064320Y-106986100D01*
X183977320Y-106896100D01*
X183867320Y-106835100D01*
X183468320Y-106700100D01*
X183058320Y-106598100D01*
X182642320Y-106530100D01*
X182222320Y-106495100D01*
X181800320Y-106495100D01*
X181380320Y-106530100D01*
X180964320Y-106598100D01*
X180554320Y-106700100D01*
X180155320Y-106835100D01*
X180059320Y-106854100D01*
X179963320Y-106839100D01*
X179878320Y-106791100D01*
X179814320Y-106718100D01*
X179779320Y-106627100D01*
X179778320Y-106530100D01*
X179809320Y-106438100D01*
X179870320Y-106362100D01*
X179954320Y-106312100D01*
X180326320Y-106184100D01*
X180706320Y-106081100D01*
X181091320Y-106005100D01*
X181482320Y-105955100D01*
X181642320Y-105923100D01*
X181792320Y-105856100D01*
X181924320Y-105760100D01*
X182033320Y-105637100D01*
X182112320Y-105493100D01*
X182159320Y-105336100D01*
X182171320Y-105173100D01*
X182671320Y-105205100D01*
G37*
G36*
X177640320Y-109697100D02*
G01*
X177731320Y-109732100D01*
X177804320Y-109796100D01*
X177851320Y-109881100D01*
X177867320Y-109977100D01*
X177848320Y-110073100D01*
X177719320Y-110460100D01*
X177627320Y-110858100D01*
X177571320Y-111263100D01*
X177552320Y-111671100D01*
X177571320Y-112079100D01*
X177627320Y-112484100D01*
X177719320Y-112882100D01*
X177848320Y-113269100D01*
X177909320Y-113379100D01*
X177999320Y-113466100D01*
X178109320Y-113525100D01*
X178232320Y-113551100D01*
X178356320Y-113541100D01*
X178473320Y-113496100D01*
X178573320Y-113420100D01*
X178647320Y-113319100D01*
X178690320Y-113201100D01*
X178697320Y-113076100D01*
X178670320Y-112954100D01*
X178554320Y-112597100D01*
X178476320Y-112231100D01*
X178437320Y-111858100D01*
X178437320Y-111484100D01*
X178476320Y-111111100D01*
X178554320Y-110745100D01*
X178670320Y-110388100D01*
X178720320Y-110305100D01*
X178795320Y-110244100D01*
X178887320Y-110212100D01*
X178985320Y-110214100D01*
X179076320Y-110248100D01*
X179149320Y-110312100D01*
X179196320Y-110397100D01*
X179211320Y-110493100D01*
X179193320Y-110589100D01*
X179095320Y-110890100D01*
X179029320Y-111199100D01*
X178996320Y-111513100D01*
X178996320Y-111829100D01*
X179029320Y-112143100D01*
X179095320Y-112452100D01*
X179193320Y-112753100D01*
X179254320Y-112862100D01*
X179343320Y-112950100D01*
X179454320Y-113009100D01*
X179576320Y-113034100D01*
X179701320Y-113024100D01*
X179818320Y-112979100D01*
X179918320Y-112903100D01*
X179992320Y-112802100D01*
X180034320Y-112685100D01*
X180042320Y-112560100D01*
X180014320Y-112438100D01*
X179982320Y-112309100D01*
X179980320Y-112176100D01*
X180009320Y-112047100D01*
X180068320Y-111928100D01*
X180153320Y-111826100D01*
X180259320Y-111747100D01*
X180381320Y-111694100D01*
X180511320Y-111672100D01*
X180531320Y-111915100D01*
X180590320Y-112151100D01*
X180687320Y-112375100D01*
X180818320Y-112580100D01*
X180981320Y-112761100D01*
X181171320Y-112914100D01*
X181384320Y-113033100D01*
X181613320Y-113117100D01*
X181852320Y-113162100D01*
X181873320Y-113314100D01*
X181925320Y-113458100D01*
X182006320Y-113588100D01*
X182113320Y-113698100D01*
X182240320Y-113783100D01*
X182383320Y-113839100D01*
X182534320Y-113864100D01*
X182687320Y-113857100D01*
X182835320Y-113817100D01*
X182931320Y-113799100D01*
X183027320Y-113814100D01*
X183112320Y-113861100D01*
X183176320Y-113935100D01*
X183211320Y-114025100D01*
X183212320Y-114123100D01*
X183181320Y-114215100D01*
X183120320Y-114290100D01*
X183036320Y-114340100D01*
X182751320Y-114433100D01*
X182459320Y-114495100D01*
X182161320Y-114526100D01*
X181862320Y-114526100D01*
X181564320Y-114495100D01*
X181271320Y-114433100D01*
X180987320Y-114340100D01*
X180865320Y-114313100D01*
X180740320Y-114320100D01*
X180622320Y-114363100D01*
X180521320Y-114437100D01*
X180445320Y-114537100D01*
X180400320Y-114654100D01*
X180390320Y-114778100D01*
X180415320Y-114901100D01*
X180474320Y-115012100D01*
X180562320Y-115101100D01*
X180671320Y-115162100D01*
X180996320Y-115270100D01*
X181330320Y-115348100D01*
X181669320Y-115395100D01*
X182011320Y-115410100D01*
X182354320Y-115395100D01*
X182693320Y-115348100D01*
X183026320Y-115270100D01*
X183352320Y-115162100D01*
X183447320Y-115143100D01*
X183543320Y-115159100D01*
X183628320Y-115206100D01*
X183692320Y-115279100D01*
X183727320Y-115370100D01*
X183729320Y-115467100D01*
X183697320Y-115559100D01*
X183636320Y-115635100D01*
X183552320Y-115685100D01*
X183179320Y-115809100D01*
X182795320Y-115899100D01*
X182405320Y-115953100D01*
X182011320Y-115971100D01*
X181618320Y-115953100D01*
X181228320Y-115899100D01*
X180844320Y-115809100D01*
X180471320Y-115685100D01*
X180348320Y-115657100D01*
X180223320Y-115665100D01*
X180106320Y-115708100D01*
X180005320Y-115782100D01*
X179929320Y-115881100D01*
X179884320Y-115998100D01*
X179874320Y-116123100D01*
X179899320Y-116246100D01*
X179958320Y-116356100D01*
X180046320Y-116446100D01*
X180155320Y-116507100D01*
X180555320Y-116642100D01*
X180964320Y-116744100D01*
X181380320Y-116812100D01*
X181801320Y-116847100D01*
X182222320Y-116847100D01*
X182643320Y-116812100D01*
X183059320Y-116744100D01*
X183468320Y-116642100D01*
X183868320Y-116507100D01*
X183963320Y-116488100D01*
X184059320Y-116503100D01*
X184144320Y-116551100D01*
X184208320Y-116624100D01*
X184243320Y-116715100D01*
X184245320Y-116812100D01*
X184213320Y-116904100D01*
X184152320Y-116980100D01*
X184069320Y-117030100D01*
X183697320Y-117158100D01*
X183317320Y-117261100D01*
X182931320Y-117337100D01*
X182541320Y-117387100D01*
X182384320Y-117418100D01*
X182237320Y-117482100D01*
X182106320Y-117575100D01*
X181998320Y-117693100D01*
X181918320Y-117832100D01*
X181868320Y-117984100D01*
X181851320Y-118143100D01*
X181851320Y-118471100D01*
X181831320Y-118578100D01*
X181775320Y-118671100D01*
X181689320Y-118737100D01*
X181585320Y-118769100D01*
X181476320Y-118762100D01*
X181378320Y-118716100D01*
X181302320Y-118638100D01*
X181259320Y-118538100D01*
X181254320Y-118430100D01*
X181252320Y-118337100D01*
X181222320Y-118249100D01*
X181167320Y-118175100D01*
X181092320Y-118121100D01*
X181003320Y-118092100D01*
X180528320Y-118000100D01*
X180061320Y-117872100D01*
X179605320Y-117709100D01*
X179163320Y-117514100D01*
X178736320Y-117285100D01*
X178327320Y-117026100D01*
X177939320Y-116737100D01*
X177573320Y-116420100D01*
X177232320Y-116077100D01*
X176918320Y-115709100D01*
X176631320Y-115319100D01*
X176375320Y-114908100D01*
X176150320Y-114480100D01*
X175957320Y-114036100D01*
X175798320Y-113579100D01*
X175673320Y-113111100D01*
X175583320Y-112636100D01*
X175529320Y-112155100D01*
X175511320Y-111671100D01*
X175663320Y-111683100D01*
X175807320Y-111733100D01*
X175933320Y-111818100D01*
X176034320Y-111931100D01*
X176103320Y-112067100D01*
X176137320Y-112215100D01*
X176188320Y-112616100D01*
X176266320Y-113013100D01*
X176371320Y-113403100D01*
X176503320Y-113785100D01*
X176564320Y-113895100D01*
X176654320Y-113982100D01*
X176764320Y-114041100D01*
X176887320Y-114067100D01*
X177012320Y-114057100D01*
X177129320Y-114012100D01*
X177228320Y-113936100D01*
X177302320Y-113835100D01*
X177345320Y-113717100D01*
X177353320Y-113592100D01*
X177325320Y-113470100D01*
X177194320Y-113083100D01*
X177095320Y-112686100D01*
X177029320Y-112283100D01*
X176996320Y-111875100D01*
X176996320Y-111467100D01*
X177029320Y-111059100D01*
X177095320Y-110656100D01*
X177194320Y-110259100D01*
X177325320Y-109872100D01*
X177375320Y-109789100D01*
X177451320Y-109727100D01*
X177543320Y-109696100D01*
X177640320Y-109697100D01*
G37*
G36*
X187244320Y-109469100D02*
G01*
X187320320Y-109530100D01*
X187370320Y-109614100D01*
X187498320Y-109986100D01*
X187601320Y-110366100D01*
X187677320Y-110751100D01*
X187727320Y-111142100D01*
X187759320Y-111302100D01*
X187826320Y-111452100D01*
X187922320Y-111584100D01*
X188045320Y-111693100D01*
X188189320Y-111772100D01*
X188346320Y-111819100D01*
X188509320Y-111831100D01*
X188479320Y-112314100D01*
X188414320Y-112793100D01*
X188312320Y-113266100D01*
X188176320Y-113730100D01*
X188006320Y-114182100D01*
X187803320Y-114621100D01*
X187568320Y-115044100D01*
X187302320Y-115447100D01*
X187006320Y-115830100D01*
X186683320Y-116190100D01*
X186334320Y-116525100D01*
X185961320Y-116833100D01*
X185567320Y-117112100D01*
X185152320Y-117362100D01*
X184720320Y-117579100D01*
X184274320Y-117764100D01*
X183814320Y-117916100D01*
X183345320Y-118033100D01*
X182868320Y-118114100D01*
X182780320Y-118140100D01*
X182704320Y-118192100D01*
X182647320Y-118264100D01*
X182615320Y-118350100D01*
X182610320Y-118441100D01*
X182601320Y-118548100D01*
X182555320Y-118646100D01*
X182478320Y-118720100D01*
X182379320Y-118763100D01*
X182272320Y-118768100D01*
X182170320Y-118736100D01*
X182085320Y-118669100D01*
X182030320Y-118577100D01*
X182011320Y-118471100D01*
X182011320Y-118171100D01*
X182023320Y-118019100D01*
X182073320Y-117876100D01*
X182158320Y-117749100D01*
X182271320Y-117648100D01*
X182407320Y-117579100D01*
X182555320Y-117546100D01*
X182956320Y-117495100D01*
X183353320Y-117416100D01*
X183743320Y-117311100D01*
X184125320Y-117179100D01*
X184235320Y-117118100D01*
X184322320Y-117029100D01*
X184381320Y-116918100D01*
X184407320Y-116796100D01*
X184397320Y-116671100D01*
X184352320Y-116554100D01*
X184276320Y-116454100D01*
X184175320Y-116380100D01*
X184057320Y-116338100D01*
X183932320Y-116330100D01*
X183810320Y-116358100D01*
X183423320Y-116488100D01*
X183026320Y-116587100D01*
X182623320Y-116654100D01*
X182215320Y-116687100D01*
X181807320Y-116687100D01*
X181399320Y-116654100D01*
X180996320Y-116587100D01*
X180599320Y-116488100D01*
X180212320Y-116358100D01*
X180129320Y-116307100D01*
X180067320Y-116232100D01*
X180036320Y-116140100D01*
X180037320Y-116043100D01*
X180072320Y-115952100D01*
X180136320Y-115878100D01*
X180221320Y-115831100D01*
X180317320Y-115816100D01*
X180413320Y-115834100D01*
X180800320Y-115963100D01*
X181198320Y-116056100D01*
X181603320Y-116112100D01*
X182011320Y-116131100D01*
X182419320Y-116112100D01*
X182824320Y-116056100D01*
X183222320Y-115963100D01*
X183609320Y-115834100D01*
X183719320Y-115773100D01*
X183806320Y-115684100D01*
X183865320Y-115573100D01*
X183891320Y-115451100D01*
X183881320Y-115326100D01*
X183836320Y-115209100D01*
X183760320Y-115110100D01*
X183659320Y-115035100D01*
X183541320Y-114993100D01*
X183416320Y-114985100D01*
X183294320Y-115013100D01*
X182937320Y-115129100D01*
X182571320Y-115207100D01*
X182198320Y-115246100D01*
X181824320Y-115246100D01*
X181451320Y-115207100D01*
X181085320Y-115129100D01*
X180728320Y-115013100D01*
X180645320Y-114963100D01*
X180584320Y-114887100D01*
X180552320Y-114795100D01*
X180554320Y-114698100D01*
X180588320Y-114607100D01*
X180652320Y-114533100D01*
X180737320Y-114486100D01*
X180833320Y-114471100D01*
X180929320Y-114490100D01*
X181230320Y-114587100D01*
X181539320Y-114653100D01*
X181853320Y-114686100D01*
X182169320Y-114686100D01*
X182483320Y-114653100D01*
X182792320Y-114587100D01*
X183093320Y-114490100D01*
X183202320Y-114429100D01*
X183290320Y-114339100D01*
X183349320Y-114229100D01*
X183374320Y-114106100D01*
X183364320Y-113981100D01*
X183319320Y-113864100D01*
X183243320Y-113765100D01*
X183142320Y-113691100D01*
X183025320Y-113648100D01*
X182900320Y-113640100D01*
X182778320Y-113668100D01*
X182649320Y-113701100D01*
X182516320Y-113703100D01*
X182387320Y-113673100D01*
X182268320Y-113615100D01*
X182166320Y-113530100D01*
X182087320Y-113424100D01*
X182034320Y-113302100D01*
X182012320Y-113171100D01*
X182255320Y-113151100D01*
X182491320Y-113092100D01*
X182715320Y-112996100D01*
X182920320Y-112864100D01*
X183101320Y-112701100D01*
X183254320Y-112511100D01*
X183373320Y-112299100D01*
X183457320Y-112070100D01*
X183502320Y-111830100D01*
X183654320Y-111810100D01*
X183798320Y-111758100D01*
X183928320Y-111676100D01*
X184038320Y-111570100D01*
X184123320Y-111442100D01*
X184179320Y-111299100D01*
X184204320Y-111148100D01*
X184197320Y-110995100D01*
X184157320Y-110847100D01*
X184139320Y-110752100D01*
X184154320Y-110655100D01*
X184201320Y-110570100D01*
X184275320Y-110507100D01*
X184365320Y-110472100D01*
X184463320Y-110470100D01*
X184555320Y-110502100D01*
X184630320Y-110563100D01*
X184680320Y-110646100D01*
X184773320Y-110931100D01*
X184835320Y-111224100D01*
X184866320Y-111521100D01*
X184866320Y-111821100D01*
X184835320Y-112118100D01*
X184773320Y-112411100D01*
X184680320Y-112696100D01*
X184653320Y-112818100D01*
X184660320Y-112943100D01*
X184703320Y-113061100D01*
X184777320Y-113162100D01*
X184877320Y-113238100D01*
X184994320Y-113282100D01*
X185118320Y-113293100D01*
X185241320Y-113267100D01*
X185352320Y-113208100D01*
X185441320Y-113120100D01*
X185502320Y-113011100D01*
X185610320Y-112686100D01*
X185688320Y-112352100D01*
X185735320Y-112013100D01*
X185750320Y-111671100D01*
X185735320Y-111329100D01*
X185688320Y-110990100D01*
X185610320Y-110656100D01*
X185502320Y-110331100D01*
X185483320Y-110235100D01*
X185499320Y-110139100D01*
X185546320Y-110054100D01*
X185619320Y-109990100D01*
X185710320Y-109955100D01*
X185807320Y-109954100D01*
X185899320Y-109985100D01*
X185975320Y-110047100D01*
X186025320Y-110130100D01*
X186149320Y-110504100D01*
X186239320Y-110887100D01*
X186293320Y-111278100D01*
X186311320Y-111671100D01*
X186293320Y-112064100D01*
X186239320Y-112455100D01*
X186149320Y-112838100D01*
X186025320Y-113212100D01*
X185997320Y-113334100D01*
X186005320Y-113459100D01*
X186048320Y-113577100D01*
X186122320Y-113678100D01*
X186221320Y-113754100D01*
X186338320Y-113799100D01*
X186463320Y-113809100D01*
X186586320Y-113783100D01*
X186696320Y-113724100D01*
X186786320Y-113637100D01*
X186847320Y-113527100D01*
X186982320Y-113128100D01*
X187084320Y-112718100D01*
X187152320Y-112302100D01*
X187187320Y-111882100D01*
X187187320Y-111460100D01*
X187152320Y-111040100D01*
X187084320Y-110624100D01*
X186982320Y-110214100D01*
X186847320Y-109815100D01*
X186828320Y-109719100D01*
X186843320Y-109623100D01*
X186891320Y-109538100D01*
X186964320Y-109474100D01*
X187055320Y-109439100D01*
X187152320Y-109438100D01*
X187244320Y-109469100D01*
G37*
%TD*%
D13*
%TO.C,J1*%
X185950000Y-121940000D03*
X183950000Y-121940000D03*
X181950000Y-121940000D03*
X179950000Y-121940000D03*
X177950000Y-121940000D03*
%TD*%
M02*
