M48
; DRILL file {KiCad (5.1.10)-1} date 10/05/21 13:13:16
; FORMAT={-:-/ absolute / inch / decimal}
; #@! TF.CreationDate,2021-10-05T13:13:16-05:00
; #@! TF.GenerationSoftware,Kicad,Pcbnew,(5.1.10)-1
; #@! TF.FileFunction,Plated,1,2,PTH
FMAT,2
INCH
T1C0.0118
T2C0.0157
T3C0.0197
T4C0.0236
T5C0.0256
T6C0.0299
T7C0.0354
T8C0.0394
%
G90
G05
T1
X4.614Y-4.032
X4.6413Y-4.1107
X4.6413Y-4.3217
X4.6424Y-4.3836
X4.644Y-4.2682
X4.7476Y-4.0154
X4.7704Y-4.13
X4.7704Y-4.1666
X4.7806Y-4.2674
X4.781Y-4.2005
X4.7826Y-4.0906
X4.7946Y-3.8707
X4.9113Y-4.4099
X4.9373Y-4.4489
X5.2972Y-3.84
X5.3306Y-4.4591
X5.3334Y-4.2143
X5.3606Y-4.1005
X5.4621Y-4.1391
X6.2913Y-3.4531
T2
X4.62Y-3.9654
X4.6992Y-3.4906
X4.6992Y-3.6181
X4.7495Y-3.83
X4.77Y-4.3591
X4.7787Y-3.9422
X4.7921Y-4.4237
X4.8031Y-2.571
X4.8062Y-2.5225
X4.8172Y-2.9249
X4.8176Y-2.9615
X4.8216Y-2.571
X4.8247Y-2.5225
X4.8354Y-3.9528
X4.8358Y-2.9249
X4.8361Y-2.9615
X4.8421Y-2.571
X4.8452Y-2.5225
X4.8562Y-2.9249
X4.8566Y-2.9615
X4.8594Y-2.571
X4.8625Y-2.5225
X4.8735Y-2.9249
X4.8739Y-2.9615
X4.8759Y-2.571
X4.8791Y-2.5225
X4.8901Y-2.9249
X4.8928Y-2.5713
X4.896Y-2.5229
X4.8995Y-2.9619
X4.907Y-2.9253
X4.9142Y-3.1161
X4.9594Y-3.7261
X4.9594Y-3.793
X4.983Y-3.7261
X4.983Y-3.793
X5.0035Y-3.2232
X5.0066Y-3.7261
X5.0066Y-3.793
X5.0263Y-3.7261
X5.0263Y-3.793
X5.148Y-3.152
X5.3428Y-2.5229
X5.346Y-2.5647
X5.3523Y-2.9221
X5.3527Y-2.9607
X5.3613Y-2.5229
X5.362Y-3.6923
X5.3645Y-2.5647
X5.3708Y-2.9221
X5.3712Y-2.9607
X5.3818Y-2.5229
X5.385Y-2.5647
X5.3889Y-4.1351
X5.3913Y-2.9221
X5.3917Y-2.9607
X5.3991Y-2.5229
X5.4023Y-2.5647
X5.4086Y-2.9221
X5.409Y-2.9607
X5.4157Y-2.5229
X5.4188Y-2.5647
X5.4251Y-2.9221
X5.4255Y-2.9607
X5.4268Y-3.6079
X5.4326Y-2.5233
X5.4358Y-2.565
X5.4681Y-3.6709
X5.4691Y-3.6079
X5.4795Y-3.1047
X5.4799Y-3.4161
X5.4991Y-4.121
X5.4991Y-4.1375
X5.4991Y-4.1548
X5.4991Y-4.1753
X5.4991Y-4.1938
X5.4995Y-4.104
X5.5102Y-3.6083
X5.5303Y-3.2142
X5.5444Y-4.1198
X5.5444Y-4.1363
X5.5444Y-4.1536
X5.5444Y-4.1741
X5.5444Y-4.1926
X5.5448Y-4.1028
X5.5839Y-3.1059
X5.5921Y-3.2839
X5.598Y-3.1437
X5.6138Y-3.5419
X5.621Y-3.6299
X5.6251Y-3.7237
X5.6283Y-3.8099
X5.6421Y-3.7241
X5.6452Y-3.8103
X5.6586Y-3.7241
X5.6617Y-3.8103
X5.6759Y-3.7241
X5.6791Y-3.8103
X5.6964Y-3.7241
X5.6995Y-3.8103
X5.7149Y-3.7241
X5.718Y-3.8103
X5.7238Y-3.0697
X5.8165Y-4.1182
X5.8165Y-4.1347
X5.8165Y-4.1521
X5.8165Y-4.1725
X5.8165Y-4.191
X5.8169Y-4.1013
X5.8539Y-4.1186
X5.8539Y-4.1351
X5.8539Y-4.1524
X5.8539Y-4.1729
X5.8539Y-4.1914
X5.8543Y-4.1017
X5.8772Y-3.1031
X5.8775Y-2.5249
X5.8795Y-2.5635
X5.885Y-2.9182
X5.885Y-2.9599
X5.896Y-2.5249
X5.898Y-2.5635
X5.9035Y-2.9182
X5.9035Y-2.9599
X5.9165Y-2.5249
X5.9184Y-2.5635
X5.9239Y-2.9182
X5.9239Y-2.9599
X5.9338Y-2.5249
X5.9358Y-2.5635
X5.9413Y-2.9182
X5.9413Y-2.9599
X5.9496Y-3.0768
X5.9503Y-2.5249
X5.9523Y-2.5635
X5.9578Y-2.9182
X5.9578Y-2.9599
X5.9672Y-2.5253
X5.9692Y-2.5639
X5.989Y-3.0768
X6.0295Y-3.0783
X6.0563Y-3.3146
X6.0697Y-3.0748
X6.0937Y-3.5343
X6.1043Y-3.376
X6.1307Y-3.1118
X6.132Y-3.0723
X6.1897Y-2.0824
X6.1897Y-2.0989
X6.1897Y-2.1162
X6.1897Y-2.1367
X6.1897Y-2.1552
X6.1901Y-2.0654
X6.1965Y-3.2114
X6.2858Y-3.0709
X6.2902Y-3.3783
X6.3012Y-3.5331
X6.3102Y-2.0843
X6.3102Y-2.1009
X6.3102Y-2.1182
X6.3102Y-2.1387
X6.3102Y-2.1572
X6.3106Y-2.0674
X6.3449Y-2.989
X6.3882Y-3.0185
X6.3898Y-3.2705
X6.3925Y-3.2201
X6.4003Y-3.7221
X6.4003Y-3.7969
X6.4157Y-2.9607
X6.4161Y-2.9143
X6.4176Y-2.5576
X6.418Y-2.4304
X6.4239Y-3.7221
X6.4239Y-3.7969
X6.4342Y-2.9607
X6.4346Y-2.9143
X6.4361Y-2.5576
X6.4365Y-2.4304
X6.4476Y-3.7221
X6.4476Y-3.7969
X6.4546Y-2.9607
X6.455Y-2.9143
X6.4566Y-2.5576
X6.457Y-2.4304
X6.4672Y-3.7221
X6.4672Y-3.7969
X6.472Y-2.9607
X6.4724Y-2.9143
X6.4739Y-2.5576
X6.4743Y-2.4304
X6.4885Y-2.9607
X6.4889Y-2.9143
X6.4905Y-2.5576
X6.4909Y-2.4304
X6.5074Y-2.558
X6.5078Y-2.4308
T3
X4.6535Y-2.6517
X5.0495Y-2.6528
X5.4072Y-2.2524
X5.5672Y-2.1924
X5.6672Y-2.1924
X5.7204Y-2.6461
X5.7672Y-2.1924
X5.9872Y-1.9024
X6.1165Y-2.6473
X6.6688Y-3.9958
X6.6688Y-4.3091
X6.7082Y-3.919
X6.7082Y-4.0733
X6.7082Y-4.2328
X6.7082Y-4.3898
T5
X6.5102Y-3.063
X6.5102Y-3.2906
T6
X5.0665Y-3.1659
X5.0665Y-3.2659
X5.0665Y-3.3659
X5.0665Y-3.4659
X5.1665Y-3.2159
X5.1665Y-3.3159
X5.1665Y-3.4159
X5.1665Y-3.5159
X5.1672Y-1.9924
X5.1672Y-2.0924
X5.1672Y-2.1924
X5.1672Y-2.2924
X5.2672Y-1.9424
X5.2672Y-2.0424
X5.2672Y-2.1424
X5.2672Y-2.2424
T7
X5.4672Y-1.796
X5.4672Y-2.4324
X5.5672Y-1.796
X5.5672Y-2.4324
X5.6672Y-1.796
X5.6672Y-2.4324
X5.7672Y-1.796
X5.7672Y-2.4324
X5.8672Y-1.796
X5.8672Y-2.4324
X5.9672Y-1.796
X5.9672Y-2.4324
X6.0672Y-1.796
X6.0672Y-2.4324
T8
X4.852Y-3.6811
X4.952Y-3.6811
X5.052Y-3.6811
X5.152Y-3.6811
X5.289Y-3.2543
X5.289Y-3.3543
X5.289Y-3.4543
X5.389Y-3.2543
X5.389Y-3.3543
X5.389Y-3.4543
X6.5087Y-3.4492
X6.5087Y-3.5492
T4
G00X6.4689Y-3.0067
M15
G01X6.5122Y-3.0067
M16
G05
G00X6.4689Y-3.3469
M15
G01X6.5122Y-3.3469
M16
G05
G00X6.6382Y-3.0067
M15
G01X6.6697Y-3.0067
M16
G05
G00X6.6382Y-3.3469
M15
G01X6.6697Y-3.3469
M16
G05
T0
M30
