%TF.GenerationSoftware,KiCad,Pcbnew,(5.1.10)-1*%
%TF.CreationDate,2021-10-06T18:17:39-05:00*%
%TF.ProjectId,BYTE_PANELkicad_pcb,42595445-5f50-4414-9e45-4c6b69636164,v2.2*%
%TF.SameCoordinates,Original*%
%TF.FileFunction,Legend,Top*%
%TF.FilePolarity,Positive*%
%FSLAX46Y46*%
G04 Gerber Fmt 4.6, Leading zero omitted, Abs format (unit mm)*
G04 Created by KiCad (PCBNEW (5.1.10)-1) date 2021-10-06 18:17:39*
%MOMM*%
%LPD*%
G01*
G04 APERTURE LIST*
%TA.AperFunction,Profile*%
%ADD10C,0.200000*%
%TD*%
%ADD11C,0.150000*%
%ADD12C,0.350000*%
%ADD13C,0.120000*%
%ADD14C,0.160000*%
%ADD15C,0.010000*%
%ADD16C,0.127000*%
%ADD17C,0.250000*%
G04 APERTURE END LIST*
D10*
X168690379Y-96462228D02*
X169130379Y-96462228D01*
X148898100Y-64072180D02*
X148888100Y-65112180D01*
X151918100Y-64072180D02*
X151938100Y-65112180D01*
D11*
X110040480Y-83042656D02*
X110040480Y-82375989D01*
X111040480Y-82804560D01*
X111040480Y-81471227D02*
X111040480Y-82042656D01*
X111040480Y-81756941D02*
X110040480Y-81756941D01*
X110183338Y-81852180D01*
X110278576Y-81947418D01*
X110326195Y-82042656D01*
X110945242Y-81042656D02*
X110992861Y-80995037D01*
X111040480Y-81042656D01*
X110992861Y-81090275D01*
X110945242Y-81042656D01*
X111040480Y-81042656D01*
X110135719Y-80614084D02*
X110088100Y-80566465D01*
X110040480Y-80471227D01*
X110040480Y-80233132D01*
X110088100Y-80137894D01*
X110135719Y-80090275D01*
X110230957Y-80042656D01*
X110326195Y-80042656D01*
X110469052Y-80090275D01*
X111040480Y-80661703D01*
X111040480Y-80042656D01*
X110040480Y-79423608D02*
X110040480Y-79328370D01*
X110088100Y-79233132D01*
X110135719Y-79185513D01*
X110230957Y-79137894D01*
X110421433Y-79090275D01*
X110659528Y-79090275D01*
X110850004Y-79137894D01*
X110945242Y-79185513D01*
X110992861Y-79233132D01*
X111040480Y-79328370D01*
X111040480Y-79423608D01*
X110992861Y-79518846D01*
X110945242Y-79566465D01*
X110850004Y-79614084D01*
X110659528Y-79661703D01*
X110421433Y-79661703D01*
X110230957Y-79614084D01*
X110135719Y-79566465D01*
X110088100Y-79518846D01*
X110040480Y-79423608D01*
X110040480Y-78471227D02*
X110040480Y-78375989D01*
X110088100Y-78280751D01*
X110135719Y-78233132D01*
X110230957Y-78185513D01*
X110421433Y-78137894D01*
X110659528Y-78137894D01*
X110850004Y-78185513D01*
X110945242Y-78233132D01*
X110992861Y-78280751D01*
X111040480Y-78375989D01*
X111040480Y-78471227D01*
X110992861Y-78566465D01*
X110945242Y-78614084D01*
X110850004Y-78661703D01*
X110659528Y-78709322D01*
X110421433Y-78709322D01*
X110230957Y-78661703D01*
X110135719Y-78614084D01*
X110088100Y-78566465D01*
X110040480Y-78471227D01*
X111040480Y-76947418D02*
X110373814Y-76947418D01*
X110469052Y-76947418D02*
X110421433Y-76899799D01*
X110373814Y-76804560D01*
X110373814Y-76661703D01*
X110421433Y-76566465D01*
X110516671Y-76518846D01*
X111040480Y-76518846D01*
X110516671Y-76518846D02*
X110421433Y-76471227D01*
X110373814Y-76375989D01*
X110373814Y-76233132D01*
X110421433Y-76137894D01*
X110516671Y-76090275D01*
X111040480Y-76090275D01*
X111040480Y-75614084D02*
X110373814Y-75614084D01*
X110469052Y-75614084D02*
X110421433Y-75566465D01*
X110373814Y-75471227D01*
X110373814Y-75328370D01*
X110421433Y-75233132D01*
X110516671Y-75185513D01*
X111040480Y-75185513D01*
X110516671Y-75185513D02*
X110421433Y-75137894D01*
X110373814Y-75042656D01*
X110373814Y-74899799D01*
X110421433Y-74804560D01*
X110516671Y-74756941D01*
X111040480Y-74756941D01*
X111888100Y-114452180D02*
X111888100Y-43252180D01*
X162068100Y-114452180D02*
X111301679Y-114452180D01*
X162068100Y-43252180D02*
X111301679Y-43252180D01*
X111888100Y-43252180D02*
X112474521Y-44378684D01*
X111888100Y-43252180D02*
X111301679Y-44378684D01*
X111888100Y-114452180D02*
X112474521Y-113325676D01*
X111888100Y-114452180D02*
X111301679Y-113325676D01*
X140594052Y-120394560D02*
X140117861Y-120394560D01*
X140070242Y-120870751D01*
X140117861Y-120823132D01*
X140213100Y-120775513D01*
X140451195Y-120775513D01*
X140546433Y-120823132D01*
X140594052Y-120870751D01*
X140641671Y-120965989D01*
X140641671Y-121204084D01*
X140594052Y-121299322D01*
X140546433Y-121346941D01*
X140451195Y-121394560D01*
X140213100Y-121394560D01*
X140117861Y-121346941D01*
X140070242Y-121299322D01*
X141498814Y-120727894D02*
X141498814Y-121394560D01*
X141260719Y-120346941D02*
X141022623Y-121061227D01*
X141641671Y-121061227D01*
X142022623Y-121299322D02*
X142070242Y-121346941D01*
X142022623Y-121394560D01*
X141975004Y-121346941D01*
X142022623Y-121299322D01*
X142022623Y-121394560D01*
X142546433Y-121394560D02*
X142736909Y-121394560D01*
X142832147Y-121346941D01*
X142879766Y-121299322D01*
X142975004Y-121156465D01*
X143022623Y-120965989D01*
X143022623Y-120585037D01*
X142975004Y-120489799D01*
X142927385Y-120442180D01*
X142832147Y-120394560D01*
X142641671Y-120394560D01*
X142546433Y-120442180D01*
X142498814Y-120489799D01*
X142451195Y-120585037D01*
X142451195Y-120823132D01*
X142498814Y-120918370D01*
X142546433Y-120965989D01*
X142641671Y-121013608D01*
X142832147Y-121013608D01*
X142927385Y-120965989D01*
X142975004Y-120918370D01*
X143022623Y-120823132D01*
X143355957Y-120394560D02*
X143975004Y-120394560D01*
X143641671Y-120775513D01*
X143784528Y-120775513D01*
X143879766Y-120823132D01*
X143927385Y-120870751D01*
X143975004Y-120965989D01*
X143975004Y-121204084D01*
X143927385Y-121299322D01*
X143879766Y-121346941D01*
X143784528Y-121394560D01*
X143498814Y-121394560D01*
X143403576Y-121346941D01*
X143355957Y-121299322D01*
X144594052Y-120394560D02*
X144689290Y-120394560D01*
X144784528Y-120442180D01*
X144832147Y-120489799D01*
X144879766Y-120585037D01*
X144927385Y-120775513D01*
X144927385Y-121013608D01*
X144879766Y-121204084D01*
X144832147Y-121299322D01*
X144784528Y-121346941D01*
X144689290Y-121394560D01*
X144594052Y-121394560D01*
X144498814Y-121346941D01*
X144451195Y-121299322D01*
X144403576Y-121204084D01*
X144355957Y-121013608D01*
X144355957Y-120775513D01*
X144403576Y-120585037D01*
X144451195Y-120489799D01*
X144498814Y-120442180D01*
X144594052Y-120394560D01*
X146117861Y-121394560D02*
X146117861Y-120727894D01*
X146117861Y-120823132D02*
X146165480Y-120775513D01*
X146260719Y-120727894D01*
X146403576Y-120727894D01*
X146498814Y-120775513D01*
X146546433Y-120870751D01*
X146546433Y-121394560D01*
X146546433Y-120870751D02*
X146594052Y-120775513D01*
X146689290Y-120727894D01*
X146832147Y-120727894D01*
X146927385Y-120775513D01*
X146975004Y-120870751D01*
X146975004Y-121394560D01*
X147451195Y-121394560D02*
X147451195Y-120727894D01*
X147451195Y-120823132D02*
X147498814Y-120775513D01*
X147594052Y-120727894D01*
X147736909Y-120727894D01*
X147832147Y-120775513D01*
X147879766Y-120870751D01*
X147879766Y-121394560D01*
X147879766Y-120870751D02*
X147927385Y-120775513D01*
X148022623Y-120727894D01*
X148165480Y-120727894D01*
X148260719Y-120775513D01*
X148308338Y-120870751D01*
X148308338Y-121394560D01*
X116748100Y-119642180D02*
X171678100Y-119642180D01*
X116748100Y-109302180D02*
X116748100Y-120228601D01*
X171678100Y-109302180D02*
X171678100Y-120228601D01*
X171678100Y-119642180D02*
X170551596Y-120228601D01*
X171678100Y-119642180D02*
X170551596Y-119055759D01*
X116748100Y-119642180D02*
X117874604Y-120228601D01*
X116748100Y-119642180D02*
X117874604Y-119055759D01*
D10*
X145638100Y-94510004D02*
X145638100Y-96762180D01*
X142458100Y-96762180D02*
X142458100Y-94510004D01*
X145638100Y-96762180D02*
X147788100Y-96762180D01*
X162068100Y-94510004D02*
X145638100Y-94510004D01*
X147788100Y-96762180D02*
X147788100Y-103892180D01*
X140778100Y-103872180D02*
X140798100Y-96762180D01*
X157156100Y-55162180D02*
X160298100Y-55182180D01*
X160298100Y-51992180D02*
X157158100Y-51992180D01*
X160298100Y-61762180D02*
X160298100Y-55182180D01*
X157156100Y-43242180D02*
X157158100Y-51992180D01*
X162658100Y-61762180D02*
X162578100Y-65012180D01*
X165708100Y-65012180D02*
X165648100Y-61762180D01*
X167298100Y-61762180D02*
X165648100Y-61762180D01*
X168087294Y-65021970D02*
X165708100Y-65012180D01*
X154687294Y-65121970D02*
X151938100Y-65112180D01*
X157156100Y-64070180D02*
X151918100Y-64072180D01*
X162658100Y-61762180D02*
X160298100Y-61762180D01*
X160298100Y-51992180D02*
X160298100Y-44762180D01*
X160298100Y-44762180D02*
X167298100Y-44762180D01*
X167298100Y-44762180D02*
X167298100Y-61762180D01*
X147798100Y-106722180D02*
X147798100Y-113762180D01*
X140798100Y-96762180D02*
X142458100Y-96762180D01*
X140798100Y-113762180D02*
X140798100Y-107012180D01*
X147798100Y-113762180D02*
X140798100Y-113762180D01*
X138338100Y-65222180D02*
X138338100Y-64072180D01*
X135318100Y-64070180D02*
X135318100Y-65212180D01*
X135318100Y-65212180D02*
X132588100Y-65212180D01*
X148898100Y-64072180D02*
X138338100Y-64072180D01*
X124748100Y-64070180D02*
X124738100Y-65322180D01*
X121508100Y-65312180D02*
X121528100Y-64070180D01*
X135318100Y-64070180D02*
X124748100Y-64070180D01*
X127587294Y-65321970D02*
X124738100Y-65322180D01*
X162558100Y-74012180D02*
X162588100Y-75210004D01*
X165188100Y-75202180D02*
X165178100Y-74002180D01*
X165178100Y-74002180D02*
X169888100Y-74012180D01*
X165190000Y-75200004D02*
X170720000Y-75210004D01*
X151848100Y-74112180D02*
X151828100Y-75210004D01*
X149018100Y-75210004D02*
X149008100Y-74112180D01*
X151828100Y-75210004D02*
X162588100Y-75210004D01*
X151848100Y-74112180D02*
X156488100Y-74112180D01*
X138088100Y-74212180D02*
X138078100Y-75210004D01*
X135658100Y-74212180D02*
X135678100Y-75210004D01*
X138078100Y-75210004D02*
X149018100Y-75210004D01*
X130588100Y-74212180D02*
X135658100Y-74212180D01*
X122048100Y-75210004D02*
X122038100Y-74312180D01*
X124798100Y-75210004D02*
X124778100Y-74312180D01*
X124798100Y-75210004D02*
X135678100Y-75210004D01*
X124778100Y-74312180D02*
X129388100Y-74312180D01*
X169888100Y-74012180D02*
X169878310Y-66814500D01*
X157688100Y-74012180D02*
X157688100Y-67012180D01*
X157688100Y-74012180D02*
X162558100Y-74012180D01*
X157688100Y-67012180D02*
G75*
G02*
X159688100Y-65012180I2000000J0D01*
G01*
X168087294Y-65021969D02*
G75*
G02*
X169878309Y-66814499I806J-1790211D01*
G01*
X162578100Y-65012180D02*
X159688100Y-65012180D01*
X144288100Y-74112180D02*
X149008100Y-74112180D01*
X154687294Y-65121969D02*
G75*
G02*
X156478309Y-66914499I806J-1790211D01*
G01*
X156488100Y-74112180D02*
X156478310Y-66914500D01*
X148888100Y-65112180D02*
X146288100Y-65112180D01*
X144288100Y-67112180D02*
G75*
G02*
X146288100Y-65112180I2000000J0D01*
G01*
X144288100Y-74112180D02*
X144288100Y-67112180D01*
X138088100Y-74212180D02*
X142788100Y-74212180D01*
X140987294Y-65221969D02*
G75*
G02*
X142778309Y-67014499I806J-1790211D01*
G01*
X142788100Y-74212180D02*
X142778310Y-67014500D01*
X140985780Y-65221970D02*
X138338100Y-65222180D01*
X130588100Y-67212180D02*
G75*
G02*
X132588100Y-65212180I2000000J0D01*
G01*
X130588100Y-74212180D02*
X130588100Y-67212180D01*
X162068100Y-94510004D02*
X162068100Y-96462228D01*
X164768100Y-94510004D02*
X164768100Y-96462228D01*
X142458100Y-94510004D02*
X127868100Y-94510004D01*
X162068100Y-96462228D02*
X152439691Y-96462228D01*
X125768100Y-94510004D02*
X125768100Y-96442180D01*
X127868100Y-96442180D02*
X127868100Y-94510004D01*
X170720000Y-94510004D02*
X164768100Y-94510004D01*
X135996509Y-96442180D02*
X127868100Y-96442180D01*
X121508100Y-65312180D02*
X119188100Y-65312180D01*
X117188100Y-74312180D02*
X122038100Y-74312180D01*
X129388100Y-74312180D02*
X129378310Y-67114500D01*
X117188100Y-67312180D02*
G75*
G02*
X119188100Y-65312180I2000000J0D01*
G01*
X127587294Y-65321969D02*
G75*
G02*
X129378309Y-67114499I806J-1790211D01*
G01*
X117188100Y-74312180D02*
X117188100Y-67312180D01*
X149664215Y-100587209D02*
X149547799Y-100875525D01*
X149788569Y-100301830D02*
X149664215Y-100587209D01*
X151018880Y-98140002D02*
X150841610Y-98397203D01*
X148785800Y-103890832D02*
X147788100Y-103892180D01*
X147798100Y-106722180D02*
X148751404Y-106721733D01*
X149338778Y-101460413D02*
X149243528Y-101756746D01*
X150669631Y-98658399D02*
X150505589Y-98923432D01*
X148830779Y-103580469D02*
X148785800Y-103890832D01*
X151791463Y-97153663D02*
X151587734Y-97393613D01*
X148785800Y-107033576D02*
X148830779Y-107343939D01*
X149547799Y-100875525D02*
X149439320Y-101166646D01*
X150505589Y-98923432D02*
X150349485Y-99192195D01*
X149076841Y-102356449D02*
X149002758Y-102659582D01*
X149243528Y-101756746D02*
X149156216Y-102055460D01*
X151391942Y-97638088D02*
X151201443Y-97886928D01*
X168690379Y-96462228D02*
X164768100Y-96462228D01*
X169426712Y-96476886D02*
X169278545Y-96465906D01*
X151587734Y-97393613D02*
X151391942Y-97638088D01*
X152439691Y-96462228D02*
X152217441Y-96687838D01*
X149664215Y-110337199D02*
X149788569Y-110622578D01*
X149918215Y-110904914D02*
X150053152Y-111184049D01*
X149076841Y-108567959D02*
X149156216Y-108868948D01*
X149243528Y-109167662D02*
X149338778Y-109463995D01*
X149156216Y-108868948D02*
X149243528Y-109167662D01*
X149002758Y-108264826D02*
X149076841Y-108567959D01*
X150198673Y-111459851D02*
X150349485Y-111732213D01*
X149788569Y-110622578D02*
X149918215Y-110904914D01*
X170000857Y-114332508D02*
X170141086Y-114286523D01*
X148936612Y-102964707D02*
X148881050Y-103271716D01*
X169717753Y-114404025D02*
X169860628Y-114371719D01*
X170670252Y-114036598D02*
X170794606Y-113958149D01*
X149439320Y-109757762D02*
X149547799Y-110048883D01*
X149547799Y-110048883D02*
X149664215Y-110337199D01*
X170410961Y-114174552D02*
X170540606Y-114108776D01*
X169572233Y-114429319D02*
X169717753Y-114404025D01*
X149338778Y-109463995D02*
X149439320Y-109757762D01*
X170913668Y-113873536D02*
X171030085Y-113782810D01*
X169278545Y-114458502D02*
X169426712Y-114447522D01*
X148881050Y-107652692D02*
X148936612Y-107959701D01*
X150053152Y-111184049D02*
X150198673Y-111459851D01*
X172038146Y-112193460D02*
X172069896Y-112050188D01*
X148936612Y-107959701D02*
X149002758Y-108264826D01*
X149918215Y-100019494D02*
X149788569Y-100301830D01*
X170141086Y-96637885D02*
X170000857Y-96591900D01*
X152000483Y-96918369D02*
X151791463Y-97153663D01*
X148881050Y-103271716D02*
X148830779Y-103580469D01*
X150198673Y-99464557D02*
X150053152Y-99740359D01*
X169278545Y-96465906D02*
X169130379Y-96462228D01*
X152217441Y-96687838D02*
X152000483Y-96918369D01*
X172038146Y-98730948D02*
X171998459Y-98589713D01*
X150841610Y-98397203D02*
X150669631Y-98658399D01*
X171900563Y-98314150D02*
X171842355Y-98180351D01*
X151201443Y-97886928D02*
X151018880Y-98140002D01*
X150053152Y-99740359D02*
X149918215Y-100019494D01*
X148751404Y-106721733D02*
X148785800Y-107033576D01*
X149002758Y-102659582D02*
X148936612Y-102964707D01*
X149439320Y-101166646D02*
X149338778Y-101460413D01*
X150349485Y-99192195D02*
X150198673Y-99464557D01*
X170276023Y-96690563D02*
X170141086Y-96637885D01*
X148830779Y-107343939D02*
X148881050Y-107652692D01*
X149156216Y-102055460D02*
X149076841Y-102356449D01*
X172125459Y-99313454D02*
X172114875Y-99165711D01*
X170141086Y-114286523D02*
X170276023Y-114233845D01*
X152000483Y-114006039D02*
X152217441Y-114236570D01*
X151587734Y-113530795D02*
X151791463Y-113770745D01*
X151018880Y-112784406D02*
X151201443Y-113037480D01*
X171625397Y-113126591D02*
X171704772Y-113002476D01*
X171998459Y-112334695D02*
X172038146Y-112193460D01*
X171842355Y-112744057D02*
X171900563Y-112610258D01*
X150841610Y-112527205D02*
X151018880Y-112784406D01*
X150349485Y-111732213D02*
X150505589Y-112000976D01*
X169426712Y-114447522D02*
X169572233Y-114429319D01*
X170540606Y-114108776D02*
X170670252Y-114036598D01*
X150505589Y-112000976D02*
X150669631Y-112266009D01*
X172125459Y-111610954D02*
X172128104Y-111462206D01*
X161707278Y-105453754D02*
G75*
G03*
X161707278Y-105453754I-1500000J0D01*
G01*
X152217441Y-114236570D02*
X152439691Y-114462180D01*
X172096354Y-111905197D02*
X172114875Y-111758697D01*
X171030085Y-113782810D02*
X171143856Y-113686105D01*
X172069896Y-112050188D02*
X172096354Y-111905197D01*
X171540730Y-113247003D02*
X171625397Y-113126591D01*
X150669631Y-112266009D02*
X150841610Y-112527205D01*
X172114875Y-111758697D02*
X172125459Y-111610954D01*
X171776209Y-112874867D02*
X171842355Y-112744057D01*
X170276023Y-114233845D02*
X170410961Y-114174552D01*
X170670252Y-96887810D02*
X170540606Y-96815632D01*
X169572233Y-96495089D02*
X169426712Y-96476886D01*
X172128104Y-99462202D02*
X172125459Y-99313454D01*
X170410961Y-96749856D02*
X170276023Y-96690563D01*
X171450772Y-97560935D02*
X171352876Y-97448699D01*
X171704772Y-97921932D02*
X171625397Y-97797817D01*
X170913668Y-97050872D02*
X170794606Y-96966259D01*
X170000857Y-96591900D02*
X169860628Y-96552689D01*
X172114875Y-99165711D02*
X172096354Y-99019211D01*
X171625397Y-97797817D02*
X171540730Y-97677405D01*
X169717753Y-96520383D02*
X169572233Y-96495089D01*
X169130379Y-114462180D02*
X169278545Y-114458502D01*
X151391942Y-113286320D02*
X151587734Y-113530795D01*
X169860628Y-114371719D02*
X170000857Y-114332508D01*
X151791463Y-113770745D02*
X152000483Y-114006039D01*
X171900563Y-112610258D02*
X171953480Y-112473706D01*
X171450772Y-113363473D02*
X171540730Y-113247003D01*
X171143856Y-113686105D02*
X171249689Y-113583525D01*
X171953480Y-112473706D02*
X171998459Y-112334695D01*
X151201443Y-113037480D02*
X151391942Y-113286320D01*
X171352876Y-113475709D02*
X171450772Y-113363473D01*
X152439691Y-114462180D02*
X169130379Y-114462180D01*
X170794606Y-113958149D02*
X170913668Y-113873536D01*
X171704772Y-113002476D02*
X171776209Y-112874867D01*
X171249689Y-113583525D02*
X171352876Y-113475709D01*
X171842355Y-98180351D02*
X171776209Y-98049541D01*
X171143856Y-97238303D02*
X171030085Y-97141598D01*
X169860628Y-96552689D02*
X169717753Y-96520383D01*
X171776209Y-98049541D02*
X171704772Y-97921932D01*
X170794606Y-96966259D02*
X170670252Y-96887810D01*
X172069896Y-98874220D02*
X172038146Y-98730948D01*
X172128104Y-111462206D02*
X172128104Y-99462202D01*
X171352876Y-97448699D02*
X171249689Y-97340883D01*
X171249689Y-97340883D02*
X171143856Y-97238303D01*
X171030085Y-97141598D02*
X170913668Y-97050872D01*
X172096354Y-99019211D02*
X172069896Y-98874220D01*
X170540606Y-96815632D02*
X170410961Y-96749856D01*
X171998459Y-98589713D02*
X171953480Y-98450702D01*
X171540730Y-97677405D02*
X171450772Y-97560935D01*
X171953480Y-98450702D02*
X171900563Y-98314150D01*
X117720000Y-94510004D02*
G75*
G02*
X116720000Y-93510004I0J1000000D01*
G01*
X170720000Y-75210004D02*
G75*
G02*
X171720000Y-76210004I0J-1000000D01*
G01*
X170420000Y-91860004D02*
X171720000Y-91860004D01*
X125768100Y-94510004D02*
X117720000Y-94510004D01*
X116720000Y-76210004D02*
G75*
G02*
X117720000Y-75210004I1000000J0D01*
G01*
X122620000Y-84860004D02*
G75*
G03*
X122620000Y-84860004I-900000J0D01*
G01*
X136020001Y-77510004D02*
G75*
G03*
X136020001Y-77510004I-1300001J0D01*
G01*
X170420000Y-91860004D02*
G75*
G02*
X170420000Y-85860004I0J3000000D01*
G01*
X136020001Y-92210004D02*
G75*
G03*
X136020001Y-92210004I-1300001J0D01*
G01*
X171720000Y-91860004D02*
X171720000Y-93510004D01*
X171720000Y-93510004D02*
G75*
G02*
X170720000Y-94510004I-1000000J0D01*
G01*
X116720000Y-93510004D02*
X116720000Y-76210004D01*
X171720000Y-85860004D02*
X170420000Y-85860004D01*
X117720000Y-75210004D02*
X122048100Y-75210004D01*
X171720000Y-76210004D02*
X171720000Y-85860004D01*
D11*
X162751428Y-93675714D02*
X162989523Y-94342380D01*
X163227619Y-93675714D01*
X163560952Y-93437619D02*
X163608571Y-93390000D01*
X163703809Y-93342380D01*
X163941904Y-93342380D01*
X164037142Y-93390000D01*
X164084761Y-93437619D01*
X164132380Y-93532857D01*
X164132380Y-93628095D01*
X164084761Y-93770952D01*
X163513333Y-94342380D01*
X164132380Y-94342380D01*
X164560952Y-94247142D02*
X164608571Y-94294761D01*
X164560952Y-94342380D01*
X164513333Y-94294761D01*
X164560952Y-94247142D01*
X164560952Y-94342380D01*
X164989523Y-93437619D02*
X165037142Y-93390000D01*
X165132380Y-93342380D01*
X165370476Y-93342380D01*
X165465714Y-93390000D01*
X165513333Y-93437619D01*
X165560952Y-93532857D01*
X165560952Y-93628095D01*
X165513333Y-93770952D01*
X164941904Y-94342380D01*
X165560952Y-94342380D01*
X154494285Y-92488571D02*
X154637142Y-92536190D01*
X154684761Y-92583809D01*
X154732380Y-92679047D01*
X154732380Y-92821904D01*
X154684761Y-92917142D01*
X154637142Y-92964761D01*
X154541904Y-93012380D01*
X154160952Y-93012380D01*
X154160952Y-92012380D01*
X154494285Y-92012380D01*
X154589523Y-92060000D01*
X154637142Y-92107619D01*
X154684761Y-92202857D01*
X154684761Y-92298095D01*
X154637142Y-92393333D01*
X154589523Y-92440952D01*
X154494285Y-92488571D01*
X154160952Y-92488571D01*
X155351428Y-92536190D02*
X155351428Y-93012380D01*
X155018095Y-92012380D02*
X155351428Y-92536190D01*
X155684761Y-92012380D01*
X155875238Y-92012380D02*
X156446666Y-92012380D01*
X156160952Y-93012380D02*
X156160952Y-92012380D01*
X156780000Y-92488571D02*
X157113333Y-92488571D01*
X157256190Y-93012380D02*
X156780000Y-93012380D01*
X156780000Y-92012380D01*
X157256190Y-92012380D01*
X159018095Y-92917142D02*
X158970476Y-92964761D01*
X158827619Y-93012380D01*
X158732380Y-93012380D01*
X158589523Y-92964761D01*
X158494285Y-92869523D01*
X158446666Y-92774285D01*
X158399047Y-92583809D01*
X158399047Y-92440952D01*
X158446666Y-92250476D01*
X158494285Y-92155238D01*
X158589523Y-92060000D01*
X158732380Y-92012380D01*
X158827619Y-92012380D01*
X158970476Y-92060000D01*
X159018095Y-92107619D01*
X159589523Y-93012380D02*
X159494285Y-92964761D01*
X159446666Y-92917142D01*
X159399047Y-92821904D01*
X159399047Y-92536190D01*
X159446666Y-92440952D01*
X159494285Y-92393333D01*
X159589523Y-92345714D01*
X159732380Y-92345714D01*
X159827619Y-92393333D01*
X159875238Y-92440952D01*
X159922857Y-92536190D01*
X159922857Y-92821904D01*
X159875238Y-92917142D01*
X159827619Y-92964761D01*
X159732380Y-93012380D01*
X159589523Y-93012380D01*
X160351428Y-92345714D02*
X160351428Y-93012380D01*
X160351428Y-92440952D02*
X160399047Y-92393333D01*
X160494285Y-92345714D01*
X160637142Y-92345714D01*
X160732380Y-92393333D01*
X160780000Y-92488571D01*
X160780000Y-93012380D01*
X161113333Y-92345714D02*
X161494285Y-92345714D01*
X161256190Y-92012380D02*
X161256190Y-92869523D01*
X161303809Y-92964761D01*
X161399047Y-93012380D01*
X161494285Y-93012380D01*
X161827619Y-93012380D02*
X161827619Y-92345714D01*
X161827619Y-92536190D02*
X161875238Y-92440952D01*
X161922857Y-92393333D01*
X162018095Y-92345714D01*
X162113333Y-92345714D01*
X162589523Y-93012380D02*
X162494285Y-92964761D01*
X162446666Y-92917142D01*
X162399047Y-92821904D01*
X162399047Y-92536190D01*
X162446666Y-92440952D01*
X162494285Y-92393333D01*
X162589523Y-92345714D01*
X162732380Y-92345714D01*
X162827619Y-92393333D01*
X162875238Y-92440952D01*
X162922857Y-92536190D01*
X162922857Y-92821904D01*
X162875238Y-92917142D01*
X162827619Y-92964761D01*
X162732380Y-93012380D01*
X162589523Y-93012380D01*
X163494285Y-93012380D02*
X163399047Y-92964761D01*
X163351428Y-92869523D01*
X163351428Y-92012380D01*
X164018095Y-93012380D02*
X163922857Y-92964761D01*
X163875238Y-92869523D01*
X163875238Y-92012380D01*
X164780000Y-92964761D02*
X164684761Y-93012380D01*
X164494285Y-93012380D01*
X164399047Y-92964761D01*
X164351428Y-92869523D01*
X164351428Y-92488571D01*
X164399047Y-92393333D01*
X164494285Y-92345714D01*
X164684761Y-92345714D01*
X164780000Y-92393333D01*
X164827619Y-92488571D01*
X164827619Y-92583809D01*
X164351428Y-92679047D01*
X165256190Y-93012380D02*
X165256190Y-92345714D01*
X165256190Y-92536190D02*
X165303809Y-92440952D01*
X165351428Y-92393333D01*
X165446666Y-92345714D01*
X165541904Y-92345714D01*
D12*
X161988095Y-90152857D02*
X163511904Y-90152857D01*
X162058095Y-87602857D02*
X163581904Y-87602857D01*
X162820000Y-88364761D02*
X162820000Y-86840952D01*
D13*
X119606671Y-101475989D02*
X119720957Y-101514084D01*
X119911433Y-101514084D01*
X119987623Y-101475989D01*
X120025719Y-101437894D01*
X120063814Y-101361703D01*
X120063814Y-101285513D01*
X120025719Y-101209322D01*
X119987623Y-101171227D01*
X119911433Y-101133132D01*
X119759052Y-101095037D01*
X119682861Y-101056941D01*
X119644766Y-101018846D01*
X119606671Y-100942656D01*
X119606671Y-100866465D01*
X119644766Y-100790275D01*
X119682861Y-100752180D01*
X119759052Y-100714084D01*
X119949528Y-100714084D01*
X120063814Y-100752180D01*
X120406671Y-101514084D02*
X120406671Y-100714084D01*
X120597147Y-100714084D01*
X120711433Y-100752180D01*
X120787623Y-100828370D01*
X120825719Y-100904560D01*
X120863814Y-101056941D01*
X120863814Y-101171227D01*
X120825719Y-101323608D01*
X120787623Y-101399799D01*
X120711433Y-101475989D01*
X120597147Y-101514084D01*
X120406671Y-101514084D01*
X121168576Y-101285513D02*
X121549528Y-101285513D01*
X121092385Y-101514084D02*
X121359052Y-100714084D01*
X121625719Y-101514084D01*
D10*
X116748096Y-99442154D02*
X116748096Y-111442158D01*
X116806304Y-112030140D02*
X116838054Y-112173412D01*
X118081594Y-113938101D02*
X118205948Y-114016550D01*
X119015572Y-114351671D02*
X119158447Y-114383977D01*
X117099991Y-112854819D02*
X117171428Y-112982428D01*
X117732344Y-113666057D02*
X117846115Y-113762762D01*
X117033845Y-112724009D02*
X117099991Y-112854819D01*
X117962532Y-113853488D02*
X118081594Y-113938101D01*
X116761325Y-111738649D02*
X116779846Y-111885149D01*
X117250803Y-113106543D02*
X117335470Y-113226955D01*
X119158447Y-114383977D02*
X119303967Y-114409271D01*
X118205948Y-114016550D02*
X118335594Y-114088728D01*
X117171428Y-112982428D02*
X117250803Y-113106543D01*
X118875343Y-114312460D02*
X119015572Y-114351671D01*
X117425428Y-113343425D02*
X117523324Y-113455661D01*
X118465239Y-114154504D02*
X118600177Y-114213797D01*
X116748096Y-111442158D02*
X116750741Y-111590906D01*
X119303967Y-114409271D02*
X119449488Y-114427474D01*
X116922720Y-112453658D02*
X116975637Y-112590210D01*
X117335470Y-113226955D02*
X117425428Y-113343425D01*
X116877741Y-112314647D02*
X116922720Y-112453658D01*
X118335594Y-114088728D02*
X118465239Y-114154504D01*
X116779846Y-111885149D02*
X116806304Y-112030140D01*
X117846115Y-113762762D02*
X117962532Y-113853488D01*
X117626511Y-113563477D02*
X117732344Y-113666057D01*
X117523324Y-113455661D02*
X117626511Y-113563477D01*
X116750741Y-111590906D02*
X116761325Y-111738649D01*
X116975637Y-112590210D02*
X117033845Y-112724009D01*
X118735114Y-114266475D02*
X118875343Y-114312460D01*
X116838054Y-112173412D02*
X116877741Y-112314647D01*
X118600177Y-114213797D02*
X118735114Y-114266475D01*
X119597655Y-114438454D02*
X119745821Y-114442132D01*
X139555150Y-107632644D02*
X139605421Y-107323891D01*
X136218759Y-114216522D02*
X136435717Y-113985991D01*
X136435717Y-113985991D02*
X136644737Y-113750697D01*
X137234757Y-113017432D02*
X137417320Y-112764358D01*
X137594590Y-112507157D02*
X137766569Y-112245961D01*
X138086715Y-111712165D02*
X138237527Y-111439803D01*
X138237527Y-111439803D02*
X138383048Y-111164001D01*
X138517985Y-110884866D02*
X138647631Y-110602530D01*
X139279984Y-108848900D02*
X139359359Y-108547911D01*
X138996880Y-109737714D02*
X139097422Y-109443947D01*
X139433442Y-108244778D02*
X139499588Y-107939653D01*
X139605421Y-103560421D02*
X139555150Y-103251668D01*
X140778100Y-103872180D02*
X139650400Y-103870784D01*
X138383048Y-111164001D02*
X138517985Y-110884866D01*
X139097422Y-109443947D02*
X139192672Y-109147614D01*
X139650400Y-107013528D02*
X140798100Y-107012180D01*
X139359359Y-108547911D02*
X139433442Y-108244778D01*
X135996509Y-114442132D02*
X136218759Y-114216522D01*
X136644737Y-113750697D02*
X136848466Y-113510747D01*
X136848466Y-113510747D02*
X137044258Y-113266272D01*
X137417320Y-112764358D02*
X137594590Y-112507157D01*
X138647631Y-110602530D02*
X138771985Y-110317151D01*
X138771985Y-110317151D02*
X138888401Y-110028835D01*
X119449488Y-114427474D02*
X119597655Y-114438454D01*
X119745821Y-114442132D02*
X135996509Y-114442132D01*
X137044258Y-113266272D02*
X137234757Y-113017432D01*
X137930611Y-111980928D02*
X138086715Y-111712165D01*
X139192672Y-109147614D02*
X139279984Y-108848900D01*
X139650400Y-103870784D02*
X139605421Y-103560421D01*
X138888401Y-110028835D02*
X138996880Y-109737714D01*
X139605421Y-107323891D02*
X139650400Y-107013528D01*
X137766569Y-112245961D02*
X137930611Y-111980928D01*
X139499588Y-107939653D02*
X139555150Y-107632644D01*
X139279984Y-102035412D02*
X139192672Y-101736698D01*
X138647631Y-100281782D02*
X138517985Y-99999446D01*
X138237527Y-99444509D02*
X138086715Y-99172147D01*
X139555150Y-103251668D02*
X139499588Y-102944659D01*
X139499588Y-102944659D02*
X139433442Y-102639534D01*
X139433442Y-102639534D02*
X139359359Y-102336401D01*
X138996880Y-101146598D02*
X138888401Y-100855477D01*
X138771985Y-100567161D02*
X138647631Y-100281782D01*
X139192672Y-101736698D02*
X139097422Y-101440365D01*
X139359359Y-102336401D02*
X139279984Y-102035412D01*
X139097422Y-101440365D02*
X138996880Y-101146598D01*
X138888401Y-100855477D02*
X138771985Y-100567161D01*
X138383048Y-99720311D02*
X138237527Y-99444509D01*
X138517985Y-99999446D02*
X138383048Y-99720311D01*
X116838054Y-98710900D02*
X116806304Y-98854172D01*
X119597655Y-96445858D02*
X119449488Y-96456838D01*
X117962532Y-97030824D02*
X117846115Y-97121550D01*
X119303967Y-96475041D02*
X119158447Y-96500335D01*
X118465239Y-96729808D02*
X118335594Y-96795584D01*
X118205948Y-96867762D02*
X118081594Y-96946211D01*
X119158447Y-96500335D02*
X119015572Y-96532641D01*
X118875343Y-96571852D02*
X118735114Y-96617837D01*
X116806304Y-98854172D02*
X116779846Y-98999163D01*
X138086715Y-99172147D02*
X137930611Y-98903384D01*
X136218759Y-96667790D02*
X135996509Y-96442180D01*
X137930611Y-98903384D02*
X137766569Y-98638351D01*
X137766569Y-98638351D02*
X137594590Y-98377155D01*
X118600177Y-96670515D02*
X118465239Y-96729808D01*
X137594590Y-98377155D02*
X137417320Y-98119954D01*
X137417320Y-98119954D02*
X137234757Y-97866880D01*
X116750741Y-99293406D02*
X116748096Y-99442154D01*
X136848466Y-97373565D02*
X136644737Y-97133615D01*
X117335470Y-97657357D02*
X117250803Y-97777769D01*
X117250803Y-97777769D02*
X117171428Y-97901884D01*
X117099991Y-98029493D02*
X117033845Y-98160303D01*
X116761325Y-99145663D02*
X116750741Y-99293406D01*
X136435717Y-96898321D02*
X136218759Y-96667790D01*
X118735114Y-96617837D02*
X118600177Y-96670515D01*
X118335594Y-96795584D02*
X118205948Y-96867762D01*
X117846115Y-97121550D02*
X117732344Y-97218255D01*
X116779846Y-98999163D02*
X116761325Y-99145663D01*
X129728922Y-105450606D02*
G75*
G03*
X129728922Y-105450606I-1500000J0D01*
G01*
X119449488Y-96456838D02*
X119303967Y-96475041D01*
X117033845Y-98160303D02*
X116975637Y-98294102D01*
X116877741Y-98569665D02*
X116838054Y-98710900D01*
X117732344Y-97218255D02*
X117626511Y-97320835D01*
X117523324Y-97428651D02*
X117425428Y-97540887D01*
X117425428Y-97540887D02*
X117335470Y-97657357D01*
X116975637Y-98294102D02*
X116922720Y-98430654D01*
X116922720Y-98430654D02*
X116877741Y-98569665D01*
X137234757Y-97866880D02*
X137044258Y-97618040D01*
X117171428Y-97901884D02*
X117099991Y-98029493D01*
X137044258Y-97618040D02*
X136848466Y-97373565D01*
X136644737Y-97133615D02*
X136435717Y-96898321D01*
X117626511Y-97320835D02*
X117523324Y-97428651D01*
X118081594Y-96946211D02*
X117962532Y-97030824D01*
X125768100Y-96442180D02*
X119745821Y-96442180D01*
X119015572Y-96532641D02*
X118875343Y-96571852D01*
X119745821Y-96442180D02*
X119597655Y-96445858D01*
D13*
X120496195Y-104379322D02*
X120496195Y-104874560D01*
X120191433Y-104607894D01*
X120191433Y-104722180D01*
X120153338Y-104798370D01*
X120115242Y-104836465D01*
X120039052Y-104874560D01*
X119848576Y-104874560D01*
X119772385Y-104836465D01*
X119734290Y-104798370D01*
X119696195Y-104722180D01*
X119696195Y-104493608D01*
X119734290Y-104417418D01*
X119772385Y-104379322D01*
X119772385Y-105217418D02*
X119734290Y-105255513D01*
X119696195Y-105217418D01*
X119734290Y-105179322D01*
X119772385Y-105217418D01*
X119696195Y-105217418D01*
X120496195Y-105522180D02*
X120496195Y-106017418D01*
X120191433Y-105750751D01*
X120191433Y-105865037D01*
X120153338Y-105941227D01*
X120115242Y-105979322D01*
X120039052Y-106017418D01*
X119848576Y-106017418D01*
X119772385Y-105979322D01*
X119734290Y-105941227D01*
X119696195Y-105865037D01*
X119696195Y-105636465D01*
X119734290Y-105560275D01*
X119772385Y-105522180D01*
X120229528Y-106284084D02*
X119696195Y-106474560D01*
X120229528Y-106665037D01*
X119604290Y-107884084D02*
X119604290Y-107084084D01*
X119985242Y-107884084D02*
X119985242Y-107084084D01*
X120442385Y-107884084D01*
X120442385Y-107084084D01*
X120709052Y-107084084D02*
X121166195Y-107084084D01*
X120937623Y-107884084D02*
X120937623Y-107084084D01*
X119575719Y-103635989D02*
X119690004Y-103674084D01*
X119880480Y-103674084D01*
X119956671Y-103635989D01*
X119994766Y-103597894D01*
X120032861Y-103521703D01*
X120032861Y-103445513D01*
X119994766Y-103369322D01*
X119956671Y-103331227D01*
X119880480Y-103293132D01*
X119728100Y-103255037D01*
X119651909Y-103216941D01*
X119613814Y-103178846D01*
X119575719Y-103102656D01*
X119575719Y-103026465D01*
X119613814Y-102950275D01*
X119651909Y-102912180D01*
X119728100Y-102874084D01*
X119918576Y-102874084D01*
X120032861Y-102912180D01*
X120832861Y-103597894D02*
X120794766Y-103635989D01*
X120680480Y-103674084D01*
X120604290Y-103674084D01*
X120490004Y-103635989D01*
X120413814Y-103559799D01*
X120375719Y-103483608D01*
X120337623Y-103331227D01*
X120337623Y-103216941D01*
X120375719Y-103064560D01*
X120413814Y-102988370D01*
X120490004Y-102912180D01*
X120604290Y-102874084D01*
X120680480Y-102874084D01*
X120794766Y-102912180D01*
X120832861Y-102950275D01*
X121556671Y-103674084D02*
X121175719Y-103674084D01*
X121175719Y-102874084D01*
X120228576Y-109052180D02*
X120152385Y-109014084D01*
X120038100Y-109014084D01*
X119923814Y-109052180D01*
X119847623Y-109128370D01*
X119809528Y-109204560D01*
X119771433Y-109356941D01*
X119771433Y-109471227D01*
X119809528Y-109623608D01*
X119847623Y-109699799D01*
X119923814Y-109775989D01*
X120038100Y-109814084D01*
X120114290Y-109814084D01*
X120228576Y-109775989D01*
X120266671Y-109737894D01*
X120266671Y-109471227D01*
X120114290Y-109471227D01*
X120609528Y-109814084D02*
X120609528Y-109014084D01*
X121066671Y-109814084D01*
X121066671Y-109014084D01*
X121447623Y-109814084D02*
X121447623Y-109014084D01*
X121638100Y-109014084D01*
X121752385Y-109052180D01*
X121828576Y-109128370D01*
X121866671Y-109204560D01*
X121904766Y-109356941D01*
X121904766Y-109471227D01*
X121866671Y-109623608D01*
X121828576Y-109699799D01*
X121752385Y-109775989D01*
X121638100Y-109814084D01*
X121447623Y-109814084D01*
D10*
X116516100Y-43242180D02*
X157156100Y-43242180D01*
X116516100Y-64070180D02*
X116516100Y-43242180D01*
X121528100Y-64070180D02*
X116516100Y-64070180D01*
X157156100Y-55162180D02*
X157156100Y-64070180D01*
D14*
%TO.C,REF\u002A\u002A*%
X134977000Y-105473500D02*
G75*
G03*
X134977000Y-105473500I-6750000J0D01*
G01*
D15*
%TO.C,Ref\u002A\u002A*%
G36*
X161137933Y-45747180D02*
G01*
X161137933Y-48117846D01*
X162153933Y-48117846D01*
X162153933Y-47758013D01*
X161518933Y-47758013D01*
X161518933Y-47123013D01*
X162153933Y-47123013D01*
X162153933Y-46742013D01*
X161518933Y-46742013D01*
X161518933Y-46128180D01*
X162153933Y-46128180D01*
X162153933Y-46742013D01*
X162153933Y-47123013D01*
X162153933Y-47758013D01*
X162153933Y-48117846D01*
X162153933Y-49112680D01*
X163148766Y-49112680D01*
X163148766Y-48752846D01*
X162513766Y-48752846D01*
X162513766Y-48117846D01*
X163148766Y-48117846D01*
X163148766Y-47758013D01*
X162513766Y-47758013D01*
X162513766Y-47123013D01*
X163148766Y-47123013D01*
X163148766Y-46742013D01*
X162513766Y-46742013D01*
X162513766Y-46128180D01*
X163148766Y-46128180D01*
X163148766Y-46742013D01*
X163148766Y-47123013D01*
X163148766Y-47758013D01*
X163148766Y-48117846D01*
X163148766Y-48752846D01*
X163148766Y-49112680D01*
X163508600Y-49112680D01*
X163508600Y-48117846D01*
X164143600Y-48117846D01*
X164143600Y-47758013D01*
X163508600Y-47758013D01*
X163508600Y-47123013D01*
X164143600Y-47123013D01*
X164143600Y-46742013D01*
X163508600Y-46742013D01*
X163508600Y-46128180D01*
X164143600Y-46128180D01*
X164143600Y-46742013D01*
X164143600Y-47123013D01*
X164143600Y-47758013D01*
X164143600Y-48117846D01*
X164143600Y-49112680D01*
X165138433Y-49112680D01*
X165138433Y-48752846D01*
X164524600Y-48752846D01*
X164524600Y-48117846D01*
X165138433Y-48117846D01*
X165138433Y-47758013D01*
X164524600Y-47758013D01*
X164524600Y-47123013D01*
X165138433Y-47123013D01*
X165138433Y-46742013D01*
X164524600Y-46742013D01*
X164524600Y-46128180D01*
X165138433Y-46128180D01*
X165138433Y-46742013D01*
X165138433Y-47123013D01*
X165138433Y-47758013D01*
X165138433Y-48117846D01*
X165138433Y-48752846D01*
X165138433Y-49112680D01*
X165519433Y-49112680D01*
X165519433Y-48117846D01*
X166154433Y-48117846D01*
X166154433Y-47758013D01*
X165519433Y-47758013D01*
X165519433Y-47123013D01*
X166154433Y-47123013D01*
X166154433Y-46742013D01*
X165519433Y-46742013D01*
X165519433Y-46128180D01*
X166154433Y-46128180D01*
X166154433Y-46742013D01*
X166154433Y-47123013D01*
X166154433Y-47758013D01*
X166154433Y-48117846D01*
X166514266Y-48117846D01*
X166514266Y-45747180D01*
X161137933Y-45747180D01*
G37*
X161137933Y-45747180D02*
X161137933Y-48117846D01*
X162153933Y-48117846D01*
X162153933Y-47758013D01*
X161518933Y-47758013D01*
X161518933Y-47123013D01*
X162153933Y-47123013D01*
X162153933Y-46742013D01*
X161518933Y-46742013D01*
X161518933Y-46128180D01*
X162153933Y-46128180D01*
X162153933Y-46742013D01*
X162153933Y-47123013D01*
X162153933Y-47758013D01*
X162153933Y-48117846D01*
X162153933Y-49112680D01*
X163148766Y-49112680D01*
X163148766Y-48752846D01*
X162513766Y-48752846D01*
X162513766Y-48117846D01*
X163148766Y-48117846D01*
X163148766Y-47758013D01*
X162513766Y-47758013D01*
X162513766Y-47123013D01*
X163148766Y-47123013D01*
X163148766Y-46742013D01*
X162513766Y-46742013D01*
X162513766Y-46128180D01*
X163148766Y-46128180D01*
X163148766Y-46742013D01*
X163148766Y-47123013D01*
X163148766Y-47758013D01*
X163148766Y-48117846D01*
X163148766Y-48752846D01*
X163148766Y-49112680D01*
X163508600Y-49112680D01*
X163508600Y-48117846D01*
X164143600Y-48117846D01*
X164143600Y-47758013D01*
X163508600Y-47758013D01*
X163508600Y-47123013D01*
X164143600Y-47123013D01*
X164143600Y-46742013D01*
X163508600Y-46742013D01*
X163508600Y-46128180D01*
X164143600Y-46128180D01*
X164143600Y-46742013D01*
X164143600Y-47123013D01*
X164143600Y-47758013D01*
X164143600Y-48117846D01*
X164143600Y-49112680D01*
X165138433Y-49112680D01*
X165138433Y-48752846D01*
X164524600Y-48752846D01*
X164524600Y-48117846D01*
X165138433Y-48117846D01*
X165138433Y-47758013D01*
X164524600Y-47758013D01*
X164524600Y-47123013D01*
X165138433Y-47123013D01*
X165138433Y-46742013D01*
X164524600Y-46742013D01*
X164524600Y-46128180D01*
X165138433Y-46128180D01*
X165138433Y-46742013D01*
X165138433Y-47123013D01*
X165138433Y-47758013D01*
X165138433Y-48117846D01*
X165138433Y-48752846D01*
X165138433Y-49112680D01*
X165519433Y-49112680D01*
X165519433Y-48117846D01*
X166154433Y-48117846D01*
X166154433Y-47758013D01*
X165519433Y-47758013D01*
X165519433Y-47123013D01*
X166154433Y-47123013D01*
X166154433Y-46742013D01*
X165519433Y-46742013D01*
X165519433Y-46128180D01*
X166154433Y-46128180D01*
X166154433Y-46742013D01*
X166154433Y-47123013D01*
X166154433Y-47758013D01*
X166154433Y-48117846D01*
X166514266Y-48117846D01*
X166514266Y-45747180D01*
X161137933Y-45747180D01*
G36*
X166503683Y-51747930D02*
G01*
X165519433Y-51736566D01*
X165519433Y-51123513D01*
X165519433Y-50742513D01*
X165519433Y-50106381D01*
X165831641Y-50112239D01*
X166143850Y-50118096D01*
X166149707Y-50430305D01*
X166155565Y-50742513D01*
X165519433Y-50742513D01*
X165519433Y-51123513D01*
X166514266Y-51123513D01*
X166514266Y-49747680D01*
X164143600Y-49747680D01*
X164143600Y-50742513D01*
X161137933Y-50742513D01*
X161137933Y-52118346D01*
X162153933Y-52118346D01*
X162153933Y-51737346D01*
X161518933Y-51737346D01*
X161518933Y-51123513D01*
X162153933Y-51123513D01*
X162153933Y-51737346D01*
X162153933Y-52118346D01*
X163148766Y-52118346D01*
X163148766Y-51737346D01*
X162513766Y-51737346D01*
X162513766Y-51123513D01*
X163148766Y-51123513D01*
X163148766Y-51737346D01*
X163148766Y-52118346D01*
X164143600Y-52118346D01*
X164143600Y-51737346D01*
X163508600Y-51737346D01*
X163508600Y-51123513D01*
X164143600Y-51123513D01*
X164143600Y-51737346D01*
X164143600Y-52118346D01*
X164143600Y-53113180D01*
X165138433Y-53113180D01*
X165138433Y-52753346D01*
X164524600Y-52753346D01*
X164524600Y-52118346D01*
X165138433Y-52118346D01*
X165138433Y-51737346D01*
X164524600Y-51737346D01*
X164524600Y-51123513D01*
X165138433Y-51123513D01*
X165138433Y-50742513D01*
X164524600Y-50742513D01*
X164524600Y-50107513D01*
X165138433Y-50107513D01*
X165138433Y-50742513D01*
X165138433Y-51123513D01*
X165138433Y-51737346D01*
X165138433Y-52118346D01*
X165138433Y-52753346D01*
X165138433Y-53113180D01*
X166154433Y-53113180D01*
X166154433Y-52753346D01*
X165519433Y-52753346D01*
X165519433Y-52118346D01*
X166154433Y-52118346D01*
X166154433Y-52753346D01*
X166154433Y-53113180D01*
X166514853Y-53113180D01*
X166503683Y-51747930D01*
G37*
X166503683Y-51747930D02*
X165519433Y-51736566D01*
X165519433Y-51123513D01*
X165519433Y-50742513D01*
X165519433Y-50106381D01*
X165831641Y-50112239D01*
X166143850Y-50118096D01*
X166149707Y-50430305D01*
X166155565Y-50742513D01*
X165519433Y-50742513D01*
X165519433Y-51123513D01*
X166514266Y-51123513D01*
X166514266Y-49747680D01*
X164143600Y-49747680D01*
X164143600Y-50742513D01*
X161137933Y-50742513D01*
X161137933Y-52118346D01*
X162153933Y-52118346D01*
X162153933Y-51737346D01*
X161518933Y-51737346D01*
X161518933Y-51123513D01*
X162153933Y-51123513D01*
X162153933Y-51737346D01*
X162153933Y-52118346D01*
X163148766Y-52118346D01*
X163148766Y-51737346D01*
X162513766Y-51737346D01*
X162513766Y-51123513D01*
X163148766Y-51123513D01*
X163148766Y-51737346D01*
X163148766Y-52118346D01*
X164143600Y-52118346D01*
X164143600Y-51737346D01*
X163508600Y-51737346D01*
X163508600Y-51123513D01*
X164143600Y-51123513D01*
X164143600Y-51737346D01*
X164143600Y-52118346D01*
X164143600Y-53113180D01*
X165138433Y-53113180D01*
X165138433Y-52753346D01*
X164524600Y-52753346D01*
X164524600Y-52118346D01*
X165138433Y-52118346D01*
X165138433Y-51737346D01*
X164524600Y-51737346D01*
X164524600Y-51123513D01*
X165138433Y-51123513D01*
X165138433Y-50742513D01*
X164524600Y-50742513D01*
X164524600Y-50107513D01*
X165138433Y-50107513D01*
X165138433Y-50742513D01*
X165138433Y-51123513D01*
X165138433Y-51737346D01*
X165138433Y-52118346D01*
X165138433Y-52753346D01*
X165138433Y-53113180D01*
X166154433Y-53113180D01*
X166154433Y-52753346D01*
X165519433Y-52753346D01*
X165519433Y-52118346D01*
X166154433Y-52118346D01*
X166154433Y-52753346D01*
X166154433Y-53113180D01*
X166514853Y-53113180D01*
X166503683Y-51747930D01*
G36*
X165138433Y-53748180D02*
G01*
X165138433Y-54743013D01*
X161137933Y-54743013D01*
X161137933Y-56118846D01*
X162153933Y-56118846D01*
X162153933Y-55737846D01*
X161518933Y-55737846D01*
X161518933Y-55124013D01*
X162153933Y-55124013D01*
X162153933Y-55737846D01*
X162153933Y-56118846D01*
X163148766Y-56118846D01*
X163148766Y-55737846D01*
X162513766Y-55737846D01*
X162513766Y-55124013D01*
X163148766Y-55124013D01*
X163148766Y-55737846D01*
X163148766Y-56118846D01*
X164143600Y-56118846D01*
X164143600Y-55737846D01*
X163508600Y-55737846D01*
X163508600Y-55124013D01*
X164143600Y-55124013D01*
X164143600Y-55737846D01*
X164143600Y-56118846D01*
X165138433Y-56118846D01*
X165138433Y-55737846D01*
X164524600Y-55737846D01*
X164524600Y-55124013D01*
X165138433Y-55124013D01*
X165138433Y-55737846D01*
X165138433Y-56118846D01*
X165138433Y-57113680D01*
X166154433Y-57113680D01*
X166154433Y-56753846D01*
X165519433Y-56753846D01*
X165519433Y-56118846D01*
X166154433Y-56118846D01*
X166154433Y-55737846D01*
X165519433Y-55737846D01*
X165519433Y-55124013D01*
X166154433Y-55124013D01*
X166154433Y-54743013D01*
X165519433Y-54743013D01*
X165519433Y-54108013D01*
X166154433Y-54108013D01*
X166154433Y-54743013D01*
X166154433Y-55124013D01*
X166154433Y-55737846D01*
X166154433Y-56118846D01*
X166154433Y-56753846D01*
X166154433Y-57113680D01*
X166514266Y-57113680D01*
X166514266Y-53748180D01*
X165138433Y-53748180D01*
G37*
X165138433Y-53748180D02*
X165138433Y-54743013D01*
X161137933Y-54743013D01*
X161137933Y-56118846D01*
X162153933Y-56118846D01*
X162153933Y-55737846D01*
X161518933Y-55737846D01*
X161518933Y-55124013D01*
X162153933Y-55124013D01*
X162153933Y-55737846D01*
X162153933Y-56118846D01*
X163148766Y-56118846D01*
X163148766Y-55737846D01*
X162513766Y-55737846D01*
X162513766Y-55124013D01*
X163148766Y-55124013D01*
X163148766Y-55737846D01*
X163148766Y-56118846D01*
X164143600Y-56118846D01*
X164143600Y-55737846D01*
X163508600Y-55737846D01*
X163508600Y-55124013D01*
X164143600Y-55124013D01*
X164143600Y-55737846D01*
X164143600Y-56118846D01*
X165138433Y-56118846D01*
X165138433Y-55737846D01*
X164524600Y-55737846D01*
X164524600Y-55124013D01*
X165138433Y-55124013D01*
X165138433Y-55737846D01*
X165138433Y-56118846D01*
X165138433Y-57113680D01*
X166154433Y-57113680D01*
X166154433Y-56753846D01*
X165519433Y-56753846D01*
X165519433Y-56118846D01*
X166154433Y-56118846D01*
X166154433Y-55737846D01*
X165519433Y-55737846D01*
X165519433Y-55124013D01*
X166154433Y-55124013D01*
X166154433Y-54743013D01*
X165519433Y-54743013D01*
X165519433Y-54108013D01*
X166154433Y-54108013D01*
X166154433Y-54743013D01*
X166154433Y-55124013D01*
X166154433Y-55737846D01*
X166154433Y-56118846D01*
X166154433Y-56753846D01*
X166154433Y-57113680D01*
X166514266Y-57113680D01*
X166514266Y-53748180D01*
X165138433Y-53748180D01*
G36*
X161137933Y-57748680D02*
G01*
X161137933Y-61114180D01*
X162153933Y-61114180D01*
X162153933Y-60754346D01*
X161518933Y-60754346D01*
X161518933Y-60119346D01*
X162153933Y-60119346D01*
X162153933Y-59738346D01*
X161518933Y-59738346D01*
X161518933Y-59124513D01*
X162153933Y-59124513D01*
X162153933Y-58743513D01*
X161518933Y-58743513D01*
X161518933Y-58108513D01*
X162153933Y-58108513D01*
X162153933Y-58743513D01*
X162153933Y-59124513D01*
X162153933Y-59738346D01*
X162153933Y-60119346D01*
X162153933Y-60754346D01*
X162153933Y-61114180D01*
X162513766Y-61114180D01*
X162513766Y-59124513D01*
X163148766Y-59124513D01*
X163148766Y-58743513D01*
X162513766Y-58743513D01*
X162513766Y-58108513D01*
X163148766Y-58108513D01*
X163148766Y-58743513D01*
X163148766Y-59124513D01*
X163148766Y-61114180D01*
X164143600Y-61114180D01*
X164143600Y-60754346D01*
X163508600Y-60754346D01*
X163508600Y-60119346D01*
X164143600Y-60119346D01*
X164143600Y-59738346D01*
X163508600Y-59738346D01*
X163508600Y-59124513D01*
X164143600Y-59124513D01*
X164143600Y-58743513D01*
X163508600Y-58743513D01*
X163508600Y-58108513D01*
X164143600Y-58108513D01*
X164143600Y-58743513D01*
X164143600Y-59124513D01*
X164143600Y-59738346D01*
X164143600Y-60119346D01*
X164143600Y-60754346D01*
X164143600Y-61114180D01*
X164524600Y-61114180D01*
X164524600Y-59124513D01*
X165138433Y-59124513D01*
X165138433Y-58743513D01*
X164524600Y-58743513D01*
X164524600Y-58108513D01*
X165138433Y-58108513D01*
X165138433Y-58743513D01*
X165138433Y-59124513D01*
X165138433Y-61114180D01*
X166154433Y-61114180D01*
X166154433Y-60754346D01*
X165519433Y-60754346D01*
X165519433Y-60119346D01*
X166154433Y-60119346D01*
X166154433Y-59738346D01*
X165519433Y-59738346D01*
X165519433Y-59124513D01*
X166154433Y-59124513D01*
X166154433Y-58743513D01*
X165519433Y-58743513D01*
X165519433Y-58108513D01*
X166154433Y-58108513D01*
X166154433Y-58743513D01*
X166154433Y-59124513D01*
X166154433Y-59738346D01*
X166154433Y-60119346D01*
X166154433Y-60754346D01*
X166154433Y-61114180D01*
X166514266Y-61114180D01*
X166514266Y-57748680D01*
X161137933Y-57748680D01*
G37*
X161137933Y-57748680D02*
X161137933Y-61114180D01*
X162153933Y-61114180D01*
X162153933Y-60754346D01*
X161518933Y-60754346D01*
X161518933Y-60119346D01*
X162153933Y-60119346D01*
X162153933Y-59738346D01*
X161518933Y-59738346D01*
X161518933Y-59124513D01*
X162153933Y-59124513D01*
X162153933Y-58743513D01*
X161518933Y-58743513D01*
X161518933Y-58108513D01*
X162153933Y-58108513D01*
X162153933Y-58743513D01*
X162153933Y-59124513D01*
X162153933Y-59738346D01*
X162153933Y-60119346D01*
X162153933Y-60754346D01*
X162153933Y-61114180D01*
X162513766Y-61114180D01*
X162513766Y-59124513D01*
X163148766Y-59124513D01*
X163148766Y-58743513D01*
X162513766Y-58743513D01*
X162513766Y-58108513D01*
X163148766Y-58108513D01*
X163148766Y-58743513D01*
X163148766Y-59124513D01*
X163148766Y-61114180D01*
X164143600Y-61114180D01*
X164143600Y-60754346D01*
X163508600Y-60754346D01*
X163508600Y-60119346D01*
X164143600Y-60119346D01*
X164143600Y-59738346D01*
X163508600Y-59738346D01*
X163508600Y-59124513D01*
X164143600Y-59124513D01*
X164143600Y-58743513D01*
X163508600Y-58743513D01*
X163508600Y-58108513D01*
X164143600Y-58108513D01*
X164143600Y-58743513D01*
X164143600Y-59124513D01*
X164143600Y-59738346D01*
X164143600Y-60119346D01*
X164143600Y-60754346D01*
X164143600Y-61114180D01*
X164524600Y-61114180D01*
X164524600Y-59124513D01*
X165138433Y-59124513D01*
X165138433Y-58743513D01*
X164524600Y-58743513D01*
X164524600Y-58108513D01*
X165138433Y-58108513D01*
X165138433Y-58743513D01*
X165138433Y-59124513D01*
X165138433Y-61114180D01*
X166154433Y-61114180D01*
X166154433Y-60754346D01*
X165519433Y-60754346D01*
X165519433Y-60119346D01*
X166154433Y-60119346D01*
X166154433Y-59738346D01*
X165519433Y-59738346D01*
X165519433Y-59124513D01*
X166154433Y-59124513D01*
X166154433Y-58743513D01*
X165519433Y-58743513D01*
X165519433Y-58108513D01*
X166154433Y-58108513D01*
X166154433Y-58743513D01*
X166154433Y-59124513D01*
X166154433Y-59738346D01*
X166154433Y-60119346D01*
X166154433Y-60754346D01*
X166154433Y-61114180D01*
X166514266Y-61114180D01*
X166514266Y-57748680D01*
X161137933Y-57748680D01*
G36*
X122748267Y-60977180D02*
G01*
X122748267Y-58606514D01*
X121732267Y-58606514D01*
X121732267Y-58966347D01*
X122367267Y-58966347D01*
X122367267Y-59601347D01*
X121732267Y-59601347D01*
X121732267Y-59982347D01*
X122367267Y-59982347D01*
X122367267Y-60596180D01*
X121732267Y-60596180D01*
X121732267Y-59982347D01*
X121732267Y-59601347D01*
X121732267Y-58966347D01*
X121732267Y-58606514D01*
X121732267Y-57611680D01*
X120737434Y-57611680D01*
X120737434Y-57971514D01*
X121372434Y-57971514D01*
X121372434Y-58606514D01*
X120737434Y-58606514D01*
X120737434Y-58966347D01*
X121372434Y-58966347D01*
X121372434Y-59601347D01*
X120737434Y-59601347D01*
X120737434Y-59982347D01*
X121372434Y-59982347D01*
X121372434Y-60596180D01*
X120737434Y-60596180D01*
X120737434Y-59982347D01*
X120737434Y-59601347D01*
X120737434Y-58966347D01*
X120737434Y-58606514D01*
X120737434Y-57971514D01*
X120737434Y-57611680D01*
X120377600Y-57611680D01*
X120377600Y-58606514D01*
X119742600Y-58606514D01*
X119742600Y-58966347D01*
X120377600Y-58966347D01*
X120377600Y-59601347D01*
X119742600Y-59601347D01*
X119742600Y-59982347D01*
X120377600Y-59982347D01*
X120377600Y-60596180D01*
X119742600Y-60596180D01*
X119742600Y-59982347D01*
X119742600Y-59601347D01*
X119742600Y-58966347D01*
X119742600Y-58606514D01*
X119742600Y-57611680D01*
X118747767Y-57611680D01*
X118747767Y-57971514D01*
X119361600Y-57971514D01*
X119361600Y-58606514D01*
X118747767Y-58606514D01*
X118747767Y-58966347D01*
X119361600Y-58966347D01*
X119361600Y-59601347D01*
X118747767Y-59601347D01*
X118747767Y-59982347D01*
X119361600Y-59982347D01*
X119361600Y-60596180D01*
X118747767Y-60596180D01*
X118747767Y-59982347D01*
X118747767Y-59601347D01*
X118747767Y-58966347D01*
X118747767Y-58606514D01*
X118747767Y-57971514D01*
X118747767Y-57611680D01*
X118366767Y-57611680D01*
X118366767Y-58606514D01*
X117731767Y-58606514D01*
X117731767Y-58966347D01*
X118366767Y-58966347D01*
X118366767Y-59601347D01*
X117731767Y-59601347D01*
X117731767Y-59982347D01*
X118366767Y-59982347D01*
X118366767Y-60596180D01*
X117731767Y-60596180D01*
X117731767Y-59982347D01*
X117731767Y-59601347D01*
X117731767Y-58966347D01*
X117731767Y-58606514D01*
X117371934Y-58606514D01*
X117371934Y-60977180D01*
X122748267Y-60977180D01*
G37*
X122748267Y-60977180D02*
X122748267Y-58606514D01*
X121732267Y-58606514D01*
X121732267Y-58966347D01*
X122367267Y-58966347D01*
X122367267Y-59601347D01*
X121732267Y-59601347D01*
X121732267Y-59982347D01*
X122367267Y-59982347D01*
X122367267Y-60596180D01*
X121732267Y-60596180D01*
X121732267Y-59982347D01*
X121732267Y-59601347D01*
X121732267Y-58966347D01*
X121732267Y-58606514D01*
X121732267Y-57611680D01*
X120737434Y-57611680D01*
X120737434Y-57971514D01*
X121372434Y-57971514D01*
X121372434Y-58606514D01*
X120737434Y-58606514D01*
X120737434Y-58966347D01*
X121372434Y-58966347D01*
X121372434Y-59601347D01*
X120737434Y-59601347D01*
X120737434Y-59982347D01*
X121372434Y-59982347D01*
X121372434Y-60596180D01*
X120737434Y-60596180D01*
X120737434Y-59982347D01*
X120737434Y-59601347D01*
X120737434Y-58966347D01*
X120737434Y-58606514D01*
X120737434Y-57971514D01*
X120737434Y-57611680D01*
X120377600Y-57611680D01*
X120377600Y-58606514D01*
X119742600Y-58606514D01*
X119742600Y-58966347D01*
X120377600Y-58966347D01*
X120377600Y-59601347D01*
X119742600Y-59601347D01*
X119742600Y-59982347D01*
X120377600Y-59982347D01*
X120377600Y-60596180D01*
X119742600Y-60596180D01*
X119742600Y-59982347D01*
X119742600Y-59601347D01*
X119742600Y-58966347D01*
X119742600Y-58606514D01*
X119742600Y-57611680D01*
X118747767Y-57611680D01*
X118747767Y-57971514D01*
X119361600Y-57971514D01*
X119361600Y-58606514D01*
X118747767Y-58606514D01*
X118747767Y-58966347D01*
X119361600Y-58966347D01*
X119361600Y-59601347D01*
X118747767Y-59601347D01*
X118747767Y-59982347D01*
X119361600Y-59982347D01*
X119361600Y-60596180D01*
X118747767Y-60596180D01*
X118747767Y-59982347D01*
X118747767Y-59601347D01*
X118747767Y-58966347D01*
X118747767Y-58606514D01*
X118747767Y-57971514D01*
X118747767Y-57611680D01*
X118366767Y-57611680D01*
X118366767Y-58606514D01*
X117731767Y-58606514D01*
X117731767Y-58966347D01*
X118366767Y-58966347D01*
X118366767Y-59601347D01*
X117731767Y-59601347D01*
X117731767Y-59982347D01*
X118366767Y-59982347D01*
X118366767Y-60596180D01*
X117731767Y-60596180D01*
X117731767Y-59982347D01*
X117731767Y-59601347D01*
X117731767Y-58966347D01*
X117731767Y-58606514D01*
X117371934Y-58606514D01*
X117371934Y-60977180D01*
X122748267Y-60977180D01*
G36*
X117382517Y-54976430D02*
G01*
X118366767Y-54987794D01*
X118366767Y-55600847D01*
X118366767Y-55981847D01*
X118366767Y-56617979D01*
X118054559Y-56612121D01*
X117742350Y-56606264D01*
X117736493Y-56294055D01*
X117730635Y-55981847D01*
X118366767Y-55981847D01*
X118366767Y-55600847D01*
X117371934Y-55600847D01*
X117371934Y-56976680D01*
X119742600Y-56976680D01*
X119742600Y-55981847D01*
X122748267Y-55981847D01*
X122748267Y-54606014D01*
X121732267Y-54606014D01*
X121732267Y-54987014D01*
X122367267Y-54987014D01*
X122367267Y-55600847D01*
X121732267Y-55600847D01*
X121732267Y-54987014D01*
X121732267Y-54606014D01*
X120737434Y-54606014D01*
X120737434Y-54987014D01*
X121372434Y-54987014D01*
X121372434Y-55600847D01*
X120737434Y-55600847D01*
X120737434Y-54987014D01*
X120737434Y-54606014D01*
X119742600Y-54606014D01*
X119742600Y-54987014D01*
X120377600Y-54987014D01*
X120377600Y-55600847D01*
X119742600Y-55600847D01*
X119742600Y-54987014D01*
X119742600Y-54606014D01*
X119742600Y-53611180D01*
X118747767Y-53611180D01*
X118747767Y-53971014D01*
X119361600Y-53971014D01*
X119361600Y-54606014D01*
X118747767Y-54606014D01*
X118747767Y-54987014D01*
X119361600Y-54987014D01*
X119361600Y-55600847D01*
X118747767Y-55600847D01*
X118747767Y-55981847D01*
X119361600Y-55981847D01*
X119361600Y-56616847D01*
X118747767Y-56616847D01*
X118747767Y-55981847D01*
X118747767Y-55600847D01*
X118747767Y-54987014D01*
X118747767Y-54606014D01*
X118747767Y-53971014D01*
X118747767Y-53611180D01*
X117731767Y-53611180D01*
X117731767Y-53971014D01*
X118366767Y-53971014D01*
X118366767Y-54606014D01*
X117731767Y-54606014D01*
X117731767Y-53971014D01*
X117731767Y-53611180D01*
X117371347Y-53611180D01*
X117382517Y-54976430D01*
G37*
X117382517Y-54976430D02*
X118366767Y-54987794D01*
X118366767Y-55600847D01*
X118366767Y-55981847D01*
X118366767Y-56617979D01*
X118054559Y-56612121D01*
X117742350Y-56606264D01*
X117736493Y-56294055D01*
X117730635Y-55981847D01*
X118366767Y-55981847D01*
X118366767Y-55600847D01*
X117371934Y-55600847D01*
X117371934Y-56976680D01*
X119742600Y-56976680D01*
X119742600Y-55981847D01*
X122748267Y-55981847D01*
X122748267Y-54606014D01*
X121732267Y-54606014D01*
X121732267Y-54987014D01*
X122367267Y-54987014D01*
X122367267Y-55600847D01*
X121732267Y-55600847D01*
X121732267Y-54987014D01*
X121732267Y-54606014D01*
X120737434Y-54606014D01*
X120737434Y-54987014D01*
X121372434Y-54987014D01*
X121372434Y-55600847D01*
X120737434Y-55600847D01*
X120737434Y-54987014D01*
X120737434Y-54606014D01*
X119742600Y-54606014D01*
X119742600Y-54987014D01*
X120377600Y-54987014D01*
X120377600Y-55600847D01*
X119742600Y-55600847D01*
X119742600Y-54987014D01*
X119742600Y-54606014D01*
X119742600Y-53611180D01*
X118747767Y-53611180D01*
X118747767Y-53971014D01*
X119361600Y-53971014D01*
X119361600Y-54606014D01*
X118747767Y-54606014D01*
X118747767Y-54987014D01*
X119361600Y-54987014D01*
X119361600Y-55600847D01*
X118747767Y-55600847D01*
X118747767Y-55981847D01*
X119361600Y-55981847D01*
X119361600Y-56616847D01*
X118747767Y-56616847D01*
X118747767Y-55981847D01*
X118747767Y-55600847D01*
X118747767Y-54987014D01*
X118747767Y-54606014D01*
X118747767Y-53971014D01*
X118747767Y-53611180D01*
X117731767Y-53611180D01*
X117731767Y-53971014D01*
X118366767Y-53971014D01*
X118366767Y-54606014D01*
X117731767Y-54606014D01*
X117731767Y-53971014D01*
X117731767Y-53611180D01*
X117371347Y-53611180D01*
X117382517Y-54976430D01*
G36*
X118747767Y-52976180D02*
G01*
X118747767Y-51981347D01*
X122748267Y-51981347D01*
X122748267Y-50605514D01*
X121732267Y-50605514D01*
X121732267Y-50986514D01*
X122367267Y-50986514D01*
X122367267Y-51600347D01*
X121732267Y-51600347D01*
X121732267Y-50986514D01*
X121732267Y-50605514D01*
X120737434Y-50605514D01*
X120737434Y-50986514D01*
X121372434Y-50986514D01*
X121372434Y-51600347D01*
X120737434Y-51600347D01*
X120737434Y-50986514D01*
X120737434Y-50605514D01*
X119742600Y-50605514D01*
X119742600Y-50986514D01*
X120377600Y-50986514D01*
X120377600Y-51600347D01*
X119742600Y-51600347D01*
X119742600Y-50986514D01*
X119742600Y-50605514D01*
X118747767Y-50605514D01*
X118747767Y-50986514D01*
X119361600Y-50986514D01*
X119361600Y-51600347D01*
X118747767Y-51600347D01*
X118747767Y-50986514D01*
X118747767Y-50605514D01*
X118747767Y-49610680D01*
X117731767Y-49610680D01*
X117731767Y-49970514D01*
X118366767Y-49970514D01*
X118366767Y-50605514D01*
X117731767Y-50605514D01*
X117731767Y-50986514D01*
X118366767Y-50986514D01*
X118366767Y-51600347D01*
X117731767Y-51600347D01*
X117731767Y-51981347D01*
X118366767Y-51981347D01*
X118366767Y-52616347D01*
X117731767Y-52616347D01*
X117731767Y-51981347D01*
X117731767Y-51600347D01*
X117731767Y-50986514D01*
X117731767Y-50605514D01*
X117731767Y-49970514D01*
X117731767Y-49610680D01*
X117371934Y-49610680D01*
X117371934Y-52976180D01*
X118747767Y-52976180D01*
G37*
X118747767Y-52976180D02*
X118747767Y-51981347D01*
X122748267Y-51981347D01*
X122748267Y-50605514D01*
X121732267Y-50605514D01*
X121732267Y-50986514D01*
X122367267Y-50986514D01*
X122367267Y-51600347D01*
X121732267Y-51600347D01*
X121732267Y-50986514D01*
X121732267Y-50605514D01*
X120737434Y-50605514D01*
X120737434Y-50986514D01*
X121372434Y-50986514D01*
X121372434Y-51600347D01*
X120737434Y-51600347D01*
X120737434Y-50986514D01*
X120737434Y-50605514D01*
X119742600Y-50605514D01*
X119742600Y-50986514D01*
X120377600Y-50986514D01*
X120377600Y-51600347D01*
X119742600Y-51600347D01*
X119742600Y-50986514D01*
X119742600Y-50605514D01*
X118747767Y-50605514D01*
X118747767Y-50986514D01*
X119361600Y-50986514D01*
X119361600Y-51600347D01*
X118747767Y-51600347D01*
X118747767Y-50986514D01*
X118747767Y-50605514D01*
X118747767Y-49610680D01*
X117731767Y-49610680D01*
X117731767Y-49970514D01*
X118366767Y-49970514D01*
X118366767Y-50605514D01*
X117731767Y-50605514D01*
X117731767Y-50986514D01*
X118366767Y-50986514D01*
X118366767Y-51600347D01*
X117731767Y-51600347D01*
X117731767Y-51981347D01*
X118366767Y-51981347D01*
X118366767Y-52616347D01*
X117731767Y-52616347D01*
X117731767Y-51981347D01*
X117731767Y-51600347D01*
X117731767Y-50986514D01*
X117731767Y-50605514D01*
X117731767Y-49970514D01*
X117731767Y-49610680D01*
X117371934Y-49610680D01*
X117371934Y-52976180D01*
X118747767Y-52976180D01*
G36*
X122748267Y-48975680D02*
G01*
X122748267Y-45610180D01*
X121732267Y-45610180D01*
X121732267Y-45970014D01*
X122367267Y-45970014D01*
X122367267Y-46605014D01*
X121732267Y-46605014D01*
X121732267Y-46986014D01*
X122367267Y-46986014D01*
X122367267Y-47599847D01*
X121732267Y-47599847D01*
X121732267Y-47980847D01*
X122367267Y-47980847D01*
X122367267Y-48615847D01*
X121732267Y-48615847D01*
X121732267Y-47980847D01*
X121732267Y-47599847D01*
X121732267Y-46986014D01*
X121732267Y-46605014D01*
X121732267Y-45970014D01*
X121732267Y-45610180D01*
X121372434Y-45610180D01*
X121372434Y-47599847D01*
X120737434Y-47599847D01*
X120737434Y-47980847D01*
X121372434Y-47980847D01*
X121372434Y-48615847D01*
X120737434Y-48615847D01*
X120737434Y-47980847D01*
X120737434Y-47599847D01*
X120737434Y-45610180D01*
X119742600Y-45610180D01*
X119742600Y-45970014D01*
X120377600Y-45970014D01*
X120377600Y-46605014D01*
X119742600Y-46605014D01*
X119742600Y-46986014D01*
X120377600Y-46986014D01*
X120377600Y-47599847D01*
X119742600Y-47599847D01*
X119742600Y-47980847D01*
X120377600Y-47980847D01*
X120377600Y-48615847D01*
X119742600Y-48615847D01*
X119742600Y-47980847D01*
X119742600Y-47599847D01*
X119742600Y-46986014D01*
X119742600Y-46605014D01*
X119742600Y-45970014D01*
X119742600Y-45610180D01*
X119361600Y-45610180D01*
X119361600Y-47599847D01*
X118747767Y-47599847D01*
X118747767Y-47980847D01*
X119361600Y-47980847D01*
X119361600Y-48615847D01*
X118747767Y-48615847D01*
X118747767Y-47980847D01*
X118747767Y-47599847D01*
X118747767Y-45610180D01*
X117731767Y-45610180D01*
X117731767Y-45970014D01*
X118366767Y-45970014D01*
X118366767Y-46605014D01*
X117731767Y-46605014D01*
X117731767Y-46986014D01*
X118366767Y-46986014D01*
X118366767Y-47599847D01*
X117731767Y-47599847D01*
X117731767Y-47980847D01*
X118366767Y-47980847D01*
X118366767Y-48615847D01*
X117731767Y-48615847D01*
X117731767Y-47980847D01*
X117731767Y-47599847D01*
X117731767Y-46986014D01*
X117731767Y-46605014D01*
X117731767Y-45970014D01*
X117731767Y-45610180D01*
X117371934Y-45610180D01*
X117371934Y-48975680D01*
X122748267Y-48975680D01*
G37*
X122748267Y-48975680D02*
X122748267Y-45610180D01*
X121732267Y-45610180D01*
X121732267Y-45970014D01*
X122367267Y-45970014D01*
X122367267Y-46605014D01*
X121732267Y-46605014D01*
X121732267Y-46986014D01*
X122367267Y-46986014D01*
X122367267Y-47599847D01*
X121732267Y-47599847D01*
X121732267Y-47980847D01*
X122367267Y-47980847D01*
X122367267Y-48615847D01*
X121732267Y-48615847D01*
X121732267Y-47980847D01*
X121732267Y-47599847D01*
X121732267Y-46986014D01*
X121732267Y-46605014D01*
X121732267Y-45970014D01*
X121732267Y-45610180D01*
X121372434Y-45610180D01*
X121372434Y-47599847D01*
X120737434Y-47599847D01*
X120737434Y-47980847D01*
X121372434Y-47980847D01*
X121372434Y-48615847D01*
X120737434Y-48615847D01*
X120737434Y-47980847D01*
X120737434Y-47599847D01*
X120737434Y-45610180D01*
X119742600Y-45610180D01*
X119742600Y-45970014D01*
X120377600Y-45970014D01*
X120377600Y-46605014D01*
X119742600Y-46605014D01*
X119742600Y-46986014D01*
X120377600Y-46986014D01*
X120377600Y-47599847D01*
X119742600Y-47599847D01*
X119742600Y-47980847D01*
X120377600Y-47980847D01*
X120377600Y-48615847D01*
X119742600Y-48615847D01*
X119742600Y-47980847D01*
X119742600Y-47599847D01*
X119742600Y-46986014D01*
X119742600Y-46605014D01*
X119742600Y-45970014D01*
X119742600Y-45610180D01*
X119361600Y-45610180D01*
X119361600Y-47599847D01*
X118747767Y-47599847D01*
X118747767Y-47980847D01*
X119361600Y-47980847D01*
X119361600Y-48615847D01*
X118747767Y-48615847D01*
X118747767Y-47980847D01*
X118747767Y-47599847D01*
X118747767Y-45610180D01*
X117731767Y-45610180D01*
X117731767Y-45970014D01*
X118366767Y-45970014D01*
X118366767Y-46605014D01*
X117731767Y-46605014D01*
X117731767Y-46986014D01*
X118366767Y-46986014D01*
X118366767Y-47599847D01*
X117731767Y-47599847D01*
X117731767Y-47980847D01*
X118366767Y-47980847D01*
X118366767Y-48615847D01*
X117731767Y-48615847D01*
X117731767Y-47980847D01*
X117731767Y-47599847D01*
X117731767Y-46986014D01*
X117731767Y-46605014D01*
X117731767Y-45970014D01*
X117731767Y-45610180D01*
X117371934Y-45610180D01*
X117371934Y-48975680D01*
X122748267Y-48975680D01*
G36*
X141637933Y-109748680D02*
G01*
X141637933Y-113114180D01*
X142653933Y-113114180D01*
X142653933Y-112754346D01*
X142018933Y-112754346D01*
X142018933Y-112119346D01*
X142653933Y-112119346D01*
X142653933Y-111738346D01*
X142018933Y-111738346D01*
X142018933Y-111124513D01*
X142653933Y-111124513D01*
X142653933Y-110743513D01*
X142018933Y-110743513D01*
X142018933Y-110108513D01*
X142653933Y-110108513D01*
X142653933Y-110743513D01*
X142653933Y-111124513D01*
X142653933Y-111738346D01*
X142653933Y-112119346D01*
X142653933Y-112754346D01*
X142653933Y-113114180D01*
X143013766Y-113114180D01*
X143013766Y-111124513D01*
X143648766Y-111124513D01*
X143648766Y-110743513D01*
X143013766Y-110743513D01*
X143013766Y-110108513D01*
X143648766Y-110108513D01*
X143648766Y-110743513D01*
X143648766Y-111124513D01*
X143648766Y-113114180D01*
X144643600Y-113114180D01*
X144643600Y-112754346D01*
X144008600Y-112754346D01*
X144008600Y-112119346D01*
X144643600Y-112119346D01*
X144643600Y-111738346D01*
X144008600Y-111738346D01*
X144008600Y-111124513D01*
X144643600Y-111124513D01*
X144643600Y-110743513D01*
X144008600Y-110743513D01*
X144008600Y-110108513D01*
X144643600Y-110108513D01*
X144643600Y-110743513D01*
X144643600Y-111124513D01*
X144643600Y-111738346D01*
X144643600Y-112119346D01*
X144643600Y-112754346D01*
X144643600Y-113114180D01*
X145024600Y-113114180D01*
X145024600Y-111124513D01*
X145638433Y-111124513D01*
X145638433Y-110743513D01*
X145024600Y-110743513D01*
X145024600Y-110108513D01*
X145638433Y-110108513D01*
X145638433Y-110743513D01*
X145638433Y-111124513D01*
X145638433Y-113114180D01*
X146654433Y-113114180D01*
X146654433Y-112754346D01*
X146019433Y-112754346D01*
X146019433Y-112119346D01*
X146654433Y-112119346D01*
X146654433Y-111738346D01*
X146019433Y-111738346D01*
X146019433Y-111124513D01*
X146654433Y-111124513D01*
X146654433Y-110743513D01*
X146019433Y-110743513D01*
X146019433Y-110108513D01*
X146654433Y-110108513D01*
X146654433Y-110743513D01*
X146654433Y-111124513D01*
X146654433Y-111738346D01*
X146654433Y-112119346D01*
X146654433Y-112754346D01*
X146654433Y-113114180D01*
X147014266Y-113114180D01*
X147014266Y-109748680D01*
X141637933Y-109748680D01*
G37*
X141637933Y-109748680D02*
X141637933Y-113114180D01*
X142653933Y-113114180D01*
X142653933Y-112754346D01*
X142018933Y-112754346D01*
X142018933Y-112119346D01*
X142653933Y-112119346D01*
X142653933Y-111738346D01*
X142018933Y-111738346D01*
X142018933Y-111124513D01*
X142653933Y-111124513D01*
X142653933Y-110743513D01*
X142018933Y-110743513D01*
X142018933Y-110108513D01*
X142653933Y-110108513D01*
X142653933Y-110743513D01*
X142653933Y-111124513D01*
X142653933Y-111738346D01*
X142653933Y-112119346D01*
X142653933Y-112754346D01*
X142653933Y-113114180D01*
X143013766Y-113114180D01*
X143013766Y-111124513D01*
X143648766Y-111124513D01*
X143648766Y-110743513D01*
X143013766Y-110743513D01*
X143013766Y-110108513D01*
X143648766Y-110108513D01*
X143648766Y-110743513D01*
X143648766Y-111124513D01*
X143648766Y-113114180D01*
X144643600Y-113114180D01*
X144643600Y-112754346D01*
X144008600Y-112754346D01*
X144008600Y-112119346D01*
X144643600Y-112119346D01*
X144643600Y-111738346D01*
X144008600Y-111738346D01*
X144008600Y-111124513D01*
X144643600Y-111124513D01*
X144643600Y-110743513D01*
X144008600Y-110743513D01*
X144008600Y-110108513D01*
X144643600Y-110108513D01*
X144643600Y-110743513D01*
X144643600Y-111124513D01*
X144643600Y-111738346D01*
X144643600Y-112119346D01*
X144643600Y-112754346D01*
X144643600Y-113114180D01*
X145024600Y-113114180D01*
X145024600Y-111124513D01*
X145638433Y-111124513D01*
X145638433Y-110743513D01*
X145024600Y-110743513D01*
X145024600Y-110108513D01*
X145638433Y-110108513D01*
X145638433Y-110743513D01*
X145638433Y-111124513D01*
X145638433Y-113114180D01*
X146654433Y-113114180D01*
X146654433Y-112754346D01*
X146019433Y-112754346D01*
X146019433Y-112119346D01*
X146654433Y-112119346D01*
X146654433Y-111738346D01*
X146019433Y-111738346D01*
X146019433Y-111124513D01*
X146654433Y-111124513D01*
X146654433Y-110743513D01*
X146019433Y-110743513D01*
X146019433Y-110108513D01*
X146654433Y-110108513D01*
X146654433Y-110743513D01*
X146654433Y-111124513D01*
X146654433Y-111738346D01*
X146654433Y-112119346D01*
X146654433Y-112754346D01*
X146654433Y-113114180D01*
X147014266Y-113114180D01*
X147014266Y-109748680D01*
X141637933Y-109748680D01*
G36*
X145638433Y-105748180D02*
G01*
X145638433Y-106743013D01*
X141637933Y-106743013D01*
X141637933Y-108118846D01*
X142653933Y-108118846D01*
X142653933Y-107737846D01*
X142018933Y-107737846D01*
X142018933Y-107124013D01*
X142653933Y-107124013D01*
X142653933Y-107737846D01*
X142653933Y-108118846D01*
X143648766Y-108118846D01*
X143648766Y-107737846D01*
X143013766Y-107737846D01*
X143013766Y-107124013D01*
X143648766Y-107124013D01*
X143648766Y-107737846D01*
X143648766Y-108118846D01*
X144643600Y-108118846D01*
X144643600Y-107737846D01*
X144008600Y-107737846D01*
X144008600Y-107124013D01*
X144643600Y-107124013D01*
X144643600Y-107737846D01*
X144643600Y-108118846D01*
X145638433Y-108118846D01*
X145638433Y-107737846D01*
X145024600Y-107737846D01*
X145024600Y-107124013D01*
X145638433Y-107124013D01*
X145638433Y-107737846D01*
X145638433Y-108118846D01*
X145638433Y-109113680D01*
X146654433Y-109113680D01*
X146654433Y-108753846D01*
X146019433Y-108753846D01*
X146019433Y-108118846D01*
X146654433Y-108118846D01*
X146654433Y-107737846D01*
X146019433Y-107737846D01*
X146019433Y-107124013D01*
X146654433Y-107124013D01*
X146654433Y-106743013D01*
X146019433Y-106743013D01*
X146019433Y-106108013D01*
X146654433Y-106108013D01*
X146654433Y-106743013D01*
X146654433Y-107124013D01*
X146654433Y-107737846D01*
X146654433Y-108118846D01*
X146654433Y-108753846D01*
X146654433Y-109113680D01*
X147014266Y-109113680D01*
X147014266Y-105748180D01*
X145638433Y-105748180D01*
G37*
X145638433Y-105748180D02*
X145638433Y-106743013D01*
X141637933Y-106743013D01*
X141637933Y-108118846D01*
X142653933Y-108118846D01*
X142653933Y-107737846D01*
X142018933Y-107737846D01*
X142018933Y-107124013D01*
X142653933Y-107124013D01*
X142653933Y-107737846D01*
X142653933Y-108118846D01*
X143648766Y-108118846D01*
X143648766Y-107737846D01*
X143013766Y-107737846D01*
X143013766Y-107124013D01*
X143648766Y-107124013D01*
X143648766Y-107737846D01*
X143648766Y-108118846D01*
X144643600Y-108118846D01*
X144643600Y-107737846D01*
X144008600Y-107737846D01*
X144008600Y-107124013D01*
X144643600Y-107124013D01*
X144643600Y-107737846D01*
X144643600Y-108118846D01*
X145638433Y-108118846D01*
X145638433Y-107737846D01*
X145024600Y-107737846D01*
X145024600Y-107124013D01*
X145638433Y-107124013D01*
X145638433Y-107737846D01*
X145638433Y-108118846D01*
X145638433Y-109113680D01*
X146654433Y-109113680D01*
X146654433Y-108753846D01*
X146019433Y-108753846D01*
X146019433Y-108118846D01*
X146654433Y-108118846D01*
X146654433Y-107737846D01*
X146019433Y-107737846D01*
X146019433Y-107124013D01*
X146654433Y-107124013D01*
X146654433Y-106743013D01*
X146019433Y-106743013D01*
X146019433Y-106108013D01*
X146654433Y-106108013D01*
X146654433Y-106743013D01*
X146654433Y-107124013D01*
X146654433Y-107737846D01*
X146654433Y-108118846D01*
X146654433Y-108753846D01*
X146654433Y-109113680D01*
X147014266Y-109113680D01*
X147014266Y-105748180D01*
X145638433Y-105748180D01*
G36*
X147003683Y-103747930D02*
G01*
X146019433Y-103736566D01*
X146019433Y-103123513D01*
X146019433Y-102742513D01*
X146019433Y-102106381D01*
X146331641Y-102112239D01*
X146643850Y-102118096D01*
X146649707Y-102430305D01*
X146655565Y-102742513D01*
X146019433Y-102742513D01*
X146019433Y-103123513D01*
X147014266Y-103123513D01*
X147014266Y-101747680D01*
X144643600Y-101747680D01*
X144643600Y-102742513D01*
X141637933Y-102742513D01*
X141637933Y-104118346D01*
X142653933Y-104118346D01*
X142653933Y-103737346D01*
X142018933Y-103737346D01*
X142018933Y-103123513D01*
X142653933Y-103123513D01*
X142653933Y-103737346D01*
X142653933Y-104118346D01*
X143648766Y-104118346D01*
X143648766Y-103737346D01*
X143013766Y-103737346D01*
X143013766Y-103123513D01*
X143648766Y-103123513D01*
X143648766Y-103737346D01*
X143648766Y-104118346D01*
X144643600Y-104118346D01*
X144643600Y-103737346D01*
X144008600Y-103737346D01*
X144008600Y-103123513D01*
X144643600Y-103123513D01*
X144643600Y-103737346D01*
X144643600Y-104118346D01*
X144643600Y-105113180D01*
X145638433Y-105113180D01*
X145638433Y-104753346D01*
X145024600Y-104753346D01*
X145024600Y-104118346D01*
X145638433Y-104118346D01*
X145638433Y-103737346D01*
X145024600Y-103737346D01*
X145024600Y-103123513D01*
X145638433Y-103123513D01*
X145638433Y-102742513D01*
X145024600Y-102742513D01*
X145024600Y-102107513D01*
X145638433Y-102107513D01*
X145638433Y-102742513D01*
X145638433Y-103123513D01*
X145638433Y-103737346D01*
X145638433Y-104118346D01*
X145638433Y-104753346D01*
X145638433Y-105113180D01*
X146654433Y-105113180D01*
X146654433Y-104753346D01*
X146019433Y-104753346D01*
X146019433Y-104118346D01*
X146654433Y-104118346D01*
X146654433Y-104753346D01*
X146654433Y-105113180D01*
X147014853Y-105113180D01*
X147003683Y-103747930D01*
G37*
X147003683Y-103747930D02*
X146019433Y-103736566D01*
X146019433Y-103123513D01*
X146019433Y-102742513D01*
X146019433Y-102106381D01*
X146331641Y-102112239D01*
X146643850Y-102118096D01*
X146649707Y-102430305D01*
X146655565Y-102742513D01*
X146019433Y-102742513D01*
X146019433Y-103123513D01*
X147014266Y-103123513D01*
X147014266Y-101747680D01*
X144643600Y-101747680D01*
X144643600Y-102742513D01*
X141637933Y-102742513D01*
X141637933Y-104118346D01*
X142653933Y-104118346D01*
X142653933Y-103737346D01*
X142018933Y-103737346D01*
X142018933Y-103123513D01*
X142653933Y-103123513D01*
X142653933Y-103737346D01*
X142653933Y-104118346D01*
X143648766Y-104118346D01*
X143648766Y-103737346D01*
X143013766Y-103737346D01*
X143013766Y-103123513D01*
X143648766Y-103123513D01*
X143648766Y-103737346D01*
X143648766Y-104118346D01*
X144643600Y-104118346D01*
X144643600Y-103737346D01*
X144008600Y-103737346D01*
X144008600Y-103123513D01*
X144643600Y-103123513D01*
X144643600Y-103737346D01*
X144643600Y-104118346D01*
X144643600Y-105113180D01*
X145638433Y-105113180D01*
X145638433Y-104753346D01*
X145024600Y-104753346D01*
X145024600Y-104118346D01*
X145638433Y-104118346D01*
X145638433Y-103737346D01*
X145024600Y-103737346D01*
X145024600Y-103123513D01*
X145638433Y-103123513D01*
X145638433Y-102742513D01*
X145024600Y-102742513D01*
X145024600Y-102107513D01*
X145638433Y-102107513D01*
X145638433Y-102742513D01*
X145638433Y-103123513D01*
X145638433Y-103737346D01*
X145638433Y-104118346D01*
X145638433Y-104753346D01*
X145638433Y-105113180D01*
X146654433Y-105113180D01*
X146654433Y-104753346D01*
X146019433Y-104753346D01*
X146019433Y-104118346D01*
X146654433Y-104118346D01*
X146654433Y-104753346D01*
X146654433Y-105113180D01*
X147014853Y-105113180D01*
X147003683Y-103747930D01*
G36*
X141637933Y-97747180D02*
G01*
X141637933Y-100117846D01*
X142653933Y-100117846D01*
X142653933Y-99758013D01*
X142018933Y-99758013D01*
X142018933Y-99123013D01*
X142653933Y-99123013D01*
X142653933Y-98742013D01*
X142018933Y-98742013D01*
X142018933Y-98128180D01*
X142653933Y-98128180D01*
X142653933Y-98742013D01*
X142653933Y-99123013D01*
X142653933Y-99758013D01*
X142653933Y-100117846D01*
X142653933Y-101112680D01*
X143648766Y-101112680D01*
X143648766Y-100752846D01*
X143013766Y-100752846D01*
X143013766Y-100117846D01*
X143648766Y-100117846D01*
X143648766Y-99758013D01*
X143013766Y-99758013D01*
X143013766Y-99123013D01*
X143648766Y-99123013D01*
X143648766Y-98742013D01*
X143013766Y-98742013D01*
X143013766Y-98128180D01*
X143648766Y-98128180D01*
X143648766Y-98742013D01*
X143648766Y-99123013D01*
X143648766Y-99758013D01*
X143648766Y-100117846D01*
X143648766Y-100752846D01*
X143648766Y-101112680D01*
X144008600Y-101112680D01*
X144008600Y-100117846D01*
X144643600Y-100117846D01*
X144643600Y-99758013D01*
X144008600Y-99758013D01*
X144008600Y-99123013D01*
X144643600Y-99123013D01*
X144643600Y-98742013D01*
X144008600Y-98742013D01*
X144008600Y-98128180D01*
X144643600Y-98128180D01*
X144643600Y-98742013D01*
X144643600Y-99123013D01*
X144643600Y-99758013D01*
X144643600Y-100117846D01*
X144643600Y-101112680D01*
X145638433Y-101112680D01*
X145638433Y-100752846D01*
X145024600Y-100752846D01*
X145024600Y-100117846D01*
X145638433Y-100117846D01*
X145638433Y-99758013D01*
X145024600Y-99758013D01*
X145024600Y-99123013D01*
X145638433Y-99123013D01*
X145638433Y-98742013D01*
X145024600Y-98742013D01*
X145024600Y-98128180D01*
X145638433Y-98128180D01*
X145638433Y-98742013D01*
X145638433Y-99123013D01*
X145638433Y-99758013D01*
X145638433Y-100117846D01*
X145638433Y-100752846D01*
X145638433Y-101112680D01*
X146019433Y-101112680D01*
X146019433Y-100117846D01*
X146654433Y-100117846D01*
X146654433Y-99758013D01*
X146019433Y-99758013D01*
X146019433Y-99123013D01*
X146654433Y-99123013D01*
X146654433Y-98742013D01*
X146019433Y-98742013D01*
X146019433Y-98128180D01*
X146654433Y-98128180D01*
X146654433Y-98742013D01*
X146654433Y-99123013D01*
X146654433Y-99758013D01*
X146654433Y-100117846D01*
X147014266Y-100117846D01*
X147014266Y-97747180D01*
X141637933Y-97747180D01*
G37*
X141637933Y-97747180D02*
X141637933Y-100117846D01*
X142653933Y-100117846D01*
X142653933Y-99758013D01*
X142018933Y-99758013D01*
X142018933Y-99123013D01*
X142653933Y-99123013D01*
X142653933Y-98742013D01*
X142018933Y-98742013D01*
X142018933Y-98128180D01*
X142653933Y-98128180D01*
X142653933Y-98742013D01*
X142653933Y-99123013D01*
X142653933Y-99758013D01*
X142653933Y-100117846D01*
X142653933Y-101112680D01*
X143648766Y-101112680D01*
X143648766Y-100752846D01*
X143013766Y-100752846D01*
X143013766Y-100117846D01*
X143648766Y-100117846D01*
X143648766Y-99758013D01*
X143013766Y-99758013D01*
X143013766Y-99123013D01*
X143648766Y-99123013D01*
X143648766Y-98742013D01*
X143013766Y-98742013D01*
X143013766Y-98128180D01*
X143648766Y-98128180D01*
X143648766Y-98742013D01*
X143648766Y-99123013D01*
X143648766Y-99758013D01*
X143648766Y-100117846D01*
X143648766Y-100752846D01*
X143648766Y-101112680D01*
X144008600Y-101112680D01*
X144008600Y-100117846D01*
X144643600Y-100117846D01*
X144643600Y-99758013D01*
X144008600Y-99758013D01*
X144008600Y-99123013D01*
X144643600Y-99123013D01*
X144643600Y-98742013D01*
X144008600Y-98742013D01*
X144008600Y-98128180D01*
X144643600Y-98128180D01*
X144643600Y-98742013D01*
X144643600Y-99123013D01*
X144643600Y-99758013D01*
X144643600Y-100117846D01*
X144643600Y-101112680D01*
X145638433Y-101112680D01*
X145638433Y-100752846D01*
X145024600Y-100752846D01*
X145024600Y-100117846D01*
X145638433Y-100117846D01*
X145638433Y-99758013D01*
X145024600Y-99758013D01*
X145024600Y-99123013D01*
X145638433Y-99123013D01*
X145638433Y-98742013D01*
X145024600Y-98742013D01*
X145024600Y-98128180D01*
X145638433Y-98128180D01*
X145638433Y-98742013D01*
X145638433Y-99123013D01*
X145638433Y-99758013D01*
X145638433Y-100117846D01*
X145638433Y-100752846D01*
X145638433Y-101112680D01*
X146019433Y-101112680D01*
X146019433Y-100117846D01*
X146654433Y-100117846D01*
X146654433Y-99758013D01*
X146019433Y-99758013D01*
X146019433Y-99123013D01*
X146654433Y-99123013D01*
X146654433Y-98742013D01*
X146019433Y-98742013D01*
X146019433Y-98128180D01*
X146654433Y-98128180D01*
X146654433Y-98742013D01*
X146654433Y-99123013D01*
X146654433Y-99758013D01*
X146654433Y-100117846D01*
X147014266Y-100117846D01*
X147014266Y-97747180D01*
X141637933Y-97747180D01*
%TO.C,REF\u002A\u002A*%
G36*
X137369744Y-93509918D02*
G01*
X137425201Y-93537568D01*
X137474148Y-93588480D01*
X137487629Y-93607338D01*
X137502314Y-93632015D01*
X137511842Y-93658816D01*
X137517293Y-93694587D01*
X137519747Y-93746169D01*
X137520286Y-93814267D01*
X137517852Y-93907588D01*
X137509394Y-93977657D01*
X137493174Y-94029931D01*
X137467454Y-94069869D01*
X137430497Y-94102929D01*
X137427782Y-94104886D01*
X137391360Y-94124908D01*
X137347502Y-94134815D01*
X137291724Y-94137257D01*
X137201048Y-94137257D01*
X137201010Y-94225283D01*
X137200166Y-94274308D01*
X137195024Y-94303065D01*
X137181587Y-94320311D01*
X137155858Y-94334808D01*
X137149679Y-94337769D01*
X137120764Y-94351648D01*
X137098376Y-94360414D01*
X137081729Y-94361171D01*
X137070036Y-94351023D01*
X137062510Y-94327073D01*
X137058366Y-94286426D01*
X137056815Y-94226186D01*
X137057071Y-94143455D01*
X137058349Y-94035339D01*
X137058748Y-94003000D01*
X137060185Y-93891524D01*
X137061472Y-93818603D01*
X137200971Y-93818603D01*
X137201755Y-93880499D01*
X137205240Y-93920997D01*
X137213124Y-93947708D01*
X137227105Y-93968244D01*
X137236597Y-93978260D01*
X137275404Y-94007567D01*
X137309763Y-94009952D01*
X137345216Y-93985750D01*
X137346114Y-93984857D01*
X137360539Y-93966153D01*
X137369313Y-93940732D01*
X137373739Y-93901584D01*
X137375118Y-93841697D01*
X137375143Y-93828430D01*
X137371812Y-93745901D01*
X137360969Y-93688691D01*
X137341340Y-93653766D01*
X137311650Y-93638094D01*
X137294491Y-93636514D01*
X137253766Y-93643926D01*
X137225832Y-93668330D01*
X137209017Y-93712980D01*
X137201650Y-93781130D01*
X137200971Y-93818603D01*
X137061472Y-93818603D01*
X137061708Y-93805245D01*
X137063677Y-93740333D01*
X137066450Y-93692958D01*
X137070388Y-93659290D01*
X137075849Y-93635498D01*
X137083192Y-93617753D01*
X137092777Y-93602224D01*
X137096887Y-93596381D01*
X137151405Y-93541185D01*
X137220336Y-93509890D01*
X137300072Y-93501165D01*
X137369744Y-93509918D01*
G37*
X137369744Y-93509918D02*
X137425201Y-93537568D01*
X137474148Y-93588480D01*
X137487629Y-93607338D01*
X137502314Y-93632015D01*
X137511842Y-93658816D01*
X137517293Y-93694587D01*
X137519747Y-93746169D01*
X137520286Y-93814267D01*
X137517852Y-93907588D01*
X137509394Y-93977657D01*
X137493174Y-94029931D01*
X137467454Y-94069869D01*
X137430497Y-94102929D01*
X137427782Y-94104886D01*
X137391360Y-94124908D01*
X137347502Y-94134815D01*
X137291724Y-94137257D01*
X137201048Y-94137257D01*
X137201010Y-94225283D01*
X137200166Y-94274308D01*
X137195024Y-94303065D01*
X137181587Y-94320311D01*
X137155858Y-94334808D01*
X137149679Y-94337769D01*
X137120764Y-94351648D01*
X137098376Y-94360414D01*
X137081729Y-94361171D01*
X137070036Y-94351023D01*
X137062510Y-94327073D01*
X137058366Y-94286426D01*
X137056815Y-94226186D01*
X137057071Y-94143455D01*
X137058349Y-94035339D01*
X137058748Y-94003000D01*
X137060185Y-93891524D01*
X137061472Y-93818603D01*
X137200971Y-93818603D01*
X137201755Y-93880499D01*
X137205240Y-93920997D01*
X137213124Y-93947708D01*
X137227105Y-93968244D01*
X137236597Y-93978260D01*
X137275404Y-94007567D01*
X137309763Y-94009952D01*
X137345216Y-93985750D01*
X137346114Y-93984857D01*
X137360539Y-93966153D01*
X137369313Y-93940732D01*
X137373739Y-93901584D01*
X137375118Y-93841697D01*
X137375143Y-93828430D01*
X137371812Y-93745901D01*
X137360969Y-93688691D01*
X137341340Y-93653766D01*
X137311650Y-93638094D01*
X137294491Y-93636514D01*
X137253766Y-93643926D01*
X137225832Y-93668330D01*
X137209017Y-93712980D01*
X137201650Y-93781130D01*
X137200971Y-93818603D01*
X137061472Y-93818603D01*
X137061708Y-93805245D01*
X137063677Y-93740333D01*
X137066450Y-93692958D01*
X137070388Y-93659290D01*
X137075849Y-93635498D01*
X137083192Y-93617753D01*
X137092777Y-93602224D01*
X137096887Y-93596381D01*
X137151405Y-93541185D01*
X137220336Y-93509890D01*
X137300072Y-93501165D01*
X137369744Y-93509918D01*
G36*
X138486093Y-93517780D02*
G01*
X138532672Y-93544723D01*
X138565057Y-93571466D01*
X138588742Y-93599484D01*
X138605059Y-93633748D01*
X138615339Y-93679227D01*
X138620914Y-93740892D01*
X138623116Y-93823711D01*
X138623371Y-93883246D01*
X138623371Y-94102391D01*
X138561686Y-94130044D01*
X138500000Y-94157697D01*
X138492743Y-93917670D01*
X138489744Y-93828028D01*
X138486598Y-93762962D01*
X138482701Y-93718026D01*
X138477447Y-93688770D01*
X138470231Y-93670748D01*
X138460450Y-93659511D01*
X138457312Y-93657079D01*
X138409761Y-93638083D01*
X138361697Y-93645600D01*
X138333086Y-93665543D01*
X138321447Y-93679675D01*
X138313391Y-93698220D01*
X138308271Y-93726334D01*
X138305441Y-93769173D01*
X138304256Y-93831895D01*
X138304057Y-93897261D01*
X138304018Y-93979268D01*
X138302614Y-94037316D01*
X138297914Y-94076465D01*
X138287987Y-94101780D01*
X138270903Y-94118323D01*
X138244732Y-94131156D01*
X138209775Y-94144491D01*
X138171596Y-94159007D01*
X138176141Y-93901389D01*
X138177971Y-93808519D01*
X138180112Y-93739889D01*
X138183181Y-93690711D01*
X138187794Y-93656198D01*
X138194568Y-93631562D01*
X138204119Y-93612016D01*
X138215634Y-93594770D01*
X138271190Y-93539680D01*
X138338980Y-93507822D01*
X138412713Y-93500191D01*
X138486093Y-93517780D01*
G37*
X138486093Y-93517780D02*
X138532672Y-93544723D01*
X138565057Y-93571466D01*
X138588742Y-93599484D01*
X138605059Y-93633748D01*
X138615339Y-93679227D01*
X138620914Y-93740892D01*
X138623116Y-93823711D01*
X138623371Y-93883246D01*
X138623371Y-94102391D01*
X138561686Y-94130044D01*
X138500000Y-94157697D01*
X138492743Y-93917670D01*
X138489744Y-93828028D01*
X138486598Y-93762962D01*
X138482701Y-93718026D01*
X138477447Y-93688770D01*
X138470231Y-93670748D01*
X138460450Y-93659511D01*
X138457312Y-93657079D01*
X138409761Y-93638083D01*
X138361697Y-93645600D01*
X138333086Y-93665543D01*
X138321447Y-93679675D01*
X138313391Y-93698220D01*
X138308271Y-93726334D01*
X138305441Y-93769173D01*
X138304256Y-93831895D01*
X138304057Y-93897261D01*
X138304018Y-93979268D01*
X138302614Y-94037316D01*
X138297914Y-94076465D01*
X138287987Y-94101780D01*
X138270903Y-94118323D01*
X138244732Y-94131156D01*
X138209775Y-94144491D01*
X138171596Y-94159007D01*
X138176141Y-93901389D01*
X138177971Y-93808519D01*
X138180112Y-93739889D01*
X138183181Y-93690711D01*
X138187794Y-93656198D01*
X138194568Y-93631562D01*
X138204119Y-93612016D01*
X138215634Y-93594770D01*
X138271190Y-93539680D01*
X138338980Y-93507822D01*
X138412713Y-93500191D01*
X138486093Y-93517780D01*
G36*
X136811115Y-93511962D02*
G01*
X136879145Y-93547733D01*
X136929351Y-93605301D01*
X136947185Y-93642312D01*
X136961063Y-93697882D01*
X136968167Y-93768096D01*
X136968840Y-93844727D01*
X136963427Y-93919552D01*
X136952270Y-93984342D01*
X136935714Y-94030873D01*
X136930626Y-94038887D01*
X136870355Y-94098707D01*
X136798769Y-94134535D01*
X136721092Y-94145020D01*
X136642548Y-94128810D01*
X136620689Y-94119092D01*
X136578122Y-94089143D01*
X136540763Y-94049433D01*
X136537232Y-94044397D01*
X136522881Y-94020124D01*
X136513394Y-93994178D01*
X136507790Y-93960022D01*
X136505086Y-93911119D01*
X136504299Y-93840935D01*
X136504286Y-93825200D01*
X136504322Y-93820192D01*
X136649429Y-93820192D01*
X136650273Y-93886430D01*
X136653596Y-93930386D01*
X136660583Y-93958779D01*
X136672416Y-93978325D01*
X136678457Y-93984857D01*
X136713186Y-94009680D01*
X136746903Y-94008548D01*
X136780995Y-93987016D01*
X136801329Y-93964029D01*
X136813371Y-93930478D01*
X136820134Y-93877569D01*
X136820598Y-93871399D01*
X136821752Y-93775513D01*
X136809688Y-93704299D01*
X136784570Y-93658194D01*
X136746560Y-93637635D01*
X136732992Y-93636514D01*
X136697364Y-93642152D01*
X136672994Y-93661686D01*
X136658093Y-93699042D01*
X136650875Y-93758150D01*
X136649429Y-93820192D01*
X136504322Y-93820192D01*
X136504826Y-93750413D01*
X136507096Y-93698159D01*
X136512068Y-93661949D01*
X136520713Y-93635299D01*
X136534005Y-93611722D01*
X136536943Y-93607338D01*
X136586313Y-93548249D01*
X136640109Y-93513947D01*
X136705602Y-93500331D01*
X136727842Y-93499665D01*
X136811115Y-93511962D01*
G37*
X136811115Y-93511962D02*
X136879145Y-93547733D01*
X136929351Y-93605301D01*
X136947185Y-93642312D01*
X136961063Y-93697882D01*
X136968167Y-93768096D01*
X136968840Y-93844727D01*
X136963427Y-93919552D01*
X136952270Y-93984342D01*
X136935714Y-94030873D01*
X136930626Y-94038887D01*
X136870355Y-94098707D01*
X136798769Y-94134535D01*
X136721092Y-94145020D01*
X136642548Y-94128810D01*
X136620689Y-94119092D01*
X136578122Y-94089143D01*
X136540763Y-94049433D01*
X136537232Y-94044397D01*
X136522881Y-94020124D01*
X136513394Y-93994178D01*
X136507790Y-93960022D01*
X136505086Y-93911119D01*
X136504299Y-93840935D01*
X136504286Y-93825200D01*
X136504322Y-93820192D01*
X136649429Y-93820192D01*
X136650273Y-93886430D01*
X136653596Y-93930386D01*
X136660583Y-93958779D01*
X136672416Y-93978325D01*
X136678457Y-93984857D01*
X136713186Y-94009680D01*
X136746903Y-94008548D01*
X136780995Y-93987016D01*
X136801329Y-93964029D01*
X136813371Y-93930478D01*
X136820134Y-93877569D01*
X136820598Y-93871399D01*
X136821752Y-93775513D01*
X136809688Y-93704299D01*
X136784570Y-93658194D01*
X136746560Y-93637635D01*
X136732992Y-93636514D01*
X136697364Y-93642152D01*
X136672994Y-93661686D01*
X136658093Y-93699042D01*
X136650875Y-93758150D01*
X136649429Y-93820192D01*
X136504322Y-93820192D01*
X136504826Y-93750413D01*
X136507096Y-93698159D01*
X136512068Y-93661949D01*
X136520713Y-93635299D01*
X136534005Y-93611722D01*
X136536943Y-93607338D01*
X136586313Y-93548249D01*
X136640109Y-93513947D01*
X136705602Y-93500331D01*
X136727842Y-93499665D01*
X136811115Y-93511962D01*
G36*
X137938303Y-93521239D02*
G01*
X137995527Y-93559735D01*
X138039749Y-93615335D01*
X138066167Y-93686086D01*
X138071510Y-93738162D01*
X138070903Y-93759893D01*
X138065822Y-93776531D01*
X138051855Y-93791437D01*
X138024589Y-93807973D01*
X137979612Y-93829498D01*
X137912511Y-93859374D01*
X137912171Y-93859524D01*
X137850407Y-93887813D01*
X137799759Y-93912933D01*
X137765404Y-93932179D01*
X137752518Y-93942848D01*
X137752514Y-93942934D01*
X137763872Y-93966166D01*
X137790431Y-93991774D01*
X137820923Y-94010221D01*
X137836370Y-94013886D01*
X137878515Y-94001212D01*
X137914808Y-93969471D01*
X137932517Y-93934572D01*
X137949552Y-93908845D01*
X137982922Y-93879546D01*
X138022149Y-93854235D01*
X138056756Y-93840471D01*
X138063993Y-93839714D01*
X138072139Y-93852160D01*
X138072630Y-93883972D01*
X138066643Y-93926866D01*
X138055357Y-93972558D01*
X138039950Y-94012761D01*
X138039171Y-94014322D01*
X137992804Y-94079062D01*
X137932711Y-94123097D01*
X137864465Y-94144711D01*
X137793638Y-94142185D01*
X137725804Y-94113804D01*
X137722788Y-94111808D01*
X137669427Y-94063448D01*
X137634340Y-94000352D01*
X137614922Y-93917387D01*
X137612316Y-93894078D01*
X137607701Y-93784055D01*
X137613233Y-93732748D01*
X137752514Y-93732748D01*
X137754324Y-93764753D01*
X137764222Y-93774093D01*
X137788898Y-93767105D01*
X137827795Y-93750587D01*
X137871275Y-93729881D01*
X137872356Y-93729333D01*
X137909209Y-93709949D01*
X137924000Y-93697013D01*
X137920353Y-93683451D01*
X137904995Y-93665632D01*
X137865923Y-93639845D01*
X137823846Y-93637950D01*
X137786103Y-93656717D01*
X137760034Y-93692915D01*
X137752514Y-93732748D01*
X137613233Y-93732748D01*
X137617194Y-93696027D01*
X137641550Y-93626212D01*
X137675456Y-93577302D01*
X137736653Y-93527878D01*
X137804063Y-93503359D01*
X137872880Y-93501797D01*
X137938303Y-93521239D01*
G37*
X137938303Y-93521239D02*
X137995527Y-93559735D01*
X138039749Y-93615335D01*
X138066167Y-93686086D01*
X138071510Y-93738162D01*
X138070903Y-93759893D01*
X138065822Y-93776531D01*
X138051855Y-93791437D01*
X138024589Y-93807973D01*
X137979612Y-93829498D01*
X137912511Y-93859374D01*
X137912171Y-93859524D01*
X137850407Y-93887813D01*
X137799759Y-93912933D01*
X137765404Y-93932179D01*
X137752518Y-93942848D01*
X137752514Y-93942934D01*
X137763872Y-93966166D01*
X137790431Y-93991774D01*
X137820923Y-94010221D01*
X137836370Y-94013886D01*
X137878515Y-94001212D01*
X137914808Y-93969471D01*
X137932517Y-93934572D01*
X137949552Y-93908845D01*
X137982922Y-93879546D01*
X138022149Y-93854235D01*
X138056756Y-93840471D01*
X138063993Y-93839714D01*
X138072139Y-93852160D01*
X138072630Y-93883972D01*
X138066643Y-93926866D01*
X138055357Y-93972558D01*
X138039950Y-94012761D01*
X138039171Y-94014322D01*
X137992804Y-94079062D01*
X137932711Y-94123097D01*
X137864465Y-94144711D01*
X137793638Y-94142185D01*
X137725804Y-94113804D01*
X137722788Y-94111808D01*
X137669427Y-94063448D01*
X137634340Y-94000352D01*
X137614922Y-93917387D01*
X137612316Y-93894078D01*
X137607701Y-93784055D01*
X137613233Y-93732748D01*
X137752514Y-93732748D01*
X137754324Y-93764753D01*
X137764222Y-93774093D01*
X137788898Y-93767105D01*
X137827795Y-93750587D01*
X137871275Y-93729881D01*
X137872356Y-93729333D01*
X137909209Y-93709949D01*
X137924000Y-93697013D01*
X137920353Y-93683451D01*
X137904995Y-93665632D01*
X137865923Y-93639845D01*
X137823846Y-93637950D01*
X137786103Y-93656717D01*
X137760034Y-93692915D01*
X137752514Y-93732748D01*
X137613233Y-93732748D01*
X137617194Y-93696027D01*
X137641550Y-93626212D01*
X137675456Y-93577302D01*
X137736653Y-93527878D01*
X137804063Y-93503359D01*
X137872880Y-93501797D01*
X137938303Y-93521239D01*
G36*
X139145886Y-93441289D02*
G01*
X139150139Y-93500613D01*
X139155025Y-93535572D01*
X139161795Y-93550820D01*
X139171702Y-93551015D01*
X139174914Y-93549195D01*
X139217644Y-93536015D01*
X139273227Y-93536785D01*
X139329737Y-93550333D01*
X139365082Y-93567861D01*
X139401321Y-93595861D01*
X139427813Y-93627549D01*
X139445999Y-93667813D01*
X139457322Y-93721543D01*
X139463222Y-93793626D01*
X139465143Y-93888951D01*
X139465177Y-93907237D01*
X139465200Y-94112646D01*
X139419491Y-94128580D01*
X139387027Y-94139420D01*
X139369215Y-94144468D01*
X139368691Y-94144514D01*
X139366937Y-94130828D01*
X139365444Y-94093076D01*
X139364326Y-94036224D01*
X139363697Y-93965234D01*
X139363600Y-93922073D01*
X139363398Y-93836973D01*
X139362358Y-93775981D01*
X139359831Y-93734177D01*
X139355164Y-93706642D01*
X139347707Y-93688456D01*
X139336811Y-93674698D01*
X139330007Y-93668073D01*
X139283272Y-93641375D01*
X139232272Y-93639375D01*
X139186001Y-93661955D01*
X139177444Y-93670107D01*
X139164893Y-93685436D01*
X139156188Y-93703618D01*
X139150631Y-93729909D01*
X139147526Y-93769562D01*
X139146176Y-93827832D01*
X139145886Y-93908173D01*
X139145886Y-94112646D01*
X139100177Y-94128580D01*
X139067713Y-94139420D01*
X139049901Y-94144468D01*
X139049377Y-94144514D01*
X139048037Y-94130623D01*
X139046828Y-94091439D01*
X139045801Y-94030700D01*
X139045002Y-93952141D01*
X139044481Y-93859498D01*
X139044286Y-93756509D01*
X139044286Y-93359342D01*
X139091457Y-93339444D01*
X139138629Y-93319547D01*
X139145886Y-93441289D01*
G37*
X139145886Y-93441289D02*
X139150139Y-93500613D01*
X139155025Y-93535572D01*
X139161795Y-93550820D01*
X139171702Y-93551015D01*
X139174914Y-93549195D01*
X139217644Y-93536015D01*
X139273227Y-93536785D01*
X139329737Y-93550333D01*
X139365082Y-93567861D01*
X139401321Y-93595861D01*
X139427813Y-93627549D01*
X139445999Y-93667813D01*
X139457322Y-93721543D01*
X139463222Y-93793626D01*
X139465143Y-93888951D01*
X139465177Y-93907237D01*
X139465200Y-94112646D01*
X139419491Y-94128580D01*
X139387027Y-94139420D01*
X139369215Y-94144468D01*
X139368691Y-94144514D01*
X139366937Y-94130828D01*
X139365444Y-94093076D01*
X139364326Y-94036224D01*
X139363697Y-93965234D01*
X139363600Y-93922073D01*
X139363398Y-93836973D01*
X139362358Y-93775981D01*
X139359831Y-93734177D01*
X139355164Y-93706642D01*
X139347707Y-93688456D01*
X139336811Y-93674698D01*
X139330007Y-93668073D01*
X139283272Y-93641375D01*
X139232272Y-93639375D01*
X139186001Y-93661955D01*
X139177444Y-93670107D01*
X139164893Y-93685436D01*
X139156188Y-93703618D01*
X139150631Y-93729909D01*
X139147526Y-93769562D01*
X139146176Y-93827832D01*
X139145886Y-93908173D01*
X139145886Y-94112646D01*
X139100177Y-94128580D01*
X139067713Y-94139420D01*
X139049901Y-94144468D01*
X139049377Y-94144514D01*
X139048037Y-94130623D01*
X139046828Y-94091439D01*
X139045801Y-94030700D01*
X139045002Y-93952141D01*
X139044481Y-93859498D01*
X139044286Y-93756509D01*
X139044286Y-93359342D01*
X139091457Y-93339444D01*
X139138629Y-93319547D01*
X139145886Y-93441289D01*
G36*
X139809744Y-93540968D02*
G01*
X139866616Y-93562087D01*
X139867267Y-93562493D01*
X139902440Y-93588380D01*
X139928407Y-93618633D01*
X139946670Y-93658058D01*
X139958732Y-93711462D01*
X139966096Y-93783651D01*
X139970264Y-93879432D01*
X139970629Y-93893078D01*
X139975876Y-94098842D01*
X139931716Y-94121678D01*
X139899763Y-94137110D01*
X139880470Y-94144423D01*
X139879578Y-94144514D01*
X139876239Y-94131022D01*
X139873587Y-94094626D01*
X139871956Y-94041452D01*
X139871600Y-93998393D01*
X139871592Y-93928641D01*
X139868403Y-93884837D01*
X139857288Y-93863944D01*
X139833501Y-93862925D01*
X139792296Y-93878741D01*
X139730086Y-93907815D01*
X139684341Y-93931963D01*
X139660813Y-93952913D01*
X139653896Y-93975747D01*
X139653886Y-93976877D01*
X139665299Y-94016212D01*
X139699092Y-94037462D01*
X139750809Y-94040539D01*
X139788061Y-94040006D01*
X139807703Y-94050735D01*
X139819952Y-94076505D01*
X139827002Y-94109337D01*
X139816842Y-94127966D01*
X139813017Y-94130632D01*
X139777001Y-94141340D01*
X139726566Y-94142856D01*
X139674626Y-94135759D01*
X139637822Y-94122788D01*
X139586938Y-94079585D01*
X139558014Y-94019446D01*
X139552286Y-93972462D01*
X139556657Y-93930082D01*
X139572475Y-93895488D01*
X139603797Y-93864763D01*
X139654678Y-93833990D01*
X139729176Y-93799252D01*
X139733714Y-93797288D01*
X139800821Y-93766287D01*
X139842232Y-93740862D01*
X139859981Y-93718014D01*
X139856107Y-93694745D01*
X139832643Y-93668056D01*
X139825627Y-93661914D01*
X139778630Y-93638100D01*
X139729933Y-93639103D01*
X139687522Y-93662451D01*
X139659384Y-93705675D01*
X139656769Y-93714160D01*
X139631308Y-93755308D01*
X139599001Y-93775128D01*
X139552286Y-93794770D01*
X139552286Y-93743950D01*
X139566496Y-93670082D01*
X139608675Y-93602327D01*
X139630624Y-93579661D01*
X139680517Y-93550569D01*
X139743967Y-93537400D01*
X139809744Y-93540968D01*
G37*
X139809744Y-93540968D02*
X139866616Y-93562087D01*
X139867267Y-93562493D01*
X139902440Y-93588380D01*
X139928407Y-93618633D01*
X139946670Y-93658058D01*
X139958732Y-93711462D01*
X139966096Y-93783651D01*
X139970264Y-93879432D01*
X139970629Y-93893078D01*
X139975876Y-94098842D01*
X139931716Y-94121678D01*
X139899763Y-94137110D01*
X139880470Y-94144423D01*
X139879578Y-94144514D01*
X139876239Y-94131022D01*
X139873587Y-94094626D01*
X139871956Y-94041452D01*
X139871600Y-93998393D01*
X139871592Y-93928641D01*
X139868403Y-93884837D01*
X139857288Y-93863944D01*
X139833501Y-93862925D01*
X139792296Y-93878741D01*
X139730086Y-93907815D01*
X139684341Y-93931963D01*
X139660813Y-93952913D01*
X139653896Y-93975747D01*
X139653886Y-93976877D01*
X139665299Y-94016212D01*
X139699092Y-94037462D01*
X139750809Y-94040539D01*
X139788061Y-94040006D01*
X139807703Y-94050735D01*
X139819952Y-94076505D01*
X139827002Y-94109337D01*
X139816842Y-94127966D01*
X139813017Y-94130632D01*
X139777001Y-94141340D01*
X139726566Y-94142856D01*
X139674626Y-94135759D01*
X139637822Y-94122788D01*
X139586938Y-94079585D01*
X139558014Y-94019446D01*
X139552286Y-93972462D01*
X139556657Y-93930082D01*
X139572475Y-93895488D01*
X139603797Y-93864763D01*
X139654678Y-93833990D01*
X139729176Y-93799252D01*
X139733714Y-93797288D01*
X139800821Y-93766287D01*
X139842232Y-93740862D01*
X139859981Y-93718014D01*
X139856107Y-93694745D01*
X139832643Y-93668056D01*
X139825627Y-93661914D01*
X139778630Y-93638100D01*
X139729933Y-93639103D01*
X139687522Y-93662451D01*
X139659384Y-93705675D01*
X139656769Y-93714160D01*
X139631308Y-93755308D01*
X139599001Y-93775128D01*
X139552286Y-93794770D01*
X139552286Y-93743950D01*
X139566496Y-93670082D01*
X139608675Y-93602327D01*
X139630624Y-93579661D01*
X139680517Y-93550569D01*
X139743967Y-93537400D01*
X139809744Y-93540968D01*
G36*
X140299926Y-93539755D02*
G01*
X140365858Y-93564084D01*
X140419273Y-93607117D01*
X140440164Y-93637409D01*
X140462939Y-93692994D01*
X140462466Y-93733186D01*
X140438562Y-93760217D01*
X140429717Y-93764813D01*
X140391530Y-93779144D01*
X140372028Y-93775472D01*
X140365422Y-93751407D01*
X140365086Y-93738114D01*
X140352992Y-93689210D01*
X140321471Y-93654999D01*
X140277659Y-93638476D01*
X140228695Y-93642634D01*
X140188894Y-93664227D01*
X140175450Y-93676544D01*
X140165921Y-93691487D01*
X140159485Y-93714075D01*
X140155317Y-93749328D01*
X140152597Y-93802266D01*
X140150502Y-93877907D01*
X140149960Y-93901857D01*
X140147981Y-93983790D01*
X140145731Y-94041455D01*
X140142357Y-94079608D01*
X140137006Y-94103004D01*
X140128824Y-94116398D01*
X140116959Y-94124545D01*
X140109362Y-94128144D01*
X140077102Y-94140452D01*
X140058111Y-94144514D01*
X140051836Y-94130948D01*
X140048006Y-94089934D01*
X140046600Y-94020999D01*
X140047598Y-93923669D01*
X140047908Y-93908657D01*
X140050101Y-93819859D01*
X140052693Y-93755019D01*
X140056382Y-93709067D01*
X140061864Y-93676935D01*
X140069835Y-93653553D01*
X140080993Y-93633852D01*
X140086830Y-93625410D01*
X140120296Y-93588057D01*
X140157727Y-93559003D01*
X140162309Y-93556467D01*
X140229426Y-93536443D01*
X140299926Y-93539755D01*
G37*
X140299926Y-93539755D02*
X140365858Y-93564084D01*
X140419273Y-93607117D01*
X140440164Y-93637409D01*
X140462939Y-93692994D01*
X140462466Y-93733186D01*
X140438562Y-93760217D01*
X140429717Y-93764813D01*
X140391530Y-93779144D01*
X140372028Y-93775472D01*
X140365422Y-93751407D01*
X140365086Y-93738114D01*
X140352992Y-93689210D01*
X140321471Y-93654999D01*
X140277659Y-93638476D01*
X140228695Y-93642634D01*
X140188894Y-93664227D01*
X140175450Y-93676544D01*
X140165921Y-93691487D01*
X140159485Y-93714075D01*
X140155317Y-93749328D01*
X140152597Y-93802266D01*
X140150502Y-93877907D01*
X140149960Y-93901857D01*
X140147981Y-93983790D01*
X140145731Y-94041455D01*
X140142357Y-94079608D01*
X140137006Y-94103004D01*
X140128824Y-94116398D01*
X140116959Y-94124545D01*
X140109362Y-94128144D01*
X140077102Y-94140452D01*
X140058111Y-94144514D01*
X140051836Y-94130948D01*
X140048006Y-94089934D01*
X140046600Y-94020999D01*
X140047598Y-93923669D01*
X140047908Y-93908657D01*
X140050101Y-93819859D01*
X140052693Y-93755019D01*
X140056382Y-93709067D01*
X140061864Y-93676935D01*
X140069835Y-93653553D01*
X140080993Y-93633852D01*
X140086830Y-93625410D01*
X140120296Y-93588057D01*
X140157727Y-93559003D01*
X140162309Y-93556467D01*
X140229426Y-93536443D01*
X140299926Y-93539755D01*
G36*
X140960117Y-93655358D02*
G01*
X140959933Y-93763837D01*
X140959219Y-93847287D01*
X140957675Y-93909704D01*
X140955001Y-93955085D01*
X140950894Y-93987429D01*
X140945055Y-94010733D01*
X140937182Y-94028995D01*
X140931221Y-94039418D01*
X140881855Y-94095945D01*
X140819264Y-94131377D01*
X140750013Y-94144090D01*
X140680668Y-94132463D01*
X140639375Y-94111568D01*
X140596025Y-94075422D01*
X140566481Y-94031276D01*
X140548655Y-93973462D01*
X140540463Y-93896313D01*
X140539302Y-93839714D01*
X140539458Y-93835647D01*
X140640857Y-93835647D01*
X140641476Y-93900550D01*
X140644314Y-93943514D01*
X140650840Y-93971622D01*
X140662523Y-93991953D01*
X140676483Y-94007288D01*
X140723365Y-94036890D01*
X140773701Y-94039419D01*
X140821276Y-94014705D01*
X140824979Y-94011356D01*
X140840783Y-93993935D01*
X140850693Y-93973209D01*
X140856058Y-93942362D01*
X140858228Y-93894577D01*
X140858571Y-93841748D01*
X140857827Y-93775381D01*
X140854748Y-93731106D01*
X140848061Y-93702009D01*
X140836496Y-93681173D01*
X140827013Y-93670107D01*
X140782960Y-93642198D01*
X140732224Y-93638843D01*
X140683796Y-93660159D01*
X140674450Y-93668073D01*
X140658540Y-93685647D01*
X140648610Y-93706587D01*
X140643278Y-93737782D01*
X140641163Y-93786122D01*
X140640857Y-93835647D01*
X140539458Y-93835647D01*
X140542810Y-93748568D01*
X140554726Y-93680086D01*
X140577135Y-93628600D01*
X140612124Y-93588443D01*
X140639375Y-93567861D01*
X140688907Y-93545625D01*
X140746316Y-93535304D01*
X140799682Y-93538067D01*
X140829543Y-93549212D01*
X140841261Y-93552383D01*
X140849037Y-93540557D01*
X140854465Y-93508866D01*
X140858571Y-93460593D01*
X140863067Y-93406829D01*
X140869313Y-93374482D01*
X140880676Y-93355985D01*
X140900528Y-93343770D01*
X140913000Y-93338362D01*
X140960171Y-93318601D01*
X140960117Y-93655358D01*
G37*
X140960117Y-93655358D02*
X140959933Y-93763837D01*
X140959219Y-93847287D01*
X140957675Y-93909704D01*
X140955001Y-93955085D01*
X140950894Y-93987429D01*
X140945055Y-94010733D01*
X140937182Y-94028995D01*
X140931221Y-94039418D01*
X140881855Y-94095945D01*
X140819264Y-94131377D01*
X140750013Y-94144090D01*
X140680668Y-94132463D01*
X140639375Y-94111568D01*
X140596025Y-94075422D01*
X140566481Y-94031276D01*
X140548655Y-93973462D01*
X140540463Y-93896313D01*
X140539302Y-93839714D01*
X140539458Y-93835647D01*
X140640857Y-93835647D01*
X140641476Y-93900550D01*
X140644314Y-93943514D01*
X140650840Y-93971622D01*
X140662523Y-93991953D01*
X140676483Y-94007288D01*
X140723365Y-94036890D01*
X140773701Y-94039419D01*
X140821276Y-94014705D01*
X140824979Y-94011356D01*
X140840783Y-93993935D01*
X140850693Y-93973209D01*
X140856058Y-93942362D01*
X140858228Y-93894577D01*
X140858571Y-93841748D01*
X140857827Y-93775381D01*
X140854748Y-93731106D01*
X140848061Y-93702009D01*
X140836496Y-93681173D01*
X140827013Y-93670107D01*
X140782960Y-93642198D01*
X140732224Y-93638843D01*
X140683796Y-93660159D01*
X140674450Y-93668073D01*
X140658540Y-93685647D01*
X140648610Y-93706587D01*
X140643278Y-93737782D01*
X140641163Y-93786122D01*
X140640857Y-93835647D01*
X140539458Y-93835647D01*
X140542810Y-93748568D01*
X140554726Y-93680086D01*
X140577135Y-93628600D01*
X140612124Y-93588443D01*
X140639375Y-93567861D01*
X140688907Y-93545625D01*
X140746316Y-93535304D01*
X140799682Y-93538067D01*
X140829543Y-93549212D01*
X140841261Y-93552383D01*
X140849037Y-93540557D01*
X140854465Y-93508866D01*
X140858571Y-93460593D01*
X140863067Y-93406829D01*
X140869313Y-93374482D01*
X140880676Y-93355985D01*
X140900528Y-93343770D01*
X140913000Y-93338362D01*
X140960171Y-93318601D01*
X140960117Y-93655358D01*
G36*
X141549833Y-93548663D02*
G01*
X141552048Y-93586850D01*
X141553784Y-93644886D01*
X141554899Y-93718180D01*
X141555257Y-93795055D01*
X141555257Y-94055196D01*
X141509326Y-94101127D01*
X141477675Y-94129429D01*
X141449890Y-94140893D01*
X141411915Y-94140168D01*
X141396840Y-94138321D01*
X141349726Y-94132948D01*
X141310756Y-94129869D01*
X141301257Y-94129585D01*
X141269233Y-94131445D01*
X141223432Y-94136114D01*
X141205674Y-94138321D01*
X141162057Y-94141735D01*
X141132745Y-94134320D01*
X141103680Y-94111427D01*
X141093188Y-94101127D01*
X141047257Y-94055196D01*
X141047257Y-93568602D01*
X141084226Y-93551758D01*
X141116059Y-93539282D01*
X141134683Y-93534914D01*
X141139458Y-93548718D01*
X141143921Y-93587286D01*
X141147775Y-93646356D01*
X141150722Y-93721663D01*
X141152143Y-93785286D01*
X141156114Y-94035657D01*
X141190759Y-94040556D01*
X141222268Y-94037131D01*
X141237708Y-94026041D01*
X141242023Y-94005308D01*
X141245708Y-93961145D01*
X141248469Y-93899146D01*
X141250012Y-93824909D01*
X141250235Y-93786706D01*
X141250457Y-93566783D01*
X141296166Y-93550849D01*
X141328518Y-93540015D01*
X141346115Y-93534962D01*
X141346623Y-93534914D01*
X141348388Y-93548648D01*
X141350329Y-93586730D01*
X141352282Y-93644482D01*
X141354084Y-93717227D01*
X141355343Y-93785286D01*
X141359314Y-94035657D01*
X141446400Y-94035657D01*
X141450396Y-93807240D01*
X141454392Y-93578822D01*
X141496847Y-93556868D01*
X141528192Y-93541793D01*
X141546744Y-93534951D01*
X141547279Y-93534914D01*
X141549833Y-93548663D01*
G37*
X141549833Y-93548663D02*
X141552048Y-93586850D01*
X141553784Y-93644886D01*
X141554899Y-93718180D01*
X141555257Y-93795055D01*
X141555257Y-94055196D01*
X141509326Y-94101127D01*
X141477675Y-94129429D01*
X141449890Y-94140893D01*
X141411915Y-94140168D01*
X141396840Y-94138321D01*
X141349726Y-94132948D01*
X141310756Y-94129869D01*
X141301257Y-94129585D01*
X141269233Y-94131445D01*
X141223432Y-94136114D01*
X141205674Y-94138321D01*
X141162057Y-94141735D01*
X141132745Y-94134320D01*
X141103680Y-94111427D01*
X141093188Y-94101127D01*
X141047257Y-94055196D01*
X141047257Y-93568602D01*
X141084226Y-93551758D01*
X141116059Y-93539282D01*
X141134683Y-93534914D01*
X141139458Y-93548718D01*
X141143921Y-93587286D01*
X141147775Y-93646356D01*
X141150722Y-93721663D01*
X141152143Y-93785286D01*
X141156114Y-94035657D01*
X141190759Y-94040556D01*
X141222268Y-94037131D01*
X141237708Y-94026041D01*
X141242023Y-94005308D01*
X141245708Y-93961145D01*
X141248469Y-93899146D01*
X141250012Y-93824909D01*
X141250235Y-93786706D01*
X141250457Y-93566783D01*
X141296166Y-93550849D01*
X141328518Y-93540015D01*
X141346115Y-93534962D01*
X141346623Y-93534914D01*
X141348388Y-93548648D01*
X141350329Y-93586730D01*
X141352282Y-93644482D01*
X141354084Y-93717227D01*
X141355343Y-93785286D01*
X141359314Y-94035657D01*
X141446400Y-94035657D01*
X141450396Y-93807240D01*
X141454392Y-93578822D01*
X141496847Y-93556868D01*
X141528192Y-93541793D01*
X141546744Y-93534951D01*
X141547279Y-93534914D01*
X141549833Y-93548663D01*
G36*
X141914876Y-93546335D02*
G01*
X141956667Y-93565344D01*
X141989469Y-93588378D01*
X142013503Y-93614133D01*
X142030097Y-93647358D01*
X142040577Y-93692800D01*
X142046271Y-93755207D01*
X142048507Y-93839327D01*
X142048743Y-93894721D01*
X142048743Y-94110826D01*
X142011774Y-94127670D01*
X141982656Y-94139981D01*
X141968231Y-94144514D01*
X141965472Y-94131025D01*
X141963282Y-94094653D01*
X141961942Y-94041542D01*
X141961657Y-93999372D01*
X141960434Y-93938447D01*
X141957136Y-93890115D01*
X141952321Y-93860518D01*
X141948496Y-93854229D01*
X141922783Y-93860652D01*
X141882418Y-93877125D01*
X141835679Y-93899458D01*
X141790845Y-93923457D01*
X141756193Y-93944930D01*
X141740002Y-93959685D01*
X141739938Y-93959845D01*
X141741330Y-93987152D01*
X141753818Y-94013219D01*
X141775743Y-94034392D01*
X141807743Y-94041474D01*
X141835092Y-94040649D01*
X141873826Y-94040042D01*
X141894158Y-94049116D01*
X141906369Y-94073092D01*
X141907909Y-94077613D01*
X141913203Y-94111806D01*
X141899047Y-94132568D01*
X141862148Y-94142462D01*
X141822289Y-94144292D01*
X141750562Y-94130727D01*
X141713432Y-94111355D01*
X141667576Y-94065845D01*
X141643256Y-94009983D01*
X141641073Y-93950957D01*
X141661629Y-93895953D01*
X141692549Y-93861486D01*
X141723420Y-93842189D01*
X141771942Y-93817759D01*
X141828485Y-93792985D01*
X141837910Y-93789199D01*
X141900019Y-93761791D01*
X141935822Y-93737634D01*
X141947337Y-93713619D01*
X141936580Y-93686635D01*
X141918114Y-93665543D01*
X141874469Y-93639572D01*
X141826446Y-93637624D01*
X141782406Y-93657637D01*
X141750709Y-93697551D01*
X141746549Y-93707848D01*
X141722327Y-93745724D01*
X141686965Y-93773842D01*
X141642343Y-93796917D01*
X141642343Y-93731485D01*
X141644969Y-93691506D01*
X141656230Y-93659997D01*
X141681199Y-93626378D01*
X141705169Y-93600484D01*
X141742441Y-93563817D01*
X141771401Y-93544121D01*
X141802505Y-93536220D01*
X141837713Y-93534914D01*
X141914876Y-93546335D01*
G37*
X141914876Y-93546335D02*
X141956667Y-93565344D01*
X141989469Y-93588378D01*
X142013503Y-93614133D01*
X142030097Y-93647358D01*
X142040577Y-93692800D01*
X142046271Y-93755207D01*
X142048507Y-93839327D01*
X142048743Y-93894721D01*
X142048743Y-94110826D01*
X142011774Y-94127670D01*
X141982656Y-94139981D01*
X141968231Y-94144514D01*
X141965472Y-94131025D01*
X141963282Y-94094653D01*
X141961942Y-94041542D01*
X141961657Y-93999372D01*
X141960434Y-93938447D01*
X141957136Y-93890115D01*
X141952321Y-93860518D01*
X141948496Y-93854229D01*
X141922783Y-93860652D01*
X141882418Y-93877125D01*
X141835679Y-93899458D01*
X141790845Y-93923457D01*
X141756193Y-93944930D01*
X141740002Y-93959685D01*
X141739938Y-93959845D01*
X141741330Y-93987152D01*
X141753818Y-94013219D01*
X141775743Y-94034392D01*
X141807743Y-94041474D01*
X141835092Y-94040649D01*
X141873826Y-94040042D01*
X141894158Y-94049116D01*
X141906369Y-94073092D01*
X141907909Y-94077613D01*
X141913203Y-94111806D01*
X141899047Y-94132568D01*
X141862148Y-94142462D01*
X141822289Y-94144292D01*
X141750562Y-94130727D01*
X141713432Y-94111355D01*
X141667576Y-94065845D01*
X141643256Y-94009983D01*
X141641073Y-93950957D01*
X141661629Y-93895953D01*
X141692549Y-93861486D01*
X141723420Y-93842189D01*
X141771942Y-93817759D01*
X141828485Y-93792985D01*
X141837910Y-93789199D01*
X141900019Y-93761791D01*
X141935822Y-93737634D01*
X141947337Y-93713619D01*
X141936580Y-93686635D01*
X141918114Y-93665543D01*
X141874469Y-93639572D01*
X141826446Y-93637624D01*
X141782406Y-93657637D01*
X141750709Y-93697551D01*
X141746549Y-93707848D01*
X141722327Y-93745724D01*
X141686965Y-93773842D01*
X141642343Y-93796917D01*
X141642343Y-93731485D01*
X141644969Y-93691506D01*
X141656230Y-93659997D01*
X141681199Y-93626378D01*
X141705169Y-93600484D01*
X141742441Y-93563817D01*
X141771401Y-93544121D01*
X141802505Y-93536220D01*
X141837713Y-93534914D01*
X141914876Y-93546335D01*
G36*
X142422600Y-93548752D02*
G01*
X142439948Y-93556334D01*
X142481356Y-93589128D01*
X142516765Y-93636547D01*
X142538664Y-93687151D01*
X142542229Y-93712098D01*
X142530279Y-93746927D01*
X142504067Y-93765357D01*
X142475964Y-93776516D01*
X142463095Y-93778572D01*
X142456829Y-93763649D01*
X142444456Y-93731175D01*
X142439028Y-93716502D01*
X142408590Y-93665744D01*
X142364520Y-93640427D01*
X142308010Y-93641206D01*
X142303825Y-93642203D01*
X142273655Y-93656507D01*
X142251476Y-93684393D01*
X142236327Y-93729287D01*
X142227250Y-93794615D01*
X142223286Y-93883804D01*
X142222914Y-93931261D01*
X142222730Y-94006071D01*
X142221522Y-94057069D01*
X142218309Y-94089471D01*
X142212109Y-94108495D01*
X142201940Y-94119356D01*
X142186819Y-94127272D01*
X142185946Y-94127670D01*
X142156828Y-94139981D01*
X142142403Y-94144514D01*
X142140186Y-94130809D01*
X142138289Y-94092925D01*
X142136847Y-94035715D01*
X142135998Y-93964027D01*
X142135829Y-93911565D01*
X142136692Y-93810047D01*
X142140070Y-93733032D01*
X142147142Y-93676023D01*
X142159088Y-93634526D01*
X142177090Y-93604043D01*
X142202327Y-93580080D01*
X142227247Y-93563355D01*
X142287171Y-93541097D01*
X142356911Y-93536076D01*
X142422600Y-93548752D01*
G37*
X142422600Y-93548752D02*
X142439948Y-93556334D01*
X142481356Y-93589128D01*
X142516765Y-93636547D01*
X142538664Y-93687151D01*
X142542229Y-93712098D01*
X142530279Y-93746927D01*
X142504067Y-93765357D01*
X142475964Y-93776516D01*
X142463095Y-93778572D01*
X142456829Y-93763649D01*
X142444456Y-93731175D01*
X142439028Y-93716502D01*
X142408590Y-93665744D01*
X142364520Y-93640427D01*
X142308010Y-93641206D01*
X142303825Y-93642203D01*
X142273655Y-93656507D01*
X142251476Y-93684393D01*
X142236327Y-93729287D01*
X142227250Y-93794615D01*
X142223286Y-93883804D01*
X142222914Y-93931261D01*
X142222730Y-94006071D01*
X142221522Y-94057069D01*
X142218309Y-94089471D01*
X142212109Y-94108495D01*
X142201940Y-94119356D01*
X142186819Y-94127272D01*
X142185946Y-94127670D01*
X142156828Y-94139981D01*
X142142403Y-94144514D01*
X142140186Y-94130809D01*
X142138289Y-94092925D01*
X142136847Y-94035715D01*
X142135998Y-93964027D01*
X142135829Y-93911565D01*
X142136692Y-93810047D01*
X142140070Y-93733032D01*
X142147142Y-93676023D01*
X142159088Y-93634526D01*
X142177090Y-93604043D01*
X142202327Y-93580080D01*
X142227247Y-93563355D01*
X142287171Y-93541097D01*
X142356911Y-93536076D01*
X142422600Y-93548752D01*
G36*
X142923595Y-93556966D02*
G01*
X142981021Y-93594497D01*
X143008719Y-93628096D01*
X143030662Y-93689064D01*
X143032405Y-93737308D01*
X143028457Y-93801816D01*
X142879686Y-93866934D01*
X142807349Y-93900202D01*
X142760084Y-93926964D01*
X142735507Y-93950144D01*
X142731237Y-93972667D01*
X142744889Y-93997455D01*
X142759943Y-94013886D01*
X142803746Y-94040235D01*
X142851389Y-94042081D01*
X142895145Y-94021546D01*
X142927289Y-93980752D01*
X142933038Y-93966347D01*
X142960576Y-93921356D01*
X142992258Y-93902182D01*
X143035714Y-93885779D01*
X143035714Y-93947966D01*
X143031872Y-93990283D01*
X143016823Y-94025969D01*
X142985280Y-94066943D01*
X142980592Y-94072267D01*
X142945506Y-94108720D01*
X142915347Y-94128283D01*
X142877615Y-94137283D01*
X142846335Y-94140230D01*
X142790385Y-94140965D01*
X142750555Y-94131660D01*
X142725708Y-94117846D01*
X142686656Y-94087467D01*
X142659625Y-94054613D01*
X142642517Y-94013294D01*
X142633238Y-93957521D01*
X142629693Y-93881305D01*
X142629410Y-93842622D01*
X142630372Y-93796247D01*
X142718007Y-93796247D01*
X142719023Y-93821126D01*
X142721556Y-93825200D01*
X142738274Y-93819665D01*
X142774249Y-93805017D01*
X142822331Y-93784190D01*
X142832386Y-93779714D01*
X142893152Y-93748814D01*
X142926632Y-93721657D01*
X142933990Y-93696220D01*
X142916391Y-93670481D01*
X142901856Y-93659109D01*
X142849410Y-93636364D01*
X142800322Y-93640122D01*
X142759227Y-93667884D01*
X142730758Y-93717152D01*
X142721631Y-93756257D01*
X142718007Y-93796247D01*
X142630372Y-93796247D01*
X142631285Y-93752249D01*
X142638196Y-93685384D01*
X142651884Y-93636695D01*
X142674096Y-93600849D01*
X142706574Y-93572513D01*
X142720733Y-93563355D01*
X142785053Y-93539507D01*
X142855473Y-93538006D01*
X142923595Y-93556966D01*
G37*
X142923595Y-93556966D02*
X142981021Y-93594497D01*
X143008719Y-93628096D01*
X143030662Y-93689064D01*
X143032405Y-93737308D01*
X143028457Y-93801816D01*
X142879686Y-93866934D01*
X142807349Y-93900202D01*
X142760084Y-93926964D01*
X142735507Y-93950144D01*
X142731237Y-93972667D01*
X142744889Y-93997455D01*
X142759943Y-94013886D01*
X142803746Y-94040235D01*
X142851389Y-94042081D01*
X142895145Y-94021546D01*
X142927289Y-93980752D01*
X142933038Y-93966347D01*
X142960576Y-93921356D01*
X142992258Y-93902182D01*
X143035714Y-93885779D01*
X143035714Y-93947966D01*
X143031872Y-93990283D01*
X143016823Y-94025969D01*
X142985280Y-94066943D01*
X142980592Y-94072267D01*
X142945506Y-94108720D01*
X142915347Y-94128283D01*
X142877615Y-94137283D01*
X142846335Y-94140230D01*
X142790385Y-94140965D01*
X142750555Y-94131660D01*
X142725708Y-94117846D01*
X142686656Y-94087467D01*
X142659625Y-94054613D01*
X142642517Y-94013294D01*
X142633238Y-93957521D01*
X142629693Y-93881305D01*
X142629410Y-93842622D01*
X142630372Y-93796247D01*
X142718007Y-93796247D01*
X142719023Y-93821126D01*
X142721556Y-93825200D01*
X142738274Y-93819665D01*
X142774249Y-93805017D01*
X142822331Y-93784190D01*
X142832386Y-93779714D01*
X142893152Y-93748814D01*
X142926632Y-93721657D01*
X142933990Y-93696220D01*
X142916391Y-93670481D01*
X142901856Y-93659109D01*
X142849410Y-93636364D01*
X142800322Y-93640122D01*
X142759227Y-93667884D01*
X142730758Y-93717152D01*
X142721631Y-93756257D01*
X142718007Y-93796247D01*
X142630372Y-93796247D01*
X142631285Y-93752249D01*
X142638196Y-93685384D01*
X142651884Y-93636695D01*
X142674096Y-93600849D01*
X142706574Y-93572513D01*
X142720733Y-93563355D01*
X142785053Y-93539507D01*
X142855473Y-93538006D01*
X142923595Y-93556966D01*
G36*
X139873910Y-88832348D02*
G01*
X139952454Y-88832778D01*
X140009298Y-88833942D01*
X140048105Y-88836207D01*
X140072538Y-88839940D01*
X140086262Y-88845506D01*
X140092940Y-88853273D01*
X140096236Y-88863605D01*
X140096556Y-88864943D01*
X140101562Y-88889079D01*
X140110829Y-88936701D01*
X140123392Y-89002741D01*
X140138287Y-89082128D01*
X140154551Y-89169796D01*
X140155119Y-89172875D01*
X140171410Y-89258789D01*
X140186652Y-89334696D01*
X140199861Y-89396045D01*
X140210054Y-89438282D01*
X140216248Y-89456855D01*
X140216543Y-89457184D01*
X140234788Y-89466253D01*
X140272405Y-89481367D01*
X140321271Y-89499262D01*
X140321543Y-89499358D01*
X140383093Y-89522493D01*
X140455657Y-89551965D01*
X140524057Y-89581597D01*
X140527294Y-89583062D01*
X140638702Y-89633626D01*
X140885399Y-89465160D01*
X140961077Y-89413803D01*
X141029631Y-89367889D01*
X141087088Y-89330030D01*
X141129476Y-89302837D01*
X141152825Y-89288921D01*
X141155042Y-89287889D01*
X141172010Y-89292484D01*
X141203701Y-89314655D01*
X141251352Y-89355447D01*
X141316198Y-89415905D01*
X141382397Y-89480227D01*
X141446214Y-89543612D01*
X141503329Y-89601451D01*
X141550305Y-89650175D01*
X141583703Y-89686210D01*
X141600085Y-89705984D01*
X141600694Y-89707002D01*
X141602505Y-89720572D01*
X141595683Y-89742733D01*
X141578540Y-89776478D01*
X141549393Y-89824800D01*
X141506555Y-89890692D01*
X141449448Y-89975517D01*
X141398766Y-90050177D01*
X141353461Y-90117140D01*
X141316150Y-90172516D01*
X141289452Y-90212420D01*
X141275985Y-90232962D01*
X141275137Y-90234356D01*
X141276781Y-90254038D01*
X141289245Y-90292293D01*
X141310048Y-90341889D01*
X141317462Y-90357728D01*
X141349814Y-90428290D01*
X141384328Y-90508353D01*
X141412365Y-90577629D01*
X141432568Y-90629045D01*
X141448615Y-90668119D01*
X141457888Y-90688541D01*
X141459041Y-90690114D01*
X141476096Y-90692721D01*
X141516298Y-90699863D01*
X141574302Y-90710523D01*
X141644763Y-90723685D01*
X141722335Y-90738333D01*
X141801672Y-90753449D01*
X141877431Y-90768018D01*
X141944264Y-90781022D01*
X141996828Y-90791445D01*
X142029776Y-90798270D01*
X142037857Y-90800199D01*
X142046205Y-90804962D01*
X142052506Y-90815718D01*
X142057045Y-90836098D01*
X142060104Y-90869734D01*
X142061967Y-90920255D01*
X142062918Y-90991292D01*
X142063240Y-91086476D01*
X142063257Y-91125492D01*
X142063257Y-91442799D01*
X141987057Y-91457839D01*
X141944663Y-91465995D01*
X141881400Y-91477899D01*
X141804962Y-91492116D01*
X141723043Y-91507210D01*
X141700400Y-91511355D01*
X141624806Y-91526053D01*
X141558953Y-91540505D01*
X141508366Y-91553375D01*
X141478574Y-91563322D01*
X141473612Y-91566287D01*
X141461426Y-91587283D01*
X141443953Y-91627967D01*
X141424577Y-91680322D01*
X141420734Y-91691600D01*
X141395339Y-91761523D01*
X141363817Y-91840418D01*
X141332969Y-91911266D01*
X141332817Y-91911595D01*
X141281447Y-92022733D01*
X141450399Y-92271253D01*
X141619352Y-92519772D01*
X141402429Y-92737058D01*
X141336819Y-92801726D01*
X141276979Y-92858733D01*
X141226267Y-92905033D01*
X141188046Y-92937584D01*
X141165675Y-92953343D01*
X141162466Y-92954343D01*
X141143626Y-92946469D01*
X141105180Y-92924578D01*
X141051330Y-92891267D01*
X140986276Y-92849131D01*
X140915940Y-92801943D01*
X140844555Y-92753810D01*
X140780908Y-92711928D01*
X140729041Y-92678871D01*
X140692995Y-92657218D01*
X140676867Y-92649543D01*
X140657189Y-92656037D01*
X140619875Y-92673150D01*
X140572621Y-92697326D01*
X140567612Y-92700013D01*
X140503977Y-92731927D01*
X140460341Y-92747579D01*
X140433202Y-92747745D01*
X140419057Y-92733204D01*
X140418975Y-92733000D01*
X140411905Y-92715779D01*
X140395042Y-92674899D01*
X140369695Y-92613525D01*
X140337171Y-92534819D01*
X140298778Y-92441947D01*
X140255822Y-92338072D01*
X140214222Y-92237502D01*
X140168504Y-92126516D01*
X140126526Y-92023703D01*
X140089548Y-91932215D01*
X140058827Y-91855201D01*
X140035622Y-91795815D01*
X140021190Y-91757209D01*
X140016743Y-91742800D01*
X140027896Y-91726272D01*
X140057069Y-91699930D01*
X140095971Y-91670887D01*
X140206757Y-91579039D01*
X140293351Y-91473759D01*
X140354716Y-91357266D01*
X140389815Y-91231776D01*
X140397608Y-91099507D01*
X140391943Y-91038457D01*
X140361078Y-90911795D01*
X140307920Y-90799941D01*
X140235767Y-90704001D01*
X140147917Y-90625076D01*
X140047665Y-90564270D01*
X139938310Y-90522687D01*
X139823147Y-90501428D01*
X139705475Y-90501599D01*
X139588590Y-90524301D01*
X139475789Y-90570638D01*
X139370369Y-90641713D01*
X139326368Y-90681911D01*
X139241979Y-90785129D01*
X139183222Y-90897925D01*
X139149704Y-91017010D01*
X139141035Y-91139095D01*
X139156823Y-91260893D01*
X139196678Y-91379116D01*
X139260207Y-91490475D01*
X139347021Y-91591684D01*
X139444029Y-91670887D01*
X139484437Y-91701162D01*
X139512982Y-91727219D01*
X139523257Y-91742825D01*
X139517877Y-91759843D01*
X139502575Y-91800500D01*
X139478612Y-91861642D01*
X139447244Y-91940119D01*
X139409732Y-92032780D01*
X139367333Y-92136472D01*
X139325663Y-92237526D01*
X139279690Y-92348607D01*
X139237107Y-92451541D01*
X139199221Y-92543165D01*
X139167340Y-92620316D01*
X139142771Y-92679831D01*
X139126820Y-92718544D01*
X139120910Y-92733000D01*
X139106948Y-92747685D01*
X139079940Y-92747642D01*
X139036413Y-92732099D01*
X138972890Y-92700284D01*
X138972388Y-92700013D01*
X138924560Y-92675323D01*
X138885897Y-92657338D01*
X138864095Y-92649614D01*
X138863133Y-92649543D01*
X138846721Y-92657378D01*
X138810487Y-92679165D01*
X138758474Y-92712328D01*
X138694725Y-92754291D01*
X138624060Y-92801943D01*
X138552116Y-92850191D01*
X138487274Y-92892151D01*
X138433735Y-92925227D01*
X138395697Y-92946821D01*
X138377533Y-92954343D01*
X138360808Y-92944457D01*
X138327180Y-92916826D01*
X138280010Y-92874495D01*
X138222658Y-92820505D01*
X138158484Y-92757899D01*
X138137497Y-92736983D01*
X137920499Y-92519623D01*
X138085668Y-92277220D01*
X138135864Y-92202781D01*
X138179919Y-92135972D01*
X138215362Y-92080665D01*
X138239719Y-92040729D01*
X138250522Y-92020036D01*
X138250838Y-92018563D01*
X138245143Y-91999058D01*
X138229826Y-91959822D01*
X138207537Y-91907430D01*
X138191893Y-91872355D01*
X138162641Y-91805201D01*
X138135094Y-91737358D01*
X138113737Y-91680034D01*
X138107935Y-91662572D01*
X138091452Y-91615938D01*
X138075340Y-91579905D01*
X138066490Y-91566287D01*
X138046960Y-91557952D01*
X138004334Y-91546137D01*
X137944145Y-91532181D01*
X137871922Y-91517422D01*
X137839600Y-91511355D01*
X137757522Y-91496273D01*
X137678795Y-91481669D01*
X137611109Y-91468980D01*
X137562160Y-91459642D01*
X137552943Y-91457839D01*
X137476743Y-91442799D01*
X137476743Y-91125492D01*
X137476914Y-91021154D01*
X137477616Y-90942213D01*
X137479134Y-90885038D01*
X137481749Y-90845999D01*
X137485746Y-90821465D01*
X137491409Y-90807805D01*
X137499020Y-90801389D01*
X137502143Y-90800199D01*
X137520978Y-90795980D01*
X137562588Y-90787562D01*
X137621630Y-90775961D01*
X137692757Y-90762195D01*
X137770625Y-90747280D01*
X137849887Y-90732232D01*
X137925198Y-90718069D01*
X137991213Y-90705806D01*
X138042587Y-90696461D01*
X138073975Y-90691050D01*
X138080959Y-90690114D01*
X138087285Y-90677596D01*
X138101290Y-90644246D01*
X138120355Y-90596377D01*
X138127634Y-90577629D01*
X138156996Y-90505195D01*
X138191571Y-90425170D01*
X138222537Y-90357728D01*
X138245323Y-90306159D01*
X138260482Y-90263785D01*
X138265542Y-90237834D01*
X138264736Y-90234356D01*
X138254041Y-90217936D01*
X138229620Y-90181417D01*
X138194095Y-90128687D01*
X138150087Y-90063635D01*
X138100217Y-89990151D01*
X138090356Y-89975645D01*
X138032492Y-89889704D01*
X137989956Y-89824261D01*
X137961054Y-89776304D01*
X137944090Y-89742820D01*
X137937367Y-89720795D01*
X137939190Y-89707217D01*
X137939236Y-89707131D01*
X137953586Y-89689297D01*
X137985323Y-89654817D01*
X138031010Y-89607268D01*
X138087204Y-89550222D01*
X138150468Y-89487255D01*
X138157602Y-89480227D01*
X138237330Y-89403020D01*
X138298857Y-89346330D01*
X138343421Y-89309110D01*
X138372257Y-89290315D01*
X138384958Y-89287889D01*
X138403494Y-89298471D01*
X138441961Y-89322916D01*
X138496386Y-89358612D01*
X138562798Y-89402947D01*
X138637225Y-89453311D01*
X138654601Y-89465160D01*
X138901297Y-89633626D01*
X139012706Y-89583062D01*
X139080457Y-89553595D01*
X139153183Y-89523959D01*
X139215703Y-89500330D01*
X139218457Y-89499358D01*
X139267360Y-89481457D01*
X139305057Y-89466320D01*
X139323425Y-89457210D01*
X139323456Y-89457184D01*
X139329285Y-89440717D01*
X139339192Y-89400219D01*
X139352195Y-89340242D01*
X139367309Y-89265340D01*
X139383552Y-89180064D01*
X139384881Y-89172875D01*
X139401175Y-89085014D01*
X139416133Y-89005260D01*
X139428791Y-88938681D01*
X139438186Y-88890347D01*
X139443354Y-88865325D01*
X139443444Y-88864943D01*
X139446589Y-88854299D01*
X139452704Y-88846262D01*
X139465453Y-88840467D01*
X139488500Y-88836547D01*
X139525509Y-88834135D01*
X139580144Y-88832865D01*
X139656067Y-88832371D01*
X139756944Y-88832286D01*
X139770000Y-88832286D01*
X139873910Y-88832348D01*
G37*
X139873910Y-88832348D02*
X139952454Y-88832778D01*
X140009298Y-88833942D01*
X140048105Y-88836207D01*
X140072538Y-88839940D01*
X140086262Y-88845506D01*
X140092940Y-88853273D01*
X140096236Y-88863605D01*
X140096556Y-88864943D01*
X140101562Y-88889079D01*
X140110829Y-88936701D01*
X140123392Y-89002741D01*
X140138287Y-89082128D01*
X140154551Y-89169796D01*
X140155119Y-89172875D01*
X140171410Y-89258789D01*
X140186652Y-89334696D01*
X140199861Y-89396045D01*
X140210054Y-89438282D01*
X140216248Y-89456855D01*
X140216543Y-89457184D01*
X140234788Y-89466253D01*
X140272405Y-89481367D01*
X140321271Y-89499262D01*
X140321543Y-89499358D01*
X140383093Y-89522493D01*
X140455657Y-89551965D01*
X140524057Y-89581597D01*
X140527294Y-89583062D01*
X140638702Y-89633626D01*
X140885399Y-89465160D01*
X140961077Y-89413803D01*
X141029631Y-89367889D01*
X141087088Y-89330030D01*
X141129476Y-89302837D01*
X141152825Y-89288921D01*
X141155042Y-89287889D01*
X141172010Y-89292484D01*
X141203701Y-89314655D01*
X141251352Y-89355447D01*
X141316198Y-89415905D01*
X141382397Y-89480227D01*
X141446214Y-89543612D01*
X141503329Y-89601451D01*
X141550305Y-89650175D01*
X141583703Y-89686210D01*
X141600085Y-89705984D01*
X141600694Y-89707002D01*
X141602505Y-89720572D01*
X141595683Y-89742733D01*
X141578540Y-89776478D01*
X141549393Y-89824800D01*
X141506555Y-89890692D01*
X141449448Y-89975517D01*
X141398766Y-90050177D01*
X141353461Y-90117140D01*
X141316150Y-90172516D01*
X141289452Y-90212420D01*
X141275985Y-90232962D01*
X141275137Y-90234356D01*
X141276781Y-90254038D01*
X141289245Y-90292293D01*
X141310048Y-90341889D01*
X141317462Y-90357728D01*
X141349814Y-90428290D01*
X141384328Y-90508353D01*
X141412365Y-90577629D01*
X141432568Y-90629045D01*
X141448615Y-90668119D01*
X141457888Y-90688541D01*
X141459041Y-90690114D01*
X141476096Y-90692721D01*
X141516298Y-90699863D01*
X141574302Y-90710523D01*
X141644763Y-90723685D01*
X141722335Y-90738333D01*
X141801672Y-90753449D01*
X141877431Y-90768018D01*
X141944264Y-90781022D01*
X141996828Y-90791445D01*
X142029776Y-90798270D01*
X142037857Y-90800199D01*
X142046205Y-90804962D01*
X142052506Y-90815718D01*
X142057045Y-90836098D01*
X142060104Y-90869734D01*
X142061967Y-90920255D01*
X142062918Y-90991292D01*
X142063240Y-91086476D01*
X142063257Y-91125492D01*
X142063257Y-91442799D01*
X141987057Y-91457839D01*
X141944663Y-91465995D01*
X141881400Y-91477899D01*
X141804962Y-91492116D01*
X141723043Y-91507210D01*
X141700400Y-91511355D01*
X141624806Y-91526053D01*
X141558953Y-91540505D01*
X141508366Y-91553375D01*
X141478574Y-91563322D01*
X141473612Y-91566287D01*
X141461426Y-91587283D01*
X141443953Y-91627967D01*
X141424577Y-91680322D01*
X141420734Y-91691600D01*
X141395339Y-91761523D01*
X141363817Y-91840418D01*
X141332969Y-91911266D01*
X141332817Y-91911595D01*
X141281447Y-92022733D01*
X141450399Y-92271253D01*
X141619352Y-92519772D01*
X141402429Y-92737058D01*
X141336819Y-92801726D01*
X141276979Y-92858733D01*
X141226267Y-92905033D01*
X141188046Y-92937584D01*
X141165675Y-92953343D01*
X141162466Y-92954343D01*
X141143626Y-92946469D01*
X141105180Y-92924578D01*
X141051330Y-92891267D01*
X140986276Y-92849131D01*
X140915940Y-92801943D01*
X140844555Y-92753810D01*
X140780908Y-92711928D01*
X140729041Y-92678871D01*
X140692995Y-92657218D01*
X140676867Y-92649543D01*
X140657189Y-92656037D01*
X140619875Y-92673150D01*
X140572621Y-92697326D01*
X140567612Y-92700013D01*
X140503977Y-92731927D01*
X140460341Y-92747579D01*
X140433202Y-92747745D01*
X140419057Y-92733204D01*
X140418975Y-92733000D01*
X140411905Y-92715779D01*
X140395042Y-92674899D01*
X140369695Y-92613525D01*
X140337171Y-92534819D01*
X140298778Y-92441947D01*
X140255822Y-92338072D01*
X140214222Y-92237502D01*
X140168504Y-92126516D01*
X140126526Y-92023703D01*
X140089548Y-91932215D01*
X140058827Y-91855201D01*
X140035622Y-91795815D01*
X140021190Y-91757209D01*
X140016743Y-91742800D01*
X140027896Y-91726272D01*
X140057069Y-91699930D01*
X140095971Y-91670887D01*
X140206757Y-91579039D01*
X140293351Y-91473759D01*
X140354716Y-91357266D01*
X140389815Y-91231776D01*
X140397608Y-91099507D01*
X140391943Y-91038457D01*
X140361078Y-90911795D01*
X140307920Y-90799941D01*
X140235767Y-90704001D01*
X140147917Y-90625076D01*
X140047665Y-90564270D01*
X139938310Y-90522687D01*
X139823147Y-90501428D01*
X139705475Y-90501599D01*
X139588590Y-90524301D01*
X139475789Y-90570638D01*
X139370369Y-90641713D01*
X139326368Y-90681911D01*
X139241979Y-90785129D01*
X139183222Y-90897925D01*
X139149704Y-91017010D01*
X139141035Y-91139095D01*
X139156823Y-91260893D01*
X139196678Y-91379116D01*
X139260207Y-91490475D01*
X139347021Y-91591684D01*
X139444029Y-91670887D01*
X139484437Y-91701162D01*
X139512982Y-91727219D01*
X139523257Y-91742825D01*
X139517877Y-91759843D01*
X139502575Y-91800500D01*
X139478612Y-91861642D01*
X139447244Y-91940119D01*
X139409732Y-92032780D01*
X139367333Y-92136472D01*
X139325663Y-92237526D01*
X139279690Y-92348607D01*
X139237107Y-92451541D01*
X139199221Y-92543165D01*
X139167340Y-92620316D01*
X139142771Y-92679831D01*
X139126820Y-92718544D01*
X139120910Y-92733000D01*
X139106948Y-92747685D01*
X139079940Y-92747642D01*
X139036413Y-92732099D01*
X138972890Y-92700284D01*
X138972388Y-92700013D01*
X138924560Y-92675323D01*
X138885897Y-92657338D01*
X138864095Y-92649614D01*
X138863133Y-92649543D01*
X138846721Y-92657378D01*
X138810487Y-92679165D01*
X138758474Y-92712328D01*
X138694725Y-92754291D01*
X138624060Y-92801943D01*
X138552116Y-92850191D01*
X138487274Y-92892151D01*
X138433735Y-92925227D01*
X138395697Y-92946821D01*
X138377533Y-92954343D01*
X138360808Y-92944457D01*
X138327180Y-92916826D01*
X138280010Y-92874495D01*
X138222658Y-92820505D01*
X138158484Y-92757899D01*
X138137497Y-92736983D01*
X137920499Y-92519623D01*
X138085668Y-92277220D01*
X138135864Y-92202781D01*
X138179919Y-92135972D01*
X138215362Y-92080665D01*
X138239719Y-92040729D01*
X138250522Y-92020036D01*
X138250838Y-92018563D01*
X138245143Y-91999058D01*
X138229826Y-91959822D01*
X138207537Y-91907430D01*
X138191893Y-91872355D01*
X138162641Y-91805201D01*
X138135094Y-91737358D01*
X138113737Y-91680034D01*
X138107935Y-91662572D01*
X138091452Y-91615938D01*
X138075340Y-91579905D01*
X138066490Y-91566287D01*
X138046960Y-91557952D01*
X138004334Y-91546137D01*
X137944145Y-91532181D01*
X137871922Y-91517422D01*
X137839600Y-91511355D01*
X137757522Y-91496273D01*
X137678795Y-91481669D01*
X137611109Y-91468980D01*
X137562160Y-91459642D01*
X137552943Y-91457839D01*
X137476743Y-91442799D01*
X137476743Y-91125492D01*
X137476914Y-91021154D01*
X137477616Y-90942213D01*
X137479134Y-90885038D01*
X137481749Y-90845999D01*
X137485746Y-90821465D01*
X137491409Y-90807805D01*
X137499020Y-90801389D01*
X137502143Y-90800199D01*
X137520978Y-90795980D01*
X137562588Y-90787562D01*
X137621630Y-90775961D01*
X137692757Y-90762195D01*
X137770625Y-90747280D01*
X137849887Y-90732232D01*
X137925198Y-90718069D01*
X137991213Y-90705806D01*
X138042587Y-90696461D01*
X138073975Y-90691050D01*
X138080959Y-90690114D01*
X138087285Y-90677596D01*
X138101290Y-90644246D01*
X138120355Y-90596377D01*
X138127634Y-90577629D01*
X138156996Y-90505195D01*
X138191571Y-90425170D01*
X138222537Y-90357728D01*
X138245323Y-90306159D01*
X138260482Y-90263785D01*
X138265542Y-90237834D01*
X138264736Y-90234356D01*
X138254041Y-90217936D01*
X138229620Y-90181417D01*
X138194095Y-90128687D01*
X138150087Y-90063635D01*
X138100217Y-89990151D01*
X138090356Y-89975645D01*
X138032492Y-89889704D01*
X137989956Y-89824261D01*
X137961054Y-89776304D01*
X137944090Y-89742820D01*
X137937367Y-89720795D01*
X137939190Y-89707217D01*
X137939236Y-89707131D01*
X137953586Y-89689297D01*
X137985323Y-89654817D01*
X138031010Y-89607268D01*
X138087204Y-89550222D01*
X138150468Y-89487255D01*
X138157602Y-89480227D01*
X138237330Y-89403020D01*
X138298857Y-89346330D01*
X138343421Y-89309110D01*
X138372257Y-89290315D01*
X138384958Y-89287889D01*
X138403494Y-89298471D01*
X138441961Y-89322916D01*
X138496386Y-89358612D01*
X138562798Y-89402947D01*
X138637225Y-89453311D01*
X138654601Y-89465160D01*
X138901297Y-89633626D01*
X139012706Y-89583062D01*
X139080457Y-89553595D01*
X139153183Y-89523959D01*
X139215703Y-89500330D01*
X139218457Y-89499358D01*
X139267360Y-89481457D01*
X139305057Y-89466320D01*
X139323425Y-89457210D01*
X139323456Y-89457184D01*
X139329285Y-89440717D01*
X139339192Y-89400219D01*
X139352195Y-89340242D01*
X139367309Y-89265340D01*
X139383552Y-89180064D01*
X139384881Y-89172875D01*
X139401175Y-89085014D01*
X139416133Y-89005260D01*
X139428791Y-88938681D01*
X139438186Y-88890347D01*
X139443354Y-88865325D01*
X139443444Y-88864943D01*
X139446589Y-88854299D01*
X139452704Y-88846262D01*
X139465453Y-88840467D01*
X139488500Y-88836547D01*
X139525509Y-88834135D01*
X139580144Y-88832865D01*
X139656067Y-88832371D01*
X139756944Y-88832286D01*
X139770000Y-88832286D01*
X139873910Y-88832348D01*
D13*
%TO.C,J3*%
X133010000Y-89070000D02*
X138210000Y-89070000D01*
X133010000Y-83930000D02*
X133010000Y-89070000D01*
X138210000Y-81330000D02*
X138210000Y-89070000D01*
X133010000Y-83930000D02*
X135610000Y-83930000D01*
X135610000Y-83930000D02*
X135610000Y-81330000D01*
X135610000Y-81330000D02*
X138210000Y-81330000D01*
X133010000Y-82660000D02*
X133010000Y-81330000D01*
X133010000Y-81330000D02*
X134340000Y-81330000D01*
%TO.C,SW3*%
X138415000Y-80190000D02*
X138315000Y-80190000D01*
X136815000Y-75790000D02*
X136815000Y-76840000D01*
X139915000Y-80190000D02*
X139915000Y-75790000D01*
X138415000Y-75790000D02*
X138315000Y-75790000D01*
X136815000Y-79140000D02*
X136815000Y-80190000D01*
%TO.C,R13*%
X134727258Y-80587500D02*
X134252742Y-80587500D01*
X134727258Y-79542500D02*
X134252742Y-79542500D01*
%TO.C,C4*%
X146664420Y-78100000D02*
X146945580Y-78100000D01*
X146664420Y-79120000D02*
X146945580Y-79120000D01*
%TO.C,C3*%
X143795580Y-79120000D02*
X143514420Y-79120000D01*
X143795580Y-78100000D02*
X143514420Y-78100000D01*
%TO.C,R10*%
X155592500Y-83617258D02*
X155592500Y-83142742D01*
X154547500Y-83617258D02*
X154547500Y-83142742D01*
%TO.C,R9*%
X156067500Y-83162742D02*
X156067500Y-83637258D01*
X157112500Y-83162742D02*
X157112500Y-83637258D01*
%TO.C,R8*%
X159817500Y-83282742D02*
X159817500Y-83757258D01*
X160862500Y-83282742D02*
X160862500Y-83757258D01*
%TO.C,R7*%
X159932258Y-80737500D02*
X159457742Y-80737500D01*
X159932258Y-81782500D02*
X159457742Y-81782500D01*
%TO.C,Q1*%
X159370000Y-82460000D02*
X159370000Y-84010000D01*
X157570000Y-84010000D02*
X157570000Y-82710000D01*
%TO.C,J2*%
X166650000Y-91480000D02*
X165320000Y-91480000D01*
X166650000Y-90150000D02*
X166650000Y-91480000D01*
X166650000Y-88880000D02*
X163990000Y-88880000D01*
X163990000Y-88880000D02*
X163990000Y-86280000D01*
X166650000Y-88880000D02*
X166650000Y-86280000D01*
X166650000Y-86280000D02*
X163990000Y-86280000D01*
D11*
%TO.C,P1*%
X171610000Y-85690000D02*
X171610000Y-75690000D01*
X171610000Y-75690000D02*
X164860000Y-75690000D01*
X164860000Y-85690000D02*
X171610000Y-85690000D01*
D16*
%TO.C,U2*%
X143310000Y-94710000D02*
X153510000Y-94710000D01*
X153510000Y-79509997D02*
X143310000Y-79510000D01*
X153510000Y-79509997D02*
X153510000Y-94710000D01*
X143310000Y-79510000D02*
X143310000Y-94710000D01*
D17*
%TO.C,U1*%
X159235000Y-88860000D02*
G75*
G03*
X159235000Y-88860000I-125000J0D01*
G01*
D13*
%TO.C,R5*%
X140417500Y-83662258D02*
X140417500Y-83187742D01*
X141462500Y-83662258D02*
X141462500Y-83187742D01*
%TO.C,R3*%
X141452500Y-86147742D02*
X141452500Y-86622258D01*
X140407500Y-86147742D02*
X140407500Y-86622258D01*
%TO.C,R2*%
X157747258Y-90242500D02*
X157272742Y-90242500D01*
X157747258Y-89197500D02*
X157272742Y-89197500D01*
%TO.C,C2*%
X161180000Y-87549420D02*
X161180000Y-87830580D01*
X160160000Y-87549420D02*
X160160000Y-87830580D01*
%TO.C,C1*%
X157394420Y-85220000D02*
X157675580Y-85220000D01*
X157394420Y-86240000D02*
X157675580Y-86240000D01*
%TO.C,J1*%
X132570000Y-77100004D02*
X114610000Y-77100004D01*
X132570000Y-92620004D02*
X132570000Y-77100004D01*
X132570000Y-92620004D02*
X114610000Y-92620004D01*
X114610000Y-77100004D02*
X114610000Y-92620004D01*
X128690000Y-76915004D02*
X129190000Y-76415004D01*
X129190000Y-76415004D02*
X128190000Y-76415004D01*
X128190000Y-76415004D02*
X128690000Y-76915004D01*
X116758100Y-100412180D02*
X116758100Y-110412180D01*
X119958100Y-100412180D02*
X116758100Y-100412180D01*
X116758100Y-110412180D02*
X119958100Y-110412180D01*
%TO.C,C1*%
X149601821Y-48832180D02*
X149927379Y-48832180D01*
X149601821Y-47812180D02*
X149927379Y-47812180D01*
%TO.C,Q1*%
X132020100Y-47034180D02*
X132020100Y-45574180D01*
X135180100Y-47034180D02*
X135180100Y-44874180D01*
X135180100Y-47034180D02*
X134250100Y-47034180D01*
X132020100Y-47034180D02*
X132950100Y-47034180D01*
%TO.C,D1*%
X129486100Y-48922180D02*
X129486100Y-45022180D01*
X131486100Y-48922180D02*
X131486100Y-45022180D01*
X129486100Y-48922180D02*
X131486100Y-48922180D01*
%TO.C,R6*%
X136838100Y-46461447D02*
X136838100Y-46118913D01*
X135818100Y-46461447D02*
X135818100Y-46118913D01*
%TO.C,R5*%
X139378100Y-58258447D02*
X139378100Y-57915913D01*
X138358100Y-58258447D02*
X138358100Y-57915913D01*
%TO.C,R4*%
X149538100Y-58258447D02*
X149538100Y-57915913D01*
X148518100Y-58258447D02*
X148518100Y-57915913D01*
%TO.C,R3*%
X146998100Y-58258447D02*
X146998100Y-57915913D01*
X145978100Y-58258447D02*
X145978100Y-57915913D01*
%TO.C,R2*%
X144458100Y-58258447D02*
X144458100Y-57915913D01*
X143438100Y-58258447D02*
X143438100Y-57915913D01*
%TO.C,R1*%
X141918100Y-58258447D02*
X141918100Y-57915913D01*
X140898100Y-58258447D02*
X140898100Y-57915913D01*
%TD*%
%TO.C,J3*%
D11*
X133146666Y-89362380D02*
X133146666Y-90076666D01*
X133099047Y-90219523D01*
X133003809Y-90314761D01*
X132860952Y-90362380D01*
X132765714Y-90362380D01*
X133527619Y-89362380D02*
X134146666Y-89362380D01*
X133813333Y-89743333D01*
X133956190Y-89743333D01*
X134051428Y-89790952D01*
X134099047Y-89838571D01*
X134146666Y-89933809D01*
X134146666Y-90171904D01*
X134099047Y-90267142D01*
X134051428Y-90314761D01*
X133956190Y-90362380D01*
X133670476Y-90362380D01*
X133575238Y-90314761D01*
X133527619Y-90267142D01*
%TO.C,SW3*%
X138969761Y-79273333D02*
X139017380Y-79130476D01*
X139017380Y-78892380D01*
X138969761Y-78797142D01*
X138922142Y-78749523D01*
X138826904Y-78701904D01*
X138731666Y-78701904D01*
X138636428Y-78749523D01*
X138588809Y-78797142D01*
X138541190Y-78892380D01*
X138493571Y-79082857D01*
X138445952Y-79178095D01*
X138398333Y-79225714D01*
X138303095Y-79273333D01*
X138207857Y-79273333D01*
X138112619Y-79225714D01*
X138065000Y-79178095D01*
X138017380Y-79082857D01*
X138017380Y-78844761D01*
X138065000Y-78701904D01*
X138017380Y-78368571D02*
X139017380Y-78130476D01*
X138303095Y-77940000D01*
X139017380Y-77749523D01*
X138017380Y-77511428D01*
X138017380Y-77225714D02*
X138017380Y-76606666D01*
X138398333Y-76940000D01*
X138398333Y-76797142D01*
X138445952Y-76701904D01*
X138493571Y-76654285D01*
X138588809Y-76606666D01*
X138826904Y-76606666D01*
X138922142Y-76654285D01*
X138969761Y-76701904D01*
X139017380Y-76797142D01*
X139017380Y-77082857D01*
X138969761Y-77178095D01*
X138922142Y-77225714D01*
X141302380Y-77527619D02*
X140826190Y-77860952D01*
X141302380Y-78099047D02*
X140302380Y-78099047D01*
X140302380Y-77718095D01*
X140350000Y-77622857D01*
X140397619Y-77575238D01*
X140492857Y-77527619D01*
X140635714Y-77527619D01*
X140730952Y-77575238D01*
X140778571Y-77622857D01*
X140826190Y-77718095D01*
X140826190Y-78099047D01*
X141254761Y-77146666D02*
X141302380Y-77003809D01*
X141302380Y-76765714D01*
X141254761Y-76670476D01*
X141207142Y-76622857D01*
X141111904Y-76575238D01*
X141016666Y-76575238D01*
X140921428Y-76622857D01*
X140873809Y-76670476D01*
X140826190Y-76765714D01*
X140778571Y-76956190D01*
X140730952Y-77051428D01*
X140683333Y-77099047D01*
X140588095Y-77146666D01*
X140492857Y-77146666D01*
X140397619Y-77099047D01*
X140350000Y-77051428D01*
X140302380Y-76956190D01*
X140302380Y-76718095D01*
X140350000Y-76575238D01*
X140302380Y-76289523D02*
X140302380Y-75718095D01*
X141302380Y-76003809D02*
X140302380Y-76003809D01*
%TO.C,R13*%
D13*
X135365714Y-81171904D02*
X135099047Y-80790952D01*
X134908571Y-81171904D02*
X134908571Y-80371904D01*
X135213333Y-80371904D01*
X135289523Y-80410000D01*
X135327619Y-80448095D01*
X135365714Y-80524285D01*
X135365714Y-80638571D01*
X135327619Y-80714761D01*
X135289523Y-80752857D01*
X135213333Y-80790952D01*
X134908571Y-80790952D01*
X136127619Y-81171904D02*
X135670476Y-81171904D01*
X135899047Y-81171904D02*
X135899047Y-80371904D01*
X135822857Y-80486190D01*
X135746666Y-80562380D01*
X135670476Y-80600476D01*
X136394285Y-80371904D02*
X136889523Y-80371904D01*
X136622857Y-80676666D01*
X136737142Y-80676666D01*
X136813333Y-80714761D01*
X136851428Y-80752857D01*
X136889523Y-80829047D01*
X136889523Y-81019523D01*
X136851428Y-81095714D01*
X136813333Y-81133809D01*
X136737142Y-81171904D01*
X136508571Y-81171904D01*
X136432380Y-81133809D01*
X136394285Y-81095714D01*
%TO.C,C4*%
D11*
X146638333Y-77537142D02*
X146590714Y-77584761D01*
X146447857Y-77632380D01*
X146352619Y-77632380D01*
X146209761Y-77584761D01*
X146114523Y-77489523D01*
X146066904Y-77394285D01*
X146019285Y-77203809D01*
X146019285Y-77060952D01*
X146066904Y-76870476D01*
X146114523Y-76775238D01*
X146209761Y-76680000D01*
X146352619Y-76632380D01*
X146447857Y-76632380D01*
X146590714Y-76680000D01*
X146638333Y-76727619D01*
X147495476Y-76965714D02*
X147495476Y-77632380D01*
X147257380Y-76584761D02*
X147019285Y-77299047D01*
X147638333Y-77299047D01*
%TO.C,C3*%
X143513333Y-77617142D02*
X143465714Y-77664761D01*
X143322857Y-77712380D01*
X143227619Y-77712380D01*
X143084761Y-77664761D01*
X142989523Y-77569523D01*
X142941904Y-77474285D01*
X142894285Y-77283809D01*
X142894285Y-77140952D01*
X142941904Y-76950476D01*
X142989523Y-76855238D01*
X143084761Y-76760000D01*
X143227619Y-76712380D01*
X143322857Y-76712380D01*
X143465714Y-76760000D01*
X143513333Y-76807619D01*
X143846666Y-76712380D02*
X144465714Y-76712380D01*
X144132380Y-77093333D01*
X144275238Y-77093333D01*
X144370476Y-77140952D01*
X144418095Y-77188571D01*
X144465714Y-77283809D01*
X144465714Y-77521904D01*
X144418095Y-77617142D01*
X144370476Y-77664761D01*
X144275238Y-77712380D01*
X143989523Y-77712380D01*
X143894285Y-77664761D01*
X143846666Y-77617142D01*
%TO.C,R10*%
X155182380Y-80902857D02*
X154706190Y-81236190D01*
X155182380Y-81474285D02*
X154182380Y-81474285D01*
X154182380Y-81093333D01*
X154230000Y-80998095D01*
X154277619Y-80950476D01*
X154372857Y-80902857D01*
X154515714Y-80902857D01*
X154610952Y-80950476D01*
X154658571Y-80998095D01*
X154706190Y-81093333D01*
X154706190Y-81474285D01*
X155182380Y-79950476D02*
X155182380Y-80521904D01*
X155182380Y-80236190D02*
X154182380Y-80236190D01*
X154325238Y-80331428D01*
X154420476Y-80426666D01*
X154468095Y-80521904D01*
X154182380Y-79331428D02*
X154182380Y-79236190D01*
X154230000Y-79140952D01*
X154277619Y-79093333D01*
X154372857Y-79045714D01*
X154563333Y-78998095D01*
X154801428Y-78998095D01*
X154991904Y-79045714D01*
X155087142Y-79093333D01*
X155134761Y-79140952D01*
X155182380Y-79236190D01*
X155182380Y-79331428D01*
X155134761Y-79426666D01*
X155087142Y-79474285D01*
X154991904Y-79521904D01*
X154801428Y-79569523D01*
X154563333Y-79569523D01*
X154372857Y-79521904D01*
X154277619Y-79474285D01*
X154230000Y-79426666D01*
X154182380Y-79331428D01*
%TO.C,R9*%
X156632380Y-81126666D02*
X156156190Y-81460000D01*
X156632380Y-81698095D02*
X155632380Y-81698095D01*
X155632380Y-81317142D01*
X155680000Y-81221904D01*
X155727619Y-81174285D01*
X155822857Y-81126666D01*
X155965714Y-81126666D01*
X156060952Y-81174285D01*
X156108571Y-81221904D01*
X156156190Y-81317142D01*
X156156190Y-81698095D01*
X156632380Y-80650476D02*
X156632380Y-80460000D01*
X156584761Y-80364761D01*
X156537142Y-80317142D01*
X156394285Y-80221904D01*
X156203809Y-80174285D01*
X155822857Y-80174285D01*
X155727619Y-80221904D01*
X155680000Y-80269523D01*
X155632380Y-80364761D01*
X155632380Y-80555238D01*
X155680000Y-80650476D01*
X155727619Y-80698095D01*
X155822857Y-80745714D01*
X156060952Y-80745714D01*
X156156190Y-80698095D01*
X156203809Y-80650476D01*
X156251428Y-80555238D01*
X156251428Y-80364761D01*
X156203809Y-80269523D01*
X156156190Y-80221904D01*
X156060952Y-80174285D01*
%TO.C,R8*%
X162102380Y-84336666D02*
X161626190Y-84670000D01*
X162102380Y-84908095D02*
X161102380Y-84908095D01*
X161102380Y-84527142D01*
X161150000Y-84431904D01*
X161197619Y-84384285D01*
X161292857Y-84336666D01*
X161435714Y-84336666D01*
X161530952Y-84384285D01*
X161578571Y-84431904D01*
X161626190Y-84527142D01*
X161626190Y-84908095D01*
X161530952Y-83765238D02*
X161483333Y-83860476D01*
X161435714Y-83908095D01*
X161340476Y-83955714D01*
X161292857Y-83955714D01*
X161197619Y-83908095D01*
X161150000Y-83860476D01*
X161102380Y-83765238D01*
X161102380Y-83574761D01*
X161150000Y-83479523D01*
X161197619Y-83431904D01*
X161292857Y-83384285D01*
X161340476Y-83384285D01*
X161435714Y-83431904D01*
X161483333Y-83479523D01*
X161530952Y-83574761D01*
X161530952Y-83765238D01*
X161578571Y-83860476D01*
X161626190Y-83908095D01*
X161721428Y-83955714D01*
X161911904Y-83955714D01*
X162007142Y-83908095D01*
X162054761Y-83860476D01*
X162102380Y-83765238D01*
X162102380Y-83574761D01*
X162054761Y-83479523D01*
X162007142Y-83431904D01*
X161911904Y-83384285D01*
X161721428Y-83384285D01*
X161626190Y-83431904D01*
X161578571Y-83479523D01*
X161530952Y-83574761D01*
%TO.C,R7*%
X159453333Y-79852380D02*
X159120000Y-79376190D01*
X158881904Y-79852380D02*
X158881904Y-78852380D01*
X159262857Y-78852380D01*
X159358095Y-78900000D01*
X159405714Y-78947619D01*
X159453333Y-79042857D01*
X159453333Y-79185714D01*
X159405714Y-79280952D01*
X159358095Y-79328571D01*
X159262857Y-79376190D01*
X158881904Y-79376190D01*
X159786666Y-78852380D02*
X160453333Y-78852380D01*
X160024761Y-79852380D01*
%TO.C,Q1*%
X158027619Y-81055238D02*
X157980000Y-81150476D01*
X157884761Y-81245714D01*
X157741904Y-81388571D01*
X157694285Y-81483809D01*
X157694285Y-81579047D01*
X157932380Y-81531428D02*
X157884761Y-81626666D01*
X157789523Y-81721904D01*
X157599047Y-81769523D01*
X157265714Y-81769523D01*
X157075238Y-81721904D01*
X156980000Y-81626666D01*
X156932380Y-81531428D01*
X156932380Y-81340952D01*
X156980000Y-81245714D01*
X157075238Y-81150476D01*
X157265714Y-81102857D01*
X157599047Y-81102857D01*
X157789523Y-81150476D01*
X157884761Y-81245714D01*
X157932380Y-81340952D01*
X157932380Y-81531428D01*
X157932380Y-80150476D02*
X157932380Y-80721904D01*
X157932380Y-80436190D02*
X156932380Y-80436190D01*
X157075238Y-80531428D01*
X157170476Y-80626666D01*
X157218095Y-80721904D01*
%TO.C,J2*%
X162186666Y-85142380D02*
X162186666Y-85856666D01*
X162139047Y-85999523D01*
X162043809Y-86094761D01*
X161900952Y-86142380D01*
X161805714Y-86142380D01*
X162615238Y-85237619D02*
X162662857Y-85190000D01*
X162758095Y-85142380D01*
X162996190Y-85142380D01*
X163091428Y-85190000D01*
X163139047Y-85237619D01*
X163186666Y-85332857D01*
X163186666Y-85428095D01*
X163139047Y-85570952D01*
X162567619Y-86142380D01*
X163186666Y-86142380D01*
%TO.C,P1*%
X162692380Y-77338095D02*
X161692380Y-77338095D01*
X161692380Y-76957142D01*
X161740000Y-76861904D01*
X161787619Y-76814285D01*
X161882857Y-76766666D01*
X162025714Y-76766666D01*
X162120952Y-76814285D01*
X162168571Y-76861904D01*
X162216190Y-76957142D01*
X162216190Y-77338095D01*
X162692380Y-75814285D02*
X162692380Y-76385714D01*
X162692380Y-76100000D02*
X161692380Y-76100000D01*
X161835238Y-76195238D01*
X161930476Y-76290476D01*
X161978095Y-76385714D01*
%TO.C,U2*%
X147362380Y-87571904D02*
X148171904Y-87571904D01*
X148267142Y-87524285D01*
X148314761Y-87476666D01*
X148362380Y-87381428D01*
X148362380Y-87190952D01*
X148314761Y-87095714D01*
X148267142Y-87048095D01*
X148171904Y-87000476D01*
X147362380Y-87000476D01*
X147457619Y-86571904D02*
X147410000Y-86524285D01*
X147362380Y-86429047D01*
X147362380Y-86190952D01*
X147410000Y-86095714D01*
X147457619Y-86048095D01*
X147552857Y-86000476D01*
X147648095Y-86000476D01*
X147790952Y-86048095D01*
X148362380Y-86619523D01*
X148362380Y-86000476D01*
%TO.C,U1*%
X154278095Y-87032380D02*
X154278095Y-87841904D01*
X154325714Y-87937142D01*
X154373333Y-87984761D01*
X154468571Y-88032380D01*
X154659047Y-88032380D01*
X154754285Y-87984761D01*
X154801904Y-87937142D01*
X154849523Y-87841904D01*
X154849523Y-87032380D01*
X155849523Y-88032380D02*
X155278095Y-88032380D01*
X155563809Y-88032380D02*
X155563809Y-87032380D01*
X155468571Y-87175238D01*
X155373333Y-87270476D01*
X155278095Y-87318095D01*
%TO.C,R5*%
X139962380Y-83591666D02*
X139486190Y-83925000D01*
X139962380Y-84163095D02*
X138962380Y-84163095D01*
X138962380Y-83782142D01*
X139010000Y-83686904D01*
X139057619Y-83639285D01*
X139152857Y-83591666D01*
X139295714Y-83591666D01*
X139390952Y-83639285D01*
X139438571Y-83686904D01*
X139486190Y-83782142D01*
X139486190Y-84163095D01*
X138962380Y-82686904D02*
X138962380Y-83163095D01*
X139438571Y-83210714D01*
X139390952Y-83163095D01*
X139343333Y-83067857D01*
X139343333Y-82829761D01*
X139390952Y-82734523D01*
X139438571Y-82686904D01*
X139533809Y-82639285D01*
X139771904Y-82639285D01*
X139867142Y-82686904D01*
X139914761Y-82734523D01*
X139962380Y-82829761D01*
X139962380Y-83067857D01*
X139914761Y-83163095D01*
X139867142Y-83210714D01*
%TO.C,R3*%
X139922380Y-86551666D02*
X139446190Y-86885000D01*
X139922380Y-87123095D02*
X138922380Y-87123095D01*
X138922380Y-86742142D01*
X138970000Y-86646904D01*
X139017619Y-86599285D01*
X139112857Y-86551666D01*
X139255714Y-86551666D01*
X139350952Y-86599285D01*
X139398571Y-86646904D01*
X139446190Y-86742142D01*
X139446190Y-87123095D01*
X138922380Y-86218333D02*
X138922380Y-85599285D01*
X139303333Y-85932619D01*
X139303333Y-85789761D01*
X139350952Y-85694523D01*
X139398571Y-85646904D01*
X139493809Y-85599285D01*
X139731904Y-85599285D01*
X139827142Y-85646904D01*
X139874761Y-85694523D01*
X139922380Y-85789761D01*
X139922380Y-86075476D01*
X139874761Y-86170714D01*
X139827142Y-86218333D01*
%TO.C,R2*%
X154853333Y-90102380D02*
X154520000Y-89626190D01*
X154281904Y-90102380D02*
X154281904Y-89102380D01*
X154662857Y-89102380D01*
X154758095Y-89150000D01*
X154805714Y-89197619D01*
X154853333Y-89292857D01*
X154853333Y-89435714D01*
X154805714Y-89530952D01*
X154758095Y-89578571D01*
X154662857Y-89626190D01*
X154281904Y-89626190D01*
X155234285Y-89197619D02*
X155281904Y-89150000D01*
X155377142Y-89102380D01*
X155615238Y-89102380D01*
X155710476Y-89150000D01*
X155758095Y-89197619D01*
X155805714Y-89292857D01*
X155805714Y-89388095D01*
X155758095Y-89530952D01*
X155186666Y-90102380D01*
X155805714Y-90102380D01*
%TO.C,C2*%
X160987142Y-90166666D02*
X161034761Y-90214285D01*
X161082380Y-90357142D01*
X161082380Y-90452380D01*
X161034761Y-90595238D01*
X160939523Y-90690476D01*
X160844285Y-90738095D01*
X160653809Y-90785714D01*
X160510952Y-90785714D01*
X160320476Y-90738095D01*
X160225238Y-90690476D01*
X160130000Y-90595238D01*
X160082380Y-90452380D01*
X160082380Y-90357142D01*
X160130000Y-90214285D01*
X160177619Y-90166666D01*
X160177619Y-89785714D02*
X160130000Y-89738095D01*
X160082380Y-89642857D01*
X160082380Y-89404761D01*
X160130000Y-89309523D01*
X160177619Y-89261904D01*
X160272857Y-89214285D01*
X160368095Y-89214285D01*
X160510952Y-89261904D01*
X161082380Y-89833333D01*
X161082380Y-89214285D01*
%TO.C,C1*%
X155063333Y-85867142D02*
X155015714Y-85914761D01*
X154872857Y-85962380D01*
X154777619Y-85962380D01*
X154634761Y-85914761D01*
X154539523Y-85819523D01*
X154491904Y-85724285D01*
X154444285Y-85533809D01*
X154444285Y-85390952D01*
X154491904Y-85200476D01*
X154539523Y-85105238D01*
X154634761Y-85010000D01*
X154777619Y-84962380D01*
X154872857Y-84962380D01*
X155015714Y-85010000D01*
X155063333Y-85057619D01*
X156015714Y-85962380D02*
X155444285Y-85962380D01*
X155730000Y-85962380D02*
X155730000Y-84962380D01*
X155634761Y-85105238D01*
X155539523Y-85200476D01*
X155444285Y-85248095D01*
%TO.C,J1*%
X130966666Y-77462384D02*
X130966666Y-78176670D01*
X130919047Y-78319527D01*
X130823809Y-78414765D01*
X130680952Y-78462384D01*
X130585714Y-78462384D01*
X131966666Y-78462384D02*
X131395238Y-78462384D01*
X131680952Y-78462384D02*
X131680952Y-77462384D01*
X131585714Y-77605242D01*
X131490476Y-77700480D01*
X131395238Y-77748099D01*
X117800480Y-111805513D02*
X118514766Y-111805513D01*
X118657623Y-111853132D01*
X118752861Y-111948370D01*
X118800480Y-112091227D01*
X118800480Y-112186465D01*
X118800480Y-110805513D02*
X118800480Y-111376941D01*
X118800480Y-111091227D02*
X117800480Y-111091227D01*
X117943338Y-111186465D01*
X118038576Y-111281703D01*
X118086195Y-111376941D01*
%TO.C,C1*%
X149597933Y-47249322D02*
X149550314Y-47296941D01*
X149407457Y-47344560D01*
X149312219Y-47344560D01*
X149169361Y-47296941D01*
X149074123Y-47201703D01*
X149026504Y-47106465D01*
X148978885Y-46915989D01*
X148978885Y-46773132D01*
X149026504Y-46582656D01*
X149074123Y-46487418D01*
X149169361Y-46392180D01*
X149312219Y-46344560D01*
X149407457Y-46344560D01*
X149550314Y-46392180D01*
X149597933Y-46439799D01*
X150550314Y-47344560D02*
X149978885Y-47344560D01*
X150264600Y-47344560D02*
X150264600Y-46344560D01*
X150169361Y-46487418D01*
X150074123Y-46582656D01*
X149978885Y-46630275D01*
%TO.C,Q1*%
X136367719Y-49179418D02*
X136320100Y-49274656D01*
X136224861Y-49369894D01*
X136082004Y-49512751D01*
X136034385Y-49607989D01*
X136034385Y-49703227D01*
X136272480Y-49655608D02*
X136224861Y-49750846D01*
X136129623Y-49846084D01*
X135939147Y-49893703D01*
X135605814Y-49893703D01*
X135415338Y-49846084D01*
X135320100Y-49750846D01*
X135272480Y-49655608D01*
X135272480Y-49465132D01*
X135320100Y-49369894D01*
X135415338Y-49274656D01*
X135605814Y-49227037D01*
X135939147Y-49227037D01*
X136129623Y-49274656D01*
X136224861Y-49369894D01*
X136272480Y-49465132D01*
X136272480Y-49655608D01*
X136272480Y-48274656D02*
X136272480Y-48846084D01*
X136272480Y-48560370D02*
X135272480Y-48560370D01*
X135415338Y-48655608D01*
X135510576Y-48750846D01*
X135558195Y-48846084D01*
%TO.C,D1*%
X128938480Y-47410275D02*
X127938480Y-47410275D01*
X127938480Y-47172180D01*
X127986100Y-47029322D01*
X128081338Y-46934084D01*
X128176576Y-46886465D01*
X128367052Y-46838846D01*
X128509909Y-46838846D01*
X128700385Y-46886465D01*
X128795623Y-46934084D01*
X128890861Y-47029322D01*
X128938480Y-47172180D01*
X128938480Y-47410275D01*
X128938480Y-45886465D02*
X128938480Y-46457894D01*
X128938480Y-46172180D02*
X127938480Y-46172180D01*
X128081338Y-46267418D01*
X128176576Y-46362656D01*
X128224195Y-46457894D01*
%TO.C,R6*%
X137796480Y-49250846D02*
X137320290Y-49584180D01*
X137796480Y-49822275D02*
X136796480Y-49822275D01*
X136796480Y-49441322D01*
X136844100Y-49346084D01*
X136891719Y-49298465D01*
X136986957Y-49250846D01*
X137129814Y-49250846D01*
X137225052Y-49298465D01*
X137272671Y-49346084D01*
X137320290Y-49441322D01*
X137320290Y-49822275D01*
X136796480Y-48393703D02*
X136796480Y-48584180D01*
X136844100Y-48679418D01*
X136891719Y-48727037D01*
X137034576Y-48822275D01*
X137225052Y-48869894D01*
X137606004Y-48869894D01*
X137701242Y-48822275D01*
X137748861Y-48774656D01*
X137796480Y-48679418D01*
X137796480Y-48488941D01*
X137748861Y-48393703D01*
X137701242Y-48346084D01*
X137606004Y-48298465D01*
X137367909Y-48298465D01*
X137272671Y-48346084D01*
X137225052Y-48393703D01*
X137177433Y-48488941D01*
X137177433Y-48679418D01*
X137225052Y-48774656D01*
X137272671Y-48822275D01*
X137367909Y-48869894D01*
%TO.C,R5*%
X137890480Y-58253846D02*
X137414290Y-58587180D01*
X137890480Y-58825275D02*
X136890480Y-58825275D01*
X136890480Y-58444322D01*
X136938100Y-58349084D01*
X136985719Y-58301465D01*
X137080957Y-58253846D01*
X137223814Y-58253846D01*
X137319052Y-58301465D01*
X137366671Y-58349084D01*
X137414290Y-58444322D01*
X137414290Y-58825275D01*
X136890480Y-57349084D02*
X136890480Y-57825275D01*
X137366671Y-57872894D01*
X137319052Y-57825275D01*
X137271433Y-57730037D01*
X137271433Y-57491941D01*
X137319052Y-57396703D01*
X137366671Y-57349084D01*
X137461909Y-57301465D01*
X137700004Y-57301465D01*
X137795242Y-57349084D01*
X137842861Y-57396703D01*
X137890480Y-57491941D01*
X137890480Y-57730037D01*
X137842861Y-57825275D01*
X137795242Y-57872894D01*
%TO.C,R4*%
X148050480Y-58253846D02*
X147574290Y-58587180D01*
X148050480Y-58825275D02*
X147050480Y-58825275D01*
X147050480Y-58444322D01*
X147098100Y-58349084D01*
X147145719Y-58301465D01*
X147240957Y-58253846D01*
X147383814Y-58253846D01*
X147479052Y-58301465D01*
X147526671Y-58349084D01*
X147574290Y-58444322D01*
X147574290Y-58825275D01*
X147383814Y-57396703D02*
X148050480Y-57396703D01*
X147002861Y-57634799D02*
X147717147Y-57872894D01*
X147717147Y-57253846D01*
%TO.C,R3*%
X145510480Y-58253846D02*
X145034290Y-58587180D01*
X145510480Y-58825275D02*
X144510480Y-58825275D01*
X144510480Y-58444322D01*
X144558100Y-58349084D01*
X144605719Y-58301465D01*
X144700957Y-58253846D01*
X144843814Y-58253846D01*
X144939052Y-58301465D01*
X144986671Y-58349084D01*
X145034290Y-58444322D01*
X145034290Y-58825275D01*
X144510480Y-57920513D02*
X144510480Y-57301465D01*
X144891433Y-57634799D01*
X144891433Y-57491941D01*
X144939052Y-57396703D01*
X144986671Y-57349084D01*
X145081909Y-57301465D01*
X145320004Y-57301465D01*
X145415242Y-57349084D01*
X145462861Y-57396703D01*
X145510480Y-57491941D01*
X145510480Y-57777656D01*
X145462861Y-57872894D01*
X145415242Y-57920513D01*
%TO.C,R2*%
X142970480Y-58253846D02*
X142494290Y-58587180D01*
X142970480Y-58825275D02*
X141970480Y-58825275D01*
X141970480Y-58444322D01*
X142018100Y-58349084D01*
X142065719Y-58301465D01*
X142160957Y-58253846D01*
X142303814Y-58253846D01*
X142399052Y-58301465D01*
X142446671Y-58349084D01*
X142494290Y-58444322D01*
X142494290Y-58825275D01*
X142065719Y-57872894D02*
X142018100Y-57825275D01*
X141970480Y-57730037D01*
X141970480Y-57491941D01*
X142018100Y-57396703D01*
X142065719Y-57349084D01*
X142160957Y-57301465D01*
X142256195Y-57301465D01*
X142399052Y-57349084D01*
X142970480Y-57920513D01*
X142970480Y-57301465D01*
%TO.C,R1*%
X140430480Y-58253846D02*
X139954290Y-58587180D01*
X140430480Y-58825275D02*
X139430480Y-58825275D01*
X139430480Y-58444322D01*
X139478100Y-58349084D01*
X139525719Y-58301465D01*
X139620957Y-58253846D01*
X139763814Y-58253846D01*
X139859052Y-58301465D01*
X139906671Y-58349084D01*
X139954290Y-58444322D01*
X139954290Y-58825275D01*
X140430480Y-57301465D02*
X140430480Y-57872894D01*
X140430480Y-57587180D02*
X139430480Y-57587180D01*
X139573338Y-57682418D01*
X139668576Y-57777656D01*
X139716195Y-57872894D01*
%TD*%
M02*
