M48
; DRILL file {KiCad (5.1.10)-1} date 10/06/21 18:17:40
; FORMAT={-:-/ absolute / inch / decimal}
; #@! TF.CreationDate,2021-10-06T18:17:40-05:00
; #@! TF.GenerationSoftware,Kicad,Pcbnew,(5.1.10)-1
; #@! TF.FileFunction,Plated,1,2,PTH
FMAT,2
INCH
T1C0.0118
T2C0.0157
T3C0.0197
T4C0.0236
T5C0.0256
T6C0.0299
T7C0.0354
T8C0.0394
%
G90
G05
T1
X4.614Y-4.032
X4.62Y-3.9654
X4.6413Y-4.1107
X4.6413Y-4.3217
X4.6424Y-4.3836
X4.644Y-4.2631
X4.7476Y-4.0154
X4.77Y-4.3591
X4.7704Y-4.13
X4.7704Y-4.1666
X4.7787Y-3.9422
X4.7806Y-4.2674
X4.781Y-4.2005
X4.7826Y-4.0906
X4.7921Y-4.4237
X4.7946Y-3.8707
X4.8354Y-3.9528
X4.9113Y-4.4099
X4.9373Y-4.4489
X5.2972Y-3.84
X5.3306Y-4.4591
X5.3334Y-4.2143
X5.3606Y-4.1005
X5.3889Y-4.1351
X5.4621Y-4.1391
X6.2913Y-3.4531
T2
X4.6992Y-3.4906
X4.6992Y-3.6181
X4.7495Y-3.83
X4.9142Y-3.1161
X5.0035Y-3.2232
X5.148Y-3.152
X5.362Y-3.6923
X5.4268Y-3.6079
X5.4681Y-3.6709
X5.4691Y-3.6079
X5.4795Y-3.1047
X5.4799Y-3.4161
X5.5102Y-3.6083
X5.5303Y-3.2142
X5.5839Y-3.1059
X5.5921Y-3.2839
X5.598Y-3.1437
X5.6138Y-3.5419
X5.621Y-3.6299
X5.7238Y-3.0697
X5.8772Y-3.1031
X5.9496Y-3.0768
X5.989Y-3.0768
X6.0295Y-3.0783
X6.0563Y-3.3146
X6.0697Y-3.0748
X6.0905Y-3.482
X6.098Y-3.5434
X6.1043Y-3.376
X6.1307Y-3.1118
X6.132Y-3.0723
X6.1965Y-3.2114
X6.2858Y-3.0709
X6.2902Y-3.3783
X6.3012Y-3.5331
X6.3449Y-2.989
X6.3882Y-3.0185
X6.3898Y-3.2705
X6.3925Y-3.2201
T3
X4.6535Y-2.6517
X4.8078Y-2.5213
X4.8098Y-2.5627
X4.8334Y-2.921
X4.8334Y-2.9643
X4.8472Y-2.5213
X4.8491Y-2.5627
X4.8826Y-2.921
X4.8826Y-2.9643
X4.8865Y-2.5213
X4.8885Y-2.5627
X4.9747Y-3.7304
X4.9751Y-3.7914
X5.0106Y-3.7292
X5.0106Y-3.7906
X5.0495Y-2.6528
X5.348Y-2.5233
X5.3491Y-2.5647
X5.3649Y-2.917
X5.3649Y-2.9603
X5.3865Y-2.5233
X5.3885Y-2.5647
X5.4072Y-2.2524
X5.4141Y-2.917
X5.4141Y-2.9603
X5.4259Y-2.5233
X5.4263Y-2.5647
X5.5027Y-4.1119
X5.5027Y-4.1513
X5.5027Y-4.1906
X5.544Y-4.1099
X5.544Y-4.1493
X5.544Y-4.1887
X5.5672Y-2.1924
X5.6322Y-3.8087
X5.6326Y-3.7221
X5.6672Y-2.1924
X5.67Y-3.8087
X5.672Y-3.7221
X5.709Y-3.8087
X5.7113Y-3.7221
X5.7204Y-2.6461
X5.7672Y-2.1924
X5.8078Y-4.1107
X5.8109Y-4.1804
X5.8133Y-4.1458
X5.8539Y-4.1461
X5.8653Y-4.1111
X5.8696Y-4.182
X5.8826Y-2.5174
X5.8846Y-2.5587
X5.8984Y-2.917
X5.8984Y-2.9603
X5.922Y-2.5174
X5.9239Y-2.5587
X5.9476Y-2.917
X5.9476Y-2.9603
X5.9613Y-2.5174
X5.9633Y-2.5587
X5.9872Y-1.9024
X6.1165Y-2.6473
X6.1877Y-2.0706
X6.1877Y-2.1099
X6.1877Y-2.1493
X6.3098Y-2.0686
X6.3098Y-2.108
X6.3098Y-2.1473
X6.4102Y-3.7202
X6.4102Y-3.7969
X6.42Y-2.9131
X6.42Y-2.9603
X6.422Y-2.5135
X6.4239Y-2.5548
X6.4574Y-3.7202
X6.4574Y-3.7989
X6.4613Y-2.5135
X6.4633Y-2.5548
X6.483Y-2.9131
X6.483Y-2.9603
X6.5007Y-2.5135
X6.5027Y-2.5548
X6.6795Y-3.9977
X6.6795Y-4.3111
X6.7188Y-3.917
X6.7188Y-4.0741
X6.7188Y-4.2336
X6.7188Y-4.3879
T5
X6.5102Y-3.063
X6.5102Y-3.2906
T6
X5.0665Y-3.1659
X5.0665Y-3.2659
X5.0665Y-3.3659
X5.0665Y-3.4659
X5.1665Y-3.2159
X5.1665Y-3.3159
X5.1665Y-3.4159
X5.1665Y-3.5159
X5.1672Y-1.9924
X5.1672Y-2.0924
X5.1672Y-2.1924
X5.1672Y-2.2924
X5.2672Y-1.9424
X5.2672Y-2.0424
X5.2672Y-2.1424
X5.2672Y-2.2424
T7
X5.4672Y-1.796
X5.4672Y-2.4324
X5.5672Y-1.796
X5.5672Y-2.4324
X5.6672Y-1.796
X5.6672Y-2.4324
X5.7672Y-1.796
X5.7672Y-2.4324
X5.8672Y-1.796
X5.8672Y-2.4324
X5.9672Y-1.796
X5.9672Y-2.4324
X6.0672Y-1.796
X6.0672Y-2.4324
T8
X4.852Y-3.6811
X4.952Y-3.6811
X5.052Y-3.6811
X5.152Y-3.6811
X5.289Y-3.2543
X5.289Y-3.3543
X5.289Y-3.4543
X5.389Y-3.2543
X5.389Y-3.3543
X5.389Y-3.4543
X6.5087Y-3.4492
X6.5087Y-3.5492
T4
G00X6.4689Y-3.0067
M15
G01X6.5122Y-3.0067
M16
G05
G00X6.4689Y-3.3469
M15
G01X6.5122Y-3.3469
M16
G05
G00X6.6382Y-3.0067
M15
G01X6.6697Y-3.0067
M16
G05
G00X6.6382Y-3.3469
M15
G01X6.6697Y-3.3469
M16
G05
T0
M30
