%TF.GenerationSoftware,KiCad,Pcbnew,(5.1.10)-1*%
%TF.CreationDate,2021-10-06T18:31:44-05:00*%
%TF.ProjectId,BYTE_FSR,42595445-5f46-4535-922e-6b696361645f,rev?*%
%TF.SameCoordinates,Original*%
%TF.FileFunction,Soldermask,Top*%
%TF.FilePolarity,Negative*%
%FSLAX46Y46*%
G04 Gerber Fmt 4.6, Leading zero omitted, Abs format (unit mm)*
G04 Created by KiCad (PCBNEW (5.1.10)-1) date 2021-10-06 18:31:44*
%MOMM*%
%LPD*%
G01*
G04 APERTURE LIST*
%ADD10C,0.100000*%
%ADD11C,0.010000*%
%ADD12C,6.000000*%
%ADD13C,1.000000*%
G04 APERTURE END LIST*
D10*
%TO.C,J1*%
G36*
X131920000Y-99960000D02*
G01*
X131910000Y-100140000D01*
X131880000Y-100240000D01*
X131840000Y-100380000D01*
X131780000Y-100470000D01*
X131620000Y-100740000D01*
X131420000Y-101090000D01*
X131340000Y-101390000D01*
X131310000Y-101600000D01*
X131280000Y-102170000D01*
X132970000Y-102170000D01*
X132970000Y-99210000D01*
X131940000Y-99210000D01*
X131920000Y-99960000D01*
G37*
X131920000Y-99960000D02*
X131910000Y-100140000D01*
X131880000Y-100240000D01*
X131840000Y-100380000D01*
X131780000Y-100470000D01*
X131620000Y-100740000D01*
X131420000Y-101090000D01*
X131340000Y-101390000D01*
X131310000Y-101600000D01*
X131280000Y-102170000D01*
X132970000Y-102170000D01*
X132970000Y-99210000D01*
X131940000Y-99210000D01*
X131920000Y-99960000D01*
G36*
X120760000Y-100000000D02*
G01*
X120770000Y-100180000D01*
X120800000Y-100280000D01*
X120840000Y-100420000D01*
X120900000Y-100510000D01*
X121060000Y-100780000D01*
X121260000Y-101130000D01*
X121340000Y-101430000D01*
X121370000Y-101640000D01*
X121400000Y-102210000D01*
X119710000Y-102210000D01*
X119710000Y-99250000D01*
X120740000Y-99250000D01*
X120760000Y-100000000D01*
G37*
X120760000Y-100000000D02*
X120770000Y-100180000D01*
X120800000Y-100280000D01*
X120840000Y-100420000D01*
X120900000Y-100510000D01*
X121060000Y-100780000D01*
X121260000Y-101130000D01*
X121340000Y-101430000D01*
X121370000Y-101640000D01*
X121400000Y-102210000D01*
X119710000Y-102210000D01*
X119710000Y-99250000D01*
X120740000Y-99250000D01*
X120760000Y-100000000D01*
D11*
G36*
X121915157Y-101997117D02*
G01*
X121908028Y-101891645D01*
X121903076Y-101778012D01*
X121901468Y-101691732D01*
X121894288Y-101529171D01*
X121874388Y-101362265D01*
X121844225Y-101207728D01*
X121815636Y-101107925D01*
X121789699Y-101047355D01*
X121745939Y-100960957D01*
X121689579Y-100858418D01*
X121625842Y-100749420D01*
X121595870Y-100700400D01*
X121509201Y-100558460D01*
X121442996Y-100443790D01*
X121393595Y-100348873D01*
X121357339Y-100266190D01*
X121330571Y-100188224D01*
X121311708Y-100116477D01*
X121298857Y-100044652D01*
X121285479Y-99941717D01*
X121272580Y-99818868D01*
X121261165Y-99687300D01*
X121252241Y-99558211D01*
X121246812Y-99442795D01*
X121245636Y-99380936D01*
X121245301Y-99259227D01*
X123366474Y-99259227D01*
X123352261Y-99613769D01*
X123346188Y-99742136D01*
X123338706Y-99864971D01*
X123330559Y-99972003D01*
X123322494Y-100052958D01*
X123318143Y-100083945D01*
X123277669Y-100229299D01*
X123242219Y-100308695D01*
X122658930Y-100308695D01*
X122654148Y-100198126D01*
X122607718Y-100092716D01*
X122561580Y-100034525D01*
X122465077Y-99958135D01*
X122358199Y-99921313D01*
X122245879Y-99925002D01*
X122156625Y-99957137D01*
X122057025Y-100028136D01*
X121994110Y-100119595D01*
X121968871Y-100229215D01*
X121982299Y-100354694D01*
X121983412Y-100359073D01*
X122029744Y-100466671D01*
X122101037Y-100546334D01*
X122189808Y-100597320D01*
X122288573Y-100618890D01*
X122389850Y-100610302D01*
X122486157Y-100570818D01*
X122570010Y-100499695D01*
X122621725Y-100422237D01*
X122658930Y-100308695D01*
X123242219Y-100308695D01*
X123202209Y-100398302D01*
X123091740Y-100591004D01*
X123055320Y-100648006D01*
X122953245Y-100811993D01*
X122875473Y-100955111D01*
X122817186Y-101087217D01*
X122773562Y-101218165D01*
X122769711Y-101231978D01*
X122748024Y-101331259D01*
X122727704Y-101461168D01*
X122710000Y-101610000D01*
X122696160Y-101766049D01*
X122687431Y-101917610D01*
X122684970Y-102026769D01*
X122684634Y-102159061D01*
X121928846Y-102159061D01*
X121915157Y-101997117D01*
G37*
X121915157Y-101997117D02*
X121908028Y-101891645D01*
X121903076Y-101778012D01*
X121901468Y-101691732D01*
X121894288Y-101529171D01*
X121874388Y-101362265D01*
X121844225Y-101207728D01*
X121815636Y-101107925D01*
X121789699Y-101047355D01*
X121745939Y-100960957D01*
X121689579Y-100858418D01*
X121625842Y-100749420D01*
X121595870Y-100700400D01*
X121509201Y-100558460D01*
X121442996Y-100443790D01*
X121393595Y-100348873D01*
X121357339Y-100266190D01*
X121330571Y-100188224D01*
X121311708Y-100116477D01*
X121298857Y-100044652D01*
X121285479Y-99941717D01*
X121272580Y-99818868D01*
X121261165Y-99687300D01*
X121252241Y-99558211D01*
X121246812Y-99442795D01*
X121245636Y-99380936D01*
X121245301Y-99259227D01*
X123366474Y-99259227D01*
X123352261Y-99613769D01*
X123346188Y-99742136D01*
X123338706Y-99864971D01*
X123330559Y-99972003D01*
X123322494Y-100052958D01*
X123318143Y-100083945D01*
X123277669Y-100229299D01*
X123242219Y-100308695D01*
X122658930Y-100308695D01*
X122654148Y-100198126D01*
X122607718Y-100092716D01*
X122561580Y-100034525D01*
X122465077Y-99958135D01*
X122358199Y-99921313D01*
X122245879Y-99925002D01*
X122156625Y-99957137D01*
X122057025Y-100028136D01*
X121994110Y-100119595D01*
X121968871Y-100229215D01*
X121982299Y-100354694D01*
X121983412Y-100359073D01*
X122029744Y-100466671D01*
X122101037Y-100546334D01*
X122189808Y-100597320D01*
X122288573Y-100618890D01*
X122389850Y-100610302D01*
X122486157Y-100570818D01*
X122570010Y-100499695D01*
X122621725Y-100422237D01*
X122658930Y-100308695D01*
X123242219Y-100308695D01*
X123202209Y-100398302D01*
X123091740Y-100591004D01*
X123055320Y-100648006D01*
X122953245Y-100811993D01*
X122875473Y-100955111D01*
X122817186Y-101087217D01*
X122773562Y-101218165D01*
X122769711Y-101231978D01*
X122748024Y-101331259D01*
X122727704Y-101461168D01*
X122710000Y-101610000D01*
X122696160Y-101766049D01*
X122687431Y-101917610D01*
X122684970Y-102026769D01*
X122684634Y-102159061D01*
X121928846Y-102159061D01*
X121915157Y-101997117D01*
G36*
X128745880Y-99489217D02*
G01*
X128753009Y-99594689D01*
X128757961Y-99708322D01*
X128759569Y-99794602D01*
X128766749Y-99957163D01*
X128786649Y-100124069D01*
X128816812Y-100278606D01*
X128845401Y-100378409D01*
X128871338Y-100438979D01*
X128915098Y-100525377D01*
X128971458Y-100627916D01*
X129035195Y-100736914D01*
X129065167Y-100785934D01*
X129151836Y-100927874D01*
X129218041Y-101042544D01*
X129267442Y-101137461D01*
X129303698Y-101220144D01*
X129330466Y-101298110D01*
X129349329Y-101369857D01*
X129362180Y-101441682D01*
X129375558Y-101544617D01*
X129388457Y-101667466D01*
X129399872Y-101799034D01*
X129408796Y-101928123D01*
X129414225Y-102043539D01*
X129415401Y-102105398D01*
X129415736Y-102227107D01*
X127294563Y-102227107D01*
X127308776Y-101872565D01*
X127314849Y-101744198D01*
X127322331Y-101621363D01*
X127330478Y-101514331D01*
X127338543Y-101433376D01*
X127342894Y-101402389D01*
X127383368Y-101257035D01*
X127418818Y-101177639D01*
X128002107Y-101177639D01*
X128006889Y-101288208D01*
X128053319Y-101393618D01*
X128099457Y-101451809D01*
X128195960Y-101528199D01*
X128302838Y-101565021D01*
X128415158Y-101561332D01*
X128504412Y-101529197D01*
X128604012Y-101458198D01*
X128666927Y-101366739D01*
X128692166Y-101257119D01*
X128678738Y-101131640D01*
X128677625Y-101127261D01*
X128631293Y-101019663D01*
X128560000Y-100940000D01*
X128471229Y-100889014D01*
X128372464Y-100867444D01*
X128271187Y-100876032D01*
X128174880Y-100915516D01*
X128091027Y-100986639D01*
X128039312Y-101064097D01*
X128002107Y-101177639D01*
X127418818Y-101177639D01*
X127458828Y-101088032D01*
X127569297Y-100895330D01*
X127605717Y-100838328D01*
X127707792Y-100674341D01*
X127785564Y-100531223D01*
X127843851Y-100399117D01*
X127887475Y-100268169D01*
X127891326Y-100254356D01*
X127913013Y-100155075D01*
X127933333Y-100025166D01*
X127951037Y-99876334D01*
X127964877Y-99720285D01*
X127973606Y-99568724D01*
X127976067Y-99459565D01*
X127976403Y-99327273D01*
X128732191Y-99327273D01*
X128745880Y-99489217D01*
G37*
X128745880Y-99489217D02*
X128753009Y-99594689D01*
X128757961Y-99708322D01*
X128759569Y-99794602D01*
X128766749Y-99957163D01*
X128786649Y-100124069D01*
X128816812Y-100278606D01*
X128845401Y-100378409D01*
X128871338Y-100438979D01*
X128915098Y-100525377D01*
X128971458Y-100627916D01*
X129035195Y-100736914D01*
X129065167Y-100785934D01*
X129151836Y-100927874D01*
X129218041Y-101042544D01*
X129267442Y-101137461D01*
X129303698Y-101220144D01*
X129330466Y-101298110D01*
X129349329Y-101369857D01*
X129362180Y-101441682D01*
X129375558Y-101544617D01*
X129388457Y-101667466D01*
X129399872Y-101799034D01*
X129408796Y-101928123D01*
X129414225Y-102043539D01*
X129415401Y-102105398D01*
X129415736Y-102227107D01*
X127294563Y-102227107D01*
X127308776Y-101872565D01*
X127314849Y-101744198D01*
X127322331Y-101621363D01*
X127330478Y-101514331D01*
X127338543Y-101433376D01*
X127342894Y-101402389D01*
X127383368Y-101257035D01*
X127418818Y-101177639D01*
X128002107Y-101177639D01*
X128006889Y-101288208D01*
X128053319Y-101393618D01*
X128099457Y-101451809D01*
X128195960Y-101528199D01*
X128302838Y-101565021D01*
X128415158Y-101561332D01*
X128504412Y-101529197D01*
X128604012Y-101458198D01*
X128666927Y-101366739D01*
X128692166Y-101257119D01*
X128678738Y-101131640D01*
X128677625Y-101127261D01*
X128631293Y-101019663D01*
X128560000Y-100940000D01*
X128471229Y-100889014D01*
X128372464Y-100867444D01*
X128271187Y-100876032D01*
X128174880Y-100915516D01*
X128091027Y-100986639D01*
X128039312Y-101064097D01*
X128002107Y-101177639D01*
X127418818Y-101177639D01*
X127458828Y-101088032D01*
X127569297Y-100895330D01*
X127605717Y-100838328D01*
X127707792Y-100674341D01*
X127785564Y-100531223D01*
X127843851Y-100399117D01*
X127887475Y-100268169D01*
X127891326Y-100254356D01*
X127913013Y-100155075D01*
X127933333Y-100025166D01*
X127951037Y-99876334D01*
X127964877Y-99720285D01*
X127973606Y-99568724D01*
X127976067Y-99459565D01*
X127976403Y-99327273D01*
X128732191Y-99327273D01*
X128745880Y-99489217D01*
G36*
X129955349Y-102029797D02*
G01*
X129948220Y-101924325D01*
X129943268Y-101810692D01*
X129941660Y-101724412D01*
X129934480Y-101561851D01*
X129914580Y-101394945D01*
X129884417Y-101240408D01*
X129855828Y-101140605D01*
X129829891Y-101080035D01*
X129786131Y-100993637D01*
X129729771Y-100891098D01*
X129666034Y-100782100D01*
X129636062Y-100733080D01*
X129549393Y-100591140D01*
X129483188Y-100476470D01*
X129433787Y-100381553D01*
X129397531Y-100298870D01*
X129370763Y-100220904D01*
X129351900Y-100149157D01*
X129339049Y-100077332D01*
X129325671Y-99974397D01*
X129312772Y-99851548D01*
X129301357Y-99719980D01*
X129292433Y-99590891D01*
X129287004Y-99475475D01*
X129285828Y-99413616D01*
X129285493Y-99291907D01*
X131406666Y-99291907D01*
X131392453Y-99646449D01*
X131386380Y-99774816D01*
X131378898Y-99897651D01*
X131370751Y-100004683D01*
X131362686Y-100085638D01*
X131358335Y-100116625D01*
X131317861Y-100261979D01*
X131282411Y-100341375D01*
X130699122Y-100341375D01*
X130694340Y-100230806D01*
X130647910Y-100125396D01*
X130601772Y-100067205D01*
X130505269Y-99990815D01*
X130398391Y-99953993D01*
X130286071Y-99957682D01*
X130196817Y-99989817D01*
X130097217Y-100060816D01*
X130034302Y-100152275D01*
X130009063Y-100261895D01*
X130022491Y-100387374D01*
X130023604Y-100391753D01*
X130069936Y-100499351D01*
X130141229Y-100579014D01*
X130230000Y-100630000D01*
X130328765Y-100651570D01*
X130430042Y-100642982D01*
X130526349Y-100603498D01*
X130610202Y-100532375D01*
X130661917Y-100454917D01*
X130699122Y-100341375D01*
X131282411Y-100341375D01*
X131242401Y-100430982D01*
X131131932Y-100623684D01*
X131095512Y-100680686D01*
X130993437Y-100844673D01*
X130915665Y-100987791D01*
X130857378Y-101119897D01*
X130813754Y-101250845D01*
X130809903Y-101264658D01*
X130788216Y-101363939D01*
X130767896Y-101493848D01*
X130750192Y-101642680D01*
X130736352Y-101798729D01*
X130727623Y-101950290D01*
X130725162Y-102059449D01*
X130724826Y-102191741D01*
X129969038Y-102191741D01*
X129955349Y-102029797D01*
G37*
X129955349Y-102029797D02*
X129948220Y-101924325D01*
X129943268Y-101810692D01*
X129941660Y-101724412D01*
X129934480Y-101561851D01*
X129914580Y-101394945D01*
X129884417Y-101240408D01*
X129855828Y-101140605D01*
X129829891Y-101080035D01*
X129786131Y-100993637D01*
X129729771Y-100891098D01*
X129666034Y-100782100D01*
X129636062Y-100733080D01*
X129549393Y-100591140D01*
X129483188Y-100476470D01*
X129433787Y-100381553D01*
X129397531Y-100298870D01*
X129370763Y-100220904D01*
X129351900Y-100149157D01*
X129339049Y-100077332D01*
X129325671Y-99974397D01*
X129312772Y-99851548D01*
X129301357Y-99719980D01*
X129292433Y-99590891D01*
X129287004Y-99475475D01*
X129285828Y-99413616D01*
X129285493Y-99291907D01*
X131406666Y-99291907D01*
X131392453Y-99646449D01*
X131386380Y-99774816D01*
X131378898Y-99897651D01*
X131370751Y-100004683D01*
X131362686Y-100085638D01*
X131358335Y-100116625D01*
X131317861Y-100261979D01*
X131282411Y-100341375D01*
X130699122Y-100341375D01*
X130694340Y-100230806D01*
X130647910Y-100125396D01*
X130601772Y-100067205D01*
X130505269Y-99990815D01*
X130398391Y-99953993D01*
X130286071Y-99957682D01*
X130196817Y-99989817D01*
X130097217Y-100060816D01*
X130034302Y-100152275D01*
X130009063Y-100261895D01*
X130022491Y-100387374D01*
X130023604Y-100391753D01*
X130069936Y-100499351D01*
X130141229Y-100579014D01*
X130230000Y-100630000D01*
X130328765Y-100651570D01*
X130430042Y-100642982D01*
X130526349Y-100603498D01*
X130610202Y-100532375D01*
X130661917Y-100454917D01*
X130699122Y-100341375D01*
X131282411Y-100341375D01*
X131242401Y-100430982D01*
X131131932Y-100623684D01*
X131095512Y-100680686D01*
X130993437Y-100844673D01*
X130915665Y-100987791D01*
X130857378Y-101119897D01*
X130813754Y-101250845D01*
X130809903Y-101264658D01*
X130788216Y-101363939D01*
X130767896Y-101493848D01*
X130750192Y-101642680D01*
X130736352Y-101798729D01*
X130727623Y-101950290D01*
X130725162Y-102059449D01*
X130724826Y-102191741D01*
X129969038Y-102191741D01*
X129955349Y-102029797D01*
G36*
X124720311Y-99460203D02*
G01*
X124727440Y-99565675D01*
X124732392Y-99679308D01*
X124734000Y-99765588D01*
X124741180Y-99928149D01*
X124761080Y-100095055D01*
X124791243Y-100249592D01*
X124819832Y-100349395D01*
X124845769Y-100409965D01*
X124889529Y-100496363D01*
X124945889Y-100598902D01*
X125009626Y-100707900D01*
X125039598Y-100756920D01*
X125126267Y-100898860D01*
X125192472Y-101013530D01*
X125241873Y-101108447D01*
X125278129Y-101191130D01*
X125304897Y-101269096D01*
X125323760Y-101340843D01*
X125336611Y-101412668D01*
X125349989Y-101515603D01*
X125362888Y-101638452D01*
X125374303Y-101770020D01*
X125383227Y-101899109D01*
X125388656Y-102014525D01*
X125389832Y-102076384D01*
X125390167Y-102198093D01*
X123268994Y-102198093D01*
X123283207Y-101843551D01*
X123289280Y-101715184D01*
X123296762Y-101592349D01*
X123304909Y-101485317D01*
X123312974Y-101404362D01*
X123317325Y-101373375D01*
X123357799Y-101228021D01*
X123393249Y-101148625D01*
X123976538Y-101148625D01*
X123981320Y-101259194D01*
X124027750Y-101364604D01*
X124073888Y-101422795D01*
X124170391Y-101499185D01*
X124277269Y-101536007D01*
X124389589Y-101532318D01*
X124478843Y-101500183D01*
X124578443Y-101429184D01*
X124641358Y-101337725D01*
X124666597Y-101228105D01*
X124653169Y-101102626D01*
X124652056Y-101098247D01*
X124605724Y-100990649D01*
X124534431Y-100910986D01*
X124445660Y-100860000D01*
X124346895Y-100838430D01*
X124245618Y-100847018D01*
X124149311Y-100886502D01*
X124065458Y-100957625D01*
X124013743Y-101035083D01*
X123976538Y-101148625D01*
X123393249Y-101148625D01*
X123433259Y-101059018D01*
X123543728Y-100866316D01*
X123580148Y-100809314D01*
X123682223Y-100645327D01*
X123759995Y-100502209D01*
X123818282Y-100370103D01*
X123861906Y-100239155D01*
X123865757Y-100225342D01*
X123887444Y-100126061D01*
X123907764Y-99996152D01*
X123925468Y-99847320D01*
X123939308Y-99691271D01*
X123948037Y-99539710D01*
X123950498Y-99430551D01*
X123950834Y-99298259D01*
X124706622Y-99298259D01*
X124720311Y-99460203D01*
G37*
X124720311Y-99460203D02*
X124727440Y-99565675D01*
X124732392Y-99679308D01*
X124734000Y-99765588D01*
X124741180Y-99928149D01*
X124761080Y-100095055D01*
X124791243Y-100249592D01*
X124819832Y-100349395D01*
X124845769Y-100409965D01*
X124889529Y-100496363D01*
X124945889Y-100598902D01*
X125009626Y-100707900D01*
X125039598Y-100756920D01*
X125126267Y-100898860D01*
X125192472Y-101013530D01*
X125241873Y-101108447D01*
X125278129Y-101191130D01*
X125304897Y-101269096D01*
X125323760Y-101340843D01*
X125336611Y-101412668D01*
X125349989Y-101515603D01*
X125362888Y-101638452D01*
X125374303Y-101770020D01*
X125383227Y-101899109D01*
X125388656Y-102014525D01*
X125389832Y-102076384D01*
X125390167Y-102198093D01*
X123268994Y-102198093D01*
X123283207Y-101843551D01*
X123289280Y-101715184D01*
X123296762Y-101592349D01*
X123304909Y-101485317D01*
X123312974Y-101404362D01*
X123317325Y-101373375D01*
X123357799Y-101228021D01*
X123393249Y-101148625D01*
X123976538Y-101148625D01*
X123981320Y-101259194D01*
X124027750Y-101364604D01*
X124073888Y-101422795D01*
X124170391Y-101499185D01*
X124277269Y-101536007D01*
X124389589Y-101532318D01*
X124478843Y-101500183D01*
X124578443Y-101429184D01*
X124641358Y-101337725D01*
X124666597Y-101228105D01*
X124653169Y-101102626D01*
X124652056Y-101098247D01*
X124605724Y-100990649D01*
X124534431Y-100910986D01*
X124445660Y-100860000D01*
X124346895Y-100838430D01*
X124245618Y-100847018D01*
X124149311Y-100886502D01*
X124065458Y-100957625D01*
X124013743Y-101035083D01*
X123976538Y-101148625D01*
X123393249Y-101148625D01*
X123433259Y-101059018D01*
X123543728Y-100866316D01*
X123580148Y-100809314D01*
X123682223Y-100645327D01*
X123759995Y-100502209D01*
X123818282Y-100370103D01*
X123861906Y-100239155D01*
X123865757Y-100225342D01*
X123887444Y-100126061D01*
X123907764Y-99996152D01*
X123925468Y-99847320D01*
X123939308Y-99691271D01*
X123948037Y-99539710D01*
X123950498Y-99430551D01*
X123950834Y-99298259D01*
X124706622Y-99298259D01*
X124720311Y-99460203D01*
D12*
X130350012Y-90890000D02*
G75*
G03*
X130350012Y-90890000I-4090012J0D01*
G01*
D10*
G36*
X126190000Y-100820000D02*
G01*
X126190000Y-100920000D01*
X126090000Y-100920000D01*
X126010000Y-100820000D01*
X125950000Y-100730000D01*
X125790000Y-100460000D01*
X125590000Y-100110000D01*
X125510000Y-99810000D01*
X125480000Y-99600000D01*
X125450000Y-99030000D01*
X126790000Y-99030000D01*
X126790000Y-100920000D01*
X126110000Y-100920000D01*
X126190000Y-100820000D01*
G37*
X126190000Y-100820000D02*
X126190000Y-100920000D01*
X126090000Y-100920000D01*
X126010000Y-100820000D01*
X125950000Y-100730000D01*
X125790000Y-100460000D01*
X125590000Y-100110000D01*
X125510000Y-99810000D01*
X125480000Y-99600000D01*
X125450000Y-99030000D01*
X126790000Y-99030000D01*
X126790000Y-100920000D01*
X126110000Y-100920000D01*
X126190000Y-100820000D01*
G36*
X126730000Y-100820000D02*
G01*
X126690000Y-100820000D01*
X126730000Y-100820000D01*
X126790000Y-100920000D01*
X126950000Y-100520000D01*
X127150000Y-100110000D01*
X127230000Y-99810000D01*
X127260000Y-99600000D01*
X127290000Y-99030000D01*
X125995000Y-99030000D01*
X125985000Y-100730000D01*
X126630000Y-100720000D01*
X126730000Y-100820000D01*
G37*
X126730000Y-100820000D02*
X126690000Y-100820000D01*
X126730000Y-100820000D01*
X126790000Y-100920000D01*
X126950000Y-100520000D01*
X127150000Y-100110000D01*
X127230000Y-99810000D01*
X127260000Y-99600000D01*
X127290000Y-99030000D01*
X125995000Y-99030000D01*
X125985000Y-100730000D01*
X126630000Y-100720000D01*
X126730000Y-100820000D01*
%TD*%
D13*
%TO.C,J1*%
X120340000Y-101240000D03*
X122390000Y-100240000D03*
X124330000Y-101240000D03*
X128380000Y-101240000D03*
X130350000Y-100240000D03*
X132300000Y-101240000D03*
%TD*%
M02*
