%TF.GenerationSoftware,KiCad,Pcbnew,(5.1.10)-1*%
%TF.CreationDate,2021-10-06T18:31:44-05:00*%
%TF.ProjectId,BYTE_FSR,42595445-5f46-4535-922e-6b696361645f,rev?*%
%TF.SameCoordinates,Original*%
%TF.FileFunction,Soldermask,Bot*%
%TF.FilePolarity,Negative*%
%FSLAX46Y46*%
G04 Gerber Fmt 4.6, Leading zero omitted, Abs format (unit mm)*
G04 Created by KiCad (PCBNEW (5.1.10)-1) date 2021-10-06 18:31:44*
%MOMM*%
%LPD*%
G01*
G04 APERTURE LIST*
%ADD10C,0.010000*%
%ADD11C,2.000000*%
%ADD12C,1.000000*%
G04 APERTURE END LIST*
D10*
%TO.C,J1*%
G36*
X132817299Y-102222708D02*
G01*
X131589632Y-102222708D01*
X131590000Y-101720000D01*
X131591479Y-101507863D01*
X131596700Y-101331731D01*
X131606383Y-101198554D01*
X131970632Y-101198554D01*
X131989767Y-101295196D01*
X132041356Y-101389559D01*
X132116676Y-101469539D01*
X132203466Y-101521653D01*
X132286164Y-101540306D01*
X132381637Y-101541581D01*
X132468733Y-101526059D01*
X132500027Y-101513507D01*
X132557665Y-101466044D01*
X132613039Y-101390776D01*
X132657401Y-101301729D01*
X132680088Y-101224750D01*
X132681651Y-101146240D01*
X132655004Y-101059060D01*
X132651785Y-101051664D01*
X132589024Y-100953318D01*
X132506796Y-100886538D01*
X132412066Y-100849820D01*
X132311799Y-100841663D01*
X132212961Y-100860565D01*
X132122518Y-100905023D01*
X132047435Y-100973536D01*
X131994676Y-101064601D01*
X131971208Y-101176716D01*
X131970632Y-101198554D01*
X131606383Y-101198554D01*
X131607345Y-101185326D01*
X131625098Y-101062370D01*
X131651642Y-100956583D01*
X131688659Y-100861689D01*
X131737834Y-100771408D01*
X131800849Y-100679462D01*
X131879388Y-100579574D01*
X131903594Y-100550284D01*
X132032022Y-100386716D01*
X132129562Y-100239443D01*
X132200007Y-100100484D01*
X132247151Y-99961858D01*
X132274787Y-99815585D01*
X132280951Y-99756476D01*
X132294344Y-99598042D01*
X132817299Y-99598042D01*
X132817299Y-102222708D01*
G37*
X132817299Y-102222708D02*
X131589632Y-102222708D01*
X131590000Y-101720000D01*
X131591479Y-101507863D01*
X131596700Y-101331731D01*
X131606383Y-101198554D01*
X131970632Y-101198554D01*
X131989767Y-101295196D01*
X132041356Y-101389559D01*
X132116676Y-101469539D01*
X132203466Y-101521653D01*
X132286164Y-101540306D01*
X132381637Y-101541581D01*
X132468733Y-101526059D01*
X132500027Y-101513507D01*
X132557665Y-101466044D01*
X132613039Y-101390776D01*
X132657401Y-101301729D01*
X132680088Y-101224750D01*
X132681651Y-101146240D01*
X132655004Y-101059060D01*
X132651785Y-101051664D01*
X132589024Y-100953318D01*
X132506796Y-100886538D01*
X132412066Y-100849820D01*
X132311799Y-100841663D01*
X132212961Y-100860565D01*
X132122518Y-100905023D01*
X132047435Y-100973536D01*
X131994676Y-101064601D01*
X131971208Y-101176716D01*
X131970632Y-101198554D01*
X131606383Y-101198554D01*
X131607345Y-101185326D01*
X131625098Y-101062370D01*
X131651642Y-100956583D01*
X131688659Y-100861689D01*
X131737834Y-100771408D01*
X131800849Y-100679462D01*
X131879388Y-100579574D01*
X131903594Y-100550284D01*
X132032022Y-100386716D01*
X132129562Y-100239443D01*
X132200007Y-100100484D01*
X132247151Y-99961858D01*
X132274787Y-99815585D01*
X132280951Y-99756476D01*
X132294344Y-99598042D01*
X132817299Y-99598042D01*
X132817299Y-102222708D01*
G36*
X128819152Y-100487758D02*
G01*
X129009545Y-100664414D01*
X129203037Y-100812547D01*
X129393245Y-100927549D01*
X129492839Y-100974457D01*
X129576143Y-101003222D01*
X129678331Y-101026585D01*
X129803361Y-101044912D01*
X129955193Y-101058570D01*
X130137785Y-101067924D01*
X130355096Y-101073341D01*
X130581462Y-101075148D01*
X130715484Y-101076163D01*
X130844841Y-101078503D01*
X130959499Y-101081887D01*
X131049422Y-101086034D01*
X131094754Y-101089494D01*
X131224859Y-101103092D01*
X131224859Y-102218895D01*
X127690026Y-102218895D01*
X127690026Y-101227344D01*
X127965083Y-101227344D01*
X127994541Y-101334930D01*
X128060393Y-101432064D01*
X128132868Y-101493433D01*
X128231831Y-101535840D01*
X128340782Y-101539850D01*
X128452431Y-101505714D01*
X128497032Y-101480917D01*
X128590000Y-101400000D01*
X128645705Y-101299159D01*
X128663692Y-101182770D01*
X128648391Y-101077906D01*
X128599423Y-100985924D01*
X128528762Y-100911731D01*
X128428080Y-100847843D01*
X128321629Y-100824806D01*
X128214708Y-100842608D01*
X128112616Y-100901241D01*
X128099170Y-100912567D01*
X128016987Y-101009095D01*
X127972428Y-101116377D01*
X127965083Y-101227344D01*
X127690026Y-101227344D01*
X127690026Y-100801031D01*
X127962344Y-100664572D01*
X128082700Y-100602659D01*
X128210465Y-100534267D01*
X128330582Y-100467606D01*
X128427988Y-100410884D01*
X128430012Y-100409659D01*
X128625361Y-100291204D01*
X128819152Y-100487758D01*
G37*
X128819152Y-100487758D02*
X129009545Y-100664414D01*
X129203037Y-100812547D01*
X129393245Y-100927549D01*
X129492839Y-100974457D01*
X129576143Y-101003222D01*
X129678331Y-101026585D01*
X129803361Y-101044912D01*
X129955193Y-101058570D01*
X130137785Y-101067924D01*
X130355096Y-101073341D01*
X130581462Y-101075148D01*
X130715484Y-101076163D01*
X130844841Y-101078503D01*
X130959499Y-101081887D01*
X131049422Y-101086034D01*
X131094754Y-101089494D01*
X131224859Y-101103092D01*
X131224859Y-102218895D01*
X127690026Y-102218895D01*
X127690026Y-101227344D01*
X127965083Y-101227344D01*
X127994541Y-101334930D01*
X128060393Y-101432064D01*
X128132868Y-101493433D01*
X128231831Y-101535840D01*
X128340782Y-101539850D01*
X128452431Y-101505714D01*
X128497032Y-101480917D01*
X128590000Y-101400000D01*
X128645705Y-101299159D01*
X128663692Y-101182770D01*
X128648391Y-101077906D01*
X128599423Y-100985924D01*
X128528762Y-100911731D01*
X128428080Y-100847843D01*
X128321629Y-100824806D01*
X128214708Y-100842608D01*
X128112616Y-100901241D01*
X128099170Y-100912567D01*
X128016987Y-101009095D01*
X127972428Y-101116377D01*
X127965083Y-101227344D01*
X127690026Y-101227344D01*
X127690026Y-100801031D01*
X127962344Y-100664572D01*
X128082700Y-100602659D01*
X128210465Y-100534267D01*
X128330582Y-100467606D01*
X128427988Y-100410884D01*
X128430012Y-100409659D01*
X128625361Y-100291204D01*
X128819152Y-100487758D01*
G36*
X130554455Y-99597082D02*
G01*
X130778284Y-99597579D01*
X130991465Y-99598570D01*
X131189866Y-99600000D01*
X131369353Y-99601817D01*
X131525793Y-99603964D01*
X131655052Y-99606390D01*
X131752998Y-99609040D01*
X131815496Y-99611859D01*
X131835417Y-99613804D01*
X131887720Y-99625370D01*
X131911623Y-99643534D01*
X131917135Y-99681859D01*
X131915667Y-99722543D01*
X131896628Y-99819502D01*
X131850894Y-99934133D01*
X131783507Y-100056088D01*
X131699508Y-100175024D01*
X131688611Y-100188529D01*
X131624250Y-100268484D01*
X131553759Y-100358270D01*
X131483210Y-100449894D01*
X131418676Y-100535367D01*
X131366229Y-100606697D01*
X131331943Y-100655895D01*
X131325132Y-100666793D01*
X131316164Y-100678577D01*
X131301380Y-100687859D01*
X131276026Y-100694968D01*
X131235346Y-100700235D01*
X131174584Y-100703990D01*
X131088985Y-100706563D01*
X130973793Y-100708286D01*
X130824252Y-100709487D01*
X130700715Y-100710175D01*
X130537576Y-100710348D01*
X130381412Y-100709289D01*
X130239243Y-100707139D01*
X130118091Y-100704038D01*
X130024975Y-100700128D01*
X129966919Y-100695551D01*
X129965580Y-100695377D01*
X129788241Y-100662068D01*
X129628612Y-100609468D01*
X129478150Y-100533073D01*
X129328308Y-100428380D01*
X129170543Y-100290885D01*
X129136786Y-100258568D01*
X129028582Y-100153603D01*
X129970575Y-100153603D01*
X129974130Y-100262688D01*
X130018188Y-100365099D01*
X130101847Y-100458232D01*
X130170628Y-100508546D01*
X130229527Y-100545464D01*
X130268318Y-100563265D01*
X130303466Y-100564151D01*
X130351435Y-100550325D01*
X130388131Y-100537631D01*
X130481042Y-100502497D01*
X130544279Y-100468541D01*
X130589462Y-100427606D01*
X130628209Y-100371537D01*
X130630671Y-100367362D01*
X130673955Y-100255744D01*
X130676392Y-100142845D01*
X130638986Y-100033754D01*
X130562740Y-99933562D01*
X130541163Y-99913491D01*
X130491634Y-99875584D01*
X130443212Y-99856576D01*
X130377460Y-99850437D01*
X130347722Y-99850211D01*
X130216593Y-99867066D01*
X130111535Y-99917090D01*
X130031777Y-100000715D01*
X130008425Y-100040450D01*
X129970575Y-100153603D01*
X129028582Y-100153603D01*
X128914417Y-100042857D01*
X129136289Y-99819360D01*
X129358160Y-99595863D01*
X130554455Y-99597082D01*
G37*
X130554455Y-99597082D02*
X130778284Y-99597579D01*
X130991465Y-99598570D01*
X131189866Y-99600000D01*
X131369353Y-99601817D01*
X131525793Y-99603964D01*
X131655052Y-99606390D01*
X131752998Y-99609040D01*
X131815496Y-99611859D01*
X131835417Y-99613804D01*
X131887720Y-99625370D01*
X131911623Y-99643534D01*
X131917135Y-99681859D01*
X131915667Y-99722543D01*
X131896628Y-99819502D01*
X131850894Y-99934133D01*
X131783507Y-100056088D01*
X131699508Y-100175024D01*
X131688611Y-100188529D01*
X131624250Y-100268484D01*
X131553759Y-100358270D01*
X131483210Y-100449894D01*
X131418676Y-100535367D01*
X131366229Y-100606697D01*
X131331943Y-100655895D01*
X131325132Y-100666793D01*
X131316164Y-100678577D01*
X131301380Y-100687859D01*
X131276026Y-100694968D01*
X131235346Y-100700235D01*
X131174584Y-100703990D01*
X131088985Y-100706563D01*
X130973793Y-100708286D01*
X130824252Y-100709487D01*
X130700715Y-100710175D01*
X130537576Y-100710348D01*
X130381412Y-100709289D01*
X130239243Y-100707139D01*
X130118091Y-100704038D01*
X130024975Y-100700128D01*
X129966919Y-100695551D01*
X129965580Y-100695377D01*
X129788241Y-100662068D01*
X129628612Y-100609468D01*
X129478150Y-100533073D01*
X129328308Y-100428380D01*
X129170543Y-100290885D01*
X129136786Y-100258568D01*
X129028582Y-100153603D01*
X129970575Y-100153603D01*
X129974130Y-100262688D01*
X130018188Y-100365099D01*
X130101847Y-100458232D01*
X130170628Y-100508546D01*
X130229527Y-100545464D01*
X130268318Y-100563265D01*
X130303466Y-100564151D01*
X130351435Y-100550325D01*
X130388131Y-100537631D01*
X130481042Y-100502497D01*
X130544279Y-100468541D01*
X130589462Y-100427606D01*
X130628209Y-100371537D01*
X130630671Y-100367362D01*
X130673955Y-100255744D01*
X130676392Y-100142845D01*
X130638986Y-100033754D01*
X130562740Y-99933562D01*
X130541163Y-99913491D01*
X130491634Y-99875584D01*
X130443212Y-99856576D01*
X130377460Y-99850437D01*
X130347722Y-99850211D01*
X130216593Y-99867066D01*
X130111535Y-99917090D01*
X130031777Y-100000715D01*
X130008425Y-100040450D01*
X129970575Y-100153603D01*
X129028582Y-100153603D01*
X128914417Y-100042857D01*
X129136289Y-99819360D01*
X129358160Y-99595863D01*
X130554455Y-99597082D01*
G36*
X123485545Y-99825432D02*
G01*
X123707417Y-100048998D01*
X123501665Y-100247784D01*
X123413981Y-100330000D01*
X123325475Y-100408697D01*
X123246215Y-100475174D01*
X123186273Y-100520727D01*
X123184165Y-100522163D01*
X123117472Y-100563468D01*
X123046474Y-100598609D01*
X122967021Y-100628214D01*
X122874961Y-100652912D01*
X122766140Y-100673331D01*
X122636408Y-100690099D01*
X122481613Y-100703845D01*
X122297602Y-100715197D01*
X122080223Y-100724783D01*
X121825325Y-100733232D01*
X121781080Y-100734512D01*
X121315242Y-100747769D01*
X121259241Y-100635193D01*
X121218037Y-100564815D01*
X121159203Y-100479546D01*
X121093978Y-100395455D01*
X121079495Y-100378250D01*
X120951398Y-100224664D01*
X120898116Y-100155324D01*
X121971578Y-100155324D01*
X121973832Y-100251932D01*
X122010870Y-100350124D01*
X122076538Y-100440713D01*
X122164680Y-100514513D01*
X122236966Y-100551462D01*
X122297715Y-100563495D01*
X122369673Y-100552939D01*
X122462774Y-100518051D01*
X122484894Y-100507958D01*
X122579159Y-100448510D01*
X122638401Y-100371347D01*
X122666570Y-100269984D01*
X122670250Y-100203566D01*
X122653791Y-100076348D01*
X122606016Y-99975608D01*
X122529330Y-99903903D01*
X122426139Y-99863792D01*
X122343349Y-99855867D01*
X122214960Y-99873929D01*
X122109006Y-99926099D01*
X122029247Y-100009346D01*
X121979442Y-100120645D01*
X121971578Y-100155324D01*
X120898116Y-100155324D01*
X120852065Y-100095395D01*
X120779054Y-99986158D01*
X120729920Y-99892668D01*
X120702220Y-99810639D01*
X120693508Y-99735787D01*
X120695051Y-99704125D01*
X120709234Y-99650479D01*
X120744364Y-99623925D01*
X120754667Y-99620683D01*
X120785091Y-99617977D01*
X120853911Y-99615361D01*
X120957190Y-99612888D01*
X121090990Y-99610608D01*
X121251376Y-99608574D01*
X121434410Y-99606835D01*
X121636153Y-99605444D01*
X121852671Y-99604451D01*
X122035628Y-99603976D01*
X123263673Y-99601867D01*
X123485545Y-99825432D01*
G37*
X123485545Y-99825432D02*
X123707417Y-100048998D01*
X123501665Y-100247784D01*
X123413981Y-100330000D01*
X123325475Y-100408697D01*
X123246215Y-100475174D01*
X123186273Y-100520727D01*
X123184165Y-100522163D01*
X123117472Y-100563468D01*
X123046474Y-100598609D01*
X122967021Y-100628214D01*
X122874961Y-100652912D01*
X122766140Y-100673331D01*
X122636408Y-100690099D01*
X122481613Y-100703845D01*
X122297602Y-100715197D01*
X122080223Y-100724783D01*
X121825325Y-100733232D01*
X121781080Y-100734512D01*
X121315242Y-100747769D01*
X121259241Y-100635193D01*
X121218037Y-100564815D01*
X121159203Y-100479546D01*
X121093978Y-100395455D01*
X121079495Y-100378250D01*
X120951398Y-100224664D01*
X120898116Y-100155324D01*
X121971578Y-100155324D01*
X121973832Y-100251932D01*
X122010870Y-100350124D01*
X122076538Y-100440713D01*
X122164680Y-100514513D01*
X122236966Y-100551462D01*
X122297715Y-100563495D01*
X122369673Y-100552939D01*
X122462774Y-100518051D01*
X122484894Y-100507958D01*
X122579159Y-100448510D01*
X122638401Y-100371347D01*
X122666570Y-100269984D01*
X122670250Y-100203566D01*
X122653791Y-100076348D01*
X122606016Y-99975608D01*
X122529330Y-99903903D01*
X122426139Y-99863792D01*
X122343349Y-99855867D01*
X122214960Y-99873929D01*
X122109006Y-99926099D01*
X122029247Y-100009346D01*
X121979442Y-100120645D01*
X121971578Y-100155324D01*
X120898116Y-100155324D01*
X120852065Y-100095395D01*
X120779054Y-99986158D01*
X120729920Y-99892668D01*
X120702220Y-99810639D01*
X120693508Y-99735787D01*
X120695051Y-99704125D01*
X120709234Y-99650479D01*
X120744364Y-99623925D01*
X120754667Y-99620683D01*
X120785091Y-99617977D01*
X120853911Y-99615361D01*
X120957190Y-99612888D01*
X121090990Y-99610608D01*
X121251376Y-99608574D01*
X121434410Y-99606835D01*
X121636153Y-99605444D01*
X121852671Y-99604451D01*
X122035628Y-99603976D01*
X123263673Y-99601867D01*
X123485545Y-99825432D01*
G36*
X124219710Y-100427500D02*
G01*
X124332528Y-100493516D01*
X124465017Y-100565911D01*
X124597942Y-100634381D01*
X124679821Y-100673934D01*
X124923987Y-100787556D01*
X124923987Y-102217625D01*
X121389154Y-102217625D01*
X121389154Y-101137287D01*
X123981706Y-101137287D01*
X123985643Y-101244462D01*
X124023413Y-101348141D01*
X124093772Y-101440656D01*
X124170693Y-101500267D01*
X124257574Y-101532291D01*
X124360393Y-101539705D01*
X124460754Y-101522657D01*
X124517759Y-101497442D01*
X124585139Y-101434373D01*
X124636504Y-101343310D01*
X124665455Y-101237486D01*
X124669522Y-101183657D01*
X124652430Y-101063944D01*
X124604275Y-100966177D01*
X124531710Y-100893072D01*
X124441385Y-100847343D01*
X124339951Y-100831706D01*
X124234060Y-100848876D01*
X124130361Y-100901566D01*
X124080310Y-100943137D01*
X124012847Y-101034289D01*
X123981706Y-101137287D01*
X121389154Y-101137287D01*
X121389154Y-101099592D01*
X121563779Y-101087811D01*
X121635053Y-101084042D01*
X121740207Y-101079863D01*
X121870792Y-101075542D01*
X122018358Y-101071345D01*
X122174459Y-101067539D01*
X122267571Y-101065577D01*
X122421123Y-101061679D01*
X122567807Y-101056353D01*
X122700000Y-101050000D01*
X122810082Y-101043018D01*
X122890432Y-101035809D01*
X122923225Y-101031168D01*
X123098762Y-100982259D01*
X123276181Y-100900751D01*
X123458735Y-100784656D01*
X123649678Y-100631987D01*
X123791835Y-100500581D01*
X124003765Y-100294687D01*
X124219710Y-100427500D01*
G37*
X124219710Y-100427500D02*
X124332528Y-100493516D01*
X124465017Y-100565911D01*
X124597942Y-100634381D01*
X124679821Y-100673934D01*
X124923987Y-100787556D01*
X124923987Y-102217625D01*
X121389154Y-102217625D01*
X121389154Y-101137287D01*
X123981706Y-101137287D01*
X123985643Y-101244462D01*
X124023413Y-101348141D01*
X124093772Y-101440656D01*
X124170693Y-101500267D01*
X124257574Y-101532291D01*
X124360393Y-101539705D01*
X124460754Y-101522657D01*
X124517759Y-101497442D01*
X124585139Y-101434373D01*
X124636504Y-101343310D01*
X124665455Y-101237486D01*
X124669522Y-101183657D01*
X124652430Y-101063944D01*
X124604275Y-100966177D01*
X124531710Y-100893072D01*
X124441385Y-100847343D01*
X124339951Y-100831706D01*
X124234060Y-100848876D01*
X124130361Y-100901566D01*
X124080310Y-100943137D01*
X124012847Y-101034289D01*
X123981706Y-101137287D01*
X121389154Y-101137287D01*
X121389154Y-101099592D01*
X121563779Y-101087811D01*
X121635053Y-101084042D01*
X121740207Y-101079863D01*
X121870792Y-101075542D01*
X122018358Y-101071345D01*
X122174459Y-101067539D01*
X122267571Y-101065577D01*
X122421123Y-101061679D01*
X122567807Y-101056353D01*
X122700000Y-101050000D01*
X122810082Y-101043018D01*
X122890432Y-101035809D01*
X122923225Y-101031168D01*
X123098762Y-100982259D01*
X123276181Y-100900751D01*
X123458735Y-100784656D01*
X123649678Y-100631987D01*
X123791835Y-100500581D01*
X124003765Y-100294687D01*
X124219710Y-100427500D01*
G36*
X120299030Y-99736151D02*
G01*
X120342040Y-99939770D01*
X120421690Y-100140605D01*
X120539660Y-100342085D01*
X120696040Y-100545776D01*
X120814886Y-100690992D01*
X120903048Y-100812730D01*
X120962717Y-100914181D01*
X120986663Y-100969109D01*
X120996529Y-101016076D01*
X121005069Y-101100000D01*
X121012354Y-101222146D01*
X121018455Y-101383778D01*
X121023443Y-101586163D01*
X121024486Y-101641151D01*
X121035266Y-102239109D01*
X119802167Y-102239109D01*
X119802167Y-101210569D01*
X119958002Y-101210569D01*
X119961400Y-101250612D01*
X120003523Y-101364501D01*
X120073825Y-101455481D01*
X120164965Y-101519727D01*
X120269599Y-101553416D01*
X120380387Y-101552726D01*
X120478561Y-101519922D01*
X120575142Y-101449508D01*
X120637455Y-101354254D01*
X120665556Y-101234076D01*
X120665560Y-101234034D01*
X120656993Y-101113747D01*
X120614295Y-101009248D01*
X120543402Y-100926068D01*
X120450248Y-100869736D01*
X120340771Y-100845781D01*
X120255143Y-100851691D01*
X120169604Y-100885676D01*
X120089672Y-100948672D01*
X120022796Y-101030563D01*
X119976423Y-101121234D01*
X119958002Y-101210569D01*
X119802167Y-101210569D01*
X119802167Y-99614443D01*
X120284122Y-99614443D01*
X120299030Y-99736151D01*
G37*
X120299030Y-99736151D02*
X120342040Y-99939770D01*
X120421690Y-100140605D01*
X120539660Y-100342085D01*
X120696040Y-100545776D01*
X120814886Y-100690992D01*
X120903048Y-100812730D01*
X120962717Y-100914181D01*
X120986663Y-100969109D01*
X120996529Y-101016076D01*
X121005069Y-101100000D01*
X121012354Y-101222146D01*
X121018455Y-101383778D01*
X121023443Y-101586163D01*
X121024486Y-101641151D01*
X121035266Y-102239109D01*
X119802167Y-102239109D01*
X119802167Y-101210569D01*
X119958002Y-101210569D01*
X119961400Y-101250612D01*
X120003523Y-101364501D01*
X120073825Y-101455481D01*
X120164965Y-101519727D01*
X120269599Y-101553416D01*
X120380387Y-101552726D01*
X120478561Y-101519922D01*
X120575142Y-101449508D01*
X120637455Y-101354254D01*
X120665556Y-101234076D01*
X120665560Y-101234034D01*
X120656993Y-101113747D01*
X120614295Y-101009248D01*
X120543402Y-100926068D01*
X120450248Y-100869736D01*
X120340771Y-100845781D01*
X120255143Y-100851691D01*
X120169604Y-100885676D01*
X120089672Y-100948672D01*
X120022796Y-101030563D01*
X119976423Y-101121234D01*
X119958002Y-101210569D01*
X119802167Y-101210569D01*
X119802167Y-99614443D01*
X120284122Y-99614443D01*
X120299030Y-99736151D01*
D11*
X127945597Y-90880000D02*
G75*
G03*
X127945597Y-90880000I-1655597J0D01*
G01*
%TD*%
D12*
%TO.C,J1*%
X120340000Y-101240000D03*
X122390000Y-100240000D03*
X124330000Y-101240000D03*
X128380000Y-101240000D03*
X130350000Y-100240000D03*
X132300000Y-101240000D03*
%TD*%
M02*
