%TF.GenerationSoftware,KiCad,Pcbnew,(5.1.10)-1*%
%TF.CreationDate,2021-10-06T18:31:44-05:00*%
%TF.ProjectId,BYTE_FSR,42595445-5f46-4535-922e-6b696361645f,rev?*%
%TF.SameCoordinates,Original*%
%TF.FileFunction,Profile,NP*%
%FSLAX46Y46*%
G04 Gerber Fmt 4.6, Leading zero omitted, Abs format (unit mm)*
G04 Created by KiCad (PCBNEW (5.1.10)-1) date 2021-10-06 18:31:44*
%MOMM*%
%LPD*%
G01*
G04 APERTURE LIST*
%TA.AperFunction,Profile*%
%ADD10C,0.100000*%
%TD*%
%TA.AperFunction,Profile*%
%ADD11C,0.120000*%
%TD*%
G04 APERTURE END LIST*
D10*
%TO.C,J1*%
X135360000Y-83240000D02*
X135360000Y-99490000D01*
X135360000Y-99490000D02*
X135344510Y-99796730D01*
X135344510Y-99796730D02*
X135299050Y-100094600D01*
X135299050Y-100094600D02*
X135225130Y-100382110D01*
X135225130Y-100382110D02*
X135124250Y-100657740D01*
X135124250Y-100657740D02*
X134997920Y-100919980D01*
X134997920Y-100919980D02*
X134847650Y-101167300D01*
X134847650Y-101167300D02*
X134674950Y-101398300D01*
X134674950Y-101398300D02*
X134481320Y-101611300D01*
X134481320Y-101611300D02*
X134268280Y-101804900D01*
X134268280Y-101804900D02*
X134037330Y-101977600D01*
X134037330Y-101977600D02*
X133789980Y-102127900D01*
X133789980Y-102127900D02*
X133527740Y-102254200D01*
X133527740Y-102254200D02*
X133252110Y-102355100D01*
X133252110Y-102355100D02*
X132964600Y-102429100D01*
X132964600Y-102429100D02*
X132666730Y-102474500D01*
X132666730Y-102474500D02*
X132360000Y-102490000D01*
X132360000Y-102490000D02*
X120360000Y-102490000D01*
X120360000Y-102490000D02*
X120053270Y-102474500D01*
X120053270Y-102474500D02*
X119755400Y-102429100D01*
X119755400Y-102429100D02*
X119467890Y-102355100D01*
X119467890Y-102355100D02*
X119192260Y-102254200D01*
X119192260Y-102254200D02*
X118930020Y-102127900D01*
X118930020Y-102127900D02*
X118682670Y-101977600D01*
X118682670Y-101977600D02*
X118451720Y-101804900D01*
X118451720Y-101804900D02*
X118238680Y-101611300D01*
X118238680Y-101611300D02*
X118045050Y-101398300D01*
X118045050Y-101398300D02*
X117872350Y-101167300D01*
X117872350Y-101167300D02*
X117722080Y-100919980D01*
X117722080Y-100919980D02*
X117595750Y-100657740D01*
X117595750Y-100657740D02*
X117494870Y-100382110D01*
X117494870Y-100382110D02*
X117420950Y-100094600D01*
X117420950Y-100094600D02*
X117375490Y-99796730D01*
X117375490Y-99796730D02*
X117360000Y-99490000D01*
X117360000Y-99490000D02*
X117360000Y-83240000D01*
X117360000Y-83240000D02*
X117833810Y-82785900D01*
X117833810Y-82785900D02*
X118324780Y-82361090D01*
X118324780Y-82361090D02*
X118831780Y-81965590D01*
X118831780Y-81965590D02*
X119353650Y-81599380D01*
X119353650Y-81599380D02*
X119889260Y-81262460D01*
X119889260Y-81262460D02*
X120437450Y-80954800D01*
X120437450Y-80954800D02*
X120997090Y-80676500D01*
X120997090Y-80676500D02*
X121567030Y-80427500D01*
X121567030Y-80427500D02*
X122146130Y-80207800D01*
X122146130Y-80207800D02*
X122733230Y-80017300D01*
X122733230Y-80017300D02*
X123327200Y-79856200D01*
X123327200Y-79856200D02*
X123926890Y-79724400D01*
X123926890Y-79724400D02*
X124531170Y-79621800D01*
X124531170Y-79621800D02*
X125138870Y-79548600D01*
X125138870Y-79548600D02*
X125748863Y-79504600D01*
X125748863Y-79504600D02*
X126360000Y-79490000D01*
X126360000Y-79490000D02*
X126971137Y-79504600D01*
X126971137Y-79504600D02*
X127581130Y-79548600D01*
X127581130Y-79548600D02*
X128188830Y-79621800D01*
X128188830Y-79621800D02*
X128793110Y-79724400D01*
X128793110Y-79724400D02*
X129392800Y-79856200D01*
X129392800Y-79856200D02*
X129986770Y-80017300D01*
X129986770Y-80017300D02*
X130573870Y-80207800D01*
X130573870Y-80207800D02*
X131152970Y-80427500D01*
X131152970Y-80427500D02*
X131722910Y-80676500D01*
X131722910Y-80676500D02*
X132282550Y-80954800D01*
X132282550Y-80954800D02*
X132830740Y-81262460D01*
X132830740Y-81262460D02*
X133366350Y-81599380D01*
X133366350Y-81599380D02*
X133888220Y-81965590D01*
X133888220Y-81965590D02*
X134395220Y-82361090D01*
X134395220Y-82361090D02*
X134886190Y-82785900D01*
X134886190Y-82785900D02*
X135360000Y-83240000D01*
X135360000Y-83240000D02*
X135360000Y-83240000D01*
X135360000Y-83240000D02*
X135360000Y-83240000D01*
D11*
X127830000Y-90880540D02*
G75*
G03*
X127830000Y-90880540I-1500000J0D01*
G01*
%TD*%
M02*
