%TF.GenerationSoftware,KiCad,Pcbnew,(5.1.10)-1*%
%TF.CreationDate,2021-10-06T18:31:44-05:00*%
%TF.ProjectId,BYTE_FSR,42595445-5f46-4535-922e-6b696361645f,rev?*%
%TF.SameCoordinates,Original*%
%TF.FileFunction,Copper,L2,Bot*%
%TF.FilePolarity,Positive*%
%FSLAX46Y46*%
G04 Gerber Fmt 4.6, Leading zero omitted, Abs format (unit mm)*
G04 Created by KiCad (PCBNEW (5.1.10)-1) date 2021-10-06 18:31:44*
%MOMM*%
%LPD*%
G01*
G04 APERTURE LIST*
%TA.AperFunction,EtchedComponent*%
%ADD10C,0.010000*%
%TD*%
%TA.AperFunction,ComponentPad*%
%ADD11C,1.000000*%
%TD*%
G04 APERTURE END LIST*
D10*
%TO.C,J1*%
G36*
X126343143Y-79585963D02*
G01*
X126776584Y-79596666D01*
X127072489Y-79607769D01*
X127332697Y-79619765D01*
X127563846Y-79633407D01*
X127772573Y-79649448D01*
X127965512Y-79668639D01*
X128149303Y-79691734D01*
X128330580Y-79719483D01*
X128515982Y-79752641D01*
X128712144Y-79791958D01*
X128925704Y-79838188D01*
X128944938Y-79842476D01*
X129673960Y-80026151D01*
X130382946Y-80247102D01*
X131072046Y-80505392D01*
X131741408Y-80801085D01*
X132391180Y-81134244D01*
X133021512Y-81504935D01*
X133401750Y-81753049D01*
X133618337Y-81903252D01*
X133828363Y-82056216D01*
X134037701Y-82216666D01*
X134252225Y-82389331D01*
X134477807Y-82578937D01*
X134720321Y-82790211D01*
X134985638Y-83027880D01*
X134986138Y-83028334D01*
X135208110Y-83229417D01*
X135208335Y-89727584D01*
X135208251Y-90613565D01*
X135207935Y-91457496D01*
X135207385Y-92259660D01*
X135206600Y-93020339D01*
X135205578Y-93739818D01*
X135204317Y-94418377D01*
X135202815Y-95056301D01*
X135201072Y-95653872D01*
X135199086Y-96211372D01*
X135196854Y-96729085D01*
X135194375Y-97207293D01*
X135191648Y-97646280D01*
X135188670Y-98046327D01*
X135185441Y-98407719D01*
X135181959Y-98730737D01*
X135178221Y-99015664D01*
X135174227Y-99262784D01*
X135169974Y-99472378D01*
X135165461Y-99644730D01*
X135160687Y-99780124D01*
X135155649Y-99878840D01*
X135150347Y-99941163D01*
X135148981Y-99951084D01*
X135105980Y-100156716D01*
X135041610Y-100373108D01*
X134961313Y-100585041D01*
X134870529Y-100777297D01*
X134824419Y-100858796D01*
X134723473Y-101008742D01*
X134596593Y-101171006D01*
X134451691Y-101337289D01*
X134296680Y-101499290D01*
X134139472Y-101648709D01*
X133987980Y-101777247D01*
X133860536Y-101869873D01*
X133786432Y-101915825D01*
X133697337Y-101967335D01*
X133600535Y-102020644D01*
X133503309Y-102071995D01*
X133412944Y-102117629D01*
X133336726Y-102153790D01*
X133281937Y-102176718D01*
X133255863Y-102182655D01*
X133255140Y-102182195D01*
X133253353Y-102159996D01*
X133251243Y-102098901D01*
X133248867Y-102002343D01*
X133246283Y-101873758D01*
X133243547Y-101716581D01*
X133240717Y-101534245D01*
X133237851Y-101330187D01*
X133235006Y-101107841D01*
X133232239Y-100870642D01*
X133230482Y-100707398D01*
X133215224Y-99242000D01*
X131795071Y-99239631D01*
X131547646Y-99239021D01*
X131308121Y-99238053D01*
X131080610Y-99236767D01*
X130869223Y-99235203D01*
X130678074Y-99233403D01*
X130511275Y-99231406D01*
X130372939Y-99229253D01*
X130267178Y-99226984D01*
X130198104Y-99224641D01*
X130182571Y-99223756D01*
X129990226Y-99210250D01*
X130133721Y-98871584D01*
X130218112Y-98666860D01*
X130286863Y-98484971D01*
X130341504Y-98317850D01*
X130383564Y-98157427D01*
X130414572Y-97995633D01*
X130436058Y-97824400D01*
X130449550Y-97635659D01*
X130456579Y-97421341D01*
X130458673Y-97173377D01*
X130458675Y-97157084D01*
X130458122Y-96966649D01*
X130456353Y-96811953D01*
X130453051Y-96686410D01*
X130447895Y-96583436D01*
X130440568Y-96496445D01*
X130430751Y-96418852D01*
X130419732Y-96352750D01*
X130346439Y-96046395D01*
X130238669Y-95729706D01*
X130100341Y-95410173D01*
X129935376Y-95095286D01*
X129747697Y-94792533D01*
X129541222Y-94509404D01*
X129321607Y-94255217D01*
X129119981Y-94056965D01*
X128905760Y-93876627D01*
X128670976Y-93708359D01*
X128407659Y-93546317D01*
X128198774Y-93431715D01*
X127927631Y-93289118D01*
X128221445Y-92990017D01*
X128388760Y-92815170D01*
X128526447Y-92660760D01*
X128638587Y-92521616D01*
X128729261Y-92392566D01*
X128802548Y-92268437D01*
X128824820Y-92225250D01*
X128866896Y-92134406D01*
X128913821Y-92023073D01*
X128961732Y-91901568D01*
X129006770Y-91780209D01*
X129045072Y-91669313D01*
X129072779Y-91579198D01*
X129084109Y-91532389D01*
X129090829Y-91479338D01*
X129079901Y-91451382D01*
X129044525Y-91432695D01*
X129040630Y-91431201D01*
X128978969Y-91413831D01*
X128904522Y-91401222D01*
X128829924Y-91394392D01*
X128767811Y-91394358D01*
X128730819Y-91402139D01*
X128726652Y-91405909D01*
X128714919Y-91435175D01*
X128695213Y-91494545D01*
X128671000Y-91573363D01*
X128660085Y-91610513D01*
X128577758Y-91836888D01*
X128462730Y-92068488D01*
X128321507Y-92294574D01*
X128160597Y-92504411D01*
X128036936Y-92638675D01*
X127876013Y-92783319D01*
X127693158Y-92920428D01*
X127498059Y-93044234D01*
X127300404Y-93148966D01*
X127109882Y-93228855D01*
X126979237Y-93268573D01*
X126900871Y-93291235D01*
X126838305Y-93315706D01*
X126803472Y-93337201D01*
X126801357Y-93339902D01*
X126792827Y-93384923D01*
X126800020Y-93468399D01*
X126810371Y-93529233D01*
X126821636Y-93590696D01*
X126832672Y-93634867D01*
X126849468Y-93662774D01*
X126878010Y-93675446D01*
X126924285Y-93673911D01*
X126994280Y-93659196D01*
X127093982Y-93632330D01*
X127214185Y-93598577D01*
X127482453Y-93523668D01*
X127753935Y-93643725D01*
X128011406Y-93764699D01*
X128237225Y-93887446D01*
X128441760Y-94018869D01*
X128635380Y-94165875D01*
X128828453Y-94335366D01*
X128911442Y-94414497D01*
X129153304Y-94662731D01*
X129359403Y-94903674D01*
X129533861Y-95144229D01*
X129680796Y-95391298D01*
X129804329Y-95651786D01*
X129908580Y-95932595D01*
X129994896Y-96229834D01*
X130039324Y-96419494D01*
X130070562Y-96597881D01*
X130089589Y-96776421D01*
X130097382Y-96966544D01*
X130094920Y-97179677D01*
X130088773Y-97326417D01*
X130066935Y-97626762D01*
X130032260Y-97895303D01*
X129982443Y-98141239D01*
X129915181Y-98373767D01*
X129828169Y-98602087D01*
X129719103Y-98835396D01*
X129702735Y-98867446D01*
X129633962Y-98995218D01*
X129575345Y-99089028D01*
X129521764Y-99154392D01*
X129468098Y-99196830D01*
X129409229Y-99221859D01*
X129364943Y-99231537D01*
X129280714Y-99249745D01*
X129204431Y-99278214D01*
X129128704Y-99321721D01*
X129046144Y-99385043D01*
X128949362Y-99472955D01*
X128868366Y-99552513D01*
X128590653Y-99808199D01*
X128299530Y-100033132D01*
X127999871Y-100224042D01*
X127696550Y-100377661D01*
X127546534Y-100438904D01*
X127337500Y-100517313D01*
X127337500Y-102332334D01*
X125305500Y-102332334D01*
X125305500Y-100515477D01*
X125130875Y-100458508D01*
X124924731Y-100377813D01*
X124703702Y-100267321D01*
X124476088Y-100132654D01*
X124250185Y-99979437D01*
X124034293Y-99813293D01*
X123836710Y-99639846D01*
X123667739Y-99466968D01*
X123583362Y-99375935D01*
X123514727Y-99312845D01*
X123452224Y-99271734D01*
X123386248Y-99246638D01*
X123307189Y-99231596D01*
X123283769Y-99228650D01*
X123174025Y-99203889D01*
X123105602Y-99165876D01*
X123070374Y-99123709D01*
X123023356Y-99049424D01*
X122968159Y-98950335D01*
X122908394Y-98833755D01*
X122847672Y-98706999D01*
X122789603Y-98577381D01*
X122737798Y-98452215D01*
X122695869Y-98338816D01*
X122692765Y-98329625D01*
X122650834Y-98198447D01*
X122617470Y-98078033D01*
X122591731Y-97960870D01*
X122572675Y-97839444D01*
X122559359Y-97706242D01*
X122550843Y-97553750D01*
X122546182Y-97374455D01*
X122544436Y-97160842D01*
X122544402Y-97146500D01*
X122544505Y-96964996D01*
X122545858Y-96819301D01*
X122548790Y-96702900D01*
X122553626Y-96609278D01*
X122560696Y-96531923D01*
X122570325Y-96464318D01*
X122581612Y-96405667D01*
X122676712Y-96053393D01*
X122810042Y-95702561D01*
X122977897Y-95360414D01*
X123176572Y-95034196D01*
X123402364Y-94731150D01*
X123490865Y-94627667D01*
X123769609Y-94345516D01*
X124076900Y-94093943D01*
X124410257Y-93874725D01*
X124767201Y-93689640D01*
X124851422Y-93652492D01*
X124975874Y-93601766D01*
X125074438Y-93569715D01*
X125158764Y-93555445D01*
X125240504Y-93558063D01*
X125331306Y-93576674D01*
X125434692Y-93607744D01*
X125552229Y-93645370D01*
X125636308Y-93670403D01*
X125693636Y-93683633D01*
X125730918Y-93685852D01*
X125754858Y-93677850D01*
X125772162Y-93660419D01*
X125780347Y-93648529D01*
X125804994Y-93592551D01*
X125821649Y-93520027D01*
X125828996Y-93444929D01*
X125825723Y-93381229D01*
X125810516Y-93342899D01*
X125809194Y-93341709D01*
X125777531Y-93324730D01*
X125715404Y-93298325D01*
X125632515Y-93266438D01*
X125559720Y-93240308D01*
X125335389Y-93154720D01*
X125142185Y-93062800D01*
X124968910Y-92957406D01*
X124804367Y-92831399D01*
X124637358Y-92677637D01*
X124569255Y-92608728D01*
X124415597Y-92435635D01*
X124273310Y-92248072D01*
X124152449Y-92059868D01*
X124099433Y-91962448D01*
X124073738Y-91904488D01*
X124039960Y-91818384D01*
X124002736Y-91716369D01*
X123971023Y-91623781D01*
X123938563Y-91529926D01*
X123909355Y-91453076D01*
X123886499Y-91400885D01*
X123873094Y-91381008D01*
X123872702Y-91381003D01*
X123736308Y-91401676D01*
X123637854Y-91420137D01*
X123573079Y-91437517D01*
X123537722Y-91454948D01*
X123527500Y-91472669D01*
X123534570Y-91509930D01*
X123553752Y-91577703D01*
X123582006Y-91666973D01*
X123616293Y-91768723D01*
X123653571Y-91873937D01*
X123690800Y-91973600D01*
X123724941Y-92058695D01*
X123725776Y-92060669D01*
X123855945Y-92320838D01*
X124021504Y-92575253D01*
X124215613Y-92815226D01*
X124431432Y-93032071D01*
X124601709Y-93173005D01*
X124658381Y-93217988D01*
X124698418Y-93253946D01*
X124712834Y-93272465D01*
X124694947Y-93287316D01*
X124646360Y-93315942D01*
X124574680Y-93354101D01*
X124495175Y-93393836D01*
X124175351Y-93568953D01*
X123862653Y-93778063D01*
X123565444Y-94014426D01*
X123292083Y-94271304D01*
X123050933Y-94541958D01*
X123015841Y-94586161D01*
X122776018Y-94927506D01*
X122572775Y-95289169D01*
X122406990Y-95668717D01*
X122279541Y-96063719D01*
X122191309Y-96471742D01*
X122143171Y-96890353D01*
X122136609Y-97019607D01*
X122140722Y-97422391D01*
X122183022Y-97815636D01*
X122264397Y-98203656D01*
X122385737Y-98590767D01*
X122535041Y-98953337D01*
X122579731Y-99051515D01*
X122617322Y-99135141D01*
X122644651Y-99197100D01*
X122658556Y-99230275D01*
X122659667Y-99233795D01*
X122639042Y-99235106D01*
X122579338Y-99236352D01*
X122483807Y-99237517D01*
X122355704Y-99238584D01*
X122198280Y-99239537D01*
X122014791Y-99240358D01*
X121808489Y-99241031D01*
X121582628Y-99241540D01*
X121340461Y-99241868D01*
X121085241Y-99241999D01*
X121053804Y-99242000D01*
X119447940Y-99242000D01*
X119432364Y-100707792D01*
X119429678Y-100952857D01*
X119426971Y-101185264D01*
X119424293Y-101401589D01*
X119421694Y-101598407D01*
X119419225Y-101772293D01*
X119416934Y-101919822D01*
X119414873Y-102037570D01*
X119413090Y-102122111D01*
X119411637Y-102170022D01*
X119410878Y-102179919D01*
X119390722Y-102173715D01*
X119339879Y-102152223D01*
X119265716Y-102118698D01*
X119175601Y-102076397D01*
X119162366Y-102070072D01*
X118841486Y-101896184D01*
X118554630Y-101698258D01*
X118333902Y-101507448D01*
X118166774Y-101335253D01*
X118020543Y-101158258D01*
X117889942Y-100968350D01*
X117769704Y-100757416D01*
X117654561Y-100517342D01*
X117584630Y-100353250D01*
X117480497Y-100099250D01*
X117467445Y-91026461D01*
X124736076Y-91026461D01*
X124737023Y-91121195D01*
X124743900Y-91200861D01*
X124757730Y-91279004D01*
X124773523Y-91345705D01*
X124856843Y-91593248D01*
X124974995Y-91817185D01*
X125126585Y-92015812D01*
X125310217Y-92187429D01*
X125524498Y-92330331D01*
X125620710Y-92380140D01*
X125853076Y-92468450D01*
X126100605Y-92519833D01*
X126356761Y-92533710D01*
X126615004Y-92509501D01*
X126752782Y-92480449D01*
X126957267Y-92415051D01*
X127140492Y-92325950D01*
X127310145Y-92208137D01*
X127473915Y-92056597D01*
X127575182Y-91944314D01*
X127693590Y-91788050D01*
X127783432Y-91627739D01*
X127847182Y-91455756D01*
X127887313Y-91264475D01*
X127906299Y-91046270D01*
X127908633Y-90916347D01*
X127898571Y-90684974D01*
X127866948Y-90483694D01*
X127810540Y-90304443D01*
X127726125Y-90139158D01*
X127610480Y-89979778D01*
X127475722Y-89833411D01*
X127341973Y-89707968D01*
X127218319Y-89611088D01*
X127092911Y-89535130D01*
X126953903Y-89472454D01*
X126866779Y-89440677D01*
X126620137Y-89374217D01*
X126382226Y-89347205D01*
X126160264Y-89357476D01*
X125900434Y-89408707D01*
X125658978Y-89494348D01*
X125439178Y-89612199D01*
X125244320Y-89760057D01*
X125077687Y-89935724D01*
X124942562Y-90136999D01*
X124912998Y-90193250D01*
X124841781Y-90352509D01*
X124791991Y-90505821D01*
X124760091Y-90667699D01*
X124742545Y-90852657D01*
X124740033Y-90903117D01*
X124736076Y-91026461D01*
X117467445Y-91026461D01*
X117466395Y-90296894D01*
X123551756Y-90296894D01*
X123552394Y-90323902D01*
X123560611Y-90358356D01*
X123582243Y-90381915D01*
X123627295Y-90401724D01*
X123686250Y-90419481D01*
X123774947Y-90443005D01*
X123835178Y-90450505D01*
X123875580Y-90436683D01*
X123904792Y-90396245D01*
X123931451Y-90323895D01*
X123951647Y-90256750D01*
X123999209Y-90106588D01*
X124048171Y-89979556D01*
X124106177Y-89858424D01*
X124180866Y-89725963D01*
X124204454Y-89686730D01*
X124396135Y-89409935D01*
X124615529Y-89164447D01*
X124860978Y-88951526D01*
X125130823Y-88772435D01*
X125423405Y-88628438D01*
X125736343Y-88520994D01*
X125860269Y-88486861D01*
X125845454Y-88387556D01*
X125845349Y-88387036D01*
X126790519Y-88387036D01*
X126798934Y-88434490D01*
X126825143Y-88471921D01*
X126875028Y-88505057D01*
X126954469Y-88539630D01*
X127052177Y-88575325D01*
X127344564Y-88695651D01*
X127607752Y-88841432D01*
X127849567Y-89017593D01*
X128057167Y-89207975D01*
X128244502Y-89415638D01*
X128398039Y-89628505D01*
X128524196Y-89857166D01*
X128629391Y-90112213D01*
X128660553Y-90203834D01*
X128689338Y-90287950D01*
X128716122Y-90358360D01*
X128736560Y-90403925D01*
X128742011Y-90412730D01*
X128775017Y-90426841D01*
X128835279Y-90432720D01*
X128908674Y-90431082D01*
X128981081Y-90422644D01*
X129038378Y-90408121D01*
X129059828Y-90396620D01*
X129075409Y-90374668D01*
X129079688Y-90339186D01*
X129071734Y-90283648D01*
X129050619Y-90201528D01*
X129015767Y-90087417D01*
X128961030Y-89935826D01*
X128889287Y-89767415D01*
X128807223Y-89596016D01*
X128721522Y-89435458D01*
X128638868Y-89299572D01*
X128625297Y-89279478D01*
X128526631Y-89150650D01*
X128402336Y-89010468D01*
X128262980Y-88869531D01*
X128119133Y-88738437D01*
X127981361Y-88627784D01*
X127959801Y-88612122D01*
X127791640Y-88501280D01*
X127612065Y-88399218D01*
X127429716Y-88309847D01*
X127253230Y-88237080D01*
X127091245Y-88184829D01*
X126955796Y-88157405D01*
X126885661Y-88155276D01*
X126840111Y-88173701D01*
X126812660Y-88219355D01*
X126796817Y-88298913D01*
X126794017Y-88323830D01*
X126790519Y-88387036D01*
X125845349Y-88387036D01*
X125829780Y-88309946D01*
X125808694Y-88237155D01*
X125801983Y-88219459D01*
X125780460Y-88180747D01*
X125750450Y-88158374D01*
X125705083Y-88152049D01*
X125637489Y-88161477D01*
X125540798Y-88186367D01*
X125475926Y-88205570D01*
X125178175Y-88317050D01*
X124890598Y-88466013D01*
X124618876Y-88648089D01*
X124368691Y-88858906D01*
X124145722Y-89094094D01*
X123955650Y-89349283D01*
X123923515Y-89400009D01*
X123844409Y-89536842D01*
X123769303Y-89682390D01*
X123700996Y-89829681D01*
X123642288Y-89971746D01*
X123595979Y-90101617D01*
X123564869Y-90212322D01*
X123551756Y-90296894D01*
X117466395Y-90296894D01*
X117456243Y-83240290D01*
X117745496Y-82967044D01*
X118161897Y-82588791D01*
X118576211Y-82243797D01*
X118998024Y-81924629D01*
X119436920Y-81623853D01*
X119664584Y-81478778D01*
X120280203Y-81120137D01*
X120920092Y-80795167D01*
X121581431Y-80505006D01*
X122261404Y-80250794D01*
X122957190Y-80033668D01*
X123665972Y-79854768D01*
X123707417Y-79845589D01*
X124085980Y-79767821D01*
X124450740Y-79704677D01*
X124809572Y-79655519D01*
X125170353Y-79619707D01*
X125540957Y-79596603D01*
X125929262Y-79585568D01*
X126343143Y-79585963D01*
G37*
X126343143Y-79585963D02*
X126776584Y-79596666D01*
X127072489Y-79607769D01*
X127332697Y-79619765D01*
X127563846Y-79633407D01*
X127772573Y-79649448D01*
X127965512Y-79668639D01*
X128149303Y-79691734D01*
X128330580Y-79719483D01*
X128515982Y-79752641D01*
X128712144Y-79791958D01*
X128925704Y-79838188D01*
X128944938Y-79842476D01*
X129673960Y-80026151D01*
X130382946Y-80247102D01*
X131072046Y-80505392D01*
X131741408Y-80801085D01*
X132391180Y-81134244D01*
X133021512Y-81504935D01*
X133401750Y-81753049D01*
X133618337Y-81903252D01*
X133828363Y-82056216D01*
X134037701Y-82216666D01*
X134252225Y-82389331D01*
X134477807Y-82578937D01*
X134720321Y-82790211D01*
X134985638Y-83027880D01*
X134986138Y-83028334D01*
X135208110Y-83229417D01*
X135208335Y-89727584D01*
X135208251Y-90613565D01*
X135207935Y-91457496D01*
X135207385Y-92259660D01*
X135206600Y-93020339D01*
X135205578Y-93739818D01*
X135204317Y-94418377D01*
X135202815Y-95056301D01*
X135201072Y-95653872D01*
X135199086Y-96211372D01*
X135196854Y-96729085D01*
X135194375Y-97207293D01*
X135191648Y-97646280D01*
X135188670Y-98046327D01*
X135185441Y-98407719D01*
X135181959Y-98730737D01*
X135178221Y-99015664D01*
X135174227Y-99262784D01*
X135169974Y-99472378D01*
X135165461Y-99644730D01*
X135160687Y-99780124D01*
X135155649Y-99878840D01*
X135150347Y-99941163D01*
X135148981Y-99951084D01*
X135105980Y-100156716D01*
X135041610Y-100373108D01*
X134961313Y-100585041D01*
X134870529Y-100777297D01*
X134824419Y-100858796D01*
X134723473Y-101008742D01*
X134596593Y-101171006D01*
X134451691Y-101337289D01*
X134296680Y-101499290D01*
X134139472Y-101648709D01*
X133987980Y-101777247D01*
X133860536Y-101869873D01*
X133786432Y-101915825D01*
X133697337Y-101967335D01*
X133600535Y-102020644D01*
X133503309Y-102071995D01*
X133412944Y-102117629D01*
X133336726Y-102153790D01*
X133281937Y-102176718D01*
X133255863Y-102182655D01*
X133255140Y-102182195D01*
X133253353Y-102159996D01*
X133251243Y-102098901D01*
X133248867Y-102002343D01*
X133246283Y-101873758D01*
X133243547Y-101716581D01*
X133240717Y-101534245D01*
X133237851Y-101330187D01*
X133235006Y-101107841D01*
X133232239Y-100870642D01*
X133230482Y-100707398D01*
X133215224Y-99242000D01*
X131795071Y-99239631D01*
X131547646Y-99239021D01*
X131308121Y-99238053D01*
X131080610Y-99236767D01*
X130869223Y-99235203D01*
X130678074Y-99233403D01*
X130511275Y-99231406D01*
X130372939Y-99229253D01*
X130267178Y-99226984D01*
X130198104Y-99224641D01*
X130182571Y-99223756D01*
X129990226Y-99210250D01*
X130133721Y-98871584D01*
X130218112Y-98666860D01*
X130286863Y-98484971D01*
X130341504Y-98317850D01*
X130383564Y-98157427D01*
X130414572Y-97995633D01*
X130436058Y-97824400D01*
X130449550Y-97635659D01*
X130456579Y-97421341D01*
X130458673Y-97173377D01*
X130458675Y-97157084D01*
X130458122Y-96966649D01*
X130456353Y-96811953D01*
X130453051Y-96686410D01*
X130447895Y-96583436D01*
X130440568Y-96496445D01*
X130430751Y-96418852D01*
X130419732Y-96352750D01*
X130346439Y-96046395D01*
X130238669Y-95729706D01*
X130100341Y-95410173D01*
X129935376Y-95095286D01*
X129747697Y-94792533D01*
X129541222Y-94509404D01*
X129321607Y-94255217D01*
X129119981Y-94056965D01*
X128905760Y-93876627D01*
X128670976Y-93708359D01*
X128407659Y-93546317D01*
X128198774Y-93431715D01*
X127927631Y-93289118D01*
X128221445Y-92990017D01*
X128388760Y-92815170D01*
X128526447Y-92660760D01*
X128638587Y-92521616D01*
X128729261Y-92392566D01*
X128802548Y-92268437D01*
X128824820Y-92225250D01*
X128866896Y-92134406D01*
X128913821Y-92023073D01*
X128961732Y-91901568D01*
X129006770Y-91780209D01*
X129045072Y-91669313D01*
X129072779Y-91579198D01*
X129084109Y-91532389D01*
X129090829Y-91479338D01*
X129079901Y-91451382D01*
X129044525Y-91432695D01*
X129040630Y-91431201D01*
X128978969Y-91413831D01*
X128904522Y-91401222D01*
X128829924Y-91394392D01*
X128767811Y-91394358D01*
X128730819Y-91402139D01*
X128726652Y-91405909D01*
X128714919Y-91435175D01*
X128695213Y-91494545D01*
X128671000Y-91573363D01*
X128660085Y-91610513D01*
X128577758Y-91836888D01*
X128462730Y-92068488D01*
X128321507Y-92294574D01*
X128160597Y-92504411D01*
X128036936Y-92638675D01*
X127876013Y-92783319D01*
X127693158Y-92920428D01*
X127498059Y-93044234D01*
X127300404Y-93148966D01*
X127109882Y-93228855D01*
X126979237Y-93268573D01*
X126900871Y-93291235D01*
X126838305Y-93315706D01*
X126803472Y-93337201D01*
X126801357Y-93339902D01*
X126792827Y-93384923D01*
X126800020Y-93468399D01*
X126810371Y-93529233D01*
X126821636Y-93590696D01*
X126832672Y-93634867D01*
X126849468Y-93662774D01*
X126878010Y-93675446D01*
X126924285Y-93673911D01*
X126994280Y-93659196D01*
X127093982Y-93632330D01*
X127214185Y-93598577D01*
X127482453Y-93523668D01*
X127753935Y-93643725D01*
X128011406Y-93764699D01*
X128237225Y-93887446D01*
X128441760Y-94018869D01*
X128635380Y-94165875D01*
X128828453Y-94335366D01*
X128911442Y-94414497D01*
X129153304Y-94662731D01*
X129359403Y-94903674D01*
X129533861Y-95144229D01*
X129680796Y-95391298D01*
X129804329Y-95651786D01*
X129908580Y-95932595D01*
X129994896Y-96229834D01*
X130039324Y-96419494D01*
X130070562Y-96597881D01*
X130089589Y-96776421D01*
X130097382Y-96966544D01*
X130094920Y-97179677D01*
X130088773Y-97326417D01*
X130066935Y-97626762D01*
X130032260Y-97895303D01*
X129982443Y-98141239D01*
X129915181Y-98373767D01*
X129828169Y-98602087D01*
X129719103Y-98835396D01*
X129702735Y-98867446D01*
X129633962Y-98995218D01*
X129575345Y-99089028D01*
X129521764Y-99154392D01*
X129468098Y-99196830D01*
X129409229Y-99221859D01*
X129364943Y-99231537D01*
X129280714Y-99249745D01*
X129204431Y-99278214D01*
X129128704Y-99321721D01*
X129046144Y-99385043D01*
X128949362Y-99472955D01*
X128868366Y-99552513D01*
X128590653Y-99808199D01*
X128299530Y-100033132D01*
X127999871Y-100224042D01*
X127696550Y-100377661D01*
X127546534Y-100438904D01*
X127337500Y-100517313D01*
X127337500Y-102332334D01*
X125305500Y-102332334D01*
X125305500Y-100515477D01*
X125130875Y-100458508D01*
X124924731Y-100377813D01*
X124703702Y-100267321D01*
X124476088Y-100132654D01*
X124250185Y-99979437D01*
X124034293Y-99813293D01*
X123836710Y-99639846D01*
X123667739Y-99466968D01*
X123583362Y-99375935D01*
X123514727Y-99312845D01*
X123452224Y-99271734D01*
X123386248Y-99246638D01*
X123307189Y-99231596D01*
X123283769Y-99228650D01*
X123174025Y-99203889D01*
X123105602Y-99165876D01*
X123070374Y-99123709D01*
X123023356Y-99049424D01*
X122968159Y-98950335D01*
X122908394Y-98833755D01*
X122847672Y-98706999D01*
X122789603Y-98577381D01*
X122737798Y-98452215D01*
X122695869Y-98338816D01*
X122692765Y-98329625D01*
X122650834Y-98198447D01*
X122617470Y-98078033D01*
X122591731Y-97960870D01*
X122572675Y-97839444D01*
X122559359Y-97706242D01*
X122550843Y-97553750D01*
X122546182Y-97374455D01*
X122544436Y-97160842D01*
X122544402Y-97146500D01*
X122544505Y-96964996D01*
X122545858Y-96819301D01*
X122548790Y-96702900D01*
X122553626Y-96609278D01*
X122560696Y-96531923D01*
X122570325Y-96464318D01*
X122581612Y-96405667D01*
X122676712Y-96053393D01*
X122810042Y-95702561D01*
X122977897Y-95360414D01*
X123176572Y-95034196D01*
X123402364Y-94731150D01*
X123490865Y-94627667D01*
X123769609Y-94345516D01*
X124076900Y-94093943D01*
X124410257Y-93874725D01*
X124767201Y-93689640D01*
X124851422Y-93652492D01*
X124975874Y-93601766D01*
X125074438Y-93569715D01*
X125158764Y-93555445D01*
X125240504Y-93558063D01*
X125331306Y-93576674D01*
X125434692Y-93607744D01*
X125552229Y-93645370D01*
X125636308Y-93670403D01*
X125693636Y-93683633D01*
X125730918Y-93685852D01*
X125754858Y-93677850D01*
X125772162Y-93660419D01*
X125780347Y-93648529D01*
X125804994Y-93592551D01*
X125821649Y-93520027D01*
X125828996Y-93444929D01*
X125825723Y-93381229D01*
X125810516Y-93342899D01*
X125809194Y-93341709D01*
X125777531Y-93324730D01*
X125715404Y-93298325D01*
X125632515Y-93266438D01*
X125559720Y-93240308D01*
X125335389Y-93154720D01*
X125142185Y-93062800D01*
X124968910Y-92957406D01*
X124804367Y-92831399D01*
X124637358Y-92677637D01*
X124569255Y-92608728D01*
X124415597Y-92435635D01*
X124273310Y-92248072D01*
X124152449Y-92059868D01*
X124099433Y-91962448D01*
X124073738Y-91904488D01*
X124039960Y-91818384D01*
X124002736Y-91716369D01*
X123971023Y-91623781D01*
X123938563Y-91529926D01*
X123909355Y-91453076D01*
X123886499Y-91400885D01*
X123873094Y-91381008D01*
X123872702Y-91381003D01*
X123736308Y-91401676D01*
X123637854Y-91420137D01*
X123573079Y-91437517D01*
X123537722Y-91454948D01*
X123527500Y-91472669D01*
X123534570Y-91509930D01*
X123553752Y-91577703D01*
X123582006Y-91666973D01*
X123616293Y-91768723D01*
X123653571Y-91873937D01*
X123690800Y-91973600D01*
X123724941Y-92058695D01*
X123725776Y-92060669D01*
X123855945Y-92320838D01*
X124021504Y-92575253D01*
X124215613Y-92815226D01*
X124431432Y-93032071D01*
X124601709Y-93173005D01*
X124658381Y-93217988D01*
X124698418Y-93253946D01*
X124712834Y-93272465D01*
X124694947Y-93287316D01*
X124646360Y-93315942D01*
X124574680Y-93354101D01*
X124495175Y-93393836D01*
X124175351Y-93568953D01*
X123862653Y-93778063D01*
X123565444Y-94014426D01*
X123292083Y-94271304D01*
X123050933Y-94541958D01*
X123015841Y-94586161D01*
X122776018Y-94927506D01*
X122572775Y-95289169D01*
X122406990Y-95668717D01*
X122279541Y-96063719D01*
X122191309Y-96471742D01*
X122143171Y-96890353D01*
X122136609Y-97019607D01*
X122140722Y-97422391D01*
X122183022Y-97815636D01*
X122264397Y-98203656D01*
X122385737Y-98590767D01*
X122535041Y-98953337D01*
X122579731Y-99051515D01*
X122617322Y-99135141D01*
X122644651Y-99197100D01*
X122658556Y-99230275D01*
X122659667Y-99233795D01*
X122639042Y-99235106D01*
X122579338Y-99236352D01*
X122483807Y-99237517D01*
X122355704Y-99238584D01*
X122198280Y-99239537D01*
X122014791Y-99240358D01*
X121808489Y-99241031D01*
X121582628Y-99241540D01*
X121340461Y-99241868D01*
X121085241Y-99241999D01*
X121053804Y-99242000D01*
X119447940Y-99242000D01*
X119432364Y-100707792D01*
X119429678Y-100952857D01*
X119426971Y-101185264D01*
X119424293Y-101401589D01*
X119421694Y-101598407D01*
X119419225Y-101772293D01*
X119416934Y-101919822D01*
X119414873Y-102037570D01*
X119413090Y-102122111D01*
X119411637Y-102170022D01*
X119410878Y-102179919D01*
X119390722Y-102173715D01*
X119339879Y-102152223D01*
X119265716Y-102118698D01*
X119175601Y-102076397D01*
X119162366Y-102070072D01*
X118841486Y-101896184D01*
X118554630Y-101698258D01*
X118333902Y-101507448D01*
X118166774Y-101335253D01*
X118020543Y-101158258D01*
X117889942Y-100968350D01*
X117769704Y-100757416D01*
X117654561Y-100517342D01*
X117584630Y-100353250D01*
X117480497Y-100099250D01*
X117467445Y-91026461D01*
X124736076Y-91026461D01*
X124737023Y-91121195D01*
X124743900Y-91200861D01*
X124757730Y-91279004D01*
X124773523Y-91345705D01*
X124856843Y-91593248D01*
X124974995Y-91817185D01*
X125126585Y-92015812D01*
X125310217Y-92187429D01*
X125524498Y-92330331D01*
X125620710Y-92380140D01*
X125853076Y-92468450D01*
X126100605Y-92519833D01*
X126356761Y-92533710D01*
X126615004Y-92509501D01*
X126752782Y-92480449D01*
X126957267Y-92415051D01*
X127140492Y-92325950D01*
X127310145Y-92208137D01*
X127473915Y-92056597D01*
X127575182Y-91944314D01*
X127693590Y-91788050D01*
X127783432Y-91627739D01*
X127847182Y-91455756D01*
X127887313Y-91264475D01*
X127906299Y-91046270D01*
X127908633Y-90916347D01*
X127898571Y-90684974D01*
X127866948Y-90483694D01*
X127810540Y-90304443D01*
X127726125Y-90139158D01*
X127610480Y-89979778D01*
X127475722Y-89833411D01*
X127341973Y-89707968D01*
X127218319Y-89611088D01*
X127092911Y-89535130D01*
X126953903Y-89472454D01*
X126866779Y-89440677D01*
X126620137Y-89374217D01*
X126382226Y-89347205D01*
X126160264Y-89357476D01*
X125900434Y-89408707D01*
X125658978Y-89494348D01*
X125439178Y-89612199D01*
X125244320Y-89760057D01*
X125077687Y-89935724D01*
X124942562Y-90136999D01*
X124912998Y-90193250D01*
X124841781Y-90352509D01*
X124791991Y-90505821D01*
X124760091Y-90667699D01*
X124742545Y-90852657D01*
X124740033Y-90903117D01*
X124736076Y-91026461D01*
X117467445Y-91026461D01*
X117466395Y-90296894D01*
X123551756Y-90296894D01*
X123552394Y-90323902D01*
X123560611Y-90358356D01*
X123582243Y-90381915D01*
X123627295Y-90401724D01*
X123686250Y-90419481D01*
X123774947Y-90443005D01*
X123835178Y-90450505D01*
X123875580Y-90436683D01*
X123904792Y-90396245D01*
X123931451Y-90323895D01*
X123951647Y-90256750D01*
X123999209Y-90106588D01*
X124048171Y-89979556D01*
X124106177Y-89858424D01*
X124180866Y-89725963D01*
X124204454Y-89686730D01*
X124396135Y-89409935D01*
X124615529Y-89164447D01*
X124860978Y-88951526D01*
X125130823Y-88772435D01*
X125423405Y-88628438D01*
X125736343Y-88520994D01*
X125860269Y-88486861D01*
X125845454Y-88387556D01*
X125845349Y-88387036D01*
X126790519Y-88387036D01*
X126798934Y-88434490D01*
X126825143Y-88471921D01*
X126875028Y-88505057D01*
X126954469Y-88539630D01*
X127052177Y-88575325D01*
X127344564Y-88695651D01*
X127607752Y-88841432D01*
X127849567Y-89017593D01*
X128057167Y-89207975D01*
X128244502Y-89415638D01*
X128398039Y-89628505D01*
X128524196Y-89857166D01*
X128629391Y-90112213D01*
X128660553Y-90203834D01*
X128689338Y-90287950D01*
X128716122Y-90358360D01*
X128736560Y-90403925D01*
X128742011Y-90412730D01*
X128775017Y-90426841D01*
X128835279Y-90432720D01*
X128908674Y-90431082D01*
X128981081Y-90422644D01*
X129038378Y-90408121D01*
X129059828Y-90396620D01*
X129075409Y-90374668D01*
X129079688Y-90339186D01*
X129071734Y-90283648D01*
X129050619Y-90201528D01*
X129015767Y-90087417D01*
X128961030Y-89935826D01*
X128889287Y-89767415D01*
X128807223Y-89596016D01*
X128721522Y-89435458D01*
X128638868Y-89299572D01*
X128625297Y-89279478D01*
X128526631Y-89150650D01*
X128402336Y-89010468D01*
X128262980Y-88869531D01*
X128119133Y-88738437D01*
X127981361Y-88627784D01*
X127959801Y-88612122D01*
X127791640Y-88501280D01*
X127612065Y-88399218D01*
X127429716Y-88309847D01*
X127253230Y-88237080D01*
X127091245Y-88184829D01*
X126955796Y-88157405D01*
X126885661Y-88155276D01*
X126840111Y-88173701D01*
X126812660Y-88219355D01*
X126796817Y-88298913D01*
X126794017Y-88323830D01*
X126790519Y-88387036D01*
X125845349Y-88387036D01*
X125829780Y-88309946D01*
X125808694Y-88237155D01*
X125801983Y-88219459D01*
X125780460Y-88180747D01*
X125750450Y-88158374D01*
X125705083Y-88152049D01*
X125637489Y-88161477D01*
X125540798Y-88186367D01*
X125475926Y-88205570D01*
X125178175Y-88317050D01*
X124890598Y-88466013D01*
X124618876Y-88648089D01*
X124368691Y-88858906D01*
X124145722Y-89094094D01*
X123955650Y-89349283D01*
X123923515Y-89400009D01*
X123844409Y-89536842D01*
X123769303Y-89682390D01*
X123700996Y-89829681D01*
X123642288Y-89971746D01*
X123595979Y-90101617D01*
X123564869Y-90212322D01*
X123551756Y-90296894D01*
X117466395Y-90296894D01*
X117456243Y-83240290D01*
X117745496Y-82967044D01*
X118161897Y-82588791D01*
X118576211Y-82243797D01*
X118998024Y-81924629D01*
X119436920Y-81623853D01*
X119664584Y-81478778D01*
X120280203Y-81120137D01*
X120920092Y-80795167D01*
X121581431Y-80505006D01*
X122261404Y-80250794D01*
X122957190Y-80033668D01*
X123665972Y-79854768D01*
X123707417Y-79845589D01*
X124085980Y-79767821D01*
X124450740Y-79704677D01*
X124809572Y-79655519D01*
X125170353Y-79619707D01*
X125540957Y-79596603D01*
X125929262Y-79585568D01*
X126343143Y-79585963D01*
G36*
X120299030Y-99723542D02*
G01*
X120342040Y-99927161D01*
X120421690Y-100127996D01*
X120539660Y-100329476D01*
X120696040Y-100533167D01*
X120814886Y-100678383D01*
X120903048Y-100800121D01*
X120962717Y-100901572D01*
X120986663Y-100956500D01*
X120996529Y-101003467D01*
X121005069Y-101087391D01*
X121012354Y-101209537D01*
X121018455Y-101371169D01*
X121023443Y-101573554D01*
X121024486Y-101628542D01*
X121035266Y-102226500D01*
X119802167Y-102226500D01*
X119802167Y-101197960D01*
X119958002Y-101197960D01*
X119961400Y-101238003D01*
X120003523Y-101351892D01*
X120073825Y-101442872D01*
X120164965Y-101507118D01*
X120269599Y-101540807D01*
X120380387Y-101540117D01*
X120478561Y-101507313D01*
X120575142Y-101436899D01*
X120637455Y-101341645D01*
X120665556Y-101221467D01*
X120665560Y-101221425D01*
X120656993Y-101101138D01*
X120614295Y-100996639D01*
X120543402Y-100913459D01*
X120450248Y-100857127D01*
X120340771Y-100833172D01*
X120255143Y-100839082D01*
X120169604Y-100873067D01*
X120089672Y-100936063D01*
X120022796Y-101017954D01*
X119976423Y-101108625D01*
X119958002Y-101197960D01*
X119802167Y-101197960D01*
X119802167Y-99601834D01*
X120284122Y-99601834D01*
X120299030Y-99723542D01*
G37*
X120299030Y-99723542D02*
X120342040Y-99927161D01*
X120421690Y-100127996D01*
X120539660Y-100329476D01*
X120696040Y-100533167D01*
X120814886Y-100678383D01*
X120903048Y-100800121D01*
X120962717Y-100901572D01*
X120986663Y-100956500D01*
X120996529Y-101003467D01*
X121005069Y-101087391D01*
X121012354Y-101209537D01*
X121018455Y-101371169D01*
X121023443Y-101573554D01*
X121024486Y-101628542D01*
X121035266Y-102226500D01*
X119802167Y-102226500D01*
X119802167Y-101197960D01*
X119958002Y-101197960D01*
X119961400Y-101238003D01*
X120003523Y-101351892D01*
X120073825Y-101442872D01*
X120164965Y-101507118D01*
X120269599Y-101540807D01*
X120380387Y-101540117D01*
X120478561Y-101507313D01*
X120575142Y-101436899D01*
X120637455Y-101341645D01*
X120665556Y-101221467D01*
X120665560Y-101221425D01*
X120656993Y-101101138D01*
X120614295Y-100996639D01*
X120543402Y-100913459D01*
X120450248Y-100857127D01*
X120340771Y-100833172D01*
X120255143Y-100839082D01*
X120169604Y-100873067D01*
X120089672Y-100936063D01*
X120022796Y-101017954D01*
X119976423Y-101108625D01*
X119958002Y-101197960D01*
X119802167Y-101197960D01*
X119802167Y-99601834D01*
X120284122Y-99601834D01*
X120299030Y-99723542D01*
G36*
X124220223Y-100436375D02*
G01*
X124333041Y-100502391D01*
X124465530Y-100574786D01*
X124598455Y-100643256D01*
X124680334Y-100682809D01*
X124924500Y-100796431D01*
X124924500Y-102226500D01*
X121389667Y-102226500D01*
X121389667Y-101146162D01*
X123982219Y-101146162D01*
X123986156Y-101253337D01*
X124023926Y-101357016D01*
X124094285Y-101449531D01*
X124171206Y-101509142D01*
X124258087Y-101541166D01*
X124360906Y-101548580D01*
X124461267Y-101531532D01*
X124518272Y-101506317D01*
X124585652Y-101443248D01*
X124637017Y-101352185D01*
X124665968Y-101246361D01*
X124670035Y-101192532D01*
X124652943Y-101072819D01*
X124604788Y-100975052D01*
X124532223Y-100901947D01*
X124441898Y-100856218D01*
X124340464Y-100840581D01*
X124234573Y-100857751D01*
X124130874Y-100910441D01*
X124080823Y-100952012D01*
X124013360Y-101043164D01*
X123982219Y-101146162D01*
X121389667Y-101146162D01*
X121389667Y-101108467D01*
X121564292Y-101096686D01*
X121635566Y-101092917D01*
X121740720Y-101088738D01*
X121871305Y-101084417D01*
X122018871Y-101080220D01*
X122174972Y-101076414D01*
X122268084Y-101074452D01*
X122421636Y-101070554D01*
X122568320Y-101065228D01*
X122700513Y-101058875D01*
X122810595Y-101051893D01*
X122890945Y-101044684D01*
X122923738Y-101040043D01*
X123099275Y-100991134D01*
X123276694Y-100909626D01*
X123459248Y-100793531D01*
X123650191Y-100640862D01*
X123792348Y-100509456D01*
X124004278Y-100303562D01*
X124220223Y-100436375D01*
G37*
X124220223Y-100436375D02*
X124333041Y-100502391D01*
X124465530Y-100574786D01*
X124598455Y-100643256D01*
X124680334Y-100682809D01*
X124924500Y-100796431D01*
X124924500Y-102226500D01*
X121389667Y-102226500D01*
X121389667Y-101146162D01*
X123982219Y-101146162D01*
X123986156Y-101253337D01*
X124023926Y-101357016D01*
X124094285Y-101449531D01*
X124171206Y-101509142D01*
X124258087Y-101541166D01*
X124360906Y-101548580D01*
X124461267Y-101531532D01*
X124518272Y-101506317D01*
X124585652Y-101443248D01*
X124637017Y-101352185D01*
X124665968Y-101246361D01*
X124670035Y-101192532D01*
X124652943Y-101072819D01*
X124604788Y-100975052D01*
X124532223Y-100901947D01*
X124441898Y-100856218D01*
X124340464Y-100840581D01*
X124234573Y-100857751D01*
X124130874Y-100910441D01*
X124080823Y-100952012D01*
X124013360Y-101043164D01*
X123982219Y-101146162D01*
X121389667Y-101146162D01*
X121389667Y-101108467D01*
X121564292Y-101096686D01*
X121635566Y-101092917D01*
X121740720Y-101088738D01*
X121871305Y-101084417D01*
X122018871Y-101080220D01*
X122174972Y-101076414D01*
X122268084Y-101074452D01*
X122421636Y-101070554D01*
X122568320Y-101065228D01*
X122700513Y-101058875D01*
X122810595Y-101051893D01*
X122890945Y-101044684D01*
X122923738Y-101040043D01*
X123099275Y-100991134D01*
X123276694Y-100909626D01*
X123459248Y-100793531D01*
X123650191Y-100640862D01*
X123792348Y-100509456D01*
X124004278Y-100303562D01*
X124220223Y-100436375D01*
G36*
X128826460Y-100495363D02*
G01*
X129016853Y-100672019D01*
X129210345Y-100820152D01*
X129400553Y-100935154D01*
X129500147Y-100982062D01*
X129583451Y-101010827D01*
X129685639Y-101034190D01*
X129810669Y-101052517D01*
X129962501Y-101066175D01*
X130145093Y-101075529D01*
X130362404Y-101080946D01*
X130588770Y-101082753D01*
X130722792Y-101083768D01*
X130852149Y-101086108D01*
X130966807Y-101089492D01*
X131056730Y-101093639D01*
X131102062Y-101097099D01*
X131232167Y-101110697D01*
X131232167Y-102226500D01*
X127697334Y-102226500D01*
X127697334Y-101234949D01*
X127972391Y-101234949D01*
X128001849Y-101342535D01*
X128067701Y-101439669D01*
X128140176Y-101501038D01*
X128239139Y-101543445D01*
X128348090Y-101547455D01*
X128459739Y-101513319D01*
X128504340Y-101488522D01*
X128597308Y-101407605D01*
X128653013Y-101306764D01*
X128671000Y-101190375D01*
X128655699Y-101085511D01*
X128606731Y-100993529D01*
X128536070Y-100919336D01*
X128435388Y-100855448D01*
X128328937Y-100832411D01*
X128222016Y-100850213D01*
X128119924Y-100908846D01*
X128106478Y-100920172D01*
X128024295Y-101016700D01*
X127979736Y-101123982D01*
X127972391Y-101234949D01*
X127697334Y-101234949D01*
X127697334Y-100808636D01*
X127969652Y-100672177D01*
X128090008Y-100610264D01*
X128217773Y-100541872D01*
X128337890Y-100475211D01*
X128435296Y-100418489D01*
X128437320Y-100417264D01*
X128632669Y-100298809D01*
X128826460Y-100495363D01*
G37*
X128826460Y-100495363D02*
X129016853Y-100672019D01*
X129210345Y-100820152D01*
X129400553Y-100935154D01*
X129500147Y-100982062D01*
X129583451Y-101010827D01*
X129685639Y-101034190D01*
X129810669Y-101052517D01*
X129962501Y-101066175D01*
X130145093Y-101075529D01*
X130362404Y-101080946D01*
X130588770Y-101082753D01*
X130722792Y-101083768D01*
X130852149Y-101086108D01*
X130966807Y-101089492D01*
X131056730Y-101093639D01*
X131102062Y-101097099D01*
X131232167Y-101110697D01*
X131232167Y-102226500D01*
X127697334Y-102226500D01*
X127697334Y-101234949D01*
X127972391Y-101234949D01*
X128001849Y-101342535D01*
X128067701Y-101439669D01*
X128140176Y-101501038D01*
X128239139Y-101543445D01*
X128348090Y-101547455D01*
X128459739Y-101513319D01*
X128504340Y-101488522D01*
X128597308Y-101407605D01*
X128653013Y-101306764D01*
X128671000Y-101190375D01*
X128655699Y-101085511D01*
X128606731Y-100993529D01*
X128536070Y-100919336D01*
X128435388Y-100855448D01*
X128328937Y-100832411D01*
X128222016Y-100850213D01*
X128119924Y-100908846D01*
X128106478Y-100920172D01*
X128024295Y-101016700D01*
X127979736Y-101123982D01*
X127972391Y-101234949D01*
X127697334Y-101234949D01*
X127697334Y-100808636D01*
X127969652Y-100672177D01*
X128090008Y-100610264D01*
X128217773Y-100541872D01*
X128337890Y-100475211D01*
X128435296Y-100418489D01*
X128437320Y-100417264D01*
X128632669Y-100298809D01*
X128826460Y-100495363D01*
G36*
X132819667Y-102226500D02*
G01*
X131592000Y-102226500D01*
X131592368Y-101723792D01*
X131593847Y-101511655D01*
X131599068Y-101335523D01*
X131608751Y-101202346D01*
X131973000Y-101202346D01*
X131992135Y-101298988D01*
X132043724Y-101393351D01*
X132119044Y-101473331D01*
X132205834Y-101525445D01*
X132288532Y-101544098D01*
X132384005Y-101545373D01*
X132471101Y-101529851D01*
X132502395Y-101517299D01*
X132560033Y-101469836D01*
X132615407Y-101394568D01*
X132659769Y-101305521D01*
X132682456Y-101228542D01*
X132684019Y-101150032D01*
X132657372Y-101062852D01*
X132654153Y-101055456D01*
X132591392Y-100957110D01*
X132509164Y-100890330D01*
X132414434Y-100853612D01*
X132314167Y-100845455D01*
X132215329Y-100864357D01*
X132124886Y-100908815D01*
X132049803Y-100977328D01*
X131997044Y-101068393D01*
X131973576Y-101180508D01*
X131973000Y-101202346D01*
X131608751Y-101202346D01*
X131609713Y-101189118D01*
X131627466Y-101066162D01*
X131654010Y-100960375D01*
X131691027Y-100865481D01*
X131740202Y-100775200D01*
X131803217Y-100683254D01*
X131881756Y-100583366D01*
X131905962Y-100554076D01*
X132034390Y-100390508D01*
X132131930Y-100243235D01*
X132202375Y-100104276D01*
X132249519Y-99965650D01*
X132277155Y-99819377D01*
X132283319Y-99760268D01*
X132296712Y-99601834D01*
X132819667Y-99601834D01*
X132819667Y-102226500D01*
G37*
X132819667Y-102226500D02*
X131592000Y-102226500D01*
X131592368Y-101723792D01*
X131593847Y-101511655D01*
X131599068Y-101335523D01*
X131608751Y-101202346D01*
X131973000Y-101202346D01*
X131992135Y-101298988D01*
X132043724Y-101393351D01*
X132119044Y-101473331D01*
X132205834Y-101525445D01*
X132288532Y-101544098D01*
X132384005Y-101545373D01*
X132471101Y-101529851D01*
X132502395Y-101517299D01*
X132560033Y-101469836D01*
X132615407Y-101394568D01*
X132659769Y-101305521D01*
X132682456Y-101228542D01*
X132684019Y-101150032D01*
X132657372Y-101062852D01*
X132654153Y-101055456D01*
X132591392Y-100957110D01*
X132509164Y-100890330D01*
X132414434Y-100853612D01*
X132314167Y-100845455D01*
X132215329Y-100864357D01*
X132124886Y-100908815D01*
X132049803Y-100977328D01*
X131997044Y-101068393D01*
X131973576Y-101180508D01*
X131973000Y-101202346D01*
X131608751Y-101202346D01*
X131609713Y-101189118D01*
X131627466Y-101066162D01*
X131654010Y-100960375D01*
X131691027Y-100865481D01*
X131740202Y-100775200D01*
X131803217Y-100683254D01*
X131881756Y-100583366D01*
X131905962Y-100554076D01*
X132034390Y-100390508D01*
X132131930Y-100243235D01*
X132202375Y-100104276D01*
X132249519Y-99965650D01*
X132277155Y-99819377D01*
X132283319Y-99760268D01*
X132296712Y-99601834D01*
X132819667Y-99601834D01*
X132819667Y-102226500D01*
G36*
X123485545Y-99825399D02*
G01*
X123707417Y-100048965D01*
X123501665Y-100247751D01*
X123413981Y-100329967D01*
X123325475Y-100408664D01*
X123246215Y-100475141D01*
X123186273Y-100520694D01*
X123184165Y-100522130D01*
X123117472Y-100563435D01*
X123046474Y-100598576D01*
X122967021Y-100628181D01*
X122874961Y-100652879D01*
X122766140Y-100673298D01*
X122636408Y-100690066D01*
X122481613Y-100703812D01*
X122297602Y-100715164D01*
X122080223Y-100724750D01*
X121825325Y-100733199D01*
X121781080Y-100734479D01*
X121315242Y-100747736D01*
X121259241Y-100635160D01*
X121218037Y-100564782D01*
X121159203Y-100479513D01*
X121093978Y-100395422D01*
X121079495Y-100378217D01*
X120951398Y-100224631D01*
X120898116Y-100155291D01*
X121971578Y-100155291D01*
X121973832Y-100251899D01*
X122010870Y-100350091D01*
X122076538Y-100440680D01*
X122164680Y-100514480D01*
X122236966Y-100551429D01*
X122297715Y-100563462D01*
X122369673Y-100552906D01*
X122462774Y-100518018D01*
X122484894Y-100507925D01*
X122579159Y-100448477D01*
X122638401Y-100371314D01*
X122666570Y-100269951D01*
X122670250Y-100203533D01*
X122653791Y-100076315D01*
X122606016Y-99975575D01*
X122529330Y-99903870D01*
X122426139Y-99863759D01*
X122343349Y-99855834D01*
X122214960Y-99873896D01*
X122109006Y-99926066D01*
X122029247Y-100009313D01*
X121979442Y-100120612D01*
X121971578Y-100155291D01*
X120898116Y-100155291D01*
X120852065Y-100095362D01*
X120779054Y-99986125D01*
X120729920Y-99892635D01*
X120702220Y-99810606D01*
X120693508Y-99735754D01*
X120695051Y-99704092D01*
X120709234Y-99650446D01*
X120744364Y-99623892D01*
X120754667Y-99620650D01*
X120785091Y-99617944D01*
X120853911Y-99615328D01*
X120957190Y-99612855D01*
X121090990Y-99610575D01*
X121251376Y-99608541D01*
X121434410Y-99606802D01*
X121636153Y-99605411D01*
X121852671Y-99604418D01*
X122035628Y-99603943D01*
X123263673Y-99601834D01*
X123485545Y-99825399D01*
G37*
X123485545Y-99825399D02*
X123707417Y-100048965D01*
X123501665Y-100247751D01*
X123413981Y-100329967D01*
X123325475Y-100408664D01*
X123246215Y-100475141D01*
X123186273Y-100520694D01*
X123184165Y-100522130D01*
X123117472Y-100563435D01*
X123046474Y-100598576D01*
X122967021Y-100628181D01*
X122874961Y-100652879D01*
X122766140Y-100673298D01*
X122636408Y-100690066D01*
X122481613Y-100703812D01*
X122297602Y-100715164D01*
X122080223Y-100724750D01*
X121825325Y-100733199D01*
X121781080Y-100734479D01*
X121315242Y-100747736D01*
X121259241Y-100635160D01*
X121218037Y-100564782D01*
X121159203Y-100479513D01*
X121093978Y-100395422D01*
X121079495Y-100378217D01*
X120951398Y-100224631D01*
X120898116Y-100155291D01*
X121971578Y-100155291D01*
X121973832Y-100251899D01*
X122010870Y-100350091D01*
X122076538Y-100440680D01*
X122164680Y-100514480D01*
X122236966Y-100551429D01*
X122297715Y-100563462D01*
X122369673Y-100552906D01*
X122462774Y-100518018D01*
X122484894Y-100507925D01*
X122579159Y-100448477D01*
X122638401Y-100371314D01*
X122666570Y-100269951D01*
X122670250Y-100203533D01*
X122653791Y-100076315D01*
X122606016Y-99975575D01*
X122529330Y-99903870D01*
X122426139Y-99863759D01*
X122343349Y-99855834D01*
X122214960Y-99873896D01*
X122109006Y-99926066D01*
X122029247Y-100009313D01*
X121979442Y-100120612D01*
X121971578Y-100155291D01*
X120898116Y-100155291D01*
X120852065Y-100095362D01*
X120779054Y-99986125D01*
X120729920Y-99892635D01*
X120702220Y-99810606D01*
X120693508Y-99735754D01*
X120695051Y-99704092D01*
X120709234Y-99650446D01*
X120744364Y-99623892D01*
X120754667Y-99620650D01*
X120785091Y-99617944D01*
X120853911Y-99615328D01*
X120957190Y-99612855D01*
X121090990Y-99610575D01*
X121251376Y-99608541D01*
X121434410Y-99606802D01*
X121636153Y-99605411D01*
X121852671Y-99604418D01*
X122035628Y-99603943D01*
X123263673Y-99601834D01*
X123485545Y-99825399D01*
G36*
X130554455Y-99603053D02*
G01*
X130778284Y-99603550D01*
X130991465Y-99604541D01*
X131189866Y-99605971D01*
X131369353Y-99607788D01*
X131525793Y-99609935D01*
X131655052Y-99612361D01*
X131752998Y-99615011D01*
X131815496Y-99617830D01*
X131835417Y-99619775D01*
X131887720Y-99631341D01*
X131911623Y-99649505D01*
X131917135Y-99687830D01*
X131915667Y-99728514D01*
X131896628Y-99825473D01*
X131850894Y-99940104D01*
X131783507Y-100062059D01*
X131699508Y-100180995D01*
X131688611Y-100194500D01*
X131624250Y-100274455D01*
X131553759Y-100364241D01*
X131483210Y-100455865D01*
X131418676Y-100541338D01*
X131366229Y-100612668D01*
X131331943Y-100661866D01*
X131325132Y-100672764D01*
X131316164Y-100684548D01*
X131301380Y-100693830D01*
X131276026Y-100700939D01*
X131235346Y-100706206D01*
X131174584Y-100709961D01*
X131088985Y-100712534D01*
X130973793Y-100714257D01*
X130824252Y-100715458D01*
X130700715Y-100716146D01*
X130537576Y-100716319D01*
X130381412Y-100715260D01*
X130239243Y-100713110D01*
X130118091Y-100710009D01*
X130024975Y-100706099D01*
X129966919Y-100701522D01*
X129965580Y-100701348D01*
X129788241Y-100668039D01*
X129628612Y-100615439D01*
X129478150Y-100539044D01*
X129328308Y-100434351D01*
X129170543Y-100296856D01*
X129136786Y-100264539D01*
X129028582Y-100159574D01*
X129970575Y-100159574D01*
X129974130Y-100268659D01*
X130018188Y-100371070D01*
X130101847Y-100464203D01*
X130170628Y-100514517D01*
X130229527Y-100551435D01*
X130268318Y-100569236D01*
X130303466Y-100570122D01*
X130351435Y-100556296D01*
X130388131Y-100543602D01*
X130481042Y-100508468D01*
X130544279Y-100474512D01*
X130589462Y-100433577D01*
X130628209Y-100377508D01*
X130630671Y-100373333D01*
X130673955Y-100261715D01*
X130676392Y-100148816D01*
X130638986Y-100039725D01*
X130562740Y-99939533D01*
X130541163Y-99919462D01*
X130491634Y-99881555D01*
X130443212Y-99862547D01*
X130377460Y-99856408D01*
X130347722Y-99856182D01*
X130216593Y-99873037D01*
X130111535Y-99923061D01*
X130031777Y-100006686D01*
X130008425Y-100046421D01*
X129970575Y-100159574D01*
X129028582Y-100159574D01*
X128914417Y-100048828D01*
X129136289Y-99825331D01*
X129358160Y-99601834D01*
X130554455Y-99603053D01*
G37*
X130554455Y-99603053D02*
X130778284Y-99603550D01*
X130991465Y-99604541D01*
X131189866Y-99605971D01*
X131369353Y-99607788D01*
X131525793Y-99609935D01*
X131655052Y-99612361D01*
X131752998Y-99615011D01*
X131815496Y-99617830D01*
X131835417Y-99619775D01*
X131887720Y-99631341D01*
X131911623Y-99649505D01*
X131917135Y-99687830D01*
X131915667Y-99728514D01*
X131896628Y-99825473D01*
X131850894Y-99940104D01*
X131783507Y-100062059D01*
X131699508Y-100180995D01*
X131688611Y-100194500D01*
X131624250Y-100274455D01*
X131553759Y-100364241D01*
X131483210Y-100455865D01*
X131418676Y-100541338D01*
X131366229Y-100612668D01*
X131331943Y-100661866D01*
X131325132Y-100672764D01*
X131316164Y-100684548D01*
X131301380Y-100693830D01*
X131276026Y-100700939D01*
X131235346Y-100706206D01*
X131174584Y-100709961D01*
X131088985Y-100712534D01*
X130973793Y-100714257D01*
X130824252Y-100715458D01*
X130700715Y-100716146D01*
X130537576Y-100716319D01*
X130381412Y-100715260D01*
X130239243Y-100713110D01*
X130118091Y-100710009D01*
X130024975Y-100706099D01*
X129966919Y-100701522D01*
X129965580Y-100701348D01*
X129788241Y-100668039D01*
X129628612Y-100615439D01*
X129478150Y-100539044D01*
X129328308Y-100434351D01*
X129170543Y-100296856D01*
X129136786Y-100264539D01*
X129028582Y-100159574D01*
X129970575Y-100159574D01*
X129974130Y-100268659D01*
X130018188Y-100371070D01*
X130101847Y-100464203D01*
X130170628Y-100514517D01*
X130229527Y-100551435D01*
X130268318Y-100569236D01*
X130303466Y-100570122D01*
X130351435Y-100556296D01*
X130388131Y-100543602D01*
X130481042Y-100508468D01*
X130544279Y-100474512D01*
X130589462Y-100433577D01*
X130628209Y-100377508D01*
X130630671Y-100373333D01*
X130673955Y-100261715D01*
X130676392Y-100148816D01*
X130638986Y-100039725D01*
X130562740Y-99939533D01*
X130541163Y-99919462D01*
X130491634Y-99881555D01*
X130443212Y-99862547D01*
X130377460Y-99856408D01*
X130347722Y-99856182D01*
X130216593Y-99873037D01*
X130111535Y-99923061D01*
X130031777Y-100006686D01*
X130008425Y-100046421D01*
X129970575Y-100159574D01*
X129028582Y-100159574D01*
X128914417Y-100048828D01*
X129136289Y-99825331D01*
X129358160Y-99601834D01*
X130554455Y-99603053D01*
%TD*%
D11*
%TO.P,J1,1*%
%TO.N,Net-(J1-Pad1)*%
X120340000Y-101240000D03*
%TO.P,J1,2*%
%TO.N,Net-(J1-Pad2)*%
X122390000Y-100240000D03*
%TO.P,J1,3*%
%TO.N,Net-(J1-Pad3)*%
X124330000Y-101240000D03*
%TO.P,J1,4*%
%TO.N,Net-(J1-Pad4)*%
X128380000Y-101240000D03*
%TO.P,J1,5*%
%TO.N,Net-(J1-Pad5)*%
X130350000Y-100240000D03*
%TO.P,J1,6*%
%TO.N,Net-(J1-Pad6)*%
X132300000Y-101240000D03*
%TD*%
M02*
