<?xml version="1.0"?>
<!DOCTYPE svg PUBLIC "-//W3C//DTD SVG 1.1//EN" "http://www.w3.org/Graphics/SVG/1.1/DTD/svg11.dtd">
<svg width="17.24883858588871mm" height="20.123795991884155mm" viewBox="-8.624419 -8.623796 17.248839 20.123796" xmlns="http://www.w3.org/2000/svg" version="1.1">
<g id="Sketch074" transform="scale(1,-1)">
<path id="Sketch074_w0000"  d="M -7.0278463984352975 4.999999999999998 A 1.375 1.375 0 0 0 -5.56395 5.5343A 1.375 1.375 0 0 1 -4.38819 5.77116A 7.25 7.25 0 0 0 4.38819 5.77116A 1.375 1.375 0 0 1 5.56395 5.5343A 1.375 1.375 0 0 0 7.02785 5A 8.625 8.625 0 0 1 -7.02785 5A 8.625 8.625 0 0 1 -6.8 -5.30572L -6.8 -8.25 L -6.8 -11.5 L -4.774999999999999 -11.5 L -4.774999999999997 -10.749999999999998 A 1.46069 1.46069 0 0 1 -5.10402 -9.82645A 1.425 1.425 0 0 0 -5.425 -8.92547L -5.425 -8.25 L -5.425 -4.809560790758341 M 5.425 -4.80956079075834 L 5.425 -8.25 L 5.425 -8.92547307833604 A 1.425 1.425 0 0 0 5.10402 -9.82645A 1.46069 1.46069 0 0 1 4.775 -10.75L 4.774999999999999 -11.5 L 6.8 -11.5 L 6.8 -8.25 L 6.799999999999999 -5.305716257019404 A 8.625 8.625 0 0 1 7.02785 5" stroke="#000000" stroke-width="0.35 px" style="stroke-width:0.35;stroke-miterlimit:4;stroke-dasharray:none;fill:none;fill-rule: evenodd "/>
<path id="Sketch074_w0001"  d="M -1.4999963198826396 -0.003322700488703645 A 0.6 0.6 0 0 1 -2.1232 -0.815021A 0.417574 0.417574 0 0 0 -2.90288 -1.11431A 3.10941 3.10941 0 0 0 -2.90288 1.11431A 0.417574 0.417574 0 0 1 -3.68256 1.4136A 3.94455 3.94455 0 0 1 -3.68256 -1.4136A 0.417574 0.417574 0 0 0 -4.46224 -1.71289A 4.7797 4.7797 0 0 0 -4.46224 1.71289A 0.417574 0.417574 0 0 1 -5.24192 2.01218A 5.61485 5.61485 0 0 1 -5.24192 -2.01218A 0.417574 0.417574 0 0 0 -6.02159 -2.31147A 6.45 6.45 0 0 0 -6.41073 -0.71064A 0.8 0.8 0 0 1 -7.25 -1.11022e-16A 7.25 7.25 0 0 0 -5.90747 4.2029M -7.249999999999999 3.8842331628725327e-16 A 7.25 7.25 0 0 1 -4.6875 -5.53081L -4.6875 -8.25 L -5.225 -8.25 L -5.225 -8.92547307833604 A 1.225 1.225 0 0 1 -4.94907 -9.7A 1.66069 1.66069 0 0 0 -4.575 -10.75L -4.574999999999998 -11.5 L -3.4250000000000016 -11.5 L -3.4250000000000016 -10.749999999999998 A 1.66069 1.66069 0 0 0 -3.05093 -9.7A 1.225 1.225 0 0 1 -2.775 -8.92547L -2.775 -8.25 L -3.3125 -8.25 L -3.3125 -6.449018820719939 A 7.25 7.25 0 0 1 3.3125 -6.44902L 3.3125 -8.25 L 2.775 -8.25 L 2.7749999999999995 -8.92547307833604 A 1.225 1.225 0 0 1 3.05093 -9.7A 1.66069 1.66069 0 0 0 3.425 -10.75L 3.4250000000000016 -11.5 L 4.574999999999998 -11.5 L 4.5749999999999975 -10.749999999999998 A 1.66069 1.66069 0 0 0 4.94907 -9.7A 1.225 1.225 0 0 1 5.225 -8.92547L 5.225 -8.25 L 4.6875 -8.25 L 4.6875 -5.530808598206956 A 7.25 7.25 0 0 1 7.25 -1.77574e-15A 0.8 0.8 0 0 0 6.41073 0.71064A 6.45 6.45 0 0 1 6.02159 2.31147A 0.417574 0.417574 0 0 1 5.24192 2.01218A 5.61485 5.61485 0 0 0 5.24192 -2.01218A 0.417574 0.417574 0 0 0 4.46224 -1.71289A 4.7797 4.7797 0 0 1 4.46224 1.71289A 0.417574 0.417574 0 0 1 3.68256 1.4136A 3.94455 3.94455 0 0 0 3.68256 -1.4136A 0.417574 0.417574 0 0 0 2.90288 -1.11431A 3.10941 3.10941 0 0 1 2.90288 1.11431A 0.417574 0.417574 0 0 1 2.1232 0.815021A 0.6 0.6 0 0 0 1.5 0.0033227M 7.250000000000197 -4.450495080632176e-16 A 7.25 7.25 0 0 1 5.90747 4.2029" stroke="#000000" stroke-width="0.35 px" style="stroke-width:0.35;stroke-miterlimit:4;stroke-dasharray:none;fill:none;fill-rule: evenodd "/>
<circle cx="0.0" cy="-1.563257349343585e-27" r="1.5" stroke="#000000" stroke-width="0.35 px" style="stroke-width:0.35;stroke-miterlimit:4;stroke-dasharray:none;fill:none"/>
<path id="Sketch074_w0003"  d="M -0.003322700488699426 1.4999963198826394 A 0.6 0.6 0 0 1 -0.815021 2.1232A 0.417574 0.417574 0 0 0 -1.11431 2.90288A 3.10941 3.10941 0 0 0 1.11431 2.90288A 0.417574 0.417574 0 0 1 1.4136 3.68256A 3.94455 3.94455 0 0 1 -1.4136 3.68256A 0.417574 0.417574 0 0 0 -1.71289 4.46224A 4.7797 4.7797 0 0 0 1.71289 4.46224A 0.417574 0.417574 0 0 1 2.01218 5.24192A 5.61485 5.61485 0 0 1 -2.01218 5.24192A 0.417574 0.417574 0 0 0 -2.31147 6.02159A 6.45 6.45 0 0 0 -0.71064 6.41073A 0.8 0.8 0 0 1 0 7.25" stroke="#000000" stroke-width="0.35 px" style="stroke-width:0.35;stroke-miterlimit:4;stroke-dasharray:none;fill:none;fill-rule: evenodd "/>
<path id="Sketch074_w0004"  d="M 0.0033227004888852774 -1.4999963198826394 A 0.6 0.6 0 0 1 0.815021 -2.1232A 0.417574 0.417574 0 1 0 1.11431 -2.90288A 3.10941 3.10941 0 0 0 -1.11431 -2.90288A 0.417574 0.417574 0 1 1 -1.4136 -3.68256A 3.94455 3.94455 0 0 1 1.4136 -3.68256A 0.417574 0.417574 0 1 0 1.71289 -4.46224A 4.7797 4.7797 0 0 0 -1.71289 -4.46224A 0.417574 0.417574 0 1 1 -2.01218 -5.24192A 5.61485 5.61485 0 0 1 2.01218 -5.24192A 0.417574 0.417574 0 0 0 2.31147 -6.02159A 6.45 6.45 0 0 0 0.71064 -6.41073A 0.8 0.8 0 0 1 0 -7.25" stroke="#000000" stroke-width="0.35 px" style="stroke-width:0.35;stroke-miterlimit:4;stroke-dasharray:none;fill:none;fill-rule: evenodd "/>
<path id="Sketch074_w0005"  d="M -2.895980296785687 -9.826453374965546 A 1.425 1.425 0 0 1 -2.575 -8.92547L -2.5749999999999997 -8.25 L -1.4250000000000027 -8.25 L -1.4250000000000027 -8.925473078336035 A 1.425 1.425 0 0 1 -1.10402 -9.82645A 1.46069 1.46069 0 0 0 -0.775 -10.75L -0.7749999999999982 -11.5 L -3.2250000000000014 -11.5 L -3.225 -10.749999999999998 A 1.46069 1.46069 0 0 0 -2.89598 -9.82645" stroke="#000000" stroke-width="0.35 px" style="stroke-width:0.35;stroke-miterlimit:4;stroke-dasharray:none;fill:none;fill-rule: evenodd "/>
<path id="Sketch074_w0006"  d="M 2.4 -8.249999999999984 L 2.5749999999999966 -8.249999999999984 L 2.5749999999999966 -8.92547307833604 A 1.425 1.425 0 0 1 2.89598 -9.82645A 1.46069 1.46069 0 0 0 3.225 -10.75L 3.2250000000000014 -11.5 L 0.7749999999999982 -11.5 L 0.775000000000001 -10.749999999999998 " stroke="#000000" stroke-width="0.35 px" style="stroke-width:0.35;stroke-miterlimit:4;stroke-dasharray:none;fill:none;fill-rule: evenodd "/>
<path id="Sketch074_w0007"  d="M 1.1040197032143126 -9.826453374965546 A 1.425 1.425 0 0 1 1.425 -8.92547L 1.4250000000000027 -8.25 L 1.5999999999999999 -8.249999999999984 " stroke="#000000" stroke-width="0.35 px" style="stroke-width:0.35;stroke-miterlimit:4;stroke-dasharray:none;fill:none;fill-rule: evenodd "/>
<title>b'FSR_Routing'</title>
</g>
</svg>