%TF.GenerationSoftware,KiCad,Pcbnew,(5.1.10)-1*%
%TF.CreationDate,2021-10-07T10:54:52-05:00*%
%TF.ProjectId,BYTE_Magnetic,42595445-5f4d-4616-976e-657469632e6b,rev?*%
%TF.SameCoordinates,Original*%
%TF.FileFunction,Legend,Bot*%
%TF.FilePolarity,Positive*%
%FSLAX46Y46*%
G04 Gerber Fmt 4.6, Leading zero omitted, Abs format (unit mm)*
G04 Created by KiCad (PCBNEW (5.1.10)-1) date 2021-10-07 10:54:52*
%MOMM*%
%LPD*%
G01*
G04 APERTURE LIST*
%ADD10C,0.120000*%
%ADD11C,0.150000*%
%ADD12C,0.010000*%
%ADD13C,0.250000*%
G04 APERTURE END LIST*
D10*
%TO.C,U3*%
X181635860Y-120289220D02*
G75*
G03*
X181635860Y-120289220I-127000J0D01*
G01*
%TO.C,M1*%
X179570000Y-113545000D02*
X174170000Y-113545000D01*
X179580000Y-110460000D02*
X174180000Y-110460000D01*
X179580000Y-110460000D02*
X179580000Y-113530000D01*
X174170000Y-110460000D02*
X174170000Y-113560000D01*
%TO.C,D3*%
X187695000Y-106960000D02*
X187695000Y-104675000D01*
X187695000Y-104675000D02*
X189165000Y-104675000D01*
X189165000Y-104675000D02*
X189165000Y-106960000D01*
%TO.C,D2*%
X183415000Y-106952500D02*
X183415000Y-104667500D01*
X183415000Y-104667500D02*
X184885000Y-104667500D01*
X184885000Y-104667500D02*
X184885000Y-106952500D01*
%TO.C,D1*%
X187005000Y-105360000D02*
X187005000Y-107645000D01*
X187005000Y-107645000D02*
X185535000Y-107645000D01*
X185535000Y-107645000D02*
X185535000Y-105360000D01*
%TO.C,RN1*%
X180360000Y-116340000D02*
X180360000Y-117340000D01*
X183720000Y-116340000D02*
X183720000Y-117340000D01*
D11*
%TO.C,U2*%
X189830000Y-120255000D02*
X189830000Y-121330000D01*
X186755000Y-120255000D02*
X186755000Y-117005000D01*
X190005000Y-120255000D02*
X190005000Y-117005000D01*
X186755000Y-120255000D02*
X187030000Y-120255000D01*
X186755000Y-117005000D02*
X187030000Y-117005000D01*
X190005000Y-117005000D02*
X189730000Y-117005000D01*
X190005000Y-120255000D02*
X189830000Y-120255000D01*
D10*
%TO.C,U1*%
X177010000Y-118400000D02*
X177010000Y-121325000D01*
X177010000Y-118400000D02*
X177010000Y-116900000D01*
X173790000Y-118400000D02*
X173790000Y-119900000D01*
X173790000Y-118400000D02*
X173790000Y-116900000D01*
%TO.C,C1*%
X187480000Y-112905580D02*
X187480000Y-112624420D01*
X188500000Y-112905580D02*
X188500000Y-112624420D01*
D12*
%TO.C,Ref\u002A\u002A*%
G36*
X189795000Y-108570167D02*
G01*
X187424334Y-108570167D01*
X187424334Y-107554167D01*
X187784167Y-107554167D01*
X187784167Y-108189167D01*
X188419167Y-108189167D01*
X188419167Y-107554167D01*
X188800167Y-107554167D01*
X188800167Y-108189167D01*
X189414000Y-108189167D01*
X189414000Y-107554167D01*
X188800167Y-107554167D01*
X188419167Y-107554167D01*
X187784167Y-107554167D01*
X187424334Y-107554167D01*
X186429500Y-107554167D01*
X186429500Y-106559334D01*
X186789334Y-106559334D01*
X186789334Y-107194334D01*
X187424334Y-107194334D01*
X187424334Y-106559334D01*
X187784167Y-106559334D01*
X187784167Y-107194334D01*
X188419167Y-107194334D01*
X188419167Y-106559334D01*
X188800167Y-106559334D01*
X188800167Y-107194334D01*
X189414000Y-107194334D01*
X189414000Y-106559334D01*
X188800167Y-106559334D01*
X188419167Y-106559334D01*
X187784167Y-106559334D01*
X187424334Y-106559334D01*
X186789334Y-106559334D01*
X186429500Y-106559334D01*
X186429500Y-106199500D01*
X187424334Y-106199500D01*
X187424334Y-105564500D01*
X187784167Y-105564500D01*
X187784167Y-106199500D01*
X188419167Y-106199500D01*
X188419167Y-105564500D01*
X188800167Y-105564500D01*
X188800167Y-106199500D01*
X189414000Y-106199500D01*
X189414000Y-105564500D01*
X188800167Y-105564500D01*
X188419167Y-105564500D01*
X187784167Y-105564500D01*
X187424334Y-105564500D01*
X186429500Y-105564500D01*
X186429500Y-104569667D01*
X186789334Y-104569667D01*
X186789334Y-105183500D01*
X187424334Y-105183500D01*
X187424334Y-104569667D01*
X187784167Y-104569667D01*
X187784167Y-105183500D01*
X188419167Y-105183500D01*
X188419167Y-104569667D01*
X188800167Y-104569667D01*
X188800167Y-105183500D01*
X189414000Y-105183500D01*
X189414000Y-104569667D01*
X188800167Y-104569667D01*
X188419167Y-104569667D01*
X187784167Y-104569667D01*
X187424334Y-104569667D01*
X186789334Y-104569667D01*
X186429500Y-104569667D01*
X186429500Y-104188667D01*
X187424334Y-104188667D01*
X187424334Y-103553667D01*
X187784167Y-103553667D01*
X187784167Y-104188667D01*
X188419167Y-104188667D01*
X188419167Y-103553667D01*
X188800167Y-103553667D01*
X188800167Y-104188667D01*
X189414000Y-104188667D01*
X189414000Y-103553667D01*
X188800167Y-103553667D01*
X188419167Y-103553667D01*
X187784167Y-103553667D01*
X187424334Y-103553667D01*
X187424334Y-103193834D01*
X189795000Y-103193834D01*
X189795000Y-108570167D01*
G37*
X189795000Y-108570167D02*
X187424334Y-108570167D01*
X187424334Y-107554167D01*
X187784167Y-107554167D01*
X187784167Y-108189167D01*
X188419167Y-108189167D01*
X188419167Y-107554167D01*
X188800167Y-107554167D01*
X188800167Y-108189167D01*
X189414000Y-108189167D01*
X189414000Y-107554167D01*
X188800167Y-107554167D01*
X188419167Y-107554167D01*
X187784167Y-107554167D01*
X187424334Y-107554167D01*
X186429500Y-107554167D01*
X186429500Y-106559334D01*
X186789334Y-106559334D01*
X186789334Y-107194334D01*
X187424334Y-107194334D01*
X187424334Y-106559334D01*
X187784167Y-106559334D01*
X187784167Y-107194334D01*
X188419167Y-107194334D01*
X188419167Y-106559334D01*
X188800167Y-106559334D01*
X188800167Y-107194334D01*
X189414000Y-107194334D01*
X189414000Y-106559334D01*
X188800167Y-106559334D01*
X188419167Y-106559334D01*
X187784167Y-106559334D01*
X187424334Y-106559334D01*
X186789334Y-106559334D01*
X186429500Y-106559334D01*
X186429500Y-106199500D01*
X187424334Y-106199500D01*
X187424334Y-105564500D01*
X187784167Y-105564500D01*
X187784167Y-106199500D01*
X188419167Y-106199500D01*
X188419167Y-105564500D01*
X188800167Y-105564500D01*
X188800167Y-106199500D01*
X189414000Y-106199500D01*
X189414000Y-105564500D01*
X188800167Y-105564500D01*
X188419167Y-105564500D01*
X187784167Y-105564500D01*
X187424334Y-105564500D01*
X186429500Y-105564500D01*
X186429500Y-104569667D01*
X186789334Y-104569667D01*
X186789334Y-105183500D01*
X187424334Y-105183500D01*
X187424334Y-104569667D01*
X187784167Y-104569667D01*
X187784167Y-105183500D01*
X188419167Y-105183500D01*
X188419167Y-104569667D01*
X188800167Y-104569667D01*
X188800167Y-105183500D01*
X189414000Y-105183500D01*
X189414000Y-104569667D01*
X188800167Y-104569667D01*
X188419167Y-104569667D01*
X187784167Y-104569667D01*
X187424334Y-104569667D01*
X186789334Y-104569667D01*
X186429500Y-104569667D01*
X186429500Y-104188667D01*
X187424334Y-104188667D01*
X187424334Y-103553667D01*
X187784167Y-103553667D01*
X187784167Y-104188667D01*
X188419167Y-104188667D01*
X188419167Y-103553667D01*
X188800167Y-103553667D01*
X188800167Y-104188667D01*
X189414000Y-104188667D01*
X189414000Y-103553667D01*
X188800167Y-103553667D01*
X188419167Y-103553667D01*
X187784167Y-103553667D01*
X187424334Y-103553667D01*
X187424334Y-103193834D01*
X189795000Y-103193834D01*
X189795000Y-108570167D01*
G36*
X183794250Y-103204417D02*
G01*
X183805614Y-104188667D01*
X184418667Y-104188667D01*
X184799667Y-104188667D01*
X185435799Y-104188667D01*
X185429941Y-103876459D01*
X185424084Y-103564250D01*
X185111875Y-103558393D01*
X184799667Y-103552535D01*
X184799667Y-104188667D01*
X184418667Y-104188667D01*
X184418667Y-103193834D01*
X185794500Y-103193834D01*
X185794500Y-105564500D01*
X184799667Y-105564500D01*
X184799667Y-108570167D01*
X183423834Y-108570167D01*
X183423834Y-107554167D01*
X183804834Y-107554167D01*
X183804834Y-108189167D01*
X184418667Y-108189167D01*
X184418667Y-107554167D01*
X183804834Y-107554167D01*
X183423834Y-107554167D01*
X183423834Y-106559334D01*
X183804834Y-106559334D01*
X183804834Y-107194334D01*
X184418667Y-107194334D01*
X184418667Y-106559334D01*
X183804834Y-106559334D01*
X183423834Y-106559334D01*
X183423834Y-105564500D01*
X183804834Y-105564500D01*
X183804834Y-106199500D01*
X184418667Y-106199500D01*
X184418667Y-105564500D01*
X183804834Y-105564500D01*
X183423834Y-105564500D01*
X182429000Y-105564500D01*
X182429000Y-104569667D01*
X182788834Y-104569667D01*
X182788834Y-105183500D01*
X183423834Y-105183500D01*
X183423834Y-104569667D01*
X183804834Y-104569667D01*
X183804834Y-105183500D01*
X184418667Y-105183500D01*
X184418667Y-104569667D01*
X184799667Y-104569667D01*
X184799667Y-105183500D01*
X185434667Y-105183500D01*
X185434667Y-104569667D01*
X184799667Y-104569667D01*
X184418667Y-104569667D01*
X183804834Y-104569667D01*
X183423834Y-104569667D01*
X182788834Y-104569667D01*
X182429000Y-104569667D01*
X182429000Y-103553667D01*
X182788834Y-103553667D01*
X182788834Y-104188667D01*
X183423834Y-104188667D01*
X183423834Y-103553667D01*
X182788834Y-103553667D01*
X182429000Y-103553667D01*
X182429000Y-103193247D01*
X183794250Y-103204417D01*
G37*
X183794250Y-103204417D02*
X183805614Y-104188667D01*
X184418667Y-104188667D01*
X184799667Y-104188667D01*
X185435799Y-104188667D01*
X185429941Y-103876459D01*
X185424084Y-103564250D01*
X185111875Y-103558393D01*
X184799667Y-103552535D01*
X184799667Y-104188667D01*
X184418667Y-104188667D01*
X184418667Y-103193834D01*
X185794500Y-103193834D01*
X185794500Y-105564500D01*
X184799667Y-105564500D01*
X184799667Y-108570167D01*
X183423834Y-108570167D01*
X183423834Y-107554167D01*
X183804834Y-107554167D01*
X183804834Y-108189167D01*
X184418667Y-108189167D01*
X184418667Y-107554167D01*
X183804834Y-107554167D01*
X183423834Y-107554167D01*
X183423834Y-106559334D01*
X183804834Y-106559334D01*
X183804834Y-107194334D01*
X184418667Y-107194334D01*
X184418667Y-106559334D01*
X183804834Y-106559334D01*
X183423834Y-106559334D01*
X183423834Y-105564500D01*
X183804834Y-105564500D01*
X183804834Y-106199500D01*
X184418667Y-106199500D01*
X184418667Y-105564500D01*
X183804834Y-105564500D01*
X183423834Y-105564500D01*
X182429000Y-105564500D01*
X182429000Y-104569667D01*
X182788834Y-104569667D01*
X182788834Y-105183500D01*
X183423834Y-105183500D01*
X183423834Y-104569667D01*
X183804834Y-104569667D01*
X183804834Y-105183500D01*
X184418667Y-105183500D01*
X184418667Y-104569667D01*
X184799667Y-104569667D01*
X184799667Y-105183500D01*
X185434667Y-105183500D01*
X185434667Y-104569667D01*
X184799667Y-104569667D01*
X184418667Y-104569667D01*
X183804834Y-104569667D01*
X183423834Y-104569667D01*
X182788834Y-104569667D01*
X182429000Y-104569667D01*
X182429000Y-103553667D01*
X182788834Y-103553667D01*
X182788834Y-104188667D01*
X183423834Y-104188667D01*
X183423834Y-103553667D01*
X182788834Y-103553667D01*
X182429000Y-103553667D01*
X182429000Y-103193247D01*
X183794250Y-103204417D01*
G36*
X181794000Y-104569667D02*
G01*
X180799167Y-104569667D01*
X180799167Y-108570167D01*
X179423334Y-108570167D01*
X179423334Y-107554167D01*
X179804334Y-107554167D01*
X179804334Y-108189167D01*
X180418167Y-108189167D01*
X180418167Y-107554167D01*
X179804334Y-107554167D01*
X179423334Y-107554167D01*
X179423334Y-106559334D01*
X179804334Y-106559334D01*
X179804334Y-107194334D01*
X180418167Y-107194334D01*
X180418167Y-106559334D01*
X179804334Y-106559334D01*
X179423334Y-106559334D01*
X179423334Y-105564500D01*
X179804334Y-105564500D01*
X179804334Y-106199500D01*
X180418167Y-106199500D01*
X180418167Y-105564500D01*
X179804334Y-105564500D01*
X179423334Y-105564500D01*
X179423334Y-104569667D01*
X179804334Y-104569667D01*
X179804334Y-105183500D01*
X180418167Y-105183500D01*
X180418167Y-104569667D01*
X179804334Y-104569667D01*
X179423334Y-104569667D01*
X178428500Y-104569667D01*
X178428500Y-103553667D01*
X178788334Y-103553667D01*
X178788334Y-104188667D01*
X179423334Y-104188667D01*
X179423334Y-103553667D01*
X179804334Y-103553667D01*
X179804334Y-104188667D01*
X180418167Y-104188667D01*
X180418167Y-103553667D01*
X180799167Y-103553667D01*
X180799167Y-104188667D01*
X181434167Y-104188667D01*
X181434167Y-103553667D01*
X180799167Y-103553667D01*
X180418167Y-103553667D01*
X179804334Y-103553667D01*
X179423334Y-103553667D01*
X178788334Y-103553667D01*
X178428500Y-103553667D01*
X178428500Y-103193834D01*
X181794000Y-103193834D01*
X181794000Y-104569667D01*
G37*
X181794000Y-104569667D02*
X180799167Y-104569667D01*
X180799167Y-108570167D01*
X179423334Y-108570167D01*
X179423334Y-107554167D01*
X179804334Y-107554167D01*
X179804334Y-108189167D01*
X180418167Y-108189167D01*
X180418167Y-107554167D01*
X179804334Y-107554167D01*
X179423334Y-107554167D01*
X179423334Y-106559334D01*
X179804334Y-106559334D01*
X179804334Y-107194334D01*
X180418167Y-107194334D01*
X180418167Y-106559334D01*
X179804334Y-106559334D01*
X179423334Y-106559334D01*
X179423334Y-105564500D01*
X179804334Y-105564500D01*
X179804334Y-106199500D01*
X180418167Y-106199500D01*
X180418167Y-105564500D01*
X179804334Y-105564500D01*
X179423334Y-105564500D01*
X179423334Y-104569667D01*
X179804334Y-104569667D01*
X179804334Y-105183500D01*
X180418167Y-105183500D01*
X180418167Y-104569667D01*
X179804334Y-104569667D01*
X179423334Y-104569667D01*
X178428500Y-104569667D01*
X178428500Y-103553667D01*
X178788334Y-103553667D01*
X178788334Y-104188667D01*
X179423334Y-104188667D01*
X179423334Y-103553667D01*
X179804334Y-103553667D01*
X179804334Y-104188667D01*
X180418167Y-104188667D01*
X180418167Y-103553667D01*
X180799167Y-103553667D01*
X180799167Y-104188667D01*
X181434167Y-104188667D01*
X181434167Y-103553667D01*
X180799167Y-103553667D01*
X180418167Y-103553667D01*
X179804334Y-103553667D01*
X179423334Y-103553667D01*
X178788334Y-103553667D01*
X178428500Y-103553667D01*
X178428500Y-103193834D01*
X181794000Y-103193834D01*
X181794000Y-104569667D01*
G36*
X177793500Y-108570167D02*
G01*
X174428000Y-108570167D01*
X174428000Y-107554167D01*
X174787834Y-107554167D01*
X174787834Y-108189167D01*
X175422834Y-108189167D01*
X175422834Y-107554167D01*
X175803834Y-107554167D01*
X175803834Y-108189167D01*
X176417667Y-108189167D01*
X176417667Y-107554167D01*
X176798667Y-107554167D01*
X176798667Y-108189167D01*
X177433667Y-108189167D01*
X177433667Y-107554167D01*
X176798667Y-107554167D01*
X176417667Y-107554167D01*
X175803834Y-107554167D01*
X175422834Y-107554167D01*
X174787834Y-107554167D01*
X174428000Y-107554167D01*
X174428000Y-107194334D01*
X176417667Y-107194334D01*
X176417667Y-106559334D01*
X176798667Y-106559334D01*
X176798667Y-107194334D01*
X177433667Y-107194334D01*
X177433667Y-106559334D01*
X176798667Y-106559334D01*
X176417667Y-106559334D01*
X174428000Y-106559334D01*
X174428000Y-105564500D01*
X174787834Y-105564500D01*
X174787834Y-106199500D01*
X175422834Y-106199500D01*
X175422834Y-105564500D01*
X175803834Y-105564500D01*
X175803834Y-106199500D01*
X176417667Y-106199500D01*
X176417667Y-105564500D01*
X176798667Y-105564500D01*
X176798667Y-106199500D01*
X177433667Y-106199500D01*
X177433667Y-105564500D01*
X176798667Y-105564500D01*
X176417667Y-105564500D01*
X175803834Y-105564500D01*
X175422834Y-105564500D01*
X174787834Y-105564500D01*
X174428000Y-105564500D01*
X174428000Y-105183500D01*
X176417667Y-105183500D01*
X176417667Y-104569667D01*
X176798667Y-104569667D01*
X176798667Y-105183500D01*
X177433667Y-105183500D01*
X177433667Y-104569667D01*
X176798667Y-104569667D01*
X176417667Y-104569667D01*
X174428000Y-104569667D01*
X174428000Y-103553667D01*
X174787834Y-103553667D01*
X174787834Y-104188667D01*
X175422834Y-104188667D01*
X175422834Y-103553667D01*
X175803834Y-103553667D01*
X175803834Y-104188667D01*
X176417667Y-104188667D01*
X176417667Y-103553667D01*
X176798667Y-103553667D01*
X176798667Y-104188667D01*
X177433667Y-104188667D01*
X177433667Y-103553667D01*
X176798667Y-103553667D01*
X176417667Y-103553667D01*
X175803834Y-103553667D01*
X175422834Y-103553667D01*
X174787834Y-103553667D01*
X174428000Y-103553667D01*
X174428000Y-103193834D01*
X177793500Y-103193834D01*
X177793500Y-108570167D01*
G37*
X177793500Y-108570167D02*
X174428000Y-108570167D01*
X174428000Y-107554167D01*
X174787834Y-107554167D01*
X174787834Y-108189167D01*
X175422834Y-108189167D01*
X175422834Y-107554167D01*
X175803834Y-107554167D01*
X175803834Y-108189167D01*
X176417667Y-108189167D01*
X176417667Y-107554167D01*
X176798667Y-107554167D01*
X176798667Y-108189167D01*
X177433667Y-108189167D01*
X177433667Y-107554167D01*
X176798667Y-107554167D01*
X176417667Y-107554167D01*
X175803834Y-107554167D01*
X175422834Y-107554167D01*
X174787834Y-107554167D01*
X174428000Y-107554167D01*
X174428000Y-107194334D01*
X176417667Y-107194334D01*
X176417667Y-106559334D01*
X176798667Y-106559334D01*
X176798667Y-107194334D01*
X177433667Y-107194334D01*
X177433667Y-106559334D01*
X176798667Y-106559334D01*
X176417667Y-106559334D01*
X174428000Y-106559334D01*
X174428000Y-105564500D01*
X174787834Y-105564500D01*
X174787834Y-106199500D01*
X175422834Y-106199500D01*
X175422834Y-105564500D01*
X175803834Y-105564500D01*
X175803834Y-106199500D01*
X176417667Y-106199500D01*
X176417667Y-105564500D01*
X176798667Y-105564500D01*
X176798667Y-106199500D01*
X177433667Y-106199500D01*
X177433667Y-105564500D01*
X176798667Y-105564500D01*
X176417667Y-105564500D01*
X175803834Y-105564500D01*
X175422834Y-105564500D01*
X174787834Y-105564500D01*
X174428000Y-105564500D01*
X174428000Y-105183500D01*
X176417667Y-105183500D01*
X176417667Y-104569667D01*
X176798667Y-104569667D01*
X176798667Y-105183500D01*
X177433667Y-105183500D01*
X177433667Y-104569667D01*
X176798667Y-104569667D01*
X176417667Y-104569667D01*
X174428000Y-104569667D01*
X174428000Y-103553667D01*
X174787834Y-103553667D01*
X174787834Y-104188667D01*
X175422834Y-104188667D01*
X175422834Y-103553667D01*
X175803834Y-103553667D01*
X175803834Y-104188667D01*
X176417667Y-104188667D01*
X176417667Y-103553667D01*
X176798667Y-103553667D01*
X176798667Y-104188667D01*
X177433667Y-104188667D01*
X177433667Y-103553667D01*
X176798667Y-103553667D01*
X176417667Y-103553667D01*
X175803834Y-103553667D01*
X175422834Y-103553667D01*
X174787834Y-103553667D01*
X174428000Y-103553667D01*
X174428000Y-103193834D01*
X177793500Y-103193834D01*
X177793500Y-108570167D01*
D10*
%TO.C,C7*%
X185031962Y-117903211D02*
X185230773Y-118102022D01*
X185753211Y-117181962D02*
X185952022Y-117380773D01*
%TO.C,C6*%
X182180580Y-107740000D02*
X181899420Y-107740000D01*
X182180580Y-108760000D02*
X181899420Y-108760000D01*
%TO.C,C3*%
X178629970Y-114431219D02*
X178828781Y-114630030D01*
X179351219Y-113709970D02*
X179550030Y-113908781D01*
D13*
%TO.C,U6*%
X186374290Y-113903654D02*
G75*
G03*
X186374290Y-113903654I-125001J0D01*
G01*
%TO.C,U5*%
X181035000Y-107800000D02*
G75*
G03*
X181035000Y-107800000I-125000J0D01*
G01*
%TO.C,U4*%
X179681347Y-115459289D02*
G75*
G03*
X179681347Y-115459289I-125001J0D01*
G01*
D10*
%TO.C,C5*%
X174449160Y-114610000D02*
X174730320Y-114610000D01*
X174449160Y-113590000D02*
X174730320Y-113590000D01*
%TO.C,C4*%
X178059420Y-121090000D02*
X178340580Y-121090000D01*
X178059420Y-120070000D02*
X178340580Y-120070000D01*
%TO.C,U3*%
X182981144Y-120910476D02*
X183628763Y-120910476D01*
X183704954Y-120948571D01*
X183743049Y-120986666D01*
X183781144Y-121062857D01*
X183781144Y-121215238D01*
X183743049Y-121291428D01*
X183704954Y-121329523D01*
X183628763Y-121367619D01*
X182981144Y-121367619D01*
X182981144Y-121672380D02*
X182981144Y-122167619D01*
X183285906Y-121900952D01*
X183285906Y-122015238D01*
X183324001Y-122091428D01*
X183362097Y-122129523D01*
X183438287Y-122167619D01*
X183628763Y-122167619D01*
X183704954Y-122129523D01*
X183743049Y-122091428D01*
X183781144Y-122015238D01*
X183781144Y-121786666D01*
X183743049Y-121710476D01*
X183704954Y-121672380D01*
%TO.C,M1*%
X179177619Y-113231904D02*
X179177619Y-112431904D01*
X178910952Y-113003333D01*
X178644285Y-112431904D01*
X178644285Y-113231904D01*
X177844285Y-113231904D02*
X178301428Y-113231904D01*
X178072857Y-113231904D02*
X178072857Y-112431904D01*
X178149047Y-112546190D01*
X178225238Y-112622380D01*
X178301428Y-112660476D01*
%TO.C,D3*%
X189791904Y-109119523D02*
X188991904Y-109119523D01*
X188991904Y-109310000D01*
X189030000Y-109424285D01*
X189106190Y-109500476D01*
X189182380Y-109538571D01*
X189334761Y-109576666D01*
X189449047Y-109576666D01*
X189601428Y-109538571D01*
X189677619Y-109500476D01*
X189753809Y-109424285D01*
X189791904Y-109310000D01*
X189791904Y-109119523D01*
X188991904Y-109843333D02*
X188991904Y-110338571D01*
X189296666Y-110071904D01*
X189296666Y-110186190D01*
X189334761Y-110262380D01*
X189372857Y-110300476D01*
X189449047Y-110338571D01*
X189639523Y-110338571D01*
X189715714Y-110300476D01*
X189753809Y-110262380D01*
X189791904Y-110186190D01*
X189791904Y-109957619D01*
X189753809Y-109881428D01*
X189715714Y-109843333D01*
%TO.C,D2*%
X187091904Y-109119523D02*
X186291904Y-109119523D01*
X186291904Y-109310000D01*
X186330000Y-109424285D01*
X186406190Y-109500476D01*
X186482380Y-109538571D01*
X186634761Y-109576666D01*
X186749047Y-109576666D01*
X186901428Y-109538571D01*
X186977619Y-109500476D01*
X187053809Y-109424285D01*
X187091904Y-109310000D01*
X187091904Y-109119523D01*
X186368095Y-109881428D02*
X186330000Y-109919523D01*
X186291904Y-109995714D01*
X186291904Y-110186190D01*
X186330000Y-110262380D01*
X186368095Y-110300476D01*
X186444285Y-110338571D01*
X186520476Y-110338571D01*
X186634761Y-110300476D01*
X187091904Y-109843333D01*
X187091904Y-110338571D01*
%TO.C,D1*%
X188401904Y-109109523D02*
X187601904Y-109109523D01*
X187601904Y-109300000D01*
X187640000Y-109414285D01*
X187716190Y-109490476D01*
X187792380Y-109528571D01*
X187944761Y-109566666D01*
X188059047Y-109566666D01*
X188211428Y-109528571D01*
X188287619Y-109490476D01*
X188363809Y-109414285D01*
X188401904Y-109300000D01*
X188401904Y-109109523D01*
X188401904Y-110328571D02*
X188401904Y-109871428D01*
X188401904Y-110100000D02*
X187601904Y-110100000D01*
X187716190Y-110023809D01*
X187792380Y-109947619D01*
X187830476Y-109871428D01*
%TO.C,RN1*%
X182542380Y-119551904D02*
X182809047Y-119170952D01*
X182999523Y-119551904D02*
X182999523Y-118751904D01*
X182694761Y-118751904D01*
X182618571Y-118790000D01*
X182580476Y-118828095D01*
X182542380Y-118904285D01*
X182542380Y-119018571D01*
X182580476Y-119094761D01*
X182618571Y-119132857D01*
X182694761Y-119170952D01*
X182999523Y-119170952D01*
X182199523Y-119551904D02*
X182199523Y-118751904D01*
X181742380Y-119551904D01*
X181742380Y-118751904D01*
X180942380Y-119551904D02*
X181399523Y-119551904D01*
X181170952Y-119551904D02*
X181170952Y-118751904D01*
X181247142Y-118866190D01*
X181323333Y-118942380D01*
X181399523Y-118980476D01*
%TO.C,U2*%
X188619523Y-121791904D02*
X188619523Y-122439523D01*
X188581428Y-122515714D01*
X188543333Y-122553809D01*
X188467142Y-122591904D01*
X188314761Y-122591904D01*
X188238571Y-122553809D01*
X188200476Y-122515714D01*
X188162380Y-122439523D01*
X188162380Y-121791904D01*
X187819523Y-121868095D02*
X187781428Y-121830000D01*
X187705238Y-121791904D01*
X187514761Y-121791904D01*
X187438571Y-121830000D01*
X187400476Y-121868095D01*
X187362380Y-121944285D01*
X187362380Y-122020476D01*
X187400476Y-122134761D01*
X187857619Y-122591904D01*
X187362380Y-122591904D01*
%TO.C,U1*%
X176549523Y-121691904D02*
X176549523Y-122339523D01*
X176511428Y-122415714D01*
X176473333Y-122453809D01*
X176397142Y-122491904D01*
X176244761Y-122491904D01*
X176168571Y-122453809D01*
X176130476Y-122415714D01*
X176092380Y-122339523D01*
X176092380Y-121691904D01*
X175292380Y-122491904D02*
X175749523Y-122491904D01*
X175520952Y-122491904D02*
X175520952Y-121691904D01*
X175597142Y-121806190D01*
X175673333Y-121882380D01*
X175749523Y-121920476D01*
%TO.C,C1*%
X186885714Y-112586666D02*
X186923809Y-112548571D01*
X186961904Y-112434285D01*
X186961904Y-112358095D01*
X186923809Y-112243809D01*
X186847619Y-112167619D01*
X186771428Y-112129523D01*
X186619047Y-112091428D01*
X186504761Y-112091428D01*
X186352380Y-112129523D01*
X186276190Y-112167619D01*
X186200000Y-112243809D01*
X186161904Y-112358095D01*
X186161904Y-112434285D01*
X186200000Y-112548571D01*
X186238095Y-112586666D01*
X186961904Y-113348571D02*
X186961904Y-112891428D01*
X186961904Y-113120000D02*
X186161904Y-113120000D01*
X186276190Y-113043809D01*
X186352380Y-112967619D01*
X186390476Y-112891428D01*
%TO.C,C7*%
X185058250Y-120184311D02*
X185058250Y-120238186D01*
X185112125Y-120345935D01*
X185166000Y-120399810D01*
X185273749Y-120453685D01*
X185381499Y-120453685D01*
X185462311Y-120426748D01*
X185596998Y-120345935D01*
X185677810Y-120265123D01*
X185758622Y-120130436D01*
X185785560Y-120049624D01*
X185785560Y-119941874D01*
X185731685Y-119834125D01*
X185677810Y-119780250D01*
X185570061Y-119726375D01*
X185516186Y-119726375D01*
X185381499Y-119483938D02*
X185004375Y-119106815D01*
X184681126Y-119914937D01*
%TO.C,C6*%
X185343333Y-110835714D02*
X185381428Y-110873809D01*
X185495714Y-110911904D01*
X185571904Y-110911904D01*
X185686190Y-110873809D01*
X185762380Y-110797619D01*
X185800476Y-110721428D01*
X185838571Y-110569047D01*
X185838571Y-110454761D01*
X185800476Y-110302380D01*
X185762380Y-110226190D01*
X185686190Y-110150000D01*
X185571904Y-110111904D01*
X185495714Y-110111904D01*
X185381428Y-110150000D01*
X185343333Y-110188095D01*
X184657619Y-110111904D02*
X184810000Y-110111904D01*
X184886190Y-110150000D01*
X184924285Y-110188095D01*
X185000476Y-110302380D01*
X185038571Y-110454761D01*
X185038571Y-110759523D01*
X185000476Y-110835714D01*
X184962380Y-110873809D01*
X184886190Y-110911904D01*
X184733809Y-110911904D01*
X184657619Y-110873809D01*
X184619523Y-110835714D01*
X184581428Y-110759523D01*
X184581428Y-110569047D01*
X184619523Y-110492857D01*
X184657619Y-110454761D01*
X184733809Y-110416666D01*
X184886190Y-110416666D01*
X184962380Y-110454761D01*
X185000476Y-110492857D01*
X185038571Y-110569047D01*
%TO.C,C3*%
X181183333Y-115165714D02*
X181221428Y-115203809D01*
X181335714Y-115241904D01*
X181411904Y-115241904D01*
X181526190Y-115203809D01*
X181602380Y-115127619D01*
X181640476Y-115051428D01*
X181678571Y-114899047D01*
X181678571Y-114784761D01*
X181640476Y-114632380D01*
X181602380Y-114556190D01*
X181526190Y-114480000D01*
X181411904Y-114441904D01*
X181335714Y-114441904D01*
X181221428Y-114480000D01*
X181183333Y-114518095D01*
X180916666Y-114441904D02*
X180421428Y-114441904D01*
X180688095Y-114746666D01*
X180573809Y-114746666D01*
X180497619Y-114784761D01*
X180459523Y-114822857D01*
X180421428Y-114899047D01*
X180421428Y-115089523D01*
X180459523Y-115165714D01*
X180497619Y-115203809D01*
X180573809Y-115241904D01*
X180802380Y-115241904D01*
X180878571Y-115203809D01*
X180916666Y-115165714D01*
%TO.C,U6*%
X185101218Y-113609221D02*
X185559154Y-114067157D01*
X185586091Y-114147969D01*
X185586091Y-114201844D01*
X185559154Y-114282656D01*
X185451404Y-114390406D01*
X185370592Y-114417343D01*
X185316717Y-114417343D01*
X185235905Y-114390406D01*
X184777969Y-113932470D01*
X184266158Y-114444280D02*
X184373908Y-114336531D01*
X184454720Y-114309593D01*
X184508595Y-114309593D01*
X184643282Y-114336531D01*
X184777969Y-114417343D01*
X184993468Y-114632842D01*
X185020406Y-114713654D01*
X185020406Y-114767529D01*
X184993468Y-114848341D01*
X184885719Y-114956091D01*
X184804906Y-114983028D01*
X184751032Y-114983028D01*
X184670219Y-114956091D01*
X184535532Y-114821404D01*
X184508595Y-114740592D01*
X184508595Y-114686717D01*
X184535532Y-114605905D01*
X184643282Y-114498155D01*
X184724094Y-114471218D01*
X184777969Y-114471218D01*
X184858781Y-114498155D01*
%TO.C,U5*%
X185829523Y-108881904D02*
X185829523Y-109529523D01*
X185791428Y-109605714D01*
X185753333Y-109643809D01*
X185677142Y-109681904D01*
X185524761Y-109681904D01*
X185448571Y-109643809D01*
X185410476Y-109605714D01*
X185372380Y-109529523D01*
X185372380Y-108881904D01*
X184610476Y-108881904D02*
X184991428Y-108881904D01*
X185029523Y-109262857D01*
X184991428Y-109224761D01*
X184915238Y-109186666D01*
X184724761Y-109186666D01*
X184648571Y-109224761D01*
X184610476Y-109262857D01*
X184572380Y-109339047D01*
X184572380Y-109529523D01*
X184610476Y-109605714D01*
X184648571Y-109643809D01*
X184724761Y-109681904D01*
X184915238Y-109681904D01*
X184991428Y-109643809D01*
X185029523Y-109605714D01*
%TO.C,U4*%
X179371218Y-116419221D02*
X179829154Y-116877157D01*
X179856091Y-116957969D01*
X179856091Y-117011844D01*
X179829154Y-117092656D01*
X179721404Y-117200406D01*
X179640592Y-117227343D01*
X179586717Y-117227343D01*
X179505905Y-117200406D01*
X179047969Y-116742470D01*
X178724720Y-117442842D02*
X179101844Y-117819966D01*
X178643908Y-117092656D02*
X179182656Y-117362030D01*
X178832470Y-117712216D01*
%TO.C,C5*%
X173244285Y-112664493D02*
X173206190Y-112702588D01*
X173168095Y-112816874D01*
X173168095Y-112893064D01*
X173206190Y-113007350D01*
X173282380Y-113083540D01*
X173358571Y-113121636D01*
X173510952Y-113159731D01*
X173625238Y-113159731D01*
X173777619Y-113121636D01*
X173853809Y-113083540D01*
X173930000Y-113007350D01*
X173968095Y-112893064D01*
X173968095Y-112816874D01*
X173930000Y-112702588D01*
X173891904Y-112664493D01*
X173968095Y-111940683D02*
X173968095Y-112321636D01*
X173587142Y-112359731D01*
X173625238Y-112321636D01*
X173663333Y-112245445D01*
X173663333Y-112054969D01*
X173625238Y-111978779D01*
X173587142Y-111940683D01*
X173510952Y-111902588D01*
X173320476Y-111902588D01*
X173244285Y-111940683D01*
X173206190Y-111978779D01*
X173168095Y-112054969D01*
X173168095Y-112245445D01*
X173206190Y-112321636D01*
X173244285Y-112359731D01*
%TO.C,C4*%
D11*
X178373793Y-122396674D02*
X178411888Y-122434769D01*
X178526174Y-122472864D01*
X178602364Y-122472864D01*
X178716650Y-122434769D01*
X178792840Y-122358579D01*
X178830936Y-122282388D01*
X178869031Y-122130007D01*
X178869031Y-122015721D01*
X178830936Y-121863340D01*
X178792840Y-121787150D01*
X178716650Y-121710960D01*
X178602364Y-121672864D01*
X178526174Y-121672864D01*
X178411888Y-121710960D01*
X178373793Y-121749055D01*
X177688079Y-121939531D02*
X177688079Y-122472864D01*
X177878555Y-121634769D02*
X178069031Y-122206198D01*
X177573793Y-122206198D01*
%TD*%
M02*
