M48
; DRILL file {KiCad (5.1.10)-1} date 10/07/21 10:54:54
; FORMAT={-:-/ absolute / inch / decimal}
; #@! TF.CreationDate,2021-10-07T10:54:54-05:00
; #@! TF.GenerationSoftware,Kicad,Pcbnew,(5.1.10)-1
; #@! TF.FileFunction,Plated,1,2,PTH
FMAT,2
INCH
T1C0.0118
T2C0.0157
%
G90
G05
T1
X6.8533Y-4.1476
X6.884Y-4.6502
X7.0287Y-4.6972
X7.0453Y-4.8308
X7.1039Y-4.6622
X7.1138Y-4.0843
X7.124Y-4.8035
X7.1433Y-4.6744
X7.1524Y-3.9827
X7.1799Y-4.6744
X7.2138Y-4.6638
X7.2276Y-4.1114
X7.2807Y-4.6642
X7.2815Y-4.8008
X7.335Y-4.8035
X7.3969Y-4.8024
X7.4232Y-4.5335
X7.4622Y-4.5075
X7.4724Y-4.1142
T2
X6.8433Y-4.6953
X6.9555Y-4.6661
X6.9661Y-4.6094
X6.9787Y-4.8248
X7.1484Y-4.0559
X7.3724Y-4.6748
X7.437Y-4.6528
T0
M30
