<?xml version="1.0"?>
<!DOCTYPE svg PUBLIC "-//W3C//DTD SVG 1.1//EN" "http://www.w3.org/Graphics/SVG/1.1/DTD/svg11.dtd">
<svg width="15.0mm" height="5.0mm" viewBox="-7.500000 -8.140000 15.000000 5.000000" xmlns="http://www.w3.org/2000/svg" version="1.1">
<g id="Sketch079" transform="scale(1,-1)">
<path id="Sketch079_w0000"  d="M 6.5 3.14 L 5.5 3.14 L 5.5 4.140000000000001 L 4.5 4.140000000000001 L 4.5 5.140000000000001 L 5.5 5.140000000000001 L 5.5 4.140000000000001 L 6.5 4.140000000000001 L 6.5 3.14 L 7.5 3.14 L 7.5 4.140000000000001 L 7.5 5.140000000000001 L 7.5 6.140000000000001 L 7.5 7.140000000000001 L 7.5 8.14 L 6.5 8.14 L 6.5 7.140000000000001 L 5.5 7.140000000000001 L 4.5 7.140000000000001 L 4.5 6.140000000000001 L 5.5 6.140000000000001 L 5.5 5.140000000000001 L 6.5 5.140000000000001 L 6.5 6.140000000000001 L 5.5 6.140000000000001 L 5.5 7.140000000000001 L 5.5 8.14 L 6.5 8.14 M 7.5 4.140000000000001 L 6.5 4.140000000000001 L 6.5 5.140000000000001 L 7.5 5.140000000000001 M 7.5 6.140000000000001 L 6.5 6.140000000000001 L 6.5 7.140000000000001 L 7.5 7.140000000000001 " stroke="#000000" stroke-width="0.35 px" style="stroke-width:0.35;stroke-miterlimit:4;stroke-dasharray:none;fill:none;fill-rule: evenodd "/>
<path id="Sketch079_w0001"  d="M 1.5 4.140000000000001 L 2.5 4.140000000000001 L 2.5 3.14 L 1.5 3.14 L 1.5 4.140000000000001 L 1.5 5.140000000000001 L 1.5 6.140000000000001 L 2.5 6.140000000000001 L 3.5 6.140000000000001 L 3.5 7.140000000000001 L 3.5 8.14 L 2.5 8.14 L 2.5 7.140000000000001 L 1.5 7.140000000000001 L 1.5 6.140000000000001 L 0.4999999999999998 6.140000000000001 L 0.4999999999999998 7.140000000000001 L 0.4999999999999998 8.14 L 1.5 8.14 L 1.5 7.140000000000001 L 0.4999999999999998 7.140000000000001 M 1.5 5.140000000000001 L 2.5 5.140000000000001 L 2.5 4.140000000000001 M 2.5 5.140000000000001 L 2.5 6.140000000000001 L 2.5 7.140000000000001 L 3.5 7.140000000000001 " stroke="#000000" stroke-width="0.35 px" style="stroke-width:0.35;stroke-miterlimit:4;stroke-dasharray:none;fill:none;fill-rule: evenodd "/>
<path id="Sketch079_w0002"  d="M -1.5 5.140000000000001 L -2.5 5.140000000000001 L -2.5 4.140000000000001 L -2.5 3.14 L -1.5 3.14 L -1.5 4.140000000000001 L -1.5 5.140000000000001 L -1.5 6.140000000000001 L -1.5 7.140000000000001 L -0.4999999999999998 7.140000000000001 L -0.4999999999999998 8.14 L -1.5 8.14 L -1.5 7.140000000000001 L -2.5 7.140000000000001 L -2.5 8.14 L -1.5 8.14 M -2.5 8.14 L -3.5 8.14 L -3.5 7.140000000000001 L -2.5 7.140000000000001 L -2.5 6.140000000000001 L -2.5 5.140000000000001 M -1.5 4.140000000000001 L -2.5 4.140000000000001 M -2.5 6.140000000000001 L -1.5 6.140000000000001 " stroke="#000000" stroke-width="0.35 px" style="stroke-width:0.35;stroke-miterlimit:4;stroke-dasharray:none;fill:none;fill-rule: evenodd "/>
<path id="Sketch079_w0003"  d="M -5.5 8.14 L -5.5 7.140000000000001 L -5.5 6.140000000000001 L -5.5 5.140000000000001 L -4.5 5.140000000000001 L -4.5 6.140000000000001 L -4.5 7.140000000000001 L -4.5 8.14 L -5.5 8.14 L -6.5 8.14 L -6.5 7.140000000000001 L -7.5 7.140000000000001 L -7.5 8.14 L -6.5 8.14 M -4.5 6.140000000000001 L -5.5 6.140000000000001 L -6.5 6.140000000000001 L -7.5 6.140000000000001 L -7.5 5.140000000000001 L -6.5 5.140000000000001 L -5.5 5.140000000000001 L -5.5 4.140000000000001 L -5.5 3.14 L -6.5 3.14 L -7.5 3.14 L -7.5 4.140000000000001 L -6.5 4.140000000000001 L -5.5 4.140000000000001 L -4.5 4.140000000000001 L -4.5 3.14 L -5.5 3.14 M -4.5 5.140000000000001 L -4.5 4.140000000000001 M -6.5 3.14 L -6.5 4.140000000000001 M -6.5 5.140000000000001 L -6.5 6.140000000000001 M -4.5 7.140000000000001 L -5.5 7.140000000000001 L -6.5 7.140000000000001 " stroke="#000000" stroke-width="0.35 px" style="stroke-width:0.35;stroke-miterlimit:4;stroke-dasharray:none;fill:none;fill-rule: evenodd "/>
<title>b'Logo'</title>
</g>
</svg>