<?xml version="1.0"?>
<!DOCTYPE svg PUBLIC "-//W3C//DTD SVG 1.1//EN" "http://www.w3.org/Graphics/SVG/1.1/DTD/svg11.dtd">
<svg width="14.3mm" height="18.65mm" viewBox="-7.150000 -7.150000 14.300000 18.650000" xmlns="http://www.w3.org/2000/svg" version="1.1">
<g id="Sketch078" transform="scale(1,-1)">
<path id="Sketch078_w0000"  d="M 5.475 -8.3 L 6.75 -8.3 L 6.75 -11.5 L 4.825 -11.5 L 4.825000000000001 -10.749999999999998 A 1.34381 1.34381 0 0 0 5.13487 -9.89163A 1.475 1.475 0 0 1 5.475 -8.94946L 5.475 -8.3 " stroke="#000000" stroke-width="0.35 px" style="stroke-width:0.35;stroke-miterlimit:4;stroke-dasharray:none;fill:none;fill-rule: evenodd "/>
<path id="Sketch078_w0001"  d="M -5.475 -8.949457348729275 A 1.475 1.475 0 0 1 -5.13487 -9.89163A 1.34381 1.34381 0 0 0 -4.825 -10.75L -4.825 -11.5 L -6.75 -11.5 L -6.75 -8.3 L -5.475 -8.3 L -5.475 -8.949457348729275 " stroke="#000000" stroke-width="0.35 px" style="stroke-width:0.35;stroke-miterlimit:4;stroke-dasharray:none;fill:none;fill-rule: evenodd "/>
<path id="Sketch078_w0002"  d="M -5.175 -8.3 L -4.6375 -8.3 L -3.3625 -8.3 L -2.825 -8.3 L -2.8249999999999997 -8.949457348729275 A 1.175 1.175 0 0 0 -3.09595 -9.7A 1.64381 1.64381 0 0 1 -3.475 -10.75L -3.4749999999999996 -11.5 L -4.525 -11.5 L -4.525 -10.75 A 1.64381 1.64381 0 0 1 -4.90405 -9.7A 1.175 1.175 0 0 0 -5.175 -8.94946L -5.175 -8.3 " stroke="#000000" stroke-width="0.35 px" style="stroke-width:0.35;stroke-miterlimit:4;stroke-dasharray:none;fill:none;fill-rule: evenodd "/>
<path id="Sketch078_w0003"  d="M 2.8249999999999997 -8.949457348729275 A 1.175 1.175 0 0 1 3.09595 -9.7A 1.64381 1.64381 0 0 0 3.475 -10.75L 3.4749999999999996 -11.5 L 4.525 -11.5 L 4.525 -10.75 A 1.64381 1.64381 0 0 0 4.90405 -9.7A 1.175 1.175 0 0 1 5.175 -8.94946L 5.175 -8.3 L 4.6375 -8.3 L 3.3625 -8.3 L 2.8249999999999997 -8.299999999999999 L 2.8249999999999997 -8.949457348729275 " stroke="#000000" stroke-width="0.35 px" style="stroke-width:0.35;stroke-miterlimit:4;stroke-dasharray:none;fill:none;fill-rule: evenodd "/>
<path id="Sketch078_w0004"  d="M -2.8651257198875815 -9.89162791096274 A 1.475 1.475 0 0 1 -2.525 -8.94946L -2.5250000000000004 -8.3 L -1.4749999999999999 -8.3 L -1.4749999999999999 -8.949457348729267 A 1.475 1.475 0 0 1 -1.13487 -9.89163A 1.34381 1.34381 0 0 0 -0.825 -10.75L -0.8250000000000002 -11.5 L -3.175 -11.5 L -3.175 -10.75 A 1.34381 1.34381 0 0 0 -2.86513 -9.89163" stroke="#000000" stroke-width="0.35 px" style="stroke-width:0.35;stroke-miterlimit:4;stroke-dasharray:none;fill:none;fill-rule: evenodd "/>
<path id="Sketch078_w0005"  d="M 1.1348742801124174 -9.89162791096274 A 1.475 1.475 0 0 1 1.475 -8.94946L 1.4749999999999999 -8.3 L 1.5999999999999999 -8.3 L 2.4 -8.3 L 2.5250000000000004 -8.3 L 2.5250000000000004 -8.949457348729275 A 1.475 1.475 0 0 1 2.86513 -9.89163A 1.34381 1.34381 0 0 0 3.175 -10.75L 3.175 -11.5 L 0.8250000000000002 -11.5 L 0.8250000000000017 -10.75 " stroke="#000000" stroke-width="0.35 px" style="stroke-width:0.35;stroke-miterlimit:4;stroke-dasharray:none;fill:none;fill-rule: evenodd "/>
<circle cx="0.0" cy="0.0" r="7.15" stroke="#000000" stroke-width="0.35 px" style="stroke-width:0.35;stroke-miterlimit:4;stroke-dasharray:none;fill:none"/>
<title>b'FSR_Mask'</title>
</g>
</svg>