<?xml version="1.0"?>
<!DOCTYPE svg PUBLIC "-//W3C//DTD SVG 1.1//EN" "http://www.w3.org/Graphics/SVG/1.1/DTD/svg11.dtd">
<svg width="13.4mm" height="14.102402735934621mm" viewBox="-6.700000 -2.602403 13.400000 14.102403" xmlns="http://www.w3.org/2000/svg" version="1.1">
<g id="Sketch076" transform="scale(1,-1)">
<path id="Sketch076_w0000"  d="M -0.5000000000000001 -2.6024027359346205 A 2.65 2.65 0 0 0 -2.6024 -0.5" stroke="#000000" stroke-width="0.35 px" style="stroke-width:0.35;stroke-miterlimit:4;stroke-dasharray:none;fill:none;fill-rule: evenodd "/>
<path id="Sketch076_w0001"  d="M -2.337849345855788 -9.117832009738656 A 3.7 3.7 0 0 1 -1.2 -9.75L -1.2 -11.5 L -5.1 -11.5 L -6.7 -11.5 L -6.7 -8.5 L -5.799999999999999 -8.5 L -2.937260628544902 -8.5 A 3.7 3.7 0 0 1 -2.33785 -9.11783L -2.685282761783909 -9.503695909538287 A 1.5 1.5 0 0 0 -3.8 -10L -5.137102789290225 -10.0 M -5.1 -11.5 L -5.1 -10.269868415357067 A 1 1 0 0 1 -5.45 -9.50993A 1 1 0 0 0 -5.8 -8.5" stroke="#000000" stroke-width="0.35 px" style="stroke-width:0.35;stroke-miterlimit:4;stroke-dasharray:none;fill:none;fill-rule: evenodd "/>
<path id="Sketch076_w0002"  d="M 5.1 -11.5 L 5.1 -10.269868415357067 A 1 1 0 0 0 5.45 -9.50993A 1 1 0 0 1 5.8 -8.75L 5.8 -8.5 L 6.7 -8.5 L 6.7 -11.5 L 5.1 -11.5 L 1.2000000000000002 -11.5 L 1.2000000000000002 -9.75 A 3.7 3.7 0 0 1 2.33785 -9.11783L 2.6852827617839092 -9.503695909538287 A 1.5 1.5 0 0 1 3.8 -10L 5.137102789290225 -10.0 M 2.3378493458557856 -9.117832009738658 A 3.7 3.7 0 0 1 2.93726 -8.5L 5.8 -8.5 " stroke="#000000" stroke-width="0.35 px" style="stroke-width:0.35;stroke-miterlimit:4;stroke-dasharray:none;fill:none;fill-rule: evenodd "/>
<path id="Sketch076_w0003"  d="M -3.30718913883074 -8.499999999999998 A 4 4 0 0 0 -1.10897 -2.4068" stroke="#000000" stroke-width="0.35 px" style="stroke-width:0.35;stroke-miterlimit:4;stroke-dasharray:none;fill:none;fill-rule: evenodd "/>
<path id="Sketch076_w0004"  d="M 1.108969683985996 -2.4068 A 4 4 0 0 0 3.30719 -8.5" stroke="#000000" stroke-width="0.35 px" style="stroke-width:0.35;stroke-miterlimit:4;stroke-dasharray:none;fill:none;fill-rule: evenodd "/>
<path id="Sketch076_w0005"  d="M -2.6024027359346205 0.5000000000000006 A 2.65 2.65 0 0 0 -0.5 2.6024" stroke="#000000" stroke-width="0.35 px" style="stroke-width:0.35;stroke-miterlimit:4;stroke-dasharray:none;fill:none;fill-rule: evenodd "/>
<path id="Sketch076_w0006"  d="M 0.49999999999999684 2.6024027359346213 A 2.65 2.65 0 0 0 2.6024 0.5" stroke="#000000" stroke-width="0.35 px" style="stroke-width:0.35;stroke-miterlimit:4;stroke-dasharray:none;fill:none;fill-rule: evenodd "/>
<path id="Sketch076_w0007"  d="M 2.602402735934621 -0.499999999999999 A 2.65 2.65 0 0 0 0.5 -2.6024" stroke="#000000" stroke-width="0.35 px" style="stroke-width:0.35;stroke-miterlimit:4;stroke-dasharray:none;fill:none;fill-rule: evenodd "/>
<title>b'Motor_Side_Routing'</title>
</g>
</svg>