<?xml version="1.0"?>
<!DOCTYPE svg PUBLIC "-//W3C//DTD SVG 1.1//EN" "http://www.w3.org/Graphics/SVG/1.1/DTD/svg11.dtd">
<svg width="18.356801154356035mm" height="18.358369147639785mm" viewBox="0 0 18.356801154356035 18.358369147639785" xmlns="http://www.w3.org/2000/svg" version="1.1">
<g id="Sketch" transform="translate(9.176833,9.179185) scale(1,-1)">
<circle cx="5.917128968013376e-17" cy="1.4340953783206824e-16" r="9.0" stroke="#000000" stroke-width="0.35 px" style="stroke-width:0.35;stroke-miterlimit:4;stroke-dasharray:none;fill:none"/>
<path id="Sketch_w0001"  d="M 0.6021043387674668 1.9072153431737573 L 2.875734694305099 7.46526288672877 A 8 8 0 0 1 -2.87573 7.46526L -0.6021043387674667 1.9072153431737568 A 2 2 0 0 0 0.602104 1.90722" stroke="#000000" stroke-width="0.35 px" style="stroke-width:0.35;stroke-miterlimit:4;stroke-dasharray:none;fill:none;fill-opacity:1;fill-rule: evenodd"/>
<path id="Sketch_w0002"  d="M 1.7982373025044498 0.8754099633209119 L 7.312189513782734 3.245286507309614 A 8 8 0 0 1 3.24529 7.31219L 0.9696448551016781 1.749225215624005 A 2 2 0 0 0 1.79824 0.87541" stroke="#000000" stroke-width="0.35 px" style="stroke-width:0.35;stroke-miterlimit:4;stroke-dasharray:none;fill:none;fill-opacity:1;fill-rule: evenodd"/>
<path id="Sketch_w0003"  d="M 1.9364916731037083 -0.5000000000000008 L 7.465262886728768 -2.8757346943051023 A 8 8 0 0 1 7.46526 2.87573L 1.9364916731037085 0.4999999999999999 A 2 2 0 0 0 1.93649 -0.5" stroke="#000000" stroke-width="0.35 px" style="stroke-width:0.35;stroke-miterlimit:4;stroke-dasharray:none;fill:none;fill-opacity:1;fill-rule: evenodd"/>
<path id="Sketch_w0004"  d="M -0.6021230709552119 -1.9072094293557442 L -2.875734694305102 -7.465262886728768 A 8 8 0 0 1 2.87573 -7.46526L 0.6021230709552114 -1.9072094293557444 A 2 2 0 0 0 -0.602123 -1.90721" stroke="#000000" stroke-width="0.35 px" style="stroke-width:0.35;stroke-miterlimit:4;stroke-dasharray:none;fill:none;fill-opacity:1;fill-rule: evenodd"/>
<path id="Sketch_w0005"  d="M -1.7982373025044498 -0.8754099633209114 L -7.312189513782734 -3.2452865073096127 A 8 8 0 0 1 -3.24529 -7.31219L -0.9696104939641579 -1.7492442625301308 A 2 2 0 0 0 -1.79824 -0.87541" stroke="#000000" stroke-width="0.35 px" style="stroke-width:0.35;stroke-miterlimit:4;stroke-dasharray:none;fill:none;fill-opacity:1;fill-rule: evenodd"/>
<path id="Sketch_w0006"  d="M -7.46526288672877 2.8757346943050983 A 8 8 0 0 1 -7.46526 -2.87573L -1.9364916731037087 -0.5 A 2 2 0 0 0 -1.93649 0.5L -7.46526288672877 2.8757346943050983 " stroke="#000000" stroke-width="0.35 px" style="stroke-width:0.35;stroke-miterlimit:4;stroke-dasharray:none;fill:none;fill-opacity:1;fill-rule: evenodd"/>
<path id="Sketch_w0007"  d="M -3.245286507309615 7.312189513782733 A 8 8 0 0 1 -7.31219 3.24529L -1.7982373025044494 0.8754099633209118 A 2 2 0 0 0 -0.969645 1.74923L -3.245286507309615 7.312189513782733 " stroke="#000000" stroke-width="0.35 px" style="stroke-width:0.35;stroke-miterlimit:4;stroke-dasharray:none;fill:none;fill-opacity:1;fill-rule: evenodd"/>
<path id="Sketch_w0008"  d="M 0.9696104939641573 -1.7492442625301312 L 3.245286507309612 -7.312189513782734 A 8 8 0 0 1 7.31219 -3.24529L 1.79823730250445 -0.8754099633209111 A 2 2 0 0 0 0.96961 -1.74924" stroke="#000000" stroke-width="0.35 px" style="stroke-width:0.35;stroke-miterlimit:4;stroke-dasharray:none;fill:none;fill-opacity:1;fill-rule: evenodd"/>
<circle cx="5.917128968013376e-17" cy="1.4340953783206824e-16" r="1.6" stroke="#000000" stroke-width="0.35 px" style="stroke-width:0.35;stroke-miterlimit:4;stroke-dasharray:none;fill:none"/>
<title>b'Sketch'</title>
</g>
</svg>